<svg width="16" height="14" viewBox="0 0 16 14" fill="none" xmlns="http://www.w3.org/2000/svg">
<path d="M13.5535 1.89279C12.5178 1.41275 11.4104 1.06388 10.2526 0.865234C10.1104 1.1199 9.94429 1.46242 9.82976 1.7349C8.599 1.55154 7.37956 1.55154 6.17144 1.7349C6.05693 1.46242 5.88704 1.1199 5.74357 0.865234C4.58454 1.06388 3.47584 1.41403 2.44013 1.89533C0.351095 5.0225 -0.215207 8.07201 0.0679444 11.0782C1.4535 12.1032 2.79627 12.7258 4.11638 13.1333C4.44233 12.6889 4.73302 12.2165 4.98345 11.7187C4.5065 11.5391 4.04969 11.3176 3.61805 11.0604C3.73256 10.9763 3.84457 10.8885 3.95279 10.7981C6.58546 12.0179 9.44593 12.0179 12.0472 10.7981C12.1566 10.8885 12.2686 10.9763 12.3819 11.0604C11.949 11.3189 11.4909 11.5404 11.014 11.72C11.2644 12.2165 11.5538 12.6902 11.881 13.1345C13.2024 12.7271 14.5464 12.1045 15.932 11.0782C16.2642 7.59325 15.3644 4.57176 13.5535 1.89279ZM5.34212 9.22942C4.55181 9.22942 3.9037 8.49855 3.9037 7.60853C3.9037 6.71851 4.53797 5.98637 5.34212 5.98637C6.14628 5.98637 6.79437 6.71722 6.78053 7.60853C6.78178 8.49855 6.14628 9.22942 5.34212 9.22942ZM10.6578 9.22942C9.86752 9.22942 9.21941 8.49855 9.21941 7.60853C9.21941 6.71851 9.85366 5.98637 10.6578 5.98637C11.462 5.98637 12.1101 6.71722 12.0962 7.60853C12.0962 8.49855 11.462 9.22942 10.6578 9.22942Z" fill="#B2B2B2"/>
</svg>
