<svg width="98" height="24" viewBox="0 0 98 24" fill="none" xmlns="http://www.w3.org/2000/svg">
<g clip-path="url(#clip0_333_452)">
<g filter="url(#filter0_d_333_452)">
<path d="M22.3782 22.1762C22.5519 23.0663 22.1503 23.5114 21.1734 23.5114H17.7867C16.9834 23.5114 16.4298 23.4137 16.1259 23.2183C15.8219 23.0229 15.6483 22.6647 15.6048 22.1437L15.2792 19.799H8.2127L7.07295 22.1437C6.81243 22.6647 6.5085 23.0229 6.16114 23.2183C5.81379 23.4137 5.24934 23.5114 4.46779 23.5114H0.885702C0.00239146 23.5114 -0.218765 23.0937 0.222233 22.2584L11.404 1.53038C11.6428 1.07448 11.8925 0.770544 12.153 0.618576C12.4135 0.466609 12.7934 0.390625 13.2928 0.390625H16.9725C17.4502 0.390625 17.8029 0.466609 18.0309 0.618576C18.2588 0.770544 18.4162 1.05277 18.5031 1.46525L22.3782 22.1762ZM14.172 10.8764C14.1069 10.1165 14.0797 9.3947 14.0906 8.71084L14.0991 8.31421L14.1114 7.94493L14.1277 7.603C14.1399 7.38417 14.1546 7.18357 14.172 7.00121L14.2697 6.31736H13.9766C13.6944 7.88045 13.2059 9.38927 12.5112 10.8438L9.09729 16.7705L14.693 14.6864L14.172 10.8764ZM32.8061 6.0894C34.7383 6.0894 36.2416 6.50731 37.3163 7.34314C38.3909 8.17896 39.0476 9.28072 39.2864 10.6484C39.3733 11.126 39.3298 11.4897 39.1562 11.7393C38.9825 11.989 38.646 12.2007 38.1467 12.3743L35.2484 13.3513C34.7057 13.525 34.3258 13.5467 34.1087 13.4164C33.9083 13.2962 33.7541 13.0187 33.6462 12.584L33.6202 12.472C33.4248 11.6037 32.8278 11.1695 31.8292 11.1695C30.6786 11.1695 29.9838 11.7665 29.745 12.9605L29.0286 17.1613C28.9201 17.7258 28.9906 18.16 29.2403 18.4639C29.49 18.7678 29.8862 18.9198 30.4289 18.9198C31.3407 18.9198 32.068 18.4747 32.6107 17.5847C32.8712 17.107 33.1372 16.8085 33.4085 16.6891C33.6799 16.5697 34.0544 16.5969 34.532 16.7705L37.4954 17.7149C38.3855 17.9971 38.5592 18.605 38.0164 19.5385C36.2579 22.5127 33.4465 23.9999 29.5822 23.9999C26.9771 23.9999 25.1426 23.3377 24.0788 22.0134C23.0151 20.6891 22.6894 18.8655 23.1019 16.5426L23.7206 12.9605C24.5456 8.37977 27.5741 6.0894 32.8061 6.0894ZM48.9327 6.0894C51.3642 6.0894 53.215 6.61044 54.485 7.6525C55.755 8.69456 56.2597 10.1817 55.9992 12.1138C55.7604 13.6118 55.0114 14.7733 53.7523 15.5982C52.4931 16.4232 50.8215 16.8357 48.7374 16.8357C47.6085 16.8357 46.3819 16.7705 45.0576 16.6403L44.9273 17.3241C44.6885 18.7136 45.2747 19.4083 46.6858 19.4083C47.8364 19.4083 48.7808 19.0175 49.5189 18.2359C49.8228 17.9103 50.0942 17.7149 50.333 17.6498C50.5718 17.5847 50.93 17.6715 51.4076 17.9103L53.5243 18.9849C54.3059 19.3974 54.4036 20.027 53.8174 20.8737C52.276 22.9578 49.6383 23.9999 45.9042 23.9999C43.1254 23.9999 41.1824 23.2943 40.0752 21.8832C38.968 20.472 38.6207 18.6267 39.0331 16.3472L39.6519 12.9605C40.0426 10.7678 41.0413 9.07448 42.6478 7.88045C44.2543 6.68642 46.3493 6.0894 48.9327 6.0894ZM48.2815 10.3879C46.9137 10.3879 46.0888 11.0609 45.8066 12.4069L45.4657 14.3484C46.269 14.457 47.5622 13.9471 48.0525 13.6798C49.1335 13.0905 49.9422 12.5263 50.0725 11.7231C50.2028 10.833 49.6057 10.3879 48.2815 10.3879Z" fill="url(#paint0_linear_333_452)"/>
<path d="M22.3782 22.1762C22.5519 23.0663 22.1503 23.5114 21.1734 23.5114H17.7867C16.9834 23.5114 16.4298 23.4137 16.1259 23.2183C15.8219 23.0229 15.6483 22.6647 15.6048 22.1437L15.2792 19.799H8.2127L7.07295 22.1437C6.81243 22.6647 6.5085 23.0229 6.16114 23.2183C5.81379 23.4137 5.24934 23.5114 4.46779 23.5114H0.885702C0.00239146 23.5114 -0.218765 23.0937 0.222233 22.2584L11.404 1.53038C11.6428 1.07448 11.8925 0.770544 12.153 0.618576C12.4135 0.466609 12.7934 0.390625 13.2928 0.390625H16.9725C17.4502 0.390625 17.8029 0.466609 18.0309 0.618576C18.2588 0.770544 18.4162 1.05277 18.5031 1.46525L22.3782 22.1762ZM14.172 10.8764C14.1069 10.1165 14.0797 9.3947 14.0906 8.71084L14.0991 8.31421L14.1114 7.94493L14.1277 7.603C14.1399 7.38417 14.1546 7.18357 14.172 7.00121L14.2697 6.31736H13.9766C13.6944 7.88045 13.2059 9.38927 12.5112 10.8438L9.09729 16.7705L14.693 14.6864L14.172 10.8764ZM32.8061 6.0894C34.7383 6.0894 36.2416 6.50731 37.3163 7.34314C38.3909 8.17896 39.0476 9.28072 39.2864 10.6484C39.3733 11.126 39.3298 11.4897 39.1562 11.7393C38.9825 11.989 38.646 12.2007 38.1467 12.3743L35.2484 13.3513C34.7057 13.525 34.3258 13.5467 34.1087 13.4164C33.9083 13.2962 33.7541 13.0187 33.6462 12.584L33.6202 12.472C33.4248 11.6037 32.8278 11.1695 31.8292 11.1695C30.6786 11.1695 29.9838 11.7665 29.745 12.9605L29.0286 17.1613C28.9201 17.7258 28.9906 18.16 29.2403 18.4639C29.49 18.7678 29.8862 18.9198 30.4289 18.9198C31.3407 18.9198 32.068 18.4747 32.6107 17.5847C32.8712 17.107 33.1372 16.8085 33.4085 16.6891C33.6799 16.5697 34.0544 16.5969 34.532 16.7705L37.4954 17.7149C38.3855 17.9971 38.5592 18.605 38.0164 19.5385C36.2579 22.5127 33.4465 23.9999 29.5822 23.9999C26.9771 23.9999 25.1426 23.3377 24.0788 22.0134C23.0151 20.6891 22.6894 18.8655 23.1019 16.5426L23.7206 12.9605C24.5456 8.37977 27.5741 6.0894 32.8061 6.0894ZM48.9327 6.0894C51.3642 6.0894 53.215 6.61044 54.485 7.6525C55.755 8.69456 56.2597 10.1817 55.9992 12.1138C55.7604 13.6118 55.0114 14.7733 53.7523 15.5982C52.4931 16.4232 50.8215 16.8357 48.7374 16.8357C47.6085 16.8357 46.3819 16.7705 45.0576 16.6403L44.9273 17.3241C44.6885 18.7136 45.2747 19.4083 46.6858 19.4083C47.8364 19.4083 48.7808 19.0175 49.5189 18.2359C49.8228 17.9103 50.0942 17.7149 50.333 17.6498C50.5718 17.5847 50.93 17.6715 51.4076 17.9103L53.5243 18.9849C54.3059 19.3974 54.4036 20.027 53.8174 20.8737C52.276 22.9578 49.6383 23.9999 45.9042 23.9999C43.1254 23.9999 41.1824 23.2943 40.0752 21.8832C38.968 20.472 38.6207 18.6267 39.0331 16.3472L39.6519 12.9605C40.0426 10.7678 41.0413 9.07448 42.6478 7.88045C44.2543 6.68642 46.3493 6.0894 48.9327 6.0894ZM48.2815 10.3879C46.9137 10.3879 46.0888 11.0609 45.8066 12.4069L45.4657 14.3484C46.269 14.457 47.5622 13.9471 48.0525 13.6798C49.1335 13.0905 49.9422 12.5263 50.0725 11.7231C50.2028 10.833 49.6057 10.3879 48.2815 10.3879Z" fill="url(#paint1_linear_333_452)"/>
</g>
<path d="M94.6478 2.94708C94.7998 3.13161 94.8432 3.45183 94.778 3.90773L94.2896 6.57802H96.5691C97.025 6.57802 97.3289 6.67029 97.4809 6.85482C97.6329 7.03935 97.6654 7.35957 97.5786 7.81547L97.1553 10.2578C97.0684 10.7354 96.9164 11.0665 96.6994 11.251C96.4823 11.4355 96.1458 11.5278 95.6899 11.5278H93.4429L92.5637 16.3148C92.4117 17.1832 92.4714 17.7802 92.7428 18.1058C93.0141 18.4315 93.5623 18.5943 94.3873 18.5943C94.8866 18.5943 95.2122 18.6866 95.3642 18.8711C95.5162 19.0556 95.5487 19.3867 95.4619 19.8643L94.9409 22.6649C94.854 23.1425 94.7075 23.4735 94.5012 23.6581C94.295 23.8426 93.9422 23.9349 93.4429 23.9349C90.5555 23.9783 88.5474 23.4573 87.4185 22.3718C86.2896 21.2863 85.9639 19.4084 86.4415 16.7381L87.3534 11.5278H85.9531C85.4755 11.5278 85.1607 11.4355 85.0087 11.251C84.8567 11.0665 84.8242 10.7354 84.911 10.2578L85.3669 7.81547C85.4538 7.35957 85.6003 7.03935 85.8065 6.85482C86.0128 6.67029 86.3439 6.57802 86.7998 6.57802H88.2326L88.3739 5.86317C88.4607 5.40726 88.6127 5.08705 88.8298 4.90251C89.0469 4.71798 90.566 3.90773 91.2448 3.62953C91.9236 3.35133 93.2833 2.76107 93.736 2.67028C94.1887 2.5795 94.4958 2.76255 94.6478 2.94708ZM70.6659 0.358209C72.902 0.358209 74.5682 0.938942 75.6645 2.10041C76.7609 3.26187 77.1354 4.81954 76.788 6.77341C76.5709 7.85889 76.2181 8.74356 75.7297 9.42741C75.2412 10.1113 74.5302 10.7463 73.5967 11.3324L73.5641 11.4627C75.5614 12.4179 76.3104 14.3718 75.8111 17.3243C75.442 19.365 74.4488 20.9064 72.8314 21.9484C71.2141 22.9905 69.2113 23.5115 66.8233 23.5115H57.0539C56.5329 23.5115 56.1856 23.4084 56.0119 23.2022C55.8382 22.9959 55.8056 22.6431 55.9142 22.1438L59.4963 1.75848C59.6048 1.23745 59.7731 0.873813 60.001 0.667571C60.229 0.46133 60.6035 0.358209 61.1245 0.358209H70.6659ZM83.6989 6.57802C84.1765 6.57802 84.4913 6.67029 84.6433 6.85482C84.7952 7.03935 84.8278 7.35957 84.741 7.81547L82.2009 22.2741C82.1141 22.73 81.9621 23.0502 81.745 23.2347C81.5279 23.4193 81.1806 23.5115 80.703 23.5115H77.1534C76.6758 23.5115 76.361 23.4193 76.2091 23.2347C76.0571 23.0502 76.0245 22.73 76.1114 22.2741L78.6514 7.81547C78.7382 7.35957 78.8902 7.03935 79.1073 6.85482C79.3244 6.67029 79.6718 6.57802 80.1494 6.57802H83.6989ZM67.4746 14.4261H63.7297L63.0458 18.2361H66.8233C68.2127 18.2361 69.0159 17.5957 69.233 16.3148C69.4936 15.0556 68.9074 14.4261 67.4746 14.4261ZM68.3864 5.60109H65.2602L64.6415 9.18318H67.7676C69.0919 9.18318 69.8626 8.59701 70.0797 7.42469C70.2968 6.20895 69.7324 5.60109 68.3864 5.60109ZM83.8943 0C84.8278 0 85.4357 0.173677 85.7179 0.521031C86.0001 0.868385 86.0544 1.49796 85.8807 2.40977L85.8156 2.76798C85.6419 3.67978 85.3597 4.30936 84.9689 4.65672C84.5781 5.00407 83.916 5.17775 82.9825 5.17775H81.3543C80.4207 5.17775 79.8129 5.00407 79.5307 4.65672C79.2484 4.30936 79.1941 3.67978 79.3678 2.76798L79.4004 2.40977C79.5741 1.49796 79.8671 0.868385 80.2796 0.521031C80.6921 0.173677 81.3543 0 82.2661 0H83.8943Z" fill="url(#paint2_linear_333_452)"/>
</g>
<defs>
<filter id="filter0_d_333_452" x="-63.998" y="-63.6094" width="184.064" height="151.609" filterUnits="userSpaceOnUse" color-interpolation-filters="sRGB">
<feFlood flood-opacity="0" result="BackgroundImageFix"/>
<feColorMatrix in="SourceAlpha" type="matrix" values="0 0 0 0 0 0 0 0 0 0 0 0 0 0 0 0 0 0 127 0" result="hardAlpha"/>
<feOffset/>
<feGaussianBlur stdDeviation="32"/>
<feComposite in2="hardAlpha" operator="out"/>
<feColorMatrix type="matrix" values="0 0 0 0 0 0 0 0 0 0 0 0 0 0 0 0 0 0 0.5 0"/>
<feBlend mode="normal" in2="BackgroundImageFix" result="effect1_dropShadow_333_452"/>
<feBlend mode="normal" in="SourceGraphic" in2="effect1_dropShadow_333_452" result="shape"/>
</filter>
<linearGradient id="paint0_linear_333_452" x1="23.6117" y1="26.2132" x2="20.172" y2="0.733553" gradientUnits="userSpaceOnUse">
<stop stop-color="#EBC367"/>
<stop offset="0.206588" stop-color="#FDB242"/>
<stop offset="0.589636" stop-color="#D1891E"/>
<stop offset="0.694186" stop-color="#E1A03F"/>
<stop offset="0.697522" stop-color="#FFDDA9"/>
<stop offset="0.911458" stop-color="#F1BD57"/>
</linearGradient>
<linearGradient id="paint1_linear_333_452" x1="51.1939" y1="4.37469" x2="3.26476" y2="8.37403" gradientUnits="userSpaceOnUse">
<stop stop-color="#E6C365" stop-opacity="0"/>
<stop offset="1" stop-color="#E6C365" stop-opacity="0.3"/>
</linearGradient>
<linearGradient id="paint2_linear_333_452" x1="55.8516" y1="15.8986" x2="91.8076" y2="-2.49255" gradientUnits="userSpaceOnUse">
<stop stop-color="#D0D0D0"/>
<stop offset="1" stop-color="#ABABAB"/>
</linearGradient>
<clipPath id="clip0_333_452">
<rect width="98" height="24" fill="white"/>
</clipPath>
</defs>
</svg>
