<svg width="16" height="14" viewBox="0 0 16 14" fill="none" xmlns="http://www.w3.org/2000/svg">
<g clip-path="url(#clip0_170_3336)">
<path fill-rule="evenodd" clip-rule="evenodd" d="M16.0002 2.03903C15.4104 2.29927 14.7777 2.47596 14.114 2.55475C14.7921 2.14886 15.3125 1.5042 15.5561 0.737784C14.921 1.11502 14.219 1.38721 13.4717 1.53524C12.8724 0.897753 12.02 0.499023 11.0746 0.499023C9.26237 0.499023 7.79161 1.96979 7.79161 3.78197C7.79161 4.03984 7.82026 4.29053 7.87756 4.52929C5.14853 4.3932 2.7299 3.08479 1.1111 1.09831C0.829366 1.58299 0.667009 2.14647 0.667009 2.74814C0.667009 3.88703 1.2472 4.89221 2.12822 5.47956C1.59101 5.46285 1.08484 5.31481 0.640746 5.06889C0.640746 5.08322 0.640746 5.09515 0.640746 5.10948C0.640746 6.69962 1.77247 8.02713 3.27427 8.32797C2.99969 8.40198 2.70841 8.44257 2.40996 8.44257C2.19746 8.44257 1.99213 8.42108 1.79157 8.38288C2.2094 9.68651 3.4223 10.6368 4.85725 10.663C3.73269 11.5441 2.31923 12.0693 0.779227 12.0693C0.514203 12.0693 0.253955 12.0526 -0.00390625 12.024C1.44775 12.9551 3.17399 13.4995 5.02915 13.4995C11.0674 13.4995 14.3694 8.49749 14.3694 4.15922C14.3694 4.01596 14.3671 3.87509 14.3599 3.73422C15.0022 3.27103 15.5585 2.69323 15.9978 2.03425L16.0002 2.03903Z" fill="#B2B2B2"/>
</g>
<defs>
<clipPath id="clip0_170_3336">
<rect width="16" height="13.0029" fill="white" transform="translate(0 0.499023)"/>
</clipPath>
</defs>
</svg>
