<svg width="22" height="24" viewBox="0 0 22 24" fill="none" xmlns="http://www.w3.org/2000/svg">
<path fill-rule="evenodd" clip-rule="evenodd" d="M4.39258 5.28881C4.81203 5.28881 5.15358 4.94761 5.15358 4.52763V3.21352L5.15341 1.34523C5.15341 0.925266 4.81222 0.584229 4.3924 0.584229C3.97278 0.584229 3.6314 0.924908 3.6314 1.34523V4.52763C3.63157 4.94759 3.97276 5.28881 4.39258 5.28881ZM19.9241 3.21499H19.1979V4.52909C19.1979 5.40669 18.4841 6.12064 17.6065 6.12064C16.7292 6.12064 16.0152 5.40656 16.0152 4.52909V3.21499H5.98424V4.52909C5.98424 5.40669 5.27016 6.12064 4.39322 6.12064C3.51545 6.12064 2.80167 5.40656 2.80167 4.52909V3.21499H2.07563C0.929453 3.21499 0 4.14409 0 5.29027V21.3406C0 22.4866 0.929453 23.4157 2.07563 23.4157H19.9244C21.0705 23.4157 22 22.4866 22 21.3406L21.9998 5.29027C21.9998 4.14409 21.0704 3.21499 19.9242 3.21499H19.9241ZM19.4394 20.1746C19.4394 20.5894 19.068 20.925 18.609 20.925H3.39021C2.93136 20.925 2.55985 20.5894 2.55985 20.1746V9.77786C2.55985 9.3625 2.93139 9.02624 3.39021 9.02624H18.6094C19.0685 9.02624 19.4398 9.36266 19.4398 9.77786V20.1746H19.4394ZM18.3681 4.52763C18.3681 4.94761 18.0267 5.28881 17.6071 5.28881C17.1874 5.28881 16.8459 4.94759 16.8459 4.52763V1.34523C16.8459 0.924908 17.1875 0.584229 17.6071 0.584229C18.0269 0.584229 18.3681 0.925266 18.3681 1.34523V4.52763ZM4.01465 10.3225H8.04107V14.4429H4.01465V10.3225ZM13.1097 10.3225H9.0835V14.4429H13.1097V10.3225ZM4.01465 15.387H8.04107V19.5074H4.01465V15.387ZM13.1098 15.387H9.08359V19.5074H13.1098V15.387ZM14.3408 10.3225H18.3671V14.4429H14.3408V10.3225ZM18.3671 15.387H14.3408V19.5074H18.3671V15.387Z" fill="url(#paint0_linear_3_589)"/>
<defs>
<linearGradient id="paint0_linear_3_589" x1="11" y1="0.584229" x2="11" y2="23.4157" gradientUnits="userSpaceOnUse">
<stop stop-color="#C68C35"/>
<stop offset="0.823082" stop-color="#A76B11"/>
</linearGradient>
</defs>
</svg>
