<svg width="96" height="72" viewBox="0 0 96 72" fill="none" xmlns="http://www.w3.org/2000/svg">
<path d="M81.3919 6.08093C92.2339 21.7716 97.5883 39.4703 95.5867 59.8456C95.5783 59.9318 95.5327 60.0109 95.4607 60.0629C87.2503 65.9971 79.2955 69.5985 71.4523 71.9869C71.3912 72.0051 71.3259 72.0041 71.2654 71.984C71.205 71.9639 71.1524 71.9256 71.1151 71.8747C69.3031 69.393 67.6567 66.7767 66.2143 64.0293C66.1315 63.8675 66.2071 63.6726 66.3775 63.6088C68.9923 62.6391 71.4787 61.4768 73.8703 60.1007C74.0587 59.992 74.0707 59.7263 73.8967 59.5987C73.3891 59.2278 72.8863 58.838 72.4051 58.4483C72.3151 58.3762 72.1939 58.362 72.0919 58.4105C56.5651 65.468 39.5564 65.468 23.846 58.4105C23.744 58.3656 23.6228 58.3809 23.5352 58.4518C23.0552 58.8416 22.5512 59.2278 22.0484 59.5987C21.8744 59.7263 21.8888 59.992 22.0784 60.1007C24.47 61.4508 26.9564 62.6391 29.5676 63.6135C29.7368 63.6773 29.8172 63.8675 29.7332 64.0293C28.322 66.7802 26.6756 69.3965 24.83 71.8782C24.7496 71.9786 24.6176 72.0247 24.4928 71.9869C16.6868 69.5985 8.73203 65.9971 0.521643 60.0629C0.453243 60.0109 0.404043 59.9283 0.396843 59.842C-1.27595 42.2177 2.13324 24.3726 14.5784 6.07739C14.6084 6.02896 14.654 5.99117 14.7068 5.96872C20.8304 3.20242 27.3908 1.16725 34.2476 0.00497926C34.3724 -0.0139195 34.4972 0.0427768 34.562 0.151445C35.4092 1.62791 36.3776 3.52133 37.0328 5.06867C44.2604 3.98199 51.6008 3.98199 58.9795 5.06867C59.6347 3.5544 60.5695 1.62791 61.4131 0.151445C61.4432 0.0975358 61.4898 0.0543468 61.5462 0.0280437C61.6027 0.00174072 61.6661 -0.0063316 61.7275 0.00497926C68.5879 1.1708 75.1483 3.20596 81.2671 5.96872C81.3211 5.99117 81.3655 6.02896 81.3919 6.08093V6.08093ZM40.7072 39.5908C40.7828 34.3807 36.9236 30.0694 32.0792 30.0694C27.2744 30.0694 23.4524 34.3429 23.4524 39.5908C23.4524 44.8376 27.35 49.1111 32.0792 49.1111C36.8852 49.1111 40.7072 44.8376 40.7072 39.5908V39.5908ZM72.6055 39.5908C72.6811 34.3807 68.8219 30.0694 63.9787 30.0694C59.1727 30.0694 55.3508 34.3429 55.3508 39.5908C55.3508 44.8376 59.2483 49.1111 63.9787 49.1111C68.8219 49.1111 72.6055 44.8376 72.6055 39.5908V39.5908Z" fill="#E6C365"/>
</svg>
