<svg width="120" height="120" viewBox="0 0 120 120" fill="none" xmlns="http://www.w3.org/2000/svg">
<circle cx="60" cy="60" r="60" fill="#E6C365"/>
<path d="M44.1265 102.279C45.3595 102.755 45.9415 103.61 45.8725 104.843C45.8702 105.083 45.7455 105.201 45.4987 105.196L44.8854 105.174C44.7562 105.177 44.6678 105.152 44.6201 105.1C44.5725 105.047 44.5465 104.949 44.5422 104.804C44.5564 104.455 44.4985 104.17 44.3686 103.95C44.2387 103.73 44.0098 103.557 43.6818 103.43C42.8358 103.103 42.2468 103.37 41.9148 104.229L40.2273 108.599C40.1816 108.717 40.1247 108.791 40.0566 108.822C39.9884 108.852 39.892 108.843 39.7673 108.795L39.1869 108.57C39.0689 108.525 38.9947 108.468 38.9646 108.399C38.9344 108.331 38.9421 108.238 38.9877 108.12L40.6715 103.76C40.9679 102.992 41.4146 102.475 42.0114 102.208C42.6082 101.941 43.3133 101.964 44.1265 102.279ZM37.3834 98.9684C38.2164 99.4524 38.7366 100.037 38.9441 100.723C39.1517 101.409 39.04 102.123 38.6092 102.865L37.4545 104.854C37.0237 105.596 36.4591 106.047 35.7607 106.207C35.0623 106.366 34.2967 106.204 33.4637 105.72C32.6368 105.24 32.1196 104.656 31.9121 103.971C31.7046 103.285 31.8162 102.571 32.247 101.828L33.4018 99.8395C33.8326 99.0974 34.3972 98.6466 35.0956 98.487C35.7939 98.3275 36.5566 98.4879 37.3834 98.9684ZM35.487 99.7455C35.104 99.824 34.7907 100.073 34.5471 100.493L33.3817 102.5C33.1381 102.92 33.0771 103.315 33.1987 103.687C33.3204 104.059 33.6153 104.381 34.0835 104.653C34.5516 104.925 34.9763 105.023 35.3575 104.948C35.7387 104.872 36.0529 104.622 36.3001 104.196L37.4654 102.189C37.7126 101.763 37.7745 101.366 37.6511 100.997C37.5276 100.628 37.2318 100.308 36.7637 100.036C36.2955 99.7639 35.87 99.6671 35.487 99.7455ZM32.4014 95.8553L32.8817 96.2169C32.9885 96.2973 33.0485 96.3755 33.0617 96.4515C33.0749 96.5275 33.0414 96.6189 32.9611 96.7256L28.8898 102.138C28.8095 102.245 28.731 102.303 28.6543 102.311C28.5777 102.319 28.486 102.283 28.3792 102.203L27.8989 101.841C27.7921 101.761 27.7336 101.684 27.7231 101.61C27.7127 101.536 27.7477 101.446 27.828 101.339L31.8993 95.9263C31.9796 95.8195 32.0567 95.7609 32.1305 95.7504C32.2044 95.74 32.2947 95.775 32.4014 95.8553ZM26.3136 90.2411C26.3882 90.24 26.4734 90.2861 26.5691 90.3792L27.0002 90.7984C27.1162 90.9112 27.1577 91.035 27.1248 91.1698L26.3164 95.7104C26.2704 95.9697 26.1973 96.2493 26.0971 96.5492C25.9969 96.8491 25.9072 97.0953 25.8279 97.288C25.7485 97.4806 25.7064 97.5795 25.7015 97.5845L25.7469 97.6286C25.7518 97.6236 25.8151 97.5307 25.9369 97.3499C26.0586 97.1691 26.222 96.9454 26.4271 96.6788C26.6321 96.4123 26.8376 96.1731 27.0434 95.9613L29.3517 93.5856C29.4448 93.4898 29.5287 93.4413 29.6032 93.4403C29.6778 93.4392 29.763 93.4853 29.8588 93.5784L30.2596 93.9682C30.3554 94.0614 30.405 94.1465 30.4086 94.2235C30.4122 94.3006 30.3674 94.387 30.2743 94.4829L25.5548 99.34C25.4617 99.4359 25.3766 99.4831 25.2995 99.4817C25.2224 99.4803 25.136 99.433 25.0402 99.3399L24.6092 98.9207C24.4983 98.8128 24.4543 98.6916 24.4772 98.5569L25.286 94.0461C25.3367 93.7619 25.4109 93.4711 25.5086 93.1737C25.6063 92.8763 25.6961 92.6326 25.7779 92.4424C25.8598 92.2522 25.9006 92.1521 25.9005 92.1422L25.8551 92.0981C25.8453 92.1081 25.7808 92.2023 25.6615 92.3806C25.5422 92.5589 25.38 92.7813 25.1749 93.0479C24.9699 93.3144 24.7571 93.5612 24.5365 93.7881L22.2577 96.1335C22.1645 96.2293 22.0807 96.2778 22.0061 96.2788C21.9316 96.2799 21.8464 96.2338 21.7506 96.1407L21.3498 95.7509C21.254 95.6577 21.2056 95.5739 21.2045 95.4993C21.2035 95.4247 21.2495 95.3394 21.3426 95.2436L26.0621 90.3864C26.1552 90.2906 26.239 90.2421 26.3136 90.2411ZM19.9709 82.1979C20.6743 82.3888 21.2829 82.896 21.7967 83.7194L23.0477 85.7243C23.1185 85.8377 23.1464 85.9322 23.1314 86.0079C23.1165 86.0835 23.0523 86.1568 22.939 86.2275L17.1954 89.8146C17.0821 89.8853 16.9881 89.9108 16.9136 89.891C16.8391 89.8712 16.7665 89.8046 16.6957 89.6913L15.4447 87.6864C14.9309 86.8629 14.7428 86.0932 14.8803 85.3771C15.0178 84.661 15.4534 84.0738 16.187 83.6157L17.8153 82.5988C18.5489 82.1406 19.2674 82.007 19.9709 82.1979ZM18.5223 83.712L16.8762 84.7401C16.4527 85.0045 16.2083 85.3334 16.1428 85.7267C16.0774 86.12 16.1918 86.5523 16.4859 87.0237L17.2343 88.2231L21.4928 85.5635L20.7444 84.3642C20.4503 83.8928 20.1123 83.6001 19.7304 83.4862C19.3485 83.3723 18.9458 83.4476 18.5223 83.712ZM18.7965 78.301C18.8665 78.3265 18.9299 78.3998 18.9864 78.5209L19.2407 79.0658C19.2972 79.1869 19.3135 79.2841 19.2895 79.3574C19.2655 79.4307 19.193 79.4957 19.072 79.5522L12.9369 82.418C12.8158 82.4745 12.7195 82.4885 12.648 82.4598C12.5764 82.4311 12.5123 82.3563 12.4558 82.2352L12.2015 81.6902C12.145 81.5691 12.1294 81.4735 12.1549 81.4034C12.1804 81.3333 12.2536 81.2699 12.3747 81.2134L18.5098 78.3476C18.6308 78.291 18.7264 78.2755 18.7965 78.301ZM13.09 78.0688C12.4334 78.2776 11.8262 78.2068 11.2685 77.8564C10.7109 77.506 10.2925 76.8917 10.0135 76.0135C9.79205 75.3163 9.74031 74.7238 9.85832 74.2361C9.97633 73.7483 10.2539 73.2984 10.6911 72.8863C10.8668 72.7197 11.0412 72.7344 11.2141 72.9303L11.631 73.4067C11.7141 73.5057 11.753 73.5875 11.7477 73.6519C11.7423 73.7163 11.6923 73.7968 11.5975 73.8934C11.3608 74.1237 11.2083 74.3751 11.14 74.6478C11.0717 74.9205 11.0983 75.2479 11.2197 75.63C11.5285 76.602 11.9911 76.99 12.6076 76.794C12.7818 76.7386 12.9137 76.6487 13.0033 76.5242C13.0928 76.3998 13.1419 76.2348 13.1503 76.0291C13.1587 75.8234 13.1514 75.632 13.1283 75.4548C13.1052 75.2777 13.0657 75.043 13.0098 74.7508C12.9538 74.4585 12.9135 74.2038 12.8887 73.9866C12.864 73.7693 12.8613 73.5229 12.8807 73.2473C12.9001 72.9718 12.9557 72.7345 13.0475 72.5356C13.1392 72.3366 13.2903 72.1447 13.5008 71.9596C13.7113 71.7746 13.9774 71.631 14.299 71.5287C14.9825 71.3114 15.6084 71.3891 16.1769 71.7619C16.7454 72.1347 17.1734 72.7736 17.4609 73.6786C17.7016 74.4361 17.7521 75.0769 17.6124 75.6011C17.4728 76.1253 17.1556 76.5841 16.6609 76.9776C16.5485 77.065 16.4551 77.1021 16.3808 77.0888C16.3065 77.0755 16.2301 77.0149 16.1516 76.9071L15.7748 76.4179C15.6984 76.3167 15.6657 76.2312 15.6767 76.1613C15.6877 76.0914 15.745 76.0104 15.8485 75.9184C16.3886 75.4588 16.5341 74.8369 16.2849 74.0525C15.9463 72.9866 15.4285 72.5645 14.7317 72.7861C14.5105 72.8564 14.3585 72.9933 14.2756 73.1968C14.1927 73.4003 14.1581 73.6106 14.1717 73.8277C14.1854 74.0448 14.2287 74.3263 14.3017 74.6721C14.3473 74.9085 14.3835 75.0981 14.4104 75.2409C14.4374 75.3836 14.4614 75.5697 14.4827 75.7992C14.5039 76.0286 14.5057 76.2199 14.488 76.3732C14.4703 76.5264 14.435 76.7 14.3823 76.8939C14.3296 77.0879 14.25 77.2497 14.1437 77.3795C14.0374 77.5092 13.8955 77.6374 13.718 77.7639C13.5406 77.8904 13.3313 77.9921 13.09 78.0688ZM11.2712 70.0515C10.4293 70.1734 9.72894 70.0101 9.17028 69.5615C8.61162 69.1129 8.2633 68.4117 8.1253 67.458C7.91074 65.9752 8.35479 64.9442 9.45742 64.3652C9.66801 64.2494 9.83167 64.3004 9.94841 64.518L10.2298 65.0636C10.2897 65.1829 10.3085 65.2761 10.2863 65.3433C10.264 65.4105 10.1938 65.4775 10.0756 65.5444C9.46867 65.8668 9.22564 66.4457 9.34651 67.2811C9.42407 67.8172 9.61074 68.2113 9.90653 68.4634C10.2023 68.7155 10.5903 68.8068 11.0704 68.7373L13.3772 68.4032C13.8573 68.3337 14.2052 68.1358 14.4208 67.8096C14.6365 67.4834 14.7056 67.0523 14.628 66.5163C14.5081 65.6878 14.1075 65.2021 13.4261 65.0592C13.2858 65.0226 13.1955 64.9753 13.1551 64.9172C13.1148 64.859 13.1099 64.7638 13.1404 64.6314L13.2572 64.0388C13.3074 63.797 13.4494 63.6982 13.6832 63.7426C14.9116 63.984 15.6336 64.8496 15.8492 66.3394C15.9872 67.2931 15.8519 68.0643 15.4433 68.653C15.0348 69.2417 14.406 69.5975 13.5571 69.7204L11.2712 70.0515ZM10.3677 61.9044C9.5101 61.8881 8.84198 61.6133 8.36336 61.0801C7.88475 60.5469 7.65459 59.7985 7.67289 58.835C7.69105 57.8785 7.94939 57.143 8.44791 56.6283C8.94643 56.1136 9.6245 55.8645 10.4821 55.8808L12.7809 55.9245C13.6385 55.9408 14.3066 56.2155 14.7852 56.7488C15.2638 57.282 15.4941 58.0269 15.4759 58.9833C15.4576 59.9468 15.1992 60.6859 14.7007 61.2006C14.2022 61.7152 13.5241 61.9644 12.6665 61.9481L10.3677 61.9044ZM10.4465 57.1992C9.96149 57.19 9.58614 57.3289 9.3205 57.6158C9.05485 57.9027 8.91689 58.3169 8.9066 58.8585C8.89632 59.4 9.0167 59.8191 9.26774 60.1159C9.51878 60.4126 9.89035 60.5657 10.3824 60.575L12.7022 60.6191C13.1943 60.6285 13.5714 60.4896 13.8336 60.2027C14.0957 59.9157 14.2319 59.5014 14.2422 58.9599C14.2525 58.4183 14.1303 57.9992 13.8758 57.7024C13.6212 57.4056 13.2514 57.2525 12.7664 57.2433L10.4465 57.1992ZM8.93701 49.4524C9.07536 48.7269 9.38608 48.1954 9.86917 47.8579C10.3523 47.5205 10.9495 47.4196 11.6608 47.5554C12.1926 47.6569 12.6154 47.8612 12.929 48.1681C13.2427 48.475 13.4306 48.86 13.4926 49.3229C13.6199 49.2183 13.7895 49.1361 14.0013 49.0763L16.4046 48.3535C16.6631 48.2739 16.7694 48.3551 16.7232 48.5969L16.6086 49.198C16.5651 49.426 16.5158 49.5813 16.4607 49.6639C16.4056 49.7465 16.3065 49.8063 16.1634 49.8435L14.2362 50.3779C13.9198 50.4607 13.6974 50.5758 13.5691 50.7232C13.4408 50.8706 13.3431 51.1205 13.2759 51.4728L13.1296 52.2398L15.5745 52.7065C15.7057 52.7315 15.7923 52.7749 15.8342 52.8366C15.8761 52.8983 15.8845 52.9948 15.8595 53.1261L15.7468 53.7169C15.7218 53.8481 15.6781 53.9365 15.6158 53.9819C15.5534 54.0272 15.4566 54.0374 15.3254 54.0124L8.67453 52.7429C8.54331 52.7178 8.45707 52.6727 8.41582 52.6076C8.37456 52.5424 8.36645 52.4442 8.39148 52.3129L8.93701 49.4524ZM12.1423 49.366C11.9927 49.1369 11.7453 48.9894 11.3999 48.9235C11.0546 48.8576 10.7727 48.9004 10.5541 49.0521C10.3355 49.2037 10.1926 49.4557 10.1254 49.8081L9.78343 51.6011L11.9175 52.0084L12.2595 50.2154C12.3253 49.87 12.2863 49.5868 12.1423 49.366ZM11.2639 41.5732C11.601 40.663 12.0948 40.0434 12.7452 39.7144C13.3957 39.3854 14.1264 39.3712 14.9373 39.6718L16.7372 40.339C17.5482 40.6396 18.0932 41.1267 18.3724 41.8003C18.6515 42.4739 18.6225 43.2658 18.2854 44.176L17.4646 46.3923C17.4182 46.5176 17.3605 46.5975 17.2915 46.6319C17.2225 46.6663 17.1254 46.6603 17.0001 46.6139L10.6511 44.2604C10.5258 44.2139 10.4482 44.1552 10.4183 44.0841C10.3884 44.013 10.3967 43.9148 10.4431 43.7895L11.2639 41.5732ZM14.4694 40.9049C14.0013 40.7313 13.5917 40.7389 13.2407 40.9276C12.8896 41.1163 12.6176 41.4712 12.4246 41.9922L11.9336 43.318L16.641 45.063L17.132 43.7372C17.325 43.2161 17.3498 42.7696 17.2064 42.3976C17.0629 42.0257 16.7572 41.7529 16.2891 41.5794L14.4694 40.9049ZM20.6285 31.8829C20.7774 31.6695 20.9205 31.5507 21.0575 31.5264C21.1946 31.502 21.3669 31.5623 21.5744 31.7074L21.6522 31.7617C21.8655 31.9108 21.9828 32.0528 22.0043 32.188C22.0257 32.3231 21.9619 32.4973 21.813 32.7107L21.7707 32.7712C21.6258 32.9788 21.4862 33.0958 21.352 33.1222C21.2178 33.1485 21.0441 33.0872 20.8308 32.9381L20.753 32.8837C20.5455 32.7387 20.4296 32.5977 20.4053 32.4605C20.3809 32.3234 20.4412 32.1511 20.5862 31.9435L20.6285 31.8829ZM27.8141 19.0916C27.8885 19.0966 27.9673 19.1468 28.0506 19.2421L31.1254 22.7614C31.6668 23.381 31.9168 24.0172 31.8755 24.67C31.8341 25.3227 31.4853 25.9361 30.8288 26.5102C29.8336 27.3805 28.8067 27.4984 27.7481 26.8639C27.5365 26.75 27.4903 26.5849 27.6094 26.3686L27.9143 25.8357C27.9719 25.7199 28.0349 25.6531 28.1034 25.6353C28.1719 25.6175 28.2712 25.6403 28.4015 25.7039C28.7037 25.8788 28.9823 25.9598 29.2372 25.9471C29.4922 25.9343 29.7521 25.8122 30.0168 25.5807C30.6996 24.9835 30.738 24.338 30.1318 23.6442L27.0501 20.117C26.9668 20.0217 26.9277 19.9368 26.9327 19.8624C26.9377 19.7879 26.9905 19.7067 27.091 19.6188L27.5595 19.2091C27.6548 19.1258 27.7397 19.0866 27.8141 19.0916ZM35.0092 14.8946C35.7129 15.0289 36.2934 15.4591 36.7506 16.1852L37.9761 18.1313C38.4334 18.8574 38.5706 19.5669 38.3879 20.2599C38.2052 20.9528 37.7093 21.5543 36.9003 22.0642C36.0853 22.5779 35.326 22.7676 34.6223 22.6333C33.9187 22.499 33.3382 22.0689 32.881 21.3428L31.6554 19.3966C31.1982 18.6706 31.0609 17.961 31.2436 17.2681C31.4263 16.5751 31.9252 15.9718 32.7402 15.4581C33.5492 14.9481 34.3056 14.7603 35.0092 14.8946ZM33.3979 16.5026C32.9399 16.7913 32.6558 17.1221 32.5457 17.4949C32.4356 17.8677 32.5118 18.2624 32.7741 18.6791L34.0109 20.643C34.2733 21.0596 34.5963 21.2988 34.98 21.3604C35.3636 21.422 35.7845 21.3085 36.2426 21.0197C36.7006 20.731 36.9837 20.3988 37.092 20.023C37.2002 19.6472 37.125 19.2539 36.8664 18.8433L35.6296 16.8793C35.371 16.4686 35.0489 16.231 34.6633 16.1664C34.2778 16.1018 33.856 16.2139 33.3979 16.5026ZM39.0471 12.278C39.1173 12.303 39.1811 12.3759 39.2384 12.4967L42.1402 18.6169C42.1975 18.7376 42.2136 18.8331 42.1886 18.9034C42.1635 18.9737 42.0907 19.0375 41.97 19.0948L41.4268 19.3525C41.3061 19.4098 41.2091 19.4267 41.1356 19.4031C41.0622 19.3796 40.9969 19.3074 40.9396 19.1867L38.0377 13.0665C37.9805 12.9457 37.966 12.8494 37.9942 12.7777C38.0224 12.7059 38.0969 12.6413 38.2176 12.5841L38.7607 12.3263C38.8814 12.269 38.9769 12.2529 39.0471 12.278ZM47.4909 9.34982C47.5573 9.38363 47.6113 9.46407 47.6527 9.59114L49.751 16.0315C49.7924 16.1586 49.7962 16.2554 49.7624 16.3219C49.7286 16.3884 49.6482 16.4424 49.5212 16.4838L48.9497 16.6702C48.7959 16.7203 48.6671 16.6994 48.5632 16.6075L44.9233 13.7772C44.7154 13.6156 44.5021 13.4207 44.2835 13.1923C44.0649 12.964 43.8889 12.7698 43.7555 12.6099C43.622 12.45 43.5542 12.3666 43.552 12.36L43.4918 12.3796C43.494 12.3863 43.5467 12.4856 43.65 12.6776C43.7532 12.8696 43.8749 13.1184 44.0152 13.4241C44.1555 13.7298 44.2713 14.0231 44.3629 14.304L45.3891 17.4539C45.4305 17.581 45.4344 17.6778 45.4006 17.7443C45.3668 17.8108 45.2864 17.8648 45.1593 17.9062L44.6279 18.0795C44.5009 18.1209 44.4025 18.1253 44.3327 18.0925C44.2628 18.0598 44.2072 17.9799 44.1658 17.8529L42.0675 11.4125C42.0261 11.2854 42.024 11.1881 42.0611 11.1205C42.0982 11.0529 42.1803 10.9984 42.3073 10.9569L42.8789 10.7706C43.0259 10.7226 43.1537 10.7401 43.2621 10.8232L46.8753 13.64C47.1032 13.8173 47.3258 14.0184 47.5434 14.2434C47.7609 14.4684 47.9347 14.6614 48.0648 14.8224C48.1949 14.9835 48.2644 15.0662 48.2733 15.0707L48.3334 15.0511L48.3128 15.0085C48.2881 14.9607 48.2418 14.8738 48.1737 14.7481C48.0715 14.5594 47.9503 14.3123 47.8101 14.0066C47.6698 13.7009 47.5506 13.3976 47.4526 13.0966L46.4394 9.9868C46.398 9.85973 46.3942 9.76294 46.428 9.69643C46.4618 9.62992 46.5422 9.57596 46.6692 9.53454L47.2006 9.36124C47.3276 9.31982 47.4244 9.31602 47.4909 9.34982ZM57.0961 7.90119C58.0639 7.83156 58.832 8.02489 59.4006 8.48117C59.9691 8.93745 60.2844 9.59708 60.3464 10.46L60.4841 12.3754C60.5461 13.2384 60.3284 13.9364 59.831 14.4693C59.3336 15.0023 58.601 15.3036 57.6332 15.3733L55.2769 15.5428C55.1436 15.5524 55.0471 15.5329 54.9872 15.4843C54.9273 15.4357 54.8926 15.3448 54.883 15.2115L54.3973 8.45504C54.3877 8.32173 54.4091 8.22675 54.4614 8.1701C54.5137 8.11344 54.6065 8.08032 54.7397 8.07073L57.0961 7.90119ZM59.0307 10.5441C58.9949 10.046 58.8185 9.6761 58.5016 9.43444C58.1846 9.19279 57.7491 9.09189 57.1951 9.13175L55.7855 9.23317L56.1456 14.2426L57.5552 14.1412C58.1092 14.1013 58.5258 13.9391 58.8049 13.6546C59.0841 13.37 59.2057 12.9787 59.1699 12.4806L59.0307 10.5441ZM62.9222 8.13875C62.9286 8.00526 62.9611 7.91349 63.0198 7.86347C63.0784 7.81344 63.1745 7.7916 63.3079 7.79795L63.9084 7.82649C64.0419 7.83284 64.1337 7.86361 64.1838 7.91881C64.234 7.97401 64.2559 8.06836 64.2496 8.20186L63.9282 14.9681C63.9218 15.1016 63.8911 15.1934 63.8359 15.2436C63.7807 15.2938 63.6864 15.3158 63.553 15.3094L62.9525 15.2809C62.8191 15.2745 62.7255 15.2437 62.6718 15.1883C62.6182 15.1329 62.5945 15.0385 62.6008 14.905L62.9222 8.13875ZM66.6763 10.2944C66.7963 9.61556 67.1408 9.1104 67.7099 8.7789C68.279 8.4474 69.0171 8.36186 69.9241 8.52229C70.6441 8.64966 71.1927 8.87884 71.5697 9.20983C71.9468 9.54082 72.2162 9.99565 72.3782 10.5743C72.4441 10.8074 72.3501 10.9551 72.0964 11.0174L71.4811 11.1657C71.3548 11.1934 71.2644 11.1899 71.2099 11.1552C71.1553 11.1206 71.1073 11.0388 71.0658 10.9101C70.9718 10.5934 70.8199 10.3416 70.6102 10.1545C70.4005 9.96736 70.0984 9.83891 69.7037 9.7691C68.6998 9.59152 68.1415 9.82136 68.0289 10.4586C67.9971 10.6387 68.0154 10.7973 68.084 10.9345C68.1526 11.0716 68.276 11.1917 68.4541 11.2946C68.6323 11.3975 68.8052 11.4799 68.9728 11.5417C69.1403 11.6035 69.3665 11.6774 69.6511 11.7635C69.9358 11.8495 70.1801 11.932 70.3839 12.011C70.5877 12.0899 70.8071 12.2019 71.0421 12.347C71.277 12.4922 71.4613 12.6515 71.5948 12.8252C71.7284 12.9988 71.8282 13.2218 71.8943 13.4942C71.9604 13.7667 71.964 14.0691 71.9053 14.4016C71.7804 15.1081 71.421 15.6267 70.8271 15.9574C70.2331 16.2881 69.4688 16.3708 68.5341 16.2054C67.7518 16.067 67.1609 15.8143 66.7617 15.4473C66.3625 15.0802 66.1035 14.5861 65.9848 13.9651C65.9596 13.8249 65.9701 13.725 66.0163 13.6653C66.0626 13.6056 66.1517 13.566 66.2837 13.5465L66.8916 13.4398C67.0166 13.419 67.1076 13.4297 67.1644 13.4719C67.2212 13.5141 67.2662 13.6025 67.2996 13.7369C67.4558 14.4289 67.9389 14.8465 68.749 14.9898C69.8498 15.1845 70.4639 14.9217 70.5912 14.2013C70.6316 13.9727 70.581 13.7745 70.4393 13.6065C70.2976 13.4386 70.1275 13.3103 69.929 13.2216C69.7304 13.1329 69.4611 13.0407 69.1211 12.9448C68.8906 12.8754 68.7059 12.8196 68.567 12.7771C68.4281 12.7347 68.2522 12.6697 68.0392 12.582C67.8262 12.4943 67.656 12.4071 67.5285 12.3202C67.4011 12.2334 67.2638 12.1216 67.1166 11.9848C66.9694 11.8481 66.863 11.7025 66.7975 11.548C66.732 11.3936 66.6844 11.2084 66.6547 10.9924C66.625 10.7764 66.6323 10.5437 66.6763 10.2944ZM74.6239 12.4057C74.9068 11.6031 75.3765 11.0583 76.033 10.7716C76.6895 10.4848 77.472 10.5017 78.3804 10.8222C79.7928 11.3205 80.4993 12.1926 80.5 13.4384C80.5048 13.6788 80.3837 13.8002 80.1368 13.8026L79.5231 13.7986C79.3897 13.7963 79.2985 13.7697 79.2493 13.7188C79.2002 13.6679 79.1734 13.5746 79.1691 13.4388C79.1654 12.7513 78.7657 12.2671 77.97 11.9864C77.4595 11.8063 77.0239 11.7887 76.6634 11.9338C76.3029 12.0788 76.0419 12.3802 75.8806 12.8379L75.1054 15.037C74.9441 15.4947 74.9577 15.8949 75.1464 16.2374C75.335 16.5799 75.6846 16.8413 76.1952 17.0214C76.9843 17.2998 77.6003 17.1703 78.0432 16.6329C78.1406 16.5256 78.2245 16.4675 78.2947 16.4587C78.3649 16.4499 78.4515 16.4898 78.5545 16.5783L79.0249 16.9569C79.2157 17.1137 79.2372 17.2854 79.0894 17.4719C78.3053 18.4484 77.2038 18.6863 75.7848 18.1856C74.8764 17.8651 74.2565 17.3872 73.925 16.7519C73.5935 16.1165 73.5704 15.3942 73.8557 14.5849L74.6239 12.4057ZM97.987 23.7491C98.0638 23.7557 98.1468 23.8087 98.2361 23.9081L99.8153 25.666C100.464 26.3879 100.782 27.1135 100.771 27.8426C100.759 28.5717 100.432 29.2254 99.7889 29.8037L98.3612 31.0874C97.718 31.6657 97.0335 31.9218 96.3076 31.8557C95.5818 31.7895 94.8945 31.3955 94.246 30.6735L92.6668 28.9156C92.5775 28.8162 92.5337 28.728 92.5353 28.6509C92.5369 28.5737 92.5874 28.4905 92.6868 28.4012L97.7227 23.8732C97.8221 23.7839 97.9102 23.7425 97.987 23.7491ZM97.9599 25.4474L94.2261 28.8046L95.1708 29.8562C95.5421 30.2695 95.9256 30.4991 96.3215 30.5452C96.7173 30.5912 97.1009 30.4473 97.4722 30.1135L98.9155 28.8157C99.2868 28.4819 99.4706 28.1156 99.467 27.717C99.4633 27.3183 99.2759 26.9123 98.9046 26.499L97.9599 25.4474ZM91.3969 18.0117C91.4738 18.0056 91.5643 18.0444 91.6687 18.1278L93.9418 19.9468C94.5183 20.4082 94.8429 20.9313 94.9154 21.5163C94.9879 22.1013 94.798 22.6767 94.3456 23.2425C94.0075 23.6654 93.6295 23.9439 93.2117 24.078C92.7939 24.2121 92.3659 24.1984 91.9278 24.0369C91.9607 24.1984 91.9542 24.3868 91.9081 24.6021L91.424 27.0657C91.3736 27.3315 91.2522 27.3875 91.0601 27.2338L90.5824 26.8515C90.4012 26.7065 90.287 26.5904 90.2397 26.503C90.1925 26.4157 90.1859 26.3001 90.2199 26.1562L90.648 24.2018C90.7226 23.8832 90.7248 23.6328 90.6545 23.4504C90.5842 23.268 90.4091 23.0648 90.1291 22.8408L89.5196 22.3531L87.9649 24.2976C87.8815 24.402 87.8027 24.4583 87.7286 24.4665C87.6544 24.4748 87.5652 24.4372 87.4609 24.3537L86.9915 23.978C86.8871 23.8945 86.8295 23.8146 86.8185 23.7383C86.8075 23.6619 86.8437 23.5716 86.9272 23.4672L91.1564 18.1773C91.2399 18.073 91.32 18.0177 91.3969 18.0117ZM91.6474 19.6916L90.2903 21.389L91.7152 22.5292C91.9897 22.7489 92.2582 22.8466 92.5206 22.8224C92.7929 22.7971 93.0389 22.6472 93.2585 22.3725C93.4781 22.0978 93.5719 21.8284 93.5401 21.5642C93.5082 21.3 93.3522 21.0559 93.0722 20.8318L91.6474 19.6916ZM86.2446 14.4491C87.0817 14.9114 87.6114 15.4832 87.8338 16.1645C88.0562 16.8458 87.9601 17.562 87.5455 18.3133L86.4343 20.327C86.0197 21.0782 85.465 21.5412 84.7703 21.7159C84.0755 21.8906 83.3096 21.7468 82.4725 21.2844C81.6292 20.8187 81.0964 20.2451 80.874 19.5639C80.6516 18.8826 80.7477 18.1663 81.1623 17.4151L82.2735 15.4014C82.6881 14.6501 83.2428 14.1872 83.9375 14.0125C84.6323 13.8378 85.4013 13.9833 86.2446 14.4491ZM84.368 15.2626C83.9885 15.3463 83.6799 15.6037 83.442 16.0347L82.3205 18.0669C82.0827 18.4979 82.0294 18.8964 82.1608 19.2622C82.2922 19.6281 82.5949 19.9419 83.0689 20.2037C83.5428 20.4655 83.9704 20.553 84.3516 20.4662C84.7327 20.3795 85.0406 20.1237 85.2751 19.6988L86.3965 17.6666C86.631 17.2417 86.6833 16.8448 86.5536 16.4759C86.4239 16.1069 86.1221 15.7916 85.6482 15.5298C85.1742 15.268 84.7475 15.179 84.368 15.2626ZM104.049 38.4707C104.169 38.7018 104.208 38.8837 104.166 39.0164C104.123 39.1492 103.99 39.2738 103.765 39.3904L103.681 39.4341C103.45 39.5539 103.27 39.5919 103.14 39.5482C103.011 39.5045 102.886 39.3671 102.766 39.136L102.732 39.0705C102.616 38.8457 102.577 38.6677 102.616 38.5365C102.655 38.4054 102.79 38.28 103.021 38.1602L103.105 38.1165C103.33 37.9999 103.509 37.9627 103.641 38.0048C103.774 38.0469 103.899 38.1803 104.015 38.4051L104.049 38.4707ZM112.031 50.5018C112.06 50.6249 112.055 50.7183 112.016 50.7818C111.977 50.8453 111.896 50.8917 111.772 50.921L107.227 52.0007C106.426 52.1908 105.747 52.1154 105.189 51.7744C104.631 51.4333 104.252 50.8385 104.05 49.9899C103.745 48.7032 104.12 47.7394 105.174 47.0985C105.374 46.9644 105.541 47.0005 105.677 47.2068L106.006 47.7251C106.082 47.8301 106.111 47.917 106.095 47.9859C106.079 48.0549 106.012 48.1321 105.895 48.2177C105.6 48.4036 105.398 48.6124 105.291 48.844C105.183 49.0756 105.17 49.3625 105.251 49.7047C105.46 50.5875 106.013 50.9225 106.909 50.7097L111.465 49.6275C111.589 49.5982 111.682 49.6032 111.745 49.6423C111.809 49.6814 111.856 49.766 111.887 49.8961L112.031 50.5018ZM109.953 54.0486C110.808 53.9835 111.5 54.1937 112.027 54.6791C112.554 55.1646 112.854 55.8877 112.927 56.8486C112.999 57.8025 112.812 58.5593 112.364 59.1189C111.917 59.6785 111.265 59.9909 110.41 60.056L108.117 60.2305C107.262 60.2956 106.571 60.0854 106.044 59.6C105.517 59.1146 105.217 58.3949 105.145 57.441C105.072 56.4801 105.259 55.7199 105.706 55.1602C106.154 54.6006 106.805 54.2882 107.661 54.2231L109.953 54.0486ZM110.32 58.7401C110.804 58.7033 111.165 58.5294 111.402 58.2186C111.639 57.9078 111.737 57.4824 111.696 56.9423C111.655 56.4022 111.496 55.9964 111.218 55.7248C110.94 55.4532 110.555 55.3361 110.064 55.3734L107.751 55.5496C107.26 55.5869 106.898 55.7609 106.664 56.0714C106.43 56.382 106.334 56.8073 106.375 57.3474C106.416 57.8874 106.577 58.2931 106.859 58.5644C107.141 58.8358 107.523 58.953 108.007 58.9162L110.32 58.7401ZM112.57 62.6327C112.703 62.6382 112.795 62.6702 112.846 62.7286C112.896 62.787 112.918 62.883 112.913 63.0166L112.888 63.6175C112.882 63.751 112.852 63.843 112.797 63.8935C112.742 63.944 112.648 63.9665 112.515 63.961L105.75 63.6796C105.616 63.674 105.524 63.6438 105.474 63.5889C105.423 63.534 105.401 63.4398 105.406 63.3063L105.431 62.7054C105.437 62.5718 105.467 62.4781 105.522 62.424C105.577 62.37 105.672 62.3457 105.805 62.3513L112.57 62.6327ZM111.594 72.4691C111.572 72.6009 111.53 72.6884 111.469 72.7316C111.408 72.7748 111.312 72.7852 111.18 72.7629L104.505 71.632C104.373 71.6097 104.285 71.5681 104.242 71.5073C104.199 71.4465 104.189 71.3502 104.211 71.2184L104.311 70.6255C104.338 70.4659 104.417 70.3615 104.546 70.3121L108.742 68.401C108.981 68.2918 109.253 68.1933 109.557 68.1056C109.86 68.0179 110.114 67.9521 110.317 67.9081C110.521 67.8641 110.626 67.8427 110.633 67.8439L110.644 67.7814C110.637 67.7803 110.524 67.7808 110.306 67.7832C110.089 67.7855 109.812 67.7779 109.476 67.7602C109.14 67.7426 108.827 67.7091 108.536 67.6598L105.27 67.1067C105.139 67.0844 105.051 67.0428 105.008 66.982C104.965 66.9211 104.954 66.8248 104.977 66.6931L105.07 66.1417C105.092 66.0099 105.134 65.9207 105.196 65.874C105.257 65.8274 105.354 65.8152 105.485 65.8375L112.161 66.9684C112.293 66.9907 112.38 67.034 112.423 67.0983C112.465 67.1626 112.475 67.2606 112.453 67.3924L112.353 67.9853C112.327 68.1379 112.252 68.243 112.128 68.3005L107.957 70.1943C107.694 70.3139 107.413 70.4178 107.113 70.5061C106.812 70.5943 106.561 70.6587 106.358 70.6993C106.155 70.7398 106.049 70.7629 106.041 70.7687L106.031 70.8311C106.045 70.8335 106.159 70.8332 106.373 70.8303C106.588 70.8274 106.863 70.8347 107.198 70.8523C107.534 70.87 107.858 70.9052 108.17 70.9581L111.393 71.5041C111.525 71.5264 111.613 71.568 111.656 71.6288C111.699 71.6897 111.709 71.786 111.687 71.9177L111.594 72.4691ZM73.4174 103.651C73.4849 103.688 73.5349 103.772 73.5675 103.901L75.2214 110.47C75.254 110.6 75.2495 110.697 75.2079 110.762C75.1662 110.827 75.0806 110.876 74.951 110.908L72.6602 111.486C71.7193 111.723 70.9292 111.666 70.29 111.316C69.6507 110.965 69.2255 110.371 69.0143 109.532L68.5454 107.67C68.3342 106.831 68.4271 106.105 68.8242 105.494C69.2213 104.883 69.8902 104.458 70.8311 104.221L73.122 103.644C73.2515 103.611 73.35 103.614 73.4174 103.651ZM72.4927 105.075L71.1223 105.421C70.5837 105.557 70.2017 105.789 69.9763 106.118C69.751 106.446 69.6993 106.853 69.8212 107.337L70.2952 109.22C70.4171 109.704 70.6552 110.038 71.0094 110.221C71.3635 110.403 71.8099 110.427 72.3486 110.291L73.719 109.946L72.4927 105.075ZM80.431 100.869C80.5037 100.895 80.5669 100.969 80.6205 101.091L83.339 107.295C83.3927 107.418 83.4043 107.514 83.374 107.585C83.3436 107.656 83.2673 107.719 83.1449 107.772L80.479 108.941C79.8029 109.238 79.1891 109.283 78.6376 109.075C78.086 108.868 77.6649 108.432 77.3741 107.769C77.1568 107.273 77.0858 106.808 77.1611 106.376C77.2365 105.943 77.4474 105.571 77.7938 105.257C77.6355 105.212 77.4718 105.118 77.3026 104.977L75.3466 103.404C75.1348 103.236 75.1415 103.103 75.3669 103.004L75.9271 102.758C76.1396 102.665 76.2955 102.618 76.3947 102.616C76.494 102.615 76.5994 102.663 76.711 102.76L78.2422 104.047C78.4895 104.261 78.7102 104.379 78.9043 104.402C79.0984 104.424 79.3596 104.363 79.688 104.219L80.4028 103.906L79.4035 101.625C79.3498 101.503 79.3366 101.407 79.3637 101.337C79.3908 101.268 79.4656 101.206 79.5879 101.153L80.1385 100.911C80.2608 100.858 80.3584 100.844 80.431 100.869ZM80.8982 105.036L79.2272 105.769C78.9052 105.911 78.694 106.103 78.5936 106.347C78.4895 106.6 78.508 106.887 78.6491 107.209C78.7903 107.532 78.9852 107.74 79.2339 107.834C79.4825 107.929 79.7711 107.904 80.0995 107.76L81.7705 107.027L80.8982 105.036ZM86.8869 97.5375C87.5933 97.6566 88.1829 98.0741 88.6557 98.7901L89.923 100.709C90.3958 101.425 90.5484 102.132 90.3807 102.828C90.213 103.525 89.7273 104.139 88.9236 104.67C88.1258 105.198 87.3737 105.402 86.6673 105.283C85.9609 105.164 85.3713 104.746 84.8985 104.03L83.6311 102.111C83.1583 101.395 83.0057 100.689 83.1734 99.9919C83.3411 99.2951 83.8239 98.6831 84.6217 98.1558C85.4254 97.6246 86.1805 97.4185 86.8869 97.5375ZM85.3019 99.1858C84.8502 99.4843 84.5743 99.8226 84.4742 100.201C84.3742 100.579 84.4578 100.97 84.7253 101.375L86.0042 103.312C86.2716 103.717 86.5988 103.948 86.9856 104.004C87.3725 104.06 87.7918 103.939 88.2435 103.64C88.6952 103.342 88.972 103.005 89.074 102.63C89.176 102.255 89.0914 101.862 88.8201 101.451L87.5411 99.5141C87.2698 99.1033 86.9417 98.8712 86.5568 98.8179C86.1719 98.7646 85.7536 98.8872 85.3019 99.1858ZM92.6027 92.6931C93.319 92.6953 93.9688 93.0111 94.552 93.6404L96.1222 95.3349C96.7006 95.9591 96.9639 96.6286 96.912 97.3434C96.8601 98.0582 96.4809 98.7431 95.7745 99.3983C94.6763 100.417 93.5759 100.637 92.4734 100.057C92.2586 99.9496 92.2076 99.7859 92.3204 99.5662L92.6095 99.0247C92.6736 98.9076 92.7396 98.8392 92.8076 98.8194C92.8755 98.7996 92.9705 98.8193 93.0926 98.8787C93.7026 99.1955 94.3169 99.0669 94.9356 98.493C95.3326 98.1248 95.5509 97.7473 95.5904 97.3605C95.6299 96.9738 95.4847 96.6025 95.1549 96.2465L93.5703 94.5365C93.2405 94.1806 92.8801 94.0064 92.4893 94.014C92.0984 94.0217 91.7045 94.2096 91.3075 94.5778C90.6939 95.1469 90.5218 95.7526 90.791 96.3949C90.8406 96.5312 90.8529 96.6325 90.828 96.6987C90.8031 96.765 90.7275 96.8231 90.6013 96.8731L90.0474 97.1134C89.8199 97.2093 89.658 97.1484 89.5617 96.9308C89.0629 95.782 89.3652 94.6959 90.4686 93.6725C91.1749 93.0173 91.8863 92.6909 92.6027 92.6931ZM98.7721 86.9685C98.9078 87.0117 98.9912 87.0677 99.0223 87.1365C99.0535 87.2053 99.0468 87.3026 99.0024 87.4284L98.8127 88.016C98.7726 88.1363 98.7206 88.2117 98.6568 88.2423C98.593 88.2728 98.4938 88.2714 98.3594 88.2381C97.6749 88.0529 97.0801 88.285 96.575 88.9346C95.8885 89.8173 95.8338 90.4833 96.4109 90.9325C96.5941 91.0751 96.7929 91.1229 97.0075 91.076C97.2222 91.0292 97.415 90.9387 97.5862 90.8045C97.7573 90.6704 97.9647 90.4753 98.2083 90.2193C98.3773 90.0478 98.513 89.9106 98.6154 89.8076C98.7178 89.7046 98.8575 89.5793 99.0345 89.4319C99.2115 89.2845 99.3681 89.1747 99.5044 89.1026C99.6407 89.0304 99.8037 88.9612 99.9933 88.8949C100.183 88.8286 100.361 88.8026 100.528 88.8168C100.696 88.831 100.881 88.8754 101.086 88.9501C101.291 89.0248 101.493 89.1399 101.693 89.2954C102.237 89.7187 102.522 90.2595 102.549 90.9177C102.576 91.576 102.307 92.2688 101.741 92.9961C101.292 93.5735 100.833 93.9516 100.365 94.1304C99.8961 94.3092 99.3682 94.3351 98.7812 94.2079C98.5444 94.1573 98.4578 94.0052 98.5213 93.7516L98.6778 93.1381C98.7123 93.0135 98.7576 92.9352 98.8138 92.9031C98.8699 92.871 98.9645 92.8667 99.0977 92.8902C99.4215 92.955 99.715 92.9384 99.9783 92.8403C100.242 92.7423 100.496 92.535 100.742 92.2186C101.369 91.4136 101.426 90.8124 100.916 90.415C100.771 90.3027 100.623 90.2448 100.469 90.2414C100.316 90.238 100.152 90.291 99.9783 90.4005C99.804 90.51 99.6505 90.6244 99.5176 90.7438C99.3847 90.8631 99.2137 91.0286 99.0046 91.2402C98.7955 91.4517 98.6085 91.6292 98.4435 91.7726C98.2785 91.916 98.077 92.0578 97.8389 92.1978C97.6009 92.3378 97.3739 92.4263 97.1581 92.4632C96.9423 92.5002 96.6985 92.4843 96.4269 92.4155C96.1553 92.3466 95.8863 92.2086 95.6199 92.0012C95.0539 91.5607 94.7635 91.0004 94.7488 90.3206C94.7341 89.6407 95.0182 88.926 95.6011 88.1765C96.089 87.5492 96.5884 87.1447 97.0993 86.9631C97.6102 86.7815 98.1679 86.7833 98.7721 86.9685ZM99.523 83.5361L105.353 86.9802C105.468 87.0482 105.534 87.1198 105.551 87.1951C105.568 87.2703 105.542 87.3655 105.474 87.4806L105.169 87.9985C105.101 88.1136 105.031 88.1804 104.959 88.199C104.886 88.2176 104.793 88.193 104.678 88.125L98.8473 84.6809C98.7323 84.613 98.6655 84.5429 98.6469 84.4706C98.6283 84.3984 98.653 84.3047 98.7209 84.1896L99.0265 83.6718C99.0944 83.5567 99.1654 83.4883 99.2394 83.4667C99.3134 83.445 99.4079 83.4682 99.523 83.5361ZM102.844 76.5651L109.049 79.2777C109.171 79.3312 109.245 79.3943 109.271 79.467C109.297 79.5397 109.283 79.6373 109.229 79.7598L108.283 81.9255C107.895 82.8149 107.367 83.4053 106.698 83.6966C106.03 83.9879 105.3 83.9603 104.507 83.6138L102.749 82.8448C101.956 82.4983 101.44 81.9809 101.2 81.2924C100.959 80.604 101.033 79.815 101.422 78.9255L102.368 76.7598C102.422 76.6374 102.484 76.5609 102.555 76.5305C102.625 76.5001 102.722 76.5116 102.844 76.5651ZM103.114 78.134L102.548 79.4296C102.326 79.9388 102.276 80.3831 102.398 80.7627C102.52 81.1423 102.809 81.432 103.267 81.632L105.045 82.4095C105.502 82.6095 105.912 82.6253 106.273 82.457C106.634 82.2887 106.926 81.95 107.149 81.4408L107.714 80.1452L103.114 78.134ZM55.3825 109.292C55.3368 109.036 55.3538 108.85 55.4334 108.736C55.513 108.622 55.6774 108.543 55.9266 108.498L56.0201 108.482C56.2762 108.436 56.4596 108.453 56.5703 108.533C56.6811 108.614 56.7593 108.782 56.8049 109.038L56.8179 109.111C56.8623 109.36 56.8465 109.542 56.7703 109.655C56.6942 109.769 56.528 109.848 56.2719 109.894L56.1785 109.911C55.9293 109.955 55.7476 109.938 55.6334 109.858C55.5192 109.778 55.4399 109.614 55.3955 109.365L55.3825 109.292Z" fill="black"/>
</svg>
