<svg width="76" height="76" viewBox="0 0 76 76" fill="none" xmlns="http://www.w3.org/2000/svg">
<circle cx="37.9412" cy="37.9412" r="37.9412" fill="black"/>
<path d="M54.602 23.0241C51.495 21.584 48.1726 20.5374 44.6993 19.9414C44.2728 20.7054 43.7743 21.733 43.4308 22.5504C39.7385 22.0003 36.0801 22.0003 32.4558 22.5504C32.1122 21.733 31.6025 20.7054 31.1722 19.9414C27.695 20.5374 24.3689 21.5878 21.2618 23.0317C14.9947 32.4132 13.2958 41.5618 14.1452 50.5804C18.3019 53.6553 22.3302 55.5233 26.2906 56.7456C27.2684 55.4125 28.1405 53.9952 28.8918 52.5017C27.4609 51.9631 26.0905 51.2985 24.7956 50.527C25.1391 50.2749 25.4751 50.0112 25.7998 49.7399C33.6978 53.3996 42.2791 53.3996 50.083 49.7399C50.4113 50.0112 50.7474 50.2749 51.0871 50.527C49.7883 51.3024 48.4143 51.967 46.9835 52.5056C47.7347 53.9952 48.603 55.4164 49.5846 56.7495C53.5488 55.5272 57.5808 53.6592 61.7374 50.5804C62.7342 40.1255 60.0348 31.061 54.602 23.0241ZM29.9678 45.0339C27.5969 45.0339 25.6525 42.8414 25.6525 40.1713C25.6525 37.5013 27.5554 35.3049 29.9678 35.3049C32.3803 35.3049 34.3246 37.4974 34.2831 40.1713C34.2868 42.8414 32.3803 45.0339 29.9678 45.0339ZM45.9151 45.0339C43.544 45.0339 41.5998 42.8414 41.5998 40.1713C41.5998 37.5013 43.5024 35.3049 45.9151 35.3049C48.3275 35.3049 50.2717 37.4974 50.2301 40.1713C50.2301 42.8414 48.3275 45.0339 45.9151 45.0339Z" fill="url(#paint0_linear_409_108)"/>
<defs>
<linearGradient id="paint0_linear_409_108" x1="13.9397" y1="56.7495" x2="59.1912" y2="52.9264" gradientUnits="userSpaceOnUse">
<stop stop-color="#E6C365"/>
<stop offset="1" stop-color="#BD842E"/>
</linearGradient>
</defs>
</svg>
