<svg width="16" height="13" viewBox="0 0 16 13" fill="none" xmlns="http://www.w3.org/2000/svg">
<path d="M13.5535 1.39474C12.5178 0.914706 11.4104 0.565837 10.2526 0.367188C10.1104 0.621849 9.94429 0.964373 9.82976 1.23685C8.599 1.0535 7.37956 1.0535 6.17144 1.23685C6.05693 0.964373 5.88704 0.621849 5.74357 0.367188C4.58454 0.565837 3.47584 0.915987 2.44013 1.39728C0.351095 4.52446 -0.215207 7.57396 0.0679444 10.5802C1.4535 11.6051 2.79627 12.2278 4.11638 12.6352C4.44233 12.1909 4.73302 11.7185 4.98345 11.2206C4.5065 11.0411 4.04969 10.8195 3.61805 10.5623C3.73256 10.4783 3.84457 10.3904 3.95279 10.3C6.58546 11.5198 9.44593 11.5198 12.0472 10.3C12.1566 10.3904 12.2686 10.4783 12.3819 10.5623C11.949 10.8208 11.4909 11.0424 11.014 11.2219C11.2644 11.7185 11.5538 12.1921 11.881 12.6365C13.2024 12.2291 14.5464 11.6064 15.932 10.5802C16.2642 7.09521 15.3644 4.07371 13.5535 1.39474ZM5.34212 8.73137C4.55181 8.73137 3.9037 8.0005 3.9037 7.11048C3.9037 6.22046 4.53797 5.48833 5.34212 5.48833C6.14628 5.48833 6.79437 6.21918 6.78053 7.11048C6.78178 8.0005 6.14628 8.73137 5.34212 8.73137ZM10.6578 8.73137C9.86752 8.73137 9.21941 8.0005 9.21941 7.11048C9.21941 6.22046 9.85366 5.48833 10.6578 5.48833C11.462 5.48833 12.1101 6.21918 12.0962 7.11048C12.0962 8.0005 11.462 8.73137 10.6578 8.73137Z" fill="#1D1D20"/>
</svg>
