<svg width="27" height="16" viewBox="0 0 27 16" fill="none" xmlns="http://www.w3.org/2000/svg">
<path fill-rule="evenodd" clip-rule="evenodd" d="M7.5543 5.87644C7.5543 2.63086 10.2161 0 13.5 0C16.784 0 19.4456 2.63097 19.4456 5.87644C19.4456 9.12201 16.7839 11.7529 13.5 11.7529C10.2162 11.7529 7.5543 9.12212 7.5543 5.87644ZM11.3521 5.87729C11.3521 7.04907 12.3133 8.00011 13.5 8.00011C14.6866 8.00011 15.6478 7.04907 15.6478 5.87729C15.6478 4.7055 14.6858 3.75447 13.5 3.75447C12.3144 3.75447 11.3521 4.70444 11.3521 5.87729ZM18.823 0.874142C22.2691 2.05447 24.9968 4.34004 26.3187 7.18253H26.319C26.5603 7.70342 26.5603 8.29794 26.319 8.81885C24.3684 13.0114 19.3655 16.0007 13.5004 16.0007C7.63526 16.0007 2.63208 13.0116 0.681833 8.81779C0.439389 8.29775 0.439389 7.70344 0.681833 7.18253C2.00369 4.33978 4.73212 2.05362 8.17754 0.874142C6.92124 2.17896 6.14525 3.93781 6.14525 5.87676C6.14525 9.88472 9.445 13.1462 13.5003 13.1462C17.5555 13.1462 20.8553 9.88482 20.8553 5.87676C20.8553 3.93866 20.0793 2.1788 18.823 0.874142Z" fill="url(#paint0_linear_3_584)"/>
<defs>
<linearGradient id="paint0_linear_3_584" x1="13.5" y1="0" x2="13.5" y2="16.0007" gradientUnits="userSpaceOnUse">
<stop stop-color="#C68C35"/>
<stop offset="0.823082" stop-color="#A76B11"/>
</linearGradient>
</defs>
</svg>
