<svg width="131" height="32" viewBox="0 0 131 32" fill="none" xmlns="http://www.w3.org/2000/svg">
<g clip-path="url(#clip0_9_437)">
<path d="M29.8377 29.5685C30.0693 30.7553 29.5338 31.3487 28.2312 31.3487H23.7156C22.6446 31.3487 21.9065 31.2184 21.5012 30.9579C21.096 30.6974 20.8644 30.2198 20.8065 29.5251L20.3723 26.3989H10.9504L9.43068 29.5251C9.08332 30.2198 8.67808 30.6974 8.21494 30.9579C7.7518 31.2184 6.9992 31.3487 5.95714 31.3487H1.18102C0.00326999 31.3487 -0.291605 30.7918 0.296393 29.678L15.2054 2.04067C15.5238 1.4328 15.8567 1.02755 16.2041 0.824931C16.5514 0.622308 17.058 0.520996 17.7238 0.520996H22.6301C23.267 0.520996 23.7373 0.622308 24.0413 0.824931C24.3452 1.02755 24.5551 1.40385 24.6708 1.95383L29.8377 29.5685ZM18.8961 14.502C18.8092 13.4889 18.7731 12.5264 18.7875 11.6146L18.7988 11.0858L18.8153 10.5934L18.837 10.1375C18.8532 9.84572 18.8729 9.57825 18.8961 9.33511L19.0263 8.4233H18.6356C18.2593 10.5074 17.608 12.5192 16.6817 14.4586L12.1298 22.3609L19.5908 19.5821L18.8961 14.502ZM43.7415 8.11937C46.3178 8.11937 48.3223 8.67658 49.7551 9.79101C51.188 10.9054 52.0636 12.3745 52.382 14.1981C52.4978 14.8349 52.4399 15.3197 52.2083 15.6526C51.9767 15.9855 51.5281 16.2677 50.8623 16.4993L46.998 17.8019C46.2743 18.0334 45.7678 18.0624 45.4783 17.8887C45.2111 17.7284 45.0056 17.3584 44.8617 16.7788L44.827 16.6295C44.5665 15.4717 43.7705 14.8928 42.439 14.8928C40.9048 14.8928 39.9785 15.6888 39.6601 17.2808L38.7049 22.8819C38.5602 23.6345 38.6543 24.2134 38.9871 24.6187C39.32 25.0239 39.8483 25.2266 40.5719 25.2266C41.7877 25.2266 42.7574 24.6332 43.481 23.4464C43.8284 22.8096 44.183 22.4115 44.5448 22.2523C44.9066 22.0931 45.406 22.1293 46.0428 22.3609L49.9939 23.62C51.1807 23.9963 51.4123 24.8068 50.6886 26.0515C48.344 30.0171 44.5955 32 39.443 32C35.9695 32 33.5235 31.1171 32.1052 29.3514C30.6868 27.5857 30.2526 25.1542 30.8026 22.0569L31.6276 17.2808C32.7275 11.1732 36.7655 8.11937 43.7415 8.11937ZM65.2437 8.11937C68.4857 8.11937 70.9534 8.81408 72.6467 10.2035C74.3401 11.5929 75.0131 13.5757 74.6657 16.1519C74.3473 18.1492 73.3487 19.6978 71.6698 20.7978C69.9909 21.8977 67.7621 22.4477 64.9832 22.4477C63.478 22.4477 61.8426 22.3609 60.0768 22.1872L59.9032 23.099C59.5848 24.9516 60.3663 25.8778 62.2478 25.8778C63.782 25.8778 65.0411 25.3568 66.0253 24.3148C66.4305 23.8806 66.7924 23.62 67.1108 23.5332C67.4292 23.4464 67.9068 23.5622 68.5436 23.8806L71.3659 25.3134C72.4079 25.8634 72.5382 26.7028 71.7566 27.8317C69.7014 30.6105 66.1845 32 61.2057 32C57.5006 32 54.91 31.0592 53.4337 29.1777C51.9574 27.2962 51.4943 24.8358 52.0443 21.7964L52.8692 17.2808C53.3903 14.3573 54.7218 12.0995 56.8638 10.5074C59.0058 8.91539 61.7991 8.11937 65.2437 8.11937ZM64.3754 13.8507C62.5517 13.8507 61.4518 14.748 61.0755 16.5427L60.621 19.1314C61.692 19.2761 63.4163 18.5963 64.0701 18.2399C65.5114 17.4542 66.5897 16.7019 66.7634 15.6309C66.9371 14.4441 66.1411 13.8507 64.3754 13.8507Z" fill="url(#paint0_linear_9_437)"/>
<path d="M126.197 3.92944C126.4 4.17549 126.458 4.60244 126.371 5.21031L125.719 8.77069H128.759C129.367 8.77069 129.772 8.89371 129.975 9.13976C130.177 9.3858 130.221 9.81275 130.105 10.4206L129.54 13.6771C129.425 14.3139 129.222 14.7553 128.932 15.0014C128.643 15.2474 128.194 15.3704 127.586 15.3704H124.591L123.418 21.7531C123.216 22.9109 123.295 23.7069 123.657 24.1411C124.019 24.5753 124.75 24.7924 125.85 24.7924C126.515 24.7924 126.95 24.9154 127.152 25.1615C127.355 25.4075 127.398 25.8489 127.283 26.4858L126.588 30.2198C126.472 30.8566 126.277 31.2981 126.002 31.5441C125.727 31.7901 125.256 31.9132 124.591 31.9132C120.741 31.9711 118.063 31.2763 116.558 29.829C115.053 28.3817 114.619 25.8779 115.255 22.3175L116.471 15.3704H114.604C113.967 15.3704 113.548 15.2474 113.345 15.0014C113.142 14.7553 113.099 14.3139 113.215 13.6771L113.823 10.4206C113.938 9.81275 114.134 9.3858 114.409 9.13976C114.684 8.89371 115.125 8.77069 115.733 8.77069H117.643L117.832 7.81755C117.948 7.20968 118.15 6.78273 118.44 6.53669C118.729 6.29064 120.755 5.21031 121.66 4.83937C122.565 4.46844 124.378 3.68142 124.981 3.56038C125.585 3.43934 125.994 3.6834 126.197 3.92944ZM94.2212 0.477612C97.2026 0.477612 99.4243 1.25192 100.886 2.80054C102.348 4.34916 102.847 6.42605 102.384 9.03121C102.095 10.4785 101.624 11.6581 100.973 12.5699C100.322 13.4817 99.3736 14.3284 98.1289 15.1099L98.0855 15.2836C100.749 16.5572 101.747 19.1624 101.081 23.0991C100.589 25.82 99.265 27.8752 97.1086 29.2646C94.9521 30.654 92.2818 31.3487 89.0977 31.3487H76.0719C75.3772 31.3487 74.9141 31.2112 74.6825 30.9362C74.4509 30.6612 74.4075 30.1909 74.5522 29.5251L79.3284 2.34464C79.4731 1.64993 79.6974 1.16508 80.0014 0.890095C80.3053 0.615106 80.8046 0.477612 81.4993 0.477612H94.2212ZM111.599 8.77069C112.235 8.77069 112.655 8.89371 112.858 9.13976C113.06 9.3858 113.104 9.81275 112.988 10.4206L109.601 29.6988C109.485 30.3067 109.283 30.7336 108.993 30.9796C108.704 31.2257 108.241 31.3487 107.604 31.3487H102.871C102.234 31.3487 101.815 31.2257 101.612 30.9796C101.409 30.7336 101.366 30.3067 101.482 29.6988L104.869 10.4206C104.984 9.81275 105.187 9.3858 105.476 9.13976C105.766 8.89371 106.229 8.77069 106.866 8.77069H111.599ZM89.9661 19.2347H84.9729L84.0611 24.3148H89.0977C90.9503 24.3148 92.0213 23.4609 92.3107 21.7531C92.6581 20.0742 91.8765 19.2347 89.9661 19.2347ZM91.1818 7.46811H87.0136L86.1886 12.2442H90.3569C92.1226 12.2442 93.1502 11.4627 93.4396 9.89959C93.7291 8.27861 92.9765 7.46811 91.1818 7.46811ZM111.859 0C113.104 0 113.914 0.231569 114.291 0.694708C114.667 1.15785 114.739 1.99729 114.508 3.21303L114.421 3.69064C114.189 4.90638 113.813 5.74582 113.292 6.20896C112.771 6.67209 111.888 6.90366 110.643 6.90366H108.472C107.228 6.90366 106.417 6.67209 106.041 6.20896C105.665 5.74582 105.592 4.90638 105.824 3.69064L105.867 3.21303C106.099 1.99729 106.49 1.15785 107.04 0.694708C107.589 0.231569 108.472 0 109.688 0H111.859Z" fill="url(#paint1_linear_9_437)"/>
</g>
<defs>
<linearGradient id="paint0_linear_9_437" x1="8.15273e-05" y1="32" x2="69.3334" y2="21.3333" gradientUnits="userSpaceOnUse">
<stop stop-color="#E6C365"/>
<stop offset="1" stop-color="#BD842E"/>
</linearGradient>
<linearGradient id="paint1_linear_9_437" x1="74.4687" y1="21.1981" x2="122.41" y2="-3.3234" gradientUnits="userSpaceOnUse">
<stop stop-color="#ABABAB"/>
<stop offset="1" stop-color="#7C7C7C"/>
</linearGradient>
<clipPath id="clip0_9_437">
<rect width="130.667" height="32" fill="white"/>
</clipPath>
</defs>
</svg>
