<svg width="98" height="24" viewBox="0 0 98 24" fill="none" xmlns="http://www.w3.org/2000/svg">
<path d="M22.3783 22.1764C22.552 23.0665 22.1504 23.5115 21.1734 23.5115H17.7867C16.9835 23.5115 16.4299 23.4138 16.1259 23.2185C15.822 23.0231 15.6483 22.6649 15.6049 22.1438L15.2793 19.7992H8.21278L7.07302 22.1438C6.81251 22.6649 6.50857 23.0231 6.16122 23.2185C5.81387 23.4138 5.24941 23.5115 4.46787 23.5115H0.885778C0.00246775 23.5115 -0.218689 23.0939 0.22231 22.2585L11.4041 1.53053C11.6429 1.07463 11.8926 0.770692 12.1531 0.618725C12.4136 0.466758 12.7935 0.390774 13.2928 0.390774H16.9726C17.4502 0.390774 17.803 0.466758 18.031 0.618725C18.2589 0.770692 18.4163 1.05292 18.5031 1.4654L22.3783 22.1764ZM14.1721 10.8765C14.1069 10.1167 14.0798 9.39484 14.0907 8.71099L14.0991 8.31436L14.1115 7.94508L14.1278 7.60315C14.1399 7.38432 14.1547 7.18372 14.1721 7.00136L14.2698 6.3175H13.9767C13.6945 7.8806 13.206 9.38942 12.5113 10.844L9.09736 16.7707L14.6931 14.6866L14.1721 10.8765ZM32.8062 6.08955C34.7383 6.08955 36.2417 6.50746 37.3164 7.34328C38.391 8.1791 39.0477 9.28087 39.2865 10.6486C39.3733 11.1262 39.3299 11.4898 39.1562 11.7395C38.9826 11.9891 38.6461 12.2008 38.1467 12.3745L35.2485 13.3514C34.7058 13.5251 34.3259 13.5468 34.1088 13.4166C33.9084 13.2963 33.7542 13.0188 33.6463 12.5841L33.6203 12.4722C33.4249 11.6038 32.8279 11.1696 31.8292 11.1696C30.6786 11.1696 29.9839 11.7666 29.7451 12.9607L29.0287 17.1615C28.9202 17.7259 28.9907 18.1601 29.2404 18.464C29.49 18.768 29.8862 18.9199 30.429 18.9199C31.3408 18.9199 32.0681 18.4749 32.6108 17.5848C32.8713 17.1072 33.1372 16.8087 33.4086 16.6893C33.68 16.5699 34.0545 16.597 34.5321 16.7707L37.4955 17.7151C38.3856 17.9973 38.5592 18.6052 38.0165 19.5387C36.258 22.5129 33.4466 24 29.5823 24C26.9771 24 25.1427 23.3379 24.0789 22.0136C23.0151 20.6893 22.6895 18.8657 23.102 16.5427L23.7207 12.9607C24.5457 8.37992 27.5742 6.08955 32.8062 6.08955ZM48.9328 6.08955C51.3643 6.08955 53.215 6.61058 54.4851 7.65265C55.7551 8.69471 56.2598 10.1818 55.9993 12.114C55.7605 13.6119 55.0115 14.7734 53.7524 15.5984C52.4932 16.4233 50.8216 16.8358 48.7374 16.8358C47.6085 16.8358 46.3819 16.7707 45.0576 16.6404L44.9274 17.3243C44.6886 18.7137 45.2747 19.4084 46.6859 19.4084C47.8365 19.4084 48.7808 19.0176 49.519 18.2361C49.8229 17.9104 50.0943 17.7151 50.3331 17.6499C50.5719 17.5848 50.9301 17.6716 51.4077 17.9104L53.5244 18.9851C54.306 19.3976 54.4036 20.0271 53.8175 20.8738C52.2761 22.9579 49.6384 24 45.9043 24C43.1255 24 41.1825 23.2944 40.0753 21.8833C38.9681 20.4722 38.6207 18.6269 39.0332 16.3474L39.6519 12.9607C40.0427 10.768 41.0414 9.07463 42.6479 7.8806C44.2544 6.68657 46.3494 6.08955 48.9328 6.08955ZM48.2815 10.3881C46.9138 10.3881 46.0889 11.0611 45.8066 12.4071L45.4658 14.3486C46.269 14.4571 47.5623 13.9473 48.0526 13.68C49.1336 13.0907 49.9423 12.5265 50.0726 11.7232C50.2028 10.8331 49.6058 10.3881 48.2815 10.3881Z" fill="url(#paint0_linear_202_1009)"/>
<path d="M94.6479 2.94708C94.7999 3.13161 94.8433 3.45183 94.7781 3.90773L94.2897 6.57802H96.5692C97.0251 6.57802 97.329 6.67029 97.481 6.85482C97.633 7.03935 97.6655 7.35957 97.5787 7.81547L97.1553 10.2578C97.0685 10.7354 96.9165 11.0665 96.6994 11.251C96.4823 11.4355 96.1458 11.5278 95.6899 11.5278H93.443L92.5638 16.3148C92.4118 17.1832 92.4715 17.7802 92.7429 18.1058C93.0142 18.4315 93.5624 18.5943 94.3874 18.5943C94.8867 18.5943 95.2123 18.6866 95.3643 18.8711C95.5163 19.0556 95.5488 19.3867 95.462 19.8643L94.941 22.6649C94.8541 23.1425 94.7076 23.4735 94.5013 23.6581C94.2951 23.8426 93.9423 23.9349 93.443 23.9349C90.5556 23.9783 88.5475 23.4573 87.4186 22.3718C86.2897 21.2863 85.964 19.4084 86.4416 16.7381L87.3534 11.5278H85.9532C85.4756 11.5278 85.1608 11.4355 85.0088 11.251C84.8568 11.0665 84.8243 10.7354 84.9111 10.2578L85.367 7.81547C85.4539 7.35957 85.6004 7.03935 85.8066 6.85482C86.0129 6.67029 86.3439 6.57802 86.7998 6.57802H88.2327L88.374 5.86317C88.4608 5.40726 88.6128 5.08705 88.8299 4.90251C89.047 4.71798 90.5661 3.90773 91.2449 3.62953C91.9237 3.35133 93.2834 2.76107 93.7361 2.67028C94.1888 2.5795 94.4959 2.76255 94.6479 2.94708ZM70.666 0.358209C72.9021 0.358209 74.5683 0.938942 75.6646 2.10041C76.761 3.26187 77.1354 4.81954 76.7881 6.77341C76.571 7.85889 76.2182 8.74356 75.7297 9.42741C75.2413 10.1113 74.5303 10.7463 73.5968 11.3324L73.5642 11.4627C75.5615 12.4179 76.3105 14.3718 75.8112 17.3243C75.4421 19.365 74.4489 20.9064 72.8315 21.9484C71.2141 22.9905 69.2114 23.5115 66.8234 23.5115H57.054C56.533 23.5115 56.1856 23.4084 56.012 23.2022C55.8383 22.9959 55.8057 22.6431 55.9143 22.1438L59.4964 1.75848C59.6049 1.23745 59.7732 0.873813 60.0011 0.667571C60.2291 0.46133 60.6036 0.358209 61.1246 0.358209H70.666ZM83.699 6.57802C84.1766 6.57802 84.4914 6.67029 84.6434 6.85482C84.7953 7.03935 84.8279 7.35957 84.7411 7.81547L82.201 22.2741C82.1142 22.73 81.9622 23.0502 81.7451 23.2347C81.528 23.4193 81.1807 23.5115 80.7031 23.5115H77.1535C76.6759 23.5115 76.3611 23.4193 76.2092 23.2347C76.0572 23.0502 76.0246 22.73 76.1115 22.2741L78.6515 7.81547C78.7383 7.35957 78.8903 7.03935 79.1074 6.85482C79.3245 6.67029 79.6719 6.57802 80.1495 6.57802H83.699ZM67.4747 14.4261H63.7297L63.0459 18.2361H66.8234C68.2128 18.2361 69.016 17.5957 69.2331 16.3148C69.4937 15.0556 68.9075 14.4261 67.4747 14.4261ZM68.3865 5.60109H65.2603L64.6416 9.18318H67.7677C69.092 9.18318 69.8627 8.59701 70.0798 7.42469C70.2969 6.20895 69.7325 5.60109 68.3865 5.60109ZM83.8944 0C84.8279 0 85.4358 0.173677 85.718 0.521031C86.0002 0.868385 86.0545 1.49796 85.8808 2.40977L85.8157 2.76798C85.642 3.67978 85.3598 4.30936 84.969 4.65672C84.5782 5.00407 83.9161 5.17775 82.9826 5.17775H81.3544C80.4208 5.17775 79.813 5.00407 79.5307 4.65672C79.2485 4.30936 79.1942 3.67978 79.3679 2.76798L79.4005 2.40977C79.5742 1.49796 79.8672 0.868385 80.2797 0.521031C80.6922 0.173677 81.3544 0 82.2662 0H83.8944Z" fill="url(#paint1_linear_202_1009)"/>
<defs>
<linearGradient id="paint0_linear_202_1009" x1="7.64043e-05" y1="24" x2="52.0001" y2="16" gradientUnits="userSpaceOnUse">
<stop stop-color="#E6C365"/>
<stop offset="1" stop-color="#BD842E"/>
</linearGradient>
<linearGradient id="paint1_linear_202_1009" x1="55.8517" y1="15.8986" x2="91.8077" y2="-2.49255" gradientUnits="userSpaceOnUse">
<stop stop-color="#D0D0D0"/>
<stop offset="1" stop-color="#ABABAB"/>
</linearGradient>
</defs>
</svg>
