<svg width="157" height="273" viewBox="0 0 157 273" fill="none" xmlns="http://www.w3.org/2000/svg">
<path d="M99.1891 111.773C99.1891 123.77 88.3718 132.424 88.3718 132.424C100.387 123.064 121.807 129.455 121.807 148.161C121.807 157.52 114.16 167.828 102.14 167.828C87.725 167.828 81.4897 152.091 81.4897 152.091C81.4897 152.091 79.6587 170.032 90.3394 179.629L66.7372 179.629C77.4178 170.027 75.5868 152.091 75.5868 152.091C75.5868 152.091 69.3515 167.828 54.9361 167.828C42.9209 167.828 35.269 157.525 35.269 148.161C35.269 129.455 56.6896 123.064 68.7048 132.424C68.7048 132.424 57.8875 123.77 57.8875 111.773C57.8875 104.755 64.1228 93.0902 78.5383 93.0902C92.9538 93.0902 99.1891 104.75 99.1891 111.773Z" fill="url(#paint0_linear_419_65)"/>
<path d="M99.1891 111.773C99.1891 123.77 88.3718 132.424 88.3718 132.424C100.387 123.064 121.807 129.455 121.807 148.161C121.807 157.52 114.16 167.828 102.14 167.828C87.725 167.828 81.4897 152.091 81.4897 152.091C81.4897 152.091 79.6587 170.032 90.3394 179.629L66.7372 179.629C77.4178 170.027 75.5868 152.091 75.5868 152.091C75.5868 152.091 69.3515 167.828 54.9361 167.828C42.9209 167.828 35.269 157.525 35.269 148.161C35.269 129.455 56.6896 123.064 68.7048 132.424C68.7048 132.424 57.8875 123.77 57.8875 111.773C57.8875 104.755 64.1228 93.0902 78.5383 93.0902C92.9538 93.0902 99.1891 104.75 99.1891 111.773Z" fill="url(#paint1_linear_419_65)"/>
<path fill-rule="evenodd" clip-rule="evenodd" d="M11.9294 36.8403L18.6794 16.0711H23.0208L29.7708 36.8403H26.6409L25.1034 32.1528H16.5789L15.0592 36.8403H11.9294ZM20.8163 19.0826L24.1762 29.3259H17.4954L20.8163 19.0826Z" fill="url(#paint2_linear_419_65)"/>
<path fill-rule="evenodd" clip-rule="evenodd" d="M11.9294 36.8403L18.6794 16.0711H23.0208L29.7708 36.8403H26.6409L25.1034 32.1528H16.5789L15.0592 36.8403H11.9294ZM20.8163 19.0826L24.1762 29.3259H17.4954L20.8163 19.0826Z" fill="url(#paint3_linear_419_65)"/>
<path d="M17.5492 62.0805H24.1427C22.2102 61.4744 21.4896 59.1331 21.5185 57.5191C26.8264 60.6478 33.3556 55.8752 26.6425 49.3224C23.7888 46.4229 22.0518 44.1744 21.1922 43.0617L21.1907 43.0598L21.1896 43.0585L21.0484 42.8759C20.9697 42.7742 20.9003 42.6852 20.8401 42.6094C20.742 42.7327 20.6202 42.8909 20.4734 43.0815C19.6111 44.2009 17.8863 46.44 15.0494 49.3224C8.33632 55.8752 14.8655 60.6478 20.1734 57.5191C20.2023 59.1331 19.4818 61.4744 17.5492 62.0805Z" fill="url(#paint4_linear_419_65)"/>
<path d="M17.5492 62.0805H24.1427C22.2102 61.4744 21.4896 59.1331 21.5185 57.5191C26.8264 60.6478 33.3556 55.8752 26.6425 49.3224C23.7888 46.4229 22.0518 44.1744 21.1922 43.0617L21.1907 43.0598L21.1896 43.0585L21.0484 42.8759C20.9697 42.7742 20.9003 42.6852 20.8401 42.6094C20.742 42.7327 20.6202 42.8909 20.4734 43.0815C19.6111 44.2009 17.8863 46.44 15.0494 49.3224C8.33632 55.8752 14.8655 60.6478 20.1734 57.5191C20.2023 59.1331 19.4818 61.4744 17.5492 62.0805Z" fill="url(#paint5_linear_419_65)"/>
<path fill-rule="evenodd" clip-rule="evenodd" d="M145.147 235.878L138.397 256.648H134.056L127.306 235.878H130.436L131.973 240.566H140.498L142.017 235.878H145.147ZM136.26 253.636L132.9 243.393H139.581L136.26 253.636Z" fill="url(#paint6_linear_419_65)"/>
<path fill-rule="evenodd" clip-rule="evenodd" d="M145.147 235.878L138.397 256.648H134.056L127.306 235.878H130.436L131.973 240.566H140.498L142.017 235.878H145.147ZM136.26 253.636L132.9 243.393H139.581L136.26 253.636Z" fill="url(#paint7_linear_419_65)"/>
<path d="M139.527 210.638H132.934C134.866 211.244 135.587 213.586 135.558 215.2C130.25 212.071 123.721 216.844 130.434 223.396C133.288 226.296 135.025 228.544 135.884 229.657C136.025 229.839 136.142 229.99 136.236 230.109C136.335 229.986 136.456 229.828 136.603 229.637C137.465 228.518 139.19 226.279 142.027 223.396C148.74 216.844 142.211 212.071 136.903 215.2C136.874 213.586 137.595 211.244 139.527 210.638Z" fill="url(#paint8_linear_419_65)"/>
<path d="M139.527 210.638H132.934C134.866 211.244 135.587 213.586 135.558 215.2C130.25 212.071 123.721 216.844 130.434 223.396C133.288 226.296 135.025 228.544 135.884 229.657C136.025 229.839 136.142 229.99 136.236 230.109C136.335 229.986 136.456 229.828 136.603 229.637C137.465 228.518 139.19 226.279 142.027 223.396C148.74 216.844 142.211 212.071 136.903 215.2C136.874 213.586 137.595 211.244 139.527 210.638Z" fill="url(#paint9_linear_419_65)"/>
<path fill-rule="evenodd" clip-rule="evenodd" d="M5.8454 0.421884C2.65915 0.421884 0.0761722 3.00486 0.0761719 6.19111V266.528C0.0761716 269.714 2.65915 272.297 5.8454 272.297H151.23C154.416 272.297 156.999 269.714 156.999 266.528V6.19111C156.999 3.00485 154.416 0.421875 151.23 0.421875L5.8454 0.421884ZM151.23 1.14303L5.8454 1.14304C3.05742 1.14304 0.797326 3.40314 0.797326 6.19111V266.528C0.797325 269.316 3.05742 271.576 5.8454 271.576H151.23C154.018 271.576 156.278 269.316 156.278 266.528V6.19111C156.278 3.40313 154.018 1.14303 151.23 1.14303Z" fill="url(#paint10_linear_419_65)"/>
<path fill-rule="evenodd" clip-rule="evenodd" d="M5.8454 0.421884C2.65915 0.421884 0.0761722 3.00486 0.0761719 6.19111V266.528C0.0761716 269.714 2.65915 272.297 5.8454 272.297H151.23C154.416 272.297 156.999 269.714 156.999 266.528V6.19111C156.999 3.00485 154.416 0.421875 151.23 0.421875L5.8454 0.421884ZM151.23 1.14303L5.8454 1.14304C3.05742 1.14304 0.797326 3.40314 0.797326 6.19111V266.528C0.797325 269.316 3.05742 271.576 5.8454 271.576H151.23C154.018 271.576 156.278 269.316 156.278 266.528V6.19111C156.278 3.40313 154.018 1.14303 151.23 1.14303Z" fill="url(#paint11_linear_419_65)"/>
<defs>
<linearGradient id="paint0_linear_419_65" x1="66.1601" y1="297.785" x2="-29.9336" y2="118.31" gradientUnits="userSpaceOnUse">
<stop stop-color="#EBC367"/>
<stop offset="0.206588" stop-color="#FDB242"/>
<stop offset="0.589636" stop-color="#D1891E"/>
<stop offset="0.694186" stop-color="#E1A03F"/>
<stop offset="0.697522" stop-color="#FFDDA9"/>
<stop offset="0.911458" stop-color="#F1BD57"/>
</linearGradient>
<linearGradient id="paint1_linear_419_65" x1="143.363" y1="46.3009" x2="8.33027" y2="49.0396" gradientUnits="userSpaceOnUse">
<stop stop-color="#E6C365" stop-opacity="0"/>
<stop offset="1" stop-color="#E6C365" stop-opacity="0.3"/>
</linearGradient>
<linearGradient id="paint2_linear_419_65" x1="66.1601" y1="297.785" x2="-29.9336" y2="118.31" gradientUnits="userSpaceOnUse">
<stop stop-color="#EBC367"/>
<stop offset="0.206588" stop-color="#FDB242"/>
<stop offset="0.589636" stop-color="#D1891E"/>
<stop offset="0.694186" stop-color="#E1A03F"/>
<stop offset="0.697522" stop-color="#FFDDA9"/>
<stop offset="0.911458" stop-color="#F1BD57"/>
</linearGradient>
<linearGradient id="paint3_linear_419_65" x1="143.363" y1="46.3009" x2="8.33027" y2="49.0396" gradientUnits="userSpaceOnUse">
<stop stop-color="#E6C365" stop-opacity="0"/>
<stop offset="1" stop-color="#E6C365" stop-opacity="0.3"/>
</linearGradient>
<linearGradient id="paint4_linear_419_65" x1="66.1601" y1="297.785" x2="-29.9336" y2="118.31" gradientUnits="userSpaceOnUse">
<stop stop-color="#EBC367"/>
<stop offset="0.206588" stop-color="#FDB242"/>
<stop offset="0.589636" stop-color="#D1891E"/>
<stop offset="0.694186" stop-color="#E1A03F"/>
<stop offset="0.697522" stop-color="#FFDDA9"/>
<stop offset="0.911458" stop-color="#F1BD57"/>
</linearGradient>
<linearGradient id="paint5_linear_419_65" x1="143.363" y1="46.3009" x2="8.33027" y2="49.0396" gradientUnits="userSpaceOnUse">
<stop stop-color="#E6C365" stop-opacity="0"/>
<stop offset="1" stop-color="#E6C365" stop-opacity="0.3"/>
</linearGradient>
<linearGradient id="paint6_linear_419_65" x1="66.1601" y1="297.785" x2="-29.9336" y2="118.31" gradientUnits="userSpaceOnUse">
<stop stop-color="#EBC367"/>
<stop offset="0.206588" stop-color="#FDB242"/>
<stop offset="0.589636" stop-color="#D1891E"/>
<stop offset="0.694186" stop-color="#E1A03F"/>
<stop offset="0.697522" stop-color="#FFDDA9"/>
<stop offset="0.911458" stop-color="#F1BD57"/>
</linearGradient>
<linearGradient id="paint7_linear_419_65" x1="143.363" y1="46.3009" x2="8.33027" y2="49.0396" gradientUnits="userSpaceOnUse">
<stop stop-color="#E6C365" stop-opacity="0"/>
<stop offset="1" stop-color="#E6C365" stop-opacity="0.3"/>
</linearGradient>
<linearGradient id="paint8_linear_419_65" x1="66.1601" y1="297.785" x2="-29.9336" y2="118.31" gradientUnits="userSpaceOnUse">
<stop stop-color="#EBC367"/>
<stop offset="0.206588" stop-color="#FDB242"/>
<stop offset="0.589636" stop-color="#D1891E"/>
<stop offset="0.694186" stop-color="#E1A03F"/>
<stop offset="0.697522" stop-color="#FFDDA9"/>
<stop offset="0.911458" stop-color="#F1BD57"/>
</linearGradient>
<linearGradient id="paint9_linear_419_65" x1="143.363" y1="46.3009" x2="8.33027" y2="49.0396" gradientUnits="userSpaceOnUse">
<stop stop-color="#E6C365" stop-opacity="0"/>
<stop offset="1" stop-color="#E6C365" stop-opacity="0.3"/>
</linearGradient>
<linearGradient id="paint10_linear_419_65" x1="66.1601" y1="297.785" x2="-29.9336" y2="118.31" gradientUnits="userSpaceOnUse">
<stop stop-color="#EBC367"/>
<stop offset="0.206588" stop-color="#FDB242"/>
<stop offset="0.589636" stop-color="#D1891E"/>
<stop offset="0.694186" stop-color="#E1A03F"/>
<stop offset="0.697522" stop-color="#FFDDA9"/>
<stop offset="0.911458" stop-color="#F1BD57"/>
</linearGradient>
<linearGradient id="paint11_linear_419_65" x1="143.363" y1="46.3009" x2="8.33027" y2="49.0396" gradientUnits="userSpaceOnUse">
<stop stop-color="#E6C365" stop-opacity="0"/>
<stop offset="1" stop-color="#E6C365" stop-opacity="0.3"/>
</linearGradient>
</defs>
</svg>
