<svg width="158" height="273" viewBox="0 0 158 273" fill="none" xmlns="http://www.w3.org/2000/svg">
<path fill-rule="evenodd" clip-rule="evenodd" d="M19.0642 16.0711L12.3142 36.8403H15.4441L16.9638 32.1528L25.4883 32.1528L27.0258 36.8403H30.1556L23.4056 16.0711H19.0642ZM24.561 29.3259L21.2012 19.0825L17.8803 29.3259L24.561 29.3259Z" fill="url(#paint0_linear_419_91)"/>
<path fill-rule="evenodd" clip-rule="evenodd" d="M19.0642 16.0711L12.3142 36.8403H15.4441L16.9638 32.1528L25.4883 32.1528L27.0258 36.8403H30.1556L23.4056 16.0711H19.0642ZM24.561 29.3259L21.2012 19.0825L17.8803 29.3259L24.561 29.3259Z" fill="url(#paint1_linear_419_91)"/>
<path d="M21.2308 42.6094L29.8846 52.994L21.2308 63.3785L12.5769 52.994L21.2308 42.6094Z" fill="url(#paint2_linear_419_91)"/>
<path d="M21.2308 42.6094L29.8846 52.994L21.2308 63.3785L12.5769 52.994L21.2308 42.6094Z" fill="url(#paint3_linear_419_91)"/>
<path fill-rule="evenodd" clip-rule="evenodd" d="M138.782 257.946L145.532 237.176H142.402L140.882 241.864H132.358L130.82 237.176H127.691L134.441 257.946H138.782ZM133.285 244.691L136.645 254.934L139.966 244.691H133.285Z" fill="url(#paint4_linear_419_91)"/>
<path fill-rule="evenodd" clip-rule="evenodd" d="M138.782 257.946L145.532 237.176H142.402L140.882 241.864H132.358L130.82 237.176H127.691L134.441 257.946H138.782ZM133.285 244.691L136.645 254.934L139.966 244.691H133.285Z" fill="url(#paint5_linear_419_91)"/>
<path d="M136.615 210.638L145.269 221.023L136.615 231.407L127.962 221.023L136.615 210.638Z" fill="url(#paint6_linear_419_91)"/>
<path d="M136.615 210.638L145.269 221.023L136.615 231.407L127.962 221.023L136.615 210.638Z" fill="url(#paint7_linear_419_91)"/>
<path d="M116.423 136.359L78.9232 91.6479L41.4231 136.359L78.9232 181.071L116.423 136.359Z" fill="url(#paint8_linear_419_91)"/>
<path d="M116.423 136.359L78.9232 91.6479L41.4231 136.359L78.9232 181.071L116.423 136.359Z" fill="url(#paint9_linear_419_91)"/>
<path fill-rule="evenodd" clip-rule="evenodd" d="M6.23017 0.421884C3.04391 0.421884 0.460938 3.00486 0.460938 6.19111L0.46096 266.528C0.460959 269.714 3.04389 272.297 6.23015 272.297H151.615C154.801 272.297 157.384 269.714 157.384 266.528L157.384 6.19111C157.384 3.00485 154.801 0.421875 151.615 0.421875L6.23017 0.421884ZM151.615 1.14303L6.23017 1.14304C3.44221 1.14304 1.18209 3.40314 1.18209 6.19111L1.18211 266.528C1.18211 269.316 3.44219 271.576 6.23015 271.576H151.615C154.403 271.576 156.663 269.316 156.663 266.528L156.663 6.19111C156.663 3.40313 154.403 1.14303 151.615 1.14303Z" fill="url(#paint10_linear_419_91)"/>
<path fill-rule="evenodd" clip-rule="evenodd" d="M6.23017 0.421884C3.04391 0.421884 0.460938 3.00486 0.460938 6.19111L0.46096 266.528C0.460959 269.714 3.04389 272.297 6.23015 272.297H151.615C154.801 272.297 157.384 269.714 157.384 266.528L157.384 6.19111C157.384 3.00485 154.801 0.421875 151.615 0.421875L6.23017 0.421884ZM151.615 1.14303L6.23017 1.14304C3.44221 1.14304 1.18209 3.40314 1.18209 6.19111L1.18211 266.528C1.18211 269.316 3.44219 271.576 6.23015 271.576H151.615C154.403 271.576 156.663 269.316 156.663 266.528L156.663 6.19111C156.663 3.40313 154.403 1.14303 151.615 1.14303Z" fill="url(#paint11_linear_419_91)"/>
<defs>
<linearGradient id="paint0_linear_419_91" x1="66.5449" y1="297.785" x2="-29.5489" y2="118.31" gradientUnits="userSpaceOnUse">
<stop stop-color="#EBC367"/>
<stop offset="0.206588" stop-color="#FDB242"/>
<stop offset="0.589636" stop-color="#D1891E"/>
<stop offset="0.694186" stop-color="#E1A03F"/>
<stop offset="0.697522" stop-color="#FFDDA9"/>
<stop offset="0.911458" stop-color="#F1BD57"/>
</linearGradient>
<linearGradient id="paint1_linear_419_91" x1="143.748" y1="46.3009" x2="8.71504" y2="49.0396" gradientUnits="userSpaceOnUse">
<stop stop-color="#E6C365" stop-opacity="0"/>
<stop offset="1" stop-color="#E6C365" stop-opacity="0.3"/>
</linearGradient>
<linearGradient id="paint2_linear_419_91" x1="66.5449" y1="297.785" x2="-29.5489" y2="118.31" gradientUnits="userSpaceOnUse">
<stop stop-color="#EBC367"/>
<stop offset="0.206588" stop-color="#FDB242"/>
<stop offset="0.589636" stop-color="#D1891E"/>
<stop offset="0.694186" stop-color="#E1A03F"/>
<stop offset="0.697522" stop-color="#FFDDA9"/>
<stop offset="0.911458" stop-color="#F1BD57"/>
</linearGradient>
<linearGradient id="paint3_linear_419_91" x1="143.748" y1="46.3009" x2="8.71504" y2="49.0396" gradientUnits="userSpaceOnUse">
<stop stop-color="#E6C365" stop-opacity="0"/>
<stop offset="1" stop-color="#E6C365" stop-opacity="0.3"/>
</linearGradient>
<linearGradient id="paint4_linear_419_91" x1="66.5449" y1="297.785" x2="-29.5489" y2="118.31" gradientUnits="userSpaceOnUse">
<stop stop-color="#EBC367"/>
<stop offset="0.206588" stop-color="#FDB242"/>
<stop offset="0.589636" stop-color="#D1891E"/>
<stop offset="0.694186" stop-color="#E1A03F"/>
<stop offset="0.697522" stop-color="#FFDDA9"/>
<stop offset="0.911458" stop-color="#F1BD57"/>
</linearGradient>
<linearGradient id="paint5_linear_419_91" x1="143.748" y1="46.3009" x2="8.71504" y2="49.0396" gradientUnits="userSpaceOnUse">
<stop stop-color="#E6C365" stop-opacity="0"/>
<stop offset="1" stop-color="#E6C365" stop-opacity="0.3"/>
</linearGradient>
<linearGradient id="paint6_linear_419_91" x1="66.5449" y1="297.785" x2="-29.5489" y2="118.31" gradientUnits="userSpaceOnUse">
<stop stop-color="#EBC367"/>
<stop offset="0.206588" stop-color="#FDB242"/>
<stop offset="0.589636" stop-color="#D1891E"/>
<stop offset="0.694186" stop-color="#E1A03F"/>
<stop offset="0.697522" stop-color="#FFDDA9"/>
<stop offset="0.911458" stop-color="#F1BD57"/>
</linearGradient>
<linearGradient id="paint7_linear_419_91" x1="143.748" y1="46.3009" x2="8.71504" y2="49.0396" gradientUnits="userSpaceOnUse">
<stop stop-color="#E6C365" stop-opacity="0"/>
<stop offset="1" stop-color="#E6C365" stop-opacity="0.3"/>
</linearGradient>
<linearGradient id="paint8_linear_419_91" x1="66.5449" y1="297.785" x2="-29.5489" y2="118.31" gradientUnits="userSpaceOnUse">
<stop stop-color="#EBC367"/>
<stop offset="0.206588" stop-color="#FDB242"/>
<stop offset="0.589636" stop-color="#D1891E"/>
<stop offset="0.694186" stop-color="#E1A03F"/>
<stop offset="0.697522" stop-color="#FFDDA9"/>
<stop offset="0.911458" stop-color="#F1BD57"/>
</linearGradient>
<linearGradient id="paint9_linear_419_91" x1="143.748" y1="46.3009" x2="8.71504" y2="49.0396" gradientUnits="userSpaceOnUse">
<stop stop-color="#E6C365" stop-opacity="0"/>
<stop offset="1" stop-color="#E6C365" stop-opacity="0.3"/>
</linearGradient>
<linearGradient id="paint10_linear_419_91" x1="66.5449" y1="297.785" x2="-29.5489" y2="118.31" gradientUnits="userSpaceOnUse">
<stop stop-color="#EBC367"/>
<stop offset="0.206588" stop-color="#FDB242"/>
<stop offset="0.589636" stop-color="#D1891E"/>
<stop offset="0.694186" stop-color="#E1A03F"/>
<stop offset="0.697522" stop-color="#FFDDA9"/>
<stop offset="0.911458" stop-color="#F1BD57"/>
</linearGradient>
<linearGradient id="paint11_linear_419_91" x1="143.748" y1="46.3009" x2="8.71504" y2="49.0396" gradientUnits="userSpaceOnUse">
<stop stop-color="#E6C365" stop-opacity="0"/>
<stop offset="1" stop-color="#E6C365" stop-opacity="0.3"/>
</linearGradient>
</defs>
</svg>
