<svg width="323" height="30" viewBox="0 0 323 30" fill="none" xmlns="http://www.w3.org/2000/svg">
<path d="M24.0553 0.599998C24.6953 0.599998 25.122 0.733332 25.3353 0.999998C25.5486 1.24 25.602 1.66666 25.4953 2.28L24.8553 5.88C24.7486 6.52 24.5353 6.97333 24.2153 7.24C23.922 7.48 23.4686 7.6 22.8553 7.6H12.2953L11.6553 11.16H20.0953C20.7353 11.16 21.1486 11.2933 21.3353 11.56C21.5486 11.8 21.602 12.2267 21.4953 12.84L20.8553 16.44C20.722 17.08 20.5086 17.5333 20.2153 17.8C19.9486 18.04 19.4953 18.16 18.8553 18.16H10.4153L9.73531 22H20.6553C21.2686 22 21.6686 22.12 21.8553 22.36C22.0686 22.6 22.122 23.04 22.0153 23.68L21.3753 27.32C21.2686 27.9333 21.0686 28.3733 20.7753 28.64C20.482 28.88 20.0153 29 19.3753 29H2.29531C1.65531 29 1.22865 28.88 1.01531 28.64C0.801979 28.3733 0.761979 27.9333 0.895313 27.32L5.29531 2.28C5.42865 1.66666 5.62865 1.24 5.89531 0.999998C6.18865 0.733332 6.65531 0.599998 7.29531 0.599998H24.0553ZM52.0909 0.599998C52.6509 0.599998 52.9709 0.759999 53.0509 1.08C53.1309 1.4 52.9843 1.77333 52.6109 2.2L42.4909 14.52L48.6109 27.32C48.8509 27.7467 48.8643 28.1333 48.6509 28.48C48.4376 28.8267 48.0376 29 47.4509 29H42.3709C41.3043 29 40.5843 28.92 40.2109 28.76C39.8643 28.6 39.5576 28.1867 39.2909 27.52L36.6509 20.96L31.8509 27.52C31.3709 28.16 30.9176 28.5733 30.4909 28.76C30.0643 28.92 29.3176 29 28.2509 29H23.2909C22.6776 29 22.3309 28.84 22.2509 28.52C22.1443 28.2 22.3043 27.8 22.7309 27.32L33.2109 14.52L27.5309 2.2C27.3176 1.77333 27.3043 1.4 27.4909 1.08C27.7043 0.759999 28.0776 0.599998 28.6109 0.599998H33.3709C34.4109 0.599998 35.1176 0.679998 35.4909 0.839998C35.8643 0.999999 36.1843 1.38667 36.4509 2L38.9709 8.16L43.6109 2C44.0909 1.36 44.5176 0.973331 44.8909 0.839998C45.2909 0.679998 45.9709 0.599998 46.9309 0.599998H52.0909ZM74.0553 0.599998C74.6953 0.599998 75.122 0.733332 75.3353 0.999998C75.5486 1.24 75.602 1.66666 75.4953 2.28L74.8553 5.88C74.7486 6.52 74.5353 6.97333 74.2153 7.24C73.922 7.48 73.4686 7.6 72.8553 7.6H62.2953L61.6553 11.16H70.0953C70.7353 11.16 71.1486 11.2933 71.3353 11.56C71.5486 11.8 71.602 12.2267 71.4953 12.84L70.8553 16.44C70.722 17.08 70.5086 17.5333 70.2153 17.8C69.9486 18.04 69.4953 18.16 68.8553 18.16H60.4153L59.7353 22H70.6553C71.2686 22 71.6686 22.12 71.8553 22.36C72.0686 22.6 72.122 23.04 72.0153 23.68L71.3753 27.32C71.2686 27.9333 71.0686 28.3733 70.7753 28.64C70.482 28.88 70.0153 29 69.3753 29H52.2953C51.6553 29 51.2286 28.88 51.0153 28.64C50.802 28.3733 50.762 27.9333 50.8953 27.32L55.2953 2.28C55.4286 1.66666 55.6286 1.24 55.8953 0.999998C56.1886 0.733332 56.6553 0.599998 57.2953 0.599998H74.0553ZM76.4566 10.64C77.0432 7.2 78.5499 4.57333 80.9766 2.76C83.4299 0.919999 86.6299 -9.53674e-07 90.5766 -9.53674e-07C96.3366 -9.53674e-07 99.6566 2.37333 100.537 7.12C100.67 7.70667 100.63 8.17333 100.417 8.52C100.23 8.84 99.8166 9.09333 99.1766 9.28L95.0566 10.68C94.4166 10.8667 93.9499 10.8933 93.6566 10.76C93.3899 10.6 93.1899 10.2133 93.0566 9.6C92.8699 8.69333 92.4966 8.04 91.9366 7.64C91.3766 7.21333 90.5366 7 89.4166 7C87.8699 7 86.6832 7.34667 85.8566 8.04C85.0566 8.70667 84.5366 9.74667 84.2966 11.16L82.9766 18.44C82.7366 19.8533 82.8966 20.9067 83.4566 21.6C84.0432 22.2667 85.1099 22.6 86.6566 22.6C88.7632 22.6 90.2966 21.7333 91.2566 20C91.6299 19.36 91.9766 18.9733 92.2966 18.84C92.6166 18.68 93.0566 18.7067 93.6166 18.92L97.7766 20.52C98.8166 20.8933 99.0432 21.6133 98.4566 22.68C95.9499 27.2933 91.6432 29.6 85.5366 29.6C81.6699 29.6 78.8166 28.5467 76.9766 26.44C75.1632 24.3333 74.5499 21.5333 75.1366 18.04L76.4566 10.64ZM109.195 18.92C108.768 21.3733 109.942 22.6 112.715 22.6C115.462 22.6 117.048 21.3733 117.475 18.92L120.435 2.28C120.542 1.66666 120.742 1.24 121.035 0.999998C121.328 0.733332 121.782 0.599998 122.395 0.599998H126.955C127.568 0.599998 127.982 0.733332 128.195 0.999998C128.408 1.24 128.462 1.66666 128.355 2.28L125.355 19.2C124.742 22.5867 123.275 25.1733 120.955 26.96C118.662 28.72 115.555 29.6 111.635 29.6C107.768 29.6 104.955 28.52 103.195 26.36C101.435 24.1733 100.862 21.3467 101.475 17.88L104.235 2.28C104.368 1.66666 104.568 1.24 104.835 0.999998C105.128 0.733332 105.595 0.599998 106.235 0.599998H110.755C111.395 0.599998 111.822 0.733332 112.035 0.999998C112.248 1.24 112.288 1.66666 112.155 2.28L109.195 18.92ZM152.37 0.599998C153.01 0.599998 153.437 0.733332 153.65 0.999998C153.864 1.24 153.904 1.66666 153.77 2.28L153.13 5.88C153.024 6.52 152.824 6.97333 152.53 7.24C152.237 7.48 151.77 7.6 151.13 7.6H145.21L141.73 27.32C141.597 27.9333 141.384 28.3733 141.09 28.64C140.824 28.88 140.37 29 139.73 29H135.21C134.57 29 134.144 28.88 133.93 28.64C133.717 28.3733 133.677 27.9333 133.81 27.32L137.29 7.6H131.33C130.69 7.6 130.264 7.48 130.05 7.24C129.864 6.97333 129.824 6.52 129.93 5.88L130.57 2.28C130.704 1.66666 130.904 1.24 131.17 0.999998C131.464 0.733332 131.93 0.599998 132.57 0.599998H152.37ZM156.273 2.2C156.406 1.58667 156.606 1.17333 156.873 0.959999C157.139 0.719999 157.566 0.599998 158.153 0.599998H162.873C163.486 0.599998 163.886 0.719999 164.073 0.959999C164.259 1.2 164.299 1.61333 164.193 2.2L159.753 27.4C159.646 27.9867 159.459 28.4 159.193 28.64C158.926 28.88 158.486 29 157.873 29H153.153C152.566 29 152.166 28.8933 151.953 28.68C151.766 28.44 151.726 28.0133 151.833 27.4L156.273 2.2ZM192.425 0.599998C193.572 0.599998 193.838 1.14667 193.225 2.24L179.945 27.6C179.652 28.16 179.345 28.5333 179.025 28.72C178.705 28.9067 178.238 29 177.625 29H172.585C171.998 29 171.572 28.9067 171.305 28.72C171.038 28.5333 170.852 28.1867 170.745 27.68L166.385 2.24C166.172 1.14667 166.652 0.599998 167.825 0.599998H172.305C173.265 0.599998 173.932 0.719999 174.305 0.959999C174.678 1.2 174.892 1.64 174.945 2.28L176.345 15.96C176.425 16.6533 176.465 17.44 176.465 18.32C176.465 19.1733 176.452 19.8533 176.425 20.36L176.345 21.12H176.705C177.105 19.28 177.665 17.5733 178.385 16L184.665 2.28C184.958 1.64 185.305 1.2 185.705 0.959999C186.132 0.719999 186.825 0.599998 187.785 0.599998H192.425ZM214.173 0.599998C214.813 0.599998 215.239 0.733332 215.453 0.999998C215.666 1.24 215.719 1.66666 215.613 2.28L214.973 5.88C214.866 6.52 214.653 6.97333 214.332 7.24C214.039 7.48 213.586 7.6 212.973 7.6H202.413L201.773 11.16H210.213C210.853 11.16 211.266 11.2933 211.453 11.56C211.666 11.8 211.719 12.2267 211.613 12.84L210.973 16.44C210.839 17.08 210.626 17.5333 210.333 17.8C210.066 18.04 209.613 18.16 208.973 18.16H200.533L199.853 22H210.773C211.386 22 211.786 22.12 211.973 22.36C212.186 22.6 212.239 23.04 212.133 23.68L211.493 27.32C211.386 27.9333 211.186 28.3733 210.893 28.64C210.599 28.88 210.133 29 209.493 29H192.413C191.773 29 191.346 28.88 191.133 28.64C190.919 28.3733 190.879 27.9333 191.013 27.32L195.413 2.28C195.546 1.66666 195.746 1.24 196.013 0.999998C196.306 0.733332 196.773 0.599998 197.413 0.599998H214.173ZM224.074 10.64C224.66 7.2 226.167 4.57333 228.594 2.76C231.047 0.919999 234.247 -9.53674e-07 238.194 -9.53674e-07C243.954 -9.53674e-07 247.274 2.37333 248.154 7.12C248.287 7.70667 248.247 8.17333 248.034 8.52C247.847 8.84 247.434 9.09333 246.794 9.28L242.674 10.68C242.034 10.8667 241.567 10.8933 241.274 10.76C241.007 10.6 240.807 10.2133 240.674 9.6C240.487 8.69333 240.114 8.04 239.554 7.64C238.994 7.21333 238.154 7 237.034 7C235.487 7 234.3 7.34667 233.474 8.04C232.674 8.70667 232.154 9.74667 231.914 11.16L230.594 18.44C230.354 19.8533 230.514 20.9067 231.074 21.6C231.66 22.2667 232.727 22.6 234.274 22.6C236.38 22.6 237.914 21.7333 238.874 20C239.247 19.36 239.594 18.9733 239.914 18.84C240.234 18.68 240.674 18.7067 241.234 18.92L245.394 20.52C246.434 20.8933 246.66 21.6133 246.074 22.68C243.567 27.2933 239.26 29.6 233.154 29.6C229.287 29.6 226.434 28.5467 224.594 26.44C222.78 24.3333 222.167 21.5333 222.754 18.04L224.074 10.64ZM258.612 0.599998C259.252 0.599998 259.679 0.733332 259.892 0.999998C260.106 1.24 260.159 1.66666 260.052 2.28L256.572 22H266.172C266.812 22 267.226 22.12 267.412 22.36C267.626 22.6 267.679 23.04 267.572 23.68L266.932 27.32C266.799 27.9333 266.586 28.3733 266.292 28.64C266.026 28.88 265.572 29 264.932 29H249.092C248.452 29 248.026 28.88 247.812 28.64C247.626 28.3733 247.586 27.9333 247.692 27.32L252.132 2.28C252.239 1.66666 252.426 1.24 252.692 0.999998C252.986 0.733332 253.452 0.599998 254.092 0.599998H258.612ZM277.633 18.92C277.206 21.3733 278.379 22.6 281.153 22.6C283.899 22.6 285.486 21.3733 285.913 18.92L288.872 2.28C288.979 1.66666 289.179 1.24 289.473 0.999998C289.766 0.733332 290.219 0.599998 290.833 0.599998H295.393C296.006 0.599998 296.419 0.733332 296.633 0.999998C296.846 1.24 296.899 1.66666 296.793 2.28L293.793 19.2C293.179 22.5867 291.713 25.1733 289.393 26.96C287.099 28.72 283.993 29.6 280.072 29.6C276.206 29.6 273.393 28.52 271.633 26.36C269.873 24.1733 269.299 21.3467 269.913 17.88L272.673 2.28C272.806 1.66666 273.006 1.24 273.273 0.999998C273.566 0.733332 274.033 0.599998 274.673 0.599998H279.193C279.833 0.599998 280.259 0.733332 280.473 0.999998C280.686 1.24 280.726 1.66666 280.593 2.28L277.633 18.92ZM314.328 0.559999C317.074 0.559999 319.114 1.28 320.448 2.72C321.808 4.13333 322.274 6.04 321.848 8.44C321.581 9.77333 321.141 10.8667 320.528 11.72C319.941 12.5467 319.074 13.32 317.928 14.04L317.888 14.2C320.341 15.3733 321.261 17.7733 320.648 21.4C320.194 23.9067 318.968 25.8 316.968 27.08C314.994 28.36 312.541 29 309.608 29H297.608C296.968 29 296.541 28.88 296.328 28.64C296.114 28.3733 296.074 27.9333 296.208 27.32L300.608 2.28C300.741 1.64 300.941 1.2 301.208 0.959999C301.501 0.693332 301.968 0.559999 302.608 0.559999H314.328ZM313.608 9.24C313.874 7.74667 313.181 7 311.528 7H307.688L306.928 11.4H310.768C312.394 11.4 313.341 10.68 313.608 9.24ZM312.568 20.16C312.888 18.6133 312.168 17.84 310.408 17.84H305.808L304.968 22.52H309.608C311.314 22.52 312.301 21.7333 312.568 20.16Z" fill="white"/>
<path d="M25.3353 0.999998L25.2376 1.07819L25.2419 1.08304L25.3353 0.999998ZM25.4953 2.28L25.6184 2.30188L25.6185 2.30142L25.4953 2.28ZM24.8553 5.88L24.7322 5.85812L24.732 5.85945L24.8553 5.88ZM24.2153 7.24L24.2945 7.33675L24.2953 7.33603L24.2153 7.24ZM12.2953 7.6V7.475H12.1908L12.1723 7.57788L12.2953 7.6ZM11.6553 11.16L11.5323 11.1379L11.5058 11.285H11.6553V11.16ZM21.3353 11.56L21.2329 11.6317L21.2371 11.6376L21.2419 11.643L21.3353 11.56ZM21.4953 12.84L21.6184 12.8619L21.6185 12.8614L21.4953 12.84ZM20.8553 16.44L20.9777 16.4655L20.9784 16.4619L20.8553 16.44ZM20.2153 17.8L20.2989 17.8929L20.2994 17.8925L20.2153 17.8ZM10.4153 18.16V18.035H10.3105L10.2922 18.1382L10.4153 18.16ZM9.73531 22L9.61223 21.9782L9.58623 22.125H9.73531V22ZM21.8553 22.36L21.7564 22.4369L21.7619 22.443L21.8553 22.36ZM22.0153 23.68L22.1384 23.7016L22.1386 23.7005L22.0153 23.68ZM21.3753 27.32L21.2522 27.2984L21.2522 27.2986L21.3753 27.32ZM20.7753 28.64L20.8546 28.7369L20.8594 28.7325L20.7753 28.64ZM1.01531 28.64L0.917572 28.7182L0.921886 28.723L1.01531 28.64ZM0.895313 27.32L1.01756 27.3466L1.01843 27.3416L0.895313 27.32ZM5.29531 2.28L5.17307 2.25342L5.1722 2.25836L5.29531 2.28ZM5.89531 0.999998L5.97893 1.09291L5.9794 1.09249L5.89531 0.999998ZM24.0553 0.724998C24.6881 0.724998 25.0623 0.858796 25.2377 1.07809L25.4329 0.921911C25.1817 0.607867 24.7025 0.474998 24.0553 0.474998V0.724998ZM25.2419 1.08304C25.4142 1.27685 25.4779 1.65061 25.3722 2.25858L25.6185 2.30142C25.7261 1.68272 25.6831 1.20314 25.4287 0.916953L25.2419 1.08304ZM25.3722 2.25812L24.7322 5.85812L24.9784 5.90188L25.6184 2.30188L25.3722 2.25812ZM24.732 5.85945C24.6277 6.48561 24.4225 6.90465 24.1353 7.14397L24.2953 7.33603C24.6482 7.04201 24.8696 6.55439 24.9786 5.90055L24.732 5.85945ZM24.1362 7.14325C23.8753 7.35668 23.4564 7.475 22.8553 7.475V7.725C23.4809 7.725 23.9687 7.60332 24.2945 7.33674L24.1362 7.14325ZM22.8553 7.475H12.2953V7.725H22.8553V7.475ZM12.1723 7.57788L11.5323 11.1379L11.7783 11.1821L12.4183 7.62212L12.1723 7.57788ZM11.6553 11.285H20.0953V11.035H11.6553V11.285ZM20.0953 11.285C20.731 11.285 21.0847 11.42 21.2329 11.6317L21.4377 11.4883C21.2126 11.1667 20.7396 11.035 20.0953 11.035V11.285ZM21.2419 11.643C21.4142 11.8369 21.4779 12.2106 21.3722 12.8186L21.6185 12.8614C21.7261 12.2427 21.6831 11.7631 21.4287 11.477L21.2419 11.643ZM21.3722 12.8181L20.7322 16.4181L20.9784 16.4619L21.6184 12.8619L21.3722 12.8181ZM20.7329 16.4145C20.6018 17.044 20.396 17.4668 20.1312 17.7075L20.2994 17.8925C20.6213 17.5999 20.8422 17.116 20.9777 16.4655L20.7329 16.4145ZM20.1317 17.7071C19.9002 17.9154 19.4863 18.035 18.8553 18.035V18.285C19.5043 18.285 19.9971 18.1646 20.2989 17.8929L20.1317 17.7071ZM18.8553 18.035H10.4153V18.285H18.8553V18.035ZM10.2922 18.1382L9.61223 21.9782L9.8584 22.0218L10.5384 18.1818L10.2922 18.1382ZM9.73531 22.125H20.6553V21.875H9.73531V22.125ZM20.6553 22.125C20.955 22.125 21.1951 22.1544 21.3794 22.2097C21.5636 22.265 21.6842 22.3436 21.7566 22.4367L21.954 22.2833C21.8397 22.1364 21.667 22.035 21.4512 21.9703C21.2355 21.9056 20.969 21.875 20.6553 21.875V22.125ZM21.7619 22.443C21.8463 22.538 21.9065 22.681 21.9312 22.885C21.956 23.0891 21.9442 23.3463 21.892 23.6595L22.1386 23.7005C22.1931 23.3737 22.208 23.0909 22.1794 22.855C22.1508 22.619 22.0776 22.422 21.9487 22.277L21.7619 22.443ZM21.8922 23.6584L21.2522 27.2984L21.4984 27.3416L22.1384 23.7016L21.8922 23.6584ZM21.2522 27.2986C21.1477 27.8992 20.9552 28.3075 20.6912 28.5475L20.8594 28.7325C21.1821 28.4391 21.3896 27.9675 21.4985 27.3414L21.2522 27.2986ZM20.6962 28.5433C20.436 28.7561 20.0046 28.875 19.3753 28.875V29.125C20.026 29.125 20.5279 29.0039 20.8545 28.7367L20.6962 28.5433ZM19.3753 28.875H2.29531V29.125H19.3753V28.875ZM2.29531 28.875C1.65965 28.875 1.28341 28.7535 1.10874 28.557L0.921886 28.723C1.17388 29.0065 1.65097 29.125 2.29531 29.125V28.875ZM1.11292 28.5619C0.936807 28.3418 0.885864 27.9519 1.01746 27.3466L0.773165 27.2934C0.638095 27.9148 0.667151 28.4049 0.917704 28.7181L1.11292 28.5619ZM1.01843 27.3416L5.41843 2.30163L5.1722 2.25836L0.772199 27.2984L1.01843 27.3416ZM5.41746 2.30655C5.54893 1.70181 5.7416 1.30651 5.97893 1.09291L5.81169 0.907086C5.5157 1.17348 5.30837 1.63152 5.17317 2.25344L5.41746 2.30655ZM5.9794 1.09249C6.23916 0.856342 6.66834 0.724998 7.29531 0.724998V0.474998C6.64228 0.474998 6.13813 0.610321 5.81123 0.907506L5.9794 1.09249ZM7.29531 0.724998H24.0553V0.474998H7.29531V0.724998ZM53.0509 1.08L52.9297 1.11032L52.9297 1.11032L53.0509 1.08ZM52.6109 2.2L52.5168 2.11765L52.5143 2.12066L52.6109 2.2ZM42.4909 14.52L42.3943 14.4407L42.3438 14.5021L42.3782 14.5739L42.4909 14.52ZM48.6109 27.32L48.4979 27.374L48.502 27.3813L48.6109 27.32ZM48.6509 28.48L48.5445 28.4145L48.5445 28.4145L48.6509 28.48ZM40.2109 28.76L40.1585 28.8735L40.1617 28.8749L40.2109 28.76ZM39.2909 27.52L39.407 27.4736L39.4069 27.4733L39.2909 27.52ZM36.6509 20.96L36.7669 20.9133L36.6829 20.7046L36.5501 20.8862L36.6509 20.96ZM31.8509 27.52L31.9509 27.595L31.9518 27.5938L31.8509 27.52ZM30.4909 28.76L30.5349 28.8772L30.541 28.8745L30.4909 28.76ZM22.2509 28.52L22.3726 28.4896L22.3695 28.4805L22.2509 28.52ZM22.7309 27.32L22.8244 27.4031L22.8277 27.3992L22.7309 27.32ZM33.2109 14.52L33.3077 14.5992L33.3572 14.5387L33.3245 14.4677L33.2109 14.52ZM27.5309 2.2L27.6445 2.14764L27.6427 2.1441L27.5309 2.2ZM27.4909 1.08L27.3867 1.01054L27.383 1.01702L27.4909 1.08ZM35.4909 0.839998L35.5402 0.725105L35.5402 0.725105L35.4909 0.839998ZM36.4509 2L36.5667 1.95266L36.5656 1.95016L36.4509 2ZM38.9709 8.16L38.8552 8.20733L38.9385 8.41083L39.0708 8.23521L38.9709 8.16ZM43.6109 2L43.7108 2.07521L43.7109 2.075L43.6109 2ZM44.8909 0.839998L44.933 0.957798L44.9374 0.956057L44.8909 0.839998ZM52.0909 0.724998C52.3614 0.724998 52.5595 0.764021 52.695 0.831802C52.8255 0.897046 52.8993 0.988973 52.9297 1.11032L53.1722 1.04968C53.1225 0.851025 52.9964 0.702952 52.8068 0.608195C52.6224 0.515976 52.3805 0.474998 52.0909 0.474998V0.724998ZM52.9297 1.11032C52.9943 1.36888 52.8824 1.6999 52.5169 2.11769L52.705 2.28231C53.0861 1.84676 53.2676 1.43112 53.1722 1.04968L52.9297 1.11032ZM52.5143 2.12066L42.3943 14.4407L42.5875 14.5993L52.7075 2.27934L52.5143 2.12066ZM42.3782 14.5739L48.4982 27.3739L48.7237 27.2661L42.6037 14.4661L42.3782 14.5739ZM48.502 27.3813C48.7251 27.7779 48.7288 28.115 48.5445 28.4145L48.7574 28.5455C48.9998 28.1517 48.9768 27.7154 48.7199 27.2587L48.502 27.3813ZM48.5445 28.4145C48.363 28.7093 48.0151 28.875 47.4509 28.875V29.125C48.0601 29.125 48.5122 28.944 48.7574 28.5455L48.5445 28.4145ZM47.4509 28.875H42.3709V29.125H47.4509V28.875ZM42.3709 28.875C41.8403 28.875 41.3986 28.8551 41.0447 28.8158C40.689 28.7762 40.43 28.7179 40.2602 28.6451L40.1617 28.8749C40.3652 28.9621 40.6529 29.0238 41.0171 29.0642C41.3833 29.1049 41.8349 29.125 42.3709 29.125V28.875ZM40.2633 28.6465C39.9624 28.5076 39.6711 28.1338 39.407 27.4736L39.1749 27.5664C39.4441 28.2396 39.7662 28.6924 40.1586 28.8735L40.2633 28.6465ZM39.4069 27.4733L36.7669 20.9133L36.535 21.0067L39.175 27.5667L39.4069 27.4733ZM36.5501 20.8862L31.7501 27.4462L31.9518 27.5938L36.7518 21.0338L36.5501 20.8862ZM31.7509 27.445C31.2758 28.0786 30.8382 28.4716 30.4408 28.6455L30.541 28.8745C30.997 28.675 31.4661 28.2414 31.9509 27.595L31.7509 27.445ZM30.447 28.643C30.0436 28.7942 29.3174 28.875 28.2509 28.875V29.125C29.3178 29.125 30.0849 29.0458 30.5348 28.877L30.447 28.643ZM28.2509 28.875H23.2909V29.125H28.2509V28.875ZM23.2909 28.875C22.9926 28.875 22.7732 28.8357 22.6233 28.7665C22.4783 28.6996 22.4015 28.6069 22.3722 28.4897L22.1297 28.5503C22.1804 28.7531 22.3169 28.9004 22.5186 28.9935C22.7153 29.0843 22.9759 29.125 23.2909 29.125V28.875ZM22.3695 28.4805C22.2861 28.2302 22.4012 27.879 22.8244 27.403L22.6375 27.237C22.2073 27.721 22.0024 28.1698 22.1324 28.5595L22.3695 28.4805ZM22.8277 27.3992L33.3077 14.5992L33.1142 14.4408L22.6342 27.2408L22.8277 27.3992ZM33.3245 14.4677L27.6445 2.14766L27.4174 2.25233L33.0974 14.5723L33.3245 14.4677ZM27.6427 2.1441C27.4422 1.74294 27.4396 1.41613 27.5989 1.14298L27.383 1.01702C27.169 1.38387 27.193 1.80372 27.4191 2.2559L27.6427 2.1441ZM27.5949 1.14934C27.7768 0.876601 28.1017 0.724998 28.6109 0.724998V0.474998C28.0535 0.474998 27.6318 0.643396 27.3869 1.01066L27.5949 1.14934ZM28.6109 0.724998H33.3709V0.474998H28.6109V0.724998ZM33.3709 0.724998C33.8882 0.724998 34.3198 0.744914 34.6669 0.784205C35.0157 0.823697 35.2716 0.881995 35.4417 0.954891L35.5402 0.725105C35.3369 0.638001 35.0528 0.576299 34.695 0.535792C34.3354 0.495083 33.8937 0.474998 33.3709 0.474998V0.724998ZM35.4417 0.954891C35.7718 1.09635 36.0746 1.44793 36.3363 2.04984L36.5656 1.95016C36.2939 1.32541 35.9568 0.903648 35.5402 0.725105L35.4417 0.954891ZM36.3352 2.04733L38.8552 8.20733L39.0866 8.11267L36.5666 1.95267L36.3352 2.04733ZM39.0708 8.23521L43.7108 2.07521L43.5111 1.92479L38.8711 8.08479L39.0708 8.23521ZM43.7109 2.075C44.1885 1.4382 44.5965 1.07789 44.933 0.957716L44.8489 0.72228C44.4387 0.868774 43.9933 1.2818 43.5109 1.925L43.7109 2.075ZM44.9374 0.956057C45.3133 0.805695 45.9721 0.724998 46.9309 0.724998V0.474998C45.9698 0.474998 45.2686 0.554301 44.8445 0.723938L44.9374 0.956057ZM46.9309 0.724998H52.0909V0.474998H46.9309V0.724998ZM75.3353 0.999998L75.2376 1.07819L75.2419 1.08304L75.3353 0.999998ZM75.4953 2.28L75.6184 2.30188L75.6185 2.30142L75.4953 2.28ZM74.8553 5.88L74.7322 5.85812L74.732 5.85945L74.8553 5.88ZM74.2153 7.24L74.2945 7.33675L74.2953 7.33603L74.2153 7.24ZM62.2953 7.6V7.475H62.1908L62.1723 7.57788L62.2953 7.6ZM61.6553 11.16L61.5323 11.1379L61.5058 11.285H61.6553V11.16ZM71.3353 11.56L71.2329 11.6317L71.2371 11.6376L71.2419 11.643L71.3353 11.56ZM71.4953 12.84L71.6184 12.8619L71.6185 12.8614L71.4953 12.84ZM70.8553 16.44L70.9777 16.4655L70.9784 16.4619L70.8553 16.44ZM70.2153 17.8L70.2989 17.8929L70.2994 17.8925L70.2153 17.8ZM60.4153 18.16V18.035H60.3105L60.2922 18.1382L60.4153 18.16ZM59.7353 22L59.6122 21.9782L59.5862 22.125H59.7353V22ZM71.8553 22.36L71.7564 22.4369L71.7619 22.443L71.8553 22.36ZM72.0153 23.68L72.1384 23.7016L72.1386 23.7005L72.0153 23.68ZM71.3753 27.32L71.2522 27.2984L71.2522 27.2986L71.3753 27.32ZM70.7753 28.64L70.8546 28.7369L70.8594 28.7325L70.7753 28.64ZM51.0153 28.64L50.9176 28.7182L50.9219 28.723L51.0153 28.64ZM50.8953 27.32L51.0176 27.3466L51.0184 27.3416L50.8953 27.32ZM55.2953 2.28L55.1731 2.25342L55.1722 2.25836L55.2953 2.28ZM55.8953 0.999998L55.9789 1.09291L55.9794 1.09249L55.8953 0.999998ZM74.0553 0.724998C74.6881 0.724998 75.0623 0.858796 75.2377 1.07809L75.4329 0.921911C75.1817 0.607867 74.7025 0.474998 74.0553 0.474998V0.724998ZM75.2419 1.08304C75.4142 1.27685 75.4779 1.65061 75.3722 2.25858L75.6185 2.30142C75.7261 1.68272 75.6831 1.20314 75.4287 0.916953L75.2419 1.08304ZM75.3722 2.25812L74.7322 5.85812L74.9784 5.90188L75.6184 2.30188L75.3722 2.25812ZM74.732 5.85945C74.6277 6.48561 74.4225 6.90465 74.1353 7.14397L74.2953 7.33603C74.6482 7.04201 74.8696 6.55439 74.9786 5.90055L74.732 5.85945ZM74.1362 7.14325C73.8753 7.35668 73.4564 7.475 72.8553 7.475V7.725C73.4809 7.725 73.9687 7.60332 74.2945 7.33674L74.1362 7.14325ZM72.8553 7.475H62.2953V7.725H72.8553V7.475ZM62.1723 7.57788L61.5323 11.1379L61.7783 11.1821L62.4183 7.62212L62.1723 7.57788ZM61.6553 11.285H70.0953V11.035H61.6553V11.285ZM70.0953 11.285C70.731 11.285 71.0847 11.42 71.2329 11.6317L71.4377 11.4883C71.2126 11.1667 70.7396 11.035 70.0953 11.035V11.285ZM71.2419 11.643C71.4142 11.8369 71.4779 12.2106 71.3722 12.8186L71.6185 12.8614C71.7261 12.2427 71.6831 11.7631 71.4287 11.477L71.2419 11.643ZM71.3722 12.8181L70.7322 16.4181L70.9784 16.4619L71.6184 12.8619L71.3722 12.8181ZM70.7329 16.4145C70.6018 17.044 70.396 17.4668 70.1312 17.7075L70.2994 17.8925C70.6213 17.5999 70.8422 17.116 70.9777 16.4655L70.7329 16.4145ZM70.1317 17.7071C69.9002 17.9154 69.4863 18.035 68.8553 18.035V18.285C69.5043 18.285 69.9971 18.1646 70.2989 17.8929L70.1317 17.7071ZM68.8553 18.035H60.4153V18.285H68.8553V18.035ZM60.2922 18.1382L59.6122 21.9782L59.8584 22.0218L60.5384 18.1818L60.2922 18.1382ZM59.7353 22.125H70.6553V21.875H59.7353V22.125ZM70.6553 22.125C70.955 22.125 71.1951 22.1544 71.3794 22.2097C71.5636 22.265 71.6842 22.3436 71.7566 22.4367L71.954 22.2833C71.8397 22.1364 71.667 22.035 71.4512 21.9703C71.2355 21.9056 70.969 21.875 70.6553 21.875V22.125ZM71.7619 22.443C71.8463 22.538 71.9065 22.681 71.9312 22.885C71.956 23.0891 71.9442 23.3463 71.892 23.6595L72.1386 23.7005C72.1931 23.3737 72.208 23.0909 72.1794 22.855C72.1508 22.619 72.0776 22.422 71.9487 22.277L71.7619 22.443ZM71.8922 23.6584L71.2522 27.2984L71.4984 27.3416L72.1384 23.7016L71.8922 23.6584ZM71.2522 27.2986C71.1477 27.8992 70.9552 28.3075 70.6912 28.5475L70.8594 28.7325C71.1821 28.4391 71.3896 27.9675 71.4985 27.3414L71.2522 27.2986ZM70.6962 28.5433C70.436 28.7561 70.0046 28.875 69.3753 28.875V29.125C70.026 29.125 70.5279 29.0039 70.8545 28.7367L70.6962 28.5433ZM69.3753 28.875H52.2953V29.125H69.3753V28.875ZM52.2953 28.875C51.6597 28.875 51.2834 28.7535 51.1087 28.557L50.9219 28.723C51.1739 29.0065 51.651 29.125 52.2953 29.125V28.875ZM51.1129 28.5619C50.9368 28.3418 50.8859 27.9519 51.0175 27.3466L50.7732 27.2934C50.6381 27.9148 50.6672 28.4049 50.9177 28.7181L51.1129 28.5619ZM51.0184 27.3416L55.4184 2.30163L55.1722 2.25836L50.7722 27.2984L51.0184 27.3416ZM55.4175 2.30655C55.5489 1.70181 55.7416 1.30651 55.9789 1.09291L55.8117 0.907086C55.5157 1.17348 55.3084 1.63152 55.1732 2.25344L55.4175 2.30655ZM55.9794 1.09249C56.2392 0.856342 56.6683 0.724998 57.2953 0.724998V0.474998C56.6423 0.474998 56.1381 0.610321 55.8112 0.907506L55.9794 1.09249ZM57.2953 0.724998H74.0553V0.474998H57.2953V0.724998ZM76.4566 10.64L76.5796 10.662L76.5798 10.661L76.4566 10.64ZM80.9766 2.76L81.0514 2.86013L81.0516 2.86L80.9766 2.76ZM100.537 7.12L100.414 7.1428L100.415 7.1477L100.537 7.12ZM100.417 8.52L100.31 8.45447L100.309 8.45702L100.417 8.52ZM99.1766 9.28L99.1415 9.15988L99.1363 9.16165L99.1766 9.28ZM95.0566 10.68L95.0916 10.8001L95.0968 10.7984L95.0566 10.68ZM93.6566 10.76L93.5923 10.8672L93.5984 10.8708L93.6048 10.8738L93.6566 10.76ZM93.0566 9.6L92.9341 9.62521L92.9344 9.62655L93.0566 9.6ZM91.9366 7.64L91.8608 7.73947L91.8639 7.74172L91.9366 7.64ZM85.8566 8.04L85.9366 8.13603L85.9369 8.13577L85.8566 8.04ZM84.2966 11.16L84.4196 11.1823L84.4198 11.1809L84.2966 11.16ZM82.9766 18.44L82.8536 18.4177L82.8533 18.4191L82.9766 18.44ZM83.4566 21.6L83.3592 21.6786L83.3627 21.6826L83.4566 21.6ZM91.2566 20L91.1486 19.937L91.1472 19.9394L91.2566 20ZM92.2966 18.84L92.3448 18.9557L92.3525 18.9518L92.2966 18.84ZM93.6166 18.92L93.6614 18.8033L93.6611 18.8032L93.6166 18.92ZM97.7766 20.52L97.7317 20.6367L97.7343 20.6376L97.7766 20.52ZM98.4566 22.68L98.347 22.6198L98.3467 22.6203L98.4566 22.68ZM76.9766 26.44L76.8818 26.5215L76.8824 26.5222L76.9766 26.44ZM75.1366 18.04L75.0135 18.018L75.0133 18.0193L75.1366 18.04ZM76.5798 10.661C77.1619 7.24745 78.6543 4.65135 81.0514 2.86013L80.9017 2.65987C78.4455 4.49531 76.9245 7.15255 76.3333 10.619L76.5798 10.661ZM81.0516 2.86C83.4778 1.04036 86.6491 0.124999 90.5766 0.124999V-0.125001C86.6107 -0.125001 83.382 0.799643 80.9016 2.66L81.0516 2.86ZM90.5766 0.124999C93.4409 0.124999 95.6822 0.715268 97.3139 1.88169C98.9428 3.04616 99.9784 4.79504 100.414 7.14278L100.659 7.09721C100.215 4.69829 99.1503 2.88717 97.4593 1.67831C95.7709 0.471396 93.4723 -0.125001 90.5766 -0.125001V0.124999ZM100.415 7.1477C100.544 7.71758 100.5 8.14655 100.31 8.45449L100.523 8.58551C100.76 8.20011 100.796 7.69575 100.658 7.0923L100.415 7.1477ZM100.309 8.45702C100.147 8.73433 99.7731 8.9758 99.1416 9.16L99.2116 9.4C99.86 9.21087 100.313 8.94567 100.525 8.58298L100.309 8.45702ZM99.1363 9.16165L95.0163 10.5616L95.0968 10.7984L99.2168 9.39835L99.1363 9.16165ZM95.0216 10.56C94.3846 10.7458 93.9572 10.7594 93.7083 10.6462L93.6048 10.8738C93.9425 11.0273 94.4485 10.9876 95.0916 10.8L95.0216 10.56ZM93.7209 10.6528C93.5025 10.5218 93.3112 10.183 93.1787 9.57345L92.9344 9.62655C93.0686 10.2437 93.2773 10.6782 93.5923 10.8672L93.7209 10.6528ZM93.179 9.57479C92.9882 8.6481 92.6026 7.96215 92.0092 7.53828L91.8639 7.74172C92.3905 8.11784 92.7516 8.73856 92.9341 9.62521L93.179 9.57479ZM92.0123 7.54057C91.421 7.09007 90.5489 6.875 89.4166 6.875V7.125C90.5242 7.125 91.3321 7.3366 91.8608 7.73943L92.0123 7.54057ZM89.4166 6.875C87.853 6.875 86.6334 7.2253 85.7762 7.94422L85.9369 8.13577C86.733 7.46803 87.8868 7.125 89.4166 7.125V6.875ZM85.7765 7.94397C84.9463 8.63584 84.4164 9.7074 84.1733 11.1391L84.4198 11.1809C84.6567 9.78593 85.1668 8.77749 85.9366 8.13603L85.7765 7.94397ZM84.1736 11.1377L82.8536 18.4177L83.0996 18.4623L84.4196 11.1823L84.1736 11.1377ZM82.8533 18.4191C82.6109 19.8467 82.7662 20.9442 83.3593 21.6785L83.5538 21.5215C83.027 20.8692 82.8622 19.86 83.0998 18.4609L82.8533 18.4191ZM83.3627 21.6826C83.9858 22.3906 85.0992 22.725 86.6566 22.725V22.475C85.1206 22.475 84.1006 22.1427 83.5504 21.5174L83.3627 21.6826ZM86.6566 22.725C87.7272 22.725 88.6593 22.5047 89.4481 22.0588C90.2373 21.6128 90.8762 20.9448 91.3659 20.0606L91.1472 19.9394C90.677 20.7885 90.0692 21.4206 89.3251 21.8412C88.5805 22.262 87.6926 22.475 86.6566 22.475V22.725ZM91.3645 20.063C91.7368 19.4248 92.0658 19.0715 92.3446 18.9554L92.2485 18.7246C91.8873 18.8751 91.523 19.2952 91.1486 19.937L91.3645 20.063ZM92.3525 18.9518C92.6255 18.8153 93.0237 18.8279 93.5721 19.0368L93.6611 18.8032C93.0895 18.5854 92.6076 18.5447 92.2407 18.7282L92.3525 18.9518ZM93.5717 19.0367L97.7317 20.6367L97.8214 20.4033L93.6614 18.8033L93.5717 19.0367ZM97.7343 20.6376C98.2354 20.8175 98.5104 21.0698 98.6073 21.3775C98.7056 21.6898 98.6337 22.0986 98.347 22.6198L98.5661 22.7402C98.8661 22.1947 98.9742 21.7102 98.8458 21.3025C98.716 20.8902 98.3578 20.5958 97.8188 20.4024L97.7343 20.6376ZM98.3467 22.6203C95.8659 27.1861 91.6064 29.475 85.5366 29.475V29.725C91.68 29.725 96.0339 27.4006 98.5664 22.7397L98.3467 22.6203ZM85.5366 29.475C81.6916 29.475 78.8789 28.428 77.0707 26.3578L76.8824 26.5222C78.7542 28.6653 81.6482 29.725 85.5366 29.725V29.475ZM77.0713 26.3585C75.2886 24.2873 74.6775 21.5283 75.2598 18.0607L75.0133 18.0193C74.4223 21.5384 75.0379 24.3793 76.8818 26.5215L77.0713 26.3585ZM75.2596 18.062L76.5796 10.6619L76.3335 10.618L75.0135 18.018L75.2596 18.062ZM109.195 18.92L109.072 18.8981L109.072 18.8986L109.195 18.92ZM117.475 18.92L117.352 18.8981L117.352 18.8986L117.475 18.92ZM120.435 2.28L120.558 2.30189L120.558 2.30142L120.435 2.28ZM121.035 0.999998L121.114 1.09687L121.119 1.09249L121.035 0.999998ZM128.195 0.999998L128.097 1.07819L128.102 1.08304L128.195 0.999998ZM128.355 2.28L128.478 2.30182L128.478 2.30142L128.355 2.28ZM125.355 19.2L125.478 19.2223L125.478 19.2218L125.355 19.2ZM120.955 26.96L121.031 27.0592L121.031 27.059L120.955 26.96ZM103.195 26.36L103.098 26.4384L103.098 26.439L103.195 26.36ZM101.475 17.88L101.352 17.8582L101.475 17.88ZM104.235 2.28L104.113 2.25342L104.112 2.25822L104.235 2.28ZM104.835 0.999998L104.919 1.09291L104.919 1.09249L104.835 0.999998ZM112.035 0.999998L111.937 1.07819L111.942 1.08304L112.035 0.999998ZM112.155 2.28L112.033 2.25343L112.032 2.25811L112.155 2.28ZM109.072 18.8986C108.855 20.1452 109.039 21.1128 109.665 21.7664C110.286 22.4162 111.315 22.725 112.715 22.725V22.475C111.342 22.475 110.397 22.1705 109.845 21.5936C109.297 21.0206 109.108 20.1481 109.318 18.9414L109.072 18.8986ZM112.715 22.725C114.106 22.725 115.219 22.4144 116.041 21.7789C116.865 21.1421 117.381 20.1911 117.598 18.9414L117.352 18.8986C117.143 20.1023 116.652 20.9912 115.889 21.5811C115.124 22.1722 114.071 22.475 112.715 22.475V22.725ZM117.598 18.9419L120.558 2.30189L120.312 2.25811L117.352 18.8981L117.598 18.9419ZM120.558 2.30142C120.663 1.69994 120.855 1.30881 121.114 1.09674L120.956 0.903253C120.628 1.17119 120.421 1.63339 120.312 2.25858L120.558 2.30142ZM121.119 1.09249C121.38 0.855623 121.796 0.724998 122.395 0.724998V0.474998C121.767 0.474998 121.277 0.611041 120.951 0.907506L121.119 1.09249ZM122.395 0.724998H126.955V0.474998H122.395V0.724998ZM126.955 0.724998C127.559 0.724998 127.921 0.857872 128.097 1.07808L128.293 0.921911C128.042 0.608791 127.578 0.474998 126.955 0.474998V0.724998ZM128.102 1.08304C128.274 1.27686 128.338 1.65061 128.232 2.25858L128.478 2.30142C128.586 1.68272 128.543 1.20314 128.288 0.916953L128.102 1.08304ZM128.232 2.25818L125.232 19.1782L125.478 19.2218L128.478 2.30182L128.232 2.25818ZM125.232 19.1777C124.623 22.5396 123.17 25.0965 120.879 26.861L121.031 27.059C123.38 25.2502 124.86 22.6338 125.478 19.2223L125.232 19.1777ZM120.879 26.8608C118.614 28.599 115.537 29.475 111.635 29.475V29.725C115.573 29.725 118.709 28.841 121.031 27.0592L120.879 26.8608ZM111.635 29.475C107.791 29.475 105.02 28.4018 103.292 26.281L103.098 26.439C104.89 28.6382 107.746 29.725 111.635 29.725V29.475ZM103.292 26.2816C101.561 24.13 100.989 21.3427 101.598 17.9018L101.352 17.8582C100.734 21.3507 101.309 24.2167 103.098 26.4384L103.292 26.2816ZM101.598 17.9018L104.358 2.30178L104.112 2.25822L101.352 17.8582L101.598 17.9018ZM104.357 2.30655C104.489 1.70181 104.681 1.30651 104.919 1.09291L104.751 0.907086C104.455 1.17348 104.248 1.63152 104.113 2.25344L104.357 2.30655ZM104.919 1.09249C105.179 0.856342 105.608 0.724998 106.235 0.724998V0.474998C105.582 0.474998 105.078 0.610321 104.751 0.907506L104.919 1.09249ZM106.235 0.724998H110.755V0.474998H106.235V0.724998ZM110.755 0.724998C111.388 0.724998 111.762 0.858796 111.937 1.07809L112.133 0.921911C111.881 0.607867 111.402 0.474998 110.755 0.474998V0.724998ZM111.942 1.08304C112.111 1.27418 112.165 1.64477 112.033 2.25344L112.277 2.30655C112.411 1.68856 112.385 1.20582 112.128 0.916953L111.942 1.08304ZM112.032 2.25811L109.072 18.8981L109.318 18.9419L112.278 2.30189L112.032 2.25811ZM153.65 0.999998L153.553 1.07819L153.557 1.08304L153.65 0.999998ZM153.77 2.28L153.648 2.25343L153.647 2.25812L153.77 2.28ZM153.13 5.88L153.007 5.85812L153.007 5.85945L153.13 5.88ZM152.53 7.24L152.61 7.33687L152.614 7.33249L152.53 7.24ZM145.21 7.6V7.475H145.105L145.087 7.57828L145.21 7.6ZM141.73 27.32L141.853 27.3466L141.853 27.3417L141.73 27.32ZM141.09 28.64L141.174 28.7329L141.174 28.7325L141.09 28.64ZM133.93 28.64L133.833 28.7182L133.837 28.723L133.93 28.64ZM133.81 27.32L133.933 27.3466L133.933 27.3417L133.81 27.32ZM137.29 7.6L137.413 7.62172L137.439 7.475H137.29V7.6ZM130.05 7.24L129.948 7.31168L129.952 7.31762L129.957 7.32304L130.05 7.24ZM129.93 5.88L129.807 5.85812L129.807 5.85945L129.93 5.88ZM130.57 2.28L130.448 2.25343L130.447 2.25812L130.57 2.28ZM131.17 0.999998L131.254 1.09291L131.254 1.09249L131.17 0.999998ZM152.37 0.724998C153.003 0.724998 153.377 0.858796 153.553 1.07808L153.748 0.921911C153.497 0.607867 153.017 0.474998 152.37 0.474998V0.724998ZM153.557 1.08304C153.727 1.27418 153.78 1.64477 153.648 2.25344L153.892 2.30655C154.027 1.68856 154.001 1.20582 153.744 0.916953L153.557 1.08304ZM153.647 2.25812L153.007 5.85812L153.253 5.90188L153.893 2.30188L153.647 2.25812ZM153.007 5.85945C152.902 6.48802 152.709 6.90845 152.446 7.14751L152.614 7.33249C152.938 7.03822 153.145 6.55198 153.254 5.90055L153.007 5.85945ZM152.451 7.14325C152.191 7.35608 151.76 7.475 151.13 7.475V7.725C151.781 7.725 152.283 7.60392 152.609 7.33674L152.451 7.14325ZM151.13 7.475H145.21V7.725H151.13V7.475ZM145.087 7.57828L141.607 27.2983L141.853 27.3417L145.333 7.62172L145.087 7.57828ZM141.608 27.2934C141.477 27.8951 141.272 28.3058 141.006 28.5475L141.174 28.7325C141.495 28.4408 141.717 27.9716 141.852 27.3466L141.608 27.2934ZM141.007 28.5471C140.775 28.7554 140.361 28.875 139.73 28.875V29.125C140.379 29.125 140.872 29.0046 141.174 28.7329L141.007 28.5471ZM139.73 28.875H135.21V29.125H139.73V28.875ZM135.21 28.875C134.575 28.875 134.198 28.7535 134.024 28.557L133.837 28.723C134.089 29.0065 134.566 29.125 135.21 29.125V28.875ZM134.028 28.5619C133.852 28.3418 133.801 27.9519 133.932 27.3466L133.688 27.2934C133.553 27.9148 133.582 28.4049 133.833 28.7181L134.028 28.5619ZM133.933 27.3417L137.413 7.62172L137.167 7.57828L133.687 27.2983L133.933 27.3417ZM137.29 7.475H131.33V7.725H137.29V7.475ZM131.33 7.475C130.695 7.475 130.318 7.35346 130.144 7.15695L129.957 7.32304C130.209 7.60653 130.686 7.725 131.33 7.725V7.475ZM130.153 7.16832C129.996 6.94502 129.948 6.53606 130.054 5.90055L129.807 5.85945C129.7 6.50394 129.731 7.00165 129.948 7.31168L130.153 7.16832ZM130.053 5.90188L130.693 2.30188L130.447 2.25812L129.807 5.85812L130.053 5.90188ZM130.692 2.30655C130.824 1.70181 131.017 1.30651 131.254 1.09291L131.087 0.907086C130.791 1.17348 130.583 1.63152 130.448 2.25344L130.692 2.30655ZM131.254 1.09249C131.514 0.856342 131.943 0.724998 132.57 0.724998V0.474998C131.917 0.474998 131.413 0.610321 131.086 0.907506L131.254 1.09249ZM132.57 0.724998H152.37V0.474998H132.57V0.724998ZM156.273 2.2L156.151 2.17342L156.15 2.17831L156.273 2.2ZM156.873 0.959999L156.951 1.05777L156.956 1.05291L156.873 0.959999ZM164.193 2.2L164.07 2.17764L164.07 2.17831L164.193 2.2ZM159.753 27.4L159.876 27.4224L159.876 27.4217L159.753 27.4ZM151.953 28.68L151.854 28.7567L151.859 28.7629L151.864 28.7684L151.953 28.68ZM151.833 27.4L151.71 27.3783L151.71 27.3786L151.833 27.4ZM156.395 2.22655C156.527 1.6206 156.719 1.2432 156.951 1.05761L156.795 0.86239C156.493 1.10347 156.286 1.55273 156.151 2.17345L156.395 2.22655ZM156.956 1.05291C157.189 0.843245 157.579 0.724998 158.153 0.724998V0.474998C157.554 0.474998 157.09 0.596752 156.789 0.867087L156.956 1.05291ZM158.153 0.724998H162.873V0.474998H158.153V0.724998ZM162.873 0.724998C163.172 0.724998 163.413 0.754443 163.597 0.809727C163.781 0.864987 163.902 0.943628 163.974 1.03674L164.171 0.883256C164.057 0.736369 163.885 0.63501 163.669 0.57027C163.453 0.505554 163.187 0.474998 162.873 0.474998V0.724998ZM163.974 1.03674C164.125 1.23131 164.176 1.596 164.07 2.17764L164.316 2.22236C164.423 1.63067 164.393 1.16868 164.171 0.883256L163.974 1.03674ZM164.07 2.17831L159.63 27.3783L159.876 27.4217L164.316 2.22169L164.07 2.17831ZM159.63 27.3776C159.525 27.9536 159.346 28.3343 159.109 28.5471L159.276 28.7329C159.573 28.4657 159.767 28.0198 159.876 27.4224L159.63 27.3776ZM159.109 28.5471C158.877 28.756 158.475 28.875 157.873 28.875V29.125C158.497 29.125 158.975 29.004 159.276 28.7329L159.109 28.5471ZM157.873 28.875H153.153V29.125H157.873V28.875ZM153.153 28.875C152.572 28.875 152.217 28.7674 152.041 28.5916L151.864 28.7684C152.115 29.0193 152.561 29.125 153.153 29.125V28.875ZM152.051 28.6033C151.978 28.5083 151.926 28.3672 151.907 28.1683C151.889 27.9698 151.904 27.7216 151.956 27.4214L151.71 27.3786C151.655 27.6917 151.637 27.9636 151.658 28.1917C151.68 28.4194 151.741 28.6117 151.854 28.7567L152.051 28.6033ZM151.956 27.4217L156.396 2.22169L156.15 2.17831L151.71 27.3783L151.956 27.4217ZM193.225 2.24L193.116 2.17882L193.114 2.18201L193.225 2.24ZM179.945 27.6L180.056 27.658L180.056 27.658L179.945 27.6ZM171.305 28.72L171.233 28.8224L171.233 28.8224L171.305 28.72ZM170.745 27.68L170.622 27.7011L170.623 27.7058L170.745 27.68ZM166.385 2.24L166.508 2.21888L166.508 2.21606L166.385 2.24ZM174.945 2.28L174.82 2.29038L174.821 2.29272L174.945 2.28ZM176.345 15.96L176.221 15.9727L176.221 15.9743L176.345 15.96ZM176.425 20.36L176.549 20.3731L176.55 20.3666L176.425 20.36ZM176.345 21.12L176.221 21.1069L176.206 21.245H176.345V21.12ZM176.705 21.12V21.245H176.806L176.827 21.1466L176.705 21.12ZM178.385 16L178.271 15.948L178.271 15.948L178.385 16ZM184.665 2.28L184.551 2.22792L184.551 2.22797L184.665 2.28ZM185.705 0.959999L185.644 0.851009L185.641 0.852812L185.705 0.959999ZM192.425 0.724998C192.993 0.724998 193.274 0.862619 193.373 1.0648C193.423 1.16849 193.437 1.30874 193.398 1.49665C193.358 1.68477 193.266 1.91164 193.116 2.17884L193.334 2.30116C193.491 2.02169 193.595 1.77022 193.642 1.54835C193.689 1.32626 193.68 1.12484 193.597 0.955196C193.429 0.610712 193.003 0.474998 192.425 0.474998V0.724998ZM193.114 2.18201L179.834 27.542L180.056 27.658L193.336 2.29799L193.114 2.18201ZM179.834 27.542C179.545 28.0942 179.252 28.4429 178.962 28.612L179.088 28.828C179.438 28.6238 179.758 28.2258 180.056 27.658L179.834 27.542ZM178.962 28.612C178.67 28.7825 178.229 28.875 177.625 28.875V29.125C178.248 29.125 178.74 29.0309 179.088 28.828L178.962 28.612ZM177.625 28.875H172.585V29.125H177.625V28.875ZM172.585 28.875C172.006 28.875 171.611 28.7818 171.377 28.6176L171.233 28.8224C171.532 29.0315 171.991 29.125 172.585 29.125V28.875ZM171.377 28.6176C171.148 28.4573 170.971 28.1474 170.867 27.6542L170.623 27.7058C170.732 28.2259 170.929 28.6094 171.233 28.8224L171.377 28.6176ZM170.868 27.6589L166.508 2.21888L166.262 2.26111L170.622 27.7011L170.868 27.6589ZM166.508 2.21606C166.404 1.68676 166.476 1.32389 166.679 1.09247C166.884 0.858989 167.253 0.724998 167.825 0.724998V0.474998C167.224 0.474998 166.766 0.614341 166.491 0.927523C166.214 1.24277 166.152 1.69991 166.262 2.26394L166.508 2.21606ZM167.825 0.724998H172.305V0.474998H167.825V0.724998ZM172.305 0.724998C173.263 0.724998 173.897 0.846344 174.237 1.06515L174.373 0.854851C173.966 0.593653 173.267 0.474998 172.305 0.474998V0.724998ZM174.237 1.06515C174.565 1.27594 174.769 1.67098 174.82 2.29038L175.07 2.26962C175.015 1.60902 174.791 1.12406 174.373 0.854851L174.237 1.06515ZM174.821 2.29272L176.221 15.9727L176.469 15.9473L175.069 2.26727L174.821 2.29272ZM176.221 15.9743C176.3 16.6619 176.34 17.4436 176.34 18.32H176.59C176.59 17.4364 176.55 16.6448 176.469 15.9457L176.221 15.9743ZM176.34 18.32C176.34 19.1724 176.327 19.8499 176.3 20.3534L176.55 20.3666C176.577 19.8567 176.59 19.1743 176.59 18.32H176.34ZM176.301 20.3469L176.221 21.1069L176.469 21.1331L176.549 20.3731L176.301 20.3469ZM176.345 21.245H176.705V20.995H176.345V21.245ZM176.827 21.1466C177.225 19.3146 177.783 17.6165 178.499 16.052L178.271 15.948C177.547 17.5302 176.985 19.2454 176.583 21.0934L176.827 21.1466ZM178.499 16.052L184.779 2.33202L184.551 2.22797L178.271 15.948L178.499 16.052ZM184.779 2.33208C185.066 1.70405 185.399 1.28915 185.769 1.06719L185.641 0.852812C185.211 1.11084 184.85 1.57595 184.551 2.22792L184.779 2.33208ZM185.766 1.06895C186.164 0.845466 186.83 0.724998 187.785 0.724998V0.474998C186.82 0.474998 186.1 0.594531 185.644 0.851052L185.766 1.06895ZM187.785 0.724998H192.425V0.474998H187.785V0.724998ZM215.453 0.999998L215.355 1.07819L215.359 1.08304L215.453 0.999998ZM215.613 2.28L215.736 2.30188L215.736 2.30142L215.613 2.28ZM214.973 5.88L214.849 5.85812L214.849 5.85945L214.973 5.88ZM214.332 7.24L214.412 7.33675L214.413 7.33603L214.332 7.24ZM202.413 7.6V7.475H202.308L202.289 7.57788L202.413 7.6ZM201.773 11.16L201.649 11.1379L201.623 11.285H201.773V11.16ZM211.453 11.56L211.35 11.6317L211.354 11.6376L211.359 11.643L211.453 11.56ZM211.613 12.84L211.736 12.8619L211.736 12.8614L211.613 12.84ZM210.973 16.44L211.095 16.4655L211.096 16.4619L210.973 16.44ZM210.333 17.8L210.416 17.8929L210.417 17.8925L210.333 17.8ZM200.533 18.16V18.035H200.428L200.409 18.1382L200.533 18.16ZM199.853 22L199.729 21.9782L199.703 22.125H199.853V22ZM211.973 22.36L211.874 22.4369L211.879 22.443L211.973 22.36ZM212.133 23.68L212.256 23.7016L212.256 23.7005L212.133 23.68ZM211.493 27.32L211.369 27.2984L211.369 27.2986L211.493 27.32ZM210.893 28.64L210.972 28.7369L210.977 28.7325L210.893 28.64ZM191.133 28.64L191.035 28.7182L191.039 28.723L191.133 28.64ZM191.013 27.32L191.135 27.3466L191.136 27.3416L191.013 27.32ZM195.413 2.28L195.29 2.25342L195.289 2.25836L195.413 2.28ZM196.013 0.999998L196.096 1.09291L196.097 1.09249L196.013 0.999998ZM214.173 0.724998C214.805 0.724998 215.179 0.858796 215.355 1.07809L215.55 0.921911C215.299 0.607867 214.82 0.474998 214.173 0.474998V0.724998ZM215.359 1.08304C215.531 1.27685 215.595 1.65061 215.489 2.25858L215.736 2.30142C215.843 1.68272 215.8 1.20314 215.546 0.916953L215.359 1.08304ZM215.489 2.25812L214.849 5.85812L215.096 5.90188L215.736 2.30188L215.489 2.25812ZM214.849 5.85945C214.745 6.48561 214.54 6.90465 214.252 7.14397L214.413 7.33603C214.765 7.04201 214.987 6.55439 215.096 5.90055L214.849 5.85945ZM214.253 7.14325C213.992 7.35668 213.574 7.475 212.973 7.475V7.725C213.598 7.725 214.086 7.60332 214.412 7.33674L214.253 7.14325ZM212.973 7.475H202.413V7.725H212.973V7.475ZM202.289 7.57788L201.649 11.1379L201.896 11.1821L202.536 7.62212L202.289 7.57788ZM201.773 11.285H210.213V11.035H201.773V11.285ZM210.213 11.285C210.848 11.285 211.202 11.42 211.35 11.6317L211.555 11.4883C211.33 11.1667 210.857 11.035 210.213 11.035V11.285ZM211.359 11.643C211.531 11.8369 211.595 12.2106 211.489 12.8186L211.736 12.8614C211.843 12.2427 211.8 11.7631 211.546 11.477L211.359 11.643ZM211.489 12.8181L210.849 16.4181L211.096 16.4619L211.736 12.8619L211.489 12.8181ZM210.85 16.4145C210.719 17.044 210.513 17.4668 210.248 17.7075L210.417 17.8925C210.738 17.5999 210.959 17.116 211.095 16.4655L210.85 16.4145ZM210.249 17.7071C210.017 17.9154 209.603 18.035 208.973 18.035V18.285C209.622 18.285 210.114 18.1646 210.416 17.8929L210.249 17.7071ZM208.973 18.035H200.533V18.285H208.973V18.035ZM200.409 18.1382L199.729 21.9782L199.976 22.0218L200.656 18.1818L200.409 18.1382ZM199.853 22.125H210.773V21.875H199.853V22.125ZM210.773 22.125C211.072 22.125 211.312 22.1544 211.497 22.2097C211.681 22.265 211.801 22.3436 211.874 22.4367L212.071 22.2833C211.957 22.1364 211.784 22.035 211.568 21.9703C211.353 21.9056 211.086 21.875 210.773 21.875V22.125ZM211.879 22.443C211.964 22.538 212.024 22.681 212.048 22.885C212.073 23.0891 212.061 23.3463 212.009 23.6595L212.256 23.7005C212.31 23.3737 212.325 23.0909 212.297 22.855C212.268 22.619 212.195 22.422 212.066 22.277L211.879 22.443ZM212.009 23.6584L211.369 27.2984L211.616 27.3416L212.256 23.7016L212.009 23.6584ZM211.369 27.2986C211.265 27.8992 211.072 28.3075 210.808 28.5475L210.977 28.7325C211.299 28.4391 211.507 27.9675 211.616 27.3414L211.369 27.2986ZM210.813 28.5433C210.553 28.7561 210.122 28.875 209.493 28.875V29.125C210.143 29.125 210.645 29.0039 210.972 28.7367L210.813 28.5433ZM209.493 28.875H192.413V29.125H209.493V28.875ZM192.413 28.875C191.777 28.875 191.401 28.7535 191.226 28.557L191.039 28.723C191.291 29.0065 191.768 29.125 192.413 29.125V28.875ZM191.23 28.5619C191.054 28.3418 191.003 27.9519 191.135 27.3466L190.89 27.2934C190.755 27.9148 190.784 28.4049 191.035 28.7181L191.23 28.5619ZM191.136 27.3416L195.536 2.30163L195.289 2.25836L190.889 27.2984L191.136 27.3416ZM195.535 2.30655C195.666 1.70181 195.859 1.30651 196.096 1.09291L195.929 0.907086C195.633 1.17348 195.426 1.63152 195.29 2.25344L195.535 2.30655ZM196.097 1.09249C196.356 0.856342 196.786 0.724998 197.413 0.724998V0.474998C196.759 0.474998 196.255 0.610321 195.928 0.907506L196.097 1.09249ZM197.413 0.724998H214.173V0.474998H197.413V0.724998ZM224.074 10.64L224.197 10.662L224.197 10.661L224.074 10.64ZM228.594 2.76L228.669 2.86013L228.669 2.86L228.594 2.76ZM248.154 7.12L248.031 7.1428L248.032 7.1477L248.154 7.12ZM248.034 8.52L247.927 8.45447L247.926 8.45702L248.034 8.52ZM246.794 9.28L246.759 9.15988L246.754 9.16165L246.794 9.28ZM242.674 10.68L242.709 10.8001L242.714 10.7984L242.674 10.68ZM241.274 10.76L241.209 10.8672L241.216 10.8708L241.222 10.8738L241.274 10.76ZM240.674 9.6L240.551 9.62521L240.552 9.62655L240.674 9.6ZM239.554 7.64L239.478 7.73947L239.481 7.74172L239.554 7.64ZM233.474 8.04L233.554 8.13603L233.554 8.13577L233.474 8.04ZM231.914 11.16L232.037 11.1823L232.037 11.1809L231.914 11.16ZM230.594 18.44L230.471 18.4177L230.471 18.4191L230.594 18.44ZM231.074 21.6L230.976 21.6786L230.98 21.6826L231.074 21.6ZM238.874 20L238.766 19.937L238.764 19.9394L238.874 20ZM239.914 18.84L239.962 18.9557L239.97 18.9518L239.914 18.84ZM241.234 18.92L241.279 18.8033L241.278 18.8032L241.234 18.92ZM245.394 20.52L245.349 20.6367L245.352 20.6376L245.394 20.52ZM246.074 22.68L245.964 22.6198L245.964 22.6203L246.074 22.68ZM224.594 26.44L224.499 26.5215L224.5 26.5222L224.594 26.44ZM222.754 18.04L222.631 18.018L222.63 18.0193L222.754 18.04ZM224.197 10.661C224.779 7.24745 226.271 4.65135 228.669 2.86013L228.519 2.65987C226.063 4.49531 224.542 7.15255 223.951 10.619L224.197 10.661ZM228.669 2.86C231.095 1.04036 234.266 0.124999 238.194 0.124999V-0.125001C234.228 -0.125001 230.999 0.799643 228.519 2.66L228.669 2.86ZM238.194 0.124999C241.058 0.124999 243.299 0.715268 244.931 1.88169C246.56 3.04616 247.596 4.79504 248.031 7.14278L248.277 7.09721C247.832 4.69829 246.767 2.88717 245.076 1.67831C243.388 0.471396 241.089 -0.125001 238.194 -0.125001V0.124999ZM248.032 7.1477C248.161 7.71758 248.117 8.14655 247.927 8.45449L248.14 8.58551C248.377 8.20011 248.413 7.69575 248.276 7.0923L248.032 7.1477ZM247.926 8.45702C247.764 8.73433 247.39 8.9758 246.759 9.16L246.829 9.4C247.477 9.21087 247.93 8.94567 248.142 8.58298L247.926 8.45702ZM246.754 9.16165L242.634 10.5616L242.714 10.7984L246.834 9.39835L246.754 9.16165ZM242.639 10.56C242.002 10.7458 241.574 10.7594 241.325 10.6462L241.222 10.8738C241.56 11.0273 242.066 10.9876 242.709 10.8L242.639 10.56ZM241.338 10.6528C241.12 10.5218 240.928 10.183 240.796 9.57345L240.552 9.62655C240.686 10.2437 240.894 10.6782 241.209 10.8672L241.338 10.6528ZM240.796 9.57479C240.605 8.6481 240.22 7.96215 239.626 7.53828L239.481 7.74172C240.008 8.11784 240.369 8.73856 240.551 9.62521L240.796 9.57479ZM239.63 7.54057C239.038 7.09007 238.166 6.875 237.034 6.875V7.125C238.141 7.125 238.949 7.3366 239.478 7.73943L239.63 7.54057ZM237.034 6.875C235.47 6.875 234.251 7.2253 233.393 7.94422L233.554 8.13577C234.35 7.46803 235.504 7.125 237.034 7.125V6.875ZM233.394 7.94397C232.563 8.63584 232.034 9.7074 231.791 11.1391L232.037 11.1809C232.274 9.78593 232.784 8.77749 233.554 8.13603L233.394 7.94397ZM231.791 11.1377L230.471 18.4177L230.717 18.4623L232.037 11.1823L231.791 11.1377ZM230.471 18.4191C230.228 19.8467 230.383 20.9442 230.977 21.6785L231.171 21.5215C230.644 20.8692 230.479 19.86 230.717 18.4609L230.471 18.4191ZM230.98 21.6826C231.603 22.3906 232.716 22.725 234.274 22.725V22.475C232.738 22.475 231.718 22.1427 231.168 21.5174L230.98 21.6826ZM234.274 22.725C235.344 22.725 236.276 22.5047 237.065 22.0588C237.854 21.6128 238.493 20.9448 238.983 20.0606L238.764 19.9394C238.294 20.7885 237.686 21.4206 236.942 21.8412C236.198 22.262 235.31 22.475 234.274 22.475V22.725ZM238.982 20.063C239.354 19.4248 239.683 19.0715 239.962 18.9554L239.866 18.7246C239.504 18.8751 239.14 19.2952 238.766 19.937L238.982 20.063ZM239.97 18.9518C240.243 18.8153 240.641 18.8279 241.189 19.0368L241.278 18.8032C240.707 18.5854 240.225 18.5447 239.858 18.7282L239.97 18.9518ZM241.189 19.0367L245.349 20.6367L245.439 20.4033L241.279 18.8033L241.189 19.0367ZM245.352 20.6376C245.853 20.8175 246.128 21.0698 246.225 21.3775C246.323 21.6898 246.251 22.0986 245.964 22.6198L246.183 22.7402C246.483 22.1947 246.591 21.7102 246.463 21.3025C246.333 20.8902 245.975 20.5958 245.436 20.4024L245.352 20.6376ZM245.964 22.6203C243.483 27.1861 239.224 29.475 233.154 29.475V29.725C239.297 29.725 243.651 27.4006 246.184 22.7397L245.964 22.6203ZM233.154 29.475C229.309 29.475 226.496 28.428 224.688 26.3578L224.5 26.5222C226.371 28.6653 229.265 29.725 233.154 29.725V29.475ZM224.688 26.3585C222.906 24.2873 222.295 21.5283 222.877 18.0607L222.63 18.0193C222.039 21.5384 222.655 24.3793 224.499 26.5215L224.688 26.3585ZM222.877 18.062L224.197 10.6619L223.951 10.618L222.631 18.018L222.877 18.062ZM259.892 0.999998L259.794 1.07819L259.799 1.08304L259.892 0.999998ZM260.052 2.28L260.175 2.30172L260.175 2.30142L260.052 2.28ZM256.572 22L256.449 21.9783L256.423 22.125H256.572V22ZM267.412 22.36L267.313 22.4369L267.319 22.443L267.412 22.36ZM267.572 23.68L267.695 23.7016L267.695 23.7005L267.572 23.68ZM266.932 27.32L267.054 27.3466L267.055 27.3416L266.932 27.32ZM266.292 28.64L266.376 28.7329L266.376 28.7325L266.292 28.64ZM247.812 28.64L247.71 28.7117L247.714 28.7176L247.719 28.723L247.812 28.64ZM247.692 27.32L247.569 27.2982L247.569 27.2986L247.692 27.32ZM252.132 2.28L252.255 2.30182L252.255 2.30142L252.132 2.28ZM252.692 0.999998L252.776 1.09291L252.776 1.09249L252.692 0.999998ZM258.612 0.724998C259.245 0.724998 259.619 0.858796 259.795 1.07808L259.99 0.921911C259.739 0.607867 259.259 0.474998 258.612 0.474998V0.724998ZM259.799 1.08304C259.971 1.27686 260.035 1.65061 259.929 2.25858L260.175 2.30142C260.283 1.68272 260.24 1.20314 259.986 0.916953L259.799 1.08304ZM259.929 2.25828L256.449 21.9783L256.695 22.0217L260.175 2.30172L259.929 2.25828ZM256.572 22.125H266.172V21.875H256.572V22.125ZM266.172 22.125C266.486 22.125 266.736 22.1545 266.927 22.21C267.119 22.2657 267.242 22.3446 267.314 22.4367L267.511 22.2833C267.396 22.1354 267.219 22.0343 266.997 21.97C266.775 21.9055 266.499 21.875 266.172 21.875V22.125ZM267.319 22.443C267.403 22.538 267.463 22.681 267.488 22.885C267.513 23.0891 267.501 23.3463 267.449 23.6595L267.695 23.7005C267.75 23.3737 267.765 23.0909 267.736 22.855C267.708 22.619 267.635 22.422 267.506 22.277L267.319 22.443ZM267.449 23.6584L266.809 27.2984L267.055 27.3416L267.695 23.7016L267.449 23.6584ZM266.81 27.2934C266.679 27.8951 266.474 28.3058 266.208 28.5475L266.376 28.7325C266.697 28.4408 266.918 27.9716 267.054 27.3466L266.81 27.2934ZM266.209 28.5471C265.977 28.7554 265.563 28.875 264.932 28.875V29.125C265.581 29.125 266.074 29.0046 266.376 28.7329L266.209 28.5471ZM264.932 28.875H249.092V29.125H264.932V28.875ZM249.092 28.875C248.457 28.875 248.08 28.7535 247.906 28.557L247.719 28.723C247.971 29.0065 248.448 29.125 249.092 29.125V28.875ZM247.915 28.5683C247.758 28.3447 247.71 27.9485 247.815 27.3414L247.569 27.2986C247.461 27.9181 247.493 28.402 247.71 28.7117L247.915 28.5683ZM247.815 27.3418L252.255 2.30182L252.009 2.25817L247.569 27.2982L247.815 27.3418ZM252.255 2.30142C252.36 1.69743 252.54 1.30473 252.776 1.09291L252.609 0.907086C252.311 1.17527 252.117 1.6359 252.009 2.25858L252.255 2.30142ZM252.776 1.09249C253.036 0.856342 253.465 0.724998 254.092 0.724998V0.474998C253.439 0.474998 252.935 0.610321 252.608 0.907506L252.776 1.09249ZM254.092 0.724998H258.612V0.474998H254.092V0.724998ZM277.633 18.92L277.509 18.8981L277.509 18.8986L277.633 18.92ZM285.913 18.92L285.789 18.8981L285.789 18.8986L285.913 18.92ZM288.872 2.28L288.996 2.30189L288.996 2.30142L288.872 2.28ZM289.473 0.999998L289.552 1.09687L289.557 1.09249L289.473 0.999998ZM296.633 0.999998L296.535 1.07819L296.539 1.08304L296.633 0.999998ZM296.793 2.28L296.916 2.30182L296.916 2.30142L296.793 2.28ZM293.793 19.2L293.916 19.2223L293.916 19.2218L293.793 19.2ZM289.393 26.96L289.469 27.0592L289.469 27.059L289.393 26.96ZM271.633 26.36L271.535 26.4384L271.536 26.439L271.633 26.36ZM269.913 17.88L269.789 17.8582L269.913 17.88ZM272.673 2.28L272.55 2.25342L272.549 2.25822L272.673 2.28ZM273.273 0.999998L273.356 1.09291L273.357 1.09249L273.273 0.999998ZM280.473 0.999998L280.375 1.07819L280.379 1.08304L280.473 0.999998ZM280.593 2.28L280.47 2.25343L280.469 2.25811L280.593 2.28ZM277.509 18.8986C277.293 20.1452 277.477 21.1128 278.102 21.7664C278.724 22.4162 279.752 22.725 281.153 22.725V22.475C279.779 22.475 278.835 22.1705 278.283 21.5936C277.735 21.0206 277.546 20.1481 277.756 18.9414L277.509 18.8986ZM281.153 22.725C282.543 22.725 283.657 22.4144 284.479 21.7789C285.303 21.1421 285.818 20.1911 286.036 18.9414L285.789 18.8986C285.58 20.1023 285.089 20.9912 284.326 21.5811C283.561 22.1722 282.508 22.475 281.153 22.475V22.725ZM286.036 18.9419L288.996 2.30189L288.749 2.25811L285.789 18.8981L286.036 18.9419ZM288.996 2.30142C289.1 1.69994 289.292 1.30881 289.552 1.09674L289.393 0.903253C289.066 1.17119 288.858 1.63339 288.749 2.25858L288.996 2.30142ZM289.557 1.09249C289.817 0.855623 290.234 0.724998 290.833 0.724998V0.474998C290.204 0.474998 289.715 0.611041 289.388 0.907506L289.557 1.09249ZM290.833 0.724998H295.393V0.474998H290.833V0.724998ZM295.393 0.724998C295.996 0.724998 296.359 0.857872 296.535 1.07808L296.73 0.921911C296.48 0.608791 296.015 0.474998 295.393 0.474998V0.724998ZM296.539 1.08304C296.711 1.27686 296.775 1.65061 296.669 2.25858L296.916 2.30142C297.023 1.68272 296.98 1.20314 296.726 0.916953L296.539 1.08304ZM296.669 2.25818L293.669 19.1782L293.916 19.2218L296.916 2.30182L296.669 2.25818ZM293.67 19.1777C293.061 22.5396 291.607 25.0965 289.316 26.861L289.469 27.059C291.818 25.2502 293.298 22.6338 293.916 19.2223L293.67 19.1777ZM289.316 26.8608C287.052 28.599 283.975 29.475 280.072 29.475V29.725C284.01 29.725 287.147 28.841 289.469 27.0592L289.316 26.8608ZM280.072 29.475C276.228 29.475 273.457 28.4018 271.729 26.281L271.536 26.439C273.328 28.6382 276.184 29.725 280.072 29.725V29.475ZM271.73 26.2816C269.998 24.13 269.427 21.3427 270.036 17.9018L269.789 17.8582C269.172 21.3507 269.747 24.2167 271.535 26.4384L271.73 26.2816ZM270.036 17.9018L272.796 2.30178L272.549 2.25822L269.789 17.8582L270.036 17.9018ZM272.795 2.30655C272.926 1.70181 273.119 1.30651 273.356 1.09291L273.189 0.907086C272.893 1.17348 272.686 1.63152 272.55 2.25344L272.795 2.30655ZM273.357 1.09249C273.616 0.856342 274.046 0.724998 274.673 0.724998V0.474998C274.019 0.474998 273.515 0.610321 273.188 0.907506L273.357 1.09249ZM274.673 0.724998H279.193V0.474998H274.673V0.724998ZM279.193 0.724998C279.825 0.724998 280.199 0.858796 280.375 1.07809L280.57 0.921911C280.319 0.607867 279.84 0.474998 279.193 0.474998V0.724998ZM280.379 1.08304C280.549 1.27418 280.603 1.64477 280.47 2.25344L280.715 2.30655C280.849 1.68856 280.823 1.20582 280.566 0.916953L280.379 1.08304ZM280.469 2.25811L277.509 18.8981L277.756 18.9419L280.716 2.30189L280.469 2.25811ZM320.448 2.72L320.356 2.80494L320.358 2.80667L320.448 2.72ZM321.848 8.44L321.97 8.46452L321.971 8.46188L321.848 8.44ZM320.528 11.72L320.426 11.647L320.426 11.6477L320.528 11.72ZM317.928 14.04L317.861 13.9341L317.819 13.9609L317.807 14.0097L317.928 14.04ZM317.888 14.2L317.767 14.1697L317.742 14.2687L317.834 14.3128L317.888 14.2ZM320.648 21.4L320.771 21.4222L320.771 21.4208L320.648 21.4ZM316.968 27.08L316.9 26.9747L316.9 26.9751L316.968 27.08ZM296.328 28.64L296.23 28.7182L296.234 28.723L296.328 28.64ZM296.208 27.32L296.33 27.3466L296.331 27.3416L296.208 27.32ZM300.608 2.28L300.485 2.25449L300.485 2.25836L300.608 2.28ZM301.208 0.959999L301.291 1.05291L301.292 1.05249L301.208 0.959999ZM313.608 9.24L313.731 9.26276L313.731 9.26197L313.608 9.24ZM307.688 7V6.875H307.583L307.565 6.97872L307.688 7ZM306.928 11.4L306.805 11.3787L306.779 11.525H306.928V11.4ZM312.568 20.16L312.445 20.1347L312.445 20.1391L312.568 20.16ZM305.808 17.84V17.715H305.703L305.685 17.8179L305.808 17.84ZM304.968 22.52L304.845 22.4979L304.818 22.645H304.968V22.52ZM314.328 0.684999C317.054 0.684999 319.055 1.39935 320.356 2.80493L320.54 2.63507C319.174 1.16064 317.095 0.434999 314.328 0.434999V0.684999ZM320.358 2.80667C321.683 4.18417 322.146 6.04681 321.725 8.41812L321.971 8.46188C322.403 6.03318 321.932 4.0825 320.538 2.63333L320.358 2.80667ZM321.725 8.41549C321.461 9.73628 321.027 10.8118 320.426 11.647L320.629 11.793C321.256 10.9216 321.701 9.81038 321.97 8.46451L321.725 8.41549ZM320.426 11.6477C319.851 12.4573 318.999 13.2201 317.861 13.9341L317.994 14.1459C319.15 13.4199 320.031 12.6361 320.63 11.7923L320.426 11.6477ZM317.807 14.0097L317.767 14.1697L318.009 14.2303L318.049 14.0703L317.807 14.0097ZM317.834 14.3128C319.034 14.8865 319.853 15.7565 320.301 16.9247C320.75 18.0967 320.829 19.5789 320.525 21.3792L320.771 21.4208C321.08 19.5944 321.005 18.0633 320.535 16.8353C320.062 15.6035 319.195 14.6868 317.942 14.0872L317.834 14.3128ZM320.525 21.3778C320.077 23.853 318.869 25.7149 316.9 26.9747L317.035 27.1853C319.067 25.8851 320.312 23.9603 320.771 21.4222L320.525 21.3778ZM316.9 26.9751C314.951 28.2391 312.523 28.875 309.608 28.875V29.125C312.559 29.125 315.038 28.4809 317.036 27.1849L316.9 26.9751ZM309.608 28.875H297.608V29.125H309.608V28.875ZM297.608 28.875C296.972 28.875 296.596 28.7535 296.421 28.557L296.234 28.723C296.486 29.0065 296.963 29.125 297.608 29.125V28.875ZM296.425 28.5619C296.249 28.3418 296.198 27.9519 296.33 27.3466L296.086 27.2934C295.951 27.9148 295.98 28.4049 296.23 28.7181L296.425 28.5619ZM296.331 27.3416L300.731 2.30163L300.485 2.25836L296.085 27.2984L296.331 27.3416ZM300.73 2.30549C300.862 1.67285 301.055 1.26561 301.291 1.05291L301.124 0.867087C300.827 1.13438 300.62 1.60715 300.485 2.2545L300.73 2.30549ZM301.292 1.05249C301.552 0.816343 301.981 0.684999 302.608 0.684999V0.434999C301.955 0.434999 301.451 0.570322 301.124 0.867506L301.292 1.05249ZM302.608 0.684999H314.328V0.434999H302.608V0.684999ZM313.731 9.26197C313.868 8.49629 313.764 7.88903 313.379 7.47494C312.998 7.06404 312.368 6.875 311.528 6.875V7.125C312.341 7.125 312.884 7.30929 313.196 7.64506C313.505 7.97763 313.615 8.49038 313.485 9.21803L313.731 9.26197ZM311.528 6.875H307.688V7.125H311.528V6.875ZM307.565 6.97872L306.805 11.3787L307.051 11.4213L307.811 7.02128L307.565 6.97872ZM306.928 11.525H310.768V11.275H306.928V11.525ZM310.768 11.525C311.599 11.525 312.272 11.3412 312.773 10.9595C313.277 10.5766 313.593 10.0059 313.731 9.26276L313.485 9.21724C313.356 9.91407 313.065 10.4234 312.622 10.7605C312.177 11.0988 311.564 11.275 310.768 11.275V11.525ZM312.69 20.1853C312.854 19.3929 312.759 18.7637 312.359 18.3348C311.964 17.9102 311.3 17.715 310.408 17.715V17.965C311.275 17.965 311.852 18.1565 312.176 18.5052C312.497 18.8496 312.601 19.3804 312.445 20.1347L312.69 20.1853ZM310.408 17.715H305.808V17.965H310.408V17.715ZM305.685 17.8179L304.845 22.4979L305.091 22.5421L305.931 17.8621L305.685 17.8179ZM304.968 22.645H309.608V22.395H304.968V22.645ZM309.608 22.645C310.48 22.645 311.184 22.4441 311.706 22.0277C312.229 21.6106 312.554 20.9896 312.691 20.1809L312.445 20.1391C312.315 20.9038 312.013 21.4628 311.55 21.8323C311.085 22.2026 310.443 22.395 309.608 22.395V22.645Z" fill="url(#paint0_linear_333_249)"/>
<defs>
<linearGradient id="paint0_linear_333_249" x1="161.695" y1="-2" x2="161.695" y2="32" gradientUnits="userSpaceOnUse">
<stop offset="0.206492" stop-color="white"/>
<stop offset="0.478015" stop-color="#FFE7AA" stop-opacity="0"/>
<stop offset="0.689643" stop-color="#FFE7AA"/>
<stop offset="1" stop-color="#FFE7AA" stop-opacity="0"/>
</linearGradient>
</defs>
</svg>
