<svg width="158" height="273" viewBox="0 0 158 273" fill="none" xmlns="http://www.w3.org/2000/svg">
<path fill-rule="evenodd" clip-rule="evenodd" d="M63.9231 181.071H94.6925C85.674 178.287 82.3116 167.534 82.4465 160.122C107.216 174.491 137.686 152.572 106.358 122.478C93.0405 109.161 84.934 98.8341 80.9229 93.7244C80.2678 92.8898 79.7219 92.1944 79.2804 91.6478C78.8238 92.2131 78.2566 92.9376 77.5733 93.8107L77.5722 93.812L77.5707 93.8139L77.5692 93.816C73.5452 98.9569 65.4961 109.24 52.2572 122.478C20.9294 152.572 51.3992 174.491 76.1691 160.122C76.3041 167.534 72.9416 178.287 63.9231 181.071ZM79.2941 136.359L79.2804 91.6478C79.2786 109.109 79.2863 122.734 79.2941 136.359Z" fill="url(#paint0_linear_419_89)"/>
<path fill-rule="evenodd" clip-rule="evenodd" d="M63.9231 181.071H94.6925C85.674 178.287 82.3116 167.534 82.4465 160.122C107.216 174.491 137.686 152.572 106.358 122.478C93.0405 109.161 84.934 98.8341 80.9229 93.7244C80.2678 92.8898 79.7219 92.1944 79.2804 91.6478C78.8238 92.2131 78.2566 92.9376 77.5733 93.8107L77.5722 93.812L77.5707 93.8139L77.5692 93.816C73.5452 98.9569 65.4961 109.24 52.2572 122.478C20.9294 152.572 51.3992 174.491 76.1691 160.122C76.3041 167.534 72.9416 178.287 63.9231 181.071ZM79.2941 136.359L79.2804 91.6478C79.2786 109.109 79.2863 122.734 79.2941 136.359Z" fill="url(#paint1_linear_419_89)"/>
<path fill-rule="evenodd" clip-rule="evenodd" d="M12.699 36.8403L19.449 16.0711H23.7903L30.5403 36.8403H27.4105L25.873 32.1528H17.3485L15.8288 36.8403H12.699ZM21.5859 19.0825L24.9458 29.3259H18.265L21.5859 19.0825Z" fill="url(#paint2_linear_419_89)"/>
<path fill-rule="evenodd" clip-rule="evenodd" d="M12.699 36.8403L19.449 16.0711H23.7903L30.5403 36.8403H27.4105L25.873 32.1528H17.3485L15.8288 36.8403H12.699ZM21.5859 19.0825L24.9458 29.3259H18.265L21.5859 19.0825Z" fill="url(#paint3_linear_419_89)"/>
<path d="M18.3188 62.0805L24.9122 62.0805C22.9797 61.4744 22.2592 59.1331 22.2881 57.5191C27.5959 60.6478 34.1252 55.8752 27.4121 49.3224C24.5582 46.4228 22.8211 44.1741 21.9616 43.0615C21.8212 42.8798 21.7043 42.7284 21.6097 42.6094C21.5375 42.7001 21.4526 42.8097 21.3542 42.9372L21.248 43.0749L21.243 43.0814C20.3807 44.2008 18.6559 46.4399 15.819 49.3224C9.10589 55.8752 15.6351 60.6478 20.943 57.5191C20.9719 59.1331 20.2513 61.4744 18.3188 62.0805Z" fill="url(#paint4_linear_419_89)"/>
<path d="M18.3188 62.0805L24.9122 62.0805C22.9797 61.4744 22.2592 59.1331 22.2881 57.5191C27.5959 60.6478 34.1252 55.8752 27.4121 49.3224C24.5582 46.4228 22.8211 44.1741 21.9616 43.0615C21.8212 42.8798 21.7043 42.7284 21.6097 42.6094C21.5375 42.7001 21.4526 42.8097 21.3542 42.9372L21.248 43.0749L21.243 43.0814C20.3807 44.2008 18.6559 46.4399 15.819 49.3224C9.10589 55.8752 15.6351 60.6478 20.943 57.5191C20.9719 59.1331 20.2513 61.4744 18.3188 62.0805Z" fill="url(#paint5_linear_419_89)"/>
<path fill-rule="evenodd" clip-rule="evenodd" d="M145.917 235.878L139.167 256.648H134.825L128.075 235.878H131.205L132.743 240.566H141.267L142.787 235.878H145.917ZM137.03 253.636L133.67 243.393H140.351L137.03 253.636Z" fill="url(#paint6_linear_419_89)"/>
<path fill-rule="evenodd" clip-rule="evenodd" d="M145.917 235.878L139.167 256.648H134.825L128.075 235.878H131.205L132.743 240.566H141.267L142.787 235.878H145.917ZM137.03 253.636L133.67 243.393H140.351L137.03 253.636Z" fill="url(#paint7_linear_419_89)"/>
<path d="M140.297 210.638H133.703C135.636 211.244 136.356 213.586 136.328 215.2C131.02 212.071 124.49 216.844 131.204 223.396C134.057 226.296 135.795 228.545 136.654 229.657L136.655 229.659L136.668 229.676C136.802 229.849 136.915 229.994 137.006 230.109C137.104 229.986 137.226 229.828 137.373 229.637C138.235 228.518 139.96 226.279 142.797 223.396C149.51 216.844 142.981 212.071 137.673 215.2C137.644 213.586 138.364 211.244 140.297 210.638Z" fill="url(#paint8_linear_419_89)"/>
<path d="M140.297 210.638H133.703C135.636 211.244 136.356 213.586 136.328 215.2C131.02 212.071 124.49 216.844 131.204 223.396C134.057 226.296 135.795 228.545 136.654 229.657L136.655 229.659L136.668 229.676C136.802 229.849 136.915 229.994 137.006 230.109C137.104 229.986 137.226 229.828 137.373 229.637C138.235 228.518 139.96 226.279 142.797 223.396C149.51 216.844 142.981 212.071 137.673 215.2C137.644 213.586 138.364 211.244 140.297 210.638Z" fill="url(#paint9_linear_419_89)"/>
<path fill-rule="evenodd" clip-rule="evenodd" d="M0.845726 6.19111C0.845726 3.00486 3.42866 0.421884 6.61496 0.421884L152 0.421875C155.186 0.421875 157.769 3.00485 157.769 6.19111L157.769 266.528C157.769 269.714 155.186 272.297 152 272.297H6.61493C3.42872 272.297 0.845703 269.714 0.845703 266.528L0.845726 6.19111ZM6.61496 1.14304L152 1.14303C154.788 1.14303 157.048 3.40313 157.048 6.19111L157.048 266.528C157.048 269.316 154.788 271.576 152 271.576H6.61493C3.82698 271.576 1.56686 269.316 1.56686 266.528L1.56688 6.19111C1.56688 3.40314 3.827 1.14304 6.61496 1.14304Z" fill="url(#paint10_linear_419_89)"/>
<path fill-rule="evenodd" clip-rule="evenodd" d="M0.845726 6.19111C0.845726 3.00486 3.42866 0.421884 6.61496 0.421884L152 0.421875C155.186 0.421875 157.769 3.00485 157.769 6.19111L157.769 266.528C157.769 269.714 155.186 272.297 152 272.297H6.61493C3.42872 272.297 0.845703 269.714 0.845703 266.528L0.845726 6.19111ZM6.61496 1.14304L152 1.14303C154.788 1.14303 157.048 3.40313 157.048 6.19111L157.048 266.528C157.048 269.316 154.788 271.576 152 271.576H6.61493C3.82698 271.576 1.56686 269.316 1.56686 266.528L1.56688 6.19111C1.56688 3.40314 3.827 1.14304 6.61496 1.14304Z" fill="url(#paint11_linear_419_89)"/>
<defs>
<linearGradient id="paint0_linear_419_89" x1="66.9296" y1="297.785" x2="-29.1641" y2="118.31" gradientUnits="userSpaceOnUse">
<stop stop-color="#EBC367"/>
<stop offset="0.206588" stop-color="#FDB242"/>
<stop offset="0.589636" stop-color="#D1891E"/>
<stop offset="0.694186" stop-color="#E1A03F"/>
<stop offset="0.697522" stop-color="#FFDDA9"/>
<stop offset="0.911458" stop-color="#F1BD57"/>
</linearGradient>
<linearGradient id="paint1_linear_419_89" x1="144.132" y1="46.3009" x2="9.09981" y2="49.0396" gradientUnits="userSpaceOnUse">
<stop stop-color="#E6C365" stop-opacity="0"/>
<stop offset="1" stop-color="#E6C365" stop-opacity="0.3"/>
</linearGradient>
<linearGradient id="paint2_linear_419_89" x1="66.9296" y1="297.785" x2="-29.1641" y2="118.31" gradientUnits="userSpaceOnUse">
<stop stop-color="#EBC367"/>
<stop offset="0.206588" stop-color="#FDB242"/>
<stop offset="0.589636" stop-color="#D1891E"/>
<stop offset="0.694186" stop-color="#E1A03F"/>
<stop offset="0.697522" stop-color="#FFDDA9"/>
<stop offset="0.911458" stop-color="#F1BD57"/>
</linearGradient>
<linearGradient id="paint3_linear_419_89" x1="144.132" y1="46.3009" x2="9.09981" y2="49.0396" gradientUnits="userSpaceOnUse">
<stop stop-color="#E6C365" stop-opacity="0"/>
<stop offset="1" stop-color="#E6C365" stop-opacity="0.3"/>
</linearGradient>
<linearGradient id="paint4_linear_419_89" x1="66.9296" y1="297.785" x2="-29.1641" y2="118.31" gradientUnits="userSpaceOnUse">
<stop stop-color="#EBC367"/>
<stop offset="0.206588" stop-color="#FDB242"/>
<stop offset="0.589636" stop-color="#D1891E"/>
<stop offset="0.694186" stop-color="#E1A03F"/>
<stop offset="0.697522" stop-color="#FFDDA9"/>
<stop offset="0.911458" stop-color="#F1BD57"/>
</linearGradient>
<linearGradient id="paint5_linear_419_89" x1="144.132" y1="46.3009" x2="9.09981" y2="49.0396" gradientUnits="userSpaceOnUse">
<stop stop-color="#E6C365" stop-opacity="0"/>
<stop offset="1" stop-color="#E6C365" stop-opacity="0.3"/>
</linearGradient>
<linearGradient id="paint6_linear_419_89" x1="66.9296" y1="297.785" x2="-29.1641" y2="118.31" gradientUnits="userSpaceOnUse">
<stop stop-color="#EBC367"/>
<stop offset="0.206588" stop-color="#FDB242"/>
<stop offset="0.589636" stop-color="#D1891E"/>
<stop offset="0.694186" stop-color="#E1A03F"/>
<stop offset="0.697522" stop-color="#FFDDA9"/>
<stop offset="0.911458" stop-color="#F1BD57"/>
</linearGradient>
<linearGradient id="paint7_linear_419_89" x1="144.132" y1="46.3009" x2="9.09981" y2="49.0396" gradientUnits="userSpaceOnUse">
<stop stop-color="#E6C365" stop-opacity="0"/>
<stop offset="1" stop-color="#E6C365" stop-opacity="0.3"/>
</linearGradient>
<linearGradient id="paint8_linear_419_89" x1="66.9296" y1="297.785" x2="-29.1641" y2="118.31" gradientUnits="userSpaceOnUse">
<stop stop-color="#EBC367"/>
<stop offset="0.206588" stop-color="#FDB242"/>
<stop offset="0.589636" stop-color="#D1891E"/>
<stop offset="0.694186" stop-color="#E1A03F"/>
<stop offset="0.697522" stop-color="#FFDDA9"/>
<stop offset="0.911458" stop-color="#F1BD57"/>
</linearGradient>
<linearGradient id="paint9_linear_419_89" x1="144.132" y1="46.3009" x2="9.09981" y2="49.0396" gradientUnits="userSpaceOnUse">
<stop stop-color="#E6C365" stop-opacity="0"/>
<stop offset="1" stop-color="#E6C365" stop-opacity="0.3"/>
</linearGradient>
<linearGradient id="paint10_linear_419_89" x1="66.9296" y1="297.785" x2="-29.1641" y2="118.31" gradientUnits="userSpaceOnUse">
<stop stop-color="#EBC367"/>
<stop offset="0.206588" stop-color="#FDB242"/>
<stop offset="0.589636" stop-color="#D1891E"/>
<stop offset="0.694186" stop-color="#E1A03F"/>
<stop offset="0.697522" stop-color="#FFDDA9"/>
<stop offset="0.911458" stop-color="#F1BD57"/>
</linearGradient>
<linearGradient id="paint11_linear_419_89" x1="144.132" y1="46.3009" x2="9.09981" y2="49.0396" gradientUnits="userSpaceOnUse">
<stop stop-color="#E6C365" stop-opacity="0"/>
<stop offset="1" stop-color="#E6C365" stop-opacity="0.3"/>
</linearGradient>
</defs>
</svg>
