<svg width="158" height="273" viewBox="0 0 158 273" fill="none" xmlns="http://www.w3.org/2000/svg">
<path d="M79.1535 105.624C83.9135 99.7406 91.1877 95.9748 99.3458 95.9747C113.684 95.9748 125.307 107.599 125.307 121.936C125.307 139.204 110.012 151.323 95.1551 163.094C89.4617 167.605 83.8326 172.065 79.1535 176.744C74.4743 172.065 68.8452 167.605 63.1518 163.094C48.2949 151.322 32.9997 139.204 32.9997 121.936C32.9997 107.599 44.6234 95.9748 58.9612 95.9748C67.1193 95.9748 74.3935 99.7406 79.1535 105.624Z" fill="url(#paint0_linear_419_93)"/>
<path d="M79.1535 105.624C83.9135 99.7406 91.1877 95.9748 99.3458 95.9747C113.684 95.9748 125.307 107.599 125.307 121.936C125.307 139.204 110.012 151.323 95.1551 163.094C89.4617 167.605 83.8326 172.065 79.1535 176.744C74.4743 172.065 68.8452 167.605 63.1518 163.094C48.2949 151.322 32.9997 139.204 32.9997 121.936C32.9997 107.599 44.6234 95.9748 58.9612 95.9748C67.1193 95.9748 74.3935 99.7406 79.1535 105.624Z" fill="url(#paint1_linear_419_93)"/>
<path fill-rule="evenodd" clip-rule="evenodd" d="M12.5447 36.8403L19.2947 16.0711L23.636 16.0711L30.386 36.8403L27.2562 36.8403L25.7187 32.1528H17.1941L15.6745 36.8403H12.5447ZM21.4315 19.0825L24.7914 29.3259H18.1106L21.4315 19.0825Z" fill="url(#paint2_linear_419_93)"/>
<path fill-rule="evenodd" clip-rule="evenodd" d="M12.5447 36.8403L19.2947 16.0711L23.636 16.0711L30.386 36.8403L27.2562 36.8403L25.7187 32.1528H17.1941L15.6745 36.8403H12.5447ZM21.4315 19.0825L24.7914 29.3259H18.1106L21.4315 19.0825Z" fill="url(#paint3_linear_419_93)"/>
<path d="M21.4612 45.861C22.3537 44.7578 23.7176 44.0517 25.2473 44.0517C27.9356 44.0517 30.115 46.2312 30.115 48.9195C30.115 52.1571 27.2472 54.4294 24.4615 56.6365C23.394 57.4823 22.3385 58.3186 21.4612 59.1959C20.5839 58.3186 19.5284 57.4823 18.4609 56.6365C15.6752 54.4294 12.8074 52.1571 12.8074 48.9195C12.8074 46.2312 14.9868 44.0517 17.6751 44.0517C19.2048 44.0517 20.5687 44.7578 21.4612 45.861Z" fill="url(#paint4_linear_419_93)"/>
<path d="M21.4612 45.861C22.3537 44.7578 23.7176 44.0517 25.2473 44.0517C27.9356 44.0517 30.115 46.2312 30.115 48.9195C30.115 52.1571 27.2472 54.4294 24.4615 56.6365C23.394 57.4823 22.3385 58.3186 21.4612 59.1959C20.5839 58.3186 19.5284 57.4823 18.4609 56.6365C15.6752 54.4294 12.8074 52.1571 12.8074 48.9195C12.8074 46.2312 14.9868 44.0517 17.6751 44.0517C19.2048 44.0517 20.5687 44.7578 21.4612 45.861Z" fill="url(#paint5_linear_419_93)"/>
<path fill-rule="evenodd" clip-rule="evenodd" d="M145.762 235.878L139.012 256.648H134.671L127.921 235.878H131.051L132.588 240.566H141.113L142.633 235.878H145.762ZM136.875 253.636L133.516 243.393H140.196L136.875 253.636Z" fill="url(#paint6_linear_419_93)"/>
<path fill-rule="evenodd" clip-rule="evenodd" d="M145.762 235.878L139.012 256.648H134.671L127.921 235.878H131.051L132.588 240.566H141.113L142.633 235.878H145.762ZM136.875 253.636L133.516 243.393H140.196L136.875 253.636Z" fill="url(#paint7_linear_419_93)"/>
<path d="M136.846 226.858C135.953 227.961 134.589 228.667 133.06 228.667C130.371 228.667 128.192 226.488 128.192 223.799C128.192 220.562 131.06 218.289 133.846 216.082C134.913 215.236 135.968 214.4 136.846 213.523C137.723 214.4 138.779 215.236 139.846 216.082C142.632 218.289 145.5 220.562 145.5 223.799C145.5 226.488 143.32 228.667 140.632 228.667C139.102 228.667 137.738 227.961 136.846 226.858Z" fill="url(#paint8_linear_419_93)"/>
<path d="M136.846 226.858C135.953 227.961 134.589 228.667 133.06 228.667C130.371 228.667 128.192 226.488 128.192 223.799C128.192 220.562 131.06 218.289 133.846 216.082C134.913 215.236 135.968 214.4 136.846 213.523C137.723 214.4 138.779 215.236 139.846 216.082C142.632 218.289 145.5 220.562 145.5 223.799C145.5 226.488 143.32 228.667 140.632 228.667C139.102 228.667 137.738 227.961 136.846 226.858Z" fill="url(#paint9_linear_419_93)"/>
<path fill-rule="evenodd" clip-rule="evenodd" d="M6.46064 0.421884C3.27438 0.421884 0.691407 3.00486 0.691406 6.19111V266.528C0.691406 269.714 3.27438 272.297 6.46064 272.297H151.845C155.031 272.297 157.614 269.714 157.614 266.528V6.19111C157.614 3.00485 155.031 0.421875 151.845 0.421875L6.46064 0.421884ZM151.845 1.14303L6.46064 1.14304C3.67266 1.14304 1.41256 3.40314 1.41256 6.19111V266.528C1.41256 269.316 3.67266 271.576 6.46064 271.576H151.845C154.633 271.576 156.893 269.316 156.893 266.528V6.19111C156.893 3.40313 154.633 1.14303 151.845 1.14303Z" fill="url(#paint10_linear_419_93)"/>
<path fill-rule="evenodd" clip-rule="evenodd" d="M6.46064 0.421884C3.27438 0.421884 0.691407 3.00486 0.691406 6.19111V266.528C0.691406 269.714 3.27438 272.297 6.46064 272.297H151.845C155.031 272.297 157.614 269.714 157.614 266.528V6.19111C157.614 3.00485 155.031 0.421875 151.845 0.421875L6.46064 0.421884ZM151.845 1.14303L6.46064 1.14304C3.67266 1.14304 1.41256 3.40314 1.41256 6.19111V266.528C1.41256 269.316 3.67266 271.576 6.46064 271.576H151.845C154.633 271.576 156.893 269.316 156.893 266.528V6.19111C156.893 3.40313 154.633 1.14303 151.845 1.14303Z" fill="url(#paint11_linear_419_93)"/>
<defs>
<linearGradient id="paint0_linear_419_93" x1="66.7753" y1="297.785" x2="-29.3184" y2="118.31" gradientUnits="userSpaceOnUse">
<stop stop-color="#EBC367"/>
<stop offset="0.206588" stop-color="#FDB242"/>
<stop offset="0.589636" stop-color="#D1891E"/>
<stop offset="0.694186" stop-color="#E1A03F"/>
<stop offset="0.697522" stop-color="#FFDDA9"/>
<stop offset="0.911458" stop-color="#F1BD57"/>
</linearGradient>
<linearGradient id="paint1_linear_419_93" x1="143.978" y1="46.3009" x2="8.9455" y2="49.0396" gradientUnits="userSpaceOnUse">
<stop stop-color="#E6C365" stop-opacity="0"/>
<stop offset="1" stop-color="#E6C365" stop-opacity="0.3"/>
</linearGradient>
<linearGradient id="paint2_linear_419_93" x1="66.7753" y1="297.785" x2="-29.3184" y2="118.31" gradientUnits="userSpaceOnUse">
<stop stop-color="#EBC367"/>
<stop offset="0.206588" stop-color="#FDB242"/>
<stop offset="0.589636" stop-color="#D1891E"/>
<stop offset="0.694186" stop-color="#E1A03F"/>
<stop offset="0.697522" stop-color="#FFDDA9"/>
<stop offset="0.911458" stop-color="#F1BD57"/>
</linearGradient>
<linearGradient id="paint3_linear_419_93" x1="143.978" y1="46.3009" x2="8.9455" y2="49.0396" gradientUnits="userSpaceOnUse">
<stop stop-color="#E6C365" stop-opacity="0"/>
<stop offset="1" stop-color="#E6C365" stop-opacity="0.3"/>
</linearGradient>
<linearGradient id="paint4_linear_419_93" x1="66.7753" y1="297.785" x2="-29.3184" y2="118.31" gradientUnits="userSpaceOnUse">
<stop stop-color="#EBC367"/>
<stop offset="0.206588" stop-color="#FDB242"/>
<stop offset="0.589636" stop-color="#D1891E"/>
<stop offset="0.694186" stop-color="#E1A03F"/>
<stop offset="0.697522" stop-color="#FFDDA9"/>
<stop offset="0.911458" stop-color="#F1BD57"/>
</linearGradient>
<linearGradient id="paint5_linear_419_93" x1="143.978" y1="46.3009" x2="8.9455" y2="49.0396" gradientUnits="userSpaceOnUse">
<stop stop-color="#E6C365" stop-opacity="0"/>
<stop offset="1" stop-color="#E6C365" stop-opacity="0.3"/>
</linearGradient>
<linearGradient id="paint6_linear_419_93" x1="66.7753" y1="297.785" x2="-29.3184" y2="118.31" gradientUnits="userSpaceOnUse">
<stop stop-color="#EBC367"/>
<stop offset="0.206588" stop-color="#FDB242"/>
<stop offset="0.589636" stop-color="#D1891E"/>
<stop offset="0.694186" stop-color="#E1A03F"/>
<stop offset="0.697522" stop-color="#FFDDA9"/>
<stop offset="0.911458" stop-color="#F1BD57"/>
</linearGradient>
<linearGradient id="paint7_linear_419_93" x1="143.978" y1="46.3009" x2="8.9455" y2="49.0396" gradientUnits="userSpaceOnUse">
<stop stop-color="#E6C365" stop-opacity="0"/>
<stop offset="1" stop-color="#E6C365" stop-opacity="0.3"/>
</linearGradient>
<linearGradient id="paint8_linear_419_93" x1="66.7753" y1="297.785" x2="-29.3184" y2="118.31" gradientUnits="userSpaceOnUse">
<stop stop-color="#EBC367"/>
<stop offset="0.206588" stop-color="#FDB242"/>
<stop offset="0.589636" stop-color="#D1891E"/>
<stop offset="0.694186" stop-color="#E1A03F"/>
<stop offset="0.697522" stop-color="#FFDDA9"/>
<stop offset="0.911458" stop-color="#F1BD57"/>
</linearGradient>
<linearGradient id="paint9_linear_419_93" x1="143.978" y1="46.3009" x2="8.9455" y2="49.0396" gradientUnits="userSpaceOnUse">
<stop stop-color="#E6C365" stop-opacity="0"/>
<stop offset="1" stop-color="#E6C365" stop-opacity="0.3"/>
</linearGradient>
<linearGradient id="paint10_linear_419_93" x1="66.7753" y1="297.785" x2="-29.3184" y2="118.31" gradientUnits="userSpaceOnUse">
<stop stop-color="#EBC367"/>
<stop offset="0.206588" stop-color="#FDB242"/>
<stop offset="0.589636" stop-color="#D1891E"/>
<stop offset="0.694186" stop-color="#E1A03F"/>
<stop offset="0.697522" stop-color="#FFDDA9"/>
<stop offset="0.911458" stop-color="#F1BD57"/>
</linearGradient>
<linearGradient id="paint11_linear_419_93" x1="143.978" y1="46.3009" x2="8.9455" y2="49.0396" gradientUnits="userSpaceOnUse">
<stop stop-color="#E6C365" stop-opacity="0"/>
<stop offset="1" stop-color="#E6C365" stop-opacity="0.3"/>
</linearGradient>
</defs>
</svg>
