<svg width="550" height="36" viewBox="0 0 550 36" fill="none" xmlns="http://www.w3.org/2000/svg">
<path d="M251.055 2.6C251.695 2.6 252.122 2.73333 252.335 3C252.549 3.24 252.602 3.66666 252.495 4.28L251.855 7.88C251.749 8.52 251.535 8.97333 251.215 9.24C250.922 9.48 250.469 9.6 249.855 9.6H239.295L238.655 13.16H247.095C247.735 13.16 248.149 13.2933 248.335 13.56C248.549 13.8 248.602 14.2267 248.495 14.84L247.855 18.44C247.722 19.08 247.509 19.5333 247.215 19.8C246.949 20.04 246.495 20.16 245.855 20.16H237.415L236.735 24H247.655C248.269 24 248.669 24.12 248.855 24.36C249.069 24.6 249.122 25.04 249.015 25.68L248.375 29.32C248.269 29.9333 248.069 30.3733 247.775 30.64C247.482 30.88 247.015 31 246.375 31H229.295C228.655 31 228.229 30.88 228.015 30.64C227.802 30.3733 227.762 29.9333 227.895 29.32L232.295 4.28C232.429 3.66666 232.629 3.24 232.895 3C233.189 2.73333 233.655 2.6 234.295 2.6H251.055ZM279.091 2.6C279.651 2.6 279.971 2.76 280.051 3.08C280.131 3.4 279.984 3.77333 279.611 4.2L269.491 16.52L275.611 29.32C275.851 29.7467 275.864 30.1333 275.651 30.48C275.438 30.8267 275.038 31 274.451 31H269.371C268.304 31 267.584 30.92 267.211 30.76C266.864 30.6 266.558 30.1867 266.291 29.52L263.651 22.96L258.851 29.52C258.371 30.16 257.918 30.5733 257.491 30.76C257.064 30.92 256.318 31 255.251 31H250.291C249.678 31 249.331 30.84 249.251 30.52C249.144 30.2 249.304 29.8 249.731 29.32L260.211 16.52L254.531 4.2C254.318 3.77333 254.304 3.4 254.491 3.08C254.704 2.76 255.078 2.6 255.611 2.6H260.371C261.411 2.6 262.118 2.68 262.491 2.84C262.864 3 263.184 3.38667 263.451 4L265.971 10.16L270.611 4C271.091 3.36 271.518 2.97333 271.891 2.84C272.291 2.68 272.971 2.6 273.931 2.6H279.091ZM301.055 2.6C301.695 2.6 302.122 2.73333 302.335 3C302.549 3.24 302.602 3.66666 302.495 4.28L301.855 7.88C301.749 8.52 301.535 8.97333 301.215 9.24C300.922 9.48 300.469 9.6 299.855 9.6H289.295L288.655 13.16H297.095C297.735 13.16 298.149 13.2933 298.335 13.56C298.549 13.8 298.602 14.2267 298.495 14.84L297.855 18.44C297.722 19.08 297.509 19.5333 297.215 19.8C296.949 20.04 296.495 20.16 295.855 20.16H287.415L286.735 24H297.655C298.269 24 298.669 24.12 298.855 24.36C299.069 24.6 299.122 25.04 299.015 25.68L298.375 29.32C298.269 29.9333 298.069 30.3733 297.775 30.64C297.482 30.88 297.015 31 296.375 31H279.295C278.655 31 278.229 30.88 278.015 30.64C277.802 30.3733 277.762 29.9333 277.895 29.32L282.295 4.28C282.429 3.66666 282.629 3.24 282.895 3C283.189 2.73333 283.655 2.6 284.295 2.6H301.055ZM303.457 12.64C304.043 9.2 305.55 6.57333 307.977 4.76C310.43 2.92 313.63 2 317.577 2C323.337 2 326.657 4.37333 327.537 9.12C327.67 9.70667 327.63 10.1733 327.417 10.52C327.23 10.84 326.817 11.0933 326.177 11.28L322.057 12.68C321.417 12.8667 320.95 12.8933 320.657 12.76C320.39 12.6 320.19 12.2133 320.057 11.6C319.87 10.6933 319.497 10.04 318.937 9.64C318.377 9.21333 317.537 9 316.417 9C314.87 9 313.683 9.34667 312.857 10.04C312.057 10.7067 311.537 11.7467 311.297 13.16L309.977 20.44C309.737 21.8533 309.897 22.9067 310.457 23.6C311.043 24.2667 312.11 24.6 313.657 24.6C315.763 24.6 317.297 23.7333 318.257 22C318.63 21.36 318.977 20.9733 319.297 20.84C319.617 20.68 320.057 20.7067 320.617 20.92L324.777 22.52C325.817 22.8933 326.043 23.6133 325.457 24.68C322.95 29.2933 318.643 31.6 312.537 31.6C308.67 31.6 305.817 30.5467 303.977 28.44C302.163 26.3333 301.55 23.5333 302.137 20.04L303.457 12.64ZM336.195 20.92C335.768 23.3733 336.942 24.6 339.715 24.6C342.462 24.6 344.048 23.3733 344.475 20.92L347.435 4.28C347.542 3.66666 347.742 3.24 348.035 3C348.328 2.73333 348.782 2.6 349.395 2.6H353.955C354.568 2.6 354.982 2.73333 355.195 3C355.408 3.24 355.462 3.66666 355.355 4.28L352.355 21.2C351.742 24.5867 350.275 27.1733 347.955 28.96C345.662 30.72 342.555 31.6 338.635 31.6C334.768 31.6 331.955 30.52 330.195 28.36C328.435 26.1733 327.862 23.3467 328.475 19.88L331.235 4.28C331.368 3.66666 331.568 3.24 331.835 3C332.128 2.73333 332.595 2.6 333.235 2.6H337.755C338.395 2.6 338.822 2.73333 339.035 3C339.248 3.24 339.288 3.66666 339.155 4.28L336.195 20.92ZM379.37 2.6C380.01 2.6 380.437 2.73333 380.65 3C380.864 3.24 380.904 3.66666 380.77 4.28L380.13 7.88C380.024 8.52 379.824 8.97333 379.53 9.24C379.237 9.48 378.77 9.6 378.13 9.6H372.21L368.73 29.32C368.597 29.9333 368.384 30.3733 368.09 30.64C367.824 30.88 367.37 31 366.73 31H362.21C361.57 31 361.144 30.88 360.93 30.64C360.717 30.3733 360.677 29.9333 360.81 29.32L364.29 9.6H358.33C357.69 9.6 357.264 9.48 357.05 9.24C356.864 8.97333 356.824 8.52 356.93 7.88L357.57 4.28C357.704 3.66666 357.904 3.24 358.17 3C358.464 2.73333 358.93 2.6 359.57 2.6H379.37ZM383.273 4.2C383.406 3.58667 383.606 3.17333 383.873 2.96C384.139 2.72 384.566 2.6 385.153 2.6H389.873C390.486 2.6 390.886 2.72 391.073 2.96C391.259 3.2 391.299 3.61333 391.193 4.2L386.753 29.4C386.646 29.9867 386.459 30.4 386.193 30.64C385.926 30.88 385.486 31 384.873 31H380.153C379.566 31 379.166 30.8933 378.953 30.68C378.766 30.44 378.726 30.0133 378.833 29.4L383.273 4.2ZM419.425 2.6C420.572 2.6 420.838 3.14667 420.225 4.24L406.945 29.6C406.652 30.16 406.345 30.5333 406.025 30.72C405.705 30.9067 405.238 31 404.625 31H399.585C398.998 31 398.572 30.9067 398.305 30.72C398.038 30.5333 397.852 30.1867 397.745 29.68L393.385 4.24C393.172 3.14667 393.652 2.6 394.825 2.6H399.305C400.265 2.6 400.932 2.72 401.305 2.96C401.678 3.2 401.892 3.64 401.945 4.28L403.345 17.96C403.425 18.6533 403.465 19.44 403.465 20.32C403.465 21.1733 403.452 21.8533 403.425 22.36L403.345 23.12H403.705C404.105 21.28 404.665 19.5733 405.385 18L411.665 4.28C411.958 3.64 412.305 3.2 412.705 2.96C413.132 2.72 413.825 2.6 414.785 2.6H419.425ZM441.173 2.6C441.813 2.6 442.239 2.73333 442.453 3C442.666 3.24 442.719 3.66666 442.613 4.28L441.973 7.88C441.866 8.52 441.653 8.97333 441.332 9.24C441.039 9.48 440.586 9.6 439.973 9.6H429.413L428.773 13.16H437.213C437.853 13.16 438.266 13.2933 438.453 13.56C438.666 13.8 438.719 14.2267 438.613 14.84L437.973 18.44C437.839 19.08 437.626 19.5333 437.333 19.8C437.066 20.04 436.613 20.16 435.973 20.16H427.533L426.853 24H437.773C438.386 24 438.786 24.12 438.973 24.36C439.186 24.6 439.239 25.04 439.133 25.68L438.493 29.32C438.386 29.9333 438.186 30.3733 437.893 30.64C437.599 30.88 437.133 31 436.493 31H419.413C418.773 31 418.346 30.88 418.133 30.64C417.919 30.3733 417.879 29.9333 418.013 29.32L422.413 4.28C422.546 3.66666 422.746 3.24 423.013 3C423.306 2.73333 423.773 2.6 424.413 2.6H441.173ZM451.074 12.64C451.66 9.2 453.167 6.57333 455.594 4.76C458.047 2.92 461.247 2 465.194 2C470.954 2 474.274 4.37333 475.154 9.12C475.287 9.70667 475.247 10.1733 475.034 10.52C474.847 10.84 474.434 11.0933 473.794 11.28L469.674 12.68C469.034 12.8667 468.567 12.8933 468.274 12.76C468.007 12.6 467.807 12.2133 467.674 11.6C467.487 10.6933 467.114 10.04 466.554 9.64C465.994 9.21333 465.154 9 464.034 9C462.487 9 461.3 9.34667 460.474 10.04C459.674 10.7067 459.154 11.7467 458.914 13.16L457.594 20.44C457.354 21.8533 457.514 22.9067 458.074 23.6C458.66 24.2667 459.727 24.6 461.274 24.6C463.38 24.6 464.914 23.7333 465.874 22C466.247 21.36 466.594 20.9733 466.914 20.84C467.234 20.68 467.674 20.7067 468.234 20.92L472.394 22.52C473.434 22.8933 473.66 23.6133 473.074 24.68C470.567 29.2933 466.26 31.6 460.154 31.6C456.287 31.6 453.434 30.5467 451.594 28.44C449.78 26.3333 449.167 23.5333 449.754 20.04L451.074 12.64ZM485.612 2.6C486.252 2.6 486.679 2.73333 486.892 3C487.106 3.24 487.159 3.66666 487.052 4.28L483.572 24H493.172C493.812 24 494.226 24.12 494.412 24.36C494.626 24.6 494.679 25.04 494.572 25.68L493.932 29.32C493.799 29.9333 493.586 30.3733 493.292 30.64C493.026 30.88 492.572 31 491.932 31H476.092C475.452 31 475.026 30.88 474.812 30.64C474.626 30.3733 474.586 29.9333 474.692 29.32L479.132 4.28C479.239 3.66666 479.426 3.24 479.692 3C479.986 2.73333 480.452 2.6 481.092 2.6H485.612ZM504.633 20.92C504.206 23.3733 505.379 24.6 508.153 24.6C510.899 24.6 512.486 23.3733 512.913 20.92L515.872 4.28C515.979 3.66666 516.179 3.24 516.473 3C516.766 2.73333 517.219 2.6 517.833 2.6H522.393C523.006 2.6 523.419 2.73333 523.633 3C523.846 3.24 523.899 3.66666 523.793 4.28L520.793 21.2C520.179 24.5867 518.713 27.1733 516.393 28.96C514.099 30.72 510.993 31.6 507.072 31.6C503.206 31.6 500.393 30.52 498.633 28.36C496.873 26.1733 496.299 23.3467 496.913 19.88L499.673 4.28C499.806 3.66666 500.006 3.24 500.273 3C500.566 2.73333 501.033 2.6 501.673 2.6H506.193C506.833 2.6 507.259 2.73333 507.473 3C507.686 3.24 507.726 3.66666 507.593 4.28L504.633 20.92ZM541.328 2.56C544.074 2.56 546.114 3.28 547.448 4.72C548.808 6.13333 549.274 8.04 548.848 10.44C548.581 11.7733 548.141 12.8667 547.528 13.72C546.941 14.5467 546.074 15.32 544.928 16.04L544.888 16.2C547.341 17.3733 548.261 19.7733 547.648 23.4C547.194 25.9067 545.968 27.8 543.968 29.08C541.994 30.36 539.541 31 536.608 31H524.608C523.968 31 523.541 30.88 523.328 30.64C523.114 30.3733 523.074 29.9333 523.208 29.32L527.608 4.28C527.741 3.64 527.941 3.2 528.208 2.96C528.501 2.69333 528.968 2.56 529.608 2.56H541.328ZM540.608 11.24C540.874 9.74667 540.181 9 538.528 9H534.688L533.928 13.4H537.768C539.394 13.4 540.341 12.68 540.608 11.24ZM539.568 22.16C539.888 20.6133 539.168 19.84 537.408 19.84H532.808L531.968 24.52H536.608C538.314 24.52 539.301 23.7333 539.568 22.16Z" fill="white"/>
<path d="M252.335 3L252.238 3.07819L252.242 3.08304L252.335 3ZM252.495 4.28L252.618 4.30188L252.618 4.30142L252.495 4.28ZM251.855 7.88L251.732 7.85812L251.732 7.85945L251.855 7.88ZM251.215 9.24L251.294 9.33675L251.295 9.33603L251.215 9.24ZM239.295 9.6V9.475H239.191L239.172 9.57788L239.295 9.6ZM238.655 13.16L238.532 13.1379L238.506 13.285H238.655V13.16ZM248.335 13.56L248.233 13.6317L248.237 13.6376L248.242 13.643L248.335 13.56ZM248.495 14.84L248.618 14.8619L248.618 14.8614L248.495 14.84ZM247.855 18.44L247.978 18.4655L247.978 18.4619L247.855 18.44ZM247.215 19.8L247.299 19.8929L247.299 19.8925L247.215 19.8ZM237.415 20.16V20.035H237.311L237.292 20.1382L237.415 20.16ZM236.735 24L236.612 23.9782L236.586 24.125H236.735V24ZM248.855 24.36L248.756 24.4369L248.762 24.443L248.855 24.36ZM249.015 25.68L249.138 25.7016L249.139 25.7005L249.015 25.68ZM248.375 29.32L248.252 29.2984L248.252 29.2986L248.375 29.32ZM247.775 30.64L247.855 30.7369L247.859 30.7325L247.775 30.64ZM228.015 30.64L227.918 30.7182L227.922 30.723L228.015 30.64ZM227.895 29.32L228.018 29.3466L228.018 29.3416L227.895 29.32ZM232.295 4.28L232.173 4.25342L232.172 4.25836L232.295 4.28ZM232.895 3L232.979 3.09291L232.979 3.09249L232.895 3ZM251.055 2.725C251.688 2.725 252.062 2.8588 252.238 3.07809L252.433 2.92191C252.182 2.60787 251.702 2.475 251.055 2.475V2.725ZM252.242 3.08304C252.414 3.27685 252.478 3.65061 252.372 4.25858L252.618 4.30142C252.726 3.68272 252.683 3.20314 252.429 2.91695L252.242 3.08304ZM252.372 4.25812L251.732 7.85812L251.978 7.90188L252.618 4.30188L252.372 4.25812ZM251.732 7.85945C251.628 8.48561 251.422 8.90465 251.135 9.14397L251.295 9.33603C251.648 9.04201 251.87 8.55439 251.979 7.90055L251.732 7.85945ZM251.136 9.14325C250.875 9.35668 250.456 9.475 249.855 9.475V9.725C250.481 9.725 250.969 9.60332 251.294 9.33674L251.136 9.14325ZM249.855 9.475H239.295V9.725H249.855V9.475ZM239.172 9.57788L238.532 13.1379L238.778 13.1821L239.418 9.62212L239.172 9.57788ZM238.655 13.285H247.095V13.035H238.655V13.285ZM247.095 13.285C247.731 13.285 248.085 13.42 248.233 13.6317L248.438 13.4883C248.213 13.1667 247.74 13.035 247.095 13.035V13.285ZM248.242 13.643C248.414 13.8369 248.478 14.2106 248.372 14.8186L248.618 14.8614C248.726 14.2427 248.683 13.7631 248.429 13.477L248.242 13.643ZM248.372 14.8181L247.732 18.4181L247.978 18.4619L248.618 14.8619L248.372 14.8181ZM247.733 18.4145C247.602 19.044 247.396 19.4668 247.131 19.7075L247.299 19.8925C247.621 19.5999 247.842 19.116 247.978 18.4655L247.733 18.4145ZM247.132 19.7071C246.9 19.9154 246.486 20.035 245.855 20.035V20.285C246.504 20.285 246.997 20.1646 247.299 19.8929L247.132 19.7071ZM245.855 20.035H237.415V20.285H245.855V20.035ZM237.292 20.1382L236.612 23.9782L236.858 24.0218L237.538 20.1818L237.292 20.1382ZM236.735 24.125H247.655V23.875H236.735V24.125ZM247.655 24.125C247.955 24.125 248.195 24.1544 248.379 24.2097C248.564 24.265 248.684 24.3436 248.757 24.4367L248.954 24.2833C248.84 24.1364 248.667 24.035 248.451 23.9703C248.236 23.9056 247.969 23.875 247.655 23.875V24.125ZM248.762 24.443C248.846 24.538 248.906 24.681 248.931 24.885C248.956 25.0891 248.944 25.3463 248.892 25.6595L249.139 25.7005C249.193 25.3737 249.208 25.0909 249.179 24.855C249.151 24.619 249.078 24.422 248.949 24.277L248.762 24.443ZM248.892 25.6584L248.252 29.2984L248.498 29.3416L249.138 25.7016L248.892 25.6584ZM248.252 29.2986C248.148 29.8992 247.955 30.3075 247.691 30.5475L247.859 30.7325C248.182 30.4391 248.39 29.9675 248.498 29.3414L248.252 29.2986ZM247.696 30.5433C247.436 30.7561 247.005 30.875 246.375 30.875V31.125C247.026 31.125 247.528 31.0039 247.854 30.7367L247.696 30.5433ZM246.375 30.875H229.295V31.125H246.375V30.875ZM229.295 30.875C228.66 30.875 228.283 30.7535 228.109 30.557L227.922 30.723C228.174 31.0065 228.651 31.125 229.295 31.125V30.875ZM228.113 30.5619C227.937 30.3418 227.886 29.9519 228.017 29.3466L227.773 29.2934C227.638 29.9148 227.667 30.4049 227.918 30.7181L228.113 30.5619ZM228.018 29.3416L232.418 4.30163L232.172 4.25836L227.772 29.2984L228.018 29.3416ZM232.417 4.30655C232.549 3.70181 232.742 3.30651 232.979 3.09291L232.812 2.90709C232.516 3.17348 232.308 3.63152 232.173 4.25344L232.417 4.30655ZM232.979 3.09249C233.239 2.85634 233.668 2.725 234.295 2.725V2.475C233.642 2.475 233.138 2.61032 232.811 2.90751L232.979 3.09249ZM234.295 2.725H251.055V2.475H234.295V2.725ZM280.051 3.08L279.93 3.11032L279.93 3.11032L280.051 3.08ZM279.611 4.2L279.517 4.11765L279.514 4.12066L279.611 4.2ZM269.491 16.52L269.394 16.4407L269.344 16.5021L269.378 16.5739L269.491 16.52ZM275.611 29.32L275.498 29.374L275.502 29.3813L275.611 29.32ZM275.651 30.48L275.544 30.4145L275.544 30.4145L275.651 30.48ZM267.211 30.76L267.159 30.8735L267.162 30.8749L267.211 30.76ZM266.291 29.52L266.407 29.4736L266.407 29.4733L266.291 29.52ZM263.651 22.96L263.767 22.9133L263.683 22.7046L263.55 22.8862L263.651 22.96ZM258.851 29.52L258.951 29.595L258.952 29.5938L258.851 29.52ZM257.491 30.76L257.535 30.8772L257.541 30.8745L257.491 30.76ZM249.251 30.52L249.373 30.4896L249.37 30.4805L249.251 30.52ZM249.731 29.32L249.824 29.4031L249.828 29.3992L249.731 29.32ZM260.211 16.52L260.308 16.5992L260.357 16.5387L260.324 16.4677L260.211 16.52ZM254.531 4.2L254.645 4.14764L254.643 4.1441L254.531 4.2ZM254.491 3.08L254.387 3.01054L254.383 3.01702L254.491 3.08ZM262.491 2.84L262.54 2.7251L262.54 2.7251L262.491 2.84ZM263.451 4L263.567 3.95266L263.566 3.95016L263.451 4ZM265.971 10.16L265.855 10.2073L265.938 10.4108L266.071 10.2352L265.971 10.16ZM270.611 4L270.711 4.07521L270.711 4.075L270.611 4ZM271.891 2.84L271.933 2.9578L271.937 2.95606L271.891 2.84ZM279.091 2.725C279.361 2.725 279.559 2.76402 279.695 2.8318C279.826 2.89705 279.899 2.98897 279.93 3.11032L280.172 3.04968C280.123 2.85103 279.996 2.70295 279.807 2.6082C279.622 2.51598 279.38 2.475 279.091 2.475V2.725ZM279.93 3.11032C279.994 3.36888 279.882 3.6999 279.517 4.11769L279.705 4.28231C280.086 3.84676 280.268 3.43112 280.172 3.04968L279.93 3.11032ZM279.514 4.12066L269.394 16.4407L269.588 16.5993L279.708 4.27934L279.514 4.12066ZM269.378 16.5739L275.498 29.3739L275.724 29.2661L269.604 16.4661L269.378 16.5739ZM275.502 29.3813C275.725 29.7779 275.729 30.115 275.544 30.4145L275.757 30.5455C276 30.1517 275.977 29.7154 275.72 29.2587L275.502 29.3813ZM275.544 30.4145C275.363 30.7093 275.015 30.875 274.451 30.875V31.125C275.06 31.125 275.512 30.944 275.757 30.5455L275.544 30.4145ZM274.451 30.875H269.371V31.125H274.451V30.875ZM269.371 30.875C268.84 30.875 268.399 30.8551 268.045 30.8158C267.689 30.7762 267.43 30.7179 267.26 30.6451L267.162 30.8749C267.365 30.9621 267.653 31.0238 268.017 31.0642C268.383 31.1049 268.835 31.125 269.371 31.125V30.875ZM267.263 30.6465C266.962 30.5076 266.671 30.1338 266.407 29.4736L266.175 29.5664C266.444 30.2396 266.766 30.6924 267.159 30.8735L267.263 30.6465ZM266.407 29.4733L263.767 22.9133L263.535 23.0067L266.175 29.5667L266.407 29.4733ZM263.55 22.8862L258.75 29.4462L258.952 29.5938L263.752 23.0338L263.55 22.8862ZM258.751 29.445C258.276 30.0786 257.838 30.4716 257.441 30.6455L257.541 30.8745C257.997 30.675 258.466 30.2414 258.951 29.595L258.751 29.445ZM257.447 30.643C257.044 30.7942 256.317 30.875 255.251 30.875V31.125C256.318 31.125 257.085 31.0458 257.535 30.877L257.447 30.643ZM255.251 30.875H250.291V31.125H255.251V30.875ZM250.291 30.875C249.993 30.875 249.773 30.8357 249.623 30.7665C249.478 30.6996 249.402 30.6069 249.372 30.4897L249.13 30.5503C249.18 30.7531 249.317 30.9004 249.519 30.9935C249.715 31.0843 249.976 31.125 250.291 31.125V30.875ZM249.37 30.4805C249.286 30.2302 249.401 29.879 249.824 29.403L249.638 29.237C249.207 29.721 249.002 30.1698 249.132 30.5595L249.37 30.4805ZM249.828 29.3992L260.308 16.5992L260.114 16.4408L249.634 29.2408L249.828 29.3992ZM260.324 16.4677L254.644 4.14766L254.417 4.25233L260.097 16.5723L260.324 16.4677ZM254.643 4.1441C254.442 3.74294 254.44 3.41613 254.599 3.14298L254.383 3.01702C254.169 3.38387 254.193 3.80372 254.419 4.2559L254.643 4.1441ZM254.595 3.14934C254.777 2.8766 255.102 2.725 255.611 2.725V2.475C255.053 2.475 254.632 2.6434 254.387 3.01066L254.595 3.14934ZM255.611 2.725H260.371V2.475H255.611V2.725ZM260.371 2.725C260.888 2.725 261.32 2.74491 261.667 2.7842C262.016 2.8237 262.272 2.88199 262.442 2.95489L262.54 2.7251C262.337 2.638 262.053 2.5763 261.695 2.53579C261.335 2.49508 260.894 2.475 260.371 2.475V2.725ZM262.442 2.95489C262.772 3.09635 263.075 3.44793 263.336 4.04984L263.566 3.95016C263.294 3.32541 262.957 2.90365 262.54 2.7251L262.442 2.95489ZM263.335 4.04733L265.855 10.2073L266.087 10.1127L263.567 3.95267L263.335 4.04733ZM266.071 10.2352L270.711 4.07521L270.511 3.92479L265.871 10.0848L266.071 10.2352ZM270.711 4.075C271.189 3.4382 271.596 3.07789 271.933 2.95772L271.849 2.72228C271.439 2.86877 270.993 3.2818 270.511 3.925L270.711 4.075ZM271.937 2.95606C272.313 2.8057 272.972 2.725 273.931 2.725V2.475C272.97 2.475 272.269 2.5543 271.845 2.72394L271.937 2.95606ZM273.931 2.725H279.091V2.475H273.931V2.725ZM302.335 3L302.238 3.07819L302.242 3.08304L302.335 3ZM302.495 4.28L302.618 4.30188L302.618 4.30142L302.495 4.28ZM301.855 7.88L301.732 7.85812L301.732 7.85945L301.855 7.88ZM301.215 9.24L301.294 9.33675L301.295 9.33603L301.215 9.24ZM289.295 9.6V9.475H289.191L289.172 9.57788L289.295 9.6ZM288.655 13.16L288.532 13.1379L288.506 13.285H288.655V13.16ZM298.335 13.56L298.233 13.6317L298.237 13.6376L298.242 13.643L298.335 13.56ZM298.495 14.84L298.618 14.8619L298.618 14.8614L298.495 14.84ZM297.855 18.44L297.978 18.4655L297.978 18.4619L297.855 18.44ZM297.215 19.8L297.299 19.8929L297.299 19.8925L297.215 19.8ZM287.415 20.16V20.035H287.311L287.292 20.1382L287.415 20.16ZM286.735 24L286.612 23.9782L286.586 24.125H286.735V24ZM298.855 24.36L298.756 24.4369L298.762 24.443L298.855 24.36ZM299.015 25.68L299.138 25.7016L299.139 25.7005L299.015 25.68ZM298.375 29.32L298.252 29.2984L298.252 29.2986L298.375 29.32ZM297.775 30.64L297.855 30.7369L297.859 30.7325L297.775 30.64ZM278.015 30.64L277.918 30.7182L277.922 30.723L278.015 30.64ZM277.895 29.32L278.018 29.3466L278.018 29.3416L277.895 29.32ZM282.295 4.28L282.173 4.25342L282.172 4.25836L282.295 4.28ZM282.895 3L282.979 3.09291L282.979 3.09249L282.895 3ZM301.055 2.725C301.688 2.725 302.062 2.8588 302.238 3.07809L302.433 2.92191C302.182 2.60787 301.702 2.475 301.055 2.475V2.725ZM302.242 3.08304C302.414 3.27685 302.478 3.65061 302.372 4.25858L302.618 4.30142C302.726 3.68272 302.683 3.20314 302.429 2.91695L302.242 3.08304ZM302.372 4.25812L301.732 7.85812L301.978 7.90188L302.618 4.30188L302.372 4.25812ZM301.732 7.85945C301.628 8.48561 301.422 8.90465 301.135 9.14397L301.295 9.33603C301.648 9.04201 301.87 8.55439 301.979 7.90055L301.732 7.85945ZM301.136 9.14325C300.875 9.35668 300.456 9.475 299.855 9.475V9.725C300.481 9.725 300.969 9.60332 301.294 9.33674L301.136 9.14325ZM299.855 9.475H289.295V9.725H299.855V9.475ZM289.172 9.57788L288.532 13.1379L288.778 13.1821L289.418 9.62212L289.172 9.57788ZM288.655 13.285H297.095V13.035H288.655V13.285ZM297.095 13.285C297.731 13.285 298.085 13.42 298.233 13.6317L298.438 13.4883C298.213 13.1667 297.74 13.035 297.095 13.035V13.285ZM298.242 13.643C298.414 13.8369 298.478 14.2106 298.372 14.8186L298.618 14.8614C298.726 14.2427 298.683 13.7631 298.429 13.477L298.242 13.643ZM298.372 14.8181L297.732 18.4181L297.978 18.4619L298.618 14.8619L298.372 14.8181ZM297.733 18.4145C297.602 19.044 297.396 19.4668 297.131 19.7075L297.299 19.8925C297.621 19.5999 297.842 19.116 297.978 18.4655L297.733 18.4145ZM297.132 19.7071C296.9 19.9154 296.486 20.035 295.855 20.035V20.285C296.504 20.285 296.997 20.1646 297.299 19.8929L297.132 19.7071ZM295.855 20.035H287.415V20.285H295.855V20.035ZM287.292 20.1382L286.612 23.9782L286.858 24.0218L287.538 20.1818L287.292 20.1382ZM286.735 24.125H297.655V23.875H286.735V24.125ZM297.655 24.125C297.955 24.125 298.195 24.1544 298.379 24.2097C298.564 24.265 298.684 24.3436 298.757 24.4367L298.954 24.2833C298.84 24.1364 298.667 24.035 298.451 23.9703C298.236 23.9056 297.969 23.875 297.655 23.875V24.125ZM298.762 24.443C298.846 24.538 298.906 24.681 298.931 24.885C298.956 25.0891 298.944 25.3463 298.892 25.6595L299.139 25.7005C299.193 25.3737 299.208 25.0909 299.179 24.855C299.151 24.619 299.078 24.422 298.949 24.277L298.762 24.443ZM298.892 25.6584L298.252 29.2984L298.498 29.3416L299.138 25.7016L298.892 25.6584ZM298.252 29.2986C298.148 29.8992 297.955 30.3075 297.691 30.5475L297.859 30.7325C298.182 30.4391 298.39 29.9675 298.498 29.3414L298.252 29.2986ZM297.696 30.5433C297.436 30.7561 297.005 30.875 296.375 30.875V31.125C297.026 31.125 297.528 31.0039 297.854 30.7367L297.696 30.5433ZM296.375 30.875H279.295V31.125H296.375V30.875ZM279.295 30.875C278.66 30.875 278.283 30.7535 278.109 30.557L277.922 30.723C278.174 31.0065 278.651 31.125 279.295 31.125V30.875ZM278.113 30.5619C277.937 30.3418 277.886 29.9519 278.017 29.3466L277.773 29.2934C277.638 29.9148 277.667 30.4049 277.918 30.7181L278.113 30.5619ZM278.018 29.3416L282.418 4.30163L282.172 4.25836L277.772 29.2984L278.018 29.3416ZM282.417 4.30655C282.549 3.70181 282.742 3.30651 282.979 3.09291L282.812 2.90709C282.516 3.17348 282.308 3.63152 282.173 4.25344L282.417 4.30655ZM282.979 3.09249C283.239 2.85634 283.668 2.725 284.295 2.725V2.475C283.642 2.475 283.138 2.61032 282.811 2.90751L282.979 3.09249ZM284.295 2.725H301.055V2.475H284.295V2.725ZM303.457 12.64L303.58 12.662L303.58 12.661L303.457 12.64ZM307.977 4.76L308.051 4.86013L308.052 4.86L307.977 4.76ZM327.537 9.12L327.414 9.1428L327.415 9.1477L327.537 9.12ZM327.417 10.52L327.31 10.4545L327.309 10.457L327.417 10.52ZM326.177 11.28L326.142 11.1599L326.136 11.1616L326.177 11.28ZM322.057 12.68L322.092 12.8001L322.097 12.7984L322.057 12.68ZM320.657 12.76L320.592 12.8672L320.598 12.8708L320.605 12.8738L320.657 12.76ZM320.057 11.6L319.934 11.6252L319.934 11.6266L320.057 11.6ZM318.937 9.64L318.861 9.73947L318.864 9.74172L318.937 9.64ZM312.857 10.04L312.937 10.136L312.937 10.1358L312.857 10.04ZM311.297 13.16L311.42 13.1823L311.42 13.1809L311.297 13.16ZM309.977 20.44L309.854 20.4177L309.853 20.4191L309.977 20.44ZM310.457 23.6L310.359 23.6786L310.363 23.6826L310.457 23.6ZM318.257 22L318.149 21.937L318.147 21.9394L318.257 22ZM319.297 20.84L319.345 20.9557L319.352 20.9518L319.297 20.84ZM320.617 20.92L320.661 20.8033L320.661 20.8032L320.617 20.92ZM324.777 22.52L324.732 22.6367L324.734 22.6376L324.777 22.52ZM325.457 24.68L325.347 24.6198L325.347 24.6203L325.457 24.68ZM303.977 28.44L303.882 28.5215L303.882 28.5222L303.977 28.44ZM302.137 20.04L302.013 20.018L302.013 20.0193L302.137 20.04ZM303.58 12.661C304.162 9.24745 305.654 6.65135 308.051 4.86013L307.902 4.65987C305.445 6.49531 303.925 9.15255 303.333 12.619L303.58 12.661ZM308.052 4.86C310.478 3.04036 313.649 2.125 317.577 2.125V1.875C313.611 1.875 310.382 2.79964 307.902 4.66L308.052 4.86ZM317.577 2.125C320.441 2.125 322.682 2.71527 324.314 3.88169C325.943 5.04616 326.978 6.79504 327.414 9.14278L327.659 9.09721C327.215 6.69829 326.15 4.88717 324.459 3.67831C322.771 2.4714 320.472 1.875 317.577 1.875V2.125ZM327.415 9.1477C327.544 9.71758 327.5 10.1466 327.31 10.4545L327.523 10.5855C327.76 10.2001 327.796 9.69575 327.658 9.0923L327.415 9.1477ZM327.309 10.457C327.147 10.7343 326.773 10.9758 326.142 11.16L326.212 11.4C326.86 11.2109 327.313 10.9457 327.525 10.583L327.309 10.457ZM326.136 11.1616L322.016 12.5616L322.097 12.7984L326.217 11.3984L326.136 11.1616ZM322.022 12.56C321.385 12.7458 320.957 12.7594 320.708 12.6462L320.605 12.8738C320.943 13.0273 321.449 12.9876 322.092 12.8L322.022 12.56ZM320.721 12.6528C320.502 12.5218 320.311 12.183 320.179 11.5734L319.934 11.6266C320.069 12.2437 320.277 12.6782 320.592 12.8672L320.721 12.6528ZM320.179 11.5748C319.988 10.6481 319.603 9.96215 319.009 9.53828L318.864 9.74172C319.39 10.1178 319.752 10.7386 319.934 11.6252L320.179 11.5748ZM319.012 9.54057C318.421 9.09007 317.549 8.875 316.417 8.875V9.125C317.524 9.125 318.332 9.3366 318.861 9.73943L319.012 9.54057ZM316.417 8.875C314.853 8.875 313.633 9.2253 312.776 9.94422L312.937 10.1358C313.733 9.46803 314.887 9.125 316.417 9.125V8.875ZM312.777 9.94397C311.946 10.6358 311.416 11.7074 311.173 13.1391L311.42 13.1809C311.657 11.7859 312.167 10.7775 312.937 10.136L312.777 9.94397ZM311.174 13.1377L309.854 20.4177L310.1 20.4623L311.42 13.1823L311.174 13.1377ZM309.853 20.4191C309.611 21.8467 309.766 22.9442 310.359 23.6785L310.554 23.5215C310.027 22.8692 309.862 21.86 310.1 20.4609L309.853 20.4191ZM310.363 23.6826C310.986 24.3906 312.099 24.725 313.657 24.725V24.475C312.121 24.475 311.101 24.1427 310.55 23.5174L310.363 23.6826ZM313.657 24.725C314.727 24.725 315.659 24.5047 316.448 24.0588C317.237 23.6128 317.876 22.9448 318.366 22.0606L318.147 21.9394C317.677 22.7885 317.069 23.4206 316.325 23.8412C315.581 24.262 314.693 24.475 313.657 24.475V24.725ZM318.365 22.063C318.737 21.4248 319.066 21.0715 319.345 20.9554L319.248 20.7246C318.887 20.8751 318.523 21.2952 318.149 21.937L318.365 22.063ZM319.352 20.9518C319.625 20.8153 320.024 20.8279 320.572 21.0368L320.661 20.8032C320.089 20.5854 319.608 20.5447 319.241 20.7282L319.352 20.9518ZM320.572 21.0367L324.732 22.6367L324.821 22.4033L320.661 20.8033L320.572 21.0367ZM324.734 22.6376C325.235 22.8175 325.51 23.0698 325.607 23.3775C325.706 23.6898 325.634 24.0986 325.347 24.6198L325.566 24.7402C325.866 24.1947 325.974 23.7102 325.846 23.3025C325.716 22.8902 325.358 22.5958 324.819 22.4024L324.734 22.6376ZM325.347 24.6203C322.866 29.1861 318.606 31.475 312.537 31.475V31.725C318.68 31.725 323.034 29.4006 325.566 24.7397L325.347 24.6203ZM312.537 31.475C308.692 31.475 305.879 30.428 304.071 28.3578L303.882 28.5222C305.754 30.6653 308.648 31.725 312.537 31.725V31.475ZM304.071 28.3585C302.289 26.2873 301.677 23.5283 302.26 20.0607L302.013 20.0193C301.422 23.5384 302.038 26.3793 303.882 28.5215L304.071 28.3585ZM302.26 20.062L303.58 12.6619L303.334 12.618L302.014 20.018L302.26 20.062ZM336.195 20.92L336.072 20.8981L336.072 20.8986L336.195 20.92ZM344.475 20.92L344.352 20.8981L344.352 20.8986L344.475 20.92ZM347.435 4.28L347.558 4.30189L347.558 4.30142L347.435 4.28ZM348.035 3L348.114 3.09687L348.119 3.09249L348.035 3ZM355.195 3L355.097 3.07819L355.102 3.08304L355.195 3ZM355.355 4.28L355.478 4.30182L355.478 4.30142L355.355 4.28ZM352.355 21.2L352.478 21.2223L352.478 21.2218L352.355 21.2ZM347.955 28.96L348.031 29.0592L348.031 29.059L347.955 28.96ZM330.195 28.36L330.098 28.4384L330.098 28.439L330.195 28.36ZM328.475 19.88L328.352 19.8582L328.475 19.88ZM331.235 4.28L331.113 4.25342L331.112 4.25822L331.235 4.28ZM331.835 3L331.919 3.09291L331.919 3.09249L331.835 3ZM339.035 3L338.937 3.07819L338.942 3.08304L339.035 3ZM339.155 4.28L339.033 4.25343L339.032 4.25811L339.155 4.28ZM336.072 20.8986C335.855 22.1452 336.039 23.1128 336.665 23.7664C337.286 24.4162 338.315 24.725 339.715 24.725V24.475C338.342 24.475 337.397 24.1705 336.845 23.5936C336.297 23.0206 336.108 22.1481 336.318 20.9414L336.072 20.8986ZM339.715 24.725C341.106 24.725 342.219 24.4144 343.041 23.7789C343.865 23.1421 344.381 22.1911 344.598 20.9414L344.352 20.8986C344.143 22.1023 343.652 22.9912 342.889 23.5811C342.124 24.1722 341.071 24.475 339.715 24.475V24.725ZM344.598 20.9419L347.558 4.30189L347.312 4.25811L344.352 20.8981L344.598 20.9419ZM347.558 4.30142C347.663 3.69994 347.855 3.30881 348.114 3.09674L347.956 2.90325C347.628 3.17119 347.421 3.63339 347.312 4.25858L347.558 4.30142ZM348.119 3.09249C348.38 2.85562 348.796 2.725 349.395 2.725V2.475C348.767 2.475 348.277 2.61104 347.951 2.90751L348.119 3.09249ZM349.395 2.725H353.955V2.475H349.395V2.725ZM353.955 2.725C354.559 2.725 354.921 2.85787 355.097 3.07808L355.293 2.92191C355.042 2.60879 354.578 2.475 353.955 2.475V2.725ZM355.102 3.08304C355.274 3.27686 355.338 3.65061 355.232 4.25858L355.478 4.30142C355.586 3.68272 355.543 3.20314 355.288 2.91695L355.102 3.08304ZM355.232 4.25818L352.232 21.1782L352.478 21.2218L355.478 4.30182L355.232 4.25818ZM352.232 21.1777C351.623 24.5396 350.17 27.0965 347.879 28.861L348.031 29.059C350.38 27.2502 351.86 24.6338 352.478 21.2223L352.232 21.1777ZM347.879 28.8608C345.614 30.599 342.537 31.475 338.635 31.475V31.725C342.573 31.725 345.709 30.841 348.031 29.0592L347.879 28.8608ZM338.635 31.475C334.791 31.475 332.02 30.4018 330.292 28.281L330.098 28.439C331.89 30.6382 334.746 31.725 338.635 31.725V31.475ZM330.292 28.2816C328.561 26.13 327.989 23.3427 328.598 19.9018L328.352 19.8582C327.734 23.3507 328.309 26.2167 330.098 28.4384L330.292 28.2816ZM328.598 19.9018L331.358 4.30178L331.112 4.25822L328.352 19.8582L328.598 19.9018ZM331.357 4.30655C331.489 3.70181 331.681 3.30651 331.919 3.09291L331.751 2.90709C331.455 3.17348 331.248 3.63152 331.113 4.25344L331.357 4.30655ZM331.919 3.09249C332.179 2.85634 332.608 2.725 333.235 2.725V2.475C332.582 2.475 332.078 2.61032 331.751 2.90751L331.919 3.09249ZM333.235 2.725H337.755V2.475H333.235V2.725ZM337.755 2.725C338.388 2.725 338.762 2.8588 338.937 3.07809L339.133 2.92191C338.881 2.60787 338.402 2.475 337.755 2.475V2.725ZM338.942 3.08304C339.111 3.27418 339.165 3.64477 339.033 4.25344L339.277 4.30655C339.411 3.68856 339.385 3.20582 339.128 2.91695L338.942 3.08304ZM339.032 4.25811L336.072 20.8981L336.318 20.9419L339.278 4.30189L339.032 4.25811ZM380.65 3L380.553 3.07819L380.557 3.08304L380.65 3ZM380.77 4.28L380.648 4.25343L380.647 4.25812L380.77 4.28ZM380.13 7.88L380.007 7.85812L380.007 7.85945L380.13 7.88ZM379.53 9.24L379.61 9.33687L379.614 9.33249L379.53 9.24ZM372.21 9.6V9.475H372.105L372.087 9.57828L372.21 9.6ZM368.73 29.32L368.853 29.3466L368.853 29.3417L368.73 29.32ZM368.09 30.64L368.174 30.7329L368.174 30.7325L368.09 30.64ZM360.93 30.64L360.833 30.7182L360.837 30.723L360.93 30.64ZM360.81 29.32L360.933 29.3466L360.933 29.3417L360.81 29.32ZM364.29 9.6L364.413 9.62172L364.439 9.475H364.29V9.6ZM357.05 9.24L356.948 9.31168L356.952 9.31762L356.957 9.32304L357.05 9.24ZM356.93 7.88L356.807 7.85812L356.807 7.85945L356.93 7.88ZM357.57 4.28L357.448 4.25343L357.447 4.25812L357.57 4.28ZM358.17 3L358.254 3.09291L358.254 3.09249L358.17 3ZM379.37 2.725C380.003 2.725 380.377 2.8588 380.553 3.07808L380.748 2.92191C380.497 2.60787 380.017 2.475 379.37 2.475V2.725ZM380.557 3.08304C380.727 3.27418 380.78 3.64477 380.648 4.25344L380.892 4.30655C381.027 3.68856 381.001 3.20582 380.744 2.91695L380.557 3.08304ZM380.647 4.25812L380.007 7.85812L380.253 7.90188L380.893 4.30188L380.647 4.25812ZM380.007 7.85945C379.902 8.48802 379.709 8.90845 379.446 9.14751L379.614 9.33249C379.938 9.03822 380.145 8.55198 380.254 7.90055L380.007 7.85945ZM379.451 9.14325C379.191 9.35608 378.76 9.475 378.13 9.475V9.725C378.781 9.725 379.283 9.60392 379.609 9.33674L379.451 9.14325ZM378.13 9.475H372.21V9.725H378.13V9.475ZM372.087 9.57828L368.607 29.2983L368.853 29.3417L372.333 9.62172L372.087 9.57828ZM368.608 29.2934C368.477 29.8951 368.272 30.3058 368.006 30.5475L368.174 30.7325C368.495 30.4408 368.717 29.9716 368.852 29.3466L368.608 29.2934ZM368.007 30.5471C367.775 30.7554 367.361 30.875 366.73 30.875V31.125C367.379 31.125 367.872 31.0046 368.174 30.7329L368.007 30.5471ZM366.73 30.875H362.21V31.125H366.73V30.875ZM362.21 30.875C361.575 30.875 361.198 30.7535 361.024 30.557L360.837 30.723C361.089 31.0065 361.566 31.125 362.21 31.125V30.875ZM361.028 30.5619C360.852 30.3418 360.801 29.9519 360.932 29.3466L360.688 29.2934C360.553 29.9148 360.582 30.4049 360.833 30.7181L361.028 30.5619ZM360.933 29.3417L364.413 9.62172L364.167 9.57828L360.687 29.2983L360.933 29.3417ZM364.29 9.475H358.33V9.725H364.29V9.475ZM358.33 9.475C357.695 9.475 357.318 9.35346 357.144 9.15695L356.957 9.32304C357.209 9.60653 357.686 9.725 358.33 9.725V9.475ZM357.153 9.16832C356.996 8.94502 356.948 8.53606 357.054 7.90055L356.807 7.85945C356.7 8.50394 356.731 9.00165 356.948 9.31168L357.153 9.16832ZM357.053 7.90188L357.693 4.30188L357.447 4.25812L356.807 7.85812L357.053 7.90188ZM357.692 4.30655C357.824 3.70181 358.017 3.30651 358.254 3.09291L358.087 2.90709C357.791 3.17348 357.583 3.63152 357.448 4.25344L357.692 4.30655ZM358.254 3.09249C358.514 2.85634 358.943 2.725 359.57 2.725V2.475C358.917 2.475 358.413 2.61032 358.086 2.90751L358.254 3.09249ZM359.57 2.725H379.37V2.475H359.57V2.725ZM383.273 4.2L383.151 4.17342L383.15 4.17831L383.273 4.2ZM383.873 2.96L383.951 3.05777L383.956 3.05291L383.873 2.96ZM391.193 4.2L391.07 4.17764L391.07 4.17831L391.193 4.2ZM386.753 29.4L386.876 29.4224L386.876 29.4217L386.753 29.4ZM378.953 30.68L378.854 30.7567L378.859 30.7629L378.864 30.7684L378.953 30.68ZM378.833 29.4L378.71 29.3783L378.71 29.3786L378.833 29.4ZM383.395 4.22655C383.527 3.6206 383.719 3.2432 383.951 3.05761L383.795 2.86239C383.493 3.10347 383.286 3.55273 383.151 4.17345L383.395 4.22655ZM383.956 3.05291C384.189 2.84324 384.579 2.725 385.153 2.725V2.475C384.554 2.475 384.09 2.59675 383.789 2.86709L383.956 3.05291ZM385.153 2.725H389.873V2.475H385.153V2.725ZM389.873 2.725C390.172 2.725 390.413 2.75444 390.597 2.80973C390.781 2.86499 390.902 2.94363 390.974 3.03674L391.171 2.88326C391.057 2.73637 390.885 2.63501 390.669 2.57027C390.453 2.50555 390.187 2.475 389.873 2.475V2.725ZM390.974 3.03674C391.125 3.23131 391.176 3.596 391.07 4.17764L391.316 4.22236C391.423 3.63067 391.393 3.16868 391.171 2.88326L390.974 3.03674ZM391.07 4.17831L386.63 29.3783L386.876 29.4217L391.316 4.22169L391.07 4.17831ZM386.63 29.3776C386.525 29.9536 386.346 30.3343 386.109 30.5471L386.276 30.7329C386.573 30.4657 386.767 30.0198 386.876 29.4224L386.63 29.3776ZM386.109 30.5471C385.877 30.756 385.475 30.875 384.873 30.875V31.125C385.497 31.125 385.975 31.004 386.276 30.7329L386.109 30.5471ZM384.873 30.875H380.153V31.125H384.873V30.875ZM380.153 30.875C379.572 30.875 379.217 30.7674 379.041 30.5916L378.864 30.7684C379.115 31.0193 379.561 31.125 380.153 31.125V30.875ZM379.051 30.6033C378.978 30.5083 378.926 30.3672 378.907 30.1683C378.889 29.9698 378.904 29.7216 378.956 29.4214L378.71 29.3786C378.655 29.6917 378.637 29.9636 378.658 30.1917C378.68 30.4194 378.741 30.6117 378.854 30.7567L379.051 30.6033ZM378.956 29.4217L383.396 4.22169L383.15 4.17831L378.71 29.3783L378.956 29.4217ZM420.225 4.24L420.116 4.17882L420.114 4.18201L420.225 4.24ZM406.945 29.6L407.056 29.658L407.056 29.658L406.945 29.6ZM398.305 30.72L398.233 30.8224L398.233 30.8224L398.305 30.72ZM397.745 29.68L397.622 29.7011L397.623 29.7058L397.745 29.68ZM393.385 4.24L393.508 4.21888L393.508 4.21606L393.385 4.24ZM401.945 4.28L401.82 4.29038L401.821 4.29272L401.945 4.28ZM403.345 17.96L403.221 17.9727L403.221 17.9743L403.345 17.96ZM403.425 22.36L403.549 22.3731L403.55 22.3666L403.425 22.36ZM403.345 23.12L403.221 23.1069L403.206 23.245H403.345V23.12ZM403.705 23.12V23.245H403.806L403.827 23.1466L403.705 23.12ZM405.385 18L405.271 17.948L405.271 17.948L405.385 18ZM411.665 4.28L411.551 4.22792L411.551 4.22797L411.665 4.28ZM412.705 2.96L412.644 2.85101L412.641 2.85281L412.705 2.96ZM419.425 2.725C419.993 2.725 420.274 2.86262 420.373 3.0648C420.423 3.16849 420.437 3.30874 420.398 3.49665C420.358 3.68477 420.266 3.91164 420.116 4.17884L420.334 4.30116C420.491 4.02169 420.595 3.77022 420.642 3.54835C420.689 3.32626 420.68 3.12484 420.597 2.9552C420.429 2.61071 420.003 2.475 419.425 2.475V2.725ZM420.114 4.18201L406.834 29.542L407.056 29.658L420.336 4.29799L420.114 4.18201ZM406.834 29.542C406.545 30.0942 406.252 30.4429 405.962 30.612L406.088 30.828C406.438 30.6238 406.758 30.2258 407.056 29.658L406.834 29.542ZM405.962 30.612C405.67 30.7825 405.229 30.875 404.625 30.875V31.125C405.248 31.125 405.74 31.0309 406.088 30.828L405.962 30.612ZM404.625 30.875H399.585V31.125H404.625V30.875ZM399.585 30.875C399.006 30.875 398.611 30.7818 398.377 30.6176L398.233 30.8224C398.532 31.0315 398.991 31.125 399.585 31.125V30.875ZM398.377 30.6176C398.148 30.4573 397.971 30.1474 397.867 29.6542L397.623 29.7058C397.732 30.2259 397.929 30.6094 398.233 30.8224L398.377 30.6176ZM397.868 29.6589L393.508 4.21888L393.262 4.26111L397.622 29.7011L397.868 29.6589ZM393.508 4.21606C393.404 3.68676 393.476 3.32389 393.679 3.09247C393.884 2.85899 394.253 2.725 394.825 2.725V2.475C394.224 2.475 393.766 2.61434 393.491 2.92752C393.214 3.24277 393.152 3.69991 393.262 4.26394L393.508 4.21606ZM394.825 2.725H399.305V2.475H394.825V2.725ZM399.305 2.725C400.263 2.725 400.897 2.84634 401.237 3.06515L401.373 2.85485C400.966 2.59365 400.267 2.475 399.305 2.475V2.725ZM401.237 3.06515C401.565 3.27594 401.769 3.67098 401.82 4.29038L402.07 4.26962C402.015 3.60902 401.791 3.12406 401.373 2.85485L401.237 3.06515ZM401.821 4.29272L403.221 17.9727L403.469 17.9473L402.069 4.26727L401.821 4.29272ZM403.221 17.9743C403.3 18.6619 403.34 19.4436 403.34 20.32H403.59C403.59 19.4364 403.55 18.6448 403.469 17.9457L403.221 17.9743ZM403.34 20.32C403.34 21.1724 403.327 21.8499 403.3 22.3534L403.55 22.3666C403.577 21.8567 403.59 21.1743 403.59 20.32H403.34ZM403.301 22.3469L403.221 23.1069L403.469 23.1331L403.549 22.3731L403.301 22.3469ZM403.345 23.245H403.705V22.995H403.345V23.245ZM403.827 23.1466C404.225 21.3146 404.783 19.6165 405.499 18.052L405.271 17.948C404.547 19.5302 403.985 21.2454 403.583 23.0934L403.827 23.1466ZM405.499 18.052L411.779 4.33202L411.551 4.22797L405.271 17.948L405.499 18.052ZM411.779 4.33208C412.066 3.70405 412.399 3.28915 412.769 3.06719L412.641 2.85281C412.211 3.11084 411.85 3.57595 411.551 4.22792L411.779 4.33208ZM412.766 3.06895C413.164 2.84547 413.83 2.725 414.785 2.725V2.475C413.82 2.475 413.1 2.59453 412.644 2.85105L412.766 3.06895ZM414.785 2.725H419.425V2.475H414.785V2.725ZM442.453 3L442.355 3.07819L442.359 3.08304L442.453 3ZM442.613 4.28L442.736 4.30188L442.736 4.30142L442.613 4.28ZM441.973 7.88L441.849 7.85812L441.849 7.85945L441.973 7.88ZM441.332 9.24L441.412 9.33675L441.413 9.33603L441.332 9.24ZM429.413 9.6V9.475H429.308L429.289 9.57788L429.413 9.6ZM428.773 13.16L428.649 13.1379L428.623 13.285H428.773V13.16ZM438.453 13.56L438.35 13.6317L438.354 13.6376L438.359 13.643L438.453 13.56ZM438.613 14.84L438.736 14.8619L438.736 14.8614L438.613 14.84ZM437.973 18.44L438.095 18.4655L438.096 18.4619L437.973 18.44ZM437.333 19.8L437.416 19.8929L437.417 19.8925L437.333 19.8ZM427.533 20.16V20.035H427.428L427.409 20.1382L427.533 20.16ZM426.853 24L426.729 23.9782L426.703 24.125H426.853V24ZM438.973 24.36L438.874 24.4369L438.879 24.443L438.973 24.36ZM439.133 25.68L439.256 25.7016L439.256 25.7005L439.133 25.68ZM438.493 29.32L438.369 29.2984L438.369 29.2986L438.493 29.32ZM437.893 30.64L437.972 30.7369L437.977 30.7325L437.893 30.64ZM418.133 30.64L418.035 30.7182L418.039 30.723L418.133 30.64ZM418.013 29.32L418.135 29.3466L418.136 29.3416L418.013 29.32ZM422.413 4.28L422.29 4.25342L422.289 4.25836L422.413 4.28ZM423.013 3L423.096 3.09291L423.097 3.09249L423.013 3ZM441.173 2.725C441.805 2.725 442.179 2.8588 442.355 3.07809L442.55 2.92191C442.299 2.60787 441.82 2.475 441.173 2.475V2.725ZM442.359 3.08304C442.531 3.27685 442.595 3.65061 442.489 4.25858L442.736 4.30142C442.843 3.68272 442.8 3.20314 442.546 2.91695L442.359 3.08304ZM442.489 4.25812L441.849 7.85812L442.096 7.90188L442.736 4.30188L442.489 4.25812ZM441.849 7.85945C441.745 8.48561 441.54 8.90465 441.252 9.14397L441.413 9.33603C441.765 9.04201 441.987 8.55439 442.096 7.90055L441.849 7.85945ZM441.253 9.14325C440.992 9.35668 440.574 9.475 439.973 9.475V9.725C440.598 9.725 441.086 9.60332 441.412 9.33674L441.253 9.14325ZM439.973 9.475H429.413V9.725H439.973V9.475ZM429.289 9.57788L428.649 13.1379L428.896 13.1821L429.536 9.62212L429.289 9.57788ZM428.773 13.285H437.213V13.035H428.773V13.285ZM437.213 13.285C437.848 13.285 438.202 13.42 438.35 13.6317L438.555 13.4883C438.33 13.1667 437.857 13.035 437.213 13.035V13.285ZM438.359 13.643C438.531 13.8369 438.595 14.2106 438.489 14.8186L438.736 14.8614C438.843 14.2427 438.8 13.7631 438.546 13.477L438.359 13.643ZM438.489 14.8181L437.849 18.4181L438.096 18.4619L438.736 14.8619L438.489 14.8181ZM437.85 18.4145C437.719 19.044 437.513 19.4668 437.248 19.7075L437.417 19.8925C437.738 19.5999 437.959 19.116 438.095 18.4655L437.85 18.4145ZM437.249 19.7071C437.017 19.9154 436.603 20.035 435.973 20.035V20.285C436.622 20.285 437.114 20.1646 437.416 19.8929L437.249 19.7071ZM435.973 20.035H427.533V20.285H435.973V20.035ZM427.409 20.1382L426.729 23.9782L426.976 24.0218L427.656 20.1818L427.409 20.1382ZM426.853 24.125H437.773V23.875H426.853V24.125ZM437.773 24.125C438.072 24.125 438.312 24.1544 438.497 24.2097C438.681 24.265 438.801 24.3436 438.874 24.4367L439.071 24.2833C438.957 24.1364 438.784 24.035 438.568 23.9703C438.353 23.9056 438.086 23.875 437.773 23.875V24.125ZM438.879 24.443C438.964 24.538 439.024 24.681 439.048 24.885C439.073 25.0891 439.061 25.3463 439.009 25.6595L439.256 25.7005C439.31 25.3737 439.325 25.0909 439.297 24.855C439.268 24.619 439.195 24.422 439.066 24.277L438.879 24.443ZM439.009 25.6584L438.369 29.2984L438.616 29.3416L439.256 25.7016L439.009 25.6584ZM438.369 29.2986C438.265 29.8992 438.072 30.3075 437.808 30.5475L437.977 30.7325C438.299 30.4391 438.507 29.9675 438.616 29.3414L438.369 29.2986ZM437.813 30.5433C437.553 30.7561 437.122 30.875 436.493 30.875V31.125C437.143 31.125 437.645 31.0039 437.972 30.7367L437.813 30.5433ZM436.493 30.875H419.413V31.125H436.493V30.875ZM419.413 30.875C418.777 30.875 418.401 30.7535 418.226 30.557L418.039 30.723C418.291 31.0065 418.768 31.125 419.413 31.125V30.875ZM418.23 30.5619C418.054 30.3418 418.003 29.9519 418.135 29.3466L417.89 29.2934C417.755 29.9148 417.784 30.4049 418.035 30.7181L418.23 30.5619ZM418.136 29.3416L422.536 4.30163L422.289 4.25836L417.889 29.2984L418.136 29.3416ZM422.535 4.30655C422.666 3.70181 422.859 3.30651 423.096 3.09291L422.929 2.90709C422.633 3.17348 422.426 3.63152 422.29 4.25344L422.535 4.30655ZM423.097 3.09249C423.356 2.85634 423.786 2.725 424.413 2.725V2.475C423.759 2.475 423.255 2.61032 422.928 2.90751L423.097 3.09249ZM424.413 2.725H441.173V2.475H424.413V2.725ZM451.074 12.64L451.197 12.662L451.197 12.661L451.074 12.64ZM455.594 4.76L455.669 4.86013L455.669 4.86L455.594 4.76ZM475.154 9.12L475.031 9.1428L475.032 9.1477L475.154 9.12ZM475.034 10.52L474.927 10.4545L474.926 10.457L475.034 10.52ZM473.794 11.28L473.759 11.1599L473.754 11.1616L473.794 11.28ZM469.674 12.68L469.709 12.8001L469.714 12.7984L469.674 12.68ZM468.274 12.76L468.209 12.8672L468.216 12.8708L468.222 12.8738L468.274 12.76ZM467.674 11.6L467.551 11.6252L467.552 11.6266L467.674 11.6ZM466.554 9.64L466.478 9.73947L466.481 9.74172L466.554 9.64ZM460.474 10.04L460.554 10.136L460.554 10.1358L460.474 10.04ZM458.914 13.16L459.037 13.1823L459.037 13.1809L458.914 13.16ZM457.594 20.44L457.471 20.4177L457.471 20.4191L457.594 20.44ZM458.074 23.6L457.976 23.6786L457.98 23.6826L458.074 23.6ZM465.874 22L465.766 21.937L465.764 21.9394L465.874 22ZM466.914 20.84L466.962 20.9557L466.97 20.9518L466.914 20.84ZM468.234 20.92L468.279 20.8033L468.278 20.8032L468.234 20.92ZM472.394 22.52L472.349 22.6367L472.352 22.6376L472.394 22.52ZM473.074 24.68L472.964 24.6198L472.964 24.6203L473.074 24.68ZM451.594 28.44L451.499 28.5215L451.5 28.5222L451.594 28.44ZM449.754 20.04L449.631 20.018L449.63 20.0193L449.754 20.04ZM451.197 12.661C451.779 9.24745 453.271 6.65135 455.669 4.86013L455.519 4.65987C453.063 6.49531 451.542 9.15255 450.951 12.619L451.197 12.661ZM455.669 4.86C458.095 3.04036 461.266 2.125 465.194 2.125V1.875C461.228 1.875 457.999 2.79964 455.519 4.66L455.669 4.86ZM465.194 2.125C468.058 2.125 470.299 2.71527 471.931 3.88169C473.56 5.04616 474.596 6.79504 475.031 9.14278L475.277 9.09721C474.832 6.69829 473.767 4.88717 472.076 3.67831C470.388 2.4714 468.089 1.875 465.194 1.875V2.125ZM475.032 9.1477C475.161 9.71758 475.117 10.1466 474.927 10.4545L475.14 10.5855C475.377 10.2001 475.413 9.69575 475.276 9.0923L475.032 9.1477ZM474.926 10.457C474.764 10.7343 474.39 10.9758 473.759 11.16L473.829 11.4C474.477 11.2109 474.93 10.9457 475.142 10.583L474.926 10.457ZM473.754 11.1616L469.634 12.5616L469.714 12.7984L473.834 11.3984L473.754 11.1616ZM469.639 12.56C469.002 12.7458 468.574 12.7594 468.325 12.6462L468.222 12.8738C468.56 13.0273 469.066 12.9876 469.709 12.8L469.639 12.56ZM468.338 12.6528C468.12 12.5218 467.928 12.183 467.796 11.5734L467.552 11.6266C467.686 12.2437 467.894 12.6782 468.209 12.8672L468.338 12.6528ZM467.796 11.5748C467.605 10.6481 467.22 9.96215 466.626 9.53828L466.481 9.74172C467.008 10.1178 467.369 10.7386 467.551 11.6252L467.796 11.5748ZM466.63 9.54057C466.038 9.09007 465.166 8.875 464.034 8.875V9.125C465.141 9.125 465.949 9.3366 466.478 9.73943L466.63 9.54057ZM464.034 8.875C462.47 8.875 461.251 9.2253 460.393 9.94422L460.554 10.1358C461.35 9.46803 462.504 9.125 464.034 9.125V8.875ZM460.394 9.94397C459.563 10.6358 459.034 11.7074 458.791 13.1391L459.037 13.1809C459.274 11.7859 459.784 10.7775 460.554 10.136L460.394 9.94397ZM458.791 13.1377L457.471 20.4177L457.717 20.4623L459.037 13.1823L458.791 13.1377ZM457.471 20.4191C457.228 21.8467 457.383 22.9442 457.977 23.6785L458.171 23.5215C457.644 22.8692 457.479 21.86 457.717 20.4609L457.471 20.4191ZM457.98 23.6826C458.603 24.3906 459.716 24.725 461.274 24.725V24.475C459.738 24.475 458.718 24.1427 458.168 23.5174L457.98 23.6826ZM461.274 24.725C462.344 24.725 463.276 24.5047 464.065 24.0588C464.854 23.6128 465.493 22.9448 465.983 22.0606L465.764 21.9394C465.294 22.7885 464.686 23.4206 463.942 23.8412C463.198 24.262 462.31 24.475 461.274 24.475V24.725ZM465.982 22.063C466.354 21.4248 466.683 21.0715 466.962 20.9554L466.866 20.7246C466.504 20.8751 466.14 21.2952 465.766 21.937L465.982 22.063ZM466.97 20.9518C467.243 20.8153 467.641 20.8279 468.189 21.0368L468.278 20.8032C467.707 20.5854 467.225 20.5447 466.858 20.7282L466.97 20.9518ZM468.189 21.0367L472.349 22.6367L472.439 22.4033L468.279 20.8033L468.189 21.0367ZM472.352 22.6376C472.853 22.8175 473.128 23.0698 473.225 23.3775C473.323 23.6898 473.251 24.0986 472.964 24.6198L473.183 24.7402C473.483 24.1947 473.591 23.7102 473.463 23.3025C473.333 22.8902 472.975 22.5958 472.436 22.4024L472.352 22.6376ZM472.964 24.6203C470.483 29.1861 466.224 31.475 460.154 31.475V31.725C466.297 31.725 470.651 29.4006 473.184 24.7397L472.964 24.6203ZM460.154 31.475C456.309 31.475 453.496 30.428 451.688 28.3578L451.5 28.5222C453.371 30.6653 456.265 31.725 460.154 31.725V31.475ZM451.688 28.3585C449.906 26.2873 449.295 23.5283 449.877 20.0607L449.63 20.0193C449.039 23.5384 449.655 26.3793 451.499 28.5215L451.688 28.3585ZM449.877 20.062L451.197 12.6619L450.951 12.618L449.631 20.018L449.877 20.062ZM486.892 3L486.794 3.07819L486.799 3.08304L486.892 3ZM487.052 4.28L487.175 4.30172L487.175 4.30142L487.052 4.28ZM483.572 24L483.449 23.9783L483.423 24.125H483.572V24ZM494.412 24.36L494.313 24.4369L494.319 24.443L494.412 24.36ZM494.572 25.68L494.695 25.7016L494.695 25.7005L494.572 25.68ZM493.932 29.32L494.054 29.3466L494.055 29.3416L493.932 29.32ZM493.292 30.64L493.376 30.7329L493.376 30.7325L493.292 30.64ZM474.812 30.64L474.71 30.7117L474.714 30.7176L474.719 30.723L474.812 30.64ZM474.692 29.32L474.569 29.2982L474.569 29.2986L474.692 29.32ZM479.132 4.28L479.255 4.30182L479.255 4.30142L479.132 4.28ZM479.692 3L479.776 3.09291L479.776 3.09249L479.692 3ZM485.612 2.725C486.245 2.725 486.619 2.8588 486.795 3.07808L486.99 2.92191C486.739 2.60787 486.259 2.475 485.612 2.475V2.725ZM486.799 3.08304C486.971 3.27686 487.035 3.65061 486.929 4.25858L487.175 4.30142C487.283 3.68272 487.24 3.20314 486.986 2.91695L486.799 3.08304ZM486.929 4.25828L483.449 23.9783L483.695 24.0217L487.175 4.30172L486.929 4.25828ZM483.572 24.125H493.172V23.875H483.572V24.125ZM493.172 24.125C493.486 24.125 493.736 24.1545 493.927 24.21C494.119 24.2657 494.242 24.3446 494.314 24.4367L494.511 24.2833C494.396 24.1354 494.219 24.0343 493.997 23.97C493.775 23.9055 493.499 23.875 493.172 23.875V24.125ZM494.319 24.443C494.403 24.538 494.463 24.681 494.488 24.885C494.513 25.0891 494.501 25.3463 494.449 25.6595L494.695 25.7005C494.75 25.3737 494.765 25.0909 494.736 24.855C494.708 24.619 494.635 24.422 494.506 24.277L494.319 24.443ZM494.449 25.6584L493.809 29.2984L494.055 29.3416L494.695 25.7016L494.449 25.6584ZM493.81 29.2934C493.679 29.8951 493.474 30.3058 493.208 30.5475L493.376 30.7325C493.697 30.4408 493.918 29.9716 494.054 29.3466L493.81 29.2934ZM493.209 30.5471C492.977 30.7554 492.563 30.875 491.932 30.875V31.125C492.581 31.125 493.074 31.0046 493.376 30.7329L493.209 30.5471ZM491.932 30.875H476.092V31.125H491.932V30.875ZM476.092 30.875C475.457 30.875 475.08 30.7535 474.906 30.557L474.719 30.723C474.971 31.0065 475.448 31.125 476.092 31.125V30.875ZM474.915 30.5683C474.758 30.3447 474.71 29.9485 474.815 29.3414L474.569 29.2986C474.461 29.9181 474.493 30.402 474.71 30.7117L474.915 30.5683ZM474.815 29.3418L479.255 4.30182L479.009 4.25817L474.569 29.2982L474.815 29.3418ZM479.255 4.30142C479.36 3.69743 479.54 3.30473 479.776 3.09291L479.609 2.90709C479.311 3.17527 479.117 3.6359 479.009 4.25858L479.255 4.30142ZM479.776 3.09249C480.036 2.85634 480.465 2.725 481.092 2.725V2.475C480.439 2.475 479.935 2.61032 479.608 2.90751L479.776 3.09249ZM481.092 2.725H485.612V2.475H481.092V2.725ZM504.633 20.92L504.509 20.8981L504.509 20.8986L504.633 20.92ZM512.913 20.92L512.789 20.8981L512.789 20.8986L512.913 20.92ZM515.872 4.28L515.996 4.30189L515.996 4.30142L515.872 4.28ZM516.473 3L516.552 3.09687L516.557 3.09249L516.473 3ZM523.633 3L523.535 3.07819L523.539 3.08304L523.633 3ZM523.793 4.28L523.916 4.30182L523.916 4.30142L523.793 4.28ZM520.793 21.2L520.916 21.2223L520.916 21.2218L520.793 21.2ZM516.393 28.96L516.469 29.0592L516.469 29.059L516.393 28.96ZM498.633 28.36L498.535 28.4384L498.536 28.439L498.633 28.36ZM496.913 19.88L496.789 19.8582L496.913 19.88ZM499.673 4.28L499.55 4.25342L499.549 4.25822L499.673 4.28ZM500.273 3L500.356 3.09291L500.357 3.09249L500.273 3ZM507.473 3L507.375 3.07819L507.379 3.08304L507.473 3ZM507.593 4.28L507.47 4.25343L507.469 4.25811L507.593 4.28ZM504.509 20.8986C504.293 22.1452 504.477 23.1128 505.102 23.7664C505.724 24.4162 506.752 24.725 508.153 24.725V24.475C506.779 24.475 505.835 24.1705 505.283 23.5936C504.735 23.0206 504.546 22.1481 504.756 20.9414L504.509 20.8986ZM508.153 24.725C509.543 24.725 510.657 24.4144 511.479 23.7789C512.303 23.1421 512.818 22.1911 513.036 20.9414L512.789 20.8986C512.58 22.1023 512.089 22.9912 511.326 23.5811C510.561 24.1722 509.508 24.475 508.153 24.475V24.725ZM513.036 20.9419L515.996 4.30189L515.749 4.25811L512.789 20.8981L513.036 20.9419ZM515.996 4.30142C516.1 3.69994 516.292 3.30881 516.552 3.09674L516.393 2.90325C516.066 3.17119 515.858 3.63339 515.749 4.25858L515.996 4.30142ZM516.557 3.09249C516.817 2.85562 517.234 2.725 517.833 2.725V2.475C517.204 2.475 516.715 2.61104 516.388 2.90751L516.557 3.09249ZM517.833 2.725H522.393V2.475H517.833V2.725ZM522.393 2.725C522.996 2.725 523.359 2.85787 523.535 3.07808L523.73 2.92191C523.48 2.60879 523.015 2.475 522.393 2.475V2.725ZM523.539 3.08304C523.711 3.27686 523.775 3.65061 523.669 4.25858L523.916 4.30142C524.023 3.68272 523.98 3.20314 523.726 2.91695L523.539 3.08304ZM523.669 4.25818L520.669 21.1782L520.916 21.2218L523.916 4.30182L523.669 4.25818ZM520.67 21.1777C520.061 24.5396 518.607 27.0965 516.316 28.861L516.469 29.059C518.818 27.2502 520.298 24.6338 520.916 21.2223L520.67 21.1777ZM516.316 28.8608C514.052 30.599 510.975 31.475 507.072 31.475V31.725C511.01 31.725 514.147 30.841 516.469 29.0592L516.316 28.8608ZM507.072 31.475C503.228 31.475 500.457 30.4018 498.729 28.281L498.536 28.439C500.328 30.6382 503.184 31.725 507.072 31.725V31.475ZM498.73 28.2816C496.998 26.13 496.427 23.3427 497.036 19.9018L496.789 19.8582C496.172 23.3507 496.747 26.2167 498.535 28.4384L498.73 28.2816ZM497.036 19.9018L499.796 4.30178L499.549 4.25822L496.789 19.8582L497.036 19.9018ZM499.795 4.30655C499.926 3.70181 500.119 3.30651 500.356 3.09291L500.189 2.90709C499.893 3.17348 499.686 3.63152 499.55 4.25344L499.795 4.30655ZM500.357 3.09249C500.616 2.85634 501.046 2.725 501.673 2.725V2.475C501.019 2.475 500.515 2.61032 500.188 2.90751L500.357 3.09249ZM501.673 2.725H506.193V2.475H501.673V2.725ZM506.193 2.725C506.825 2.725 507.199 2.8588 507.375 3.07809L507.57 2.92191C507.319 2.60787 506.84 2.475 506.193 2.475V2.725ZM507.379 3.08304C507.549 3.27418 507.603 3.64477 507.47 4.25344L507.715 4.30655C507.849 3.68856 507.823 3.20582 507.566 2.91695L507.379 3.08304ZM507.469 4.25811L504.509 20.8981L504.756 20.9419L507.716 4.30189L507.469 4.25811ZM547.448 4.72L547.356 4.80494L547.358 4.80667L547.448 4.72ZM548.848 10.44L548.97 10.4645L548.971 10.4619L548.848 10.44ZM547.528 13.72L547.426 13.647L547.426 13.6477L547.528 13.72ZM544.928 16.04L544.861 15.9341L544.819 15.9609L544.807 16.0097L544.928 16.04ZM544.888 16.2L544.767 16.1697L544.742 16.2687L544.834 16.3128L544.888 16.2ZM547.648 23.4L547.771 23.4222L547.771 23.4208L547.648 23.4ZM543.968 29.08L543.9 28.9747L543.9 28.9751L543.968 29.08ZM523.328 30.64L523.23 30.7182L523.234 30.723L523.328 30.64ZM523.208 29.32L523.33 29.3466L523.331 29.3416L523.208 29.32ZM527.608 4.28L527.485 4.25449L527.485 4.25836L527.608 4.28ZM528.208 2.96L528.291 3.05291L528.292 3.05249L528.208 2.96ZM540.608 11.24L540.731 11.2628L540.731 11.262L540.608 11.24ZM534.688 9V8.875H534.583L534.565 8.97872L534.688 9ZM533.928 13.4L533.805 13.3787L533.779 13.525H533.928V13.4ZM539.568 22.16L539.445 22.1347L539.445 22.1391L539.568 22.16ZM532.808 19.84V19.715H532.703L532.685 19.8179L532.808 19.84ZM531.968 24.52L531.845 24.4979L531.818 24.645H531.968V24.52ZM541.328 2.685C544.054 2.685 546.055 3.39935 547.356 4.80493L547.54 4.63507C546.174 3.16064 544.095 2.435 541.328 2.435V2.685ZM547.358 4.80667C548.683 6.18417 549.146 8.04681 548.725 10.4181L548.971 10.4619C549.403 8.03318 548.932 6.0825 547.538 4.63333L547.358 4.80667ZM548.725 10.4155C548.461 11.7363 548.027 12.8118 547.426 13.647L547.629 13.793C548.256 12.9216 548.701 11.8104 548.97 10.4645L548.725 10.4155ZM547.426 13.6477C546.851 14.4573 545.999 15.2201 544.861 15.9341L544.994 16.1459C546.15 15.4199 547.031 14.6361 547.63 13.7923L547.426 13.6477ZM544.807 16.0097L544.767 16.1697L545.009 16.2303L545.049 16.0703L544.807 16.0097ZM544.834 16.3128C546.034 16.8865 546.853 17.7565 547.301 18.9247C547.75 20.0967 547.829 21.5789 547.525 23.3792L547.771 23.4208C548.08 21.5944 548.005 20.0633 547.535 18.8353C547.062 17.6035 546.195 16.6868 544.942 16.0872L544.834 16.3128ZM547.525 23.3778C547.077 25.853 545.869 27.7149 543.9 28.9747L544.035 29.1853C546.067 27.8851 547.312 25.9603 547.771 23.4222L547.525 23.3778ZM543.9 28.9751C541.951 30.2391 539.523 30.875 536.608 30.875V31.125C539.559 31.125 542.038 30.4809 544.036 29.1849L543.9 28.9751ZM536.608 30.875H524.608V31.125H536.608V30.875ZM524.608 30.875C523.972 30.875 523.596 30.7535 523.421 30.557L523.234 30.723C523.486 31.0065 523.963 31.125 524.608 31.125V30.875ZM523.425 30.5619C523.249 30.3418 523.198 29.9519 523.33 29.3466L523.086 29.2934C522.951 29.9148 522.98 30.4049 523.23 30.7181L523.425 30.5619ZM523.331 29.3416L527.731 4.30163L527.485 4.25836L523.085 29.2984L523.331 29.3416ZM527.73 4.30549C527.862 3.67285 528.055 3.26561 528.291 3.05291L528.124 2.86709C527.827 3.13438 527.62 3.60715 527.485 4.2545L527.73 4.30549ZM528.292 3.05249C528.552 2.81634 528.981 2.685 529.608 2.685V2.435C528.955 2.435 528.451 2.57032 528.124 2.86751L528.292 3.05249ZM529.608 2.685H541.328V2.435H529.608V2.685ZM540.731 11.262C540.868 10.4963 540.764 9.88903 540.379 9.47494C539.998 9.06404 539.368 8.875 538.528 8.875V9.125C539.341 9.125 539.884 9.30929 540.196 9.64506C540.505 9.97763 540.615 10.4904 540.485 11.218L540.731 11.262ZM538.528 8.875H534.688V9.125H538.528V8.875ZM534.565 8.97872L533.805 13.3787L534.051 13.4213L534.811 9.02128L534.565 8.97872ZM533.928 13.525H537.768V13.275H533.928V13.525ZM537.768 13.525C538.599 13.525 539.272 13.3412 539.773 12.9595C540.277 12.5766 540.593 12.0059 540.731 11.2628L540.485 11.2172C540.356 11.9141 540.065 12.4234 539.622 12.7605C539.177 13.0988 538.564 13.275 537.768 13.275V13.525ZM539.69 22.1853C539.854 21.3929 539.759 20.7637 539.359 20.3348C538.964 19.9102 538.3 19.715 537.408 19.715V19.965C538.275 19.965 538.852 20.1565 539.176 20.5052C539.497 20.8496 539.601 21.3804 539.445 22.1347L539.69 22.1853ZM537.408 19.715H532.808V19.965H537.408V19.715ZM532.685 19.8179L531.845 24.4979L532.091 24.5421L532.931 19.8621L532.685 19.8179ZM531.968 24.645H536.608V24.395H531.968V24.645ZM536.608 24.645C537.48 24.645 538.184 24.4441 538.706 24.0277C539.229 23.6106 539.554 22.9896 539.691 22.1809L539.445 22.1391C539.315 22.9038 539.013 23.4628 538.55 23.8323C538.085 24.2026 537.443 24.395 536.608 24.395V24.645Z" fill="url(#paint0_linear_333_248)"/>
<path d="M22.4982 3.6C23.1382 3.6 23.5648 3.73333 23.7782 4C23.9915 4.24 24.0315 4.66667 23.8982 5.28L23.2582 8.88C23.1515 9.52 22.9515 9.97333 22.6582 10.24C22.3648 10.48 21.8982 10.6 21.2582 10.6H15.3382L11.8582 30.32C11.7248 30.9333 11.5115 31.3733 11.2182 31.64C10.9515 31.88 10.4982 32 9.85818 32H5.33818C4.69818 32 4.27152 31.88 4.05818 31.64C3.84485 31.3733 3.80485 30.9333 3.93818 30.32L7.41818 10.6H1.45818C0.818182 10.6 0.391515 10.48 0.178182 10.24C-0.00848491 9.97333 -0.0484848 9.52 0.0581819 8.88L0.698182 5.28C0.831515 4.66667 1.03152 4.24 1.29818 4C1.59152 3.73333 2.05818 3.6 2.69818 3.6H22.4982Z" fill="url(#paint1_linear_333_248)"/>
<path d="M22.4982 3.6C23.1382 3.6 23.5648 3.73333 23.7782 4C23.9915 4.24 24.0315 4.66667 23.8982 5.28L23.2582 8.88C23.1515 9.52 22.9515 9.97333 22.6582 10.24C22.3648 10.48 21.8982 10.6 21.2582 10.6H15.3382L11.8582 30.32C11.7248 30.9333 11.5115 31.3733 11.2182 31.64C10.9515 31.88 10.4982 32 9.85818 32H5.33818C4.69818 32 4.27152 31.88 4.05818 31.64C3.84485 31.3733 3.80485 30.9333 3.93818 30.32L7.41818 10.6H1.45818C0.818182 10.6 0.391515 10.48 0.178182 10.24C-0.00848491 9.97333 -0.0484848 9.52 0.0581819 8.88L0.698182 5.28C0.831515 4.66667 1.03152 4.24 1.29818 4C1.59152 3.73333 2.05818 3.6 2.69818 3.6H22.4982Z" fill="url(#paint2_linear_333_248)"/>
<path d="M48.6007 3.56C49.214 3.56 49.614 3.69333 49.8007 3.96C50.014 4.2 50.0673 4.64 49.9607 5.28L45.5607 30.32C45.4274 30.9333 45.214 31.3733 44.9207 31.64C44.654 31.88 44.2007 32 43.5607 32H39.0407C38.4007 32 37.974 31.88 37.7607 31.64C37.5473 31.3733 37.5073 30.9333 37.6407 30.32L39.2407 21.12H31.5207L29.8807 30.32C29.774 30.9333 29.574 31.3733 29.2807 31.64C28.9873 31.88 28.5207 32 27.8807 32H23.3607C22.7207 32 22.294 31.88 22.0807 31.64C21.894 31.3733 21.854 30.9333 21.9607 30.32L26.4007 5.28C26.534 4.64 26.734 4.2 27.0007 3.96C27.294 3.69333 27.7607 3.56 28.4007 3.56H32.9207C33.5607 3.56 33.974 3.69333 34.1607 3.96C34.374 4.2 34.4273 4.64 34.3207 5.28L32.7607 14.12H40.4807L42.0407 5.28C42.1474 4.64 42.3473 4.2 42.6407 3.96C42.9607 3.69333 43.4274 3.56 44.0407 3.56H48.6007Z" fill="url(#paint3_linear_333_248)"/>
<path d="M48.6007 3.56C49.214 3.56 49.614 3.69333 49.8007 3.96C50.014 4.2 50.0673 4.64 49.9607 5.28L45.5607 30.32C45.4274 30.9333 45.214 31.3733 44.9207 31.64C44.654 31.88 44.2007 32 43.5607 32H39.0407C38.4007 32 37.974 31.88 37.7607 31.64C37.5473 31.3733 37.5073 30.9333 37.6407 30.32L39.2407 21.12H31.5207L29.8807 30.32C29.774 30.9333 29.574 31.3733 29.2807 31.64C28.9873 31.88 28.5207 32 27.8807 32H23.3607C22.7207 32 22.294 31.88 22.0807 31.64C21.894 31.3733 21.854 30.9333 21.9607 30.32L26.4007 5.28C26.534 4.64 26.734 4.2 27.0007 3.96C27.294 3.69333 27.7607 3.56 28.4007 3.56H32.9207C33.5607 3.56 33.974 3.69333 34.1607 3.96C34.374 4.2 34.4273 4.64 34.3207 5.28L32.7607 14.12H40.4807L42.0407 5.28C42.1474 4.64 42.3473 4.2 42.6407 3.96C42.9607 3.69333 43.4274 3.56 44.0407 3.56H48.6007Z" fill="url(#paint4_linear_333_248)"/>
<path d="M72.816 3.6C73.456 3.6 73.8827 3.73333 74.096 4C74.3093 4.24 74.3627 4.66667 74.256 5.28L73.616 8.88C73.5093 9.52 73.296 9.97333 72.976 10.24C72.6827 10.48 72.2293 10.6 71.616 10.6H61.056L60.416 14.16H68.856C69.496 14.16 69.9093 14.2933 70.096 14.56C70.3093 14.8 70.3627 15.2267 70.256 15.84L69.616 19.44C69.4827 20.08 69.2693 20.5333 68.976 20.8C68.7093 21.04 68.256 21.16 67.616 21.16H59.176L58.496 25H69.416C70.0293 25 70.4293 25.12 70.616 25.36C70.8293 25.6 70.8827 26.04 70.776 26.68L70.136 30.32C70.0293 30.9333 69.8293 31.3733 69.536 31.64C69.2427 31.88 68.776 32 68.136 32H51.056C50.416 32 49.9893 31.88 49.776 31.64C49.5627 31.3733 49.5227 30.9333 49.656 30.32L54.056 5.28C54.1893 4.66667 54.3893 4.24 54.656 4C54.9493 3.73333 55.416 3.6 56.056 3.6H72.816Z" fill="url(#paint5_linear_333_248)"/>
<path d="M72.816 3.6C73.456 3.6 73.8827 3.73333 74.096 4C74.3093 4.24 74.3627 4.66667 74.256 5.28L73.616 8.88C73.5093 9.52 73.296 9.97333 72.976 10.24C72.6827 10.48 72.2293 10.6 71.616 10.6H61.056L60.416 14.16H68.856C69.496 14.16 69.9093 14.2933 70.096 14.56C70.3093 14.8 70.3627 15.2267 70.256 15.84L69.616 19.44C69.4827 20.08 69.2693 20.5333 68.976 20.8C68.7093 21.04 68.256 21.16 67.616 21.16H59.176L58.496 25H69.416C70.0293 25 70.4293 25.12 70.616 25.36C70.8293 25.6 70.8827 26.04 70.776 26.68L70.136 30.32C70.0293 30.9333 69.8293 31.3733 69.536 31.64C69.2427 31.88 68.776 32 68.136 32H51.056C50.416 32 49.9893 31.88 49.776 31.64C49.5627 31.3733 49.5227 30.9333 49.656 30.32L54.056 5.28C54.1893 4.66667 54.3893 4.24 54.656 4C54.9493 3.73333 55.416 3.6 56.056 3.6H72.816Z" fill="url(#paint6_linear_333_248)"/>
<path d="M82.6772 13.8C83.2906 10.3333 84.7972 7.66667 87.1972 5.8C89.6239 3.93333 92.8106 3 96.7572 3C100.624 3 103.464 4.06667 105.277 6.2C107.117 8.33333 107.731 11.16 107.117 14.68L105.877 21.92C105.424 24.4533 104.477 26.5467 103.037 28.2L104.637 30.6C104.984 31.08 105.104 31.4933 104.997 31.84C104.917 32.16 104.597 32.5467 104.037 33L100.677 35.32C99.6906 36.0933 98.9172 36.0267 98.3572 35.12L96.3572 32.08C95.0506 32.4267 93.5306 32.6 91.7972 32.6C87.9039 32.6 85.0506 31.56 83.2372 29.48C81.4239 27.3733 80.8106 24.56 81.3972 21.04L82.6772 13.8ZM95.6772 10C92.7439 10 91.0506 11.28 90.5972 13.84L89.1972 21.76C88.9839 23.0133 89.1972 23.9733 89.8372 24.64C90.4772 25.28 91.5039 25.6 92.9172 25.6C95.8239 25.6 97.5039 24.32 97.9572 21.76L99.3572 13.84C99.5706 12.5867 99.3572 11.64 98.7172 11C98.0772 10.3333 97.0639 10 95.6772 10Z" fill="url(#paint7_linear_333_248)"/>
<path d="M82.6772 13.8C83.2906 10.3333 84.7972 7.66667 87.1972 5.8C89.6239 3.93333 92.8106 3 96.7572 3C100.624 3 103.464 4.06667 105.277 6.2C107.117 8.33333 107.731 11.16 107.117 14.68L105.877 21.92C105.424 24.4533 104.477 26.5467 103.037 28.2L104.637 30.6C104.984 31.08 105.104 31.4933 104.997 31.84C104.917 32.16 104.597 32.5467 104.037 33L100.677 35.32C99.6906 36.0933 98.9172 36.0267 98.3572 35.12L96.3572 32.08C95.0506 32.4267 93.5306 32.6 91.7972 32.6C87.9039 32.6 85.0506 31.56 83.2372 29.48C81.4239 27.3733 80.8106 24.56 81.3972 21.04L82.6772 13.8ZM95.6772 10C92.7439 10 91.0506 11.28 90.5972 13.84L89.1972 21.76C88.9839 23.0133 89.1972 23.9733 89.8372 24.64C90.4772 25.28 91.5039 25.6 92.9172 25.6C95.8239 25.6 97.5039 24.32 97.9572 21.76L99.3572 13.84C99.5706 12.5867 99.3572 11.64 98.7172 11C98.0772 10.3333 97.0639 10 95.6772 10Z" fill="url(#paint8_linear_333_248)"/>
<path d="M117.409 21.92C116.982 24.3733 118.155 25.6 120.929 25.6C123.675 25.6 125.262 24.3733 125.689 21.92L128.649 5.28C128.755 4.66667 128.955 4.24 129.249 4C129.542 3.73333 129.995 3.6 130.609 3.6H135.169C135.782 3.6 136.195 3.73333 136.409 4C136.622 4.24 136.675 4.66667 136.569 5.28L133.569 22.2C132.955 25.5867 131.489 28.1733 129.169 29.96C126.875 31.72 123.769 32.6 119.849 32.6C115.982 32.6 113.169 31.52 111.409 29.36C109.649 27.1733 109.075 24.3467 109.689 20.88L112.449 5.28C112.582 4.66667 112.782 4.24 113.049 4C113.342 3.73333 113.809 3.6 114.449 3.6H118.969C119.609 3.6 120.035 3.73333 120.249 4C120.462 4.24 120.502 4.66667 120.369 5.28L117.409 21.92Z" fill="url(#paint9_linear_333_248)"/>
<path d="M117.409 21.92C116.982 24.3733 118.155 25.6 120.929 25.6C123.675 25.6 125.262 24.3733 125.689 21.92L128.649 5.28C128.755 4.66667 128.955 4.24 129.249 4C129.542 3.73333 129.995 3.6 130.609 3.6H135.169C135.782 3.6 136.195 3.73333 136.409 4C136.622 4.24 136.675 4.66667 136.569 5.28L133.569 22.2C132.955 25.5867 131.489 28.1733 129.169 29.96C126.875 31.72 123.769 32.6 119.849 32.6C115.982 32.6 113.169 31.52 111.409 29.36C109.649 27.1733 109.075 24.3467 109.689 20.88L112.449 5.28C112.582 4.66667 112.782 4.24 113.049 4C113.342 3.73333 113.809 3.6 114.449 3.6H118.969C119.609 3.6 120.035 3.73333 120.249 4C120.462 4.24 120.502 4.66667 120.369 5.28L117.409 21.92Z" fill="url(#paint10_linear_333_248)"/>
<path d="M160.796 30.36C161.01 31.4533 160.516 32 159.316 32H155.156C154.17 32 153.49 31.88 153.116 31.64C152.743 31.4 152.53 30.96 152.476 30.32L152.076 27.44H143.396L141.996 30.32C141.676 30.96 141.303 31.4 140.876 31.64C140.45 31.88 139.756 32 138.796 32H134.396C133.276 32 133.023 31.4533 133.636 30.36L147.316 5C147.61 4.44 147.916 4.06667 148.236 3.88C148.556 3.69333 149.023 3.6 149.636 3.6H154.156C154.743 3.6 155.17 3.69333 155.436 3.88C155.73 4.06667 155.93 4.41333 156.036 4.92L160.796 30.36ZM150.716 16.48C150.636 15.5467 150.596 14.6667 150.596 13.84C150.623 12.9867 150.663 12.28 150.716 11.72L150.836 10.88H150.476C150.13 12.8 149.53 14.6533 148.676 16.44L146.396 21.16H151.356L150.716 16.48Z" fill="url(#paint11_linear_333_248)"/>
<path d="M160.796 30.36C161.01 31.4533 160.516 32 159.316 32H155.156C154.17 32 153.49 31.88 153.116 31.64C152.743 31.4 152.53 30.96 152.476 30.32L152.076 27.44H143.396L141.996 30.32C141.676 30.96 141.303 31.4 140.876 31.64C140.45 31.88 139.756 32 138.796 32H134.396C133.276 32 133.023 31.4533 133.636 30.36L147.316 5C147.61 4.44 147.916 4.06667 148.236 3.88C148.556 3.69333 149.023 3.6 149.636 3.6H154.156C154.743 3.6 155.17 3.69333 155.436 3.88C155.73 4.06667 155.93 4.41333 156.036 4.92L160.796 30.36ZM150.716 16.48C150.636 15.5467 150.596 14.6667 150.596 13.84C150.623 12.9867 150.663 12.28 150.716 11.72L150.836 10.88H150.476C150.13 12.8 149.53 14.6533 148.676 16.44L146.396 21.16H151.356L150.716 16.48Z" fill="url(#paint12_linear_333_248)"/>
<path d="M179.135 3.6C183.029 3.6 185.869 4.68 187.655 6.84C189.442 9 190.015 11.8533 189.375 15.4L188.335 21.4C187.722 24.8667 186.215 27.5067 183.815 29.32C181.415 31.1067 178.229 32 174.255 32H164.415C163.775 32 163.349 31.88 163.135 31.64C162.922 31.3733 162.882 30.9333 163.015 30.32L167.415 5.28C167.549 4.66667 167.749 4.24 168.015 4C168.309 3.73333 168.775 3.6 169.415 3.6H179.135ZM181.535 14.92C182.069 12.04 180.775 10.6 177.655 10.6H174.415L171.855 25H175.135C178.202 25 180.002 23.56 180.535 20.68L181.535 14.92Z" fill="url(#paint13_linear_333_248)"/>
<path d="M179.135 3.6C183.029 3.6 185.869 4.68 187.655 6.84C189.442 9 190.015 11.8533 189.375 15.4L188.335 21.4C187.722 24.8667 186.215 27.5067 183.815 29.32C181.415 31.1067 178.229 32 174.255 32H164.415C163.775 32 163.349 31.88 163.135 31.64C162.922 31.3733 162.882 30.9333 163.015 30.32L167.415 5.28C167.549 4.66667 167.749 4.24 168.015 4C168.309 3.73333 168.775 3.6 169.415 3.6H179.135ZM181.535 14.92C182.069 12.04 180.775 10.6 177.655 10.6H174.415L171.855 25H175.135C178.202 25 180.002 23.56 180.535 20.68L181.535 14.92Z" fill="url(#paint14_linear_333_248)"/>
<path d="M192.526 11.28C193.006 8.61333 194.352 6.57333 196.566 5.16C198.806 3.72 201.819 3 205.606 3C208.459 3 210.659 3.50667 212.206 4.52C213.752 5.50667 214.846 6.97333 215.486 8.92C215.672 9.50667 215.686 9.93333 215.526 10.2C215.366 10.4667 214.952 10.7333 214.286 11L210.326 12.56C209.739 12.8 209.312 12.8667 209.046 12.76C208.779 12.6533 208.539 12.3067 208.326 11.72C207.846 10.3333 206.619 9.64 204.646 9.64C202.112 9.64 200.726 10.3333 200.486 11.72C200.352 12.4933 200.686 13.04 201.486 13.36C202.286 13.68 203.566 13.9467 205.326 14.16C206.019 14.2667 206.672 14.4 207.286 14.56C207.899 14.6933 208.552 14.8933 209.246 15.16C209.966 15.4267 210.592 15.7333 211.126 16.08C211.659 16.4267 212.179 16.8667 212.686 17.4C213.192 17.9067 213.566 18.48 213.806 19.12C214.046 19.76 214.232 20.5067 214.366 21.36C214.499 22.2133 214.446 23.16 214.206 24.2C213.166 29.8 208.672 32.6 200.726 32.6C197.686 32.6 195.192 32.0667 193.246 31C191.299 29.9333 190.126 28.4 189.726 26.4C189.539 25.3333 190.032 24.6 191.206 24.2L195.206 22.84C195.846 22.6267 196.326 22.5867 196.646 22.72C196.966 22.8267 197.219 23.16 197.406 23.72C197.886 25.1333 199.259 25.84 201.526 25.84C204.379 25.84 205.952 25.08 206.246 23.56C206.379 22.84 206.072 22.32 205.326 22C204.606 21.68 203.486 21.4133 201.966 21.2C200.872 21.04 199.912 20.8667 199.086 20.68C198.259 20.4933 197.339 20.16 196.326 19.68C195.312 19.2 194.512 18.6267 193.926 17.96C193.339 17.2933 192.899 16.3867 192.606 15.24C192.312 14.0933 192.286 12.7733 192.526 11.28Z" fill="url(#paint15_linear_333_248)"/>
<path d="M192.526 11.28C193.006 8.61333 194.352 6.57333 196.566 5.16C198.806 3.72 201.819 3 205.606 3C208.459 3 210.659 3.50667 212.206 4.52C213.752 5.50667 214.846 6.97333 215.486 8.92C215.672 9.50667 215.686 9.93333 215.526 10.2C215.366 10.4667 214.952 10.7333 214.286 11L210.326 12.56C209.739 12.8 209.312 12.8667 209.046 12.76C208.779 12.6533 208.539 12.3067 208.326 11.72C207.846 10.3333 206.619 9.64 204.646 9.64C202.112 9.64 200.726 10.3333 200.486 11.72C200.352 12.4933 200.686 13.04 201.486 13.36C202.286 13.68 203.566 13.9467 205.326 14.16C206.019 14.2667 206.672 14.4 207.286 14.56C207.899 14.6933 208.552 14.8933 209.246 15.16C209.966 15.4267 210.592 15.7333 211.126 16.08C211.659 16.4267 212.179 16.8667 212.686 17.4C213.192 17.9067 213.566 18.48 213.806 19.12C214.046 19.76 214.232 20.5067 214.366 21.36C214.499 22.2133 214.446 23.16 214.206 24.2C213.166 29.8 208.672 32.6 200.726 32.6C197.686 32.6 195.192 32.0667 193.246 31C191.299 29.9333 190.126 28.4 189.726 26.4C189.539 25.3333 190.032 24.6 191.206 24.2L195.206 22.84C195.846 22.6267 196.326 22.5867 196.646 22.72C196.966 22.8267 197.219 23.16 197.406 23.72C197.886 25.1333 199.259 25.84 201.526 25.84C204.379 25.84 205.952 25.08 206.246 23.56C206.379 22.84 206.072 22.32 205.326 22C204.606 21.68 203.486 21.4133 201.966 21.2C200.872 21.04 199.912 20.8667 199.086 20.68C198.259 20.4933 197.339 20.16 196.326 19.68C195.312 19.2 194.512 18.6267 193.926 17.96C193.339 17.2933 192.899 16.3867 192.606 15.24C192.312 14.0933 192.286 12.7733 192.526 11.28Z" fill="url(#paint16_linear_333_248)"/>
<defs>
<linearGradient id="paint0_linear_333_248" x1="388.695" y1="0" x2="388.695" y2="34" gradientUnits="userSpaceOnUse">
<stop offset="0.206492" stop-color="white"/>
<stop offset="0.478015" stop-color="#FFE7AA" stop-opacity="0"/>
<stop offset="0.689643" stop-color="#FFE7AA"/>
<stop offset="1" stop-color="#FFE7AA" stop-opacity="0"/>
</linearGradient>
<linearGradient id="paint1_linear_333_248" x1="90.8095" y1="38.934" x2="89.0503" y2="2.91696" gradientUnits="userSpaceOnUse">
<stop stop-color="#EBC367"/>
<stop offset="0.206588" stop-color="#FDB242"/>
<stop offset="0.589636" stop-color="#D1891E"/>
<stop offset="0.694186" stop-color="#E1A03F"/>
<stop offset="0.697522" stop-color="#FFDDA9"/>
<stop offset="0.911458" stop-color="#F1BD57"/>
</linearGradient>
<linearGradient id="paint2_linear_333_248" x1="196.898" y1="8.54412" x2="20.6415" y2="49.1948" gradientUnits="userSpaceOnUse">
<stop stop-color="#E6C365" stop-opacity="0"/>
<stop offset="1" stop-color="#E6C365" stop-opacity="0.3"/>
</linearGradient>
<linearGradient id="paint3_linear_333_248" x1="90.8095" y1="38.934" x2="89.0503" y2="2.91696" gradientUnits="userSpaceOnUse">
<stop stop-color="#EBC367"/>
<stop offset="0.206588" stop-color="#FDB242"/>
<stop offset="0.589636" stop-color="#D1891E"/>
<stop offset="0.694186" stop-color="#E1A03F"/>
<stop offset="0.697522" stop-color="#FFDDA9"/>
<stop offset="0.911458" stop-color="#F1BD57"/>
</linearGradient>
<linearGradient id="paint4_linear_333_248" x1="196.898" y1="8.54412" x2="20.6415" y2="49.1948" gradientUnits="userSpaceOnUse">
<stop stop-color="#E6C365" stop-opacity="0"/>
<stop offset="1" stop-color="#E6C365" stop-opacity="0.3"/>
</linearGradient>
<linearGradient id="paint5_linear_333_248" x1="90.8095" y1="38.934" x2="89.0503" y2="2.91696" gradientUnits="userSpaceOnUse">
<stop stop-color="#EBC367"/>
<stop offset="0.206588" stop-color="#FDB242"/>
<stop offset="0.589636" stop-color="#D1891E"/>
<stop offset="0.694186" stop-color="#E1A03F"/>
<stop offset="0.697522" stop-color="#FFDDA9"/>
<stop offset="0.911458" stop-color="#F1BD57"/>
</linearGradient>
<linearGradient id="paint6_linear_333_248" x1="196.898" y1="8.54412" x2="20.6415" y2="49.1948" gradientUnits="userSpaceOnUse">
<stop stop-color="#E6C365" stop-opacity="0"/>
<stop offset="1" stop-color="#E6C365" stop-opacity="0.3"/>
</linearGradient>
<linearGradient id="paint7_linear_333_248" x1="90.8095" y1="38.934" x2="89.0503" y2="2.91696" gradientUnits="userSpaceOnUse">
<stop stop-color="#EBC367"/>
<stop offset="0.206588" stop-color="#FDB242"/>
<stop offset="0.589636" stop-color="#D1891E"/>
<stop offset="0.694186" stop-color="#E1A03F"/>
<stop offset="0.697522" stop-color="#FFDDA9"/>
<stop offset="0.911458" stop-color="#F1BD57"/>
</linearGradient>
<linearGradient id="paint8_linear_333_248" x1="196.898" y1="8.54412" x2="20.6415" y2="49.1948" gradientUnits="userSpaceOnUse">
<stop stop-color="#E6C365" stop-opacity="0"/>
<stop offset="1" stop-color="#E6C365" stop-opacity="0.3"/>
</linearGradient>
<linearGradient id="paint9_linear_333_248" x1="90.8095" y1="38.934" x2="89.0503" y2="2.91696" gradientUnits="userSpaceOnUse">
<stop stop-color="#EBC367"/>
<stop offset="0.206588" stop-color="#FDB242"/>
<stop offset="0.589636" stop-color="#D1891E"/>
<stop offset="0.694186" stop-color="#E1A03F"/>
<stop offset="0.697522" stop-color="#FFDDA9"/>
<stop offset="0.911458" stop-color="#F1BD57"/>
</linearGradient>
<linearGradient id="paint10_linear_333_248" x1="196.898" y1="8.54412" x2="20.6415" y2="49.1948" gradientUnits="userSpaceOnUse">
<stop stop-color="#E6C365" stop-opacity="0"/>
<stop offset="1" stop-color="#E6C365" stop-opacity="0.3"/>
</linearGradient>
<linearGradient id="paint11_linear_333_248" x1="90.8095" y1="38.934" x2="89.0503" y2="2.91696" gradientUnits="userSpaceOnUse">
<stop stop-color="#EBC367"/>
<stop offset="0.206588" stop-color="#FDB242"/>
<stop offset="0.589636" stop-color="#D1891E"/>
<stop offset="0.694186" stop-color="#E1A03F"/>
<stop offset="0.697522" stop-color="#FFDDA9"/>
<stop offset="0.911458" stop-color="#F1BD57"/>
</linearGradient>
<linearGradient id="paint12_linear_333_248" x1="196.898" y1="8.54412" x2="20.6415" y2="49.1948" gradientUnits="userSpaceOnUse">
<stop stop-color="#E6C365" stop-opacity="0"/>
<stop offset="1" stop-color="#E6C365" stop-opacity="0.3"/>
</linearGradient>
<linearGradient id="paint13_linear_333_248" x1="90.8095" y1="38.934" x2="89.0503" y2="2.91696" gradientUnits="userSpaceOnUse">
<stop stop-color="#EBC367"/>
<stop offset="0.206588" stop-color="#FDB242"/>
<stop offset="0.589636" stop-color="#D1891E"/>
<stop offset="0.694186" stop-color="#E1A03F"/>
<stop offset="0.697522" stop-color="#FFDDA9"/>
<stop offset="0.911458" stop-color="#F1BD57"/>
</linearGradient>
<linearGradient id="paint14_linear_333_248" x1="196.898" y1="8.54412" x2="20.6415" y2="49.1948" gradientUnits="userSpaceOnUse">
<stop stop-color="#E6C365" stop-opacity="0"/>
<stop offset="1" stop-color="#E6C365" stop-opacity="0.3"/>
</linearGradient>
<linearGradient id="paint15_linear_333_248" x1="90.8095" y1="38.934" x2="89.0503" y2="2.91696" gradientUnits="userSpaceOnUse">
<stop stop-color="#EBC367"/>
<stop offset="0.206588" stop-color="#FDB242"/>
<stop offset="0.589636" stop-color="#D1891E"/>
<stop offset="0.694186" stop-color="#E1A03F"/>
<stop offset="0.697522" stop-color="#FFDDA9"/>
<stop offset="0.911458" stop-color="#F1BD57"/>
</linearGradient>
<linearGradient id="paint16_linear_333_248" x1="196.898" y1="8.54412" x2="20.6415" y2="49.1948" gradientUnits="userSpaceOnUse">
<stop stop-color="#E6C365" stop-opacity="0"/>
<stop offset="1" stop-color="#E6C365" stop-opacity="0.3"/>
</linearGradient>
</defs>
</svg>
