<svg width="743" height="743" viewBox="0 0 743 743" fill="none" xmlns="http://www.w3.org/2000/svg">
<path fill-rule="evenodd" clip-rule="evenodd" d="M374.987 247.43L371.751 0L368.515 247.408L352.335 0.508749L362.053 247.768L332.971 2.03238L355.614 248.424L313.715 4.56794L349.225 249.457L294.616 8.10727L342.89 250.783L275.73 12.6419L336.643 252.477L257.106 18.1581L330.482 254.459L238.797 24.642L324.446 256.795L220.851 32.0747L318.526 259.412L203.321 40.437L312.767 262.365L186.251 49.7047L307.154 265.587L169.69 59.8537L301.734 269.125L153.682 70.8549L296.49 272.918L138.273 82.6794L291.468 277.001L123.503 95.2936L286.651 281.324L109.415 108.664L282.081 285.907L96.0436 122.753L277.743 290.711L83.43 137.523L273.676 295.746L71.6049 152.932L269.867 300.978L60.6043 168.94L266.346 306.409L50.4547 185.501L263.106 312.012L41.1876 202.57L260.171 317.78L32.8247 220.101L257.537 323.692L25.3926 238.047L255.218 329.735L18.9081 256.356L253.218 335.89L13.3924 274.979L251.542 342.141L8.85727 293.866L250.199 348.473L5.31851 312.964L249.182 354.865L2.78238 332.221L248.511 361.302L1.25931 351.585L248.165 367.765L0.75 371.001L248.174 374.237L1.25931 390.418L248.503 380.701L2.78238 409.781L249.19 387.137L5.3185 429.039L250.191 393.531L8.85727 448.137L251.549 399.859L13.3924 467.024L253.211 406.115L18.9081 485.647L255.225 412.266L25.3926 503.957L257.53 418.314L32.8247 521.901L260.178 424.22L41.1876 539.433L263.1 429.994L50.4547 556.502L266.352 435.59L60.6043 573.063L269.861 441.029L71.6049 589.07L273.682 446.253L83.43 604.48L277.739 451.296L96.0436 619.25L282.085 456.092L109.415 633.339L286.646 460.684L123.503 646.709L291.471 464.998L138.273 659.324L296.487 469.089L153.682 671.148L301.736 472.874L169.69 682.149L307.152 476.419L186.251 692.298L312.769 479.635L203.321 701.566L318.525 482.594L220.851 709.928L324.447 485.205L238.797 717.361L330.481 487.546L257.106 723.844L336.644 489.524L275.73 729.361L342.889 491.222L294.616 733.895L349.225 492.544L313.715 737.435L355.614 493.58L332.971 739.97L362.053 494.234L352.335 741.494L368.515 494.595L371.751 742.002L374.987 494.573L391.169 741.494L381.452 494.256L410.531 739.97L387.887 493.558L429.789 737.435L394.282 492.566L448.887 733.895L400.609 491.201L467.774 729.361L406.866 489.544L486.397 723.844L413.015 487.526L504.707 717.361L419.064 485.224L522.651 709.928L424.97 482.576L540.183 701.566L430.744 479.652L557.252 692.298L436.342 476.403L573.814 682.149L441.777 472.889L589.82 671.148L447.006 469.074L605.231 659.324L452.043 465.011L620 646.709L456.846 460.672L634.09 633.339L461.429 456.102L647.459 619.25L465.753 451.286L660.074 604.48L469.833 446.262L671.898 589.07L473.632 441.021L682.9 573.063L477.161 435.596L693.048 556.502L480.394 429.989L702.317 539.433L483.335 424.224L710.678 521.901L485.966 418.31L718.112 503.956L488.285 412.268L724.594 485.647L490.286 406.113L730.112 467.024L491.959 399.861L734.645 448.137L493.308 393.531L738.186 429.039L494.316 387.137L740.72 409.781L494.998 380.701L742.245 390.418L495.33 374.237L742.752 371.001L495.338 367.765L742.245 351.585L494.99 361.302L740.72 332.221L494.324 354.864L738.186 312.964L493.3 348.474L734.645 293.866L491.967 342.14L730.112 274.979L490.279 335.892L724.594 256.356L488.293 329.732L718.112 238.047L485.959 323.695L710.678 220.101L483.341 317.776L702.317 202.57L480.387 312.017L693.048 185.501L477.167 306.403L682.9 168.94L473.626 300.985L671.898 152.932L469.838 295.737L660.074 137.523L465.749 290.72L647.459 122.753L461.434 285.896L634.09 108.664L456.842 281.335L620 95.2936L452.047 276.988L605.231 82.6794L447.003 272.932L589.82 70.8549L441.78 269.109L573.814 59.8537L436.339 265.604L557.252 49.7047L430.746 262.348L540.183 40.437L424.968 259.43L522.651 32.0747L419.065 256.776L504.707 24.642L413.015 254.479L486.397 18.1581L406.866 252.456L467.774 12.6419L400.609 250.804L448.887 8.10727L394.283 249.435L429.789 4.56795L387.886 248.446L410.531 2.03238L381.452 247.746L391.169 0.508744L374.987 247.43Z" fill="#313A41"/>
<path fill-rule="evenodd" clip-rule="evenodd" d="M374.987 247.43L371.751 0L368.515 247.408L352.335 0.508749L362.053 247.768L332.971 2.03238L355.614 248.424L313.715 4.56794L349.225 249.457L294.616 8.10727L342.89 250.783L275.73 12.6419L336.643 252.477L257.106 18.1581L330.482 254.459L238.797 24.642L324.446 256.795L220.851 32.0747L318.526 259.412L203.321 40.437L312.767 262.365L186.251 49.7047L307.154 265.587L169.69 59.8537L301.734 269.125L153.682 70.8549L296.49 272.918L138.273 82.6794L291.468 277.001L123.503 95.2936L286.651 281.324L109.415 108.664L282.081 285.907L96.0436 122.753L277.743 290.711L83.43 137.523L273.676 295.746L71.6049 152.932L269.867 300.978L60.6043 168.94L266.346 306.409L50.4547 185.501L263.106 312.012L41.1876 202.57L260.171 317.78L32.8247 220.101L257.537 323.692L25.3926 238.047L255.218 329.735L18.9081 256.356L253.218 335.89L13.3924 274.979L251.542 342.141L8.85727 293.866L250.199 348.473L5.31851 312.964L249.182 354.865L2.78238 332.221L248.511 361.302L1.25931 351.585L248.165 367.765L0.75 371.001L248.174 374.237L1.25931 390.418L248.503 380.701L2.78238 409.781L249.19 387.137L5.3185 429.039L250.191 393.531L8.85727 448.137L251.549 399.859L13.3924 467.024L253.211 406.115L18.9081 485.647L255.225 412.266L25.3926 503.957L257.53 418.314L32.8247 521.901L260.178 424.22L41.1876 539.433L263.1 429.994L50.4547 556.502L266.352 435.59L60.6043 573.063L269.861 441.029L71.6049 589.07L273.682 446.253L83.43 604.48L277.739 451.296L96.0436 619.25L282.085 456.092L109.415 633.339L286.646 460.684L123.503 646.709L291.471 464.998L138.273 659.324L296.487 469.089L153.682 671.148L301.736 472.874L169.69 682.149L307.152 476.419L186.251 692.298L312.769 479.635L203.321 701.566L318.525 482.594L220.851 709.928L324.447 485.205L238.797 717.361L330.481 487.546L257.106 723.844L336.644 489.524L275.73 729.361L342.889 491.222L294.616 733.895L349.225 492.544L313.715 737.435L355.614 493.58L332.971 739.97L362.053 494.234L352.335 741.494L368.515 494.595L371.751 742.002L374.987 494.573L391.169 741.494L381.452 494.256L410.531 739.97L387.887 493.558L429.789 737.435L394.282 492.566L448.887 733.895L400.609 491.201L467.774 729.361L406.866 489.544L486.397 723.844L413.015 487.526L504.707 717.361L419.064 485.224L522.651 709.928L424.97 482.576L540.183 701.566L430.744 479.652L557.252 692.298L436.342 476.403L573.814 682.149L441.777 472.889L589.82 671.148L447.006 469.074L605.231 659.324L452.043 465.011L620 646.709L456.846 460.672L634.09 633.339L461.429 456.102L647.459 619.25L465.753 451.286L660.074 604.48L469.833 446.262L671.898 589.07L473.632 441.021L682.9 573.063L477.161 435.596L693.048 556.502L480.394 429.989L702.317 539.433L483.335 424.224L710.678 521.901L485.966 418.31L718.112 503.956L488.285 412.268L724.594 485.647L490.286 406.113L730.112 467.024L491.959 399.861L734.645 448.137L493.308 393.531L738.186 429.039L494.316 387.137L740.72 409.781L494.998 380.701L742.245 390.418L495.33 374.237L742.752 371.001L495.338 367.765L742.245 351.585L494.99 361.302L740.72 332.221L494.324 354.864L738.186 312.964L493.3 348.474L734.645 293.866L491.967 342.14L730.112 274.979L490.279 335.892L724.594 256.356L488.293 329.732L718.112 238.047L485.959 323.695L710.678 220.101L483.341 317.776L702.317 202.57L480.387 312.017L693.048 185.501L477.167 306.403L682.9 168.94L473.626 300.985L671.898 152.932L469.838 295.737L660.074 137.523L465.749 290.72L647.459 122.753L461.434 285.896L634.09 108.664L456.842 281.335L620 95.2936L452.047 276.988L605.231 82.6794L447.003 272.932L589.82 70.8549L441.78 269.109L573.814 59.8537L436.339 265.604L557.252 49.7047L430.746 262.348L540.183 40.437L424.968 259.43L522.651 32.0747L419.065 256.776L504.707 24.642L413.015 254.479L486.397 18.1581L406.866 252.456L467.774 12.6419L400.609 250.804L448.887 8.10727L394.283 249.435L429.789 4.56795L387.886 248.446L410.531 2.03238L381.452 247.746L391.169 0.508744L374.987 247.43Z" fill="url(#paint0_linear_333_260)"/>
<defs>
<linearGradient id="paint0_linear_333_260" x1="371.751" y1="371.001" x2="371.751" y2="742.002" gradientUnits="userSpaceOnUse">
<stop stop-color="#171717" stop-opacity="0"/>
<stop offset="1" stop-color="#171717"/>
</linearGradient>
</defs>
</svg>
