<svg width="529" height="224" viewBox="0 0 529 224" fill="none" xmlns="http://www.w3.org/2000/svg">
<g filter="url(#filter0_d_333_268)">
<path d="M130.12 67.84C132.872 67.84 133.512 69.152 132.04 71.776L100.168 132.64C99.464 133.984 98.728 134.88 97.96 135.328C97.192 135.776 96.072 136 94.6 136H82.504C81.096 136 80.072 135.776 79.432 135.328C78.792 134.88 78.344 134.048 78.088 132.832L67.624 71.776C67.112 69.152 68.264 67.84 71.08 67.84H81.832C84.136 67.84 85.736 68.128 86.632 68.704C87.528 69.28 88.04 70.336 88.168 71.872L91.528 104.704C91.72 106.368 91.816 108.256 91.816 110.368C91.816 112.416 91.784 114.048 91.72 115.264L91.528 117.088H92.392C93.352 112.672 94.696 108.576 96.424 104.8L111.496 71.872C112.2 70.336 113.032 69.28 113.992 68.704C115.016 68.128 116.68 67.84 118.984 67.84H130.12ZM136.426 71.68C136.746 70.208 137.226 69.216 137.866 68.704C138.506 68.128 139.53 67.84 140.938 67.84H152.266C153.738 67.84 154.698 68.128 155.146 68.704C155.594 69.28 155.69 70.272 155.434 71.68L144.778 132.16C144.522 133.568 144.074 134.56 143.434 135.136C142.794 135.712 141.738 136 140.266 136H128.938C127.53 136 126.57 135.744 126.058 135.232C125.61 134.656 125.514 133.632 125.77 132.16L136.426 71.68ZM195.447 67.84C202.935 67.84 208.503 70.176 212.151 74.848C215.799 79.456 216.983 85.6 215.703 93.28C214.423 100.704 211.255 106.272 206.199 109.984C201.207 113.696 194.871 115.552 187.191 115.552H175.479L172.599 131.968C172.279 133.44 171.767 134.496 171.063 135.136C170.423 135.712 169.335 136 167.799 136H156.951C155.415 136 154.391 135.712 153.879 135.136C153.367 134.496 153.271 133.44 153.591 131.968L164.151 71.872C164.471 70.4 164.951 69.376 165.591 68.8C166.295 68.16 167.415 67.84 168.951 67.84H195.447ZM187.863 98.752C190.103 98.752 191.959 98.112 193.431 96.832C194.967 95.552 195.927 93.856 196.311 91.744C196.695 89.568 196.343 87.84 195.255 86.56C194.231 85.28 192.599 84.64 190.359 84.64H180.951L178.455 98.752H187.863Z" fill="url(#paint0_linear_333_268)"/>
<path d="M130.12 67.84C132.872 67.84 133.512 69.152 132.04 71.776L100.168 132.64C99.464 133.984 98.728 134.88 97.96 135.328C97.192 135.776 96.072 136 94.6 136H82.504C81.096 136 80.072 135.776 79.432 135.328C78.792 134.88 78.344 134.048 78.088 132.832L67.624 71.776C67.112 69.152 68.264 67.84 71.08 67.84H81.832C84.136 67.84 85.736 68.128 86.632 68.704C87.528 69.28 88.04 70.336 88.168 71.872L91.528 104.704C91.72 106.368 91.816 108.256 91.816 110.368C91.816 112.416 91.784 114.048 91.72 115.264L91.528 117.088H92.392C93.352 112.672 94.696 108.576 96.424 104.8L111.496 71.872C112.2 70.336 113.032 69.28 113.992 68.704C115.016 68.128 116.68 67.84 118.984 67.84H130.12ZM136.426 71.68C136.746 70.208 137.226 69.216 137.866 68.704C138.506 68.128 139.53 67.84 140.938 67.84H152.266C153.738 67.84 154.698 68.128 155.146 68.704C155.594 69.28 155.69 70.272 155.434 71.68L144.778 132.16C144.522 133.568 144.074 134.56 143.434 135.136C142.794 135.712 141.738 136 140.266 136H128.938C127.53 136 126.57 135.744 126.058 135.232C125.61 134.656 125.514 133.632 125.77 132.16L136.426 71.68ZM195.447 67.84C202.935 67.84 208.503 70.176 212.151 74.848C215.799 79.456 216.983 85.6 215.703 93.28C214.423 100.704 211.255 106.272 206.199 109.984C201.207 113.696 194.871 115.552 187.191 115.552H175.479L172.599 131.968C172.279 133.44 171.767 134.496 171.063 135.136C170.423 135.712 169.335 136 167.799 136H156.951C155.415 136 154.391 135.712 153.879 135.136C153.367 134.496 153.271 133.44 153.591 131.968L164.151 71.872C164.471 70.4 164.951 69.376 165.591 68.8C166.295 68.16 167.415 67.84 168.951 67.84H195.447ZM187.863 98.752C190.103 98.752 191.959 98.112 193.431 96.832C194.967 95.552 195.927 93.856 196.311 91.744C196.695 89.568 196.343 87.84 195.255 86.56C194.231 85.28 192.599 84.64 190.359 84.64H180.951L178.455 98.752H187.863Z" fill="url(#paint1_linear_333_268)"/>
</g>
<g filter="url(#filter1_d_333_268)">
<path d="M128.12 64.84C130.872 64.84 131.512 66.152 130.04 68.776L98.168 129.64C97.464 130.984 96.728 131.88 95.96 132.328C95.192 132.776 94.072 133 92.6 133H80.504C79.096 133 78.072 132.776 77.432 132.328C76.792 131.88 76.344 131.048 76.088 129.832L65.624 68.776C65.112 66.152 66.264 64.84 69.08 64.84H79.832C82.136 64.84 83.736 65.128 84.632 65.704C85.528 66.28 86.04 67.336 86.168 68.872L89.528 101.704C89.72 103.368 89.816 105.256 89.816 107.368C89.816 109.416 89.784 111.048 89.72 112.264L89.528 114.088H90.392C91.352 109.672 92.696 105.576 94.424 101.8L109.496 68.872C110.2 67.336 111.032 66.28 111.992 65.704C113.016 65.128 114.68 64.84 116.984 64.84H128.12ZM134.426 68.68C134.746 67.208 135.226 66.216 135.866 65.704C136.506 65.128 137.53 64.84 138.938 64.84H150.266C151.738 64.84 152.698 65.128 153.146 65.704C153.594 66.28 153.69 67.272 153.434 68.68L142.778 129.16C142.522 130.568 142.074 131.56 141.434 132.136C140.794 132.712 139.738 133 138.266 133H126.938C125.53 133 124.57 132.744 124.058 132.232C123.61 131.656 123.514 130.632 123.77 129.16L134.426 68.68ZM193.447 64.84C200.935 64.84 206.503 67.176 210.151 71.848C213.799 76.456 214.983 82.6 213.703 90.28C212.423 97.704 209.255 103.272 204.199 106.984C199.207 110.696 192.871 112.552 185.191 112.552H173.479L170.599 128.968C170.279 130.44 169.767 131.496 169.063 132.136C168.423 132.712 167.335 133 165.799 133H154.951C153.415 133 152.391 132.712 151.879 132.136C151.367 131.496 151.271 130.44 151.591 128.968L162.151 68.872C162.471 67.4 162.951 66.376 163.591 65.8C164.295 65.16 165.415 64.84 166.951 64.84H193.447ZM185.863 95.752C188.103 95.752 189.959 95.112 191.431 93.832C192.967 92.552 193.927 90.856 194.311 88.744C194.695 86.568 194.343 84.84 193.255 83.56C192.231 82.28 190.599 81.64 188.359 81.64H178.951L176.455 95.752H185.863Z" fill="url(#paint2_linear_333_268)" shape-rendering="crispEdges"/>
<path d="M128.12 64.84C130.872 64.84 131.512 66.152 130.04 68.776L98.168 129.64C97.464 130.984 96.728 131.88 95.96 132.328C95.192 132.776 94.072 133 92.6 133H80.504C79.096 133 78.072 132.776 77.432 132.328C76.792 131.88 76.344 131.048 76.088 129.832L65.624 68.776C65.112 66.152 66.264 64.84 69.08 64.84H79.832C82.136 64.84 83.736 65.128 84.632 65.704C85.528 66.28 86.04 67.336 86.168 68.872L89.528 101.704C89.72 103.368 89.816 105.256 89.816 107.368C89.816 109.416 89.784 111.048 89.72 112.264L89.528 114.088H90.392C91.352 109.672 92.696 105.576 94.424 101.8L109.496 68.872C110.2 67.336 111.032 66.28 111.992 65.704C113.016 65.128 114.68 64.84 116.984 64.84H128.12ZM134.426 68.68C134.746 67.208 135.226 66.216 135.866 65.704C136.506 65.128 137.53 64.84 138.938 64.84H150.266C151.738 64.84 152.698 65.128 153.146 65.704C153.594 66.28 153.69 67.272 153.434 68.68L142.778 129.16C142.522 130.568 142.074 131.56 141.434 132.136C140.794 132.712 139.738 133 138.266 133H126.938C125.53 133 124.57 132.744 124.058 132.232C123.61 131.656 123.514 130.632 123.77 129.16L134.426 68.68ZM193.447 64.84C200.935 64.84 206.503 67.176 210.151 71.848C213.799 76.456 214.983 82.6 213.703 90.28C212.423 97.704 209.255 103.272 204.199 106.984C199.207 110.696 192.871 112.552 185.191 112.552H173.479L170.599 128.968C170.279 130.44 169.767 131.496 169.063 132.136C168.423 132.712 167.335 133 165.799 133H154.951C153.415 133 152.391 132.712 151.879 132.136C151.367 131.496 151.271 130.44 151.591 128.968L162.151 68.872C162.471 67.4 162.951 66.376 163.591 65.8C164.295 65.16 165.415 64.84 166.951 64.84H193.447ZM185.863 95.752C188.103 95.752 189.959 95.112 191.431 93.832C192.967 92.552 193.927 90.856 194.311 88.744C194.695 86.568 194.343 84.84 193.255 83.56C192.231 82.28 190.599 81.64 188.359 81.64H178.951L176.455 95.752H185.863Z" fill="url(#paint3_linear_333_268)" shape-rendering="crispEdges"/>
<path d="M130.04 68.776L129.822 68.6536L129.819 68.66L130.04 68.776ZM98.168 129.64L98.3895 129.756L98.3895 129.756L98.168 129.64ZM77.432 132.328L77.2886 132.533L77.2886 132.533L77.432 132.328ZM76.088 129.832L75.8414 129.874L75.8434 129.884L76.088 129.832ZM65.624 68.776L65.8705 68.7338L65.8694 68.7281L65.624 68.776ZM86.168 68.872L85.9188 68.8928L85.9193 68.8974L86.168 68.872ZM89.528 101.704L89.2793 101.729L89.2796 101.733L89.528 101.704ZM89.72 112.264L89.969 112.29L89.9697 112.277L89.72 112.264ZM89.528 114.088L89.2794 114.062L89.2503 114.338H89.528V114.088ZM90.392 114.088V114.338H90.5935L90.6363 114.141L90.392 114.088ZM94.424 101.8L94.1967 101.696L94.1967 101.696L94.424 101.8ZM109.496 68.872L109.269 68.7678L109.269 68.7679L109.496 68.872ZM111.992 65.704L111.869 65.486L111.863 65.4896L111.992 65.704ZM128.12 65.09C129.486 65.09 130.189 65.4199 130.439 65.9336C130.567 66.1956 130.6 66.5445 130.503 67.0023C130.407 67.4605 130.183 68.0099 129.822 68.6537L130.258 68.8983C130.633 68.23 130.881 67.6314 130.993 67.1057C131.104 66.5795 131.081 66.1084 130.889 65.7144C130.499 64.9161 129.506 64.59 128.12 64.59V65.09ZM129.819 68.66L97.9465 129.524L98.3895 129.756L130.261 68.892L129.819 68.66ZM97.9465 129.524C97.2507 130.852 96.5419 131.699 95.834 132.112L96.086 132.544C96.9141 132.061 97.6773 131.116 98.3895 129.756L97.9465 129.524ZM95.834 132.112C95.1217 132.528 94.0536 132.75 92.6 132.75V133.25C94.0904 133.25 95.2623 133.024 96.086 132.544L95.834 132.112ZM92.6 132.75H80.504V133.25H92.6V132.75ZM80.504 132.75C79.1114 132.75 78.1513 132.526 77.5754 132.123L77.2886 132.533C77.9927 133.026 79.0806 133.25 80.504 133.25V132.75ZM77.5754 132.123C77.0107 131.728 76.5829 130.969 76.3326 129.78L75.8434 129.884C76.1051 131.127 76.5733 132.032 77.2886 132.533L77.5754 132.123ZM76.3344 129.79L65.8704 68.7338L65.3776 68.8182L75.8416 129.874L76.3344 129.79ZM65.8694 68.7281C65.6201 67.4508 65.7895 66.5611 66.2919 65.9889C66.7979 65.4126 67.7008 65.09 69.08 65.09V64.59C67.6432 64.59 66.5621 64.9233 65.9161 65.659C65.2665 66.3989 65.1159 67.4771 65.3786 68.8239L65.8694 68.7281ZM69.08 65.09H79.832V64.59H69.08V65.09ZM79.832 65.09C82.1322 65.09 83.6668 65.3807 84.4968 65.9143L84.7672 65.4937C83.8052 64.8753 82.1398 64.59 79.832 64.59V65.09ZM84.4968 65.9143C85.3019 66.4319 85.7943 67.398 85.9189 68.8928L86.4171 68.8512C86.2857 67.274 85.7541 66.1281 84.7672 65.4937L84.4968 65.9143ZM85.9193 68.8974L89.2793 101.729L89.7767 101.679L86.4167 68.8465L85.9193 68.8974ZM89.2796 101.733C89.4703 103.385 89.566 105.263 89.566 107.368H90.066C90.066 105.249 89.9697 103.351 89.7764 101.675L89.2796 101.733ZM89.566 107.368C89.566 109.414 89.534 111.041 89.4703 112.251L89.9697 112.277C90.034 111.055 90.066 109.418 90.066 107.368H89.566ZM89.4714 112.238L89.2794 114.062L89.7766 114.114L89.9686 112.29L89.4714 112.238ZM89.528 114.338H90.392V113.838H89.528V114.338ZM90.6363 114.141C91.5928 109.741 92.9314 105.662 94.6513 101.904L94.1967 101.696C92.4606 105.49 91.1112 109.603 90.1477 114.035L90.6363 114.141ZM94.6513 101.904L109.723 68.976L109.269 68.7679L94.1967 101.696L94.6513 101.904ZM109.723 68.9762C110.416 67.4641 111.221 66.4583 112.121 65.9184L111.863 65.4896C110.843 66.1017 109.984 67.2079 109.269 68.7678L109.723 68.9762ZM112.115 65.9219C113.08 65.3789 114.689 65.09 116.984 65.09V64.59C114.671 64.59 112.952 64.8771 111.869 65.4861L112.115 65.9219ZM116.984 65.09H128.12V64.59H116.984V65.09ZM134.426 68.68L134.182 68.6268L134.18 68.6366L134.426 68.68ZM135.866 65.704L136.022 65.8992L136.028 65.8947L136.033 65.8898L135.866 65.704ZM153.434 68.68L153.188 68.6353L153.188 68.6366L153.434 68.68ZM142.778 129.16L143.024 129.205L143.024 129.203L142.778 129.16ZM124.058 132.232L123.861 132.385L123.87 132.398L123.881 132.409L124.058 132.232ZM123.77 129.16L123.524 129.117L123.524 129.117L123.77 129.16ZM134.67 68.7331C134.987 67.2759 135.452 66.3557 136.022 65.8992L135.71 65.5088C135 66.0763 134.505 67.1401 134.182 68.6269L134.67 68.7331ZM136.033 65.8898C136.606 65.3745 137.555 65.09 138.938 65.09V64.59C137.505 64.59 136.406 64.8815 135.699 65.5182L136.033 65.8898ZM138.938 65.09H150.266V64.59H138.938V65.09ZM150.266 65.09C150.988 65.09 151.57 65.1609 152.018 65.2955C152.467 65.43 152.766 65.6233 152.949 65.8575L153.343 65.5505C153.078 65.2087 152.673 64.97 152.162 64.8165C151.65 64.6631 151.016 64.59 150.266 64.59V65.09ZM152.949 65.8575C153.326 66.3426 153.442 67.2373 153.188 68.6353L153.68 68.7247C153.938 67.3067 153.862 66.2174 153.343 65.5505L152.949 65.8575ZM153.188 68.6366L142.532 129.117L143.024 129.203L153.68 68.7234L153.188 68.6366ZM142.532 129.115C142.28 130.502 141.846 131.429 141.267 131.95L141.601 132.322C142.302 131.691 142.764 130.634 143.024 129.205L142.532 129.115ZM141.267 131.95C140.696 132.464 139.717 132.75 138.266 132.75V133.25C139.759 133.25 140.892 132.96 141.601 132.322L141.267 131.95ZM138.266 132.75H126.938V133.25H138.266V132.75ZM126.938 132.75C125.541 132.75 124.672 132.492 124.235 132.055L123.881 132.409C124.468 132.996 125.519 133.25 126.938 133.25V132.75ZM124.255 132.079C124.07 131.841 123.944 131.492 123.899 131.009C123.854 130.526 123.891 129.926 124.016 129.203L123.524 129.117C123.393 129.866 123.35 130.514 123.401 131.055C123.452 131.596 123.598 132.047 123.861 132.385L124.255 132.079ZM124.016 129.203L134.672 68.7234L134.18 68.6366L123.524 129.117L124.016 129.203ZM210.151 71.848L209.954 72.0019L209.955 72.0032L210.151 71.848ZM213.703 90.28L213.95 90.3225L213.95 90.3211L213.703 90.28ZM204.199 106.984L204.051 106.782L204.05 106.783L204.199 106.984ZM173.479 112.552V112.302H173.269L173.233 112.509L173.479 112.552ZM170.599 128.968L170.844 129.021L170.845 129.011L170.599 128.968ZM169.063 132.136L169.23 132.322L169.231 132.321L169.063 132.136ZM151.879 132.136L151.684 132.292L151.692 132.302L151.879 132.136ZM151.591 128.968L151.836 129.021L151.837 129.011L151.591 128.968ZM162.151 68.872L161.907 68.8188L161.905 68.8287L162.151 68.872ZM163.591 65.8L163.758 65.9858L163.759 65.985L163.591 65.8ZM191.431 93.832L191.271 93.6399L191.267 93.6433L191.431 93.832ZM194.311 88.744L194.557 88.7887L194.557 88.7874L194.311 88.744ZM193.255 83.56L193.06 83.7162L193.065 83.7219L193.255 83.56ZM178.951 81.64V81.39H178.742L178.705 81.5965L178.951 81.64ZM176.455 95.752L176.209 95.7085L176.157 96.002H176.455V95.752ZM193.447 65.09C200.881 65.09 206.366 67.4061 209.954 72.0019L210.348 71.6941C206.641 66.9459 200.99 64.59 193.447 64.59V65.09ZM209.955 72.0032C213.546 76.5394 214.729 82.6047 213.457 90.2389L213.95 90.3211C215.237 82.5953 214.052 76.3726 210.347 71.6928L209.955 72.0032ZM213.457 90.2375C212.186 97.6114 209.045 103.116 204.051 106.782L204.347 107.186C209.466 103.428 212.661 97.7966 213.95 90.3225L213.457 90.2375ZM204.05 106.783C199.11 110.456 192.83 112.302 185.191 112.302V112.802C192.912 112.802 199.304 110.936 204.348 107.185L204.05 106.783ZM185.191 112.302H173.479V112.802H185.191V112.302ZM173.233 112.509L170.353 128.925L170.845 129.011L173.725 112.595L173.233 112.509ZM170.355 128.915C170.04 130.363 169.544 131.361 168.895 131.951L169.231 132.321C169.99 131.631 170.518 130.517 170.844 129.021L170.355 128.915ZM168.896 131.95C168.326 132.463 167.317 132.75 165.799 132.75V133.25C167.353 133.25 168.52 132.961 169.23 132.322L168.896 131.95ZM165.799 132.75H154.951V133.25H165.799V132.75ZM154.951 132.75C153.424 132.75 152.501 132.459 152.066 131.97L151.692 132.302C152.282 132.965 153.407 133.25 154.951 133.25V132.75ZM152.074 131.98C151.637 131.433 151.519 130.477 151.836 129.021L151.347 128.915C151.023 130.403 151.098 131.559 151.684 132.292L152.074 131.98ZM151.837 129.011L162.397 68.9153L161.905 68.8287L151.345 128.925L151.837 129.011ZM162.396 68.9251C162.712 67.4703 163.177 66.509 163.758 65.9858L163.424 65.6142C162.725 66.243 162.231 67.3297 161.907 68.8189L162.396 68.9251ZM163.759 65.985C164.396 65.406 165.441 65.09 166.951 65.09V64.59C165.389 64.59 164.194 64.914 163.423 65.615L163.759 65.985ZM166.951 65.09H193.447V64.59H166.951V65.09ZM185.863 96.002C188.154 96.002 190.071 95.346 191.595 94.0206L191.267 93.6433C189.847 94.878 188.052 95.502 185.863 95.502V96.002ZM191.591 94.0241C193.176 92.7037 194.164 90.9538 194.557 88.7887L194.065 88.6993C193.691 90.7582 192.759 92.4003 191.271 93.6399L191.591 94.0241ZM194.557 88.7874C194.95 86.5629 194.596 84.7515 193.446 83.3981L193.065 83.7219C194.09 84.9285 194.44 86.5731 194.065 88.7006L194.557 88.7874ZM193.45 83.4038C192.363 82.0447 190.646 81.39 188.359 81.39V81.89C190.553 81.89 192.099 82.5153 193.06 83.7162L193.45 83.4038ZM188.359 81.39H178.951V81.89H188.359V81.39ZM178.705 81.5965L176.209 95.7085L176.701 95.7955L179.197 81.6835L178.705 81.5965ZM176.455 96.002H185.863V95.502H176.455V96.002Z" fill="url(#paint4_linear_333_268)"/>
</g>
<path d="M302.184 64.84C303.72 64.84 304.744 65.16 305.256 65.8C305.768 66.376 305.896 67.4 305.64 68.872L294.984 128.968C294.728 130.44 294.248 131.496 293.544 132.136C292.84 132.712 291.72 133 290.184 133H279.624C277.896 133 276.712 132.36 276.072 131.08L265.416 108.328C264.008 105.256 262.952 102.344 262.248 99.592C261.608 96.776 261 93.096 260.424 88.552H259.656C260.168 97.768 259.784 106.024 258.504 113.32L255.72 128.968C255.4 130.44 254.888 131.496 254.184 132.136C253.544 132.712 252.456 133 250.92 133H240.84C239.304 133 238.28 132.712 237.768 132.136C237.256 131.496 237.16 130.44 237.48 128.968L248.04 68.872C248.36 67.4 248.84 66.376 249.48 65.8C250.184 65.16 251.304 64.84 252.84 64.84H263.784C265.64 64.84 266.888 65.48 267.528 66.76L278.856 91.336C280.456 94.728 282.12 100.584 283.848 108.904H284.616C283.912 103.336 283.528 99.272 283.464 96.712C283.464 94.152 283.848 90.12 284.616 84.616L287.4 68.872C287.656 67.4 288.104 66.376 288.744 65.8C289.448 65.16 290.568 64.84 292.104 64.84H302.184ZM359.51 64.84C361.046 64.84 362.07 65.16 362.582 65.8C363.094 66.376 363.222 67.4 362.966 68.872L361.43 77.512C361.174 79.048 360.662 80.136 359.894 80.776C359.19 81.352 358.102 81.64 356.63 81.64H331.286L329.27 92.776H349.526C351.062 92.776 352.054 93.096 352.502 93.736C353.014 94.312 353.142 95.336 352.886 96.808L351.35 105.448C351.094 106.984 350.614 108.072 349.91 108.712C349.206 109.288 348.086 109.576 346.55 109.576H326.39L322.934 128.968C322.614 130.44 322.102 131.496 321.398 132.136C320.758 132.712 319.67 133 318.134 133H307.286C305.75 133 304.726 132.712 304.214 132.136C303.702 131.496 303.606 130.44 303.926 128.968L314.486 68.872C314.806 67.4 315.286 66.376 315.926 65.8C316.63 65.16 317.75 64.84 319.286 64.84H359.51ZM417.6 64.84C419.136 64.84 420.16 65.16 420.672 65.8C421.184 66.376 421.28 67.4 420.96 68.872L419.424 77.512C419.168 79.048 418.688 80.136 417.984 80.776C417.28 81.352 416.16 81.64 414.624 81.64H400.416L392.064 128.968C391.744 130.44 391.232 131.496 390.528 132.136C389.888 132.712 388.8 133 387.264 133H376.416C374.88 133 373.856 132.712 373.344 132.136C372.832 131.496 372.736 130.44 373.056 128.968L381.408 81.64H367.104C365.568 81.64 364.544 81.352 364.032 80.776C363.584 80.136 363.488 79.048 363.744 77.512L365.28 68.872C365.6 67.4 366.08 66.376 366.72 65.8C367.424 65.16 368.544 64.84 370.08 64.84H417.6Z" fill="url(#paint5_linear_333_268)"/>
<path d="M305.256 65.8L305.139 65.8938L305.144 65.8997L305.256 65.8ZM305.64 68.872L305.788 68.8982L305.788 68.8977L305.64 68.872ZM294.984 128.968L294.836 128.942L294.836 128.942L294.984 128.968ZM293.544 132.136L293.639 132.252L293.645 132.247L293.544 132.136ZM276.072 131.08L275.936 131.144L275.938 131.147L276.072 131.08ZM265.416 108.328L265.28 108.39L265.28 108.392L265.416 108.328ZM262.248 99.592L262.102 99.6253L262.103 99.6292L262.248 99.592ZM260.424 88.552L260.573 88.5331L260.556 88.402H260.424V88.552ZM259.656 88.552V88.402H259.497L259.506 88.5603L259.656 88.552ZM258.504 113.32L258.652 113.346L258.652 113.346L258.504 113.32ZM255.72 128.968L255.867 129L255.868 128.994L255.72 128.968ZM254.184 132.136L254.284 132.247L254.285 132.247L254.184 132.136ZM237.768 132.136L237.651 132.23L237.656 132.236L237.768 132.136ZM237.48 128.968L237.627 129L237.628 128.994L237.48 128.968ZM248.04 68.872L247.893 68.8401L247.892 68.846L248.04 68.872ZM249.48 65.8L249.58 65.9115L249.581 65.911L249.48 65.8ZM267.528 66.76L267.664 66.6972L267.662 66.6929L267.528 66.76ZM278.856 91.336L278.72 91.3988L278.72 91.4L278.856 91.336ZM283.848 108.904L283.701 108.935L283.726 109.054H283.848V108.904ZM284.616 108.904V109.054H284.786L284.765 108.885L284.616 108.904ZM283.464 96.712H283.314L283.314 96.7157L283.464 96.712ZM284.616 84.616L284.468 84.5899L284.467 84.5953L284.616 84.616ZM287.4 68.872L287.548 68.8981L287.548 68.8977L287.4 68.872ZM288.744 65.8L288.844 65.9115L288.845 65.911L288.744 65.8ZM302.184 64.99C303.711 64.99 304.672 65.3106 305.139 65.8937L305.373 65.7063C304.816 65.0094 303.729 64.69 302.184 64.69V64.99ZM305.144 65.8997C305.607 66.4202 305.747 67.3807 305.492 68.8463L305.788 68.8977C306.045 67.4193 305.929 66.3318 305.368 65.7003L305.144 65.8997ZM305.492 68.8458L294.836 128.942L295.132 128.994L305.788 68.8982L305.492 68.8458ZM294.836 128.942C294.583 130.399 294.112 131.417 293.443 132.025L293.645 132.247C294.384 131.575 294.873 130.481 295.132 128.994L294.836 128.942ZM293.449 132.02C292.785 132.563 291.707 132.85 290.184 132.85V133.15C291.733 133.15 292.895 132.861 293.639 132.252L293.449 132.02ZM290.184 132.85H279.624V133.15H290.184V132.85ZM279.624 132.85C278.778 132.85 278.076 132.693 277.511 132.388C276.948 132.084 276.513 131.627 276.206 131.013L275.938 131.147C276.271 131.813 276.748 132.316 277.369 132.652C277.988 132.987 278.742 133.15 279.624 133.15V132.85ZM276.208 131.016L265.552 108.264L265.28 108.392L275.936 131.144L276.208 131.016ZM265.552 108.266C264.147 105.2 263.095 102.297 262.393 99.5548L262.103 99.6292C262.809 102.391 263.869 105.312 265.28 108.39L265.552 108.266ZM262.394 99.5588C261.756 96.7494 261.149 93.0747 260.573 88.5331L260.275 88.5709C260.851 93.1173 261.46 96.8026 262.102 99.6252L262.394 99.5588ZM260.424 88.402H259.656V88.702H260.424V88.402ZM259.506 88.5603C260.018 97.7675 259.634 106.012 258.356 113.294L258.652 113.346C259.934 106.036 260.318 97.7685 259.806 88.5437L259.506 88.5603ZM258.356 113.294L255.572 128.942L255.868 128.994L258.652 113.346L258.356 113.294ZM255.573 128.936C255.256 130.394 254.754 131.415 254.083 132.025L254.285 132.247C255.022 131.577 255.544 130.486 255.867 129L255.573 128.936ZM254.084 132.025C253.486 132.562 252.445 132.85 250.92 132.85V133.15C252.467 133.15 253.602 132.862 254.284 132.247L254.084 132.025ZM250.92 132.85H240.84V133.15H250.92V132.85ZM240.84 132.85C239.309 132.85 238.346 132.56 237.88 132.036L237.656 132.236C238.214 132.864 239.299 133.15 240.84 133.15V132.85ZM237.885 132.042C237.418 131.458 237.309 130.462 237.627 129L237.333 128.936C237.011 130.418 237.094 131.534 237.651 132.23L237.885 132.042ZM237.628 128.994L248.188 68.898L247.892 68.846L237.332 128.942L237.628 128.994ZM248.187 68.9039C248.504 67.4422 248.976 66.4558 249.58 65.9115L249.38 65.6885C248.704 66.2962 248.216 67.3578 247.893 68.8401L248.187 68.9039ZM249.581 65.911C250.245 65.3076 251.32 64.99 252.84 64.99V64.69C251.288 64.69 250.123 65.0124 249.379 65.689L249.581 65.911ZM252.84 64.99H263.784V64.69H252.84V64.99ZM263.784 64.99C265.603 64.99 266.787 65.6136 267.394 66.8271L267.662 66.6929C266.989 65.3464 265.677 64.69 263.784 64.69V64.99ZM267.392 66.8228L278.72 91.3988L278.992 91.2732L267.664 66.6972L267.392 66.8228ZM278.72 91.4C280.312 94.7746 281.973 100.615 283.701 108.935L283.995 108.873C282.267 100.553 280.6 94.6814 278.992 91.272L278.72 91.4ZM283.848 109.054H284.616V108.754H283.848V109.054ZM284.765 108.885C284.061 103.318 283.678 99.2601 283.614 96.7082L283.314 96.7157C283.378 99.2838 283.763 103.354 284.467 108.923L284.765 108.885ZM283.614 96.712C283.614 94.1631 283.997 90.1399 284.765 84.6367L284.467 84.5953C283.699 90.1001 283.314 94.1409 283.314 96.712H283.614ZM284.764 84.6421L287.548 68.8981L287.252 68.8459L284.468 84.5899L284.764 84.6421ZM287.548 68.8977C287.802 67.4369 288.242 66.4537 288.844 65.9115L288.644 65.6885C287.966 66.2983 287.51 67.3631 287.252 68.8463L287.548 68.8977ZM288.845 65.911C289.509 65.3076 290.584 64.99 292.104 64.99V64.69C290.552 64.69 289.387 65.0124 288.643 65.689L288.845 65.911ZM292.104 64.99H302.184V64.69H292.104V64.99ZM362.582 65.8L362.465 65.8938L362.47 65.8996L362.582 65.8ZM362.966 68.872L363.114 68.8983L363.114 68.8977L362.966 68.872ZM361.43 77.512L361.283 77.4857L361.282 77.4873L361.43 77.512ZM359.894 80.776L359.989 80.8921L359.99 80.8912L359.894 80.776ZM331.286 81.64V81.49H331.161L331.139 81.6133L331.286 81.64ZM329.27 92.776L329.123 92.7493L329.091 92.926H329.27V92.776ZM352.502 93.736L352.379 93.822L352.384 93.8291L352.39 93.8357L352.502 93.736ZM352.886 96.808L353.034 96.8343L353.034 96.8337L352.886 96.808ZM351.35 105.448L351.203 105.422L351.202 105.423L351.35 105.448ZM349.91 108.712L350.005 108.828L350.011 108.823L349.91 108.712ZM326.39 109.576V109.426H326.265L326.243 109.55L326.39 109.576ZM322.934 128.968L323.081 129L323.082 128.994L322.934 128.968ZM321.398 132.136L321.499 132.247L321.499 132.247L321.398 132.136ZM304.214 132.136L304.097 132.23L304.102 132.236L304.214 132.136ZM303.926 128.968L304.073 129L304.074 128.994L303.926 128.968ZM314.486 68.872L314.34 68.8401L314.339 68.846L314.486 68.872ZM315.926 65.8L316.027 65.9115L316.027 65.911L315.926 65.8ZM359.51 64.99C361.038 64.99 361.999 65.3106 362.465 65.8937L362.699 65.7063C362.142 65.0094 361.055 64.69 359.51 64.69V64.99ZM362.47 65.8996C362.933 66.4202 363.073 67.3807 362.818 68.8463L363.114 68.8977C363.371 67.4193 363.256 66.3318 362.694 65.7003L362.47 65.8996ZM362.819 68.8457L361.283 77.4857L361.578 77.5383L363.114 68.8983L362.819 68.8457ZM361.282 77.4873C361.029 79.0067 360.527 80.0536 359.798 80.6608L359.99 80.8912C360.798 80.2184 361.319 79.0893 361.578 77.5367L361.282 77.4873ZM359.799 80.6599C359.134 81.204 358.088 81.49 356.63 81.49V81.79C358.117 81.79 359.246 81.5 359.989 80.8921L359.799 80.6599ZM356.63 81.49H331.286V81.79H356.63V81.49ZM331.139 81.6133L329.123 92.7493L329.418 92.8027L331.434 81.6667L331.139 81.6133ZM329.27 92.926H349.526V92.626H329.27V92.926ZM349.526 92.926C351.057 92.926 351.978 93.248 352.379 93.822L352.625 93.65C352.131 92.944 351.067 92.626 349.526 92.626V92.926ZM352.39 93.8357C352.853 94.3562 352.993 95.3167 352.738 96.7823L353.034 96.8337C353.291 95.3553 353.176 94.2678 352.614 93.6363L352.39 93.8357ZM352.739 96.7817L351.203 105.422L351.498 105.474L353.034 96.8343L352.739 96.7817ZM351.202 105.423C350.949 106.946 350.477 107.994 349.809 108.601L350.011 108.823C350.752 108.15 351.24 107.022 351.498 105.473L351.202 105.423ZM349.815 108.596C349.151 109.139 348.073 109.426 346.55 109.426V109.726C348.099 109.726 349.261 109.437 350.005 108.828L349.815 108.596ZM346.55 109.426H326.39V109.726H346.55V109.426ZM326.243 109.55L322.787 128.942L323.082 128.994L326.538 109.602L326.243 109.55ZM322.788 128.936C322.471 130.394 321.968 131.415 321.297 132.025L321.499 132.247C322.236 131.577 322.758 130.486 323.081 129L322.788 128.936ZM321.298 132.025C320.7 132.562 319.659 132.85 318.134 132.85V133.15C319.681 133.15 320.816 132.862 321.499 132.247L321.298 132.025ZM318.134 132.85H307.286V133.15H318.134V132.85ZM307.286 132.85C305.755 132.85 304.792 132.56 304.326 132.036L304.102 132.236C304.661 132.864 305.745 133.15 307.286 133.15V132.85ZM304.331 132.042C303.864 131.458 303.755 130.462 304.073 129L303.78 128.936C303.458 130.418 303.54 131.534 304.097 132.23L304.331 132.042ZM304.074 128.994L314.634 68.898L314.339 68.846L303.779 128.942L304.074 128.994ZM314.633 68.9039C314.951 67.4422 315.422 66.4558 316.027 65.9115L315.826 65.6885C315.151 66.2962 314.662 67.3578 314.34 68.8401L314.633 68.9039ZM316.027 65.911C316.691 65.3076 317.766 64.99 319.286 64.99V64.69C317.735 64.69 316.57 65.0124 315.825 65.689L316.027 65.911ZM319.286 64.99H359.51V64.69H319.286V64.99ZM420.672 65.8L420.555 65.8938L420.56 65.8997L420.672 65.8ZM420.96 68.872L420.813 68.8401L420.812 68.8457L420.96 68.872ZM419.424 77.512L419.276 77.4857L419.276 77.4873L419.424 77.512ZM417.984 80.776L418.079 80.8922L418.085 80.887L417.984 80.776ZM400.416 81.64V81.49H400.29L400.268 81.6139L400.416 81.64ZM392.064 128.968L392.211 129L392.212 128.994L392.064 128.968ZM390.528 132.136L390.628 132.247L390.629 132.247L390.528 132.136ZM373.344 132.136L373.227 132.23L373.232 132.236L373.344 132.136ZM373.056 128.968L373.203 129L373.204 128.994L373.056 128.968ZM381.408 81.64L381.556 81.6661L381.587 81.49H381.408V81.64ZM364.032 80.776L363.909 80.862L363.914 80.8691L363.92 80.8757L364.032 80.776ZM363.744 77.512L363.596 77.4857L363.596 77.4873L363.744 77.512ZM365.28 68.872L365.133 68.8401L365.132 68.8457L365.28 68.872ZM366.72 65.8L366.82 65.9115L366.821 65.911L366.72 65.8ZM417.6 64.99C419.127 64.99 420.088 65.3106 420.555 65.8937L420.789 65.7063C420.232 65.0094 419.145 64.69 417.6 64.69V64.99ZM420.56 65.8997C421.02 66.417 421.132 67.3737 420.813 68.8401L421.107 68.9039C421.428 67.4263 421.348 66.335 420.784 65.7003L420.56 65.8997ZM420.812 68.8457L419.276 77.4857L419.572 77.5383L421.108 68.8983L420.812 68.8457ZM419.276 77.4873C419.022 79.0096 418.551 80.0581 417.883 80.665L418.085 80.887C418.825 80.2139 419.314 79.0864 419.572 77.5367L419.276 77.4873ZM417.889 80.6599C417.225 81.2033 416.147 81.49 414.624 81.49V81.79C416.173 81.79 417.335 81.5007 418.079 80.8921L417.889 80.6599ZM414.624 81.49H400.416V81.79H414.624V81.49ZM400.268 81.6139L391.916 128.942L392.212 128.994L400.564 81.6661L400.268 81.6139ZM391.917 128.936C391.6 130.394 391.098 131.415 390.427 132.025L390.629 132.247C391.366 131.577 391.888 130.486 392.211 129L391.917 128.936ZM390.428 132.025C389.83 132.562 388.789 132.85 387.264 132.85V133.15C388.811 133.15 389.946 132.862 390.628 132.247L390.428 132.025ZM387.264 132.85H376.416V133.15H387.264V132.85ZM376.416 132.85C374.885 132.85 373.922 132.56 373.456 132.036L373.232 132.236C373.79 132.864 374.875 133.15 376.416 133.15V132.85ZM373.461 132.042C372.994 131.458 372.885 130.462 373.203 129L372.909 128.936C372.587 130.418 372.67 131.534 373.227 132.23L373.461 132.042ZM373.204 128.994L381.556 81.6661L381.26 81.6139L372.908 128.942L373.204 128.994ZM381.408 81.49H367.104V81.79H381.408V81.49ZM367.104 81.49C365.573 81.49 364.61 81.2002 364.144 80.6763L363.92 80.8757C364.478 81.5038 365.563 81.79 367.104 81.79V81.49ZM364.155 80.69C363.743 80.102 363.637 79.0673 363.892 77.5367L363.596 77.4873C363.339 79.0287 363.425 80.17 363.909 80.862L364.155 80.69ZM363.892 77.5383L365.428 68.8983L365.132 68.8457L363.596 77.4857L363.892 77.5383ZM365.427 68.9039C365.744 67.4422 366.216 66.4558 366.82 65.9115L366.62 65.6885C365.944 66.2962 365.456 67.3578 365.133 68.8401L365.427 68.9039ZM366.821 65.911C367.485 65.3076 368.56 64.99 370.08 64.99V64.69C368.528 64.69 367.363 65.0124 366.619 65.689L366.821 65.911ZM370.08 64.99H417.6V64.69H370.08V64.99Z" fill="url(#paint6_linear_333_268)"/>
<path d="M197.336 152.84C204.824 152.84 210.392 155.176 214.04 159.848C217.688 164.456 218.872 170.6 217.592 178.28C216.312 185.704 213.144 191.272 208.088 194.984C203.096 198.696 196.76 200.552 189.08 200.552H177.368L174.488 216.968C174.168 218.44 173.656 219.496 172.952 220.136C172.312 220.712 171.224 221 169.688 221H158.84C157.304 221 156.28 220.712 155.768 220.136C155.256 219.496 155.16 218.44 155.48 216.968L166.04 156.872C166.36 155.4 166.84 154.376 167.48 153.8C168.184 153.16 169.304 152.84 170.84 152.84H197.336ZM189.752 183.752C191.992 183.752 193.848 183.112 195.32 181.832C196.856 180.552 197.816 178.856 198.2 176.744C198.584 174.568 198.232 172.84 197.144 171.56C196.12 170.28 194.488 169.64 192.248 169.64H182.84L180.344 183.752H189.752ZM272.663 217.064C273.175 219.688 271.991 221 269.111 221H259.127C256.759 221 255.127 220.712 254.231 220.136C253.335 219.56 252.823 218.504 252.695 216.968L251.735 210.056H230.903L227.543 216.968C226.775 218.504 225.879 219.56 224.855 220.136C223.831 220.712 222.167 221 219.863 221H209.303C206.615 221 206.007 219.688 207.479 217.064L240.311 156.2C241.015 154.856 241.751 153.96 242.519 153.512C243.287 153.064 244.407 152.84 245.879 152.84H256.727C258.135 152.84 259.159 153.064 259.799 153.512C260.503 153.96 260.983 154.792 261.239 156.008L272.663 217.064ZM248.471 183.752C248.279 181.512 248.183 179.4 248.183 177.416C248.247 175.368 248.343 173.672 248.471 172.328L248.759 170.312H247.895C247.063 174.92 245.623 179.368 243.575 183.656L238.103 194.984H250.007L248.471 183.752ZM281.197 171.272C282.349 164.872 285.581 159.976 290.893 156.584C296.269 153.128 303.501 151.4 312.589 151.4C319.437 151.4 324.717 152.616 328.429 155.048C332.141 157.416 334.765 160.936 336.301 165.608C336.749 167.016 336.781 168.04 336.397 168.68C336.013 169.32 335.021 169.96 333.421 170.6L323.917 174.344C322.509 174.92 321.485 175.08 320.845 174.824C320.205 174.568 319.629 173.736 319.117 172.328C317.965 169 315.021 167.336 310.285 167.336C304.205 167.336 300.877 169 300.301 172.328C299.981 174.184 300.781 175.496 302.701 176.264C304.621 177.032 307.693 177.672 311.917 178.184C313.581 178.44 315.149 178.76 316.621 179.144C318.093 179.464 319.661 179.944 321.325 180.584C323.053 181.224 324.557 181.96 325.837 182.792C327.117 183.624 328.365 184.68 329.581 185.96C330.797 187.176 331.693 188.552 332.269 190.088C332.845 191.624 333.293 193.416 333.613 195.464C333.933 197.512 333.805 199.784 333.229 202.28C330.733 215.72 319.949 222.44 300.877 222.44C293.581 222.44 287.597 221.16 282.925 218.6C278.253 216.04 275.437 212.36 274.477 207.56C274.029 205 275.213 203.24 278.029 202.28L287.629 199.016C289.165 198.504 290.317 198.408 291.085 198.728C291.853 198.984 292.461 199.784 292.909 201.128C294.061 204.52 297.357 206.216 302.797 206.216C309.645 206.216 313.421 204.392 314.125 200.744C314.445 199.016 313.709 197.768 311.917 197C310.189 196.232 307.501 195.592 303.853 195.08C301.229 194.696 298.925 194.28 296.941 193.832C294.957 193.384 292.749 192.584 290.317 191.432C287.885 190.28 285.965 188.904 284.557 187.304C283.149 185.704 282.093 183.528 281.389 180.776C280.685 178.024 280.621 174.856 281.197 171.272ZM341.831 171.272C342.983 164.872 346.215 159.976 351.527 156.584C356.903 153.128 364.135 151.4 373.223 151.4C380.071 151.4 385.351 152.616 389.063 155.048C392.775 157.416 395.399 160.936 396.935 165.608C397.383 167.016 397.415 168.04 397.031 168.68C396.647 169.32 395.655 169.96 394.055 170.6L384.551 174.344C383.143 174.92 382.119 175.08 381.479 174.824C380.839 174.568 380.263 173.736 379.751 172.328C378.599 169 375.655 167.336 370.919 167.336C364.839 167.336 361.511 169 360.935 172.328C360.615 174.184 361.415 175.496 363.335 176.264C365.255 177.032 368.327 177.672 372.551 178.184C374.215 178.44 375.783 178.76 377.255 179.144C378.727 179.464 380.295 179.944 381.959 180.584C383.687 181.224 385.191 181.96 386.471 182.792C387.751 183.624 388.999 184.68 390.215 185.96C391.431 187.176 392.327 188.552 392.903 190.088C393.479 191.624 393.927 193.416 394.247 195.464C394.567 197.512 394.439 199.784 393.863 202.28C391.367 215.72 380.583 222.44 361.511 222.44C354.215 222.44 348.231 221.16 343.559 218.6C338.887 216.04 336.071 212.36 335.111 207.56C334.663 205 335.847 203.24 338.663 202.28L348.263 199.016C349.799 198.504 350.951 198.408 351.719 198.728C352.487 198.984 353.095 199.784 353.543 201.128C354.695 204.52 357.991 206.216 363.431 206.216C370.279 206.216 374.055 204.392 374.759 200.744C375.079 199.016 374.343 197.768 372.551 197C370.823 196.232 368.135 195.592 364.487 195.08C361.863 194.696 359.559 194.28 357.575 193.832C355.591 193.384 353.383 192.584 350.951 191.432C348.519 190.28 346.599 188.904 345.191 187.304C343.783 185.704 342.727 183.528 342.023 180.776C341.319 178.024 341.255 174.856 341.831 171.272ZM452.193 152.84C453.729 152.84 454.753 153.16 455.265 153.8C455.777 154.376 455.905 155.4 455.649 156.872L454.113 165.512C453.857 167.048 453.345 168.136 452.577 168.776C451.873 169.352 450.785 169.64 449.313 169.64H423.969L422.433 178.184H442.689C444.225 178.184 445.217 178.504 445.665 179.144C446.177 179.72 446.305 180.744 446.049 182.216L444.513 190.856C444.193 192.392 443.681 193.48 442.977 194.12C442.337 194.696 441.249 194.984 439.713 194.984H419.457L417.825 204.2H444.033C445.505 204.2 446.465 204.488 446.913 205.064C447.425 205.64 447.553 206.696 447.297 208.232L445.761 216.968C445.505 218.44 445.025 219.496 444.321 220.136C443.617 220.712 442.497 221 440.961 221H399.969C398.433 221 397.409 220.712 396.897 220.136C396.385 219.496 396.289 218.44 396.609 216.968L407.169 156.872C407.489 155.4 407.969 154.376 408.609 153.8C409.313 153.16 410.433 152.84 411.969 152.84H452.193ZM457.942 171.272C459.094 164.872 462.326 159.976 467.638 156.584C473.014 153.128 480.246 151.4 489.334 151.4C496.182 151.4 501.462 152.616 505.174 155.048C508.886 157.416 511.51 160.936 513.046 165.608C513.494 167.016 513.526 168.04 513.142 168.68C512.758 169.32 511.766 169.96 510.166 170.6L500.662 174.344C499.254 174.92 498.23 175.08 497.59 174.824C496.95 174.568 496.374 173.736 495.862 172.328C494.71 169 491.766 167.336 487.03 167.336C480.95 167.336 477.622 169 477.046 172.328C476.726 174.184 477.526 175.496 479.446 176.264C481.366 177.032 484.438 177.672 488.662 178.184C490.326 178.44 491.894 178.76 493.366 179.144C494.838 179.464 496.406 179.944 498.07 180.584C499.798 181.224 501.302 181.96 502.582 182.792C503.862 183.624 505.11 184.68 506.326 185.96C507.542 187.176 508.438 188.552 509.014 190.088C509.59 191.624 510.038 193.416 510.358 195.464C510.678 197.512 510.55 199.784 509.974 202.28C507.478 215.72 496.694 222.44 477.622 222.44C470.326 222.44 464.342 221.16 459.67 218.6C454.998 216.04 452.182 212.36 451.222 207.56C450.774 205 451.958 203.24 454.774 202.28L464.374 199.016C465.91 198.504 467.062 198.408 467.83 198.728C468.598 198.984 469.206 199.784 469.654 201.128C470.806 204.52 474.102 206.216 479.542 206.216C486.39 206.216 490.166 204.392 490.87 200.744C491.19 199.016 490.454 197.768 488.662 197C486.934 196.232 484.246 195.592 480.598 195.08C477.974 194.696 475.67 194.28 473.686 193.832C471.702 193.384 469.494 192.584 467.062 191.432C464.63 190.28 462.71 188.904 461.302 187.304C459.894 185.704 458.838 183.528 458.134 180.776C457.43 178.024 457.366 174.856 457.942 171.272Z" fill="url(#paint7_linear_333_268)"/>
<path d="M214.04 159.848L213.922 159.94L213.922 159.941L214.04 159.848ZM217.592 178.28L217.74 178.305L217.74 178.305L217.592 178.28ZM208.088 194.984L207.999 194.863L207.998 194.864L208.088 194.984ZM177.368 200.552V200.402H177.242L177.22 200.526L177.368 200.552ZM174.488 216.968L174.635 217L174.636 216.994L174.488 216.968ZM172.952 220.136L173.052 220.247L173.053 220.247L172.952 220.136ZM155.768 220.136L155.651 220.23L155.656 220.236L155.768 220.136ZM155.48 216.968L155.627 217L155.628 216.994L155.48 216.968ZM166.04 156.872L165.893 156.84L165.892 156.846L166.04 156.872ZM167.48 153.8L167.58 153.911L167.581 153.911L167.48 153.8ZM195.32 181.832L195.224 181.717L195.222 181.719L195.32 181.832ZM198.2 176.744L198.348 176.771L198.348 176.77L198.2 176.744ZM197.144 171.56L197.027 171.654L197.03 171.657L197.144 171.56ZM182.84 169.64V169.49H182.714L182.692 169.614L182.84 169.64ZM180.344 183.752L180.196 183.726L180.165 183.902H180.344V183.752ZM197.336 152.99C204.791 152.99 210.31 155.314 213.922 159.94L214.158 159.756C210.474 155.038 204.857 152.69 197.336 152.69V152.99ZM213.922 159.941C217.536 164.506 218.719 170.603 217.444 178.255L217.74 178.305C219.025 170.597 217.84 164.406 214.158 159.755L213.922 159.941ZM217.444 178.255C216.169 185.648 213.018 191.179 207.999 194.863L208.177 195.105C213.27 191.365 216.455 185.76 217.74 178.305L217.444 178.255ZM207.998 194.864C203.038 198.552 196.735 200.402 189.08 200.402V200.702C196.785 200.702 203.154 198.84 208.178 195.104L207.998 194.864ZM189.08 200.402H177.368V200.702H189.08V200.402ZM177.22 200.526L174.34 216.942L174.636 216.994L177.516 200.578L177.22 200.526ZM174.341 216.936C174.024 218.394 173.522 219.415 172.851 220.025L173.053 220.247C173.79 219.577 174.312 218.486 174.635 217L174.341 216.936ZM172.852 220.025C172.254 220.562 171.213 220.85 169.688 220.85V221.15C171.235 221.15 172.37 220.862 173.052 220.247L172.852 220.025ZM169.688 220.85H158.84V221.15H169.688V220.85ZM158.84 220.85C157.309 220.85 156.346 220.56 155.88 220.036L155.656 220.236C156.214 220.864 157.299 221.15 158.84 221.15V220.85ZM155.885 220.042C155.418 219.458 155.309 218.462 155.627 217L155.333 216.936C155.011 218.418 155.094 219.534 155.651 220.23L155.885 220.042ZM155.628 216.994L166.188 156.898L165.892 156.846L155.332 216.942L155.628 216.994ZM166.187 156.904C166.504 155.442 166.976 154.456 167.58 153.911L167.38 153.689C166.704 154.296 166.216 155.358 165.893 156.84L166.187 156.904ZM167.581 153.911C168.245 153.308 169.32 152.99 170.84 152.99V152.69C169.288 152.69 168.123 153.012 167.379 153.689L167.581 153.911ZM170.84 152.99H197.336V152.69H170.84V152.99ZM189.752 183.902C192.022 183.902 193.915 183.252 195.418 181.945L195.222 181.719C193.781 182.972 191.962 183.602 189.752 183.602V183.902ZM195.416 181.947C196.981 180.643 197.958 178.915 198.348 176.771L198.052 176.717C197.674 178.797 196.731 180.461 195.224 181.717L195.416 181.947ZM198.348 176.77C198.737 174.565 198.384 172.787 197.258 171.463L197.03 171.657C198.08 172.893 198.431 174.571 198.052 176.718L198.348 176.77ZM197.261 171.466C196.199 170.139 194.516 169.49 192.248 169.49V169.79C194.46 169.79 196.041 170.421 197.027 171.654L197.261 171.466ZM192.248 169.49H182.84V169.79H192.248V169.49ZM182.692 169.614L180.196 183.726L180.492 183.778L182.988 169.666L182.692 169.614ZM180.344 183.902H189.752V183.602H180.344V183.902ZM272.663 217.064L272.516 217.092L272.516 217.093L272.663 217.064ZM252.695 216.968L252.845 216.956L252.844 216.947L252.695 216.968ZM251.735 210.056L251.884 210.035L251.866 209.906H251.735V210.056ZM230.903 210.056V209.906H230.809L230.768 209.99L230.903 210.056ZM227.543 216.968L227.677 217.035L227.678 217.034L227.543 216.968ZM224.855 220.136L224.781 220.005L224.855 220.136ZM207.479 217.064L207.61 217.137L207.611 217.135L207.479 217.064ZM240.311 156.2L240.443 156.271L240.444 156.27L240.311 156.2ZM242.519 153.512L242.595 153.642V153.642L242.519 153.512ZM259.799 153.512L259.713 153.635L259.718 153.639L259.799 153.512ZM261.239 156.008L261.386 155.98L261.386 155.977L261.239 156.008ZM248.471 183.752L248.321 183.765L248.322 183.772L248.471 183.752ZM248.183 177.416L248.033 177.411V177.416H248.183ZM248.471 172.328L248.322 172.307L248.322 172.314L248.471 172.328ZM248.759 170.312L248.907 170.333L248.932 170.162H248.759V170.312ZM247.895 170.312V170.162H247.77L247.747 170.285L247.895 170.312ZM243.575 183.656L243.71 183.721L243.71 183.721L243.575 183.656ZM238.103 194.984L237.968 194.919L237.864 195.134H238.103V194.984ZM250.007 194.984V195.134H250.179L250.156 194.964L250.007 194.984ZM272.516 217.093C272.768 218.383 272.594 219.31 272.048 219.916C271.498 220.525 270.534 220.85 269.111 220.85V221.15C270.568 221.15 271.636 220.819 272.27 220.116C272.908 219.41 273.07 218.369 272.81 217.035L272.516 217.093ZM269.111 220.85H259.127V221.15H269.111V220.85ZM259.127 220.85C257.948 220.85 256.958 220.778 256.153 220.636C255.347 220.494 254.737 220.283 254.312 220.01L254.15 220.262C254.621 220.565 255.275 220.786 256.101 220.932C256.928 221.078 257.938 221.15 259.127 221.15V220.85ZM254.312 220.01C253.471 219.469 252.97 218.467 252.844 216.956L252.546 216.98C252.676 218.541 253.199 219.651 254.15 220.262L254.312 220.01ZM252.844 216.947L251.884 210.035L251.586 210.077L252.546 216.989L252.844 216.947ZM251.735 209.906H230.903V210.206H251.735V209.906ZM230.768 209.99L227.408 216.902L227.678 217.034L231.038 210.122L230.768 209.99ZM227.409 216.901C226.648 218.422 225.77 219.449 224.781 220.005L224.929 220.267C225.988 219.671 226.902 218.586 227.677 217.035L227.409 216.901ZM224.781 220.005C223.793 220.561 222.162 220.85 219.863 220.85V221.15C222.172 221.15 223.869 220.863 224.929 220.267L224.781 220.005ZM219.863 220.85H209.303V221.15H219.863V220.85ZM209.303 220.85C207.966 220.85 207.231 220.521 206.967 219.953C206.833 219.664 206.808 219.29 206.912 218.818C207.015 218.346 207.246 217.786 207.61 217.137L207.348 216.991C206.976 217.654 206.731 218.242 206.618 218.754C206.506 219.266 206.525 219.712 206.695 220.079C207.039 220.823 207.952 221.15 209.303 221.15V220.85ZM207.611 217.135L240.443 156.271L240.179 156.129L207.347 216.993L207.611 217.135ZM240.444 156.27C241.143 154.935 241.863 154.069 242.595 153.642L242.443 153.382C241.639 153.851 240.887 154.777 240.178 156.13L240.444 156.27ZM242.595 153.642C243.329 153.213 244.418 152.99 245.879 152.99V152.69C244.396 152.69 243.245 152.915 242.443 153.382L242.595 153.642ZM245.879 152.99H256.727V152.69H245.879V152.99ZM256.727 152.99C258.126 152.99 259.111 153.214 259.713 153.635L259.885 153.389C259.207 152.914 258.144 152.69 256.727 152.69V152.99ZM259.718 153.639C260.375 154.056 260.84 154.843 261.092 156.039L261.386 155.977C261.126 154.741 260.631 153.864 259.88 153.385L259.718 153.639ZM261.092 156.036L272.516 217.092L272.81 217.036L261.386 155.98L261.092 156.036ZM248.62 183.739C248.429 181.503 248.333 179.395 248.333 177.416H248.033C248.033 179.405 248.129 181.521 248.322 183.765L248.62 183.739ZM248.333 177.421C248.397 175.374 248.493 173.682 248.62 172.342L248.322 172.314C248.193 173.662 248.097 175.362 248.033 177.411L248.333 177.421ZM248.619 172.349L248.907 170.333L248.611 170.291L248.323 172.307L248.619 172.349ZM248.759 170.162H247.895V170.462H248.759V170.162ZM247.747 170.285C246.918 174.88 245.482 179.315 243.44 183.591L243.71 183.721C245.764 179.421 247.208 174.96 248.043 170.339L247.747 170.285ZM243.44 183.591L237.968 194.919L238.238 195.049L243.71 183.721L243.44 183.591ZM238.103 195.134H250.007V194.834H238.103V195.134ZM250.156 194.964L248.62 183.732L248.322 183.772L249.858 195.004L250.156 194.964ZM281.197 171.272L281.05 171.245L281.049 171.248L281.197 171.272ZM290.893 156.584L290.974 156.71L290.974 156.71L290.893 156.584ZM328.429 155.048L328.347 155.173L328.349 155.174L328.429 155.048ZM336.301 165.608L336.444 165.563L336.444 165.561L336.301 165.608ZM333.421 170.6L333.476 170.74L333.477 170.739L333.421 170.6ZM323.917 174.344L323.862 174.204L323.86 174.205L323.917 174.344ZM320.845 174.824L320.901 174.685L320.845 174.824ZM319.117 172.328L318.975 172.377L318.976 172.379L319.117 172.328ZM300.301 172.328L300.153 172.302L300.153 172.303L300.301 172.328ZM311.917 178.184L311.94 178.036L311.935 178.035L311.917 178.184ZM316.621 179.144L316.583 179.289L316.589 179.291L316.621 179.144ZM321.325 180.584L321.271 180.724L321.273 180.725L321.325 180.584ZM325.837 182.792L325.919 182.666L325.837 182.792ZM329.581 185.96L329.472 186.063L329.475 186.066L329.581 185.96ZM332.269 190.088L332.41 190.035L332.269 190.088ZM333.613 195.464L333.465 195.487L333.613 195.464ZM333.229 202.28L333.083 202.246L333.082 202.253L333.229 202.28ZM282.925 218.6L282.853 218.732L282.925 218.6ZM274.477 207.56L274.329 207.586L274.33 207.589L274.477 207.56ZM278.029 202.28L277.981 202.138L277.981 202.138L278.029 202.28ZM287.629 199.016L287.582 198.874L287.581 198.874L287.629 199.016ZM291.085 198.728L291.027 198.867L291.038 198.87L291.085 198.728ZM292.909 201.128L292.767 201.175L292.767 201.176L292.909 201.128ZM314.125 200.744L314.273 200.772L314.273 200.771L314.125 200.744ZM311.917 197L311.856 197.137L311.858 197.138L311.917 197ZM303.853 195.08L303.832 195.228L303.832 195.229L303.853 195.08ZM296.941 193.832L296.908 193.978L296.941 193.832ZM290.317 191.432L290.381 191.296L290.317 191.432ZM281.389 180.776L281.535 180.739L281.389 180.776ZM281.345 171.299C282.49 164.938 285.698 160.079 290.974 156.71L290.813 156.458C285.464 159.873 282.209 164.806 281.05 171.245L281.345 171.299ZM290.974 156.71C296.318 153.275 303.518 151.55 312.589 151.55V151.25C303.484 151.25 296.221 152.981 290.812 156.458L290.974 156.71ZM312.589 151.55C319.423 151.55 324.669 152.764 328.347 155.173L328.511 154.923C324.765 152.468 319.452 151.25 312.589 151.25V151.55ZM328.349 155.174C332.028 157.522 334.632 161.012 336.159 165.655L336.444 165.561C334.898 160.86 332.255 157.31 328.51 154.922L328.349 155.174ZM336.158 165.653C336.605 167.056 336.617 168.023 336.269 168.603L336.526 168.757C336.946 168.057 336.894 166.976 336.444 165.563L336.158 165.653ZM336.269 168.603C336.093 168.895 335.771 169.2 335.284 169.514C334.799 169.827 334.16 170.143 333.366 170.461L333.477 170.739C334.282 170.417 334.94 170.093 335.447 169.766C335.952 169.44 336.317 169.105 336.526 168.757L336.269 168.603ZM333.366 170.46L323.862 174.204L323.972 174.484L333.476 170.74L333.366 170.46ZM323.86 174.205C323.163 174.491 322.567 174.67 322.07 174.748C321.572 174.826 321.186 174.799 320.901 174.685L320.79 174.963C321.144 175.105 321.59 175.126 322.116 175.044C322.644 174.962 323.264 174.773 323.974 174.483L323.86 174.205ZM320.901 174.685C320.618 174.572 320.335 174.325 320.057 173.923C319.778 173.521 319.512 172.974 319.258 172.277L318.976 172.379C319.235 173.09 319.512 173.663 319.81 174.093C320.107 174.523 320.432 174.82 320.79 174.963L320.901 174.685ZM319.259 172.279C318.672 170.582 317.624 169.304 316.119 168.453C314.617 167.605 312.669 167.186 310.285 167.186V167.486C312.637 167.486 314.529 167.899 315.971 168.715C317.41 169.528 318.411 170.746 318.976 172.377L319.259 172.279ZM310.285 167.186C307.235 167.186 304.856 167.603 303.162 168.45C301.461 169.301 300.45 170.586 300.153 172.302L300.449 172.354C300.728 170.742 301.67 169.531 303.296 168.718C304.93 167.901 307.255 167.486 310.285 167.486V167.186ZM300.153 172.303C299.989 173.258 300.11 174.089 300.533 174.782C300.955 175.474 301.666 176.011 302.646 176.403L302.757 176.125C301.817 175.749 301.167 175.246 300.789 174.626C300.412 174.007 300.294 173.254 300.449 172.353L300.153 172.303ZM302.646 176.403C304.585 177.179 307.673 177.821 311.899 178.333L311.935 178.035C307.714 177.523 304.658 176.885 302.757 176.125L302.646 176.403ZM311.894 178.332C313.554 178.588 315.117 178.907 316.583 179.289L316.659 178.999C315.182 178.613 313.609 178.292 311.94 178.036L311.894 178.332ZM316.589 179.291C318.053 179.609 319.613 180.086 321.271 180.724L321.379 180.444C319.709 179.802 318.134 179.319 316.653 178.997L316.589 179.291ZM321.273 180.725C322.993 181.362 324.486 182.093 325.756 182.918L325.919 182.666C324.628 181.827 323.114 181.086 321.377 180.443L321.273 180.725ZM325.756 182.918C327.024 183.742 328.263 184.791 329.473 186.063L329.69 185.857C328.467 184.569 327.21 183.506 325.919 182.666L325.756 182.918ZM329.475 186.066C330.677 187.268 331.561 188.626 332.129 190.141L332.41 190.035C331.826 188.478 330.918 187.084 329.687 185.854L329.475 186.066ZM332.129 190.141C332.7 191.665 333.146 193.447 333.465 195.487L333.761 195.441C333.44 193.385 332.99 191.583 332.41 190.035L332.129 190.141ZM333.465 195.487C333.781 197.512 333.656 199.765 333.083 202.246L333.375 202.314C333.955 199.803 334.085 197.512 333.761 195.441L333.465 195.487ZM333.082 202.253C331.841 208.935 328.543 213.937 323.19 217.273C317.831 220.612 310.398 222.29 300.877 222.29V222.59C310.428 222.59 317.924 220.908 323.349 217.527C328.779 214.143 332.122 209.065 333.377 202.307L333.082 202.253ZM300.877 222.29C293.598 222.29 287.641 221.013 282.997 218.468L282.853 218.732C287.554 221.307 293.565 222.59 300.877 222.59V222.29ZM282.997 218.468C278.36 215.928 275.575 212.283 274.624 207.531L274.33 207.589C275.3 212.437 278.146 216.152 282.853 218.732L282.997 218.468ZM274.625 207.534C274.406 206.283 274.588 205.245 275.154 204.404C275.721 203.56 276.688 202.896 278.078 202.422L277.981 202.138C276.554 202.624 275.521 203.32 274.905 204.236C274.287 205.155 274.1 206.277 274.329 207.586L274.625 207.534ZM278.078 202.422L287.678 199.158L287.581 198.874L277.981 202.138L278.078 202.422ZM287.677 199.158C289.206 198.648 290.313 198.569 291.028 198.866L291.143 198.59C290.322 198.247 289.124 198.36 287.582 198.874L287.677 199.158ZM291.038 198.87C291.736 199.103 292.323 199.844 292.767 201.175L293.052 201.081C292.599 199.724 291.97 198.865 291.133 198.586L291.038 198.87ZM292.767 201.176C293.356 202.91 294.495 204.212 296.177 205.077C297.853 205.94 300.064 206.366 302.797 206.366V206.066C300.091 206.066 297.933 205.644 296.314 204.811C294.699 203.98 293.614 202.738 293.051 201.08L292.767 201.176ZM302.797 206.366C306.231 206.366 308.913 205.909 310.831 204.983C312.755 204.054 313.91 202.649 314.273 200.772L313.978 200.716C313.636 202.487 312.552 203.818 310.7 204.713C308.841 205.611 306.211 206.066 302.797 206.066V206.366ZM314.273 200.771C314.438 199.88 314.333 199.097 313.942 198.436C313.553 197.776 312.892 197.254 311.976 196.862L311.858 197.138C312.735 197.514 313.337 198 313.684 198.588C314.03 199.175 314.133 199.88 313.978 200.717L314.273 200.771ZM311.978 196.863C310.23 196.086 307.525 195.444 303.874 194.931L303.832 195.229C307.477 195.74 310.148 196.378 311.856 197.137L311.978 196.863ZM303.875 194.932C301.254 194.548 298.954 194.133 296.974 193.686L296.908 193.978C298.897 194.427 301.205 194.844 303.832 195.228L303.875 194.932ZM296.974 193.686C295.004 193.241 292.806 192.445 290.381 191.296L290.253 191.568C292.692 192.723 294.911 193.527 296.908 193.978L296.974 193.686ZM290.381 191.296C287.963 190.151 286.061 188.786 284.67 187.205L284.445 187.403C285.869 189.022 287.807 190.409 290.253 191.568L290.381 191.296ZM284.67 187.205C283.282 185.628 282.235 183.475 281.535 180.739L281.244 180.813C281.952 183.581 283.017 185.78 284.445 187.403L284.67 187.205ZM281.535 180.739C280.837 178.011 280.772 174.865 281.345 171.296L281.049 171.248C280.471 174.847 280.534 178.037 281.244 180.813L281.535 180.739ZM341.831 171.272L341.683 171.245L341.683 171.248L341.831 171.272ZM351.527 156.584L351.608 156.71L351.608 156.71L351.527 156.584ZM389.063 155.048L388.981 155.173L388.982 155.174L389.063 155.048ZM396.935 165.608L397.078 165.563L397.077 165.561L396.935 165.608ZM394.055 170.6L394.11 170.74L394.111 170.739L394.055 170.6ZM384.551 174.344L384.496 174.204L384.494 174.205L384.551 174.344ZM381.479 174.824L381.535 174.685L381.479 174.824ZM379.751 172.328L379.609 172.377L379.61 172.379L379.751 172.328ZM360.935 172.328L360.787 172.302L360.787 172.303L360.935 172.328ZM372.551 178.184L372.574 178.036L372.569 178.035L372.551 178.184ZM377.255 179.144L377.217 179.289L377.223 179.291L377.255 179.144ZM381.959 180.584L381.905 180.724L381.907 180.725L381.959 180.584ZM386.471 182.792L386.553 182.666L386.471 182.792ZM390.215 185.96L390.106 186.063L390.109 186.066L390.215 185.96ZM392.903 190.088L393.043 190.035L392.903 190.088ZM394.247 195.464L394.099 195.487L394.247 195.464ZM393.863 202.28L393.717 202.246L393.716 202.253L393.863 202.28ZM343.559 218.6L343.487 218.732L343.559 218.6ZM335.111 207.56L334.963 207.586L334.964 207.589L335.111 207.56ZM338.663 202.28L338.615 202.138L338.615 202.138L338.663 202.28ZM348.263 199.016L348.216 198.874L348.215 198.874L348.263 199.016ZM351.719 198.728L351.661 198.867L351.672 198.87L351.719 198.728ZM353.543 201.128L353.401 201.175L353.401 201.176L353.543 201.128ZM374.759 200.744L374.906 200.772L374.906 200.771L374.759 200.744ZM372.551 197L372.49 197.137L372.492 197.138L372.551 197ZM364.487 195.08L364.465 195.228L364.466 195.229L364.487 195.08ZM357.575 193.832L357.542 193.978L357.575 193.832ZM350.951 191.432L351.015 191.296L350.951 191.432ZM342.023 180.776L342.168 180.739L342.023 180.776ZM341.979 171.299C343.123 164.938 346.332 160.079 351.608 156.71L351.446 156.458C346.098 159.873 342.843 164.806 341.683 171.245L341.979 171.299ZM351.608 156.71C356.952 153.275 364.152 151.55 373.223 151.55V151.25C364.118 151.25 356.854 152.981 351.446 156.458L351.608 156.71ZM373.223 151.55C380.056 151.55 385.303 152.764 388.981 155.173L389.145 154.923C385.399 152.468 380.086 151.25 373.223 151.25V151.55ZM388.982 155.174C392.662 157.522 395.266 161.012 396.792 165.655L397.077 165.561C395.532 160.86 392.888 157.31 389.144 154.922L388.982 155.174ZM396.792 165.653C397.238 167.056 397.25 168.023 396.902 168.603L397.16 168.757C397.58 168.057 397.528 166.976 397.078 165.563L396.792 165.653ZM396.902 168.603C396.727 168.895 396.404 169.2 395.918 169.514C395.433 169.827 394.794 170.143 393.999 170.461L394.111 170.739C394.916 170.417 395.573 170.093 396.08 169.766C396.586 169.44 396.951 169.105 397.16 168.757L396.902 168.603ZM394 170.46L384.496 174.204L384.606 174.484L394.11 170.74L394 170.46ZM384.494 174.205C383.796 174.491 383.2 174.67 382.704 174.748C382.206 174.826 381.82 174.799 381.535 174.685L381.423 174.963C381.778 175.105 382.224 175.126 382.75 175.044C383.278 174.962 383.898 174.773 384.608 174.483L384.494 174.205ZM381.535 174.685C381.252 174.572 380.969 174.325 380.69 173.923C380.412 173.521 380.145 172.974 379.892 172.277L379.61 172.379C379.869 173.09 380.146 173.663 380.444 174.093C380.741 174.523 381.066 174.82 381.423 174.963L381.535 174.685ZM379.893 172.279C379.305 170.582 378.258 169.304 376.753 168.453C375.251 167.605 373.303 167.186 370.919 167.186V167.486C373.271 167.486 375.163 167.899 376.605 168.715C378.044 169.528 379.045 170.746 379.609 172.377L379.893 172.279ZM370.919 167.186C367.869 167.186 365.49 167.603 363.796 168.45C362.094 169.301 361.084 170.586 360.787 172.302L361.083 172.354C361.362 170.742 362.304 169.531 363.93 168.718C365.564 167.901 367.889 167.486 370.919 167.486V167.186ZM360.787 172.303C360.622 173.258 360.744 174.089 361.167 174.782C361.589 175.474 362.299 176.011 363.279 176.403L363.391 176.125C362.451 175.749 361.801 175.246 361.423 174.626C361.046 174.007 360.928 173.254 361.083 172.353L360.787 172.303ZM363.279 176.403C365.218 177.179 368.307 177.821 372.533 178.333L372.569 178.035C368.347 177.523 365.292 176.885 363.391 176.125L363.279 176.403ZM372.528 178.332C374.188 178.588 375.751 178.907 377.217 179.289L377.293 178.999C375.815 178.613 374.242 178.292 372.574 178.036L372.528 178.332ZM377.223 179.291C378.686 179.609 380.247 180.086 381.905 180.724L382.013 180.444C380.343 179.802 378.768 179.319 377.287 178.997L377.223 179.291ZM381.907 180.725C383.627 181.362 385.12 182.093 386.389 182.918L386.553 182.666C385.262 181.827 383.747 181.086 382.011 180.443L381.907 180.725ZM386.389 182.918C387.658 183.742 388.897 184.791 390.106 186.063L390.324 185.857C389.101 184.569 387.844 183.506 386.553 182.666L386.389 182.918ZM390.109 186.066C391.311 187.268 392.194 188.626 392.763 190.141L393.043 190.035C392.46 188.478 391.551 187.084 390.321 185.854L390.109 186.066ZM392.763 190.141C393.334 191.665 393.78 193.447 394.099 195.487L394.395 195.441C394.074 193.385 393.624 191.583 393.043 190.035L392.763 190.141ZM394.099 195.487C394.415 197.512 394.29 199.765 393.717 202.246L394.009 202.314C394.588 199.803 394.719 197.512 394.395 195.441L394.099 195.487ZM393.716 202.253C392.475 208.935 389.177 213.937 383.824 217.273C378.465 220.612 371.032 222.29 361.511 222.29V222.59C371.062 222.59 378.557 220.908 383.982 217.527C389.413 214.143 392.755 209.065 394.01 202.307L393.716 202.253ZM361.511 222.29C354.231 222.29 348.274 221.013 343.631 218.468L343.487 218.732C348.188 221.307 354.199 222.59 361.511 222.59V222.29ZM343.631 218.468C338.994 215.928 336.209 212.283 335.258 207.531L334.964 207.589C335.933 212.437 338.78 216.152 343.487 218.732L343.631 218.468ZM335.259 207.534C335.04 206.283 335.222 205.245 335.787 204.404C336.355 203.56 337.322 202.896 338.711 202.422L338.615 202.138C337.188 202.624 336.155 203.32 335.539 204.236C334.92 205.155 334.734 206.277 334.963 207.586L335.259 207.534ZM338.711 202.422L348.311 199.158L348.215 198.874L338.615 202.138L338.711 202.422ZM348.31 199.158C349.84 198.648 350.947 198.569 351.661 198.866L351.777 198.59C350.955 198.247 349.758 198.36 348.216 198.874L348.31 199.158ZM351.672 198.87C352.37 199.103 352.957 199.844 353.401 201.175L353.685 201.081C353.233 199.724 352.604 198.865 351.766 198.586L351.672 198.87ZM353.401 201.176C353.99 202.91 355.129 204.212 356.81 205.077C358.487 205.94 360.697 206.366 363.431 206.366V206.066C360.725 206.066 358.567 205.644 356.948 204.811C355.333 203.98 354.248 202.738 353.685 201.08L353.401 201.176ZM363.431 206.366C366.865 206.366 369.547 205.909 371.464 204.983C373.389 204.054 374.544 202.649 374.906 200.772L374.612 200.716C374.27 202.487 373.185 203.818 371.334 204.713C369.475 205.611 366.845 206.066 363.431 206.066V206.366ZM374.906 200.771C375.072 199.88 374.966 199.097 374.576 198.436C374.187 197.776 373.525 197.254 372.61 196.862L372.492 197.138C373.369 197.514 373.971 198 374.318 198.588C374.664 199.175 374.766 199.88 374.612 200.717L374.906 200.771ZM372.612 196.863C370.864 196.086 368.159 195.444 364.508 194.931L364.466 195.229C368.111 195.74 370.782 196.378 372.49 197.137L372.612 196.863ZM364.509 194.932C361.887 194.548 359.587 194.133 357.608 193.686L357.542 193.978C359.531 194.427 361.839 194.844 364.465 195.228L364.509 194.932ZM357.608 193.686C355.638 193.241 353.44 192.445 351.015 191.296L350.887 191.568C353.326 192.723 355.544 193.527 357.542 193.978L357.608 193.686ZM351.015 191.296C348.597 190.151 346.695 188.786 345.304 187.205L345.078 187.403C346.503 189.022 348.441 190.409 350.887 191.568L351.015 191.296ZM345.304 187.205C343.916 185.628 342.868 183.475 342.168 180.739L341.878 180.813C342.586 183.581 343.65 185.78 345.078 187.403L345.304 187.205ZM342.168 180.739C341.471 178.011 341.405 174.865 341.979 171.296L341.683 171.248C341.105 174.847 341.167 178.037 341.878 180.813L342.168 180.739ZM455.265 153.8L455.147 153.894L455.153 153.9L455.265 153.8ZM455.649 156.872L455.796 156.898L455.797 156.898L455.649 156.872ZM454.113 165.512L453.965 165.486L453.965 165.487L454.113 165.512ZM452.577 168.776L452.672 168.892L452.673 168.891L452.577 168.776ZM423.969 169.64V169.49H423.843L423.821 169.613L423.969 169.64ZM422.433 178.184L422.285 178.157L422.253 178.334H422.433V178.184ZM445.665 179.144L445.542 179.23L445.547 179.237L445.553 179.244L445.665 179.144ZM446.049 182.216L446.196 182.242L446.197 182.242L446.049 182.216ZM444.513 190.856L444.66 190.887L444.66 190.882L444.513 190.856ZM442.977 194.12L443.077 194.231L443.078 194.231L442.977 194.12ZM419.457 194.984V194.834H419.331L419.309 194.958L419.457 194.984ZM417.825 204.2L417.677 204.174L417.646 204.35H417.825V204.2ZM446.913 205.064L446.794 205.156L446.801 205.164L446.913 205.064ZM447.297 208.232L447.444 208.258L447.445 208.257L447.297 208.232ZM445.761 216.968L445.613 216.942L445.613 216.942L445.761 216.968ZM444.321 220.136L444.416 220.252L444.422 220.247L444.321 220.136ZM396.897 220.136L396.779 220.23L396.785 220.236L396.897 220.136ZM396.609 216.968L396.755 217L396.756 216.994L396.609 216.968ZM407.169 156.872L407.022 156.84L407.021 156.846L407.169 156.872ZM408.609 153.8L408.709 153.911L408.71 153.911L408.609 153.8ZM452.193 152.99C453.72 152.99 454.681 153.311 455.148 153.894L455.382 153.706C454.824 153.009 453.737 152.69 452.193 152.69V152.99ZM455.153 153.9C455.615 154.42 455.756 155.381 455.501 156.846L455.797 156.898C456.054 155.419 455.938 154.332 455.377 153.7L455.153 153.9ZM455.501 156.846L453.965 165.486L454.26 165.538L455.796 156.898L455.501 156.846ZM453.965 165.487C453.712 167.007 453.209 168.054 452.481 168.661L452.673 168.891C453.48 168.218 454.002 167.089 454.261 165.537L453.965 165.487ZM452.482 168.66C451.817 169.204 450.77 169.49 449.313 169.49V169.79C450.799 169.79 451.929 169.5 452.672 168.892L452.482 168.66ZM449.313 169.49H423.969V169.79H449.313V169.49ZM423.821 169.613L422.285 178.157L422.58 178.211L424.116 169.667L423.821 169.613ZM422.433 178.334H442.689V178.034H422.433V178.334ZM442.689 178.334C444.22 178.334 445.14 178.656 445.542 179.23L445.788 179.058C445.293 178.352 444.23 178.034 442.689 178.034V178.334ZM445.553 179.244C446.015 179.764 446.156 180.725 445.901 182.19L446.197 182.242C446.454 180.763 446.338 179.676 445.777 179.044L445.553 179.244ZM445.901 182.19L444.365 190.83L444.66 190.882L446.196 182.242L445.901 182.19ZM444.366 190.825C444.049 192.349 443.546 193.4 442.876 194.009L443.078 194.231C443.816 193.56 444.337 192.435 444.66 190.887L444.366 190.825ZM442.876 194.009C442.279 194.546 441.238 194.834 439.713 194.834V195.134C441.26 195.134 442.395 194.846 443.077 194.231L442.876 194.009ZM439.713 194.834H419.457V195.134H439.713V194.834ZM419.309 194.958L417.677 204.174L417.972 204.226L419.604 195.01L419.309 194.958ZM417.825 204.35H444.033V204.05H417.825V204.35ZM444.033 204.35C444.76 204.35 445.353 204.421 445.814 204.56C446.275 204.698 446.595 204.9 446.794 205.156L447.031 204.972C446.782 204.652 446.399 204.422 445.9 204.272C445.401 204.123 444.777 204.05 444.033 204.05V204.35ZM446.801 205.164C447.03 205.422 447.182 205.797 447.244 206.306C447.306 206.815 447.275 207.448 447.149 208.207L447.445 208.257C447.574 207.48 447.608 206.817 447.542 206.27C447.475 205.723 447.308 205.282 447.025 204.964L446.801 205.164ZM447.149 208.206L445.613 216.942L445.908 216.994L447.444 208.258L447.149 208.206ZM445.613 216.942C445.36 218.399 444.889 219.417 444.22 220.025L444.422 220.247C445.161 219.575 445.65 218.481 445.909 216.994L445.613 216.942ZM444.226 220.02C443.562 220.563 442.484 220.85 440.961 220.85V221.15C442.51 221.15 443.672 220.861 444.416 220.252L444.226 220.02ZM440.961 220.85H399.969V221.15H440.961V220.85ZM399.969 220.85C398.438 220.85 397.474 220.56 397.009 220.036L396.785 220.236C397.343 220.864 398.428 221.15 399.969 221.15V220.85ZM397.014 220.042C396.547 219.458 396.437 218.462 396.755 217L396.462 216.936C396.14 218.418 396.223 219.534 396.78 220.23L397.014 220.042ZM396.756 216.994L407.316 156.898L407.021 156.846L396.461 216.942L396.756 216.994ZM407.315 156.904C407.633 155.442 408.104 154.456 408.709 153.911L408.508 153.689C407.833 154.296 407.344 155.358 407.022 156.84L407.315 156.904ZM408.71 153.911C409.373 153.308 410.448 152.99 411.969 152.99V152.69C410.417 152.69 409.252 153.012 408.508 153.689L408.71 153.911ZM411.969 152.99H452.193V152.69H411.969V152.99ZM457.942 171.272L457.795 171.245L457.794 171.248L457.942 171.272ZM467.638 156.584L467.719 156.71L467.719 156.71L467.638 156.584ZM505.174 155.048L505.092 155.173L505.094 155.174L505.174 155.048ZM513.046 165.608L513.189 165.563L513.189 165.561L513.046 165.608ZM510.166 170.6L510.221 170.74L510.222 170.739L510.166 170.6ZM500.662 174.344L500.607 174.204L500.605 174.205L500.662 174.344ZM497.59 174.824L497.646 174.685L497.59 174.824ZM495.862 172.328L495.72 172.377L495.721 172.379L495.862 172.328ZM477.046 172.328L476.898 172.302L476.898 172.303L477.046 172.328ZM488.662 178.184L488.685 178.036L488.68 178.035L488.662 178.184ZM493.366 179.144L493.328 179.289L493.334 179.291L493.366 179.144ZM498.07 180.584L498.016 180.724L498.018 180.725L498.07 180.584ZM502.582 182.792L502.664 182.666L502.582 182.792ZM506.326 185.96L506.217 186.063L506.22 186.066L506.326 185.96ZM509.014 190.088L509.155 190.035L509.014 190.088ZM510.358 195.464L510.21 195.487L510.358 195.464ZM509.974 202.28L509.828 202.246L509.827 202.253L509.974 202.28ZM459.67 218.6L459.598 218.732L459.67 218.6ZM451.222 207.56L451.074 207.586L451.075 207.589L451.222 207.56ZM454.774 202.28L454.726 202.138L454.726 202.138L454.774 202.28ZM464.374 199.016L464.327 198.874L464.326 198.874L464.374 199.016ZM467.83 198.728L467.772 198.867L467.783 198.87L467.83 198.728ZM469.654 201.128L469.512 201.175L469.512 201.176L469.654 201.128ZM490.87 200.744L491.018 200.772L491.018 200.771L490.87 200.744ZM488.662 197L488.601 197.137L488.603 197.138L488.662 197ZM480.598 195.08L480.577 195.228L480.577 195.229L480.598 195.08ZM473.686 193.832L473.653 193.978L473.686 193.832ZM467.062 191.432L467.126 191.296L467.062 191.432ZM458.134 180.776L458.28 180.739L458.134 180.776ZM458.09 171.299C459.235 164.938 462.443 160.079 467.719 156.71L467.558 156.458C462.209 159.873 458.954 164.806 457.795 171.245L458.09 171.299ZM467.719 156.71C473.063 153.275 480.263 151.55 489.334 151.55V151.25C480.229 151.25 472.966 152.981 467.557 156.458L467.719 156.71ZM489.334 151.55C496.168 151.55 501.414 152.764 505.092 155.173L505.256 154.923C501.51 152.468 496.197 151.25 489.334 151.25V151.55ZM505.094 155.174C508.773 157.522 511.377 161.012 512.904 165.655L513.189 165.561C511.643 160.86 509 157.31 505.255 154.922L505.094 155.174ZM512.903 165.653C513.35 167.056 513.362 168.023 513.014 168.603L513.271 168.757C513.691 168.057 513.639 166.976 513.189 165.563L512.903 165.653ZM513.014 168.603C512.838 168.895 512.516 169.2 512.029 169.514C511.544 169.827 510.905 170.143 510.111 170.461L510.222 170.739C511.027 170.417 511.685 170.093 512.192 169.766C512.697 169.44 513.062 169.105 513.271 168.757L513.014 168.603ZM510.111 170.46L500.607 174.204L500.717 174.484L510.221 170.74L510.111 170.46ZM500.605 174.205C499.908 174.491 499.312 174.67 498.815 174.748C498.317 174.826 497.931 174.799 497.646 174.685L497.535 174.963C497.889 175.105 498.335 175.126 498.861 175.044C499.389 174.962 500.009 174.773 500.719 174.483L500.605 174.205ZM497.646 174.685C497.363 174.572 497.08 174.325 496.802 173.923C496.523 173.521 496.257 172.974 496.003 172.277L495.721 172.379C495.98 173.09 496.257 173.663 496.555 174.093C496.852 174.523 497.177 174.82 497.535 174.963L497.646 174.685ZM496.004 172.279C495.417 170.582 494.369 169.304 492.864 168.453C491.362 167.605 489.414 167.186 487.03 167.186V167.486C489.382 167.486 491.274 167.899 492.716 168.715C494.155 169.528 495.156 170.746 495.721 172.377L496.004 172.279ZM487.03 167.186C483.98 167.186 481.601 167.603 479.907 168.45C478.206 169.301 477.195 170.586 476.898 172.302L477.194 172.354C477.473 170.742 478.415 169.531 480.041 168.718C481.675 167.901 484 167.486 487.03 167.486V167.186ZM476.898 172.303C476.734 173.258 476.855 174.089 477.278 174.782C477.7 175.474 478.411 176.011 479.391 176.403L479.502 176.125C478.562 175.749 477.912 175.246 477.534 174.626C477.157 174.007 477.039 173.254 477.194 172.353L476.898 172.303ZM479.391 176.403C481.33 177.179 484.418 177.821 488.644 178.333L488.68 178.035C484.459 177.523 481.403 176.885 479.502 176.125L479.391 176.403ZM488.639 178.332C490.299 178.588 491.862 178.907 493.328 179.289L493.404 178.999C491.927 178.613 490.354 178.292 488.685 178.036L488.639 178.332ZM493.334 179.291C494.798 179.609 496.358 180.086 498.016 180.724L498.124 180.444C496.454 179.802 494.879 179.319 493.398 178.997L493.334 179.291ZM498.018 180.725C499.738 181.362 501.232 182.093 502.501 182.918L502.664 182.666C501.373 181.827 499.859 181.086 498.122 180.443L498.018 180.725ZM502.501 182.918C503.769 183.742 505.008 184.791 506.218 186.063L506.435 185.857C505.212 184.569 503.955 183.506 502.664 182.666L502.501 182.918ZM506.22 186.066C507.422 187.268 508.306 188.626 508.874 190.141L509.155 190.035C508.571 188.478 507.663 187.084 506.432 185.854L506.22 186.066ZM508.874 190.141C509.445 191.665 509.891 193.447 510.21 195.487L510.506 195.441C510.185 193.385 509.735 191.583 509.155 190.035L508.874 190.141ZM510.21 195.487C510.526 197.512 510.401 199.765 509.828 202.246L510.12 202.314C510.7 199.803 510.83 197.512 510.506 195.441L510.21 195.487ZM509.827 202.253C508.586 208.935 505.288 213.937 499.935 217.273C494.576 220.612 487.143 222.29 477.622 222.29V222.59C487.173 222.59 494.669 220.908 500.094 217.527C505.524 214.143 508.867 209.065 510.122 202.307L509.827 202.253ZM477.622 222.29C470.343 222.29 464.386 221.013 459.742 218.468L459.598 218.732C464.299 221.307 470.31 222.59 477.622 222.59V222.29ZM459.742 218.468C455.105 215.928 452.32 212.283 451.369 207.531L451.075 207.589C452.045 212.437 454.891 216.152 459.598 218.732L459.742 218.468ZM451.37 207.534C451.151 206.283 451.333 205.245 451.899 204.404C452.466 203.56 453.434 202.896 454.823 202.422L454.726 202.138C453.299 202.624 452.266 203.32 451.65 204.236C451.032 205.155 450.845 206.277 451.074 207.586L451.37 207.534ZM454.823 202.422L464.423 199.158L464.326 198.874L454.726 202.138L454.823 202.422ZM464.422 199.158C465.951 198.648 467.058 198.569 467.773 198.866L467.888 198.59C467.067 198.247 465.869 198.36 464.327 198.874L464.422 199.158ZM467.783 198.87C468.481 199.103 469.068 199.844 469.512 201.175L469.797 201.081C469.344 199.724 468.715 198.865 467.878 198.586L467.783 198.87ZM469.512 201.176C470.101 202.91 471.24 204.212 472.922 205.077C474.598 205.94 476.809 206.366 479.542 206.366V206.066C476.836 206.066 474.678 205.644 473.059 204.811C471.444 203.98 470.359 202.738 469.796 201.08L469.512 201.176ZM479.542 206.366C482.976 206.366 485.658 205.909 487.576 204.983C489.5 204.054 490.655 202.649 491.018 200.772L490.723 200.716C490.381 202.487 489.297 203.818 487.445 204.713C485.586 205.611 482.956 206.066 479.542 206.066V206.366ZM491.018 200.771C491.183 199.88 491.078 199.097 490.687 198.436C490.298 197.776 489.637 197.254 488.721 196.862L488.603 197.138C489.48 197.514 490.082 198 490.429 198.588C490.775 199.175 490.878 199.88 490.723 200.717L491.018 200.771ZM488.723 196.863C486.975 196.086 484.27 195.444 480.619 194.931L480.577 195.229C484.222 195.74 486.893 196.378 488.601 197.137L488.723 196.863ZM480.62 194.932C477.999 194.548 475.699 194.133 473.719 193.686L473.653 193.978C475.642 194.427 477.95 194.844 480.577 195.228L480.62 194.932ZM473.719 193.686C471.749 193.241 469.552 192.445 467.126 191.296L466.998 191.568C469.437 192.723 471.656 193.527 473.653 193.978L473.719 193.686ZM467.126 191.296C464.708 190.151 462.806 188.786 461.415 187.205L461.19 187.403C462.614 189.022 464.552 190.409 466.998 191.568L467.126 191.296ZM461.415 187.205C460.027 185.628 458.98 183.475 458.28 180.739L457.989 180.813C458.697 183.581 459.762 185.78 461.19 187.403L461.415 187.205ZM458.28 180.739C457.582 178.011 457.517 174.865 458.09 171.296L457.794 171.248C457.216 174.847 457.279 178.037 457.989 180.813L458.28 180.739Z" fill="url(#paint8_linear_333_268)"/>
<defs>
<filter id="filter0_d_333_268" x="2.85547" y="3.83984" width="278.768" height="196.16" filterUnits="userSpaceOnUse" color-interpolation-filters="sRGB">
<feFlood flood-opacity="0" result="BackgroundImageFix"/>
<feColorMatrix in="SourceAlpha" type="matrix" values="0 0 0 0 0 0 0 0 0 0 0 0 0 0 0 0 0 0 127 0" result="hardAlpha"/>
<feOffset/>
<feGaussianBlur stdDeviation="32"/>
<feComposite in2="hardAlpha" operator="out"/>
<feColorMatrix type="matrix" values="0 0 0 0 0 0 0 0 0 0 0 0 0 0 0 0 0 0 0.5 0"/>
<feBlend mode="normal" in2="BackgroundImageFix" result="effect1_dropShadow_333_268"/>
<feBlend mode="normal" in="SourceGraphic" in2="effect1_dropShadow_333_268" result="shape"/>
</filter>
<filter id="filter1_d_333_268" x="0.855469" y="0.839844" width="278.768" height="196.16" filterUnits="userSpaceOnUse" color-interpolation-filters="sRGB">
<feFlood flood-opacity="0" result="BackgroundImageFix"/>
<feColorMatrix in="SourceAlpha" type="matrix" values="0 0 0 0 0 0 0 0 0 0 0 0 0 0 0 0 0 0 127 0" result="hardAlpha"/>
<feOffset/>
<feGaussianBlur stdDeviation="32"/>
<feComposite in2="hardAlpha" operator="out"/>
<feColorMatrix type="matrix" values="0 0 0 0 0 0 0 0 0 0 0 0 0 0 0 0 0 0 0.5 0"/>
<feBlend mode="normal" in2="BackgroundImageFix" result="effect1_dropShadow_333_268"/>
<feBlend mode="normal" in="SourceGraphic" in2="effect1_dropShadow_333_268" result="shape"/>
</filter>
<linearGradient id="paint0_linear_333_268" x1="126.592" y1="140" x2="126.592" y2="63" gradientUnits="userSpaceOnUse">
<stop stop-color="#6B4000"/>
<stop offset="0.129454" stop-color="#6A3B20"/>
<stop offset="0.250751" stop-color="#E5A23E"/>
<stop offset="0.368769" stop-color="#B16B18"/>
<stop offset="0.693411" stop-color="#B15918"/>
<stop offset="1" stop-color="#AD641C"/>
</linearGradient>
<linearGradient id="paint1_linear_333_268" x1="209.836" y1="76.5" x2="70.2316" y2="86.495" gradientUnits="userSpaceOnUse">
<stop stop-color="#E6C365" stop-opacity="0"/>
<stop offset="1" stop-color="#E6C365" stop-opacity="0.3"/>
</linearGradient>
<linearGradient id="paint2_linear_333_268" x1="124.274" y1="147.5" x2="110.116" y2="61.9311" gradientUnits="userSpaceOnUse">
<stop stop-color="#EBC367"/>
<stop offset="0.206588" stop-color="#FDB242"/>
<stop offset="0.486587" stop-color="#C47E16"/>
<stop offset="0.589636" stop-color="#D1891E"/>
<stop offset="0.694186" stop-color="#E1A03F"/>
<stop offset="0.697522" stop-color="#FFDDA9"/>
<stop offset="0.911458" stop-color="#F1BD57"/>
</linearGradient>
<linearGradient id="paint3_linear_333_268" x1="200.531" y1="73.5" x2="67.7137" y2="82.5424" gradientUnits="userSpaceOnUse">
<stop stop-color="#E6C365" stop-opacity="0"/>
<stop offset="1" stop-color="#E6C365" stop-opacity="0.3"/>
</linearGradient>
<linearGradient id="paint4_linear_333_268" x1="136.5" y1="60" x2="136.5" y2="140" gradientUnits="userSpaceOnUse">
<stop stop-color="#FFE7AA" stop-opacity="0"/>
<stop offset="0.329952" stop-color="#FFE7AA"/>
<stop offset="0.465285" stop-color="#FFE7AA" stop-opacity="0"/>
<stop offset="0.623174" stop-color="#FFE7AA"/>
<stop offset="0.817708" stop-color="#FFE7AA" stop-opacity="0"/>
<stop offset="1" stop-color="white"/>
</linearGradient>
<linearGradient id="paint5_linear_333_268" x1="409.5" y1="133" x2="271.93" y2="-2.72914" gradientUnits="userSpaceOnUse">
<stop stop-color="#D1D1D1"/>
<stop offset="1" stop-color="#D1D1D1" stop-opacity="0.47"/>
</linearGradient>
<linearGradient id="paint6_linear_333_268" x1="333.5" y1="64" x2="333.5" y2="136" gradientUnits="userSpaceOnUse">
<stop offset="0.206492" stop-color="white"/>
<stop offset="0.478015" stop-color="#FFE7AA" stop-opacity="0"/>
<stop offset="0.689643" stop-color="#FFE7AA"/>
<stop offset="1" stop-color="#FFE7AA" stop-opacity="0"/>
</linearGradient>
<linearGradient id="paint7_linear_333_268" x1="408.5" y1="132" x2="268.201" y2="47.1175" gradientUnits="userSpaceOnUse">
<stop stop-color="#D1D1D1"/>
<stop offset="1" stop-color="#D1D1D1" stop-opacity="0.47"/>
</linearGradient>
<linearGradient id="paint8_linear_333_268" x1="342" y1="152" x2="342" y2="224" gradientUnits="userSpaceOnUse">
<stop offset="0.206492" stop-color="white"/>
<stop offset="0.478015" stop-color="#FFE7AA" stop-opacity="0"/>
<stop offset="0.689643" stop-color="#FFE7AA"/>
<stop offset="1" stop-color="#FFE7AA" stop-opacity="0"/>
</linearGradient>
</defs>
</svg>
