<svg width="93" height="36" viewBox="0 0 93 36" fill="none" xmlns="http://www.w3.org/2000/svg">
<path d="M18.92 0.919998C19.688 0.919998 20.2 1.08 20.456 1.4C20.712 1.688 20.76 2.2 20.6 2.936L15.32 32.984C15.16 33.72 14.904 34.248 14.552 34.568C14.232 34.856 13.688 35 12.92 35H7.496C6.728 35 6.216 34.856 5.96 34.568C5.704 34.248 5.656 33.72 5.816 32.984L9.368 12.968L5.768 14.792C4.904 15.208 4.264 15.352 3.848 15.224C3.432 15.096 3.096 14.68 2.84 13.976L1.256 9.896C1.032 9.256 1.032 8.744 1.256 8.36C1.48 7.944 1.96 7.528 2.696 7.112L13.064 1.736C14.024 1.192 15.016 0.919998 16.04 0.919998H18.92ZM23.3499 12.152C23.9899 8.344 25.6699 5.4 28.3899 3.32C31.1419 1.24 34.6939 0.199999 39.0459 0.199999C43.3019 0.199999 46.4379 1.4 48.4539 3.8C50.4699 6.2 51.1419 9.336 50.4699 13.208L48.5979 23.72C47.9259 27.56 46.2459 30.52 43.5579 32.6C40.8699 34.68 37.3659 35.72 33.0459 35.72C28.7579 35.72 25.5899 34.536 23.5419 32.168C21.4939 29.768 20.8059 26.6 21.4779 22.664L23.3499 12.152ZM41.1579 12.296C41.3499 11.112 41.1419 10.2 40.5339 9.56C39.9259 8.92 38.9659 8.6 37.6539 8.6C36.3419 8.6 35.2539 8.92 34.3899 9.56C33.5579 10.2 33.0299 11.112 32.8059 12.296L30.8379 23.576C30.6139 24.76 30.8059 25.688 31.4139 26.36C32.0539 27 33.0299 27.32 34.3419 27.32C35.6539 27.32 36.7259 27 37.5579 26.36C38.3899 25.688 38.9179 24.76 39.1419 23.576L41.1579 12.296ZM53.9949 7.688C54.4429 5.352 55.5149 3.528 57.2109 2.216C58.9389 0.871999 61.1789 0.199999 63.9309 0.199999C66.6829 0.199999 68.6669 0.871999 69.8829 2.216C71.1309 3.528 71.5469 5.352 71.1309 7.688L70.5069 11.336C70.0909 13.64 69.0189 15.448 67.2909 16.76C65.5949 18.072 63.3709 18.728 60.6189 18.728C57.8669 18.728 55.8669 18.072 54.6189 16.76C53.3709 15.448 52.9549 13.64 53.3709 11.336L53.9949 7.688ZM90.6189 0.919998C91.2909 0.919998 91.6909 1.112 91.8189 1.496C91.9469 1.88 91.7709 2.328 91.2909 2.84L63.6429 33.224C62.9069 33.992 62.2989 34.488 61.8189 34.712C61.3709 34.904 60.5549 35 59.3709 35H55.0029C54.2989 35 53.8829 34.792 53.7549 34.376C53.6589 33.96 53.8509 33.496 54.3309 32.984L82.0269 2.6C82.6989 1.864 83.2589 1.4 83.7069 1.208C84.1549 1.016 84.9229 0.919998 86.0109 0.919998H90.6189ZM64.5549 8.12C64.7469 6.968 64.1709 6.392 62.8269 6.392C61.4509 6.392 60.6669 6.968 60.4749 8.12L59.9949 10.808C59.7389 11.992 60.3149 12.584 61.7229 12.584C63.0349 12.584 63.8189 11.992 64.0749 10.808L64.5549 8.12ZM74.9229 24.68C75.3069 22.312 76.3629 20.472 78.0909 19.16C79.8189 17.816 82.0589 17.144 84.8109 17.144C87.5629 17.144 89.5469 17.816 90.7629 19.16C92.0109 20.472 92.4269 22.312 92.0109 24.68L91.3869 28.28C90.9709 30.616 89.9149 32.44 88.2189 33.752C86.5229 35.064 84.2989 35.72 81.5469 35.72C78.7949 35.72 76.7789 35.064 75.4989 33.752C74.2509 32.44 73.8349 30.616 74.2509 28.28L74.9229 24.68ZM85.4829 25.112C85.6429 23.96 85.0669 23.384 83.7549 23.384C82.3149 23.384 81.5309 23.96 81.4029 25.112L80.9229 27.8C80.6669 28.952 81.2429 29.528 82.6509 29.528C83.9629 29.528 84.7469 28.952 85.0029 27.8L85.4829 25.112Z" fill="url(#paint0_linear_181_3404)"/>
<path d="M18.92 0.919998C19.688 0.919998 20.2 1.08 20.456 1.4C20.712 1.688 20.76 2.2 20.6 2.936L15.32 32.984C15.16 33.72 14.904 34.248 14.552 34.568C14.232 34.856 13.688 35 12.92 35H7.496C6.728 35 6.216 34.856 5.96 34.568C5.704 34.248 5.656 33.72 5.816 32.984L9.368 12.968L5.768 14.792C4.904 15.208 4.264 15.352 3.848 15.224C3.432 15.096 3.096 14.68 2.84 13.976L1.256 9.896C1.032 9.256 1.032 8.744 1.256 8.36C1.48 7.944 1.96 7.528 2.696 7.112L13.064 1.736C14.024 1.192 15.016 0.919998 16.04 0.919998H18.92ZM23.3499 12.152C23.9899 8.344 25.6699 5.4 28.3899 3.32C31.1419 1.24 34.6939 0.199999 39.0459 0.199999C43.3019 0.199999 46.4379 1.4 48.4539 3.8C50.4699 6.2 51.1419 9.336 50.4699 13.208L48.5979 23.72C47.9259 27.56 46.2459 30.52 43.5579 32.6C40.8699 34.68 37.3659 35.72 33.0459 35.72C28.7579 35.72 25.5899 34.536 23.5419 32.168C21.4939 29.768 20.8059 26.6 21.4779 22.664L23.3499 12.152ZM41.1579 12.296C41.3499 11.112 41.1419 10.2 40.5339 9.56C39.9259 8.92 38.9659 8.6 37.6539 8.6C36.3419 8.6 35.2539 8.92 34.3899 9.56C33.5579 10.2 33.0299 11.112 32.8059 12.296L30.8379 23.576C30.6139 24.76 30.8059 25.688 31.4139 26.36C32.0539 27 33.0299 27.32 34.3419 27.32C35.6539 27.32 36.7259 27 37.5579 26.36C38.3899 25.688 38.9179 24.76 39.1419 23.576L41.1579 12.296ZM53.9949 7.688C54.4429 5.352 55.5149 3.528 57.2109 2.216C58.9389 0.871999 61.1789 0.199999 63.9309 0.199999C66.6829 0.199999 68.6669 0.871999 69.8829 2.216C71.1309 3.528 71.5469 5.352 71.1309 7.688L70.5069 11.336C70.0909 13.64 69.0189 15.448 67.2909 16.76C65.5949 18.072 63.3709 18.728 60.6189 18.728C57.8669 18.728 55.8669 18.072 54.6189 16.76C53.3709 15.448 52.9549 13.64 53.3709 11.336L53.9949 7.688ZM90.6189 0.919998C91.2909 0.919998 91.6909 1.112 91.8189 1.496C91.9469 1.88 91.7709 2.328 91.2909 2.84L63.6429 33.224C62.9069 33.992 62.2989 34.488 61.8189 34.712C61.3709 34.904 60.5549 35 59.3709 35H55.0029C54.2989 35 53.8829 34.792 53.7549 34.376C53.6589 33.96 53.8509 33.496 54.3309 32.984L82.0269 2.6C82.6989 1.864 83.2589 1.4 83.7069 1.208C84.1549 1.016 84.9229 0.919998 86.0109 0.919998H90.6189ZM64.5549 8.12C64.7469 6.968 64.1709 6.392 62.8269 6.392C61.4509 6.392 60.6669 6.968 60.4749 8.12L59.9949 10.808C59.7389 11.992 60.3149 12.584 61.7229 12.584C63.0349 12.584 63.8189 11.992 64.0749 10.808L64.5549 8.12ZM74.9229 24.68C75.3069 22.312 76.3629 20.472 78.0909 19.16C79.8189 17.816 82.0589 17.144 84.8109 17.144C87.5629 17.144 89.5469 17.816 90.7629 19.16C92.0109 20.472 92.4269 22.312 92.0109 24.68L91.3869 28.28C90.9709 30.616 89.9149 32.44 88.2189 33.752C86.5229 35.064 84.2989 35.72 81.5469 35.72C78.7949 35.72 76.7789 35.064 75.4989 33.752C74.2509 32.44 73.8349 30.616 74.2509 28.28L74.9229 24.68ZM85.4829 25.112C85.6429 23.96 85.0669 23.384 83.7549 23.384C82.3149 23.384 81.5309 23.96 81.4029 25.112L80.9229 27.8C80.6669 28.952 81.2429 29.528 82.6509 29.528C83.9629 29.528 84.7469 28.952 85.0029 27.8L85.4829 25.112Z" fill="url(#paint1_linear_181_3404)"/>
<defs>
<linearGradient id="paint0_linear_181_3404" x1="39.0067" y1="52.25" x2="27.7789" y2="-7.1663" gradientUnits="userSpaceOnUse">
<stop stop-color="#EBC367"/>
<stop offset="0.206588" stop-color="#FDB242"/>
<stop offset="0.589636" stop-color="#D1891E"/>
<stop offset="0.694186" stop-color="#E1A03F"/>
<stop offset="0.697522" stop-color="#FFDDA9"/>
<stop offset="0.911458" stop-color="#F1BD57"/>
</linearGradient>
<linearGradient id="paint1_linear_181_3404" x1="85.7447" y1="0.450024" x2="4.25292" y2="5.3078" gradientUnits="userSpaceOnUse">
<stop stop-color="#E6C365" stop-opacity="0"/>
<stop offset="1" stop-color="#E6C365" stop-opacity="0.3"/>
</linearGradient>
</defs>
</svg>
