<svg width="123" height="35" viewBox="0 0 123 35" fill="none" xmlns="http://www.w3.org/2000/svg">
<path d="M4.984 8.6C8.216 3 13.112 0.199999 19.672 0.199999C23.608 0.199999 26.536 1.272 28.456 3.416C30.408 5.56 31.096 8.28 30.52 11.576C29.944 15 28.664 17.608 26.68 19.4C24.696 21.16 21.64 22.728 17.512 24.104C17.096 24.232 16.536 24.392 15.832 24.584C15.16 24.744 14.6 24.888 14.152 25.016C13.736 25.144 13.304 25.288 12.856 25.448C12.408 25.608 12.056 25.8 11.8 26.024C11.544 26.216 11.4 26.424 11.368 26.648L11.32 26.888H25.144C25.912 26.888 26.408 27.048 26.632 27.368C26.888 27.656 26.952 28.184 26.824 28.952L26.104 32.984C25.944 33.72 25.688 34.248 25.336 34.568C25.016 34.856 24.472 35 23.704 35H2.056C1.288 35 0.792 34.856 0.568 34.568C0.312 34.248 0.248 33.72 0.376 32.984L1.144 28.712C1.432 27.176 1.912 25.832 2.584 24.68C3.288 23.496 4.248 22.488 5.464 21.656C6.68 20.824 7.704 20.2 8.536 19.784C9.4 19.368 10.648 18.84 12.28 18.2C12.472 18.136 12.92 17.976 13.624 17.72C14.328 17.432 14.776 17.24 14.968 17.144C15.192 17.048 15.592 16.872 16.168 16.616C16.744 16.36 17.144 16.168 17.368 16.04C17.592 15.912 17.912 15.72 18.328 15.464C18.776 15.176 19.096 14.92 19.288 14.696C19.48 14.472 19.704 14.2 19.96 13.88C20.216 13.56 20.408 13.224 20.536 12.872C20.696 12.52 20.808 12.152 20.872 11.768C21.032 10.776 20.872 10.008 20.392 9.464C19.912 8.888 19.16 8.6 18.136 8.6C17.144 8.6 16.28 8.84 15.544 9.32C14.84 9.8 14.12 10.616 13.384 11.768C12.904 12.536 12.472 13 12.088 13.16C11.736 13.32 11.224 13.288 10.552 13.064L5.8 11.192C5.128 10.936 4.728 10.616 4.6 10.232C4.472 9.848 4.6 9.304 4.984 8.6ZM58.6615 20.84C59.3975 20.84 59.8775 21 60.1015 21.32C60.3575 21.608 60.4215 22.12 60.2935 22.856L59.7175 26.216C59.5895 26.952 59.3495 27.48 58.9975 27.8C58.6455 28.088 58.0855 28.232 57.3175 28.232H54.9175L54.0535 32.984C53.9255 33.72 53.6855 34.248 53.3335 34.568C52.9815 34.856 52.4215 35 51.6535 35H46.7575C45.9895 35 45.4775 34.856 45.2215 34.568C44.9655 34.248 44.9175 33.72 45.0775 32.984L45.8935 28.232H31.3975C30.6295 28.232 30.1335 28.088 29.9095 27.8C29.6535 27.48 29.5895 26.952 29.7175 26.216L30.2455 23.048C30.4055 22.216 30.5815 21.608 30.7735 21.224C30.9655 20.808 31.3335 20.328 31.8775 19.784L49.5895 2.36C50.1975 1.784 50.7095 1.4 51.1255 1.208C51.5735 1.016 52.1655 0.919998 52.9015 0.919998H57.6535C58.4215 0.919998 58.9335 1.08 59.1895 1.4C59.4455 1.688 59.5095 2.2 59.3815 2.936L56.2135 20.84H58.6615ZM48.6295 12.728L40.4695 20.84H47.2375L48.6295 12.728ZM94.4804 0.919998C95.1524 0.919998 95.5364 1.112 95.6324 1.496C95.7284 1.88 95.5524 2.328 95.1044 2.84L82.9604 17.624L90.3044 32.984C90.5924 33.496 90.6084 33.96 90.3524 34.376C90.0964 34.792 89.6164 35 88.9124 35H82.8164C81.5364 35 80.6724 34.904 80.2244 34.712C79.8084 34.52 79.4404 34.024 79.1204 33.224L75.9524 25.352L70.1924 33.224C69.6164 33.992 69.0724 34.488 68.5604 34.712C68.0484 34.904 67.1524 35 65.8724 35H59.9204C59.1844 35 58.7684 34.808 58.6724 34.424C58.5444 34.04 58.7364 33.56 59.2484 32.984L71.8244 17.624L65.0084 2.84C64.7524 2.328 64.7364 1.88 64.9604 1.496C65.2164 1.112 65.6644 0.919998 66.3044 0.919998H72.0164C73.2644 0.919998 74.1124 1.016 74.5604 1.208C75.0084 1.4 75.3924 1.864 75.7124 2.6L78.7364 9.992L84.3044 2.6C84.8804 1.832 85.3924 1.368 85.8404 1.208C86.3204 1.016 87.1364 0.919998 88.2884 0.919998H94.4804ZM120.497 0.919998C121.265 0.919998 121.777 1.08 122.033 1.4C122.289 1.688 122.353 2.2 122.225 2.936L121.649 6.2C121.425 7.256 121.057 8.2 120.545 9.032L104.897 33.224C104.417 33.96 103.921 34.44 103.409 34.664C102.929 34.888 102.065 35 100.817 35H95.4891C94.2411 35 94.0331 34.328 94.8651 32.984L110.081 9.32H97.3131C96.5451 9.32 96.0331 9.176 95.7771 8.888C95.5531 8.568 95.5051 8.024 95.6331 7.256L96.4011 2.936C96.5291 2.2 96.7531 1.688 97.0731 1.4C97.4251 1.08 97.9851 0.919998 98.7531 0.919998H120.497Z" fill="url(#paint0_linear_181_3410)"/>
<path d="M4.984 8.6C8.216 3 13.112 0.199999 19.672 0.199999C23.608 0.199999 26.536 1.272 28.456 3.416C30.408 5.56 31.096 8.28 30.52 11.576C29.944 15 28.664 17.608 26.68 19.4C24.696 21.16 21.64 22.728 17.512 24.104C17.096 24.232 16.536 24.392 15.832 24.584C15.16 24.744 14.6 24.888 14.152 25.016C13.736 25.144 13.304 25.288 12.856 25.448C12.408 25.608 12.056 25.8 11.8 26.024C11.544 26.216 11.4 26.424 11.368 26.648L11.32 26.888H25.144C25.912 26.888 26.408 27.048 26.632 27.368C26.888 27.656 26.952 28.184 26.824 28.952L26.104 32.984C25.944 33.72 25.688 34.248 25.336 34.568C25.016 34.856 24.472 35 23.704 35H2.056C1.288 35 0.792 34.856 0.568 34.568C0.312 34.248 0.248 33.72 0.376 32.984L1.144 28.712C1.432 27.176 1.912 25.832 2.584 24.68C3.288 23.496 4.248 22.488 5.464 21.656C6.68 20.824 7.704 20.2 8.536 19.784C9.4 19.368 10.648 18.84 12.28 18.2C12.472 18.136 12.92 17.976 13.624 17.72C14.328 17.432 14.776 17.24 14.968 17.144C15.192 17.048 15.592 16.872 16.168 16.616C16.744 16.36 17.144 16.168 17.368 16.04C17.592 15.912 17.912 15.72 18.328 15.464C18.776 15.176 19.096 14.92 19.288 14.696C19.48 14.472 19.704 14.2 19.96 13.88C20.216 13.56 20.408 13.224 20.536 12.872C20.696 12.52 20.808 12.152 20.872 11.768C21.032 10.776 20.872 10.008 20.392 9.464C19.912 8.888 19.16 8.6 18.136 8.6C17.144 8.6 16.28 8.84 15.544 9.32C14.84 9.8 14.12 10.616 13.384 11.768C12.904 12.536 12.472 13 12.088 13.16C11.736 13.32 11.224 13.288 10.552 13.064L5.8 11.192C5.128 10.936 4.728 10.616 4.6 10.232C4.472 9.848 4.6 9.304 4.984 8.6ZM58.6615 20.84C59.3975 20.84 59.8775 21 60.1015 21.32C60.3575 21.608 60.4215 22.12 60.2935 22.856L59.7175 26.216C59.5895 26.952 59.3495 27.48 58.9975 27.8C58.6455 28.088 58.0855 28.232 57.3175 28.232H54.9175L54.0535 32.984C53.9255 33.72 53.6855 34.248 53.3335 34.568C52.9815 34.856 52.4215 35 51.6535 35H46.7575C45.9895 35 45.4775 34.856 45.2215 34.568C44.9655 34.248 44.9175 33.72 45.0775 32.984L45.8935 28.232H31.3975C30.6295 28.232 30.1335 28.088 29.9095 27.8C29.6535 27.48 29.5895 26.952 29.7175 26.216L30.2455 23.048C30.4055 22.216 30.5815 21.608 30.7735 21.224C30.9655 20.808 31.3335 20.328 31.8775 19.784L49.5895 2.36C50.1975 1.784 50.7095 1.4 51.1255 1.208C51.5735 1.016 52.1655 0.919998 52.9015 0.919998H57.6535C58.4215 0.919998 58.9335 1.08 59.1895 1.4C59.4455 1.688 59.5095 2.2 59.3815 2.936L56.2135 20.84H58.6615ZM48.6295 12.728L40.4695 20.84H47.2375L48.6295 12.728ZM94.4804 0.919998C95.1524 0.919998 95.5364 1.112 95.6324 1.496C95.7284 1.88 95.5524 2.328 95.1044 2.84L82.9604 17.624L90.3044 32.984C90.5924 33.496 90.6084 33.96 90.3524 34.376C90.0964 34.792 89.6164 35 88.9124 35H82.8164C81.5364 35 80.6724 34.904 80.2244 34.712C79.8084 34.52 79.4404 34.024 79.1204 33.224L75.9524 25.352L70.1924 33.224C69.6164 33.992 69.0724 34.488 68.5604 34.712C68.0484 34.904 67.1524 35 65.8724 35H59.9204C59.1844 35 58.7684 34.808 58.6724 34.424C58.5444 34.04 58.7364 33.56 59.2484 32.984L71.8244 17.624L65.0084 2.84C64.7524 2.328 64.7364 1.88 64.9604 1.496C65.2164 1.112 65.6644 0.919998 66.3044 0.919998H72.0164C73.2644 0.919998 74.1124 1.016 74.5604 1.208C75.0084 1.4 75.3924 1.864 75.7124 2.6L78.7364 9.992L84.3044 2.6C84.8804 1.832 85.3924 1.368 85.8404 1.208C86.3204 1.016 87.1364 0.919998 88.2884 0.919998H94.4804ZM120.497 0.919998C121.265 0.919998 121.777 1.08 122.033 1.4C122.289 1.688 122.353 2.2 122.225 2.936L121.649 6.2C121.425 7.256 121.057 8.2 120.545 9.032L104.897 33.224C104.417 33.96 103.921 34.44 103.409 34.664C102.929 34.888 102.065 35 100.817 35H95.4891C94.2411 35 94.0331 34.328 94.8651 32.984L110.081 9.32H97.3131C96.5451 9.32 96.0331 9.176 95.7771 8.888C95.5531 8.568 95.5051 8.024 95.6331 7.256L96.4011 2.936C96.5291 2.2 96.7531 1.688 97.0731 1.4C97.4251 1.08 97.9851 0.919998 98.7531 0.919998H120.497Z" fill="url(#paint1_linear_181_3410)"/>
<defs>
<linearGradient id="paint0_linear_181_3410" x1="51.1136" y1="52.25" x2="42.0368" y2="-7.91869" gradientUnits="userSpaceOnUse">
<stop stop-color="#EBC367"/>
<stop offset="0.206588" stop-color="#FDB242"/>
<stop offset="0.589636" stop-color="#D1891E"/>
<stop offset="0.694186" stop-color="#E1A03F"/>
<stop offset="0.697522" stop-color="#FFDDA9"/>
<stop offset="0.911458" stop-color="#F1BD57"/>
</linearGradient>
<linearGradient id="paint1_linear_181_3410" x1="109.659" y1="0.450024" x2="7.78525" y2="8.05696" gradientUnits="userSpaceOnUse">
<stop stop-color="#E6C365" stop-opacity="0"/>
<stop offset="1" stop-color="#E6C365" stop-opacity="0.3"/>
</linearGradient>
</defs>
</svg>
