<svg width="102" height="36" viewBox="0 0 102 36" fill="none" xmlns="http://www.w3.org/2000/svg">
<path d="M4.984 8.6C8.216 3 13.112 0.199999 19.672 0.199999C23.608 0.199999 26.536 1.272 28.456 3.416C30.408 5.56 31.096 8.28 30.52 11.576C29.944 15 28.664 17.608 26.68 19.4C24.696 21.16 21.64 22.728 17.512 24.104C17.096 24.232 16.536 24.392 15.832 24.584C15.16 24.744 14.6 24.888 14.152 25.016C13.736 25.144 13.304 25.288 12.856 25.448C12.408 25.608 12.056 25.8 11.8 26.024C11.544 26.216 11.4 26.424 11.368 26.648L11.32 26.888H25.144C25.912 26.888 26.408 27.048 26.632 27.368C26.888 27.656 26.952 28.184 26.824 28.952L26.104 32.984C25.944 33.72 25.688 34.248 25.336 34.568C25.016 34.856 24.472 35 23.704 35H2.056C1.288 35 0.792 34.856 0.568 34.568C0.312 34.248 0.248 33.72 0.376 32.984L1.144 28.712C1.432 27.176 1.912 25.832 2.584 24.68C3.288 23.496 4.248 22.488 5.464 21.656C6.68 20.824 7.704 20.2 8.536 19.784C9.4 19.368 10.648 18.84 12.28 18.2C12.472 18.136 12.92 17.976 13.624 17.72C14.328 17.432 14.776 17.24 14.968 17.144C15.192 17.048 15.592 16.872 16.168 16.616C16.744 16.36 17.144 16.168 17.368 16.04C17.592 15.912 17.912 15.72 18.328 15.464C18.776 15.176 19.096 14.92 19.288 14.696C19.48 14.472 19.704 14.2 19.96 13.88C20.216 13.56 20.408 13.224 20.536 12.872C20.696 12.52 20.808 12.152 20.872 11.768C21.032 10.776 20.872 10.008 20.392 9.464C19.912 8.888 19.16 8.6 18.136 8.6C17.144 8.6 16.28 8.84 15.544 9.32C14.84 9.8 14.12 10.616 13.384 11.768C12.904 12.536 12.472 13 12.088 13.16C11.736 13.32 11.224 13.288 10.552 13.064L5.8 11.192C5.128 10.936 4.728 10.616 4.6 10.232C4.472 9.848 4.6 9.304 4.984 8.6ZM58.0375 0.871999C58.8055 0.871999 59.3015 1.032 59.5255 1.352C59.7815 1.64 59.8455 2.168 59.7175 2.936L58.9495 7.256C58.8215 8.024 58.5815 8.552 58.2295 8.84C57.8775 9.128 57.3175 9.272 56.5495 9.272H44.4055L43.4935 12.632H46.8055C51.0295 12.632 54.0055 13.72 55.7335 15.896C57.4935 18.04 58.0695 20.824 57.4615 24.248C56.8535 27.672 55.2695 30.44 52.7095 32.552C50.1495 34.664 46.7895 35.72 42.6295 35.72C38.7895 35.72 35.8295 35.08 33.7495 33.8C31.7015 32.488 30.4055 30.488 29.8615 27.8C29.7335 27.096 29.7975 26.568 30.0535 26.216C30.3095 25.832 30.8055 25.496 31.5415 25.208L37.0135 23.288C37.7175 23.032 38.2295 22.984 38.5495 23.144C38.9015 23.304 39.1575 23.752 39.3175 24.488C39.5415 25.416 39.9575 26.104 40.5655 26.552C41.2055 26.968 42.1975 27.176 43.5415 27.176C45.8775 27.176 47.2535 25.992 47.6695 23.624C48.0535 21.448 46.9815 20.36 44.4535 20.36H34.4215C33.5895 20.36 33.0455 20.184 32.7895 19.832C32.5335 19.448 32.5175 18.84 32.7415 18.008L36.7255 3.752C37.0455 2.664 37.4615 1.912 37.9735 1.496C38.5175 1.08 39.3495 0.871999 40.4695 0.871999H58.0375ZM62.3699 7.688C62.8179 5.352 63.8899 3.528 65.5859 2.216C67.3139 0.871999 69.5539 0.199999 72.3059 0.199999C75.0579 0.199999 77.0419 0.871999 78.2579 2.216C79.5059 3.528 79.9219 5.352 79.5059 7.688L78.8819 11.336C78.4659 13.64 77.3939 15.448 75.6659 16.76C73.9699 18.072 71.7459 18.728 68.9939 18.728C66.2419 18.728 64.2419 18.072 62.9939 16.76C61.7459 15.448 61.3299 13.64 61.7459 11.336L62.3699 7.688ZM98.9939 0.919998C99.6659 0.919998 100.066 1.112 100.194 1.496C100.322 1.88 100.146 2.328 99.6659 2.84L72.0179 33.224C71.2819 33.992 70.6739 34.488 70.1939 34.712C69.7459 34.904 68.9299 35 67.7459 35H63.3779C62.6739 35 62.2579 34.792 62.1299 34.376C62.0339 33.96 62.2259 33.496 62.7059 32.984L90.4019 2.6C91.0739 1.864 91.6339 1.4 92.0819 1.208C92.5299 1.016 93.2979 0.919998 94.3859 0.919998H98.9939ZM72.9299 8.12C73.1219 6.968 72.5459 6.392 71.2019 6.392C69.8259 6.392 69.0419 6.968 68.8499 8.12L68.3699 10.808C68.1139 11.992 68.6899 12.584 70.0979 12.584C71.4099 12.584 72.1939 11.992 72.4499 10.808L72.9299 8.12ZM83.2979 24.68C83.6819 22.312 84.7379 20.472 86.4659 19.16C88.1939 17.816 90.4339 17.144 93.1859 17.144C95.9379 17.144 97.9219 17.816 99.1379 19.16C100.386 20.472 100.802 22.312 100.386 24.68L99.7619 28.28C99.3459 30.616 98.2899 32.44 96.5939 33.752C94.8979 35.064 92.6739 35.72 89.9219 35.72C87.1699 35.72 85.1539 35.064 83.8739 33.752C82.6259 32.44 82.2099 30.616 82.6259 28.28L83.2979 24.68ZM93.8579 25.112C94.0179 23.96 93.4419 23.384 92.1299 23.384C90.6899 23.384 89.9059 23.96 89.7779 25.112L89.2979 27.8C89.0419 28.952 89.6179 29.528 91.0259 29.528C92.3379 29.528 93.1219 28.952 93.3779 27.8L93.8579 25.112Z" fill="url(#paint0_linear_181_3399)"/>
<path d="M4.984 8.6C8.216 3 13.112 0.199999 19.672 0.199999C23.608 0.199999 26.536 1.272 28.456 3.416C30.408 5.56 31.096 8.28 30.52 11.576C29.944 15 28.664 17.608 26.68 19.4C24.696 21.16 21.64 22.728 17.512 24.104C17.096 24.232 16.536 24.392 15.832 24.584C15.16 24.744 14.6 24.888 14.152 25.016C13.736 25.144 13.304 25.288 12.856 25.448C12.408 25.608 12.056 25.8 11.8 26.024C11.544 26.216 11.4 26.424 11.368 26.648L11.32 26.888H25.144C25.912 26.888 26.408 27.048 26.632 27.368C26.888 27.656 26.952 28.184 26.824 28.952L26.104 32.984C25.944 33.72 25.688 34.248 25.336 34.568C25.016 34.856 24.472 35 23.704 35H2.056C1.288 35 0.792 34.856 0.568 34.568C0.312 34.248 0.248 33.72 0.376 32.984L1.144 28.712C1.432 27.176 1.912 25.832 2.584 24.68C3.288 23.496 4.248 22.488 5.464 21.656C6.68 20.824 7.704 20.2 8.536 19.784C9.4 19.368 10.648 18.84 12.28 18.2C12.472 18.136 12.92 17.976 13.624 17.72C14.328 17.432 14.776 17.24 14.968 17.144C15.192 17.048 15.592 16.872 16.168 16.616C16.744 16.36 17.144 16.168 17.368 16.04C17.592 15.912 17.912 15.72 18.328 15.464C18.776 15.176 19.096 14.92 19.288 14.696C19.48 14.472 19.704 14.2 19.96 13.88C20.216 13.56 20.408 13.224 20.536 12.872C20.696 12.52 20.808 12.152 20.872 11.768C21.032 10.776 20.872 10.008 20.392 9.464C19.912 8.888 19.16 8.6 18.136 8.6C17.144 8.6 16.28 8.84 15.544 9.32C14.84 9.8 14.12 10.616 13.384 11.768C12.904 12.536 12.472 13 12.088 13.16C11.736 13.32 11.224 13.288 10.552 13.064L5.8 11.192C5.128 10.936 4.728 10.616 4.6 10.232C4.472 9.848 4.6 9.304 4.984 8.6ZM58.0375 0.871999C58.8055 0.871999 59.3015 1.032 59.5255 1.352C59.7815 1.64 59.8455 2.168 59.7175 2.936L58.9495 7.256C58.8215 8.024 58.5815 8.552 58.2295 8.84C57.8775 9.128 57.3175 9.272 56.5495 9.272H44.4055L43.4935 12.632H46.8055C51.0295 12.632 54.0055 13.72 55.7335 15.896C57.4935 18.04 58.0695 20.824 57.4615 24.248C56.8535 27.672 55.2695 30.44 52.7095 32.552C50.1495 34.664 46.7895 35.72 42.6295 35.72C38.7895 35.72 35.8295 35.08 33.7495 33.8C31.7015 32.488 30.4055 30.488 29.8615 27.8C29.7335 27.096 29.7975 26.568 30.0535 26.216C30.3095 25.832 30.8055 25.496 31.5415 25.208L37.0135 23.288C37.7175 23.032 38.2295 22.984 38.5495 23.144C38.9015 23.304 39.1575 23.752 39.3175 24.488C39.5415 25.416 39.9575 26.104 40.5655 26.552C41.2055 26.968 42.1975 27.176 43.5415 27.176C45.8775 27.176 47.2535 25.992 47.6695 23.624C48.0535 21.448 46.9815 20.36 44.4535 20.36H34.4215C33.5895 20.36 33.0455 20.184 32.7895 19.832C32.5335 19.448 32.5175 18.84 32.7415 18.008L36.7255 3.752C37.0455 2.664 37.4615 1.912 37.9735 1.496C38.5175 1.08 39.3495 0.871999 40.4695 0.871999H58.0375ZM62.3699 7.688C62.8179 5.352 63.8899 3.528 65.5859 2.216C67.3139 0.871999 69.5539 0.199999 72.3059 0.199999C75.0579 0.199999 77.0419 0.871999 78.2579 2.216C79.5059 3.528 79.9219 5.352 79.5059 7.688L78.8819 11.336C78.4659 13.64 77.3939 15.448 75.6659 16.76C73.9699 18.072 71.7459 18.728 68.9939 18.728C66.2419 18.728 64.2419 18.072 62.9939 16.76C61.7459 15.448 61.3299 13.64 61.7459 11.336L62.3699 7.688ZM98.9939 0.919998C99.6659 0.919998 100.066 1.112 100.194 1.496C100.322 1.88 100.146 2.328 99.6659 2.84L72.0179 33.224C71.2819 33.992 70.6739 34.488 70.1939 34.712C69.7459 34.904 68.9299 35 67.7459 35H63.3779C62.6739 35 62.2579 34.792 62.1299 34.376C62.0339 33.96 62.2259 33.496 62.7059 32.984L90.4019 2.6C91.0739 1.864 91.6339 1.4 92.0819 1.208C92.5299 1.016 93.2979 0.919998 94.3859 0.919998H98.9939ZM72.9299 8.12C73.1219 6.968 72.5459 6.392 71.2019 6.392C69.8259 6.392 69.0419 6.968 68.8499 8.12L68.3699 10.808C68.1139 11.992 68.6899 12.584 70.0979 12.584C71.4099 12.584 72.1939 11.992 72.4499 10.808L72.9299 8.12ZM83.2979 24.68C83.6819 22.312 84.7379 20.472 86.4659 19.16C88.1939 17.816 90.4339 17.144 93.1859 17.144C95.9379 17.144 97.9219 17.816 99.1379 19.16C100.386 20.472 100.802 22.312 100.386 24.68L99.7619 28.28C99.3459 30.616 98.2899 32.44 96.5939 33.752C94.8979 35.064 92.6739 35.72 89.9219 35.72C87.1699 35.72 85.1539 35.064 83.8739 33.752C82.6259 32.44 82.2099 30.616 82.6259 28.28L83.2979 24.68ZM93.8579 25.112C94.0179 23.96 93.4419 23.384 92.1299 23.384C90.6899 23.384 89.9059 23.96 89.7779 25.112L89.2979 27.8C89.0419 28.952 89.6179 29.528 91.0259 29.528C92.3379 29.528 93.1219 28.952 93.3779 27.8L93.8579 25.112Z" fill="url(#paint1_linear_181_3399)"/>
<defs>
<linearGradient id="paint0_linear_181_3399" x1="144.884" y1="52.25" x2="141.659" y2="-9.11858" gradientUnits="userSpaceOnUse">
<stop stop-color="#EBC367"/>
<stop offset="0.206588" stop-color="#FDB242"/>
<stop offset="0.589636" stop-color="#D1891E"/>
<stop offset="0.694186" stop-color="#E1A03F"/>
<stop offset="0.697522" stop-color="#FFDDA9"/>
<stop offset="0.911458" stop-color="#F1BD57"/>
</linearGradient>
<linearGradient id="paint1_linear_181_3399" x1="312.976" y1="0.450024" x2="31.7754" y2="60.7364" gradientUnits="userSpaceOnUse">
<stop stop-color="#E6C365" stop-opacity="0"/>
<stop offset="1" stop-color="#E6C365" stop-opacity="0.3"/>
</linearGradient>
</defs>
</svg>
