<svg width="103" height="36" viewBox="0 0 103 36" fill="none" xmlns="http://www.w3.org/2000/svg">
<path d="M28.58 0.871999C29.348 0.871999 29.844 1.032 30.068 1.352C30.324 1.64 30.388 2.168 30.26 2.936L29.492 7.256C29.364 8.024 29.124 8.552 28.772 8.84C28.42 9.128 27.86 9.272 27.092 9.272H14.948L14.036 12.632H17.348C21.572 12.632 24.548 13.72 26.276 15.896C28.036 18.04 28.612 20.824 28.004 24.248C27.396 27.672 25.812 30.44 23.252 32.552C20.692 34.664 17.332 35.72 13.172 35.72C9.332 35.72 6.372 35.08 4.292 33.8C2.244 32.488 0.948 30.488 0.404 27.8C0.276 27.096 0.34 26.568 0.596 26.216C0.852 25.832 1.348 25.496 2.084 25.208L7.556 23.288C8.26 23.032 8.772 22.984 9.092 23.144C9.444 23.304 9.7 23.752 9.86 24.488C10.084 25.416 10.5 26.104 11.108 26.552C11.748 26.968 12.74 27.176 14.084 27.176C16.42 27.176 17.796 25.992 18.212 23.624C18.596 21.448 17.524 20.36 14.996 20.36H4.964C4.132 20.36 3.588 20.184 3.332 19.832C3.076 19.448 3.06 18.84 3.284 18.008L7.268 3.752C7.588 2.664 8.004 1.912 8.516 1.496C9.06 1.08 9.892 0.871999 11.012 0.871999H28.58ZM32.9124 12.152C33.5524 8.344 35.2324 5.4 37.9524 3.32C40.7044 1.24 44.2564 0.199999 48.6084 0.199999C52.8644 0.199999 56.0004 1.4 58.0164 3.8C60.0324 6.2 60.7044 9.336 60.0324 13.208L58.1604 23.72C57.4884 27.56 55.8084 30.52 53.1204 32.6C50.4324 34.68 46.9284 35.72 42.6084 35.72C38.3204 35.72 35.1524 34.536 33.1044 32.168C31.0564 29.768 30.3684 26.6 31.0404 22.664L32.9124 12.152ZM50.7204 12.296C50.9124 11.112 50.7044 10.2 50.0964 9.56C49.4884 8.92 48.5284 8.6 47.2164 8.6C45.9044 8.6 44.8164 8.92 43.9524 9.56C43.1204 10.2 42.5924 11.112 42.3684 12.296L40.4004 23.576C40.1764 24.76 40.3684 25.688 40.9764 26.36C41.6164 27 42.5924 27.32 43.9044 27.32C45.2164 27.32 46.2884 27 47.1204 26.36C47.9524 25.688 48.4804 24.76 48.7044 23.576L50.7204 12.296ZM63.5574 7.688C64.0054 5.352 65.0774 3.528 66.7734 2.216C68.5014 0.871999 70.7414 0.199999 73.4934 0.199999C76.2454 0.199999 78.2294 0.871999 79.4454 2.216C80.6934 3.528 81.1094 5.352 80.6934 7.688L80.0694 11.336C79.6534 13.64 78.5814 15.448 76.8534 16.76C75.1574 18.072 72.9334 18.728 70.1814 18.728C67.4294 18.728 65.4294 18.072 64.1814 16.76C62.9334 15.448 62.5174 13.64 62.9334 11.336L63.5574 7.688ZM100.181 0.919998C100.853 0.919998 101.253 1.112 101.381 1.496C101.509 1.88 101.333 2.328 100.853 2.84L73.2054 33.224C72.4694 33.992 71.8614 34.488 71.3814 34.712C70.9334 34.904 70.1174 35 68.9334 35H64.5654C63.8614 35 63.4454 34.792 63.3174 34.376C63.2214 33.96 63.4134 33.496 63.8934 32.984L91.5894 2.6C92.2614 1.864 92.8214 1.4 93.2694 1.208C93.7174 1.016 94.4854 0.919998 95.5734 0.919998H100.181ZM74.1174 8.12C74.3094 6.968 73.7334 6.392 72.3894 6.392C71.0134 6.392 70.2294 6.968 70.0374 8.12L69.5574 10.808C69.3014 11.992 69.8774 12.584 71.2854 12.584C72.5974 12.584 73.3814 11.992 73.6374 10.808L74.1174 8.12ZM84.4854 24.68C84.8694 22.312 85.9254 20.472 87.6534 19.16C89.3814 17.816 91.6214 17.144 94.3734 17.144C97.1254 17.144 99.1094 17.816 100.325 19.16C101.573 20.472 101.989 22.312 101.573 24.68L100.949 28.28C100.533 30.616 99.4774 32.44 97.7814 33.752C96.0854 35.064 93.8614 35.72 91.1094 35.72C88.3574 35.72 86.3414 35.064 85.0614 33.752C83.8134 32.44 83.3974 30.616 83.8134 28.28L84.4854 24.68ZM95.0454 25.112C95.2054 23.96 94.6294 23.384 93.3174 23.384C91.8774 23.384 91.0934 23.96 90.9654 25.112L90.4854 27.8C90.2294 28.952 90.8054 29.528 92.2134 29.528C93.5254 29.528 94.3094 28.952 94.5654 27.8L95.0454 25.112Z" fill="url(#paint0_linear_181_3388)"/>
<path d="M28.58 0.871999C29.348 0.871999 29.844 1.032 30.068 1.352C30.324 1.64 30.388 2.168 30.26 2.936L29.492 7.256C29.364 8.024 29.124 8.552 28.772 8.84C28.42 9.128 27.86 9.272 27.092 9.272H14.948L14.036 12.632H17.348C21.572 12.632 24.548 13.72 26.276 15.896C28.036 18.04 28.612 20.824 28.004 24.248C27.396 27.672 25.812 30.44 23.252 32.552C20.692 34.664 17.332 35.72 13.172 35.72C9.332 35.72 6.372 35.08 4.292 33.8C2.244 32.488 0.948 30.488 0.404 27.8C0.276 27.096 0.34 26.568 0.596 26.216C0.852 25.832 1.348 25.496 2.084 25.208L7.556 23.288C8.26 23.032 8.772 22.984 9.092 23.144C9.444 23.304 9.7 23.752 9.86 24.488C10.084 25.416 10.5 26.104 11.108 26.552C11.748 26.968 12.74 27.176 14.084 27.176C16.42 27.176 17.796 25.992 18.212 23.624C18.596 21.448 17.524 20.36 14.996 20.36H4.964C4.132 20.36 3.588 20.184 3.332 19.832C3.076 19.448 3.06 18.84 3.284 18.008L7.268 3.752C7.588 2.664 8.004 1.912 8.516 1.496C9.06 1.08 9.892 0.871999 11.012 0.871999H28.58ZM32.9124 12.152C33.5524 8.344 35.2324 5.4 37.9524 3.32C40.7044 1.24 44.2564 0.199999 48.6084 0.199999C52.8644 0.199999 56.0004 1.4 58.0164 3.8C60.0324 6.2 60.7044 9.336 60.0324 13.208L58.1604 23.72C57.4884 27.56 55.8084 30.52 53.1204 32.6C50.4324 34.68 46.9284 35.72 42.6084 35.72C38.3204 35.72 35.1524 34.536 33.1044 32.168C31.0564 29.768 30.3684 26.6 31.0404 22.664L32.9124 12.152ZM50.7204 12.296C50.9124 11.112 50.7044 10.2 50.0964 9.56C49.4884 8.92 48.5284 8.6 47.2164 8.6C45.9044 8.6 44.8164 8.92 43.9524 9.56C43.1204 10.2 42.5924 11.112 42.3684 12.296L40.4004 23.576C40.1764 24.76 40.3684 25.688 40.9764 26.36C41.6164 27 42.5924 27.32 43.9044 27.32C45.2164 27.32 46.2884 27 47.1204 26.36C47.9524 25.688 48.4804 24.76 48.7044 23.576L50.7204 12.296ZM63.5574 7.688C64.0054 5.352 65.0774 3.528 66.7734 2.216C68.5014 0.871999 70.7414 0.199999 73.4934 0.199999C76.2454 0.199999 78.2294 0.871999 79.4454 2.216C80.6934 3.528 81.1094 5.352 80.6934 7.688L80.0694 11.336C79.6534 13.64 78.5814 15.448 76.8534 16.76C75.1574 18.072 72.9334 18.728 70.1814 18.728C67.4294 18.728 65.4294 18.072 64.1814 16.76C62.9334 15.448 62.5174 13.64 62.9334 11.336L63.5574 7.688ZM100.181 0.919998C100.853 0.919998 101.253 1.112 101.381 1.496C101.509 1.88 101.333 2.328 100.853 2.84L73.2054 33.224C72.4694 33.992 71.8614 34.488 71.3814 34.712C70.9334 34.904 70.1174 35 68.9334 35H64.5654C63.8614 35 63.4454 34.792 63.3174 34.376C63.2214 33.96 63.4134 33.496 63.8934 32.984L91.5894 2.6C92.2614 1.864 92.8214 1.4 93.2694 1.208C93.7174 1.016 94.4854 0.919998 95.5734 0.919998H100.181ZM74.1174 8.12C74.3094 6.968 73.7334 6.392 72.3894 6.392C71.0134 6.392 70.2294 6.968 70.0374 8.12L69.5574 10.808C69.3014 11.992 69.8774 12.584 71.2854 12.584C72.5974 12.584 73.3814 11.992 73.6374 10.808L74.1174 8.12ZM84.4854 24.68C84.8694 22.312 85.9254 20.472 87.6534 19.16C89.3814 17.816 91.6214 17.144 94.3734 17.144C97.1254 17.144 99.1094 17.816 100.325 19.16C101.573 20.472 101.989 22.312 101.573 24.68L100.949 28.28C100.533 30.616 99.4774 32.44 97.7814 33.752C96.0854 35.064 93.8614 35.72 91.1094 35.72C88.3574 35.72 86.3414 35.064 85.0614 33.752C83.8134 32.44 83.3974 30.616 83.8134 28.28L84.4854 24.68ZM95.0454 25.112C95.2054 23.96 94.6294 23.384 93.3174 23.384C91.8774 23.384 91.0934 23.96 90.9654 25.112L90.4854 27.8C90.2294 28.952 90.8054 29.528 92.2134 29.528C93.5254 29.528 94.3094 28.952 94.5654 27.8L95.0454 25.112Z" fill="url(#paint1_linear_181_3388)"/>
<defs>
<linearGradient id="paint0_linear_181_3388" x1="44.2968" y1="52.25" x2="33.9817" y2="-7.50746" gradientUnits="userSpaceOnUse">
<stop stop-color="#EBC367"/>
<stop offset="0.206588" stop-color="#FDB242"/>
<stop offset="0.589636" stop-color="#D1891E"/>
<stop offset="0.694186" stop-color="#E1A03F"/>
<stop offset="0.697522" stop-color="#FFDDA9"/>
<stop offset="0.911458" stop-color="#F1BD57"/>
</linearGradient>
<linearGradient id="paint1_linear_181_3388" x1="95.4626" y1="0.450024" x2="6.3132" y2="6.26773" gradientUnits="userSpaceOnUse">
<stop stop-color="#E6C365" stop-opacity="0"/>
<stop offset="1" stop-color="#E6C365" stop-opacity="0.3"/>
</linearGradient>
</defs>
</svg>
