<svg width="123" height="36" viewBox="0 0 123 36" fill="none" xmlns="http://www.w3.org/2000/svg">
<path d="M29.08 0.871999C29.848 0.871999 30.344 1.032 30.568 1.352C30.824 1.64 30.888 2.168 30.76 2.936L29.992 7.256C29.864 8.024 29.624 8.552 29.272 8.84C28.92 9.128 28.36 9.272 27.592 9.272H15.448L14.536 12.632H17.848C22.072 12.632 25.048 13.72 26.776 15.896C28.536 18.04 29.112 20.824 28.504 24.248C27.896 27.672 26.312 30.44 23.752 32.552C21.192 34.664 17.832 35.72 13.672 35.72C9.832 35.72 6.872 35.08 4.792 33.8C2.744 32.488 1.448 30.488 0.904 27.8C0.776 27.096 0.84 26.568 1.096 26.216C1.352 25.832 1.848 25.496 2.584 25.208L8.056 23.288C8.76 23.032 9.272 22.984 9.592 23.144C9.944 23.304 10.2 23.752 10.36 24.488C10.584 25.416 11 26.104 11.608 26.552C12.248 26.968 13.24 27.176 14.584 27.176C16.92 27.176 18.296 25.992 18.712 23.624C19.096 21.448 18.024 20.36 15.496 20.36H5.464C4.632 20.36 4.088 20.184 3.832 19.832C3.576 19.448 3.56 18.84 3.784 18.008L7.768 3.752C8.088 2.664 8.504 1.912 9.016 1.496C9.56 1.08 10.392 0.871999 11.512 0.871999H29.08ZM33.4124 12.152C34.0524 8.344 35.7324 5.4 38.4524 3.32C41.2044 1.24 44.7564 0.199999 49.1084 0.199999C53.3644 0.199999 56.5004 1.4 58.5164 3.8C60.5324 6.2 61.2044 9.336 60.5324 13.208L58.6604 23.72C57.9884 27.56 56.3084 30.52 53.6204 32.6C50.9324 34.68 47.4284 35.72 43.1084 35.72C38.8204 35.72 35.6524 34.536 33.6044 32.168C31.5564 29.768 30.8684 26.6 31.5404 22.664L33.4124 12.152ZM51.2204 12.296C51.4124 11.112 51.2044 10.2 50.5964 9.56C49.9884 8.92 49.0284 8.6 47.7164 8.6C46.4044 8.6 45.3164 8.92 44.4524 9.56C43.6204 10.2 43.0924 11.112 42.8684 12.296L40.9004 23.576C40.6764 24.76 40.8684 25.688 41.4764 26.36C42.1164 27 43.0924 27.32 44.4044 27.32C45.7164 27.32 46.7884 27 47.6204 26.36C48.4524 25.688 48.9804 24.76 49.2044 23.576L51.2204 12.296ZM64.0574 12.152C64.6974 8.344 66.3774 5.4 69.0974 3.32C71.8494 1.24 75.4014 0.199999 79.7534 0.199999C84.0094 0.199999 87.1454 1.4 89.1614 3.8C91.1774 6.2 91.8494 9.336 91.1774 13.208L89.3054 23.72C88.6334 27.56 86.9534 30.52 84.2654 32.6C81.5774 34.68 78.0734 35.72 73.7534 35.72C69.4654 35.72 66.2974 34.536 64.2494 32.168C62.2014 29.768 61.5134 26.6 62.1854 22.664L64.0574 12.152ZM81.8654 12.296C82.0574 11.112 81.8494 10.2 81.2414 9.56C80.6334 8.92 79.6734 8.6 78.3614 8.6C77.0494 8.6 75.9614 8.92 75.0974 9.56C74.2654 10.2 73.7374 11.112 73.5134 12.296L71.5454 23.576C71.3214 24.76 71.5134 25.688 72.1214 26.36C72.7614 27 73.7374 27.32 75.0494 27.32C76.3614 27.32 77.4334 27 78.2654 26.36C79.0974 25.688 79.6254 24.76 79.8494 23.576L81.8654 12.296ZM94.7024 12.152C95.3424 8.344 97.0224 5.4 99.7424 3.32C102.494 1.24 106.046 0.199999 110.398 0.199999C114.654 0.199999 117.79 1.4 119.806 3.8C121.822 6.2 122.494 9.336 121.822 13.208L119.95 23.72C119.278 27.56 117.598 30.52 114.91 32.6C112.222 34.68 108.718 35.72 104.398 35.72C100.11 35.72 96.9424 34.536 94.8944 32.168C92.8464 29.768 92.1584 26.6 92.8304 22.664L94.7024 12.152ZM112.51 12.296C112.702 11.112 112.494 10.2 111.886 9.56C111.278 8.92 110.318 8.6 109.006 8.6C107.694 8.6 106.606 8.92 105.742 9.56C104.91 10.2 104.382 11.112 104.158 12.296L102.19 23.576C101.966 24.76 102.158 25.688 102.766 26.36C103.406 27 104.382 27.32 105.694 27.32C107.006 27.32 108.078 27 108.91 26.36C109.742 25.688 110.27 24.76 110.494 23.576L112.51 12.296Z" fill="url(#paint0_linear_181_3383)"/>
<path d="M29.08 0.871999C29.848 0.871999 30.344 1.032 30.568 1.352C30.824 1.64 30.888 2.168 30.76 2.936L29.992 7.256C29.864 8.024 29.624 8.552 29.272 8.84C28.92 9.128 28.36 9.272 27.592 9.272H15.448L14.536 12.632H17.848C22.072 12.632 25.048 13.72 26.776 15.896C28.536 18.04 29.112 20.824 28.504 24.248C27.896 27.672 26.312 30.44 23.752 32.552C21.192 34.664 17.832 35.72 13.672 35.72C9.832 35.72 6.872 35.08 4.792 33.8C2.744 32.488 1.448 30.488 0.904 27.8C0.776 27.096 0.84 26.568 1.096 26.216C1.352 25.832 1.848 25.496 2.584 25.208L8.056 23.288C8.76 23.032 9.272 22.984 9.592 23.144C9.944 23.304 10.2 23.752 10.36 24.488C10.584 25.416 11 26.104 11.608 26.552C12.248 26.968 13.24 27.176 14.584 27.176C16.92 27.176 18.296 25.992 18.712 23.624C19.096 21.448 18.024 20.36 15.496 20.36H5.464C4.632 20.36 4.088 20.184 3.832 19.832C3.576 19.448 3.56 18.84 3.784 18.008L7.768 3.752C8.088 2.664 8.504 1.912 9.016 1.496C9.56 1.08 10.392 0.871999 11.512 0.871999H29.08ZM33.4124 12.152C34.0524 8.344 35.7324 5.4 38.4524 3.32C41.2044 1.24 44.7564 0.199999 49.1084 0.199999C53.3644 0.199999 56.5004 1.4 58.5164 3.8C60.5324 6.2 61.2044 9.336 60.5324 13.208L58.6604 23.72C57.9884 27.56 56.3084 30.52 53.6204 32.6C50.9324 34.68 47.4284 35.72 43.1084 35.72C38.8204 35.72 35.6524 34.536 33.6044 32.168C31.5564 29.768 30.8684 26.6 31.5404 22.664L33.4124 12.152ZM51.2204 12.296C51.4124 11.112 51.2044 10.2 50.5964 9.56C49.9884 8.92 49.0284 8.6 47.7164 8.6C46.4044 8.6 45.3164 8.92 44.4524 9.56C43.6204 10.2 43.0924 11.112 42.8684 12.296L40.9004 23.576C40.6764 24.76 40.8684 25.688 41.4764 26.36C42.1164 27 43.0924 27.32 44.4044 27.32C45.7164 27.32 46.7884 27 47.6204 26.36C48.4524 25.688 48.9804 24.76 49.2044 23.576L51.2204 12.296ZM64.0574 12.152C64.6974 8.344 66.3774 5.4 69.0974 3.32C71.8494 1.24 75.4014 0.199999 79.7534 0.199999C84.0094 0.199999 87.1454 1.4 89.1614 3.8C91.1774 6.2 91.8494 9.336 91.1774 13.208L89.3054 23.72C88.6334 27.56 86.9534 30.52 84.2654 32.6C81.5774 34.68 78.0734 35.72 73.7534 35.72C69.4654 35.72 66.2974 34.536 64.2494 32.168C62.2014 29.768 61.5134 26.6 62.1854 22.664L64.0574 12.152ZM81.8654 12.296C82.0574 11.112 81.8494 10.2 81.2414 9.56C80.6334 8.92 79.6734 8.6 78.3614 8.6C77.0494 8.6 75.9614 8.92 75.0974 9.56C74.2654 10.2 73.7374 11.112 73.5134 12.296L71.5454 23.576C71.3214 24.76 71.5134 25.688 72.1214 26.36C72.7614 27 73.7374 27.32 75.0494 27.32C76.3614 27.32 77.4334 27 78.2654 26.36C79.0974 25.688 79.6254 24.76 79.8494 23.576L81.8654 12.296ZM94.7024 12.152C95.3424 8.344 97.0224 5.4 99.7424 3.32C102.494 1.24 106.046 0.199999 110.398 0.199999C114.654 0.199999 117.79 1.4 119.806 3.8C121.822 6.2 122.494 9.336 121.822 13.208L119.95 23.72C119.278 27.56 117.598 30.52 114.91 32.6C112.222 34.68 108.718 35.72 104.398 35.72C100.11 35.72 96.9424 34.536 94.8944 32.168C92.8464 29.768 92.1584 26.6 92.8304 22.664L94.7024 12.152ZM112.51 12.296C112.702 11.112 112.494 10.2 111.886 9.56C111.278 8.92 110.318 8.6 109.006 8.6C107.694 8.6 106.606 8.92 105.742 9.56C104.91 10.2 104.382 11.112 104.158 12.296L102.19 23.576C101.966 24.76 102.158 25.688 102.766 26.36C103.406 27 104.382 27.32 105.694 27.32C107.006 27.32 108.078 27 108.91 26.36C109.742 25.688 110.27 24.76 110.494 23.576L112.51 12.296Z" fill="url(#paint1_linear_181_3383)"/>
<defs>
<linearGradient id="paint0_linear_181_3383" x1="52.377" y1="52.25" x2="43.5137" y2="-7.98379" gradientUnits="userSpaceOnUse">
<stop stop-color="#EBC367"/>
<stop offset="0.206588" stop-color="#FDB242"/>
<stop offset="0.589636" stop-color="#D1891E"/>
<stop offset="0.694186" stop-color="#E1A03F"/>
<stop offset="0.697522" stop-color="#FFDDA9"/>
<stop offset="0.911458" stop-color="#F1BD57"/>
</linearGradient>
<linearGradient id="paint1_linear_181_3383" x1="112.398" y1="0.450024" x2="7.98586" y2="8.44307" gradientUnits="userSpaceOnUse">
<stop stop-color="#E6C365" stop-opacity="0"/>
<stop offset="1" stop-color="#E6C365" stop-opacity="0.3"/>
</linearGradient>
</defs>
</svg>
