<svg width="48" height="44" viewBox="0 0 48 44" fill="none" xmlns="http://www.w3.org/2000/svg">
<path d="M21.106 4.246C22.046 4.088 23.012 4 24 4C33.942 4 42 12.058 42 22C42 25.484 41 28.726 39.282 31.476C39.734 29.722 40 27.894 40 26C40 14.926 31.768 5.762 21.106 4.246ZM46 22C46 23.894 45.734 25.722 45.282 27.476C47 24.726 48 21.484 48 18C48 8.058 39.942 0 30 0C29.012 0 28.046 0.088 27.106 0.246C37.768 1.762 46 10.926 46 22ZM18 12C25.718 12 32 18.28 32 26C32 33.72 25.718 40 18 40C10.282 40 4 33.72 4 26C4 18.28 10.282 12 18 12ZM18 8C8.058 8 0 16.058 0 26C0 35.942 8.058 44 18 44C27.942 44 36 35.942 36 26C36 16.058 27.942 8 18 8ZM24.1185 29.472C24.1185 25.898 20.3985 24.902 17.5465 23.562C15.8185 22.664 16.0325 20.512 18.5125 20.368C19.8945 20.284 21.3045 20.692 22.5845 21.142L23.1885 18.398C21.6765 17.938 20.3285 17.728 19.1185 17.694V16H17.4545V17.778C14.2125 18.224 12.4785 20.258 12.4785 22.528C12.4785 26.592 17.2245 27.212 18.7745 27.934C20.8965 28.882 20.5005 30.85 18.5865 31.284C16.9265 31.66 14.8005 31.004 13.2105 30.384L12.4545 33.124C13.9425 33.894 15.7285 34.306 17.4545 34.334V36H19.1185V34.246C21.8805 33.858 24.1245 32.334 24.1185 29.472Z" fill="url(#paint0_linear_181_3402)"/>
<path d="M21.106 4.246C22.046 4.088 23.012 4 24 4C33.942 4 42 12.058 42 22C42 25.484 41 28.726 39.282 31.476C39.734 29.722 40 27.894 40 26C40 14.926 31.768 5.762 21.106 4.246ZM46 22C46 23.894 45.734 25.722 45.282 27.476C47 24.726 48 21.484 48 18C48 8.058 39.942 0 30 0C29.012 0 28.046 0.088 27.106 0.246C37.768 1.762 46 10.926 46 22ZM18 12C25.718 12 32 18.28 32 26C32 33.72 25.718 40 18 40C10.282 40 4 33.72 4 26C4 18.28 10.282 12 18 12ZM18 8C8.058 8 0 16.058 0 26C0 35.942 8.058 44 18 44C27.942 44 36 35.942 36 26C36 16.058 27.942 8 18 8ZM24.1185 29.472C24.1185 25.898 20.3985 24.902 17.5465 23.562C15.8185 22.664 16.0325 20.512 18.5125 20.368C19.8945 20.284 21.3045 20.692 22.5845 21.142L23.1885 18.398C21.6765 17.938 20.3285 17.728 19.1185 17.694V16H17.4545V17.778C14.2125 18.224 12.4785 20.258 12.4785 22.528C12.4785 26.592 17.2245 27.212 18.7745 27.934C20.8965 28.882 20.5005 30.85 18.5865 31.284C16.9265 31.66 14.8005 31.004 13.2105 30.384L12.4545 33.124C13.9425 33.894 15.7285 34.306 17.4545 34.334V36H19.1185V34.246C21.8805 33.858 24.1245 32.334 24.1185 29.472Z" fill="url(#paint1_linear_181_3402)"/>
<defs>
<linearGradient id="paint0_linear_181_3402" x1="20.2139" y1="48.125" x2="7.13492" y2="3.61707" gradientUnits="userSpaceOnUse">
<stop stop-color="#EBC367"/>
<stop offset="0.206588" stop-color="#FDB242"/>
<stop offset="0.589636" stop-color="#D1891E"/>
<stop offset="0.694186" stop-color="#E1A03F"/>
<stop offset="0.697522" stop-color="#FFDDA9"/>
<stop offset="0.911458" stop-color="#F1BD57"/>
</linearGradient>
<linearGradient id="paint1_linear_181_3402" x1="43.8289" y1="7.42502" x2="2.56842" y2="9.00667" gradientUnits="userSpaceOnUse">
<stop stop-color="#E6C365" stop-opacity="0"/>
<stop offset="1" stop-color="#E6C365" stop-opacity="0.3"/>
</linearGradient>
</defs>
</svg>
