<svg width="40" height="39" viewBox="0 0 40 39" fill="none" xmlns="http://www.w3.org/2000/svg">
<path d="M0 14.1667V18.3333C0 20.0833 1 21.5 2.5 22.1667V34.1667C2.5 36.5 4.41667 38.3333 6.66667 38.3333H33.3333C35.6667 38.3333 37.5 36.4167 37.5 34.1667V22.1667C39 21.5 40 20 40 18.3333V14.1667C40 11.8333 38.0833 10 35.8333 10H30.8333C31.4167 9 31.75 7.91667 31.75 6.66667C31.75 3 28.75 0 25.0833 0C23.0833 0 21.3333 0.916667 20.0833 2.25C18.75 0.916667 17 0 15 0C11.3333 0 8.33333 3 8.33333 6.66667C8.33333 7.91667 8.66667 9 9.25 10H4.25C1.91667 10 0 11.9167 0 14.1667ZM3.33333 14.1667C3.33333 13.6667 3.75 13.3333 4.16667 13.3333H18.3333V19.1667H4.16667C3.66667 19.1667 3.33333 18.75 3.33333 18.3333V14.1667ZM5.83333 34.1667V22.5H18.3333V35H6.66667C6.25 35 5.83333 34.5833 5.83333 34.1667ZM33.3333 35H21.6667V22.5H34.1667V34.1667C34.1667 34.5833 33.75 35 33.3333 35ZM36.6667 14.1667V18.3333C36.6667 18.8333 36.25 19.1667 35.8333 19.1667H21.6667V13.3333H35.8333C36.25 13.3333 36.6667 13.75 36.6667 14.1667ZM25 3.33333C26.8333 3.33333 28.3333 4.83333 28.3333 6.66667C28.3333 8.5 26.8333 10 25 10H21.6667V6.66667C21.6667 4.83333 23.1667 3.33333 25 3.33333ZM11.6667 6.66667C11.6667 4.83333 13.1667 3.33333 15 3.33333C16.8333 3.33333 18.3333 4.83333 18.3333 6.66667V10H15C13.1667 10 11.6667 8.5 11.6667 6.66667Z" fill="url(#paint0_linear_181_3386)"/>
<path d="M0 14.1667V18.3333C0 20.0833 1 21.5 2.5 22.1667V34.1667C2.5 36.5 4.41667 38.3333 6.66667 38.3333H33.3333C35.6667 38.3333 37.5 36.4167 37.5 34.1667V22.1667C39 21.5 40 20 40 18.3333V14.1667C40 11.8333 38.0833 10 35.8333 10H30.8333C31.4167 9 31.75 7.91667 31.75 6.66667C31.75 3 28.75 0 25.0833 0C23.0833 0 21.3333 0.916667 20.0833 2.25C18.75 0.916667 17 0 15 0C11.3333 0 8.33333 3 8.33333 6.66667C8.33333 7.91667 8.66667 9 9.25 10H4.25C1.91667 10 0 11.9167 0 14.1667ZM3.33333 14.1667C3.33333 13.6667 3.75 13.3333 4.16667 13.3333H18.3333V19.1667H4.16667C3.66667 19.1667 3.33333 18.75 3.33333 18.3333V14.1667ZM5.83333 34.1667V22.5H18.3333V35H6.66667C6.25 35 5.83333 34.5833 5.83333 34.1667ZM33.3333 35H21.6667V22.5H34.1667V34.1667C34.1667 34.5833 33.75 35 33.3333 35ZM36.6667 14.1667V18.3333C36.6667 18.8333 36.25 19.1667 35.8333 19.1667H21.6667V13.3333H35.8333C36.25 13.3333 36.6667 13.75 36.6667 14.1667ZM25 3.33333C26.8333 3.33333 28.3333 4.83333 28.3333 6.66667C28.3333 8.5 26.8333 10 25 10H21.6667V6.66667C21.6667 4.83333 23.1667 3.33333 25 3.33333ZM11.6667 6.66667C11.6667 4.83333 13.1667 3.33333 15 3.33333C16.8333 3.33333 18.3333 4.83333 18.3333 6.66667V10H15C13.1667 10 11.6667 8.5 11.6667 6.66667Z" fill="url(#paint1_linear_181_3386)"/>
<defs>
<linearGradient id="paint0_linear_181_3386" x1="16.8449" y1="41.9271" x2="5.01981" y2="3.4357" gradientUnits="userSpaceOnUse">
<stop stop-color="#EBC367"/>
<stop offset="0.206588" stop-color="#FDB242"/>
<stop offset="0.589636" stop-color="#D1891E"/>
<stop offset="0.694186" stop-color="#E1A03F"/>
<stop offset="0.697522" stop-color="#FFDDA9"/>
<stop offset="0.911458" stop-color="#F1BD57"/>
</linearGradient>
<linearGradient id="paint1_linear_181_3386" x1="36.5241" y1="6.46877" x2="2.13606" y2="7.72966" gradientUnits="userSpaceOnUse">
<stop stop-color="#E6C365" stop-opacity="0"/>
<stop offset="1" stop-color="#E6C365" stop-opacity="0.3"/>
</linearGradient>
</defs>
</svg>
