<svg width="40" height="40" viewBox="0 0 40 40" fill="none" xmlns="http://www.w3.org/2000/svg">
<path fill-rule="evenodd" clip-rule="evenodd" d="M21.1096 38.18L16.4646 29.215L13.7412 30.5483C10.7862 31.9817 4.76958 20.23 7.65958 18.6817L10.4062 17.3283L5.79958 8.33333L3.02124 9.705C-6.48209 14.6583 8.60624 43.9867 18.3262 39.5433C18.4862 39.4717 21.0996 38.185 21.1096 38.18ZM29.2796 33.8417L31.0146 36.6917C29.3162 37.815 27.4362 38.6867 25.4296 39.2533L23.8729 36.2133C25.8312 35.7467 27.6562 34.9333 29.2796 33.8417ZM34.1496 28.805L37.2862 30.0583C36.1562 31.995 34.7096 33.7233 33.0196 35.1767L31.2579 32.2833C32.3712 31.2633 33.3462 30.0917 34.1496 28.805ZM35.3146 26.5783C36.1846 24.56 36.6662 22.335 36.6662 20C36.6662 10.8017 29.1979 3.33333 19.9996 3.33333C15.8379 3.33333 12.0312 4.86167 9.10958 7.38667L7.55458 4.34667C10.9712 1.62667 15.2962 0 19.9996 0C31.0379 0 39.9996 8.96167 39.9996 20C39.9996 22.7733 39.4329 25.415 38.4112 27.8167L35.3146 26.5783ZM29.4629 25H27.0662V22.4167H22.2662V20.7683L26.3662 14.1683H29.4629V20.5183H30.7629V22.4167H29.4629V25ZM21.0129 25H13.3329V23.4683L14.7329 22.2017C17.0996 20.085 18.2496 18.8683 18.2829 17.6C18.2829 16.7167 17.7496 16.0167 16.4996 16.0167C15.5662 16.0167 14.7496 16.4833 14.1829 16.9167L13.4662 15.1017C14.2829 14.485 15.5496 13.985 17.0162 13.985C19.4646 13.985 20.8129 15.4167 20.8129 17.3833C20.8129 19.2017 19.4979 20.6517 17.9329 22.0517L16.9329 22.885V22.9183H21.0129V25ZM27.0662 20.5183V18.1183C27.0662 17.4667 27.0996 16.8 27.1496 16.1H27.0829C26.7329 16.8 26.4496 17.4333 26.0829 18.1183L24.6329 20.485V20.5183H27.0662Z" fill="url(#paint0_linear_181_3408)"/>
<path fill-rule="evenodd" clip-rule="evenodd" d="M21.1096 38.18L16.4646 29.215L13.7412 30.5483C10.7862 31.9817 4.76958 20.23 7.65958 18.6817L10.4062 17.3283L5.79958 8.33333L3.02124 9.705C-6.48209 14.6583 8.60624 43.9867 18.3262 39.5433C18.4862 39.4717 21.0996 38.185 21.1096 38.18ZM29.2796 33.8417L31.0146 36.6917C29.3162 37.815 27.4362 38.6867 25.4296 39.2533L23.8729 36.2133C25.8312 35.7467 27.6562 34.9333 29.2796 33.8417ZM34.1496 28.805L37.2862 30.0583C36.1562 31.995 34.7096 33.7233 33.0196 35.1767L31.2579 32.2833C32.3712 31.2633 33.3462 30.0917 34.1496 28.805ZM35.3146 26.5783C36.1846 24.56 36.6662 22.335 36.6662 20C36.6662 10.8017 29.1979 3.33333 19.9996 3.33333C15.8379 3.33333 12.0312 4.86167 9.10958 7.38667L7.55458 4.34667C10.9712 1.62667 15.2962 0 19.9996 0C31.0379 0 39.9996 8.96167 39.9996 20C39.9996 22.7733 39.4329 25.415 38.4112 27.8167L35.3146 26.5783ZM29.4629 25H27.0662V22.4167H22.2662V20.7683L26.3662 14.1683H29.4629V20.5183H30.7629V22.4167H29.4629V25ZM21.0129 25H13.3329V23.4683L14.7329 22.2017C17.0996 20.085 18.2496 18.8683 18.2829 17.6C18.2829 16.7167 17.7496 16.0167 16.4996 16.0167C15.5662 16.0167 14.7496 16.4833 14.1829 16.9167L13.4662 15.1017C14.2829 14.485 15.5496 13.985 17.0162 13.985C19.4646 13.985 20.8129 15.4167 20.8129 17.3833C20.8129 19.2017 19.4979 20.6517 17.9329 22.0517L16.9329 22.885V22.9183H21.0129V25ZM27.0662 20.5183V18.1183C27.0662 17.4667 27.0996 16.8 27.1496 16.1H27.0829C26.7329 16.8 26.4496 17.4333 26.0829 18.1183L24.6329 20.485V20.5183H27.0662Z" fill="url(#paint1_linear_181_3408)"/>
<defs>
<linearGradient id="paint0_linear_181_3408" x1="16.8447" y1="43.7499" x2="4.06684" y2="3.89055" gradientUnits="userSpaceOnUse">
<stop stop-color="#EBC367"/>
<stop offset="0.206588" stop-color="#FDB242"/>
<stop offset="0.589636" stop-color="#D1891E"/>
<stop offset="0.694186" stop-color="#E1A03F"/>
<stop offset="0.697522" stop-color="#FFDDA9"/>
<stop offset="0.911458" stop-color="#F1BD57"/>
</linearGradient>
<linearGradient id="paint1_linear_181_3408" x1="36.5237" y1="6.75001" x2="2.13227" y2="7.95847" gradientUnits="userSpaceOnUse">
<stop stop-color="#E6C365" stop-opacity="0"/>
<stop offset="1" stop-color="#E6C365" stop-opacity="0.3"/>
</linearGradient>
</defs>
</svg>
