<svg width="48" height="42" viewBox="0 0 48 42" fill="none" xmlns="http://www.w3.org/2000/svg">
<path fill-rule="evenodd" clip-rule="evenodd" d="M6.246 18C7.702 7.828 16.424 0 27 0C38.594 0 48 9.404 48 21C48 32.596 38.594 42 27 42C20.154 42 14.09 38.708 10.258 33.636L12.658 30.086C15.676 34.834 20.97 38 27 38C36.374 38 44 30.374 44 21C44 11.626 36.374 4 27 4C18.654 4 11.728 10.056 10.306 18H16L8 29.834L0 18H6.246ZM27.8417 19.2821C27.388 19.0857 26.9385 18.8912 26.5082 18.689C24.7304 17.7651 24.9506 15.5511 27.502 15.403C28.9238 15.3166 30.3745 15.7363 31.6913 16.1993L32.3127 13.3763C30.7572 12.903 29.3703 12.687 28.1255 12.652V10.9092H26.4136V12.7384C23.0782 13.1972 21.2942 15.2898 21.2942 17.6252C21.2942 21.0251 24.5228 22.0821 26.5867 22.7578C27.0609 22.913 27.4736 23.0482 27.7716 23.1869C29.9547 24.1623 29.5473 26.1869 27.5782 26.6334C25.8703 27.0203 23.6831 26.3454 22.0473 25.7075L21.2695 28.5264C22.8004 29.3186 24.6378 29.7425 26.4136 29.7713V31.4853H28.1255V29.6808C30.9671 29.2816 33.2757 27.7137 33.2695 24.7692C33.2695 21.6315 30.4825 20.4252 27.8417 19.2821Z" fill="url(#paint0_linear_181_3395)"/>
<path fill-rule="evenodd" clip-rule="evenodd" d="M6.246 18C7.702 7.828 16.424 0 27 0C38.594 0 48 9.404 48 21C48 32.596 38.594 42 27 42C20.154 42 14.09 38.708 10.258 33.636L12.658 30.086C15.676 34.834 20.97 38 27 38C36.374 38 44 30.374 44 21C44 11.626 36.374 4 27 4C18.654 4 11.728 10.056 10.306 18H16L8 29.834L0 18H6.246ZM27.8417 19.2821C27.388 19.0857 26.9385 18.8912 26.5082 18.689C24.7304 17.7651 24.9506 15.5511 27.502 15.403C28.9238 15.3166 30.3745 15.7363 31.6913 16.1993L32.3127 13.3763C30.7572 12.903 29.3703 12.687 28.1255 12.652V10.9092H26.4136V12.7384C23.0782 13.1972 21.2942 15.2898 21.2942 17.6252C21.2942 21.0251 24.5228 22.0821 26.5867 22.7578C27.0609 22.913 27.4736 23.0482 27.7716 23.1869C29.9547 24.1623 29.5473 26.1869 27.5782 26.6334C25.8703 27.0203 23.6831 26.3454 22.0473 25.7075L21.2695 28.5264C22.8004 29.3186 24.6378 29.7425 26.4136 29.7713V31.4853H28.1255V29.6808C30.9671 29.2816 33.2757 27.7137 33.2695 24.7692C33.2695 21.6315 30.4825 20.4252 27.8417 19.2821Z" fill="url(#paint1_linear_181_3395)"/>
<defs>
<linearGradient id="paint0_linear_181_3395" x1="20.2139" y1="45.9375" x2="8.21214" y2="3.1505" gradientUnits="userSpaceOnUse">
<stop stop-color="#EBC367"/>
<stop offset="0.206588" stop-color="#FDB242"/>
<stop offset="0.589636" stop-color="#D1891E"/>
<stop offset="0.694186" stop-color="#E1A03F"/>
<stop offset="0.697522" stop-color="#FFDDA9"/>
<stop offset="0.911458" stop-color="#F1BD57"/>
</linearGradient>
<linearGradient id="paint1_linear_181_3395" x1="43.8289" y1="7.08752" x2="2.57433" y2="8.74425" gradientUnits="userSpaceOnUse">
<stop stop-color="#E6C365" stop-opacity="0"/>
<stop offset="1" stop-color="#E6C365" stop-opacity="0.3"/>
</linearGradient>
</defs>
</svg>
