<svg width="40" height="40" viewBox="0 0 40 40" fill="none" xmlns="http://www.w3.org/2000/svg">
<g clip-path="url(#clip0_181_3380)">
<g filter="url(#filter0_d_181_3380)">
<path d="M31.6667 3.33333C34.4233 3.33333 36.6667 5.57667 36.6667 8.33333V31.6667C36.6667 34.4233 34.4233 36.6667 31.6667 36.6667H8.33333C5.57667 36.6667 3.33333 34.4233 3.33333 31.6667V8.33333C3.33333 5.57667 5.57667 3.33333 8.33333 3.33333H31.6667ZM31.6667 0H8.33333C3.73 0 0 3.73167 0 8.33333V31.6667C0 36.2683 3.73 40 8.33333 40H31.6667C36.27 40 40 36.2683 40 31.6667V8.33333C40 3.73167 36.27 0 31.6667 0ZM16.6667 15H13.3333V18.3333H10V15H6.66667V11.6667H10V8.33333H13.3333V11.6667H16.6667V15ZM28.3333 8.33333C27.4117 8.33333 26.6667 9.08 26.6667 10C26.6667 10.92 27.4117 11.6667 28.3333 11.6667C29.255 11.6667 30 10.92 30 10C30 9.08 29.255 8.33333 28.3333 8.33333ZM28.3333 15C27.4117 15 26.6667 15.7467 26.6667 16.6667C26.6667 17.5867 27.4117 18.3333 28.3333 18.3333C29.255 18.3333 30 17.5867 30 16.6667C30 15.7467 29.255 15 28.3333 15ZM25 11.6667C24.0783 11.6667 23.3333 12.4133 23.3333 13.3333C23.3333 14.2533 24.0783 15 25 15C25.9217 15 26.6667 14.2533 26.6667 13.3333C26.6667 12.4133 25.9217 11.6667 25 11.6667ZM31.6667 11.6667C30.745 11.6667 30 12.4133 30 13.3333C30 14.2533 30.745 15 31.6667 15C32.5883 15 33.3333 14.2533 33.3333 13.3333C33.3333 12.4133 32.5883 11.6667 31.6667 11.6667ZM15 25C13.16 25 11.6667 26.4917 11.6667 28.3333C11.6667 30.175 13.16 31.6667 15 31.6667C16.84 31.6667 18.3333 30.175 18.3333 28.3333C18.3333 26.4917 16.84 25 15 25ZM25 25C23.16 25 21.6667 26.4917 21.6667 28.3333C21.6667 30.175 23.16 31.6667 25 31.6667C26.84 31.6667 28.3333 30.175 28.3333 28.3333C28.3333 26.4917 26.84 25 25 25Z" fill="url(#paint0_linear_181_3380)"/>
<path d="M31.6667 3.33333C34.4233 3.33333 36.6667 5.57667 36.6667 8.33333V31.6667C36.6667 34.4233 34.4233 36.6667 31.6667 36.6667H8.33333C5.57667 36.6667 3.33333 34.4233 3.33333 31.6667V8.33333C3.33333 5.57667 5.57667 3.33333 8.33333 3.33333H31.6667ZM31.6667 0H8.33333C3.73 0 0 3.73167 0 8.33333V31.6667C0 36.2683 3.73 40 8.33333 40H31.6667C36.27 40 40 36.2683 40 31.6667V8.33333C40 3.73167 36.27 0 31.6667 0ZM16.6667 15H13.3333V18.3333H10V15H6.66667V11.6667H10V8.33333H13.3333V11.6667H16.6667V15ZM28.3333 8.33333C27.4117 8.33333 26.6667 9.08 26.6667 10C26.6667 10.92 27.4117 11.6667 28.3333 11.6667C29.255 11.6667 30 10.92 30 10C30 9.08 29.255 8.33333 28.3333 8.33333ZM28.3333 15C27.4117 15 26.6667 15.7467 26.6667 16.6667C26.6667 17.5867 27.4117 18.3333 28.3333 18.3333C29.255 18.3333 30 17.5867 30 16.6667C30 15.7467 29.255 15 28.3333 15ZM25 11.6667C24.0783 11.6667 23.3333 12.4133 23.3333 13.3333C23.3333 14.2533 24.0783 15 25 15C25.9217 15 26.6667 14.2533 26.6667 13.3333C26.6667 12.4133 25.9217 11.6667 25 11.6667ZM31.6667 11.6667C30.745 11.6667 30 12.4133 30 13.3333C30 14.2533 30.745 15 31.6667 15C32.5883 15 33.3333 14.2533 33.3333 13.3333C33.3333 12.4133 32.5883 11.6667 31.6667 11.6667ZM15 25C13.16 25 11.6667 26.4917 11.6667 28.3333C11.6667 30.175 13.16 31.6667 15 31.6667C16.84 31.6667 18.3333 30.175 18.3333 28.3333C18.3333 26.4917 16.84 25 15 25ZM25 25C23.16 25 21.6667 26.4917 21.6667 28.3333C21.6667 30.175 23.16 31.6667 25 31.6667C26.84 31.6667 28.3333 30.175 28.3333 28.3333C28.3333 26.4917 26.84 25 25 25Z" fill="url(#paint1_linear_181_3380)"/>
</g>
</g>
<defs>
<filter id="filter0_d_181_3380" x="-64" y="-64" width="168" height="168" filterUnits="userSpaceOnUse" color-interpolation-filters="sRGB">
<feFlood flood-opacity="0" result="BackgroundImageFix"/>
<feColorMatrix in="SourceAlpha" type="matrix" values="0 0 0 0 0 0 0 0 0 0 0 0 0 0 0 0 0 0 127 0" result="hardAlpha"/>
<feOffset/>
<feGaussianBlur stdDeviation="32"/>
<feComposite in2="hardAlpha" operator="out"/>
<feColorMatrix type="matrix" values="0 0 0 0 0 0 0 0 0 0 0 0 0 0 0 0 0 0 0.5 0"/>
<feBlend mode="normal" in2="BackgroundImageFix" result="effect1_dropShadow_181_3380"/>
<feBlend mode="normal" in="SourceGraphic" in2="effect1_dropShadow_181_3380" result="shape"/>
</filter>
<linearGradient id="paint0_linear_181_3380" x1="16.8449" y1="43.75" x2="4.06709" y2="3.8905" gradientUnits="userSpaceOnUse">
<stop stop-color="#EBC367"/>
<stop offset="0.206588" stop-color="#FDB242"/>
<stop offset="0.589636" stop-color="#D1891E"/>
<stop offset="0.694186" stop-color="#E1A03F"/>
<stop offset="0.697522" stop-color="#FFDDA9"/>
<stop offset="0.911458" stop-color="#F1BD57"/>
</linearGradient>
<linearGradient id="paint1_linear_181_3380" x1="36.5241" y1="6.75002" x2="2.13229" y2="7.95851" gradientUnits="userSpaceOnUse">
<stop stop-color="#E6C365" stop-opacity="0"/>
<stop offset="1" stop-color="#E6C365" stop-opacity="0.3"/>
</linearGradient>
<clipPath id="clip0_181_3380">
<rect width="40" height="40" fill="white"/>
</clipPath>
</defs>
</svg>
