<svg width="199" height="36" viewBox="0 0 199 36" fill="none" xmlns="http://www.w3.org/2000/svg">
<path d="M5.568 2.84C5.728 2.104 5.968 1.608 6.288 1.352C6.608 1.064 7.12 0.919998 7.824 0.919998H13.488C14.224 0.919998 14.704 1.064 14.928 1.352C15.152 1.64 15.2 2.136 15.072 2.84L9.744 33.08C9.616 33.784 9.392 34.28 9.072 34.568C8.752 34.856 8.224 35 7.488 35H1.824C1.12 35 0.64 34.872 0.384 34.616C0.16 34.328 0.112 33.816 0.24 33.08L5.568 2.84ZM46.5026 0.919998C47.2706 0.919998 47.7826 1.08 48.0386 1.4C48.2946 1.688 48.3586 2.2 48.2306 2.936L42.9026 32.984C42.7746 33.72 42.5346 34.248 42.1826 34.568C41.8306 34.856 41.2706 35 40.5026 35H35.2226C34.3586 35 33.7666 34.68 33.4466 34.04L28.1186 22.664C27.4146 21.128 26.8866 19.672 26.5346 18.296C26.2146 16.888 25.9106 15.048 25.6226 12.776H25.2386C25.4946 17.384 25.3026 21.512 24.6626 25.16L23.2706 32.984C23.1106 33.72 22.8546 34.248 22.5026 34.568C22.1826 34.856 21.6386 35 20.8706 35H15.8306C15.0626 35 14.5506 34.856 14.2946 34.568C14.0386 34.248 13.9906 33.72 14.1506 32.984L19.4306 2.936C19.5906 2.2 19.8306 1.688 20.1506 1.4C20.5026 1.08 21.0626 0.919998 21.8306 0.919998H27.3026C28.2306 0.919998 28.8546 1.24 29.1746 1.88L34.8386 14.168C35.6386 15.864 36.4706 18.792 37.3346 22.952H37.7186C37.3666 20.168 37.1746 18.136 37.1426 16.856C37.1426 15.576 37.3346 13.56 37.7186 10.808L39.1106 2.936C39.2386 2.2 39.4626 1.688 39.7826 1.4C40.1346 1.08 40.6946 0.919998 41.4626 0.919998H46.5026ZM50.3018 10.136C50.8778 6.936 52.4938 4.488 55.1498 2.792C57.8378 1.064 61.4538 0.199999 65.9978 0.199999C69.4218 0.199999 72.0618 0.807999 73.9178 2.024C75.7738 3.208 77.0858 4.968 77.8538 7.304C78.0778 8.008 78.0938 8.52 77.9018 8.84C77.7098 9.16 77.2138 9.48 76.4138 9.8L71.6618 11.672C70.9578 11.96 70.4458 12.04 70.1258 11.912C69.8058 11.784 69.5178 11.368 69.2618 10.664C68.6858 9 67.2138 8.168 64.8458 8.168C61.8058 8.168 60.1418 9 59.8538 10.664C59.6938 11.592 60.0938 12.248 61.0538 12.632C62.0138 13.016 63.5498 13.336 65.6618 13.592C66.4938 13.72 67.2778 13.88 68.0138 14.072C68.7498 14.232 69.5338 14.472 70.3658 14.792C71.2298 15.112 71.9818 15.48 72.6218 15.896C73.2618 16.312 73.8858 16.84 74.4938 17.48C75.1018 18.088 75.5498 18.776 75.8378 19.544C76.1258 20.312 76.3498 21.208 76.5098 22.232C76.6698 23.256 76.6058 24.392 76.3178 25.64C75.0698 32.36 69.6778 35.72 60.1418 35.72C56.4938 35.72 53.5018 35.08 51.1658 33.8C48.8298 32.52 47.4218 30.68 46.9418 28.28C46.7178 27 47.3098 26.12 48.7178 25.64L53.5178 24.008C54.2858 23.752 54.8618 23.704 55.2458 23.864C55.6298 23.992 55.9338 24.392 56.1578 25.064C56.7338 26.76 58.3818 27.608 61.1018 27.608C64.5258 27.608 66.4138 26.696 66.7658 24.872C66.9258 24.008 66.5578 23.384 65.6618 23C64.7978 22.616 63.4538 22.296 61.6298 22.04C60.3178 21.848 59.1658 21.64 58.1738 21.416C57.1818 21.192 56.0778 20.792 54.8618 20.216C53.6458 19.64 52.6858 18.952 51.9818 18.152C51.2778 17.352 50.7498 16.264 50.3978 14.888C50.0458 13.512 50.0138 11.928 50.3018 10.136ZM106.742 0.919998C107.51 0.919998 108.022 1.08 108.278 1.4C108.534 1.688 108.582 2.2 108.422 2.936L107.654 7.256C107.526 8.024 107.286 8.568 106.934 8.888C106.582 9.176 106.022 9.32 105.254 9.32H98.1499L93.9739 32.984C93.8139 33.72 93.5579 34.248 93.2059 34.568C92.8859 34.856 92.3419 35 91.5739 35H86.1499C85.3819 35 84.8699 34.856 84.6139 34.568C84.3579 34.248 84.3099 33.72 84.4699 32.984L88.6459 9.32H81.4939C80.7259 9.32 80.2139 9.176 79.9579 8.888C79.7339 8.568 79.6859 8.024 79.8139 7.256L80.5819 2.936C80.7419 2.2 80.9819 1.688 81.3019 1.4C81.6539 1.08 82.2139 0.919998 82.9819 0.919998H106.742ZM131.876 33.032C132.132 34.344 131.54 35 130.1 35H125.108C123.924 35 123.108 34.856 122.66 34.568C122.212 34.28 121.956 33.752 121.892 32.984L121.412 29.528H110.996L109.316 32.984C108.932 33.752 108.484 34.28 107.972 34.568C107.46 34.856 106.628 35 105.476 35H100.196C98.8519 35 98.5479 34.344 99.2839 33.032L115.7 2.6C116.052 1.928 116.42 1.48 116.804 1.256C117.188 1.032 117.748 0.919998 118.484 0.919998H123.908C124.612 0.919998 125.124 1.032 125.444 1.256C125.796 1.48 126.036 1.896 126.164 2.504L131.876 33.032ZM119.78 16.376C119.684 15.256 119.636 14.2 119.636 13.208C119.668 12.184 119.716 11.336 119.78 10.664L119.924 9.656H119.492C119.076 11.96 118.356 14.184 117.332 16.328L114.596 21.992H120.548L119.78 16.376ZM166.411 0.919998C167.179 0.919998 167.691 1.08 167.947 1.4C168.203 1.688 168.267 2.2 168.139 2.936L162.811 32.984C162.683 33.72 162.443 34.248 162.091 34.568C161.739 34.856 161.179 35 160.411 35H155.131C154.267 35 153.675 34.68 153.355 34.04L148.027 22.664C147.323 21.128 146.795 19.672 146.443 18.296C146.123 16.888 145.819 15.048 145.531 12.776H145.147C145.403 17.384 145.211 21.512 144.571 25.16L143.179 32.984C143.019 33.72 142.763 34.248 142.411 34.568C142.091 34.856 141.547 35 140.779 35H135.739C134.971 35 134.459 34.856 134.203 34.568C133.947 34.248 133.899 33.72 134.059 32.984L139.339 2.936C139.499 2.2 139.739 1.688 140.059 1.4C140.411 1.08 140.971 0.919998 141.739 0.919998H147.211C148.139 0.919998 148.763 1.24 149.083 1.88L154.747 14.168C155.547 15.864 156.379 18.792 157.243 22.952H157.627C157.275 20.168 157.083 18.136 157.051 16.856C157.051 15.576 157.243 13.56 157.627 10.808L159.019 2.936C159.147 2.2 159.371 1.688 159.691 1.4C160.043 1.08 160.603 0.919998 161.371 0.919998H166.411ZM196.802 0.919998C197.57 0.919998 198.082 1.08 198.338 1.4C198.594 1.688 198.642 2.2 198.482 2.936L197.714 7.256C197.586 8.024 197.346 8.568 196.994 8.888C196.642 9.176 196.082 9.32 195.314 9.32H188.21L184.034 32.984C183.874 33.72 183.618 34.248 183.266 34.568C182.946 34.856 182.402 35 181.634 35H176.21C175.442 35 174.93 34.856 174.674 34.568C174.418 34.248 174.37 33.72 174.53 32.984L178.706 9.32H171.554C170.786 9.32 170.274 9.176 170.018 8.888C169.794 8.568 169.746 8.024 169.874 7.256L170.642 2.936C170.802 2.2 171.042 1.688 171.362 1.4C171.714 1.08 172.274 0.919998 173.042 0.919998H196.802Z" fill="url(#paint0_linear_181_3415)"/>
<path d="M5.568 2.84C5.728 2.104 5.968 1.608 6.288 1.352C6.608 1.064 7.12 0.919998 7.824 0.919998H13.488C14.224 0.919998 14.704 1.064 14.928 1.352C15.152 1.64 15.2 2.136 15.072 2.84L9.744 33.08C9.616 33.784 9.392 34.28 9.072 34.568C8.752 34.856 8.224 35 7.488 35H1.824C1.12 35 0.64 34.872 0.384 34.616C0.16 34.328 0.112 33.816 0.24 33.08L5.568 2.84ZM46.5026 0.919998C47.2706 0.919998 47.7826 1.08 48.0386 1.4C48.2946 1.688 48.3586 2.2 48.2306 2.936L42.9026 32.984C42.7746 33.72 42.5346 34.248 42.1826 34.568C41.8306 34.856 41.2706 35 40.5026 35H35.2226C34.3586 35 33.7666 34.68 33.4466 34.04L28.1186 22.664C27.4146 21.128 26.8866 19.672 26.5346 18.296C26.2146 16.888 25.9106 15.048 25.6226 12.776H25.2386C25.4946 17.384 25.3026 21.512 24.6626 25.16L23.2706 32.984C23.1106 33.72 22.8546 34.248 22.5026 34.568C22.1826 34.856 21.6386 35 20.8706 35H15.8306C15.0626 35 14.5506 34.856 14.2946 34.568C14.0386 34.248 13.9906 33.72 14.1506 32.984L19.4306 2.936C19.5906 2.2 19.8306 1.688 20.1506 1.4C20.5026 1.08 21.0626 0.919998 21.8306 0.919998H27.3026C28.2306 0.919998 28.8546 1.24 29.1746 1.88L34.8386 14.168C35.6386 15.864 36.4706 18.792 37.3346 22.952H37.7186C37.3666 20.168 37.1746 18.136 37.1426 16.856C37.1426 15.576 37.3346 13.56 37.7186 10.808L39.1106 2.936C39.2386 2.2 39.4626 1.688 39.7826 1.4C40.1346 1.08 40.6946 0.919998 41.4626 0.919998H46.5026ZM50.3018 10.136C50.8778 6.936 52.4938 4.488 55.1498 2.792C57.8378 1.064 61.4538 0.199999 65.9978 0.199999C69.4218 0.199999 72.0618 0.807999 73.9178 2.024C75.7738 3.208 77.0858 4.968 77.8538 7.304C78.0778 8.008 78.0938 8.52 77.9018 8.84C77.7098 9.16 77.2138 9.48 76.4138 9.8L71.6618 11.672C70.9578 11.96 70.4458 12.04 70.1258 11.912C69.8058 11.784 69.5178 11.368 69.2618 10.664C68.6858 9 67.2138 8.168 64.8458 8.168C61.8058 8.168 60.1418 9 59.8538 10.664C59.6938 11.592 60.0938 12.248 61.0538 12.632C62.0138 13.016 63.5498 13.336 65.6618 13.592C66.4938 13.72 67.2778 13.88 68.0138 14.072C68.7498 14.232 69.5338 14.472 70.3658 14.792C71.2298 15.112 71.9818 15.48 72.6218 15.896C73.2618 16.312 73.8858 16.84 74.4938 17.48C75.1018 18.088 75.5498 18.776 75.8378 19.544C76.1258 20.312 76.3498 21.208 76.5098 22.232C76.6698 23.256 76.6058 24.392 76.3178 25.64C75.0698 32.36 69.6778 35.72 60.1418 35.72C56.4938 35.72 53.5018 35.08 51.1658 33.8C48.8298 32.52 47.4218 30.68 46.9418 28.28C46.7178 27 47.3098 26.12 48.7178 25.64L53.5178 24.008C54.2858 23.752 54.8618 23.704 55.2458 23.864C55.6298 23.992 55.9338 24.392 56.1578 25.064C56.7338 26.76 58.3818 27.608 61.1018 27.608C64.5258 27.608 66.4138 26.696 66.7658 24.872C66.9258 24.008 66.5578 23.384 65.6618 23C64.7978 22.616 63.4538 22.296 61.6298 22.04C60.3178 21.848 59.1658 21.64 58.1738 21.416C57.1818 21.192 56.0778 20.792 54.8618 20.216C53.6458 19.64 52.6858 18.952 51.9818 18.152C51.2778 17.352 50.7498 16.264 50.3978 14.888C50.0458 13.512 50.0138 11.928 50.3018 10.136ZM106.742 0.919998C107.51 0.919998 108.022 1.08 108.278 1.4C108.534 1.688 108.582 2.2 108.422 2.936L107.654 7.256C107.526 8.024 107.286 8.568 106.934 8.888C106.582 9.176 106.022 9.32 105.254 9.32H98.1499L93.9739 32.984C93.8139 33.72 93.5579 34.248 93.2059 34.568C92.8859 34.856 92.3419 35 91.5739 35H86.1499C85.3819 35 84.8699 34.856 84.6139 34.568C84.3579 34.248 84.3099 33.72 84.4699 32.984L88.6459 9.32H81.4939C80.7259 9.32 80.2139 9.176 79.9579 8.888C79.7339 8.568 79.6859 8.024 79.8139 7.256L80.5819 2.936C80.7419 2.2 80.9819 1.688 81.3019 1.4C81.6539 1.08 82.2139 0.919998 82.9819 0.919998H106.742ZM131.876 33.032C132.132 34.344 131.54 35 130.1 35H125.108C123.924 35 123.108 34.856 122.66 34.568C122.212 34.28 121.956 33.752 121.892 32.984L121.412 29.528H110.996L109.316 32.984C108.932 33.752 108.484 34.28 107.972 34.568C107.46 34.856 106.628 35 105.476 35H100.196C98.8519 35 98.5479 34.344 99.2839 33.032L115.7 2.6C116.052 1.928 116.42 1.48 116.804 1.256C117.188 1.032 117.748 0.919998 118.484 0.919998H123.908C124.612 0.919998 125.124 1.032 125.444 1.256C125.796 1.48 126.036 1.896 126.164 2.504L131.876 33.032ZM119.78 16.376C119.684 15.256 119.636 14.2 119.636 13.208C119.668 12.184 119.716 11.336 119.78 10.664L119.924 9.656H119.492C119.076 11.96 118.356 14.184 117.332 16.328L114.596 21.992H120.548L119.78 16.376ZM166.411 0.919998C167.179 0.919998 167.691 1.08 167.947 1.4C168.203 1.688 168.267 2.2 168.139 2.936L162.811 32.984C162.683 33.72 162.443 34.248 162.091 34.568C161.739 34.856 161.179 35 160.411 35H155.131C154.267 35 153.675 34.68 153.355 34.04L148.027 22.664C147.323 21.128 146.795 19.672 146.443 18.296C146.123 16.888 145.819 15.048 145.531 12.776H145.147C145.403 17.384 145.211 21.512 144.571 25.16L143.179 32.984C143.019 33.72 142.763 34.248 142.411 34.568C142.091 34.856 141.547 35 140.779 35H135.739C134.971 35 134.459 34.856 134.203 34.568C133.947 34.248 133.899 33.72 134.059 32.984L139.339 2.936C139.499 2.2 139.739 1.688 140.059 1.4C140.411 1.08 140.971 0.919998 141.739 0.919998H147.211C148.139 0.919998 148.763 1.24 149.083 1.88L154.747 14.168C155.547 15.864 156.379 18.792 157.243 22.952H157.627C157.275 20.168 157.083 18.136 157.051 16.856C157.051 15.576 157.243 13.56 157.627 10.808L159.019 2.936C159.147 2.2 159.371 1.688 159.691 1.4C160.043 1.08 160.603 0.919998 161.371 0.919998H166.411ZM196.802 0.919998C197.57 0.919998 198.082 1.08 198.338 1.4C198.594 1.688 198.642 2.2 198.482 2.936L197.714 7.256C197.586 8.024 197.346 8.568 196.994 8.888C196.642 9.176 196.082 9.32 195.314 9.32H188.21L184.034 32.984C183.874 33.72 183.618 34.248 183.266 34.568C182.946 34.856 182.402 35 181.634 35H176.21C175.442 35 174.93 34.856 174.674 34.568C174.418 34.248 174.37 33.72 174.53 32.984L178.706 9.32H171.554C170.786 9.32 170.274 9.176 170.018 8.888C169.794 8.568 169.746 8.024 169.874 7.256L170.642 2.936C170.802 2.2 171.042 1.688 171.362 1.4C171.714 1.08 172.274 0.919998 173.042 0.919998H196.802Z" fill="url(#paint1_linear_181_3415)"/>
<defs>
<linearGradient id="paint0_linear_181_3415" x1="82.5401" y1="52.25" x2="76.9506" y2="-8.77605" gradientUnits="userSpaceOnUse">
<stop stop-color="#EBC367"/>
<stop offset="0.206588" stop-color="#FDB242"/>
<stop offset="0.589636" stop-color="#D1891E"/>
<stop offset="0.694186" stop-color="#E1A03F"/>
<stop offset="0.697522" stop-color="#FFDDA9"/>
<stop offset="0.911458" stop-color="#F1BD57"/>
</linearGradient>
<linearGradient id="paint1_linear_181_3415" x1="178.968" y1="0.450024" x2="12.7542" y2="20.892" gradientUnits="userSpaceOnUse">
<stop stop-color="#E6C365" stop-opacity="0"/>
<stop offset="1" stop-color="#E6C365" stop-opacity="0.3"/>
</linearGradient>
</defs>
</svg>
