<svg width="431" height="154" viewBox="0 0 431 154" fill="none" xmlns="http://www.w3.org/2000/svg">
<path d="M92.832 0.839996C94.24 0.839996 95.072 1.16 95.328 1.8C95.584 2.43999 95.392 3.432 94.752 4.776L69.408 65.64C68.832 66.984 68.128 67.88 67.296 68.328C66.464 68.776 65.312 69 63.84 69H51.936C50.528 69 49.44 68.776 48.672 68.328C47.968 67.88 47.584 67.048 47.52 65.832L46.368 43.464C46.176 37.704 46.592 31.944 47.616 26.184H46.752C45.472 32.136 43.776 37.896 41.664 43.464L32.64 65.64C32.064 66.984 31.328 67.88 30.432 68.328C29.6 68.776 28.448 69 26.976 69H15.456C12.64 69 11.168 67.944 11.04 65.832L7.2 4.776C7.072 3.368 7.232 2.376 7.68 1.8C8.128 1.16 9.056 0.839996 10.464 0.839996H22.08C23.872 0.839996 25.12 1.064 25.824 1.512C26.528 1.96 26.912 2.92 26.976 4.392L26.88 29.544C26.752 34.984 26.176 40.648 25.152 46.536H25.824C27.104 40.136 28.704 34.472 30.624 29.544L40.992 4.392C41.568 2.92 42.304 1.96 43.2 1.512C44.096 1.064 45.344 0.839996 46.944 0.839996H57.216C58.88 0.839996 60.064 1.096 60.768 1.608C61.536 2.056 61.952 2.984 62.016 4.392L63.36 29.544C63.616 33.896 63.264 39.56 62.304 46.536H63.072C63.904 41.8 65.344 36.136 67.392 29.544L75.936 4.392C76.448 2.984 77.12 2.056 77.952 1.608C78.848 1.096 80.192 0.839996 81.984 0.839996H92.832ZM153.175 0.743998C154.647 0.743998 155.607 1.064 156.055 1.704C156.567 2.28 156.695 3.336 156.439 4.872L145.879 64.968C145.559 66.44 145.047 67.496 144.343 68.136C143.703 68.712 142.615 69 141.079 69H130.231C128.695 69 127.671 68.712 127.159 68.136C126.647 67.496 126.551 66.44 126.871 64.968L130.711 42.888H112.183L108.247 64.968C107.991 66.44 107.511 67.496 106.807 68.136C106.103 68.712 104.983 69 103.447 69H92.5988C91.0628 69 90.0388 68.712 89.5268 68.136C89.0788 67.496 88.9828 66.44 89.2388 64.968L99.8948 4.872C100.215 3.336 100.695 2.28 101.335 1.704C102.039 1.064 103.159 0.743998 104.695 0.743998H115.543C117.079 0.743998 118.071 1.064 118.519 1.704C119.031 2.28 119.159 3.336 118.903 4.872L115.159 26.088H133.687L137.431 4.872C137.687 3.336 138.167 2.28 138.871 1.704C139.639 1.064 140.759 0.743998 142.231 0.743998H153.175ZM223.1 0.839996C224.06 0.839996 224.732 1.032 225.116 1.41599C225.564 1.8 225.692 2.28 225.5 2.856C225.372 3.432 225.02 4.104 224.444 4.872L195.644 42.6L191.804 64.968C191.484 66.44 190.972 67.496 190.268 68.136C189.564 68.712 188.476 69 187.004 69H176.06C174.588 69 173.596 68.712 173.084 68.136C172.636 67.496 172.54 66.44 172.796 64.968L176.636 42.6L161.276 4.872C160.764 3.78399 160.732 2.856 161.18 2.088C161.628 1.256 162.556 0.839996 163.964 0.839996H175.1C177.66 0.839996 179.388 1.032 180.284 1.41599C181.18 1.8 181.916 2.792 182.492 4.392L189.308 23.976L203.42 4.392C204.508 2.792 205.564 1.8 206.588 1.41599C207.612 1.032 209.372 0.839996 211.868 0.839996H223.1Z" fill="url(#paint0_linear_301_83)"/>
<path d="M94.752 4.776L94.6164 4.71143L94.6135 4.71834L94.752 4.776ZM69.408 65.64L69.5459 65.6991L69.5465 65.6977L69.408 65.64ZM67.296 68.328L67.2249 68.1959L67.296 68.328ZM48.672 68.328L48.5914 68.4546L48.5964 68.4576L48.672 68.328ZM47.52 65.832L47.3702 65.8397L47.3702 65.8399L47.52 65.832ZM46.368 43.464L46.2181 43.469L46.2182 43.4717L46.368 43.464ZM47.616 26.184L47.7637 26.2103L47.795 26.034H47.616V26.184ZM46.752 26.184V26.034H46.6308L46.6054 26.1525L46.752 26.184ZM41.664 43.464L41.803 43.5206L41.8043 43.5172L41.664 43.464ZM32.64 65.64L32.7779 65.6991L32.7789 65.6965L32.64 65.64ZM30.432 68.328L30.3649 68.1938L30.3609 68.1959L30.432 68.328ZM11.04 65.832L11.1897 65.8229L11.1897 65.8226L11.04 65.832ZM7.2 4.776L7.34976 4.76658L7.34938 4.76242L7.2 4.776ZM7.68 1.8L7.79855 1.8922L7.80289 1.88601L7.68 1.8ZM25.824 1.512L25.7435 1.63855V1.63855L25.824 1.512ZM26.976 4.392L27.1262 4.39257L27.1259 4.38548L26.976 4.392ZM26.88 29.544L27.03 29.5475L27.03 29.5446L26.88 29.544ZM25.152 46.536L25.0042 46.5103L24.9737 46.686H25.152V46.536ZM25.824 46.536V46.686H25.947L25.9711 46.5654L25.824 46.536ZM30.624 29.544L30.4853 29.4868L30.4842 29.4895L30.624 29.544ZM40.992 4.392L41.1307 4.44917L41.1317 4.44666L40.992 4.392ZM43.2 1.512L43.2671 1.64616V1.64616L43.2 1.512ZM60.768 1.608L60.6798 1.72931L60.6859 1.73376L60.6924 1.73756L60.768 1.608ZM62.016 4.392L61.8662 4.39881L61.8662 4.4L62.016 4.392ZM63.36 29.544L63.2102 29.552L63.2103 29.5528L63.36 29.544ZM62.304 46.536L62.1554 46.5155L62.132 46.686H62.304V46.536ZM63.072 46.536V46.686H63.1979L63.2197 46.562L63.072 46.536ZM67.392 29.544L67.2499 29.4957L67.2488 29.4995L67.392 29.544ZM75.936 4.392L75.795 4.34072L75.794 4.34375L75.936 4.392ZM77.952 1.608L78.0231 1.74011L78.0264 1.73823L77.952 1.608ZM92.832 0.989996C93.527 0.989996 94.0664 1.06931 94.4582 1.22C94.8473 1.36966 95.0805 1.58503 95.1887 1.8557L95.4673 1.74429C95.3195 1.37496 95.0087 1.11034 94.5658 0.939994C94.1256 0.770684 93.545 0.689996 92.832 0.689996V0.989996ZM95.1887 1.8557C95.3022 2.13926 95.3217 2.51533 95.2287 2.99549C95.136 3.47469 94.9334 4.0461 94.6166 4.71151L94.8874 4.84049C95.2106 4.1619 95.424 3.56531 95.5233 3.0525C95.6223 2.54066 95.6098 2.10073 95.4673 1.74429L95.1887 1.8557ZM94.6135 4.71834L69.2695 65.5823L69.5465 65.6977L94.8905 4.83366L94.6135 4.71834ZM69.2701 65.5809C68.7006 66.9099 68.0146 67.7707 67.2249 68.1959L67.3671 68.4601C68.2414 67.9893 68.9634 67.0581 69.5459 65.6991L69.2701 65.5809ZM67.2249 68.1959C66.4236 68.6274 65.2997 68.85 63.84 68.85V69.15C65.3243 69.15 66.5044 68.9246 67.3671 68.4601L67.2249 68.1959ZM63.84 68.85H51.936V69.15H63.84V68.85ZM51.936 68.85C50.5405 68.85 49.483 68.6274 48.7476 68.1984L48.5964 68.4576C49.397 68.9246 50.5155 69.15 51.936 69.15V68.85ZM48.7525 68.2015C48.1059 67.79 47.7325 67.0152 47.6698 65.8241L47.3702 65.8399C47.4355 67.0808 47.8301 67.97 48.5915 68.4546L48.7525 68.2015ZM47.6698 65.8243L46.5178 43.4563L46.2182 43.4717L47.3702 65.8397L47.6698 65.8243ZM46.5179 43.459C46.3263 37.7096 46.7415 31.9601 47.7637 26.2103L47.4683 26.1577C46.4425 31.9279 46.0257 37.6984 46.2181 43.469L46.5179 43.459ZM47.616 26.034H46.752V26.334H47.616V26.034ZM46.6054 26.1525C45.3269 32.0973 43.633 37.85 41.5238 43.4108L41.8043 43.5172C43.919 37.942 45.6171 32.1747 46.8986 26.2155L46.6054 26.1525ZM41.5251 43.4075L32.5011 65.5835L32.7789 65.6965L41.8029 43.5205L41.5251 43.4075ZM32.5021 65.5809C31.9338 66.9069 31.2174 67.7676 30.3649 68.1938L30.4991 68.4622C31.4386 67.9924 32.1942 67.0611 32.7779 65.6991L32.5021 65.5809ZM30.3609 68.1959C29.5596 68.6274 28.4357 68.85 26.976 68.85V69.15C28.4603 69.15 29.6404 68.9246 30.5031 68.4601L30.3609 68.1959ZM26.976 68.85H15.456V69.15H26.976V68.85ZM15.456 68.85C14.0632 68.85 13.0274 68.5882 12.3274 68.0861C11.6345 67.589 11.2515 66.8423 11.1897 65.8229L10.8903 65.8411C10.9565 66.9337 11.3735 67.771 12.1526 68.3299C12.9247 68.8838 14.0328 69.15 15.456 69.15V68.85ZM11.1897 65.8226L7.3497 4.76658L7.0503 4.78541L10.8903 65.8414L11.1897 65.8226ZM7.34938 4.76242C7.22201 3.36129 7.38763 2.42023 7.7984 1.89209L7.5616 1.7079C7.07638 2.33176 6.92199 3.37471 7.05062 4.78958L7.34938 4.76242ZM7.80289 1.88601C8.20647 1.30947 9.06697 0.989996 10.464 0.989996V0.689996C9.04503 0.689996 8.04954 1.01052 7.55712 1.71398L7.80289 1.88601ZM10.464 0.989996H22.08V0.689996H10.464V0.989996ZM22.08 0.989996C23.8695 0.989996 25.0787 1.21552 25.7435 1.63855L25.9045 1.38545C25.1613 0.912472 23.8745 0.689996 22.08 0.689996V0.989996ZM25.7435 1.63855C26.3827 2.04535 26.7627 2.93885 26.8261 4.39851L27.1259 4.38548C27.0613 2.90115 26.6733 1.87465 25.9045 1.38545L25.7435 1.63855ZM26.826 4.39142L26.73 29.5434L27.03 29.5446L27.126 4.39257L26.826 4.39142ZM26.73 29.5405C26.6022 34.9724 26.0271 40.6289 25.0042 46.5103L25.2998 46.5617C26.3249 40.6671 26.9018 34.9956 27.03 29.5475L26.73 29.5405ZM25.152 46.686H25.824V46.386H25.152V46.686ZM25.9711 46.5654C27.2498 40.1721 28.8476 34.5167 30.7638 29.5985L30.4842 29.4895C28.5604 34.4273 26.9582 40.0999 25.6769 46.5066L25.9711 46.5654ZM30.7627 29.6012L41.1307 4.44916L40.8533 4.33483L30.4853 29.4868L30.7627 29.6012ZM41.1317 4.44666C41.7016 2.99018 42.4189 2.07025 43.2671 1.64616L43.1329 1.37783C42.1891 1.84975 41.4344 2.84982 40.8523 4.33734L41.1317 4.44666ZM43.2671 1.64616C44.1334 1.21298 45.3549 0.989996 46.944 0.989996V0.689996C45.3331 0.689996 44.0586 0.91501 43.1329 1.37784L43.2671 1.64616ZM46.944 0.989996H57.216V0.689996H46.944V0.989996ZM57.216 0.989996C58.8729 0.989996 60.016 1.24653 60.6798 1.72931L60.8562 1.48669C60.1121 0.945468 58.8871 0.689996 57.216 0.689996V0.989996ZM60.6924 1.73756C61.3951 2.14745 61.8031 3.01071 61.8662 4.39881L62.1658 4.38519C62.1009 2.95728 61.6769 1.96454 60.8436 1.47843L60.6924 1.73756ZM61.8662 4.4L63.2102 29.552L63.5098 29.536L62.1658 4.38399L61.8662 4.4ZM63.2103 29.5528C63.4654 33.891 63.1148 39.5441 62.1554 46.5155L62.4526 46.5564C63.4132 39.5759 63.7666 33.901 63.5097 29.5352L63.2103 29.5528ZM62.304 46.686H63.072V46.386H62.304V46.686ZM63.2197 46.562C64.0503 41.8343 65.4884 36.1768 67.5352 29.5885L67.2488 29.4995C65.1996 36.0952 63.7577 41.7657 62.9243 46.51L63.2197 46.562ZM67.534 29.5922L76.078 4.44024L75.794 4.34375L67.25 29.4958L67.534 29.5922ZM76.077 4.44326C76.5834 3.05061 77.2379 2.16288 78.0231 1.74007L77.8809 1.47593C77.0021 1.94911 76.3126 2.91738 75.795 4.34073L76.077 4.44326ZM78.0264 1.73823C78.8887 1.24552 80.2014 0.989996 81.984 0.989996V0.689996C80.1826 0.689996 78.8073 0.946474 77.8776 1.47776L78.0264 1.73823ZM81.984 0.989996H92.832V0.689996H81.984V0.989996ZM156.055 1.704L155.932 1.79002L155.937 1.79715L155.943 1.80365L156.055 1.704ZM156.439 4.872L156.587 4.89796L156.587 4.89666L156.439 4.872ZM145.879 64.968L146.025 64.9999L146.026 64.994L145.879 64.968ZM144.343 68.136L144.443 68.2475L144.444 68.247L144.343 68.136ZM127.159 68.136L127.041 68.2298L127.047 68.2357L127.159 68.136ZM126.871 64.968L127.017 64.9999L127.019 64.9937L126.871 64.968ZM130.711 42.888L130.859 42.9137L130.889 42.738H130.711V42.888ZM112.183 42.888V42.738H112.057L112.035 42.8617L112.183 42.888ZM108.247 64.968L108.099 64.9417L108.099 64.9423L108.247 64.968ZM106.807 68.136L106.902 68.2523L106.908 68.247L106.807 68.136ZM89.5267 68.136L89.4039 68.222L89.4089 68.2291L89.4146 68.2357L89.5267 68.136ZM89.2388 64.968L89.0911 64.9418L89.091 64.9423L89.2388 64.968ZM99.8948 4.872L99.7478 4.84139L99.7471 4.84581L99.8948 4.872ZM101.335 1.704L101.435 1.81549L101.436 1.81499L101.335 1.704ZM118.519 1.704L118.396 1.79002L118.401 1.79715L118.407 1.80365L118.519 1.704ZM118.903 4.872L119.05 4.89807L119.051 4.89666L118.903 4.872ZM115.159 26.088L115.011 26.0619L114.98 26.238H115.159V26.088ZM133.687 26.088V26.238H133.813L133.834 26.1141L133.687 26.088ZM137.431 4.872L137.578 4.89807L137.579 4.89666L137.431 4.872ZM138.871 1.704L138.966 1.82009L138.967 1.81923L138.871 1.704ZM153.175 0.893998C154.639 0.893998 155.529 1.2148 155.932 1.79002L156.178 1.61798C155.684 0.913197 154.655 0.593998 153.175 0.593998V0.893998ZM155.943 1.80365C156.172 2.06164 156.324 2.43715 156.386 2.94605C156.448 3.45492 156.417 4.08755 156.291 4.84734L156.587 4.89666C156.716 4.12044 156.75 3.45708 156.684 2.90995C156.617 2.36284 156.45 1.92235 156.167 1.60434L155.943 1.80365ZM156.291 4.84604L145.731 64.942L146.026 64.994L156.586 4.89796L156.291 4.84604ZM145.732 64.9361C145.415 66.3941 144.913 67.415 144.242 68.025L144.444 68.247C145.181 67.577 145.702 66.4859 146.025 64.9999L145.732 64.9361ZM144.242 68.0245C143.645 68.5625 142.604 68.85 141.079 68.85V69.15C142.626 69.15 143.761 68.8615 144.443 68.2475L144.242 68.0245ZM141.079 68.85H130.231V69.15H141.079V68.85ZM130.231 68.85C128.7 68.85 127.736 68.5602 127.271 68.0363L127.047 68.2357C127.605 68.8638 128.69 69.15 130.231 69.15V68.85ZM127.276 68.0423C126.809 67.4581 126.699 66.4623 127.017 64.9999L126.724 64.9361C126.402 66.4177 126.485 67.5339 127.042 68.2297L127.276 68.0423ZM127.019 64.9937L130.859 42.9137L130.563 42.8623L126.723 64.9423L127.019 64.9937ZM130.711 42.738H112.183V43.038H130.711V42.738ZM112.035 42.8617L108.099 64.9417L108.394 64.9943L112.33 42.9143L112.035 42.8617ZM108.099 64.9423C107.846 66.399 107.375 67.417 106.706 68.025L106.908 68.247C107.647 67.575 108.136 66.481 108.395 64.9937L108.099 64.9423ZM106.712 68.0199C106.048 68.5633 104.97 68.85 103.447 68.85V69.15C104.996 69.15 106.158 68.8607 106.902 68.2521L106.712 68.0199ZM103.447 68.85H92.5988V69.15H103.447V68.85ZM92.5988 68.85C91.068 68.85 90.1045 68.5602 89.6389 68.0363L89.4146 68.2357C89.973 68.8638 91.0575 69.15 92.5988 69.15V68.85ZM89.6496 68.05C89.2378 67.4617 89.1318 66.4582 89.3865 64.9937L89.091 64.9423C88.8337 66.4218 88.9197 67.5303 89.4039 68.222L89.6496 68.05ZM89.3864 64.9942L100.042 4.89818L99.7471 4.84581L89.0911 64.9418L89.3864 64.9942ZM100.042 4.90259C100.36 3.37542 100.831 2.35873 101.435 1.81549L101.234 1.5925C100.558 2.20126 100.07 3.29657 99.7479 4.8414L100.042 4.90259ZM101.436 1.81499C102.099 1.21161 103.174 0.893998 104.695 0.893998V0.593998C103.143 0.593998 101.978 0.916385 101.234 1.59301L101.436 1.81499ZM104.695 0.893998H115.543V0.593998H104.695V0.893998ZM115.543 0.893998C117.074 0.893998 117.994 1.21601 118.396 1.79002L118.642 1.61798C118.147 0.911987 117.084 0.593998 115.543 0.593998V0.893998ZM118.407 1.80365C118.636 2.06164 118.788 2.43715 118.85 2.94605C118.912 3.45492 118.881 4.08755 118.755 4.84734L119.051 4.89666C119.18 4.12044 119.214 3.45708 119.148 2.90995C119.081 2.36284 118.914 1.92235 118.631 1.60434L118.407 1.80365ZM118.755 4.84593L115.011 26.0619L115.306 26.1141L119.05 4.89806L118.755 4.84593ZM115.159 26.238H133.687V25.938H115.159V26.238ZM133.834 26.1141L137.578 4.89806L137.283 4.84593L133.539 26.0619L133.834 26.1141ZM137.579 4.89666C137.833 3.37311 138.304 2.36148 138.966 1.82009L138.776 1.5879C138.029 2.19851 137.541 3.29888 137.283 4.84734L137.579 4.89666ZM138.967 1.81923C139.698 1.2102 140.778 0.893998 142.231 0.893998V0.593998C140.74 0.593998 139.58 0.917799 138.775 1.58876L138.967 1.81923ZM142.231 0.893998H153.175V0.593998H142.231V0.893998ZM225.116 1.41599L225.009 1.52237L225.018 1.52988L225.116 1.41599ZM225.5 2.856L225.357 2.80856L225.355 2.81591L225.353 2.82346L225.5 2.856ZM224.443 4.872L224.563 4.96302L224.564 4.962L224.443 4.872ZM195.644 42.6L195.524 42.509L195.502 42.5383L195.496 42.5746L195.644 42.6ZM191.803 64.968L191.95 64.9999L191.951 64.9934L191.803 64.968ZM190.268 68.136L190.363 68.2523L190.368 68.247L190.268 68.136ZM173.083 68.136L172.961 68.222L172.966 68.2291L172.971 68.2357L173.083 68.136ZM172.796 64.968L172.943 64.9937L172.943 64.9934L172.796 64.968ZM176.635 42.6L176.783 42.6254L176.791 42.5831L176.774 42.5434L176.635 42.6ZM161.275 4.872L161.415 4.81535L161.411 4.80813L161.275 4.872ZM161.18 2.088L161.309 2.16362L161.312 2.15911L161.18 2.088ZM180.284 1.41599L180.343 1.27812V1.27812L180.284 1.41599ZM182.492 4.392L182.633 4.34269L182.633 4.34119L182.492 4.392ZM189.307 23.976L189.166 24.0253L189.261 24.2976L189.429 24.0637L189.307 23.976ZM203.42 4.392L203.541 4.47972L203.544 4.47634L203.42 4.392ZM206.588 1.41599L206.535 1.27555V1.27555L206.588 1.41599ZM223.1 0.989996C224.048 0.989996 224.669 1.18125 225.009 1.52206L225.222 1.30993C224.794 0.882741 224.071 0.689996 223.1 0.689996V0.989996ZM225.018 1.52988C225.223 1.70594 225.348 1.89708 225.403 2.10265C225.457 2.30857 225.446 2.54216 225.357 2.80856L225.642 2.90343C225.745 2.59384 225.766 2.29942 225.692 2.02535C225.619 1.75091 225.456 1.51005 225.213 1.30211L225.018 1.52988ZM225.353 2.82346C225.232 3.3696 224.894 4.02164 224.324 4.782L224.564 4.962C225.145 4.18636 225.511 3.4944 225.646 2.88854L225.353 2.82346ZM224.324 4.78098L195.524 42.509L195.763 42.691L224.563 4.96301L224.324 4.78098ZM195.496 42.5746L191.656 64.9426L191.951 64.9934L195.791 42.6254L195.496 42.5746ZM191.657 64.9361C191.34 66.3941 190.838 67.415 190.167 68.025L190.368 68.247C191.105 67.577 191.627 66.4859 191.95 64.9999L191.657 64.9361ZM190.173 68.0199C189.507 68.564 188.461 68.85 187.004 68.85V69.15C188.49 69.15 189.62 68.86 190.362 68.2521L190.173 68.0199ZM187.004 68.85H176.06V69.15H187.004V68.85ZM176.06 68.85C174.595 68.85 173.662 68.5611 173.196 68.0363L172.971 68.2357C173.529 68.8629 174.58 69.15 176.06 69.15V68.85ZM173.206 68.05C172.795 67.4617 172.689 66.4582 172.943 64.9937L172.648 64.9423C172.39 66.4218 172.476 67.5303 172.961 68.222L173.206 68.05ZM172.943 64.9934L176.783 42.6254L176.488 42.5746L172.648 64.9426L172.943 64.9934ZM176.774 42.5434L161.414 4.81543L161.137 4.92856L176.497 42.6566L176.774 42.5434ZM161.411 4.80813C160.912 3.74754 160.894 2.87476 161.309 2.16358L161.05 2.01242C160.569 2.83723 160.615 3.82045 161.14 4.93587L161.411 4.80813ZM161.312 2.15911C161.722 1.3973 162.581 0.989996 163.964 0.989996V0.689996C162.53 0.689996 161.533 1.1147 161.047 2.01688L161.312 2.15911ZM163.964 0.989996H175.1V0.689996H163.964V0.989996ZM175.1 0.989996C176.376 0.989996 177.442 1.0379 178.299 1.13308C179.158 1.22851 179.797 1.37053 180.224 1.55387L180.343 1.27812C179.874 1.07747 179.201 0.931479 178.332 0.834913C177.461 0.738091 176.383 0.689996 175.1 0.689996V0.989996ZM180.224 1.55387C181.062 1.91278 181.779 2.85466 182.35 4.4428L182.633 4.34119C182.052 2.72933 181.297 1.68722 180.343 1.27812L180.224 1.55387ZM182.35 4.4413L189.166 24.0253L189.449 23.9267L182.633 4.34269L182.35 4.4413ZM189.429 24.0637L203.541 4.47969L203.298 4.3043L189.186 23.8883L189.429 24.0637ZM203.544 4.47634C204.626 2.88461 205.66 1.92399 206.64 1.55644L206.535 1.27555C205.467 1.676 204.389 2.69938 203.295 4.30765L203.544 4.47634ZM206.64 1.55644C207.637 1.18282 209.372 0.989996 211.868 0.989996V0.689996C209.371 0.689996 207.587 0.881171 206.535 1.27555L206.64 1.55644ZM211.868 0.989996H223.1V0.689996H211.868V0.989996Z" fill="url(#paint1_linear_301_83)"/>
<path d="M142.248 147.064C142.76 149.688 141.576 151 138.696 151H128.712C126.344 151 124.712 150.712 123.816 150.136C122.92 149.56 122.408 148.504 122.28 146.968L121.32 140.056H100.488L97.128 146.968C96.36 148.504 95.464 149.56 94.44 150.136C93.416 150.712 91.752 151 89.448 151H78.888C76.2 151 75.592 149.688 77.064 147.064L109.896 86.2C110.6 84.856 111.336 83.96 112.104 83.512C112.872 83.064 113.992 82.84 115.464 82.84H126.312C127.72 82.84 128.744 83.064 129.384 83.512C130.088 83.96 130.568 84.792 130.824 86.008L142.248 147.064ZM118.056 113.752C117.864 111.512 117.768 109.4 117.768 107.416C117.832 105.368 117.928 103.672 118.056 102.328L118.344 100.312H117.48C116.648 104.92 115.208 109.368 113.16 113.656L107.688 124.984H119.592L118.056 113.752ZM149.273 106.936C150.681 98.68 154.297 92.376 160.121 88.024C166.009 83.608 173.689 81.4 183.161 81.4C196.985 81.4 204.953 87.096 207.065 98.488C207.385 99.896 207.289 101.016 206.777 101.848C206.329 102.616 205.337 103.224 203.801 103.672L193.913 107.032C192.377 107.48 191.257 107.544 190.553 107.224C189.913 106.84 189.433 105.912 189.113 104.44C188.665 102.264 187.769 100.696 186.425 99.736C185.081 98.712 183.065 98.2 180.377 98.2C176.665 98.2 173.817 99.032 171.833 100.696C169.913 102.296 168.665 104.792 168.089 108.184L164.921 125.656C164.345 129.048 164.729 131.576 166.073 133.24C167.481 134.84 170.041 135.64 173.753 135.64C178.809 135.64 182.489 133.56 184.793 129.4C185.689 127.864 186.521 126.936 187.289 126.616C188.057 126.232 189.113 126.296 190.457 126.808L200.441 130.648C202.937 131.544 203.481 133.272 202.073 135.832C196.057 146.904 185.721 152.44 171.065 152.44C161.785 152.44 154.937 149.912 150.521 144.856C146.169 139.8 144.697 133.08 146.105 124.696L149.273 106.936ZM260.582 82.84C262.118 82.84 263.142 83.16 263.654 83.8C264.166 84.376 264.294 85.4 264.038 86.872L262.502 95.512C262.246 97.048 261.734 98.136 260.966 98.776C260.262 99.352 259.174 99.64 257.702 99.64H232.358L230.822 108.184H251.078C252.614 108.184 253.606 108.504 254.054 109.144C254.566 109.72 254.694 110.744 254.438 112.216L252.902 120.856C252.582 122.392 252.07 123.48 251.366 124.12C250.726 124.696 249.638 124.984 248.102 124.984H227.846L226.214 134.2H252.422C253.894 134.2 254.854 134.488 255.302 135.064C255.814 135.64 255.942 136.696 255.686 138.232L254.15 146.968C253.894 148.44 253.414 149.496 252.71 150.136C252.006 150.712 250.886 151 249.35 151H208.358C206.822 151 205.798 150.712 205.286 150.136C204.774 149.496 204.678 148.44 204.998 146.968L215.558 86.872C215.878 85.4 216.358 84.376 216.998 83.8C217.702 83.16 218.822 82.84 220.358 82.84H260.582Z" fill="url(#paint2_linear_301_83)"/>
<path d="M142.248 147.064C142.76 149.688 141.576 151 138.696 151H128.712C126.344 151 124.712 150.712 123.816 150.136C122.92 149.56 122.408 148.504 122.28 146.968L121.32 140.056H100.488L97.128 146.968C96.36 148.504 95.464 149.56 94.44 150.136C93.416 150.712 91.752 151 89.448 151H78.888C76.2 151 75.592 149.688 77.064 147.064L109.896 86.2C110.6 84.856 111.336 83.96 112.104 83.512C112.872 83.064 113.992 82.84 115.464 82.84H126.312C127.72 82.84 128.744 83.064 129.384 83.512C130.088 83.96 130.568 84.792 130.824 86.008L142.248 147.064ZM118.056 113.752C117.864 111.512 117.768 109.4 117.768 107.416C117.832 105.368 117.928 103.672 118.056 102.328L118.344 100.312H117.48C116.648 104.92 115.208 109.368 113.16 113.656L107.688 124.984H119.592L118.056 113.752ZM149.273 106.936C150.681 98.68 154.297 92.376 160.121 88.024C166.009 83.608 173.689 81.4 183.161 81.4C196.985 81.4 204.953 87.096 207.065 98.488C207.385 99.896 207.289 101.016 206.777 101.848C206.329 102.616 205.337 103.224 203.801 103.672L193.913 107.032C192.377 107.48 191.257 107.544 190.553 107.224C189.913 106.84 189.433 105.912 189.113 104.44C188.665 102.264 187.769 100.696 186.425 99.736C185.081 98.712 183.065 98.2 180.377 98.2C176.665 98.2 173.817 99.032 171.833 100.696C169.913 102.296 168.665 104.792 168.089 108.184L164.921 125.656C164.345 129.048 164.729 131.576 166.073 133.24C167.481 134.84 170.041 135.64 173.753 135.64C178.809 135.64 182.489 133.56 184.793 129.4C185.689 127.864 186.521 126.936 187.289 126.616C188.057 126.232 189.113 126.296 190.457 126.808L200.441 130.648C202.937 131.544 203.481 133.272 202.073 135.832C196.057 146.904 185.721 152.44 171.065 152.44C161.785 152.44 154.937 149.912 150.521 144.856C146.169 139.8 144.697 133.08 146.105 124.696L149.273 106.936ZM260.582 82.84C262.118 82.84 263.142 83.16 263.654 83.8C264.166 84.376 264.294 85.4 264.038 86.872L262.502 95.512C262.246 97.048 261.734 98.136 260.966 98.776C260.262 99.352 259.174 99.64 257.702 99.64H232.358L230.822 108.184H251.078C252.614 108.184 253.606 108.504 254.054 109.144C254.566 109.72 254.694 110.744 254.438 112.216L252.902 120.856C252.582 122.392 252.07 123.48 251.366 124.12C250.726 124.696 249.638 124.984 248.102 124.984H227.846L226.214 134.2H252.422C253.894 134.2 254.854 134.488 255.302 135.064C255.814 135.64 255.942 136.696 255.686 138.232L254.15 146.968C253.894 148.44 253.414 149.496 252.71 150.136C252.006 150.712 250.886 151 249.35 151H208.358C206.822 151 205.798 150.712 205.286 150.136C204.774 149.496 204.678 148.44 204.998 146.968L215.558 86.872C215.878 85.4 216.358 84.376 216.998 83.8C217.702 83.16 218.822 82.84 220.358 82.84H260.582Z" fill="url(#paint3_linear_301_83)"/>
<path d="M142.248 147.064L142.002 147.11L142.003 147.112L142.248 147.064ZM122.28 146.968L122.53 146.947L122.528 146.934L122.28 146.968ZM121.32 140.056L121.568 140.022L121.538 139.806H121.32V140.056ZM100.488 140.056V139.806H100.332L100.263 139.947L100.488 140.056ZM97.128 146.968L97.3516 147.08L97.3528 147.077L97.128 146.968ZM94.44 150.136L94.3174 149.918L94.44 150.136ZM77.064 147.064L77.2821 147.186L77.284 147.183L77.064 147.064ZM109.896 86.2L110.116 86.3187L110.117 86.316L109.896 86.2ZM112.104 83.512L112.23 83.7279V83.7279L112.104 83.512ZM129.384 83.512L129.24 83.717L129.25 83.7229L129.384 83.512ZM130.824 86.008L131.07 85.962L131.069 85.9565L130.824 86.008ZM118.056 113.752L117.807 113.773L117.808 113.786L118.056 113.752ZM117.768 107.416L117.518 107.408V107.416H117.768ZM118.056 102.328L117.808 102.293L117.807 102.304L118.056 102.328ZM118.344 100.312L118.591 100.347L118.632 100.062H118.344V100.312ZM117.48 100.312V100.062H117.271L117.234 100.268L117.48 100.312ZM113.16 113.656L113.385 113.765L113.386 113.764L113.16 113.656ZM107.688 124.984L107.463 124.875L107.29 125.234H107.688V124.984ZM119.592 124.984V125.234H119.879L119.84 124.95L119.592 124.984ZM142.003 147.112C142.252 148.388 142.075 149.276 141.558 149.849C141.037 150.427 140.108 150.75 138.696 150.75V151.25C140.164 151.25 141.267 150.917 141.93 150.183C142.597 149.444 142.756 148.364 142.493 147.016L142.003 147.112ZM138.696 150.75H128.712V151.25H138.696V150.75ZM128.712 150.75C127.537 150.75 126.552 150.678 125.755 150.538C124.956 150.397 124.36 150.189 123.951 149.926L123.681 150.346C124.168 150.659 124.836 150.883 125.669 151.03C126.504 151.178 127.519 151.25 128.712 151.25V150.75ZM123.951 149.926C123.146 149.408 122.654 148.442 122.529 146.947L122.031 146.989C122.162 148.566 122.694 149.712 123.681 150.346L123.951 149.926ZM122.528 146.934L121.568 140.022L121.072 140.09L122.032 147.002L122.528 146.934ZM121.32 139.806H100.488V140.306H121.32V139.806ZM100.263 139.947L96.9032 146.859L97.3528 147.077L100.713 140.165L100.263 139.947ZM96.9044 146.856C96.1489 148.367 95.2821 149.375 94.3174 149.918L94.5626 150.354C95.6459 149.745 96.5711 148.641 97.3516 147.08L96.9044 146.856ZM94.3174 149.918C93.3522 150.461 91.743 150.75 89.448 150.75V151.25C91.761 151.25 93.4798 150.963 94.5626 150.354L94.3174 149.918ZM89.448 150.75H78.888V151.25H89.448V150.75ZM78.888 150.75C77.5557 150.75 76.8792 150.421 76.6428 149.911C76.5213 149.649 76.4934 149.299 76.5942 148.84C76.695 148.38 76.9208 147.83 77.282 147.186L76.846 146.942C76.4712 147.61 76.221 148.208 76.1058 148.732C75.9906 149.257 76.0067 149.727 76.1892 150.121C76.5608 150.923 77.5323 151.25 78.888 151.25V150.75ZM77.284 147.183L110.116 86.3187L109.676 86.0813L76.844 146.945L77.284 147.183ZM110.117 86.316C110.813 84.9876 111.522 84.1409 112.23 83.7279L111.978 83.2961C111.15 83.7791 110.387 84.7244 109.675 86.084L110.117 86.316ZM112.23 83.7279C112.942 83.3124 114.01 83.09 115.464 83.09V82.59C113.974 82.59 112.802 82.8156 111.978 83.2961L112.23 83.7279ZM115.464 83.09H126.312V82.59H115.464V83.09ZM126.312 83.09C127.705 83.09 128.665 83.3137 129.241 83.7168L129.527 83.3072C128.823 82.8143 127.735 82.59 126.312 82.59V83.09ZM129.25 83.7229C129.874 84.1204 130.33 84.8773 130.579 86.0595L131.069 85.9565C130.806 84.7067 130.302 83.7996 129.518 83.3011L129.25 83.7229ZM130.578 86.054L142.002 147.11L142.494 147.018L131.07 85.962L130.578 86.054ZM118.305 113.731C118.114 111.497 118.018 109.392 118.018 107.416H117.518C117.518 109.408 117.614 111.527 117.807 113.773L118.305 113.731ZM118.018 107.424C118.082 105.379 118.178 103.688 118.305 102.352L117.807 102.304C117.678 103.656 117.582 105.357 117.518 107.408L118.018 107.424ZM118.303 102.363L118.591 100.347L118.097 100.277L117.809 102.293L118.303 102.363ZM118.344 100.062H117.48V100.562H118.344V100.062ZM117.234 100.268C116.406 104.853 114.973 109.28 112.934 113.548L113.386 113.764C115.443 109.456 116.89 104.987 117.726 100.356L117.234 100.268ZM112.935 113.547L107.463 124.875L107.913 125.093L113.385 113.765L112.935 113.547ZM107.688 125.234H119.592V124.734H107.688V125.234ZM119.84 124.95L118.304 113.718L117.808 113.786L119.344 125.018L119.84 124.95ZM149.273 106.936L149.519 106.98L149.52 106.978L149.273 106.936ZM160.121 88.024L160.271 88.2243L160.271 88.224L160.121 88.024ZM207.065 98.488L206.819 98.5336L206.821 98.5434L207.065 98.488ZM206.777 101.848L206.564 101.717L206.561 101.722L206.777 101.848ZM203.801 103.672L203.731 103.432L203.721 103.435L203.801 103.672ZM193.913 107.032L193.983 107.272L193.994 107.269L193.913 107.032ZM190.553 107.224L190.425 107.438L190.437 107.446L190.45 107.452L190.553 107.224ZM189.113 104.44L188.868 104.49L188.869 104.493L189.113 104.44ZM186.425 99.736L186.274 99.9349L186.28 99.9394L186.425 99.736ZM171.833 100.696L171.993 100.888L171.994 100.888L171.833 100.696ZM168.089 108.184L168.335 108.229L168.336 108.226L168.089 108.184ZM164.921 125.656L164.675 125.611L164.675 125.614L164.921 125.656ZM166.073 133.24L165.879 133.397L165.886 133.405L166.073 133.24ZM184.793 129.4L184.577 129.274L184.575 129.279L184.793 129.4ZM187.289 126.616L187.385 126.847L187.393 126.843L187.401 126.84L187.289 126.616ZM190.457 126.808L190.547 126.575L190.546 126.574L190.457 126.808ZM200.441 130.648L200.351 130.881L200.357 130.883L200.441 130.648ZM202.073 135.832L201.854 135.712L201.854 135.713L202.073 135.832ZM150.521 144.856L150.332 145.019L150.333 145.02L150.521 144.856ZM146.105 124.696L145.859 124.652L145.859 124.655L146.105 124.696ZM149.52 106.978C150.919 98.7749 154.506 92.532 160.271 88.2243L159.972 87.8237C154.088 92.22 150.444 98.5851 149.027 106.894L149.52 106.978ZM160.271 88.224C166.105 83.8487 173.728 81.65 183.161 81.65V81.15C173.651 81.15 165.914 83.3673 159.971 87.824L160.271 88.224ZM183.161 81.65C190.042 81.65 195.433 83.0679 199.36 85.8754C203.282 88.679 205.773 92.8887 206.819 98.5336L207.311 98.4424C206.246 92.6952 203.697 88.361 199.651 85.4686C195.61 82.5801 190.105 81.15 183.161 81.15V81.65ZM206.821 98.5434C207.134 99.9178 207.029 100.962 206.564 101.717L206.99 101.979C207.55 101.07 207.637 99.8742 207.309 98.4326L206.821 98.5434ZM206.561 101.722C206.163 102.405 205.25 102.989 203.731 103.432L203.871 103.912C205.424 103.459 206.495 102.827 206.993 101.974L206.561 101.722ZM203.721 103.435L193.833 106.795L193.994 107.269L203.882 103.909L203.721 103.435ZM193.843 106.792C192.313 107.238 191.272 107.276 190.657 106.996L190.45 107.452C191.243 107.812 192.441 107.722 193.983 107.272L193.843 106.792ZM190.682 107.01C190.138 106.684 189.676 105.851 189.358 104.387L188.869 104.493C189.191 105.973 189.688 106.996 190.425 107.438L190.682 107.01ZM189.358 104.39C188.902 102.174 187.981 100.54 186.571 99.5326L186.28 99.9394C187.557 100.852 188.429 102.354 188.868 104.49L189.358 104.39ZM186.577 99.5371C185.17 98.4655 183.09 97.95 180.377 97.95V98.45C183.041 98.45 184.992 98.9585 186.274 99.9349L186.577 99.5371ZM180.377 97.95C176.631 97.95 173.718 98.7893 171.673 100.504L171.994 100.888C173.917 99.2747 176.699 98.45 180.377 98.45V97.95ZM171.673 100.504C169.693 102.154 168.425 104.713 167.843 108.142L168.336 108.226C168.905 104.871 170.134 102.438 171.993 100.888L171.673 100.504ZM167.843 108.139L164.675 125.611L165.167 125.701L168.335 108.229L167.843 108.139ZM164.675 125.614C164.094 129.035 164.468 131.651 165.879 133.397L166.268 133.083C164.99 131.501 164.597 129.061 165.168 125.698L164.675 125.614ZM165.886 133.405C167.366 135.088 170.02 135.89 173.753 135.89V135.39C170.063 135.39 167.596 134.592 166.261 133.075L165.886 133.405ZM173.753 135.89C176.316 135.89 178.544 135.363 180.428 134.298C182.313 133.232 183.84 131.636 185.012 129.521L184.575 129.279C183.442 131.324 181.977 132.848 180.182 133.862C178.386 134.877 176.247 135.39 173.753 135.39V135.89ZM185.009 129.526C185.903 127.994 186.7 127.132 187.385 126.847L187.193 126.385C186.343 126.74 185.475 127.734 184.577 129.274L185.009 129.526ZM187.401 126.84C188.075 126.503 189.047 126.538 190.368 127.042L190.546 126.574C189.179 126.054 188.039 125.961 187.177 126.392L187.401 126.84ZM190.368 127.041L200.352 130.881L200.531 130.415L190.547 126.575L190.368 127.041ZM200.357 130.883C201.567 131.318 202.244 131.932 202.483 132.691C202.725 133.46 202.545 134.456 201.854 135.712L202.292 135.952C203.01 134.648 203.262 133.5 202.96 132.541C202.655 131.572 201.812 130.874 200.526 130.413L200.357 130.883ZM201.854 135.713C195.889 146.689 185.648 152.19 171.065 152.19V152.69C185.795 152.69 196.225 147.119 202.293 135.951L201.854 135.713ZM171.065 152.19C161.829 152.19 155.062 149.675 150.71 144.692L150.333 145.02C154.813 150.149 161.742 152.69 171.065 152.69V152.19ZM150.711 144.693C146.42 139.708 144.952 133.07 146.352 124.737L145.859 124.655C144.442 133.09 145.919 139.892 150.332 145.019L150.711 144.693ZM146.351 124.74L149.519 106.98L149.027 106.892L145.859 124.652L146.351 124.74ZM263.654 83.8L263.458 83.9564L263.467 83.9661L263.654 83.8ZM264.038 86.872L264.284 86.9158L264.284 86.9148L264.038 86.872ZM262.502 95.512L262.255 95.4682L262.255 95.4709L262.502 95.512ZM260.965 98.776L261.124 98.9695L261.126 98.9681L260.965 98.776ZM232.357 99.64V99.39H232.148L232.111 99.5958L232.357 99.64ZM230.822 108.184L230.575 108.14L230.523 108.434H230.822V108.184ZM254.053 109.144L253.849 109.287L253.857 109.299L253.867 109.31L254.053 109.144ZM254.438 112.216L254.684 112.26L254.684 112.259L254.438 112.216ZM252.902 120.856L253.146 120.907L253.148 120.9L252.902 120.856ZM251.366 124.12L251.533 124.306L251.534 124.305L251.366 124.12ZM227.846 124.984V124.734H227.636L227.599 124.94L227.846 124.984ZM226.214 134.2L225.967 134.156L225.915 134.45H226.214V134.2ZM255.302 135.064L255.104 135.217L255.109 135.224L255.115 135.23L255.302 135.064ZM255.686 138.232L255.932 138.275L255.932 138.273L255.686 138.232ZM254.15 146.968L253.903 146.925L253.903 146.925L254.15 146.968ZM252.71 150.136L252.868 150.33L252.878 150.321L252.71 150.136ZM205.285 150.136L205.09 150.292L205.099 150.302L205.285 150.136ZM204.998 146.968L205.242 147.021L205.244 147.011L204.998 146.968ZM215.557 86.872L215.313 86.8188L215.311 86.8287L215.557 86.872ZM216.997 83.8L217.165 83.9858L217.166 83.985L216.997 83.8ZM260.582 83.09C262.103 83.09 263.022 83.4109 263.458 83.9562L263.849 83.6438C263.261 82.9091 262.132 82.59 260.582 82.59V83.09ZM263.467 83.9661C263.897 84.4497 264.045 85.3679 263.791 86.8292L264.284 86.9148C264.542 85.4321 264.434 84.3023 263.84 83.6339L263.467 83.9661ZM263.791 86.8282L262.255 95.4682L262.748 95.5558L264.284 86.9158L263.791 86.8282ZM262.255 95.4709C262.004 96.9792 261.508 97.9986 260.805 98.5839L261.126 98.9681C261.959 98.2734 262.487 97.1168 262.748 95.5531L262.255 95.4709ZM260.807 98.5825C260.168 99.1054 259.149 99.39 257.702 99.39V99.89C259.198 99.89 260.355 99.5986 261.124 98.9695L260.807 98.5825ZM257.702 99.39H232.357V99.89H257.702V99.39ZM232.111 99.5958L230.575 108.14L231.068 108.228L232.604 99.6842L232.111 99.5958ZM230.822 108.434H251.077V107.934H230.822V108.434ZM251.077 108.434C252.605 108.434 253.478 108.757 253.849 109.287L254.258 109.001C253.733 108.251 252.622 107.934 251.077 107.934V108.434ZM253.867 109.31C254.297 109.794 254.445 110.712 254.191 112.173L254.684 112.259C254.942 110.776 254.834 109.646 254.24 108.978L253.867 109.31ZM254.191 112.172L252.655 120.812L253.148 120.9L254.684 112.26L254.191 112.172ZM252.657 120.805C252.341 122.32 251.844 123.347 251.197 123.935L251.534 124.305C252.295 123.613 252.822 122.464 253.146 120.907L252.657 120.805ZM251.198 123.934C250.629 124.447 249.619 124.734 248.102 124.734V125.234C249.656 125.234 250.822 124.945 251.533 124.306L251.198 123.934ZM248.102 124.734H227.846V125.234H248.102V124.734ZM227.599 124.94L225.967 134.156L226.46 134.244L228.092 125.028L227.599 124.94ZM226.214 134.45H252.422V133.95H226.214V134.45ZM252.422 134.45C253.143 134.45 253.725 134.521 254.174 134.655C254.622 134.79 254.922 134.983 255.104 135.217L255.499 134.911C255.233 134.569 254.829 134.33 254.317 134.177C253.806 134.023 253.172 133.95 252.422 133.95V134.45ZM255.115 135.23C255.326 135.468 255.473 135.822 255.533 136.318C255.593 136.814 255.565 137.437 255.439 138.191L255.932 138.273C256.062 137.491 256.098 136.818 256.03 136.258C255.962 135.698 255.789 135.236 255.488 134.898L255.115 135.23ZM255.439 138.189L253.903 146.925L254.396 147.011L255.932 138.275L255.439 138.189ZM253.903 146.925C253.652 148.372 253.187 149.364 252.541 149.951L252.878 150.321C253.64 149.628 254.135 148.508 254.396 147.011L253.903 146.925ZM252.551 149.943C251.914 150.464 250.864 150.75 249.35 150.75V151.25C250.907 151.25 252.097 150.96 252.868 150.329L252.551 149.943ZM249.35 150.75H208.358V151.25H249.35V150.75ZM208.358 150.75C206.83 150.75 205.907 150.459 205.472 149.97L205.099 150.302C205.688 150.965 206.813 151.25 208.358 151.25V150.75ZM205.481 149.98C205.043 149.433 204.925 148.477 205.242 147.021L204.753 146.915C204.43 148.403 204.504 149.559 205.09 150.292L205.481 149.98ZM205.244 147.011L215.804 86.9153L215.311 86.8287L204.751 146.925L205.244 147.011ZM215.802 86.9251C216.118 85.4703 216.583 84.509 217.165 83.9858L216.83 83.6142C216.132 84.243 215.637 85.3297 215.313 86.8189L215.802 86.9251ZM217.166 83.985C217.803 83.406 218.848 83.09 220.357 83.09V82.59C218.795 82.59 217.6 82.914 216.829 83.615L217.166 83.985ZM220.357 83.09H260.582V82.59H220.357V83.09Z" fill="url(#paint4_linear_301_83)"/>
<path d="M311.968 82.744C318.56 82.744 323.456 84.472 326.656 87.928C329.92 91.32 331.04 95.896 330.016 101.656C329.376 104.856 328.32 107.48 326.848 109.528C325.44 111.512 323.36 113.368 320.608 115.096L320.512 115.48C326.4 118.296 328.608 124.056 327.136 132.76C326.048 138.776 323.104 143.32 318.304 146.392C313.568 149.464 307.68 151 300.64 151H271.84C270.304 151 269.28 150.712 268.768 150.136C268.256 149.496 268.16 148.44 268.48 146.968L279.04 86.872C279.36 85.336 279.84 84.28 280.48 83.704C281.184 83.064 282.304 82.744 283.84 82.744H311.968ZM310.24 103.576C310.88 99.992 309.216 98.2 305.248 98.2H296.032L294.208 108.76H303.424C307.328 108.76 309.6 107.032 310.24 103.576ZM307.744 129.784C308.512 126.072 306.784 124.216 302.56 124.216H291.52L289.504 135.448H300.64C304.736 135.448 307.104 133.56 307.744 129.784ZM341.364 86.68C341.684 85.208 342.164 84.216 342.804 83.704C343.444 83.128 344.468 82.84 345.876 82.84H357.204C358.676 82.84 359.636 83.128 360.084 83.704C360.532 84.28 360.628 85.272 360.372 86.68L349.716 147.16C349.46 148.568 349.012 149.56 348.372 150.136C347.732 150.712 346.676 151 345.204 151H333.876C332.468 151 331.508 150.744 330.996 150.232C330.548 149.656 330.452 148.632 330.708 147.16L341.364 86.68ZM417.569 82.84C419.105 82.84 420.129 83.16 420.641 83.8C421.153 84.376 421.249 85.4 420.929 86.872L419.393 95.512C419.137 97.048 418.657 98.136 417.953 98.776C417.249 99.352 416.129 99.64 414.593 99.64H400.385L392.033 146.968C391.713 148.44 391.201 149.496 390.497 150.136C389.857 150.712 388.769 151 387.233 151H376.385C374.849 151 373.825 150.712 373.313 150.136C372.801 149.496 372.705 148.44 373.025 146.968L381.377 99.64H367.073C365.537 99.64 364.513 99.352 364.001 98.776C363.553 98.136 363.457 97.048 363.713 95.512L365.249 86.872C365.569 85.4 366.049 84.376 366.689 83.8C367.393 83.16 368.513 82.84 370.049 82.84H417.569Z" fill="url(#paint5_linear_301_83)"/>
<path d="M326.656 87.928L326.546 88.0299L326.548 88.032L326.656 87.928ZM330.016 101.656L330.163 101.685L330.164 101.682L330.016 101.656ZM326.848 109.528L326.726 109.44L326.726 109.441L326.848 109.528ZM320.608 115.096L320.528 114.969L320.477 115.001L320.462 115.06L320.608 115.096ZM320.512 115.48L320.366 115.444L320.337 115.562L320.447 115.615L320.512 115.48ZM327.136 132.76L327.284 132.787L327.284 132.785L327.136 132.76ZM318.304 146.392L318.223 146.266L318.222 146.266L318.304 146.392ZM268.768 150.136L268.651 150.23L268.656 150.236L268.768 150.136ZM268.48 146.968L268.627 147L268.628 146.994L268.48 146.968ZM279.04 86.872L278.893 86.8414L278.892 86.846L279.04 86.872ZM280.48 83.704L280.58 83.8155L280.581 83.815L280.48 83.704ZM310.24 103.576L310.387 103.603L310.388 103.602L310.24 103.576ZM296.032 98.2V98.05H295.906L295.884 98.1745L296.032 98.2ZM294.208 108.76L294.06 108.734L294.03 108.91H294.208V108.76ZM307.744 129.784L307.597 129.754L307.596 129.759L307.744 129.784ZM291.52 124.216V124.066H291.395L291.372 124.189L291.52 124.216ZM289.504 135.448L289.356 135.422L289.325 135.598H289.504V135.448ZM311.968 82.894C318.535 82.894 323.384 84.6152 326.546 88.0299L326.766 87.8261C323.528 84.3288 318.585 82.594 311.968 82.594V82.894ZM326.548 88.032C329.771 91.381 330.886 95.9042 329.868 101.63L330.164 101.682C331.194 95.8878 330.069 91.259 326.764 87.824L326.548 88.032ZM329.869 101.627C329.232 104.812 328.183 107.414 326.726 109.44L326.97 109.616C328.457 107.546 329.52 104.9 330.163 101.685L329.869 101.627ZM326.726 109.441C325.332 111.405 323.269 113.248 320.528 114.969L320.688 115.223C323.451 113.488 325.548 111.619 326.97 109.615L326.726 109.441ZM320.462 115.06L320.366 115.444L320.658 115.516L320.754 115.132L320.462 115.06ZM320.447 115.615C323.359 117.008 325.355 119.124 326.444 121.966C327.535 124.812 327.721 128.399 326.988 132.735L327.284 132.785C328.023 128.417 327.841 124.772 326.724 121.858C325.605 118.94 323.553 116.768 320.577 115.345L320.447 115.615ZM326.988 132.733C325.907 138.712 322.985 143.218 318.223 146.266L318.385 146.518C323.223 143.422 326.189 138.84 327.284 132.787L326.988 132.733ZM318.222 146.266C313.516 149.319 307.658 150.85 300.64 150.85V151.15C307.702 151.15 313.62 149.609 318.386 146.518L318.222 146.266ZM300.64 150.85H271.84V151.15H300.64V150.85ZM271.84 150.85C270.309 150.85 269.346 150.56 268.88 150.036L268.656 150.236C269.214 150.864 270.299 151.15 271.84 151.15V150.85ZM268.885 150.042C268.418 149.458 268.309 148.462 268.627 147L268.333 146.936C268.011 148.418 268.094 149.534 268.651 150.23L268.885 150.042ZM268.628 146.994L279.188 86.898L278.892 86.846L268.332 146.942L268.628 146.994ZM279.187 86.9026C279.505 85.3754 279.977 84.3587 280.58 83.8155L280.38 83.5925C279.703 84.2013 279.215 85.2966 278.893 86.8414L279.187 86.9026ZM280.581 83.815C281.245 83.2116 282.32 82.894 283.84 82.894V82.594C282.288 82.594 281.123 82.9164 280.379 83.593L280.581 83.815ZM283.84 82.894H311.968V82.594H283.84V82.894ZM310.388 103.602C310.712 101.788 310.459 100.387 309.582 99.4419C308.708 98.5009 307.249 98.05 305.248 98.05V98.35C307.215 98.35 308.572 98.7951 309.362 99.6461C310.149 100.493 310.408 101.78 310.092 103.55L310.388 103.602ZM305.248 98.05H296.032V98.35H305.248V98.05ZM295.884 98.1745L294.06 108.734L294.356 108.786L296.18 98.2255L295.884 98.1745ZM294.208 108.91H303.424V108.61H294.208V108.91ZM303.424 108.91C305.397 108.91 306.977 108.473 308.147 107.583C309.319 106.692 310.062 105.359 310.387 103.603L310.093 103.549C309.778 105.249 309.065 106.508 307.965 107.345C306.863 108.183 305.355 108.61 303.424 108.61V108.91ZM307.891 129.814C308.28 127.935 308.045 126.484 307.134 125.506C306.227 124.532 304.687 124.066 302.56 124.066V124.366C304.657 124.366 306.093 124.828 306.914 125.71C307.731 126.588 307.976 127.921 307.597 129.754L307.891 129.814ZM302.56 124.066H291.52V124.366H302.56V124.066ZM291.372 124.189L289.356 135.422L289.652 135.474L291.668 124.242L291.372 124.189ZM289.504 135.598H300.64V135.298H289.504V135.598ZM300.64 135.598C302.71 135.598 304.363 135.121 305.582 134.149C306.801 133.177 307.567 131.723 307.892 129.809L307.596 129.759C307.281 131.621 306.543 132.999 305.394 133.915C304.245 134.831 302.666 135.298 300.64 135.298V135.598ZM341.364 86.68L341.217 86.6481L341.216 86.654L341.364 86.68ZM342.804 83.704L342.897 83.8213L342.904 83.8155L342.804 83.704ZM360.372 86.68L360.224 86.6532L360.224 86.654L360.372 86.68ZM349.715 147.16L349.863 147.187L349.863 147.186L349.715 147.16ZM330.996 150.232L330.877 150.324L330.883 150.331L330.889 150.338L330.996 150.232ZM330.708 147.16L330.56 147.134L330.56 147.134L330.708 147.16ZM341.51 86.7119C341.828 85.2487 342.299 84.2998 342.897 83.8211L342.71 83.5869C342.028 84.1322 341.539 85.1673 341.217 86.6481L341.51 86.7119ZM342.904 83.8155C343.503 83.2759 344.482 82.99 345.876 82.99V82.69C344.453 82.69 343.384 82.9801 342.703 83.5925L342.904 83.8155ZM345.876 82.99H357.204V82.69H345.876V82.99ZM357.204 82.99C357.931 82.99 358.523 83.0613 358.984 83.1997C359.445 83.338 359.766 83.5404 359.965 83.7961L360.202 83.6119C359.953 83.2916 359.57 83.062 359.071 82.9123C358.572 82.7627 357.948 82.69 357.204 82.69V82.99ZM359.965 83.7961C360.371 84.3176 360.479 85.2512 360.224 86.6532L360.519 86.7068C360.776 85.2928 360.692 84.2424 360.202 83.6119L359.965 83.7961ZM360.224 86.654L349.568 147.134L349.863 147.186L360.519 86.706L360.224 86.654ZM349.568 147.133C349.314 148.528 348.875 149.481 348.271 150.025L348.472 150.247C349.148 149.639 349.605 148.608 349.863 147.187L349.568 147.133ZM348.271 150.025C347.673 150.563 346.663 150.85 345.203 150.85V151.15C346.688 151.15 347.79 150.861 348.472 150.247L348.271 150.025ZM345.203 150.85H333.876V151.15H345.203V150.85ZM333.876 150.85C332.474 150.85 331.568 150.593 331.102 150.126L330.889 150.338C331.447 150.895 332.461 151.15 333.876 151.15V150.85ZM331.114 150.14C330.913 149.882 330.783 149.513 330.737 149.018C330.691 148.524 330.729 147.914 330.855 147.186L330.56 147.134C330.43 147.878 330.388 148.516 330.438 149.046C330.488 149.575 330.63 150.006 330.877 150.324L331.114 150.14ZM330.855 147.186L341.511 86.706L341.216 86.654L330.56 147.134L330.855 147.186ZM420.641 83.8L420.523 83.8938L420.529 83.8997L420.641 83.8ZM420.929 86.872L420.782 86.8401L420.781 86.8457L420.929 86.872ZM419.393 95.512L419.245 95.4857L419.245 95.4873L419.393 95.512ZM417.953 98.776L418.048 98.8922L418.054 98.887L417.953 98.776ZM400.385 99.64V99.49H400.259L400.237 99.6139L400.385 99.64ZM392.033 146.968L392.179 147L392.18 146.994L392.033 146.968ZM390.497 150.136L390.597 150.247L390.598 150.247L390.497 150.136ZM373.313 150.136L373.195 150.23L373.201 150.236L373.313 150.136ZM373.025 146.968L373.171 147L373.172 146.994L373.025 146.968ZM381.377 99.64L381.524 99.6661L381.556 99.49H381.377V99.64ZM364.001 98.776L363.878 98.862L363.883 98.8691L363.889 98.8757L364.001 98.776ZM363.713 95.512L363.565 95.4857L363.565 95.4873L363.713 95.512ZM365.249 86.872L365.102 86.8401L365.101 86.8457L365.249 86.872ZM366.689 83.8L366.789 83.9115L366.79 83.911L366.689 83.8ZM417.569 82.99C419.096 82.99 420.057 83.3106 420.524 83.8937L420.758 83.7063C420.2 83.0094 419.113 82.69 417.569 82.69V82.99ZM420.529 83.8997C420.989 84.417 421.101 85.3737 420.782 86.8401L421.075 86.9039C421.397 85.4263 421.317 84.335 420.753 83.7003L420.529 83.8997ZM420.781 86.8457L419.245 95.4857L419.54 95.5383L421.076 86.8983L420.781 86.8457ZM419.245 95.4873C418.991 97.0096 418.519 98.0581 417.852 98.665L418.054 98.887C418.794 98.2139 419.282 97.0864 419.541 95.5367L419.245 95.4873ZM417.858 98.6599C417.194 99.2033 416.116 99.49 414.593 99.49V99.79C416.142 99.79 417.304 99.5007 418.048 98.8921L417.858 98.6599ZM414.593 99.49H400.385V99.79H414.593V99.49ZM400.237 99.6139L391.885 146.942L392.18 146.994L400.532 99.6661L400.237 99.6139ZM391.886 146.936C391.569 148.394 391.067 149.415 390.396 150.025L390.598 150.247C391.335 149.577 391.856 148.486 392.179 147L391.886 146.936ZM390.396 150.025C389.799 150.562 388.758 150.85 387.233 150.85V151.15C388.78 151.15 389.915 150.862 390.597 150.247L390.396 150.025ZM387.233 150.85H376.385V151.15H387.233V150.85ZM376.385 150.85C374.854 150.85 373.89 150.56 373.425 150.036L373.201 150.236C373.759 150.864 374.844 151.15 376.385 151.15V150.85ZM373.43 150.042C372.963 149.458 372.853 148.462 373.171 147L372.878 146.936C372.556 148.418 372.639 149.534 373.196 150.23L373.43 150.042ZM373.172 146.994L381.524 99.6661L381.229 99.6139L372.877 146.942L373.172 146.994ZM381.377 99.49H367.073V99.79H381.377V99.49ZM367.073 99.49C365.542 99.49 364.578 99.2002 364.113 98.6763L363.889 98.8757C364.447 99.5038 365.532 99.79 367.073 99.79V99.49ZM364.124 98.69C363.712 98.102 363.606 97.0673 363.861 95.5367L363.565 95.4873C363.308 97.0287 363.393 98.17 363.878 98.862L364.124 98.69ZM363.86 95.5383L365.396 86.8983L365.101 86.8457L363.565 95.4857L363.86 95.5383ZM365.395 86.9039C365.713 85.4422 366.184 84.4558 366.789 83.9115L366.588 83.6885C365.913 84.2962 365.424 85.3578 365.102 86.8401L365.395 86.9039ZM366.79 83.911C367.453 83.3076 368.528 82.99 370.049 82.99V82.69C368.497 82.69 367.332 83.0124 366.588 83.689L366.79 83.911ZM370.049 82.99H417.569V82.69H370.049V82.99Z" fill="url(#paint6_linear_301_83)"/>
<defs>
<linearGradient id="paint0_linear_301_83" x1="216.295" y1="69" x2="60.684" y2="-104.596" gradientUnits="userSpaceOnUse">
<stop stop-color="#D1D1D1"/>
<stop offset="1" stop-color="#D1D1D1" stop-opacity="0.47"/>
</linearGradient>
<linearGradient id="paint1_linear_301_83" x1="121" y1="0" x2="121" y2="72" gradientUnits="userSpaceOnUse">
<stop offset="0.206492" stop-color="white"/>
<stop offset="0.478015" stop-color="#FFE7AA" stop-opacity="0"/>
<stop offset="0.689643" stop-color="#FFE7AA"/>
<stop offset="1" stop-color="#FFE7AA" stop-opacity="0"/>
</linearGradient>
<linearGradient id="paint2_linear_301_83" x1="162.698" y1="160.75" x2="153.416" y2="82.734" gradientUnits="userSpaceOnUse">
<stop stop-color="#EBC367"/>
<stop offset="0.206588" stop-color="#FDB242"/>
<stop offset="0.486587" stop-color="#C47E16"/>
<stop offset="0.589636" stop-color="#D1891E"/>
<stop offset="0.694186" stop-color="#E1A03F"/>
<stop offset="0.697522" stop-color="#FFDDA9"/>
<stop offset="0.911458" stop-color="#F1BD57"/>
</linearGradient>
<linearGradient id="paint3_linear_301_83" x1="258.142" y1="94.15" x2="92.6194" y2="109.822" gradientUnits="userSpaceOnUse">
<stop stop-color="#E6C365" stop-opacity="0"/>
<stop offset="1" stop-color="#E6C365" stop-opacity="0.3"/>
</linearGradient>
<linearGradient id="paint4_linear_301_83" x1="178" y1="82" x2="178" y2="154" gradientUnits="userSpaceOnUse">
<stop stop-color="#FFE7AA" stop-opacity="0"/>
<stop offset="0.329952" stop-color="#FFE7AA"/>
<stop offset="0.465285" stop-color="#FFE7AA" stop-opacity="0"/>
<stop offset="0.623174" stop-color="#FFE7AA"/>
<stop offset="0.817708" stop-color="#FFE7AA" stop-opacity="0"/>
<stop offset="1" stop-color="white"/>
</linearGradient>
<linearGradient id="paint5_linear_301_83" x1="268" y1="151" x2="488.146" y2="189.581" gradientUnits="userSpaceOnUse">
<stop stop-color="#D1D1D1"/>
<stop offset="1" stop-color="#D1D1D1" stop-opacity="0.47"/>
</linearGradient>
<linearGradient id="paint6_linear_301_83" x1="349.5" y1="82" x2="349.5" y2="154" gradientUnits="userSpaceOnUse">
<stop offset="0.206492" stop-color="white"/>
<stop offset="0.478015" stop-color="#FFE7AA" stop-opacity="0"/>
<stop offset="0.689643" stop-color="#FFE7AA"/>
<stop offset="1" stop-color="#FFE7AA" stop-opacity="0"/>
</linearGradient>
</defs>
</svg>
