<svg width="296" height="177" viewBox="0 0 296 177" fill="none" xmlns="http://www.w3.org/2000/svg">
<g filter="url(#filter0_d_181_5916)">
<path d="M109.832 109.376C110.173 111.125 109.384 112 107.464 112H100.808C99.2293 112 98.1413 111.808 97.544 111.424C96.9467 111.04 96.6053 110.336 96.52 109.312L95.88 104.704H81.992L79.752 109.312C79.24 110.336 78.6427 111.04 77.96 111.424C77.2773 111.808 76.168 112 74.632 112H67.592C65.8 112 65.3947 111.125 66.376 109.376L88.264 68.8C88.7333 67.904 89.224 67.3067 89.736 67.008C90.248 66.7093 90.9947 66.56 91.976 66.56H99.208C100.147 66.56 100.829 66.7093 101.256 67.008C101.725 67.3067 102.045 67.8613 102.216 68.672L109.832 109.376ZM93.704 87.168C93.576 85.6747 93.512 84.2667 93.512 82.944C93.5547 81.5787 93.6187 80.448 93.704 79.552L93.896 78.208H93.32C92.7653 81.28 91.8053 84.2453 90.44 87.104L86.792 94.656H94.728L93.704 87.168ZM114.516 82.624C115.454 77.12 117.865 72.9173 121.748 70.016C125.673 67.072 130.793 65.6 137.108 65.6C146.324 65.6 151.636 69.3973 153.044 76.992C153.257 77.9307 153.193 78.6773 152.852 79.232C152.553 79.744 151.892 80.1493 150.868 80.448L144.276 82.688C143.252 82.9867 142.505 83.0293 142.036 82.816C141.609 82.56 141.289 81.9413 141.076 80.96C140.777 79.5093 140.18 78.464 139.284 77.824C138.388 77.1413 137.044 76.8 135.252 76.8C132.777 76.8 130.878 77.3547 129.556 78.464C128.276 79.5307 127.444 81.1947 127.06 83.456L124.948 95.104C124.564 97.3653 124.82 99.0507 125.716 100.16C126.654 101.227 128.361 101.76 130.836 101.76C134.206 101.76 136.66 100.373 138.196 97.6C138.793 96.576 139.348 95.9573 139.86 95.744C140.372 95.488 141.076 95.5307 141.972 95.872L148.628 98.432C150.292 99.0293 150.654 100.181 149.716 101.888C145.705 109.269 138.814 112.96 129.044 112.96C122.857 112.96 118.292 111.275 115.348 107.904C112.446 104.533 111.465 100.053 112.404 94.464L114.516 82.624ZM188.721 66.56C189.745 66.56 190.428 66.7733 190.769 67.2C191.11 67.584 191.196 68.2667 191.025 69.248L190.001 75.008C189.83 76.032 189.489 76.7573 188.977 77.184C188.508 77.568 187.782 77.76 186.801 77.76H169.905L168.881 83.456H182.385C183.409 83.456 184.07 83.6693 184.369 84.096C184.71 84.48 184.796 85.1627 184.625 86.144L183.601 91.904C183.388 92.928 183.046 93.6533 182.577 94.08C182.15 94.464 181.425 94.656 180.401 94.656H166.897L165.809 100.8H183.281C184.262 100.8 184.902 100.992 185.201 101.376C185.542 101.76 185.628 102.464 185.457 103.488L184.433 109.312C184.262 110.293 183.942 110.997 183.473 111.424C183.004 111.808 182.257 112 181.233 112H153.905C152.881 112 152.198 111.808 151.857 111.424C151.516 110.997 151.452 110.293 151.665 109.312L158.705 69.248C158.918 68.2667 159.238 67.584 159.665 67.2C160.134 66.7733 160.881 66.56 161.905 66.56H188.721Z" fill="url(#paint0_linear_181_5916)"/>
<path d="M109.832 109.376C110.173 111.125 109.384 112 107.464 112H100.808C99.2293 112 98.1413 111.808 97.544 111.424C96.9467 111.04 96.6053 110.336 96.52 109.312L95.88 104.704H81.992L79.752 109.312C79.24 110.336 78.6427 111.04 77.96 111.424C77.2773 111.808 76.168 112 74.632 112H67.592C65.8 112 65.3947 111.125 66.376 109.376L88.264 68.8C88.7333 67.904 89.224 67.3067 89.736 67.008C90.248 66.7093 90.9947 66.56 91.976 66.56H99.208C100.147 66.56 100.829 66.7093 101.256 67.008C101.725 67.3067 102.045 67.8613 102.216 68.672L109.832 109.376ZM93.704 87.168C93.576 85.6747 93.512 84.2667 93.512 82.944C93.5547 81.5787 93.6187 80.448 93.704 79.552L93.896 78.208H93.32C92.7653 81.28 91.8053 84.2453 90.44 87.104L86.792 94.656H94.728L93.704 87.168ZM114.516 82.624C115.454 77.12 117.865 72.9173 121.748 70.016C125.673 67.072 130.793 65.6 137.108 65.6C146.324 65.6 151.636 69.3973 153.044 76.992C153.257 77.9307 153.193 78.6773 152.852 79.232C152.553 79.744 151.892 80.1493 150.868 80.448L144.276 82.688C143.252 82.9867 142.505 83.0293 142.036 82.816C141.609 82.56 141.289 81.9413 141.076 80.96C140.777 79.5093 140.18 78.464 139.284 77.824C138.388 77.1413 137.044 76.8 135.252 76.8C132.777 76.8 130.878 77.3547 129.556 78.464C128.276 79.5307 127.444 81.1947 127.06 83.456L124.948 95.104C124.564 97.3653 124.82 99.0507 125.716 100.16C126.654 101.227 128.361 101.76 130.836 101.76C134.206 101.76 136.66 100.373 138.196 97.6C138.793 96.576 139.348 95.9573 139.86 95.744C140.372 95.488 141.076 95.5307 141.972 95.872L148.628 98.432C150.292 99.0293 150.654 100.181 149.716 101.888C145.705 109.269 138.814 112.96 129.044 112.96C122.857 112.96 118.292 111.275 115.348 107.904C112.446 104.533 111.465 100.053 112.404 94.464L114.516 82.624ZM188.721 66.56C189.745 66.56 190.428 66.7733 190.769 67.2C191.11 67.584 191.196 68.2667 191.025 69.248L190.001 75.008C189.83 76.032 189.489 76.7573 188.977 77.184C188.508 77.568 187.782 77.76 186.801 77.76H169.905L168.881 83.456H182.385C183.409 83.456 184.07 83.6693 184.369 84.096C184.71 84.48 184.796 85.1627 184.625 86.144L183.601 91.904C183.388 92.928 183.046 93.6533 182.577 94.08C182.15 94.464 181.425 94.656 180.401 94.656H166.897L165.809 100.8H183.281C184.262 100.8 184.902 100.992 185.201 101.376C185.542 101.76 185.628 102.464 185.457 103.488L184.433 109.312C184.262 110.293 183.942 110.997 183.473 111.424C183.004 111.808 182.257 112 181.233 112H153.905C152.881 112 152.198 111.808 151.857 111.424C151.516 110.997 151.452 110.293 151.665 109.312L158.705 69.248C158.918 68.2667 159.238 67.584 159.665 67.2C160.134 66.7733 160.881 66.56 161.905 66.56H188.721Z" fill="url(#paint1_linear_181_5916)"/>
</g>
<path d="M108.832 107.376C109.173 109.125 108.384 110 106.464 110H99.808C98.2293 110 97.1413 109.808 96.544 109.424C95.9467 109.04 95.6053 108.336 95.52 107.312L94.88 102.704H80.992L78.752 107.312C78.24 108.336 77.6427 109.04 76.96 109.424C76.2773 109.808 75.168 110 73.632 110H66.592C64.8 110 64.3947 109.125 65.376 107.376L87.264 66.8C87.7333 65.904 88.224 65.3067 88.736 65.008C89.248 64.7093 89.9947 64.56 90.976 64.56H98.208C99.1467 64.56 99.8293 64.7093 100.256 65.008C100.725 65.3067 101.045 65.8613 101.216 66.672L108.832 107.376ZM92.704 85.168C92.576 83.6747 92.512 82.2667 92.512 80.944C92.5547 79.5787 92.6187 78.448 92.704 77.552L92.896 76.208H92.32C91.7653 79.28 90.8053 82.2453 89.44 85.104L85.792 92.656H93.728L92.704 85.168ZM113.516 80.624C114.454 75.12 116.865 70.9173 120.748 68.016C124.673 65.072 129.793 63.6 136.108 63.6C145.324 63.6 150.636 67.3973 152.044 74.992C152.257 75.9307 152.193 76.6773 151.852 77.232C151.553 77.744 150.892 78.1493 149.868 78.448L143.276 80.688C142.252 80.9867 141.505 81.0293 141.036 80.816C140.609 80.56 140.289 79.9413 140.076 78.96C139.777 77.5093 139.18 76.464 138.284 75.824C137.388 75.1413 136.044 74.8 134.252 74.8C131.777 74.8 129.878 75.3547 128.556 76.464C127.276 77.5307 126.444 79.1947 126.06 81.456L123.948 93.104C123.564 95.3653 123.82 97.0507 124.716 98.16C125.654 99.2267 127.361 99.76 129.836 99.76C133.206 99.76 135.66 98.3733 137.196 95.6C137.793 94.576 138.348 93.9573 138.86 93.744C139.372 93.488 140.076 93.5307 140.972 93.872L147.628 96.432C149.292 97.0293 149.654 98.1813 148.716 99.888C144.705 107.269 137.814 110.96 128.044 110.96C121.857 110.96 117.292 109.275 114.348 105.904C111.446 102.533 110.465 98.0533 111.404 92.464L113.516 80.624ZM187.721 64.56C188.745 64.56 189.428 64.7733 189.769 65.2C190.11 65.584 190.196 66.2667 190.025 67.248L189.001 73.008C188.83 74.032 188.489 74.7573 187.977 75.184C187.508 75.568 186.782 75.76 185.801 75.76H168.905L167.881 81.456H181.385C182.409 81.456 183.07 81.6693 183.369 82.096C183.71 82.48 183.796 83.1627 183.625 84.144L182.601 89.904C182.388 90.928 182.046 91.6533 181.577 92.08C181.15 92.464 180.425 92.656 179.401 92.656H165.897L164.809 98.8H182.281C183.262 98.8 183.902 98.992 184.201 99.376C184.542 99.76 184.628 100.464 184.457 101.488L183.433 107.312C183.262 108.293 182.942 108.997 182.473 109.424C182.004 109.808 181.257 110 180.233 110H152.905C151.881 110 151.198 109.808 150.857 109.424C150.516 108.997 150.452 108.293 150.665 107.312L157.705 67.248C157.918 66.2667 158.238 65.584 158.665 65.2C159.134 64.7733 159.881 64.56 160.905 64.56H187.721Z" fill="url(#paint2_linear_181_5916)"/>
<path d="M108.832 107.376C109.173 109.125 108.384 110 106.464 110H99.808C98.2293 110 97.1413 109.808 96.544 109.424C95.9467 109.04 95.6053 108.336 95.52 107.312L94.88 102.704H80.992L78.752 107.312C78.24 108.336 77.6427 109.04 76.96 109.424C76.2773 109.808 75.168 110 73.632 110H66.592C64.8 110 64.3947 109.125 65.376 107.376L87.264 66.8C87.7333 65.904 88.224 65.3067 88.736 65.008C89.248 64.7093 89.9947 64.56 90.976 64.56H98.208C99.1467 64.56 99.8293 64.7093 100.256 65.008C100.725 65.3067 101.045 65.8613 101.216 66.672L108.832 107.376ZM92.704 85.168C92.576 83.6747 92.512 82.2667 92.512 80.944C92.5547 79.5787 92.6187 78.448 92.704 77.552L92.896 76.208H92.32C91.7653 79.28 90.8053 82.2453 89.44 85.104L85.792 92.656H93.728L92.704 85.168ZM113.516 80.624C114.454 75.12 116.865 70.9173 120.748 68.016C124.673 65.072 129.793 63.6 136.108 63.6C145.324 63.6 150.636 67.3973 152.044 74.992C152.257 75.9307 152.193 76.6773 151.852 77.232C151.553 77.744 150.892 78.1493 149.868 78.448L143.276 80.688C142.252 80.9867 141.505 81.0293 141.036 80.816C140.609 80.56 140.289 79.9413 140.076 78.96C139.777 77.5093 139.18 76.464 138.284 75.824C137.388 75.1413 136.044 74.8 134.252 74.8C131.777 74.8 129.878 75.3547 128.556 76.464C127.276 77.5307 126.444 79.1947 126.06 81.456L123.948 93.104C123.564 95.3653 123.82 97.0507 124.716 98.16C125.654 99.2267 127.361 99.76 129.836 99.76C133.206 99.76 135.66 98.3733 137.196 95.6C137.793 94.576 138.348 93.9573 138.86 93.744C139.372 93.488 140.076 93.5307 140.972 93.872L147.628 96.432C149.292 97.0293 149.654 98.1813 148.716 99.888C144.705 107.269 137.814 110.96 128.044 110.96C121.857 110.96 117.292 109.275 114.348 105.904C111.446 102.533 110.465 98.0533 111.404 92.464L113.516 80.624ZM187.721 64.56C188.745 64.56 189.428 64.7733 189.769 65.2C190.11 65.584 190.196 66.2667 190.025 67.248L189.001 73.008C188.83 74.032 188.489 74.7573 187.977 75.184C187.508 75.568 186.782 75.76 185.801 75.76H168.905L167.881 81.456H181.385C182.409 81.456 183.07 81.6693 183.369 82.096C183.71 82.48 183.796 83.1627 183.625 84.144L182.601 89.904C182.388 90.928 182.046 91.6533 181.577 92.08C181.15 92.464 180.425 92.656 179.401 92.656H165.897L164.809 98.8H182.281C183.262 98.8 183.902 98.992 184.201 99.376C184.542 99.76 184.628 100.464 184.457 101.488L183.433 107.312C183.262 108.293 182.942 108.997 182.473 109.424C182.004 109.808 181.257 110 180.233 110H152.905C151.881 110 151.198 109.808 150.857 109.424C150.516 108.997 150.452 108.293 150.665 107.312L157.705 67.248C157.918 66.2667 158.238 65.584 158.665 65.2C159.134 64.7733 159.881 64.56 160.905 64.56H187.721Z" fill="url(#paint3_linear_181_5916)"/>
<path d="M108.832 107.376L108.586 107.422L108.587 107.424L108.832 107.376ZM95.52 107.312L95.7695 107.291L95.7676 107.278L95.52 107.312ZM94.88 102.704L95.1276 102.67L95.0977 102.454H94.88V102.704ZM80.992 102.704V102.454H80.8356L80.7672 102.595L80.992 102.704ZM78.752 107.312L78.9756 107.424L78.9768 107.421L78.752 107.312ZM76.96 109.424L76.8374 109.206L76.96 109.424ZM65.376 107.376L65.5941 107.498L65.596 107.495L65.376 107.376ZM87.264 66.8L87.484 66.9187L87.4855 66.916L87.264 66.8ZM88.736 65.008L88.862 65.2239V65.2239L88.736 65.008ZM100.256 65.008L100.112 65.213L100.122 65.2189L100.256 65.008ZM101.216 66.672L101.462 66.626L101.461 66.6205L101.216 66.672ZM92.704 85.168L92.4546 85.1894L92.4563 85.2019L92.704 85.168ZM92.512 80.944L92.262 80.9362V80.944H92.512ZM92.704 77.552L92.4562 77.5166L92.4551 77.5283L92.704 77.552ZM92.896 76.208L93.1435 76.2434L93.1843 75.958H92.896V76.208ZM92.32 76.208V75.958H92.1111L92.074 76.1636L92.32 76.208ZM89.44 85.104L89.6651 85.2127L89.6656 85.2117L89.44 85.104ZM85.792 92.656L85.5669 92.5473L85.3936 92.906H85.792V92.656ZM93.728 92.656V92.906H94.0145L93.9757 92.6221L93.728 92.656ZM108.587 107.424C108.75 108.262 108.63 108.823 108.31 109.177C107.986 109.536 107.396 109.75 106.464 109.75V110.25C107.452 110.25 108.217 110.027 108.682 109.511C109.152 108.991 109.255 108.239 109.077 107.328L108.587 107.424ZM106.464 109.75H99.808V110.25H106.464V109.75ZM99.808 109.75C99.0276 109.75 98.3765 109.702 97.8514 109.61C97.3239 109.517 96.9388 109.381 96.6792 109.214L96.4088 109.634C96.7465 109.851 97.2041 110.003 97.7646 110.102C98.3275 110.202 99.0097 110.25 99.808 110.25V109.75ZM96.6792 109.214C96.1727 108.888 95.851 108.274 95.7691 107.291L95.2709 107.333C95.3596 108.398 95.7206 109.192 96.4088 109.634L96.6792 109.214ZM95.7676 107.278L95.1276 102.67L94.6324 102.738L95.2724 107.346L95.7676 107.278ZM94.88 102.454H80.992V102.954H94.88V102.454ZM80.7672 102.595L78.5272 107.203L78.9768 107.421L81.2168 102.813L80.7672 102.595ZM78.5284 107.2C78.0289 108.199 77.4608 108.855 76.8374 109.206L77.0826 109.642C77.8246 109.225 78.4511 108.473 78.9756 107.424L78.5284 107.2ZM76.8374 109.206C76.2135 109.557 75.159 109.75 73.632 109.75V110.25C75.177 110.25 76.3412 110.059 77.0826 109.642L76.8374 109.206ZM73.632 109.75H66.592V110.25H73.632V109.75ZM66.592 109.75C65.7077 109.75 65.3059 109.53 65.1708 109.239C65.1 109.086 65.0794 108.873 65.1442 108.578C65.209 108.282 65.3554 107.924 65.594 107.498L65.158 107.254C64.9059 107.703 64.735 108.11 64.6558 108.47C64.5766 108.831 64.5854 109.165 64.7172 109.449C64.9875 110.032 65.6843 110.25 66.592 110.25V109.75ZM65.596 107.495L87.484 66.9187L87.044 66.6813L65.156 107.257L65.596 107.495ZM87.4855 66.916C87.9466 66.0356 88.4101 65.4876 88.862 65.2239L88.61 64.7921C88.0379 65.1258 87.5201 65.7724 87.0425 66.684L87.4855 66.916ZM88.862 65.2239C89.3183 64.9577 90.0131 64.81 90.976 64.81V64.31C89.9762 64.31 89.1777 64.4609 88.61 64.7921L88.862 65.2239ZM90.976 64.81H98.208V64.31H90.976V64.81ZM98.208 64.81C99.1313 64.81 99.75 64.959 100.113 65.2128L100.399 64.8032C99.9086 64.4597 99.1621 64.31 98.208 64.31V64.81ZM100.122 65.2189C100.512 65.467 100.808 65.9466 100.971 66.7235L101.461 66.6205C101.283 65.776 100.939 65.1463 100.39 64.7971L100.122 65.2189ZM100.97 66.718L108.586 107.422L109.078 107.33L101.462 66.626L100.97 66.718ZM92.9531 85.1466C92.8256 83.6595 92.762 82.2587 92.762 80.944H92.262C92.262 82.2747 92.3264 83.6898 92.4549 85.1894L92.9531 85.1466ZM92.7619 80.9518C92.8045 79.5894 92.8682 78.4645 92.9529 77.5757L92.4551 77.5283C92.3691 78.4315 92.3049 79.568 92.2621 80.9362L92.7619 80.9518ZM92.9515 77.5874L93.1435 76.2434L92.6485 76.1726L92.4565 77.5166L92.9515 77.5874ZM92.896 75.958H92.32V76.458H92.896V75.958ZM92.074 76.1636C91.5233 79.2133 90.5703 82.1574 89.2144 84.9963L89.6656 85.2117C91.0404 82.3333 92.0073 79.3467 92.566 76.2524L92.074 76.1636ZM89.2149 84.9953L85.5669 92.5473L86.0171 92.7647L89.6651 85.2127L89.2149 84.9953ZM85.792 92.906H93.728V92.406H85.792V92.906ZM93.9757 92.6221L92.9517 85.1341L92.4563 85.2019L93.4803 92.6899L93.9757 92.6221ZM113.515 80.624L113.762 80.6679L113.762 80.666L113.515 80.624ZM120.748 68.016L120.897 68.2163L120.898 68.216L120.748 68.016ZM152.044 74.992L151.797 75.0376L151.8 75.0474L152.044 74.992ZM151.852 77.232L151.639 77.1009L151.636 77.106L151.852 77.232ZM149.868 78.448L149.797 78.2078L149.787 78.2113L149.868 78.448ZM143.275 80.688L143.346 80.9282L143.356 80.9247L143.275 80.688ZM141.035 80.816L140.907 81.0304L140.919 81.0377L140.932 81.0436L141.035 80.816ZM140.076 78.96L139.831 79.0104L139.831 79.0131L140.076 78.96ZM138.284 75.824L138.132 76.0229L138.138 76.0274L138.284 75.824ZM128.556 76.464L128.716 76.6561L128.716 76.6555L128.556 76.464ZM126.06 81.456L126.306 81.5006L126.306 81.4979L126.06 81.456ZM123.948 93.104L123.701 93.0594L123.701 93.0621L123.948 93.104ZM124.715 98.16L124.521 98.3172L124.528 98.3252L124.715 98.16ZM137.196 95.6L136.979 95.474L136.977 95.4789L137.196 95.6ZM138.86 93.744L138.956 93.9748L138.964 93.9715L138.971 93.9676L138.86 93.744ZM140.972 93.872L141.061 93.6387L141.061 93.6384L140.972 93.872ZM147.628 96.432L147.538 96.6654L147.543 96.6673L147.628 96.432ZM148.715 99.888L148.496 99.7675L148.496 99.7686L148.715 99.888ZM114.347 105.904L114.158 106.067L114.159 106.068L114.347 105.904ZM111.403 92.464L111.157 92.4201L111.157 92.4226L111.403 92.464ZM113.762 80.666C114.692 75.2149 117.074 71.0734 120.897 68.2163L120.598 67.8157C116.656 70.7613 114.217 75.0251 113.269 80.582L113.762 80.666ZM120.898 68.216C124.769 65.3127 129.831 63.85 136.107 63.85V63.35C129.754 63.35 124.577 64.8313 120.597 67.816L120.898 68.216ZM136.107 63.85C140.684 63.85 144.259 64.7932 146.858 66.6514C149.452 68.5057 151.103 71.2914 151.798 75.0376L152.289 74.9464C151.576 71.0979 149.867 68.1877 147.149 66.2446C144.436 64.3055 140.747 63.35 136.107 63.35V63.85ZM151.8 75.0474C152.005 75.9525 151.932 76.6238 151.639 77.101L152.064 77.363C152.453 76.7309 152.508 75.9088 152.287 74.9366L151.8 75.0474ZM151.636 77.106C151.387 77.5327 150.805 77.9143 149.798 78.208L149.938 78.688C150.978 78.3844 151.719 77.9553 152.067 77.358L151.636 77.106ZM149.787 78.2113L143.195 80.4513L143.356 80.9247L149.948 78.6847L149.787 78.2113ZM143.205 80.448C142.188 80.7449 141.52 80.7614 141.139 80.5884L140.932 81.0436C141.49 81.2973 142.315 81.2284 143.346 80.928L143.205 80.448ZM141.164 80.6016C140.834 80.4036 140.531 79.8806 140.32 78.9069L139.831 79.0131C140.046 80.002 140.384 80.7164 140.907 81.0304L141.164 80.6016ZM140.32 78.9096C140.013 77.4189 139.392 76.3083 138.429 75.6206L138.138 76.0274C138.967 76.6197 139.54 77.5998 139.831 79.0104L140.32 78.9096ZM138.435 75.6251C137.476 74.8948 136.068 74.55 134.252 74.55V75.05C136.019 75.05 137.299 75.3879 138.132 76.0229L138.435 75.6251ZM134.252 74.55C131.743 74.55 129.779 75.1119 128.395 76.2724L128.716 76.6555C129.978 75.5974 131.811 75.05 134.252 75.05V74.55ZM128.395 76.2719C127.055 77.389 126.203 79.1161 125.813 81.4141L126.306 81.4979C126.684 79.2732 127.496 77.6723 128.716 76.6561L128.395 76.2719ZM125.814 81.4114L123.702 93.0594L124.193 93.1486L126.305 81.5006L125.814 81.4114ZM123.701 93.0621C123.312 95.3521 123.559 97.1257 124.521 98.3171L124.91 98.0029C124.08 96.9757 123.815 95.3786 124.194 93.1459L123.701 93.0621ZM124.528 98.3252C125.539 99.4746 127.339 100.01 129.836 100.01V99.51C127.382 99.51 125.769 98.9787 124.903 97.9948L124.528 98.3252ZM129.836 100.01C131.555 100.01 133.056 99.656 134.327 98.9376C135.598 98.2188 136.627 97.143 137.414 95.7211L136.977 95.4789C136.228 96.8303 135.262 97.8345 134.08 98.5024C132.898 99.1707 131.486 99.51 129.836 99.51V100.01ZM137.411 95.726C138.007 94.7057 138.526 94.1538 138.956 93.9748L138.763 93.5132C138.169 93.7609 137.579 94.4463 136.98 95.474L137.411 95.726ZM138.971 93.9676C139.389 93.7586 140.01 93.7731 140.882 94.1056L141.061 93.6384C140.141 93.2882 139.354 93.2174 138.748 93.5204L138.971 93.9676ZM140.882 94.1053L147.538 96.6653L147.717 96.1987L141.061 93.6387L140.882 94.1053ZM147.543 96.6673C148.337 96.9524 148.761 97.3475 148.909 97.8191C149.06 98.2995 148.952 98.9386 148.496 99.7675L148.935 100.008C149.417 99.1307 149.597 98.3405 149.386 97.6689C149.172 96.9885 148.582 96.509 147.712 96.1967L147.543 96.6673ZM148.496 99.7686C144.537 107.055 137.741 110.71 128.044 110.71V111.21C137.888 111.21 144.873 107.484 148.935 100.007L148.496 99.7686ZM128.044 110.71C121.9 110.71 117.416 109.037 114.536 105.74L114.159 106.068C117.167 109.512 121.813 111.21 128.044 111.21V110.71ZM114.537 105.741C111.697 102.441 110.72 98.0432 111.65 92.5054L111.157 92.4226C110.21 98.0634 111.195 102.625 114.158 106.067L114.537 105.741ZM111.65 92.5079L113.762 80.6679L113.269 80.5801L111.157 92.4201L111.65 92.5079ZM189.769 65.2L189.574 65.3564L189.582 65.3661L189.769 65.2ZM190.025 67.248L190.271 67.2918L190.271 67.2908L190.025 67.248ZM189.001 73.008L188.755 72.9642L188.754 72.9669L189.001 73.008ZM187.977 75.184L188.135 75.3775L188.137 75.3761L187.977 75.184ZM168.905 75.76V75.51H168.696L168.659 75.7158L168.905 75.76ZM167.881 81.456L167.635 81.4118L167.582 81.706H167.881V81.456ZM183.369 82.096L183.164 82.2394L183.173 82.2512L183.182 82.2621L183.369 82.096ZM183.625 84.144L183.871 84.1878L183.871 84.1868L183.625 84.144ZM182.601 89.904L182.846 89.955L182.847 89.9478L182.601 89.904ZM181.577 92.08L181.744 92.2658L181.745 92.265L181.577 92.08ZM165.897 92.656V92.406H165.687L165.651 92.6124L165.897 92.656ZM164.809 98.8L164.563 98.7564L164.511 99.05H164.809V98.8ZM184.201 99.376L184.004 99.5295L184.009 99.536L184.014 99.5421L184.201 99.376ZM184.457 101.488L184.703 101.531L184.704 101.529L184.457 101.488ZM183.433 107.312L183.187 107.269L183.187 107.269L183.433 107.312ZM182.473 109.424L182.632 109.618L182.641 109.609L182.473 109.424ZM150.857 109.424L150.662 109.58L150.67 109.59L150.857 109.424ZM150.665 107.312L150.909 107.365L150.911 107.355L150.665 107.312ZM157.705 67.248L157.461 67.1948L157.459 67.2047L157.705 67.248ZM158.665 65.2L158.832 65.3858L158.833 65.385L158.665 65.2ZM187.721 64.81C188.731 64.81 189.308 65.0243 189.574 65.3562L189.964 65.0438C189.547 64.5224 188.759 64.31 187.721 64.31V64.81ZM189.582 65.3661C189.841 65.6577 189.948 66.2346 189.779 67.2052L190.271 67.2908C190.444 66.2988 190.379 65.5103 189.956 65.0339L189.582 65.3661ZM189.779 67.2042L188.755 72.9642L189.247 73.0518L190.271 67.2918L189.779 67.2042ZM188.754 72.9669C188.588 73.9632 188.263 74.62 187.817 74.9919L188.137 75.3761C188.715 74.8947 189.072 74.1008 189.248 73.0491L188.754 72.9669ZM187.819 74.9905C187.414 75.3214 186.758 75.51 185.801 75.51V76.01C186.807 76.01 187.601 75.8146 188.135 75.3775L187.819 74.9905ZM185.801 75.51H168.905V76.01H185.801V75.51ZM168.659 75.7158L167.635 81.4118L168.127 81.5002L169.151 75.8042L168.659 75.7158ZM167.881 81.706H181.385V81.206H167.881V81.706ZM181.385 81.706C182.4 81.706 182.943 81.9227 183.164 82.2394L183.574 81.9526C183.198 81.416 182.418 81.206 181.385 81.206V81.706ZM183.182 82.2621C183.441 82.5537 183.548 83.1306 183.379 84.1012L183.871 84.1868C184.044 83.1948 183.979 82.4063 183.556 81.9299L183.182 82.2621ZM183.379 84.1002L182.355 89.8602L182.847 89.9478L183.871 84.1878L183.379 84.1002ZM182.356 89.853C182.147 90.8559 181.821 91.5202 181.409 91.895L181.745 92.265C182.272 91.7864 182.628 91.0001 182.846 89.955L182.356 89.853ZM181.41 91.8942C181.054 92.2148 180.407 92.406 179.401 92.406V92.906C180.443 92.906 181.247 92.7132 181.744 92.2658L181.41 91.8942ZM179.401 92.406H165.897V92.906H179.401V92.406ZM165.651 92.6124L164.563 98.7564L165.055 98.8436L166.143 92.6996L165.651 92.6124ZM164.809 99.05H182.281V98.55H164.809V99.05ZM182.281 99.05C182.758 99.05 183.137 99.0969 183.425 99.1835C183.714 99.27 183.896 99.3913 184.004 99.5295L184.398 99.2225C184.207 98.9767 183.92 98.81 183.569 98.7045C183.217 98.5991 182.786 98.55 182.281 98.55V99.05ZM184.014 99.5421C184.14 99.6841 184.234 99.9019 184.273 100.222C184.312 100.542 184.293 100.949 184.21 101.447L184.704 101.529C184.791 101.003 184.816 100.546 184.769 100.162C184.723 99.7781 184.603 99.4519 184.388 99.2099L184.014 99.5421ZM184.211 101.445L183.187 107.269L183.679 107.355L184.703 101.531L184.211 101.445ZM183.187 107.269C183.02 108.225 182.715 108.866 182.305 109.239L182.641 109.609C183.169 109.129 183.504 108.362 183.679 107.355L183.187 107.269ZM182.315 109.231C181.912 109.56 181.236 109.75 180.233 109.75V110.25C181.278 110.25 182.096 110.056 182.631 109.617L182.315 109.231ZM180.233 109.75H152.905V110.25H180.233V109.75ZM152.905 109.75C151.89 109.75 151.308 109.555 151.044 109.258L150.67 109.59C151.089 110.061 151.872 110.25 152.905 110.25V109.75ZM151.052 109.268C150.785 108.934 150.699 108.33 150.909 107.365L150.421 107.259C150.204 108.256 150.246 109.06 150.662 109.58L151.052 109.268ZM150.911 107.355L157.951 67.2913L157.459 67.2047L150.419 107.269L150.911 107.355ZM157.949 67.3011C158.159 66.3369 158.464 65.717 158.832 65.3858L158.498 65.0142C158.012 65.451 157.678 66.1964 157.461 67.1949L157.949 67.3011ZM158.833 65.385C159.235 65.0194 159.907 64.81 160.905 64.81V64.31C159.855 64.31 159.033 64.5273 158.497 65.015L158.833 65.385ZM160.905 64.81H187.721V64.31H160.905V64.81Z" fill="url(#paint4_linear_181_5916)"/>
<path d="M73.888 8.56C74.8267 8.56 75.3813 8.77333 75.552 9.2C75.7227 9.62666 75.5947 10.288 75.168 11.184L58.272 51.76C57.888 52.656 57.4187 53.2533 56.864 53.552C56.3093 53.8507 55.5413 54 54.56 54H46.624C45.6853 54 44.96 53.8507 44.448 53.552C43.9787 53.2533 43.7227 52.6987 43.68 51.888L42.912 36.976C42.784 33.136 43.0613 29.296 43.744 25.456H43.168C42.3147 29.424 41.184 33.264 39.776 36.976L33.76 51.76C33.376 52.656 32.8853 53.2533 32.288 53.552C31.7333 53.8507 30.9653 54 29.984 54H22.304C20.4267 54 19.4453 53.296 19.36 51.888L16.8 11.184C16.7147 10.2453 16.8213 9.584 17.12 9.2C17.4187 8.77333 18.0373 8.56 18.976 8.56H26.72C27.9147 8.56 28.7467 8.70933 29.216 9.008C29.6853 9.30666 29.9413 9.94666 29.984 10.928L29.92 27.696C29.8347 31.3227 29.4507 35.0987 28.768 39.024H29.216C30.0693 34.7573 31.136 30.9813 32.416 27.696L39.328 10.928C39.712 9.94666 40.2027 9.30666 40.8 9.008C41.3973 8.70933 42.2293 8.56 43.296 8.56H50.144C51.2533 8.56 52.0427 8.73066 52.512 9.072C53.024 9.37066 53.3013 9.98933 53.344 10.928L54.24 27.696C54.4107 30.5973 54.176 34.3733 53.536 39.024H54.048C54.6027 35.8667 55.5627 32.0907 56.928 27.696L62.624 10.928C62.9653 9.98933 63.4133 9.37066 63.968 9.072C64.5653 8.73066 65.4613 8.56 66.656 8.56H73.888ZM114.117 8.496C115.098 8.496 115.738 8.70933 116.037 9.136C116.378 9.52 116.463 10.224 116.293 11.248L109.253 51.312C109.039 52.2933 108.698 52.9973 108.229 53.424C107.802 53.808 107.077 54 106.053 54H98.8205C97.7965 54 97.1138 53.808 96.7725 53.424C96.4312 52.9973 96.3672 52.2933 96.5805 51.312L99.1405 36.592H86.7885L84.1645 51.312C83.9938 52.2933 83.6738 52.9973 83.2045 53.424C82.7352 53.808 81.9885 54 80.9645 54H73.7325C72.7085 54 72.0258 53.808 71.6845 53.424C71.3858 52.9973 71.3218 52.2933 71.4925 51.312L78.5965 11.248C78.8098 10.224 79.1298 9.52 79.5565 9.136C80.0258 8.70933 80.7725 8.496 81.7965 8.496H89.0285C90.0525 8.496 90.7138 8.70933 91.0125 9.136C91.3538 9.52 91.4392 10.224 91.2685 11.248L88.7725 25.392H101.125L103.621 11.248C103.791 10.224 104.111 9.52 104.581 9.136C105.093 8.70933 105.839 8.496 106.821 8.496H114.117ZM160.733 8.56C161.373 8.56 161.821 8.688 162.077 8.944C162.376 9.2 162.461 9.52 162.333 9.904C162.248 10.288 162.013 10.736 161.629 11.248L142.429 36.4L139.869 51.312C139.656 52.2933 139.314 52.9973 138.845 53.424C138.376 53.808 137.65 54 136.669 54H129.373C128.392 54 127.73 53.808 127.389 53.424C127.09 52.9973 127.026 52.2933 127.197 51.312L129.757 36.4L119.517 11.248C119.176 10.5227 119.154 9.904 119.453 9.392C119.752 8.83733 120.37 8.56 121.309 8.56H128.733C130.44 8.56 131.592 8.688 132.189 8.944C132.786 9.2 133.277 9.86133 133.661 10.928L138.205 23.984L147.613 10.928C148.338 9.86133 149.042 9.2 149.725 8.944C150.408 8.688 151.581 8.56 153.245 8.56H160.733Z" fill="url(#paint5_linear_181_5916)"/>
<path d="M75.168 11.184L75.0324 11.1194L75.0295 11.1263L75.168 11.184ZM58.272 51.76L58.4099 51.8191L58.4105 51.8177L58.272 51.76ZM44.448 53.552L44.3674 53.6786L44.3724 53.6816L44.448 53.552ZM43.68 51.888L43.5302 51.8957L43.5302 51.8959L43.68 51.888ZM42.912 36.976L42.7621 36.981L42.7622 36.9837L42.912 36.976ZM43.744 25.456L43.8917 25.4823L43.923 25.306H43.744V25.456ZM43.168 25.456V25.306H43.0468L43.0214 25.4245L43.168 25.456ZM39.776 36.976L39.915 37.0326L39.9163 37.0292L39.776 36.976ZM33.76 51.76L33.8979 51.8191L33.8989 51.8165L33.76 51.76ZM32.288 53.552L32.2209 53.4178L32.2169 53.4199L32.288 53.552ZM19.36 51.888L19.5097 51.8789L19.5097 51.8786L19.36 51.888ZM16.8 11.184L16.9498 11.1746L16.9494 11.1704L16.8 11.184ZM17.12 9.2L17.2386 9.2922L17.2429 9.28602L17.12 9.2ZM29.216 9.008L29.1355 9.13455V9.13455L29.216 9.008ZM29.984 10.928L30.1342 10.9286L30.1339 10.9215L29.984 10.928ZM29.92 27.696L30.07 27.6995L30.07 27.6966L29.92 27.696ZM28.768 39.024L28.6202 38.9983L28.5897 39.174H28.768V39.024ZM29.216 39.024V39.174H29.339L29.3631 39.0534L29.216 39.024ZM32.416 27.696L32.2773 27.6388L32.2762 27.6415L32.416 27.696ZM39.328 10.928L39.4667 10.9852L39.4677 10.9827L39.328 10.928ZM40.8 9.008L40.8671 9.14216L40.8 9.008ZM52.512 9.072L52.4238 9.19331L52.4299 9.19776L52.4364 9.20157L52.512 9.072ZM53.344 10.928L53.1942 10.9348L53.1942 10.936L53.344 10.928ZM54.24 27.696L54.0902 27.704L54.0903 27.7048L54.24 27.696ZM53.536 39.024L53.3874 39.0036L53.3639 39.174H53.536V39.024ZM54.048 39.024V39.174H54.1739L54.1957 39.05L54.048 39.024ZM56.928 27.696L56.7859 27.6477L56.7848 27.6515L56.928 27.696ZM62.624 10.928L62.483 10.8767L62.482 10.8798L62.624 10.928ZM63.968 9.072L64.0391 9.20411L64.0424 9.20224L63.968 9.072ZM73.888 8.71C74.3484 8.71 74.701 8.76264 74.9542 8.86C75.2046 8.95632 75.3471 9.0917 75.4127 9.25571L75.6913 9.14429C75.5862 8.88163 75.3661 8.697 75.0618 8.58C74.7603 8.46402 74.3663 8.41 73.888 8.41V8.71ZM75.4127 9.25571C75.4835 9.4326 75.4977 9.67267 75.4367 9.98749C75.376 10.3014 75.2428 10.6781 75.0326 11.1195L75.3034 11.2485C75.5199 10.7939 75.664 10.392 75.7313 10.0445C75.7983 9.69799 75.7912 9.39406 75.6913 9.14429L75.4127 9.25571ZM75.0295 11.1263L58.1335 51.7023L58.4105 51.8177L75.3065 11.2417L75.0295 11.1263ZM58.1341 51.7009C57.7566 52.5819 57.3052 53.1441 56.7929 53.4199L56.9351 53.6841C57.5321 53.3626 58.0194 52.7301 58.4099 51.8191L58.1341 51.7009ZM56.7929 53.4199C56.269 53.702 55.5291 53.85 54.56 53.85V54.15C55.5536 54.15 56.3497 53.9993 56.9351 53.6841L56.7929 53.4199ZM54.56 53.85H46.624V54.15H54.56V53.85ZM46.624 53.85C45.6978 53.85 45.003 53.7021 44.5236 53.4224L44.3724 53.6816C44.917 53.9993 45.6728 54.15 46.624 54.15V53.85ZM44.5285 53.4254C44.1166 53.1633 43.8712 52.6659 43.8298 51.8801L43.5302 51.8959C43.5742 52.7315 43.8407 53.3434 44.3675 53.6786L44.5285 53.4254ZM43.8298 51.8803L43.0618 36.9683L42.7622 36.9837L43.5302 51.8957L43.8298 51.8803ZM43.0619 36.971C42.9343 33.1416 43.2108 29.3121 43.8917 25.4823L43.5963 25.4297C42.9118 29.2799 42.6337 33.1304 42.7621 36.981L43.0619 36.971ZM43.744 25.306H43.168V25.606H43.744V25.306ZM43.0214 25.4245C42.1696 29.3853 41.041 33.218 39.6358 36.9228L39.9163 37.0292C41.327 33.31 42.4598 29.4627 43.3146 25.4875L43.0214 25.4245ZM39.6371 36.9195L33.6211 51.7035L33.8989 51.8165L39.9149 37.0325L39.6371 36.9195ZM33.6221 51.7009C33.2458 52.5789 32.7747 53.1409 32.2209 53.4178L32.3551 53.6862C32.9959 53.3657 33.5062 52.7331 33.8979 51.8191L33.6221 51.7009ZM32.2169 53.4199C31.693 53.702 30.9531 53.85 29.984 53.85V54.15C30.9776 54.15 31.7737 53.9993 32.3591 53.6841L32.2169 53.4199ZM29.984 53.85H22.304V54.15H29.984V53.85ZM22.304 53.85C21.3805 53.85 20.702 53.6762 20.2474 53.3501C19.7998 53.029 19.5502 52.5463 19.5097 51.8789L19.2103 51.8971C19.2552 52.6377 19.5388 53.211 20.0726 53.5939C20.5993 53.9718 21.3502 54.15 22.304 54.15V53.85ZM19.5097 51.8786L16.9497 11.1746L16.6503 11.1934L19.2103 51.8974L19.5097 51.8786ZM16.9494 11.1704C16.8647 10.2386 16.977 9.62823 17.2384 9.29209L17.0016 9.10791C16.6657 9.53976 16.5647 10.252 16.6506 11.1976L16.9494 11.1704ZM17.2429 9.28602C17.4971 8.92281 18.0483 8.71 18.976 8.71V8.41C18.0264 8.41 17.3402 8.62385 16.9971 9.11398L17.2429 9.28602ZM18.976 8.71H26.72V8.41H18.976V8.71ZM26.72 8.71C27.9121 8.71 28.7054 8.86086 29.1355 9.13455L29.2965 8.88145C28.788 8.55781 27.9172 8.41 26.72 8.41V8.71ZM29.1355 9.13455C29.5401 9.39202 29.792 9.96552 29.8341 10.9345L30.1339 10.9215C30.0907 9.92781 29.8306 9.22131 29.2965 8.88145L29.1355 9.13455ZM29.834 10.9274L29.77 27.6954L30.07 27.6966L30.134 10.9286L29.834 10.9274ZM29.77 27.6925C29.6849 31.311 29.3017 35.0796 28.6202 38.9983L28.9158 39.0497C29.5996 35.1177 29.9844 31.3343 30.07 27.6995L29.77 27.6925ZM28.768 39.174H29.216V38.874H28.768V39.174ZM29.3631 39.0534C30.2151 34.7934 31.2796 31.026 32.5558 27.7505L32.2762 27.6415C30.9924 30.9366 29.9236 34.7213 29.0689 38.9946L29.3631 39.0534ZM32.5547 27.7532L39.4667 10.9852L39.1893 10.8708L32.2773 27.6388L32.5547 27.7532ZM39.4677 10.9827C39.8456 10.0168 40.3176 9.41692 40.8671 9.14216L40.7329 8.87384C40.0878 9.19641 39.5784 9.87648 39.1883 10.8733L39.4677 10.9827ZM40.8671 9.14216C41.4348 8.85832 42.2402 8.71 43.296 8.71V8.41C42.2185 8.41 41.3599 8.56034 40.7329 8.87384L40.8671 9.14216ZM43.296 8.71H50.144V8.41H43.296V8.71ZM50.144 8.71C51.2463 8.71 51.9946 8.88119 52.4238 9.19331L52.6002 8.95069C52.0907 8.58014 51.2604 8.41 50.144 8.41V8.71ZM52.4364 9.20157C52.8831 9.46212 53.1524 10.016 53.1942 10.9348L53.4938 10.9212C53.4503 9.96262 53.1649 9.27921 52.5876 8.94243L52.4364 9.20157ZM53.1942 10.936L54.0902 27.704L54.3898 27.688L53.4938 10.92L53.1942 10.936ZM54.0903 27.7048C54.2601 30.5923 54.0268 34.3574 53.3874 39.0036L53.6846 39.0444C54.3252 34.3892 54.5612 30.6024 54.3897 27.6872L54.0903 27.7048ZM53.536 39.174H54.048V38.874H53.536V39.174ZM54.1957 39.05C54.7489 35.9009 55.7071 32.1315 57.0712 27.7405L56.7848 27.6515C55.4183 32.0499 54.4564 35.8324 53.9003 38.998L54.1957 39.05ZM57.07 27.7442L62.766 10.9762L62.482 10.8798L56.786 27.6478L57.07 27.7442ZM62.765 10.9793C63.1007 10.0559 63.5312 9.47755 64.0391 9.20407L63.8969 8.93993C63.2954 9.26378 62.8299 9.92272 62.483 10.8767L62.765 10.9793ZM64.0424 9.20224C64.606 8.88019 65.4707 8.71 66.656 8.71V8.41C65.452 8.41 64.5247 8.58114 63.8936 8.94176L64.0424 9.20224ZM66.656 8.71H73.888V8.41H66.656V8.71ZM116.036 9.136L115.914 9.22202L115.919 9.22915L115.924 9.23565L116.036 9.136ZM116.293 11.248L116.44 11.274L116.44 11.2727L116.293 11.248ZM109.253 51.312L109.399 51.3439L109.4 51.338L109.253 51.312ZM108.229 53.424L108.329 53.5355L108.329 53.535L108.229 53.424ZM96.7725 53.424L96.6552 53.5178L96.6604 53.5237L96.7725 53.424ZM96.5805 51.312L96.7272 51.3439L96.7283 51.3377L96.5805 51.312ZM99.1405 36.592L99.2883 36.6177L99.3188 36.442H99.1405V36.592ZM86.7885 36.592V36.442H86.6629L86.6408 36.5657L86.7885 36.592ZM84.1645 51.312L84.0168 51.2857L84.0167 51.2863L84.1645 51.312ZM83.2045 53.424L83.2996 53.5403L83.3054 53.535L83.2045 53.424ZM71.6845 53.424L71.5616 53.51L71.5666 53.5172L71.5724 53.5237L71.6845 53.424ZM71.4925 51.312L71.3448 51.2858L71.3447 51.2863L71.4925 51.312ZM78.5965 11.248L78.4496 11.2174L78.4488 11.2218L78.5965 11.248ZM79.5565 9.136L79.6568 9.24749L79.6574 9.24699L79.5565 9.136ZM91.0125 9.136L90.8896 9.22202L90.8946 9.22915L90.9004 9.23565L91.0125 9.136ZM91.2685 11.248L91.4162 11.2741L91.4165 11.2727L91.2685 11.248ZM88.7725 25.392L88.6248 25.3659L88.5937 25.542H88.7725V25.392ZM101.125 25.392V25.542H101.25L101.272 25.4181L101.125 25.392ZM103.62 11.248L103.768 11.2741L103.768 11.2727L103.62 11.248ZM104.581 9.136L104.675 9.2521L104.677 9.25123L104.581 9.136ZM114.117 8.646C115.09 8.646 115.66 8.86013 115.914 9.22202L116.159 9.04998C115.815 8.55853 115.106 8.346 114.117 8.346V8.646ZM115.924 9.23565C116.068 9.39764 116.167 9.63715 116.208 9.97005C116.248 10.3029 116.229 10.7196 116.145 11.2233L116.44 11.2727C116.527 10.7524 116.55 10.3051 116.505 9.93395C116.46 9.56284 116.346 9.25835 116.149 9.03634L115.924 9.23565ZM116.145 11.222L109.105 51.286L109.4 51.338L116.44 11.274L116.145 11.222ZM109.106 51.2801C108.896 52.2474 108.564 52.9164 108.128 53.313L108.329 53.535C108.832 53.0783 109.183 52.3392 109.399 51.3439L109.106 51.2801ZM108.128 53.3125C107.744 53.6585 107.066 53.85 106.053 53.85V54.15C107.087 54.15 107.86 53.9575 108.329 53.5355L108.128 53.3125ZM106.053 53.85H98.8205V54.15H106.053V53.85ZM98.8205 53.85C97.8017 53.85 97.1796 53.6562 96.8846 53.3243L96.6604 53.5237C97.0481 53.9598 97.7913 54.15 98.8205 54.15V53.85ZM96.8896 53.3303C96.593 52.9595 96.5158 52.3156 96.7271 51.3439L96.4339 51.2801C96.2185 52.2711 96.2694 53.0352 96.6554 53.5177L96.8896 53.3303ZM96.7283 51.3377L99.2883 36.6177L98.9927 36.5663L96.4327 51.2863L96.7283 51.3377ZM99.1405 36.442H86.7885V36.742H99.1405V36.442ZM86.6408 36.5657L84.0168 51.2857L84.3122 51.3383L86.9362 36.6183L86.6408 36.5657ZM84.0167 51.2863C83.8487 52.2523 83.5377 52.9184 83.1036 53.313L83.3054 53.535C83.81 53.0763 84.139 52.3343 84.3123 51.3377L84.0167 51.2863ZM83.1095 53.3079C82.68 53.6593 81.9757 53.85 80.9645 53.85V54.15C82.0013 54.15 82.7903 53.9567 83.2995 53.5401L83.1095 53.3079ZM80.9645 53.85H73.7325V54.15H80.9645V53.85ZM73.7325 53.85C72.7137 53.85 72.0916 53.6562 71.7966 53.3243L71.5724 53.5237C71.9601 53.9598 72.7033 54.15 73.7325 54.15V53.85ZM71.8074 53.338C71.5449 52.963 71.4709 52.3116 71.6403 51.3377L71.3447 51.2863C71.1728 52.2751 71.2268 53.0317 71.5616 53.51L71.8074 53.338ZM71.6402 51.3382L78.7442 11.2742L78.4488 11.2218L71.3448 51.2858L71.6402 51.3382ZM78.7433 11.2786C78.9548 10.2634 79.2666 9.59873 79.6568 9.24749L79.4562 9.0245C78.9931 9.44126 78.6648 10.1846 78.4497 11.2174L78.7433 11.2786ZM79.6574 9.24699C80.0864 8.85694 80.7881 8.646 81.7965 8.646V8.346C80.7569 8.346 79.9652 8.56172 79.4556 9.02501L79.6574 9.24699ZM81.7965 8.646H89.0285V8.346H81.7965V8.646ZM89.0285 8.646C90.0474 8.646 90.6371 8.86134 90.8896 9.22202L91.1354 9.04998C90.7905 8.55732 90.0576 8.346 89.0285 8.346V8.646ZM90.9004 9.23565C91.0444 9.39764 91.1432 9.63715 91.1836 9.97005C91.2239 10.3029 91.2045 10.7196 91.1205 11.2233L91.4165 11.2727C91.5032 10.7524 91.5264 10.3051 91.4814 9.93395C91.4364 9.56284 91.322 9.25835 91.1246 9.03634L90.9004 9.23565ZM91.1208 11.2219L88.6248 25.3659L88.9202 25.4181L91.4162 11.2741L91.1208 11.2219ZM88.7725 25.542H101.125V25.242H88.7725V25.542ZM101.272 25.4181L103.768 11.2741L103.473 11.2219L100.977 25.3659L101.272 25.4181ZM103.768 11.2727C103.937 10.2611 104.248 9.60149 104.675 9.25209L104.486 9.0199C103.974 9.43851 103.645 10.1869 103.473 11.2233L103.768 11.2727ZM104.677 9.25123C105.151 8.85553 105.858 8.646 106.821 8.646V8.346C105.82 8.346 105.034 8.56313 104.484 9.02076L104.677 9.25123ZM106.821 8.646H114.117V8.346H106.821V8.646ZM162.077 8.944L161.971 9.05038L161.979 9.05789L162.077 8.944ZM162.333 9.904L162.191 9.85656L162.188 9.86391L162.187 9.87146L162.333 9.904ZM161.629 11.248L161.748 11.339L161.749 11.338L161.629 11.248ZM142.429 36.4L142.31 36.309L142.287 36.3383L142.281 36.3746L142.429 36.4ZM139.869 51.312L140.016 51.3439L140.017 51.3374L139.869 51.312ZM138.845 53.424L138.94 53.5403L138.946 53.535L138.845 53.424ZM127.389 53.424L127.266 53.51L127.271 53.5172L127.277 53.5237L127.389 53.424ZM127.197 51.312L127.345 51.3377L127.345 51.3374L127.197 51.312ZM129.757 36.4L129.905 36.4254L129.912 36.3831L129.896 36.3434L129.757 36.4ZM119.517 11.248L119.656 11.1914L119.653 11.1841L119.517 11.248ZM119.453 9.392L119.583 9.46762L119.585 9.46311L119.453 9.392ZM132.189 8.944L132.248 8.80612L132.189 8.944ZM133.661 10.928L133.803 10.8787L133.802 10.8772L133.661 10.928ZM138.205 23.984L138.063 24.0333L138.158 24.3056L138.327 24.0717L138.205 23.984ZM147.613 10.928L147.735 11.0157L147.737 11.0123L147.613 10.928ZM149.725 8.944L149.672 8.80355L149.725 8.944ZM160.733 8.71C161.361 8.71 161.758 8.83725 161.971 9.05006L162.183 8.83793C161.884 8.53874 161.385 8.41 160.733 8.41V8.71ZM161.979 9.05789C162.11 9.16994 162.187 9.28909 162.22 9.41465C162.254 9.54057 162.247 9.68616 162.191 9.85656L162.475 9.95143C162.547 9.73784 162.562 9.53143 162.51 9.33735C162.458 9.14291 162.343 8.97405 162.175 8.83011L161.979 9.05789ZM162.187 9.87146C162.108 10.2256 161.887 10.6536 161.509 11.158L161.749 11.338C162.139 10.8184 162.387 10.3504 162.479 9.93654L162.187 9.87146ZM161.51 11.157L142.31 36.309L142.548 36.491L161.748 11.339L161.51 11.157ZM142.281 36.3746L139.721 51.2866L140.017 51.3374L142.577 36.4254L142.281 36.3746ZM139.722 51.2801C139.512 52.2474 139.18 52.9164 138.744 53.313L138.946 53.535C139.448 53.0783 139.799 52.3392 140.016 51.3439L139.722 51.2801ZM138.75 53.3079C138.32 53.66 137.636 53.85 136.669 53.85V54.15C137.665 54.15 138.432 53.956 138.94 53.5401L138.75 53.3079ZM136.669 53.85H129.373V54.15H136.669V53.85ZM129.373 53.85C128.399 53.85 127.797 53.6571 127.501 53.3243L127.277 53.5237C127.664 53.9589 128.384 54.15 129.373 54.15V53.85ZM127.512 53.338C127.249 52.963 127.175 52.3116 127.345 51.3377L127.049 51.2863C126.877 52.2751 126.931 53.0317 127.266 53.51L127.512 53.338ZM127.345 51.3374L129.905 36.4254L129.609 36.3746L127.049 51.2866L127.345 51.3374ZM129.896 36.3434L119.656 11.1914L119.378 11.3046L129.618 36.4566L129.896 36.3434ZM119.653 11.1841C119.324 10.4862 119.317 9.92276 119.583 9.46758L119.323 9.31642C118.992 9.88523 119.027 10.5591 119.381 11.3119L119.653 11.1841ZM119.585 9.46311C119.846 8.97863 120.396 8.71 121.309 8.71V8.41C120.345 8.41 119.657 8.69603 119.321 9.32088L119.585 9.46311ZM121.309 8.71H128.733V8.41H121.309V8.71ZM128.733 8.71C129.583 8.71 130.292 8.7419 130.86 8.80508C131.431 8.86851 131.851 8.96253 132.13 9.08187L132.248 8.80612C131.929 8.66947 131.475 8.57148 130.894 8.50692C130.31 8.44209 129.59 8.41 128.733 8.41V8.71ZM132.13 9.08187C132.669 9.31278 133.14 9.924 133.52 10.9788L133.802 10.8772C133.414 9.79867 132.904 9.08722 132.248 8.80612L132.13 9.08187ZM133.519 10.9773L138.063 24.0333L138.347 23.9347L133.803 10.8787L133.519 10.9773ZM138.327 24.0717L147.735 11.0157L147.491 10.8403L138.083 23.8963L138.327 24.0717ZM147.737 11.0123C148.457 9.95395 149.139 9.32399 149.778 9.08445L149.672 8.80355C148.946 9.076 148.22 9.76872 147.489 10.8437L147.737 11.0123ZM149.778 9.08445C150.433 8.83882 151.582 8.71 153.245 8.71V8.41C151.58 8.41 150.383 8.53717 149.672 8.80355L149.778 9.08445ZM153.245 8.71H160.733V8.41H153.245V8.71Z" fill="url(#paint6_linear_181_5916)"/>
<path d="M221.312 64.496C225.707 64.496 228.971 65.648 231.104 67.952C233.28 70.2133 234.027 73.264 233.344 77.104C232.917 79.2373 232.213 80.9867 231.232 82.352C230.293 83.6747 228.907 84.912 227.072 86.064L227.008 86.32C230.933 88.1973 232.405 92.0373 231.424 97.84C230.699 101.851 228.736 104.88 225.536 106.928C222.379 108.976 218.453 110 213.76 110H194.56C193.536 110 192.853 109.808 192.512 109.424C192.171 108.997 192.107 108.293 192.32 107.312L199.36 67.248C199.573 66.224 199.893 65.52 200.32 65.136C200.789 64.7093 201.536 64.496 202.56 64.496H221.312ZM220.16 78.384C220.587 75.9947 219.477 74.8 216.832 74.8H210.688L209.472 81.84H215.616C218.219 81.84 219.733 80.688 220.16 78.384ZM218.496 95.856C219.008 93.3813 217.856 92.144 215.04 92.144H207.68L206.336 99.632H213.76C216.491 99.632 218.069 98.3733 218.496 95.856ZM240.909 67.12C241.122 66.1387 241.442 65.4773 241.869 65.136C242.296 64.752 242.978 64.56 243.917 64.56H251.469C252.45 64.56 253.09 64.752 253.389 65.136C253.688 65.52 253.752 66.1813 253.581 67.12L246.477 107.44C246.306 108.379 246.008 109.04 245.581 109.424C245.154 109.808 244.45 110 243.469 110H235.917C234.978 110 234.338 109.829 233.997 109.488C233.698 109.104 233.634 108.421 233.805 107.44L240.909 67.12ZM291.713 64.56C292.737 64.56 293.419 64.7733 293.761 65.2C294.102 65.584 294.166 66.2667 293.953 67.248L292.929 73.008C292.758 74.032 292.438 74.7573 291.969 75.184C291.499 75.568 290.753 75.76 289.729 75.76H280.257L274.689 107.312C274.475 108.293 274.134 108.997 273.665 109.424C273.238 109.808 272.513 110 271.489 110H264.257C263.233 110 262.55 109.808 262.209 109.424C261.867 108.997 261.803 108.293 262.017 107.312L267.585 75.76H258.049C257.025 75.76 256.342 75.568 256.001 75.184C255.702 74.7573 255.638 74.032 255.809 73.008L256.833 67.248C257.046 66.2667 257.366 65.584 257.793 65.2C258.262 64.7733 259.009 64.56 260.033 64.56H291.713Z" fill="url(#paint7_linear_181_5916)"/>
<path d="M231.104 67.952L230.994 68.0539L230.996 68.056L231.104 67.952ZM233.344 77.104L233.491 77.1334L233.492 77.1303L233.344 77.104ZM231.232 82.352L231.11 82.2645L231.11 82.2652L231.232 82.352ZM227.072 86.064L226.992 85.937L226.941 85.9691L226.926 86.0276L227.072 86.064ZM227.008 86.32L226.862 86.2836L226.833 86.4025L226.943 86.4553L227.008 86.32ZM231.424 97.84L231.572 97.8667L231.572 97.865L231.424 97.84ZM225.536 106.928L225.455 106.802L225.454 106.802L225.536 106.928ZM192.512 109.424L192.395 109.518L192.4 109.524L192.512 109.424ZM192.32 107.312L192.467 107.344L192.468 107.338L192.32 107.312ZM199.36 67.248L199.213 67.2174L199.212 67.222L199.36 67.248ZM200.32 65.136L200.42 65.2475L200.421 65.247L200.32 65.136ZM220.16 78.384L220.307 78.4113L220.308 78.4104L220.16 78.384ZM210.688 74.8V74.65H210.562L210.54 74.7745L210.688 74.8ZM209.472 81.84L209.324 81.8145L209.294 81.99H209.472V81.84ZM218.496 95.856L218.349 95.8256L218.348 95.8309L218.496 95.856ZM207.68 92.144V91.994H207.555L207.532 92.1175L207.68 92.144ZM206.336 99.632L206.188 99.6055L206.157 99.782H206.336V99.632ZM221.312 64.646C225.682 64.646 228.899 65.7912 230.994 68.0539L231.214 67.8501C229.042 65.5048 225.731 64.346 221.312 64.346V64.646ZM230.996 68.056C233.131 70.2743 233.873 73.2722 233.196 77.0777L233.492 77.1303C234.18 73.2558 233.429 70.1523 231.212 67.848L230.996 68.056ZM233.197 77.0746C232.773 79.1929 232.076 80.9208 231.11 82.2645L231.354 82.4395C232.351 81.0526 233.061 79.2818 233.491 77.1334L233.197 77.0746ZM231.11 82.2652C230.186 83.5674 228.816 84.7921 226.992 85.937L227.152 86.191C228.998 85.0319 230.401 83.782 231.354 82.4388L231.11 82.2652ZM226.926 86.0276L226.862 86.2836L227.154 86.3564L227.218 86.1004L226.926 86.0276ZM226.943 86.4553C228.874 87.3785 230.195 88.7798 230.916 90.6617C231.639 92.5481 231.764 94.9293 231.276 97.815L231.572 97.865C232.065 94.948 231.945 92.5079 231.196 90.5543C230.445 88.5962 229.068 87.1389 227.073 86.1847L226.943 86.4553ZM231.276 97.8133C230.558 101.786 228.617 104.778 225.455 106.802L225.617 107.054C228.855 104.982 230.839 101.915 231.572 97.8667L231.276 97.8133ZM225.454 106.802C222.327 108.831 218.432 109.85 213.76 109.85V110.15C218.475 110.15 222.431 109.121 225.618 107.054L225.454 106.802ZM213.76 109.85H194.56V110.15H213.76V109.85ZM194.56 109.85C193.541 109.85 192.919 109.656 192.624 109.324L192.4 109.524C192.788 109.96 193.531 110.15 194.56 110.15V109.85ZM192.629 109.33C192.332 108.959 192.255 108.316 192.467 107.344L192.173 107.28C191.958 108.271 192.009 109.035 192.395 109.518L192.629 109.33ZM192.468 107.338L199.508 67.274L199.212 67.222L192.172 107.286L192.468 107.338ZM199.507 67.2786C199.718 66.2634 200.03 65.5987 200.42 65.2475L200.22 65.0245C199.757 65.4413 199.428 66.1846 199.213 67.2174L199.507 67.2786ZM200.421 65.247C200.85 64.8569 201.552 64.646 202.56 64.646V64.346C201.52 64.346 200.729 64.5617 200.219 65.025L200.421 65.247ZM202.56 64.646H221.312V64.346H202.56V64.646ZM220.308 78.4104C220.525 77.1929 220.358 76.2402 219.758 75.5939C219.161 74.9515 218.171 74.65 216.832 74.65V74.95C218.138 74.95 219.025 75.2458 219.538 75.7981C220.047 76.3465 220.222 77.1858 220.012 78.3576L220.308 78.4104ZM216.832 74.65H210.688V74.95H216.832V74.65ZM210.54 74.7745L209.324 81.8145L209.62 81.8655L210.836 74.8255L210.54 74.7745ZM209.472 81.99H215.616V81.69H209.472V81.99ZM215.616 81.99C216.938 81.99 218.003 81.6974 218.795 81.0954C219.588 80.4919 220.089 79.5911 220.307 78.4113L220.013 78.3567C219.804 79.4809 219.334 80.3081 218.613 80.8566C217.89 81.4066 216.896 81.69 215.616 81.69V81.99ZM218.643 95.8864C218.904 94.6261 218.749 93.6392 218.126 92.9698C217.507 92.3055 216.463 91.994 215.04 91.994V92.294C216.433 92.294 217.373 92.6011 217.906 93.1742C218.435 93.7422 218.6 94.6112 218.349 95.8256L218.643 95.8864ZM215.04 91.994H207.68V92.294H215.04V91.994ZM207.532 92.1175L206.188 99.6055L206.484 99.6585L207.828 92.1705L207.532 92.1175ZM206.336 99.782H213.76V99.482H206.336V99.782ZM213.76 99.782C215.147 99.782 216.262 99.4622 217.086 98.8053C217.911 98.1473 218.426 97.1662 218.644 95.8811L218.348 95.8309C218.139 97.0632 217.652 97.97 216.898 98.5707C216.144 99.1725 215.103 99.482 213.76 99.482V99.782ZM240.909 67.12L240.762 67.0881L240.761 67.094L240.909 67.12ZM241.869 65.136L241.963 65.2533L241.969 65.2475L241.869 65.136ZM253.581 67.12L253.433 67.0932L253.433 67.094L253.581 67.12ZM246.477 107.44L246.625 107.467L246.625 107.466L246.477 107.44ZM233.997 109.488L233.879 109.58L233.884 109.587L233.891 109.594L233.997 109.488ZM233.805 107.44L233.657 107.414L233.657 107.414L233.805 107.44ZM241.056 67.1519C241.267 66.1794 241.578 65.5612 241.963 65.2531L241.775 65.0189C241.307 65.3935 240.978 66.0979 240.762 67.0881L241.056 67.1519ZM241.969 65.2475C242.356 64.8999 242.993 64.71 243.917 64.71V64.41C242.963 64.41 242.236 64.6041 241.769 65.0245L241.969 65.2475ZM243.917 64.71H251.469V64.41H243.917V64.71ZM251.469 64.71C251.951 64.71 252.341 64.7573 252.642 64.8477C252.943 64.938 253.146 65.0684 253.271 65.2281L253.507 65.0439C253.333 64.8196 253.067 64.662 252.728 64.5603C252.389 64.4587 251.968 64.41 251.469 64.41V64.71ZM253.271 65.2281C253.527 65.5576 253.603 66.1605 253.433 67.0932L253.729 67.1468C253.9 66.2021 253.848 65.4824 253.507 65.0439L253.271 65.2281ZM253.433 67.094L246.329 107.414L246.625 107.466L253.729 67.146L253.433 67.094ZM246.329 107.413C246.161 108.339 245.871 108.961 245.481 109.313L245.681 109.535C246.144 109.119 246.452 108.418 246.625 107.467L246.329 107.413ZM245.481 109.313C245.095 109.659 244.437 109.85 243.469 109.85V110.15C244.463 110.15 245.213 109.957 245.681 109.535L245.481 109.313ZM243.469 109.85H235.917V110.15H243.469V109.85ZM235.917 109.85C234.985 109.85 234.399 109.678 234.103 109.382L233.891 109.594C234.277 109.98 234.972 110.15 235.917 110.15V109.85ZM234.115 109.396C233.989 109.234 233.905 108.998 233.874 108.674C233.844 108.35 233.869 107.949 233.953 107.466L233.657 107.414C233.571 107.913 233.542 108.343 233.576 108.702C233.609 109.061 233.706 109.358 233.879 109.58L234.115 109.396ZM233.953 107.466L241.057 67.146L240.761 67.094L233.657 107.414L233.953 107.466ZM293.76 65.2L293.643 65.2938L293.648 65.2997L293.76 65.2ZM293.952 67.248L293.806 67.2161L293.805 67.2217L293.952 67.248ZM292.929 73.008L292.781 72.9817L292.781 72.9833L292.929 73.008ZM291.969 75.184L292.064 75.3002L292.069 75.295L291.969 75.184ZM280.257 75.76V75.61H280.131L280.109 75.7339L280.257 75.76ZM274.688 107.312L274.835 107.344L274.836 107.338L274.688 107.312ZM273.665 109.424L273.765 109.535L273.765 109.535L273.665 109.424ZM262.209 109.424L262.091 109.518L262.096 109.524L262.209 109.424ZM262.017 107.312L262.163 107.344L262.164 107.338L262.017 107.312ZM267.585 75.76L267.732 75.7861L267.763 75.61H267.585V75.76ZM256.001 75.184L255.878 75.27L255.883 75.2771L255.888 75.2837L256.001 75.184ZM255.809 73.008L255.661 72.9817L255.661 72.9833L255.809 73.008ZM256.833 67.248L256.686 67.2161L256.685 67.2217L256.833 67.248ZM257.793 65.2L257.893 65.3115L257.893 65.311L257.793 65.2ZM291.713 64.71C292.728 64.71 293.348 64.9239 293.643 65.2937L293.878 65.1063C293.491 64.6228 292.745 64.41 291.713 64.41V64.71ZM293.648 65.2997C293.938 65.625 294.018 66.2404 293.806 67.2161L294.099 67.2799C294.314 66.2929 294.266 65.543 293.873 65.1003L293.648 65.2997ZM293.805 67.2217L292.781 72.9817L293.076 73.0343L294.1 67.2743L293.805 67.2217ZM292.781 72.9833C292.612 73.9936 292.3 74.6795 291.868 75.073L292.069 75.295C292.575 74.8352 292.904 74.0704 293.076 73.0327L292.781 72.9833ZM291.874 75.0679C291.444 75.4193 290.74 75.61 289.729 75.61V75.91C290.765 75.91 291.554 75.7167 292.063 75.3001L291.874 75.0679ZM289.729 75.61H280.257V75.91H289.729V75.61ZM280.109 75.7339L274.541 107.286L274.836 107.338L280.404 75.7861L280.109 75.7339ZM274.542 107.28C274.332 108.247 274 108.916 273.564 109.313L273.765 109.535C274.268 109.078 274.619 108.339 274.835 107.344L274.542 107.28ZM273.564 109.313C273.18 109.658 272.502 109.85 271.489 109.85V110.15C272.523 110.15 273.296 109.958 273.765 109.535L273.564 109.313ZM271.489 109.85H264.257V110.15H271.489V109.85ZM264.257 109.85C263.238 109.85 262.616 109.656 262.321 109.324L262.096 109.524C262.484 109.96 263.227 110.15 264.257 110.15V109.85ZM262.326 109.33C262.029 108.959 261.952 108.316 262.163 107.344L261.87 107.28C261.655 108.271 261.705 109.035 262.091 109.518L262.326 109.33ZM262.164 107.338L267.732 75.7861L267.437 75.7339L261.869 107.286L262.164 107.338ZM267.585 75.61H258.049V75.91H267.585V75.61ZM258.049 75.61C257.03 75.61 256.408 75.4162 256.113 75.0843L255.888 75.2837C256.276 75.7198 257.019 75.91 258.049 75.91V75.61ZM256.123 75.098C255.861 74.7234 255.787 74.0513 255.956 73.0327L255.661 72.9833C255.489 74.0127 255.543 74.7913 255.878 75.27L256.123 75.098ZM255.956 73.0343L256.98 67.2743L256.685 67.2217L255.661 72.9817L255.956 73.0343ZM256.979 67.2799C257.19 66.3088 257.501 65.6638 257.893 65.3115L257.692 65.0885C257.23 65.5042 256.901 66.2245 256.686 67.2161L256.979 67.2799ZM257.893 65.311C258.322 64.9209 259.024 64.71 260.033 64.71V64.41C258.993 64.41 258.201 64.6257 257.692 65.089L257.893 65.311ZM260.033 64.71H291.713V64.41H260.033V64.71Z" fill="url(#paint8_linear_181_5916)"/>
<defs>
<filter id="filter0_d_181_5916" x="0.904297" y="1.59961" width="254.377" height="175.361" filterUnits="userSpaceOnUse" color-interpolation-filters="sRGB">
<feFlood flood-opacity="0" result="BackgroundImageFix"/>
<feColorMatrix in="SourceAlpha" type="matrix" values="0 0 0 0 0 0 0 0 0 0 0 0 0 0 0 0 0 0 127 0" result="hardAlpha"/>
<feOffset/>
<feGaussianBlur stdDeviation="32"/>
<feComposite in2="hardAlpha" operator="out"/>
<feColorMatrix type="matrix" values="0 0 0 0 0 0 0 0 0 0 0 0 0 0 0 0 0 0 0.5 0"/>
<feBlend mode="normal" in2="BackgroundImageFix" result="effect1_dropShadow_181_5916"/>
<feBlend mode="normal" in="SourceGraphic" in2="effect1_dropShadow_181_5916" result="shape"/>
</filter>
<linearGradient id="paint0_linear_181_5916" x1="117.289" y1="119.6" x2="117.289" y2="58" gradientUnits="userSpaceOnUse">
<stop stop-color="#6B4000"/>
<stop offset="0.129454" stop-color="#6A3B20"/>
<stop offset="0.250751" stop-color="#E5A23E"/>
<stop offset="0.368769" stop-color="#B16B18"/>
<stop offset="0.693411" stop-color="#B15918"/>
<stop offset="1" stop-color="#AD641C"/>
</linearGradient>
<linearGradient id="paint1_linear_181_5916" x1="178.572" y1="68.8" x2="75.716" y2="75.5768" gradientUnits="userSpaceOnUse">
<stop stop-color="#E6C365" stop-opacity="0"/>
<stop offset="1" stop-color="#E6C365" stop-opacity="0.3"/>
</linearGradient>
<linearGradient id="paint2_linear_181_5916" x1="118.535" y1="126" x2="106.852" y2="57.6683" gradientUnits="userSpaceOnUse">
<stop stop-color="#EBC367"/>
<stop offset="0.206588" stop-color="#FDB242"/>
<stop offset="0.486587" stop-color="#C47E16"/>
<stop offset="0.589636" stop-color="#D1891E"/>
<stop offset="0.694186" stop-color="#E1A03F"/>
<stop offset="0.697522" stop-color="#FFDDA9"/>
<stop offset="0.911458" stop-color="#F1BD57"/>
</linearGradient>
<linearGradient id="paint3_linear_181_5916" x1="177.572" y1="66.8" x2="74.716" y2="73.5768" gradientUnits="userSpaceOnUse">
<stop stop-color="#E6C365" stop-opacity="0"/>
<stop offset="1" stop-color="#E6C365" stop-opacity="0.3"/>
</linearGradient>
<linearGradient id="paint4_linear_181_5916" x1="128" y1="56" x2="128" y2="120" gradientUnits="userSpaceOnUse">
<stop stop-color="#FFE7AA" stop-opacity="0"/>
<stop offset="0.329952" stop-color="#FFE7AA"/>
<stop offset="0.465285" stop-color="#FFE7AA" stop-opacity="0"/>
<stop offset="0.623174" stop-color="#FFE7AA"/>
<stop offset="0.817708" stop-color="#FFE7AA" stop-opacity="0"/>
<stop offset="1" stop-color="white"/>
</linearGradient>
<linearGradient id="paint5_linear_181_5916" x1="147.855" y1="61.3333" x2="12.5528" y2="-45.3221" gradientUnits="userSpaceOnUse">
<stop stop-color="#D1D1D1"/>
<stop offset="1" stop-color="#D1D1D1" stop-opacity="0.47"/>
</linearGradient>
<linearGradient id="paint6_linear_181_5916" x1="88" y1="0" x2="88" y2="64" gradientUnits="userSpaceOnUse">
<stop offset="0.206492" stop-color="white"/>
<stop offset="0.478015" stop-color="#FFE7AA" stop-opacity="0"/>
<stop offset="0.689643" stop-color="#FFE7AA"/>
<stop offset="1" stop-color="#FFE7AA" stop-opacity="0"/>
</linearGradient>
<linearGradient id="paint7_linear_181_5916" x1="192" y1="117.333" x2="334.52" y2="135.262" gradientUnits="userSpaceOnUse">
<stop stop-color="#D1D1D1"/>
<stop offset="1" stop-color="#D1D1D1" stop-opacity="0.47"/>
</linearGradient>
<linearGradient id="paint8_linear_181_5916" x1="244" y1="56" x2="244" y2="120" gradientUnits="userSpaceOnUse">
<stop offset="0.206492" stop-color="white"/>
<stop offset="0.478015" stop-color="#FFE7AA" stop-opacity="0"/>
<stop offset="0.689643" stop-color="#FFE7AA"/>
<stop offset="1" stop-color="#FFE7AA" stop-opacity="0"/>
</linearGradient>
</defs>
</svg>
