<svg width="350" height="140" viewBox="0 0 350 140" fill="none" xmlns="http://www.w3.org/2000/svg">
<path d="M105.36 6.2C106.533 6.2 107.227 6.46666 107.44 7C107.653 7.53333 107.493 8.36 106.96 9.48L85.84 60.2C85.36 61.32 84.7733 62.0667 84.08 62.44C83.3867 62.8133 82.4267 63 81.2 63H71.28C70.1067 63 69.2 62.8133 68.56 62.44C67.9733 62.0667 67.6533 61.3733 67.6 60.36L66.64 41.72C66.48 36.92 66.8267 32.12 67.68 27.32H66.96C65.8933 32.28 64.48 37.08 62.72 41.72L55.2 60.2C54.72 61.32 54.1067 62.0667 53.36 62.44C52.6667 62.8133 51.7067 63 50.48 63H40.88C38.5333 63 37.3067 62.12 37.2 60.36L34 9.48C33.8933 8.30666 34.0267 7.48 34.4 7C34.7733 6.46666 35.5467 6.2 36.72 6.2H46.4C47.8933 6.2 48.9333 6.38666 49.52 6.76C50.1067 7.13333 50.4267 7.93333 50.48 9.16L50.4 30.12C50.2933 34.6533 49.8133 39.3733 48.96 44.28H49.52C50.5867 38.9467 51.92 34.2267 53.52 30.12L62.16 9.16C62.64 7.93333 63.2533 7.13333 64 6.76C64.7467 6.38666 65.7867 6.2 67.12 6.2H75.68C77.0667 6.2 78.0533 6.41333 78.64 6.84C79.28 7.21333 79.6267 7.98666 79.68 9.16L80.8 30.12C81.0133 33.7467 80.72 38.4667 79.92 44.28H80.56C81.2533 40.3333 82.4533 35.6133 84.16 30.12L91.28 9.16C91.7067 7.98666 92.2667 7.21333 92.96 6.84C93.7067 6.41333 94.8267 6.2 96.32 6.2H105.36ZM155.646 6.12C156.872 6.12 157.672 6.38666 158.046 6.92C158.472 7.4 158.579 8.28 158.366 9.56L149.566 59.64C149.299 60.8667 148.872 61.7467 148.286 62.28C147.752 62.76 146.846 63 145.566 63H136.526C135.246 63 134.392 62.76 133.966 62.28C133.539 61.7467 133.459 60.8667 133.726 59.64L136.926 41.24H121.486L118.206 59.64C117.992 60.8667 117.592 61.7467 117.006 62.28C116.419 62.76 115.486 63 114.206 63H105.166C103.886 63 103.032 62.76 102.606 62.28C102.232 61.7467 102.152 60.8667 102.366 59.64L111.246 9.56C111.512 8.28 111.912 7.4 112.446 6.92C113.032 6.38666 113.966 6.12 115.246 6.12H124.286C125.566 6.12 126.392 6.38666 126.766 6.92C127.192 7.4 127.299 8.28 127.086 9.56L123.966 27.24H139.406L142.526 9.56C142.739 8.28 143.139 7.4 143.726 6.92C144.366 6.38666 145.299 6.12 146.526 6.12H155.646ZM213.916 6.2C214.716 6.2 215.276 6.36 215.596 6.68C215.97 7 216.076 7.4 215.916 7.88C215.81 8.36 215.516 8.92 215.036 9.56L191.036 41L187.836 59.64C187.57 60.8667 187.143 61.7467 186.556 62.28C185.97 62.76 185.063 63 183.836 63H174.716C173.49 63 172.663 62.76 172.236 62.28C171.863 61.7467 171.783 60.8667 171.996 59.64L175.196 41L162.396 9.56C161.97 8.65333 161.943 7.88 162.316 7.24C162.69 6.54666 163.463 6.2 164.636 6.2H173.916C176.05 6.2 177.49 6.36 178.236 6.68C178.983 7 179.596 7.82666 180.076 9.16L185.756 25.48L197.516 9.16C198.423 7.82666 199.303 7 200.156 6.68C201.01 6.36 202.476 6.2 204.556 6.2H213.916Z" fill="url(#paint0_linear_181_2131)"/>
<path d="M106.96 9.48L106.824 9.41543L106.822 9.42234L106.96 9.48ZM85.84 60.2L85.9779 60.2591L85.9785 60.2577L85.84 60.2ZM68.56 62.44L68.4794 62.5666L68.4844 62.5696L68.56 62.44ZM67.6 60.36L67.4502 60.3677L67.4502 60.3679L67.6 60.36ZM66.64 41.72L66.4901 41.725L66.4902 41.7277L66.64 41.72ZM67.68 27.32L67.8277 27.3463L67.859 27.17H67.68V27.32ZM66.96 27.32V27.17H66.8388L66.8134 27.2885L66.96 27.32ZM62.72 41.72L62.859 41.7766L62.8603 41.7732L62.72 41.72ZM55.2 60.2L55.3379 60.2591L55.3389 60.2565L55.2 60.2ZM53.36 62.44L53.2929 62.3058L53.2889 62.3079L53.36 62.44ZM37.2 60.36L37.3497 60.3509L37.3497 60.3506L37.2 60.36ZM34 9.48L34.1498 9.47058L34.1494 9.46642L34 9.48ZM34.4 7L34.5186 7.0922L34.5229 7.08602L34.4 7ZM49.52 6.76L49.4395 6.88655L49.52 6.76ZM50.48 9.16L50.6302 9.16057L50.6299 9.15348L50.48 9.16ZM50.4 30.12L50.55 30.1235L50.55 30.1206L50.4 30.12ZM48.96 44.28L48.8122 44.2543L48.7817 44.43H48.96V44.28ZM49.52 44.28V44.43H49.643L49.6671 44.3094L49.52 44.28ZM53.52 30.12L53.3813 30.0628L53.3802 30.0655L53.52 30.12ZM62.16 9.16L62.2987 9.21717L62.2997 9.21466L62.16 9.16ZM64 6.76L64.0671 6.89416L64.0671 6.89416L64 6.76ZM78.64 6.84L78.5518 6.96131L78.5579 6.96576L78.5644 6.96957L78.64 6.84ZM79.68 9.16L79.5302 9.16681L79.5302 9.168L79.68 9.16ZM80.8 30.12L80.6502 30.128L80.6503 30.1288L80.8 30.12ZM79.92 44.28L79.7714 44.2595L79.7479 44.43H79.92V44.28ZM80.56 44.28V44.43H80.6859L80.7077 44.306L80.56 44.28ZM84.16 30.12L84.0179 30.0717L84.0168 30.0755L84.16 30.12ZM91.28 9.16L91.139 9.10872L91.138 9.11175L91.28 9.16ZM92.96 6.84L93.0311 6.97211L93.0344 6.97023L92.96 6.84ZM105.36 6.35C105.938 6.35 106.384 6.41598 106.706 6.54C107.026 6.66299 107.214 6.83837 107.301 7.05571L107.579 6.94429C107.453 6.62829 107.187 6.40367 106.814 6.25999C106.443 6.11735 105.956 6.05 105.36 6.05V6.35ZM107.301 7.05571C107.393 7.28593 107.41 7.594 107.333 7.99149C107.256 8.38802 107.088 8.8621 106.825 9.41551L107.095 9.54449C107.365 8.9779 107.544 8.47864 107.627 8.0485C107.71 7.61933 107.701 7.24739 107.579 6.94429L107.301 7.05571ZM106.822 9.42234L85.7015 60.1423L85.9785 60.2577L107.098 9.53766L106.822 9.42234ZM85.7021 60.1409C85.2286 61.2459 84.6599 61.9574 84.0089 62.3079L84.1511 62.5721C84.8868 62.1759 85.4914 61.3941 85.9779 60.2591L85.7021 60.1409ZM84.0089 62.3079C83.3463 62.6647 82.4144 62.85 81.2 62.85V63.15C82.4389 63.15 83.427 62.962 84.1511 62.5721L84.0089 62.3079ZM81.2 62.85H71.28V63.15H81.2V62.85ZM71.28 62.85C70.1192 62.85 69.243 62.6647 68.6356 62.3104L68.4844 62.5696C69.157 62.9619 70.0942 63.15 71.28 63.15V62.85ZM68.6405 62.3134C68.1113 61.9766 67.8018 61.3405 67.7498 60.3521L67.4502 60.3679C67.5049 61.4061 67.8354 62.1567 68.4795 62.5665L68.6405 62.3134ZM67.7498 60.3523L66.7898 41.7123L66.4902 41.7277L67.4502 60.3677L67.7498 60.3523ZM66.7899 41.715C66.6303 36.9256 66.9762 32.1361 67.8277 27.3463L67.5323 27.2937C66.6772 32.1039 66.3297 36.9144 66.4901 41.725L66.7899 41.715ZM67.68 27.17H66.96V27.47H67.68V27.17ZM66.8134 27.2885C65.7482 32.2413 64.337 37.034 62.5798 41.6668L62.8603 41.7732C64.623 37.126 66.0384 32.3187 67.1066 27.3515L66.8134 27.2885ZM62.5811 41.6635L55.0611 60.1435L55.3389 60.2565L62.8589 41.7765L62.5811 41.6635ZM55.0621 60.1409C54.5898 61.2429 53.9961 61.9543 53.2929 62.3058L53.4271 62.5742C54.2173 62.1791 54.8502 61.3971 55.3379 60.2591L55.0621 60.1409ZM53.2889 62.3079C52.6263 62.6647 51.6944 62.85 50.48 62.85V63.15C51.7189 63.15 52.707 62.962 53.4311 62.5721L53.2889 62.3079ZM50.48 62.85H40.88V63.15H50.48V62.85ZM40.88 62.85C39.7218 62.85 38.8647 62.6322 38.2874 62.2181C37.7172 61.809 37.4008 61.1943 37.3497 60.3509L37.0503 60.3691C37.1058 61.2857 37.4562 61.991 38.1126 62.4619C38.762 62.9278 39.6915 63.15 40.88 63.15V62.85ZM37.3497 60.3506L34.1497 9.47058L33.8503 9.48941L37.0503 60.3694L37.3497 60.3506ZM34.1494 9.46642C34.0433 8.29995 34.1823 7.52423 34.5184 7.09209L34.2816 6.90791C33.871 7.43576 33.7433 8.31337 33.8506 9.49358L34.1494 9.46642ZM34.5229 7.08602C34.8518 6.61614 35.5576 6.35 36.72 6.35V6.05C35.5357 6.05 34.6949 6.31719 34.2771 6.91398L34.5229 7.08602ZM36.72 6.35H46.4V6.05H36.72V6.35ZM46.4 6.35C47.8908 6.35 48.8921 6.53819 49.4395 6.88655L49.6005 6.63345C48.9746 6.23514 47.8959 6.05 46.4 6.05V6.35ZM49.4395 6.88655C49.9614 7.21868 50.2773 7.95218 50.3301 9.16651L50.6299 9.15348C50.576 7.91448 50.2519 7.04798 49.6005 6.63345L49.4395 6.88655ZM50.33 9.15942L50.25 30.1194L50.55 30.1206L50.63 9.16057L50.33 9.15942ZM50.25 30.1165C50.1436 34.6417 49.6644 39.3543 48.8122 44.2543L49.1078 44.3057C49.9623 39.3924 50.4431 34.665 50.55 30.1235L50.25 30.1165ZM48.96 44.43H49.52V44.13H48.96V44.43ZM49.6671 44.3094C50.7324 38.9827 52.0636 34.2714 53.6598 30.1745L53.3802 30.0655C51.7764 34.1819 50.4409 38.9106 49.3729 44.2506L49.6671 44.3094ZM53.6587 30.1772L62.2987 9.21716L62.0213 9.10283L53.3813 30.0628L53.6587 30.1772ZM62.2997 9.21466C62.7736 8.00351 63.3682 7.24358 64.0671 6.89416L63.9329 6.62583C63.1384 7.02308 62.5064 7.86315 62.0203 9.10534L62.2997 9.21466ZM64.0671 6.89416C64.7841 6.53565 65.7975 6.35 67.12 6.35V6.05C65.7758 6.05 64.7092 6.23768 63.9329 6.62584L64.0671 6.89416ZM67.12 6.35H75.68V6.05H67.12V6.35ZM75.68 6.35C77.0596 6.35 78.0053 6.56386 78.5518 6.96131L78.7282 6.71869C78.1014 6.2628 77.0737 6.05 75.68 6.05V6.35ZM78.5644 6.96957C79.1391 7.30478 79.4777 8.01337 79.5302 9.16681L79.8298 9.15319C79.7756 7.95995 79.4209 7.12188 78.7156 6.71043L78.5644 6.96957ZM79.5302 9.168L80.6502 30.128L80.9498 30.112L79.8298 9.15199L79.5302 9.168ZM80.6503 30.1288C80.8628 33.7416 80.5708 38.4508 79.7714 44.2595L80.0686 44.3004C80.8692 38.4826 81.1639 33.7517 80.9497 30.1112L80.6503 30.1288ZM79.92 44.43H80.56V44.13H79.92V44.43ZM80.7077 44.306C81.3996 40.3676 82.5977 35.6541 84.3032 30.1645L84.0168 30.0755C82.3089 35.5725 81.1071 40.2991 80.4123 44.254L80.7077 44.306ZM84.302 30.1682L91.422 9.20824L91.138 9.11175L84.018 30.0718L84.302 30.1682ZM91.421 9.21126C91.8421 8.05328 92.3846 7.32021 93.0311 6.97207L92.8889 6.70793C92.1488 7.10645 91.5713 7.92005 91.139 9.10874L91.421 9.21126ZM93.0344 6.97023C93.7473 6.56285 94.836 6.35 96.32 6.35V6.05C94.8173 6.05 93.666 6.26381 92.8856 6.70976L93.0344 6.97023ZM96.32 6.35H105.36V6.05H96.32V6.35ZM158.046 6.92L157.923 7.00602L157.928 7.01315L157.934 7.01965L158.046 6.92ZM158.366 9.56L158.513 9.58596L158.514 9.58466L158.366 9.56ZM149.566 59.64L149.712 59.6719L149.713 59.666L149.566 59.64ZM148.286 62.28L148.386 62.3915L148.387 62.391L148.286 62.28ZM133.966 62.28L133.848 62.3738L133.854 62.3797L133.966 62.28ZM133.726 59.64L133.872 59.6719L133.873 59.6657L133.726 59.64ZM136.926 41.24L137.073 41.2657L137.104 41.09H136.926V41.24ZM121.486 41.24V41.09H121.36L121.338 41.2137L121.486 41.24ZM118.206 59.64L118.058 59.6137L118.058 59.6143L118.206 59.64ZM117.006 62.28L117.101 62.3963L117.107 62.391L117.006 62.28ZM102.606 62.28L102.483 62.366L102.488 62.3731L102.494 62.3797L102.606 62.28ZM102.366 59.64L102.218 59.6138L102.218 59.6143L102.366 59.64ZM111.246 9.56L111.099 9.52939L111.098 9.53381L111.246 9.56ZM112.446 6.92L112.546 7.03149L112.547 7.03099L112.446 6.92ZM126.766 6.92L126.643 7.00602L126.648 7.01315L126.654 7.01965L126.766 6.92ZM127.086 9.56L127.233 9.58607L127.234 9.58466L127.086 9.56ZM123.966 27.24L123.818 27.2139L123.787 27.39H123.966V27.24ZM139.406 27.24V27.39H139.531L139.553 27.2661L139.406 27.24ZM142.526 9.56L142.673 9.58607L142.674 9.58466L142.526 9.56ZM143.726 6.92L143.821 7.0361L143.822 7.03523L143.726 6.92ZM155.646 6.27C156.864 6.27 157.595 6.53746 157.923 7.00602L158.169 6.83398C157.75 6.23586 156.88 5.97 155.646 5.97V6.27ZM157.934 7.01965C158.12 7.22964 158.246 7.53715 158.297 7.95805C158.348 8.37892 158.323 8.90355 158.218 9.53534L158.514 9.58466C158.622 8.93644 158.65 8.38108 158.595 7.92195C158.539 7.46284 158.398 7.09035 158.158 6.82034L157.934 7.01965ZM158.218 9.53404L149.418 59.614L149.713 59.666L158.513 9.58596L158.218 9.53404ZM149.419 59.6081C149.155 60.8208 148.738 61.6657 148.185 62.169L148.387 62.391C149.006 61.8276 149.442 60.9126 149.712 59.6719L149.419 59.6081ZM148.185 62.1685C147.694 62.6105 146.835 62.85 145.566 62.85V63.15C146.856 63.15 147.81 62.9095 148.386 62.3915L148.185 62.1685ZM145.566 62.85H136.526V63.15H145.566V62.85ZM136.526 62.85C135.251 62.85 134.458 62.6082 134.078 62.1803L133.854 62.3797C134.327 62.9118 135.24 63.15 136.526 63.15V62.85ZM134.083 62.1863C133.701 61.7088 133.608 60.8889 133.872 59.6719L133.579 59.6081C133.31 60.8444 133.377 61.7845 133.848 62.3737L134.083 62.1863ZM133.873 59.6657L137.073 41.2657L136.778 41.2143L133.578 59.6143L133.873 59.6657ZM136.926 41.09H121.486V41.39H136.926V41.09ZM121.338 41.2137L118.058 59.6137L118.353 59.6663L121.633 41.2663L121.338 41.2137ZM118.058 59.6143C117.847 60.8257 117.456 61.6677 116.905 62.169L117.107 62.391C117.728 61.8256 118.137 60.9077 118.353 59.6657L118.058 59.6143ZM116.911 62.1639C116.364 62.6113 115.473 62.85 114.206 62.85V63.15C115.498 63.15 116.474 62.9087 117.101 62.3961L116.911 62.1639ZM114.206 62.85H105.166V63.15H114.206V62.85ZM105.166 62.85C103.891 62.85 103.098 62.6082 102.718 62.1803L102.494 62.3797C102.967 62.9118 103.88 63.15 105.166 63.15V62.85ZM102.729 62.194C102.391 61.7123 102.301 60.8849 102.513 59.6657L102.218 59.6143C102.003 60.8484 102.073 61.781 102.483 62.366L102.729 62.194ZM102.513 59.6662L111.393 9.58619L111.098 9.53381L102.218 59.6138L102.513 59.6662ZM111.392 9.59059C111.657 8.31942 112.049 7.47873 112.546 7.03149L112.345 6.8085C111.776 7.32126 111.367 8.24057 111.099 9.5294L111.392 9.59059ZM112.547 7.03099C113.093 6.53428 113.981 6.27 115.246 6.27V5.97C113.95 5.97 112.972 6.23905 112.345 6.80901L112.547 7.03099ZM115.246 6.27H124.286V5.97H115.246V6.27ZM124.286 6.27C125.56 6.27 126.316 6.53867 126.643 7.00602L126.889 6.83398C126.469 6.23465 125.571 5.97 124.286 5.97V6.27ZM126.654 7.01965C126.84 7.22964 126.966 7.53715 127.017 7.95805C127.068 8.37892 127.043 8.90355 126.938 9.53534L127.234 9.58466C127.342 8.93644 127.37 8.38108 127.315 7.92195C127.259 7.46284 127.118 7.09035 126.878 6.82034L126.654 7.01965ZM126.938 9.53393L123.818 27.2139L124.113 27.2661L127.233 9.58606L126.938 9.53393ZM123.966 27.39H139.406V27.09H123.966V27.39ZM139.553 27.2661L142.673 9.58606L142.378 9.53393L139.258 27.2139L139.553 27.2661ZM142.674 9.58466C142.885 8.31711 143.276 7.48148 143.821 7.03609L143.631 6.8039C143.002 7.31851 142.593 8.24288 142.378 9.53534L142.674 9.58466ZM143.822 7.03523C144.424 6.53286 145.318 6.27 146.526 6.27V5.97C145.28 5.97 144.307 6.24047 143.63 6.80476L143.822 7.03523ZM146.526 6.27H155.646V5.97H146.526V6.27ZM215.596 6.68L215.49 6.78638L215.499 6.79388L215.596 6.68ZM215.916 7.88L215.774 7.83256L215.771 7.83991L215.77 7.84746L215.916 7.88ZM215.036 9.56L215.155 9.65102L215.156 9.65L215.036 9.56ZM191.036 41L190.917 40.909L190.895 40.9383L190.888 40.9746L191.036 41ZM187.836 59.64L187.983 59.6719L187.984 59.6654L187.836 59.64ZM186.556 62.28L186.651 62.3963L186.657 62.391L186.556 62.28ZM172.236 62.28L172.113 62.366L172.118 62.3731L172.124 62.3797L172.236 62.28ZM171.996 59.64L172.144 59.6657L172.144 59.6654L171.996 59.64ZM175.196 41L175.344 41.0254L175.351 40.9831L175.335 40.9434L175.196 41ZM162.396 9.56L162.535 9.50336L162.532 9.49613L162.396 9.56ZM162.316 7.24L162.446 7.31562L162.448 7.31111L162.316 7.24ZM178.236 6.68L178.295 6.54212L178.236 6.68ZM180.076 9.16L180.218 9.11069L180.217 9.10919L180.076 9.16ZM185.756 25.48L185.615 25.5293L185.709 25.8016L185.878 25.5677L185.756 25.48ZM197.516 9.16L197.638 9.24772L197.64 9.24434L197.516 9.16ZM200.156 6.68L200.104 6.53955V6.53955L200.156 6.68ZM213.916 6.35C214.705 6.35 215.213 6.50925 215.49 6.78606L215.702 6.57393C215.339 6.21074 214.728 6.05 213.916 6.05V6.35ZM215.499 6.79388C215.667 6.93794 215.767 7.09308 215.811 7.25865C215.856 7.42457 215.847 7.61416 215.774 7.83256L216.059 7.92743C216.146 7.66584 216.164 7.41543 216.101 7.18135C216.039 6.94691 215.899 6.74205 215.694 6.56611L215.499 6.79388ZM215.77 7.84746C215.67 8.2976 215.391 8.83764 214.916 9.47L215.156 9.65C215.642 9.00236 215.949 8.4224 216.063 7.91254L215.77 7.84746ZM214.917 9.46898L190.917 40.909L191.155 41.091L215.155 9.65101L214.917 9.46898ZM190.888 40.9746L187.688 59.6146L187.984 59.6654L191.184 41.0254L190.888 40.9746ZM187.69 59.6081C187.426 60.8208 187.009 61.6657 186.455 62.169L186.657 62.391C187.277 61.8276 187.713 60.9126 187.983 59.6719L187.69 59.6081ZM186.461 62.1639C185.914 62.612 185.048 62.85 183.836 62.85V63.15C185.078 63.15 186.026 62.908 186.651 62.3961L186.461 62.1639ZM183.836 62.85H174.716V63.15H183.836V62.85ZM174.716 62.85C173.497 62.85 172.729 62.6091 172.348 62.1803L172.124 62.3797C172.596 62.9109 173.482 63.15 174.716 63.15V62.85ZM172.359 62.194C172.022 61.7123 171.932 60.8849 172.144 59.6657L171.848 59.6143C171.634 60.8484 171.704 61.781 172.113 62.366L172.359 62.194ZM172.144 59.6654L175.344 41.0254L175.048 40.9746L171.848 59.6146L172.144 59.6654ZM175.335 40.9434L162.535 9.50344L162.257 9.61656L175.057 41.0566L175.335 40.9434ZM162.532 9.49613C162.118 8.61687 162.106 7.89876 162.446 7.31558L162.187 7.16442C161.78 7.86123 161.821 8.68978 162.261 9.62387L162.532 9.49613ZM162.448 7.31111C162.784 6.68796 163.488 6.35 164.636 6.35V6.05C163.438 6.05 162.595 6.40536 162.184 7.16888L162.448 7.31111ZM164.636 6.35H173.916V6.05H164.636V6.35ZM173.916 6.35C174.98 6.35 175.867 6.3899 176.58 6.46908C177.295 6.54851 177.824 6.66653 178.177 6.81787L178.295 6.54212C177.902 6.37347 177.338 6.25148 176.613 6.17091C175.885 6.09009 174.986 6.05 173.916 6.05V6.35ZM178.177 6.81787C178.865 7.11278 179.459 7.88933 179.935 9.2108L180.217 9.10919C179.733 7.764 179.101 6.88722 178.295 6.54212L178.177 6.81787ZM179.935 9.2093L185.615 25.5293L185.898 25.4307L180.218 9.11069L179.935 9.2093ZM185.878 25.5677L197.638 9.24769L197.395 9.0723L185.635 25.3923L185.878 25.5677ZM197.64 9.24434C198.541 7.91928 199.399 7.12399 200.209 6.82044L200.104 6.53955C199.206 6.876 198.304 7.73405 197.392 9.07565L197.64 9.24434ZM200.209 6.82045C201.035 6.51082 202.477 6.35 204.556 6.35V6.05C202.475 6.05 200.985 6.20917 200.104 6.53955L200.209 6.82045ZM204.556 6.35H213.916V6.05H204.556V6.35Z" fill="url(#paint1_linear_181_2131)"/>
<path d="M118.04 127.72C118.467 129.907 117.48 131 115.08 131H106.76C104.787 131 103.427 130.76 102.68 130.28C101.933 129.8 101.507 128.92 101.4 127.64L100.6 121.88H83.24L80.44 127.64C79.8 128.92 79.0533 129.8 78.2 130.28C77.3467 130.76 75.96 131 74.04 131H65.24C63 131 62.4933 129.907 63.72 127.72L91.08 77C91.6667 75.88 92.28 75.1333 92.92 74.76C93.56 74.3867 94.4933 74.2 95.72 74.2H104.76C105.933 74.2 106.787 74.3867 107.32 74.76C107.907 75.1333 108.307 75.8267 108.52 76.84L118.04 127.72ZM97.88 99.96C97.72 98.0933 97.64 96.3333 97.64 94.68C97.6933 92.9733 97.7733 91.56 97.88 90.44L98.12 88.76H97.4C96.7067 92.6 95.5067 96.3067 93.8 99.88L89.24 109.32H99.16L97.88 99.96ZM123.894 94.28C125.068 87.4 128.081 82.1467 132.934 78.52C137.841 74.84 144.241 73 152.134 73C163.654 73 170.294 77.7467 172.054 87.24C172.321 88.4133 172.241 89.3467 171.814 90.04C171.441 90.68 170.614 91.1867 169.334 91.56L161.094 94.36C159.814 94.7333 158.881 94.7867 158.294 94.52C157.761 94.2 157.361 93.4267 157.094 92.2C156.721 90.3867 155.974 89.08 154.854 88.28C153.734 87.4267 152.054 87 149.814 87C146.721 87 144.348 87.6933 142.694 89.08C141.094 90.4133 140.054 92.4933 139.574 95.32L136.934 109.88C136.454 112.707 136.774 114.813 137.894 116.2C139.068 117.533 141.201 118.2 144.294 118.2C148.508 118.2 151.574 116.467 153.494 113C154.241 111.72 154.934 110.947 155.574 110.68C156.214 110.36 157.094 110.413 158.214 110.84L166.534 114.04C168.614 114.787 169.068 116.227 167.894 118.36C162.881 127.587 154.268 132.2 142.054 132.2C134.321 132.2 128.614 130.093 124.934 125.88C121.308 121.667 120.081 116.067 121.254 109.08L123.894 94.28ZM216.651 74.2C217.931 74.2 218.785 74.4667 219.211 75C219.638 75.48 219.745 76.3333 219.531 77.56L218.251 84.76C218.038 86.04 217.611 86.9467 216.971 87.48C216.385 87.96 215.478 88.2 214.251 88.2H193.131L191.851 95.32H208.731C210.011 95.32 210.838 95.5867 211.211 96.12C211.638 96.6 211.745 97.4533 211.531 98.68L210.251 105.88C209.985 107.16 209.558 108.067 208.971 108.6C208.438 109.08 207.531 109.32 206.251 109.32H189.371L188.011 117H209.851C211.078 117 211.878 117.24 212.251 117.72C212.678 118.2 212.785 119.08 212.571 120.36L211.291 127.64C211.078 128.867 210.678 129.747 210.091 130.28C209.505 130.76 208.571 131 207.291 131H173.131C171.851 131 170.998 130.76 170.571 130.28C170.145 129.747 170.065 128.867 170.331 127.64L179.131 77.56C179.398 76.3333 179.798 75.48 180.331 75C180.918 74.4667 181.851 74.2 183.131 74.2H216.651Z" fill="url(#paint2_linear_181_2131)"/>
<path d="M118.04 127.72C118.467 129.907 117.48 131 115.08 131H106.76C104.787 131 103.427 130.76 102.68 130.28C101.933 129.8 101.507 128.92 101.4 127.64L100.6 121.88H83.24L80.44 127.64C79.8 128.92 79.0533 129.8 78.2 130.28C77.3467 130.76 75.96 131 74.04 131H65.24C63 131 62.4933 129.907 63.72 127.72L91.08 77C91.6667 75.88 92.28 75.1333 92.92 74.76C93.56 74.3867 94.4933 74.2 95.72 74.2H104.76C105.933 74.2 106.787 74.3867 107.32 74.76C107.907 75.1333 108.307 75.8267 108.52 76.84L118.04 127.72ZM97.88 99.96C97.72 98.0933 97.64 96.3333 97.64 94.68C97.6933 92.9733 97.7733 91.56 97.88 90.44L98.12 88.76H97.4C96.7067 92.6 95.5067 96.3067 93.8 99.88L89.24 109.32H99.16L97.88 99.96ZM123.894 94.28C125.068 87.4 128.081 82.1467 132.934 78.52C137.841 74.84 144.241 73 152.134 73C163.654 73 170.294 77.7467 172.054 87.24C172.321 88.4133 172.241 89.3467 171.814 90.04C171.441 90.68 170.614 91.1867 169.334 91.56L161.094 94.36C159.814 94.7333 158.881 94.7867 158.294 94.52C157.761 94.2 157.361 93.4267 157.094 92.2C156.721 90.3867 155.974 89.08 154.854 88.28C153.734 87.4267 152.054 87 149.814 87C146.721 87 144.348 87.6933 142.694 89.08C141.094 90.4133 140.054 92.4933 139.574 95.32L136.934 109.88C136.454 112.707 136.774 114.813 137.894 116.2C139.068 117.533 141.201 118.2 144.294 118.2C148.508 118.2 151.574 116.467 153.494 113C154.241 111.72 154.934 110.947 155.574 110.68C156.214 110.36 157.094 110.413 158.214 110.84L166.534 114.04C168.614 114.787 169.068 116.227 167.894 118.36C162.881 127.587 154.268 132.2 142.054 132.2C134.321 132.2 128.614 130.093 124.934 125.88C121.308 121.667 120.081 116.067 121.254 109.08L123.894 94.28ZM216.651 74.2C217.931 74.2 218.785 74.4667 219.211 75C219.638 75.48 219.745 76.3333 219.531 77.56L218.251 84.76C218.038 86.04 217.611 86.9467 216.971 87.48C216.385 87.96 215.478 88.2 214.251 88.2H193.131L191.851 95.32H208.731C210.011 95.32 210.838 95.5867 211.211 96.12C211.638 96.6 211.745 97.4533 211.531 98.68L210.251 105.88C209.985 107.16 209.558 108.067 208.971 108.6C208.438 109.08 207.531 109.32 206.251 109.32H189.371L188.011 117H209.851C211.078 117 211.878 117.24 212.251 117.72C212.678 118.2 212.785 119.08 212.571 120.36L211.291 127.64C211.078 128.867 210.678 129.747 210.091 130.28C209.505 130.76 208.571 131 207.291 131H173.131C171.851 131 170.998 130.76 170.571 130.28C170.145 129.747 170.065 128.867 170.331 127.64L179.131 77.56C179.398 76.3333 179.798 75.48 180.331 75C180.918 74.4667 181.851 74.2 183.131 74.2H216.651Z" fill="url(#paint3_linear_181_2131)"/>
<path d="M118.04 127.72L117.794 127.766L117.795 127.768L118.04 127.72ZM101.4 127.64L101.65 127.619L101.648 127.606L101.4 127.64ZM100.6 121.88L100.848 121.846L100.818 121.63H100.6V121.88ZM83.24 121.88V121.63H83.0836L83.0152 121.771L83.24 121.88ZM80.44 127.64L80.6636 127.752L80.6648 127.749L80.44 127.64ZM78.2 130.28L78.0774 130.062L78.2 130.28ZM63.72 127.72L63.9381 127.842L63.94 127.839L63.72 127.72ZM91.08 77L91.3 77.1187L91.3015 77.116L91.08 77ZM92.92 74.76L93.046 74.9759L92.92 74.76ZM107.32 74.76L107.176 74.965L107.186 74.9709L107.32 74.76ZM108.52 76.84L108.766 76.794L108.765 76.7885L108.52 76.84ZM97.88 99.96L97.6306 99.9814L97.6323 99.9939L97.88 99.96ZM97.64 94.68L97.39 94.6722V94.68H97.64ZM97.88 90.44L97.6322 90.4046L97.6311 90.4163L97.88 90.44ZM98.12 88.76L98.3675 88.7954L98.4083 88.51H98.12V88.76ZM97.4 88.76V88.51H97.1911L97.154 88.7156L97.4 88.76ZM93.8 99.88L94.0251 99.9887L94.0256 99.9877L93.8 99.88ZM89.24 109.32L89.0149 109.211L88.8416 109.57H89.24V109.32ZM99.16 109.32V109.57H99.4465L99.4077 109.286L99.16 109.32ZM117.795 127.768C118.001 128.825 117.852 129.549 117.434 130.013C117.011 130.481 116.252 130.75 115.08 130.75V131.25C116.308 131.25 117.242 130.972 117.806 130.347C118.374 129.717 118.506 128.802 118.285 127.672L117.795 127.768ZM115.08 130.75H106.76V131.25H115.08V130.75ZM106.76 130.75C105.782 130.75 104.964 130.69 104.303 130.574C103.64 130.457 103.149 130.285 102.815 130.07L102.545 130.49C102.957 130.755 103.52 130.943 104.217 131.066C104.916 131.19 105.764 131.25 106.76 131.25V130.75ZM102.815 130.07C102.159 129.648 101.752 128.858 101.649 127.619L101.151 127.661C101.261 128.982 101.707 129.952 102.545 130.49L102.815 130.07ZM101.648 127.606L100.848 121.846L100.352 121.914L101.152 127.674L101.648 127.606ZM100.6 121.63H83.24V122.13H100.6V121.63ZM83.0152 121.771L80.2152 127.531L80.6648 127.749L83.4648 121.989L83.0152 121.771ZM80.2164 127.528C79.5889 128.783 78.8714 129.615 78.0774 130.062L78.3226 130.498C79.2352 129.985 80.0111 129.057 80.6636 127.752L80.2164 127.528ZM78.0774 130.062C77.2828 130.509 75.951 130.75 74.04 130.75V131.25C75.969 131.25 77.4105 131.011 78.3226 130.498L78.0774 130.062ZM74.04 130.75H65.24V131.25H74.04V130.75ZM65.24 130.75C64.1317 130.75 63.5925 130.476 63.4068 130.075C63.3106 129.867 63.2864 129.586 63.3692 129.209C63.452 128.831 63.6381 128.377 63.938 127.842L63.502 127.598C63.1886 128.156 62.978 128.659 62.8808 129.101C62.7836 129.544 62.796 129.946 62.9532 130.285C63.2741 130.978 64.1083 131.25 65.24 131.25V130.75ZM63.94 127.839L91.3 77.1187L90.86 76.8813L63.5 127.601L63.94 127.839ZM91.3015 77.116C91.8799 76.0116 92.4661 75.3142 93.046 74.9759L92.794 74.5441C92.0939 74.9524 91.4534 75.7484 90.8585 76.884L91.3015 77.116ZM93.046 74.9759C93.6303 74.6351 94.5118 74.45 95.72 74.45V73.95C94.4749 73.95 93.4897 74.1383 92.794 74.5441L93.046 74.9759ZM95.72 74.45H104.76V73.95H95.72V74.45ZM104.76 74.45C105.918 74.45 106.707 74.6363 107.177 74.9648L107.463 74.5552C106.866 74.137 105.949 73.95 104.76 73.95V74.45ZM107.186 74.9709C107.693 75.2937 108.069 75.912 108.275 76.8915L108.765 76.7885C108.544 75.7414 108.12 74.973 107.454 74.5491L107.186 74.9709ZM108.274 76.886L117.794 127.766L118.286 127.674L108.766 76.794L108.274 76.886ZM98.1291 99.9386C97.9696 98.0782 97.89 96.3253 97.89 94.68H97.39C97.39 96.3413 97.4704 98.1085 97.6309 99.9813L98.1291 99.9386ZM97.8899 94.6878C97.9431 92.984 98.0229 91.5765 98.1289 90.4637L97.6311 90.4163C97.5238 91.5435 97.4435 92.9626 97.3901 94.6722L97.8899 94.6878ZM98.1275 90.4754L98.3675 88.7954L97.8725 88.7246L97.6325 90.4046L98.1275 90.4754ZM98.12 88.51H97.4V89.01H98.12V88.51ZM97.154 88.7156C96.4647 92.5333 95.2716 96.2187 93.5744 99.7723L94.0256 99.9877C95.7417 96.3946 96.9487 92.6667 97.646 88.8044L97.154 88.7156ZM93.5749 99.7713L89.0149 109.211L89.4651 109.429L94.0251 99.9887L93.5749 99.7713ZM89.24 109.57H99.16V109.07H89.24V109.57ZM99.4077 109.286L98.1277 99.9261L97.6323 99.9939L98.9123 109.354L99.4077 109.286ZM123.894 94.28L124.14 94.3239L124.141 94.322L123.894 94.28ZM132.934 78.52L133.084 78.7203L133.084 78.72L132.934 78.52ZM172.054 87.24L171.808 87.2856L171.811 87.2954L172.054 87.24ZM171.814 90.04L171.601 89.9089L171.598 89.914L171.814 90.04ZM169.334 91.56L169.264 91.3198L169.254 91.3233L169.334 91.56ZM161.094 94.36L161.164 94.6002L161.175 94.5967L161.094 94.36ZM158.294 94.52L158.166 94.7344L158.178 94.7417L158.191 94.7476L158.294 94.52ZM157.094 92.2L156.85 92.2504L156.85 92.2531L157.094 92.2ZM154.854 88.28L154.703 88.4789L154.709 88.4834L154.854 88.28ZM142.694 89.08L142.854 89.2721L142.855 89.2715L142.694 89.08ZM139.574 95.32L139.82 95.3646L139.821 95.3619L139.574 95.32ZM136.934 109.88L136.688 109.835L136.688 109.838L136.934 109.88ZM137.894 116.2L137.7 116.357L137.707 116.365L137.894 116.2ZM153.494 113L153.278 112.874L153.276 112.879L153.494 113ZM155.574 110.68L155.671 110.911L155.678 110.907L155.686 110.904L155.574 110.68ZM158.214 110.84L158.304 110.607L158.303 110.606L158.214 110.84ZM166.534 114.04L166.445 114.273L166.45 114.275L166.534 114.04ZM167.894 118.36L167.675 118.24L167.675 118.241L167.894 118.36ZM124.934 125.88L124.745 126.043L124.746 126.044L124.934 125.88ZM121.254 109.08L121.008 109.036L121.008 109.039L121.254 109.08ZM124.141 94.322C125.305 87.4949 128.29 82.3027 133.084 78.7203L132.785 78.3197C127.872 81.9906 124.83 87.3051 123.648 94.238L124.141 94.322ZM133.084 78.72C137.937 75.0807 144.28 73.25 152.134 73.25V72.75C144.203 72.75 137.745 74.5993 132.784 78.32L133.084 78.72ZM152.134 73.25C157.863 73.25 162.346 74.4305 165.609 76.7634C168.867 79.0923 170.938 82.5901 171.809 87.2856L172.3 87.1944C171.411 82.3966 169.282 78.7743 165.9 76.3566C162.523 73.9428 157.926 72.75 152.134 72.75V73.25ZM171.811 87.2954C172.07 88.4352 171.98 89.2931 171.601 89.909L172.027 90.171C172.502 89.4002 172.572 88.3915 172.298 87.1846L171.811 87.2954ZM171.598 89.914C171.275 90.4687 170.527 90.9516 169.264 91.32L169.404 91.8C170.701 91.4217 171.607 90.8913 172.03 90.166L171.598 89.914ZM169.254 91.3233L161.014 94.1233L161.175 94.5967L169.415 91.7967L169.254 91.3233ZM161.024 94.12C159.75 94.4915 158.896 94.5187 158.398 94.2924L158.191 94.7476C158.866 95.0546 159.878 94.9751 161.164 94.6L161.024 94.12ZM158.423 94.3056C157.986 94.0436 157.604 93.366 157.339 92.1469L156.85 92.2531C157.118 93.4874 157.536 94.3564 158.166 94.7344L158.423 94.3056ZM157.339 92.1496C156.958 90.2962 156.187 88.9243 155 88.0766L154.709 88.4834C155.762 89.2357 156.484 90.4771 156.85 92.2504L157.339 92.1496ZM155.006 88.0811C153.823 87.1801 152.079 86.75 149.814 86.75V87.25C152.03 87.25 153.645 87.6732 154.703 88.4789L155.006 88.0811ZM149.814 86.75C146.687 86.75 144.248 87.4506 142.534 88.8884L142.855 89.2715C144.447 87.9361 146.755 87.25 149.814 87.25V86.75ZM142.534 88.8879C140.874 90.2717 139.814 92.4148 139.328 95.2781L139.821 95.3619C140.295 92.5719 141.315 90.555 142.854 89.2721L142.534 88.8879ZM139.328 95.2754L136.688 109.835L137.18 109.925L139.82 95.3646L139.328 95.2754ZM136.688 109.838C136.203 112.693 136.514 114.888 137.7 116.357L138.089 116.043C137.035 114.738 136.706 112.72 137.181 109.922L136.688 109.838ZM137.707 116.365C138.953 117.781 141.18 118.45 144.294 118.45V117.95C141.222 117.95 139.183 117.285 138.082 116.035L137.707 116.365ZM144.294 118.45C146.436 118.45 148.3 118.009 149.877 117.118C151.456 116.226 152.734 114.89 153.713 113.121L153.276 112.879C152.335 114.577 151.12 115.841 149.631 116.682C148.142 117.524 146.366 117.95 144.294 117.95V118.45ZM153.71 113.126C154.455 111.85 155.113 111.143 155.671 110.911L155.478 110.449C154.756 110.75 154.027 111.59 153.278 112.874L153.71 113.126ZM155.686 110.904C156.232 110.631 157.029 110.656 158.125 111.074L158.303 110.606C157.16 110.171 156.197 110.089 155.463 110.456L155.686 110.904ZM158.125 111.073L166.445 114.273L166.624 113.807L158.304 110.607L158.125 111.073ZM166.45 114.275C167.452 114.635 168.002 115.14 168.196 115.755C168.393 116.38 168.249 117.197 167.675 118.24L168.113 118.48C168.714 117.389 168.93 116.42 168.673 115.605C168.413 114.78 167.697 114.192 166.619 113.805L166.45 114.275ZM167.675 118.241C162.713 127.372 154.194 131.95 142.054 131.95V132.45C154.341 132.45 163.049 127.801 168.114 118.479L167.675 118.241ZM142.054 131.95C134.364 131.95 128.739 129.856 125.123 125.716L124.746 126.044C128.49 130.331 134.278 132.45 142.054 132.45V131.95ZM125.124 125.717C121.558 121.575 120.336 116.057 121.501 109.121L121.008 109.039C119.826 116.077 121.057 121.759 124.745 126.043L125.124 125.717ZM121.5 109.124L124.14 94.3239L123.648 94.2361L121.008 109.036L121.5 109.124ZM219.211 75L219.016 75.1564L219.024 75.1661L219.211 75ZM219.531 77.56L219.777 77.6038L219.778 77.6028L219.531 77.56ZM218.251 84.76L218.005 84.7162L218.005 84.7189L218.251 84.76ZM216.971 87.48L217.13 87.6735L217.131 87.6721L216.971 87.48ZM193.131 88.2V87.95H192.922L192.885 88.1558L193.131 88.2ZM191.851 95.32L191.605 95.2758L191.552 95.57H191.851V95.32ZM211.211 96.12L211.006 96.2634L211.015 96.2752L211.024 96.2861L211.211 96.12ZM211.531 98.68L211.777 98.7238L211.778 98.7228L211.531 98.68ZM210.251 105.88L210.496 105.931L210.497 105.924L210.251 105.88ZM208.971 108.6L209.139 108.786L209.139 108.785L208.971 108.6ZM189.371 109.32V109.07H189.162L189.125 109.276L189.371 109.32ZM188.011 117L187.765 116.956L187.713 117.25H188.011V117ZM212.251 117.72L212.054 117.873L212.059 117.88L212.064 117.886L212.251 117.72ZM212.571 120.36L212.817 120.403L212.818 120.401L212.571 120.36ZM211.291 127.64L211.045 127.597L211.045 127.597L211.291 127.64ZM210.091 130.28L210.25 130.474L210.259 130.465L210.091 130.28ZM170.571 130.28L170.376 130.436L170.384 130.446L170.571 130.28ZM170.331 127.64L170.576 127.693L170.577 127.683L170.331 127.64ZM179.131 77.56L178.887 77.5068L178.885 77.5167L179.131 77.56ZM180.331 75L180.498 75.1858L180.499 75.185L180.331 75ZM216.651 74.45C217.917 74.45 218.665 74.7176 219.016 75.1562L219.406 74.8438C218.904 74.2157 217.946 73.95 216.651 73.95V74.45ZM219.024 75.1661C219.369 75.5537 219.496 76.3012 219.285 77.5172L219.778 77.6028C219.993 76.3654 219.907 75.4063 219.398 74.8339L219.024 75.1661ZM219.285 77.5162L218.005 84.7162L218.497 84.8038L219.777 77.6038L219.285 77.5162ZM218.005 84.7189C217.796 85.9712 217.386 86.8093 216.811 87.2879L217.131 87.6721C217.837 87.084 218.28 86.1088 218.498 84.8011L218.005 84.7189ZM216.813 87.2865C216.291 87.7134 215.453 87.95 214.251 87.95V88.45C215.502 88.45 216.478 88.2066 217.13 87.6735L216.813 87.2865ZM214.251 87.95H193.131V88.45H214.251V87.95ZM192.885 88.1558L191.605 95.2758L192.097 95.3642L193.377 88.2442L192.885 88.1558ZM191.851 95.57H208.731V95.07H191.851V95.57ZM208.731 95.57C210.003 95.57 210.71 95.84 211.006 96.2634L211.416 95.9766C210.966 95.3333 210.02 95.07 208.731 95.07V95.57ZM211.024 96.2861C211.369 96.6737 211.496 97.4212 211.285 98.6372L211.778 98.7228C211.993 97.4854 211.907 96.5263 211.398 95.9539L211.024 96.2861ZM211.285 98.6362L210.005 105.836L210.497 105.924L211.777 98.7238L211.285 98.6362ZM210.007 105.829C209.744 107.088 209.333 107.934 208.803 108.415L209.139 108.785C209.783 108.2 210.225 107.232 210.496 105.931L210.007 105.829ZM208.804 108.414C208.341 108.831 207.513 109.07 206.251 109.07V109.57C207.549 109.57 208.535 109.329 209.138 108.786L208.804 108.414ZM206.251 109.07H189.371V109.57H206.251V109.07ZM189.125 109.276L187.765 116.956L188.257 117.044L189.617 109.364L189.125 109.276ZM188.011 117.25H209.851V116.75H188.011V117.25ZM209.851 117.25C210.451 117.25 210.931 117.309 211.299 117.419C211.668 117.53 211.909 117.687 212.054 117.873L212.449 117.567C212.22 117.273 211.875 117.07 211.443 116.941C211.012 116.811 210.479 116.75 209.851 116.75V117.25ZM212.064 117.886C212.233 118.076 212.354 118.362 212.403 118.77C212.453 119.178 212.429 119.693 212.325 120.319L212.818 120.401C212.927 119.747 212.957 119.182 212.899 118.71C212.842 118.238 212.696 117.844 212.438 117.554L212.064 117.886ZM212.325 120.317L211.045 127.597L211.537 127.683L212.817 120.403L212.325 120.317ZM211.045 127.597C210.836 128.798 210.451 129.615 209.923 130.095L210.259 130.465C210.905 129.878 211.32 128.935 211.538 127.683L211.045 127.597ZM209.933 130.087C209.413 130.512 208.55 130.75 207.291 130.75V131.25C208.593 131.25 209.596 131.008 210.25 130.473L209.933 130.087ZM207.291 130.75H173.131V131.25H207.291V130.75ZM173.131 130.75C171.86 130.75 171.107 130.507 170.758 130.114L170.384 130.446C170.888 131.013 171.843 131.25 173.131 131.25V130.75ZM170.766 130.124C170.414 129.684 170.312 128.904 170.576 127.693L170.087 127.587C169.817 128.83 169.875 129.81 170.376 130.436L170.766 130.124ZM170.577 127.683L179.377 77.6033L178.885 77.5167L170.085 127.597L170.577 127.683ZM179.376 77.6131C179.638 76.4036 180.024 75.613 180.498 75.1858L180.164 74.8142C179.572 75.347 179.157 76.263 178.887 77.5069L179.376 77.6131ZM180.499 75.185C181.019 74.7127 181.877 74.45 183.131 74.45V73.95C181.825 73.95 180.817 74.2206 180.163 74.815L180.499 75.185ZM183.131 74.45H216.651V73.95H183.131V74.45Z" fill="url(#paint4_linear_181_2131)"/>
<path d="M256.64 74.12C262.133 74.12 266.213 75.56 268.88 78.44C271.6 81.2667 272.533 85.08 271.68 89.88C271.147 92.5467 270.267 94.7333 269.04 96.44C267.867 98.0933 266.133 99.64 263.84 101.08L263.76 101.4C268.667 103.747 270.507 108.547 269.28 115.8C268.373 120.813 265.92 124.6 261.92 127.16C257.973 129.72 253.067 131 247.2 131H223.2C221.92 131 221.067 130.76 220.64 130.28C220.213 129.747 220.133 128.867 220.4 127.64L229.2 77.56C229.467 76.28 229.867 75.4 230.4 74.92C230.987 74.3867 231.92 74.12 233.2 74.12H256.64ZM255.2 91.48C255.733 88.4933 254.347 87 251.04 87H243.36L241.84 95.8H249.52C252.773 95.8 254.667 94.36 255.2 91.48ZM253.12 113.32C253.76 110.227 252.32 108.68 248.8 108.68H239.6L237.92 118.04H247.2C250.613 118.04 252.587 116.467 253.12 113.32ZM281.136 77.4C281.403 76.1733 281.803 75.3467 282.336 74.92C282.87 74.44 283.723 74.2 284.896 74.2H294.336C295.563 74.2 296.363 74.44 296.736 74.92C297.11 75.4 297.19 76.2267 296.976 77.4L288.096 127.8C287.883 128.973 287.51 129.8 286.976 130.28C286.443 130.76 285.563 131 284.336 131H274.896C273.723 131 272.923 130.787 272.496 130.36C272.123 129.88 272.043 129.027 272.256 127.8L281.136 77.4ZM344.641 74.2C345.921 74.2 346.774 74.4667 347.201 75C347.627 75.48 347.707 76.3333 347.441 77.56L346.161 84.76C345.947 86.04 345.547 86.9467 344.961 87.48C344.374 87.96 343.441 88.2 342.161 88.2H330.321L323.361 127.64C323.094 128.867 322.667 129.747 322.081 130.28C321.547 130.76 320.641 131 319.361 131H310.321C309.041 131 308.187 130.76 307.761 130.28C307.334 129.747 307.254 128.867 307.521 127.64L314.481 88.2H302.561C301.281 88.2 300.427 87.96 300.001 87.48C299.627 86.9467 299.547 86.04 299.761 84.76L301.041 77.56C301.307 76.3333 301.707 75.48 302.241 75C302.827 74.4667 303.761 74.2 305.041 74.2H344.641Z" fill="url(#paint5_linear_181_2131)"/>
<path d="M268.88 78.44L268.77 78.5419L268.772 78.544L268.88 78.44ZM271.68 89.88L271.827 89.9094L271.828 89.9063L271.68 89.88ZM269.04 96.44L268.918 96.3525L268.918 96.3532L269.04 96.44ZM263.84 101.08L263.76 100.953L263.709 100.985L263.694 101.044L263.84 101.08ZM263.76 101.4L263.614 101.364L263.585 101.482L263.695 101.535L263.76 101.4ZM269.28 115.8L269.428 115.827L269.428 115.825L269.28 115.8ZM261.92 127.16L261.839 127.034L261.838 127.034L261.92 127.16ZM220.64 130.28L220.523 130.374L220.528 130.38L220.64 130.28ZM220.4 127.64L220.547 127.672L220.548 127.666L220.4 127.64ZM229.2 77.56L229.053 77.5294L229.052 77.534L229.2 77.56ZM230.4 74.92L230.5 75.0315L230.501 75.031L230.4 74.92ZM255.2 91.48L255.347 91.5073L255.348 91.5064L255.2 91.48ZM243.36 87V86.85H243.234L243.212 86.9745L243.36 87ZM241.84 95.8L241.692 95.7745L241.662 95.95H241.84V95.8ZM253.12 113.32L252.973 113.29L252.972 113.295L253.12 113.32ZM239.6 108.68V108.53H239.475L239.452 108.653L239.6 108.68ZM237.92 118.04L237.772 118.014L237.741 118.19H237.92V118.04ZM256.64 74.27C262.109 74.27 266.142 75.7032 268.77 78.5419L268.99 78.3381C266.285 75.4168 262.158 73.97 256.64 73.97V74.27ZM268.772 78.544C271.451 81.3277 272.38 85.0882 271.532 89.8537L271.828 89.9063C272.687 85.0718 271.749 81.2057 268.988 78.336L268.772 78.544ZM271.533 89.8506C271.003 92.5022 270.129 94.6674 268.918 96.3525L269.162 96.5275C270.404 94.7992 271.291 92.5911 271.827 89.9094L271.533 89.8506ZM268.918 96.3532C267.759 97.986 266.042 99.5201 263.76 100.953L263.92 101.207C266.224 99.7599 267.974 98.2006 269.162 96.5268L268.918 96.3532ZM263.694 101.044L263.614 101.364L263.906 101.436L263.986 101.116L263.694 101.044ZM263.695 101.535C266.116 102.693 267.775 104.452 268.68 106.814C269.587 109.18 269.743 112.164 269.132 115.775L269.428 115.825C270.044 112.183 269.893 109.14 268.96 106.706C268.025 104.268 266.31 102.454 263.825 101.265L263.695 101.535ZM269.132 115.773C268.233 120.749 265.801 124.498 261.839 127.034L262.001 127.286C266.039 124.702 268.514 120.878 269.428 115.827L269.132 115.773ZM261.838 127.034C257.921 129.575 253.045 130.85 247.2 130.85V131.15C253.088 131.15 258.025 129.865 262.002 127.286L261.838 127.034ZM247.2 130.85H223.2V131.15H247.2V130.85ZM223.2 130.85C221.925 130.85 221.132 130.608 220.752 130.18L220.528 130.38C221.001 130.912 221.915 131.15 223.2 131.15V130.85ZM220.757 130.186C220.375 129.709 220.282 128.889 220.547 127.672L220.253 127.608C219.985 128.844 220.052 129.785 220.523 130.374L220.757 130.186ZM220.548 127.666L229.348 77.586L229.052 77.534L220.252 127.614L220.548 127.666ZM229.347 77.5906C229.612 76.3194 230.003 75.4787 230.5 75.0315L230.3 74.8085C229.73 75.3213 229.322 76.2406 229.053 77.5294L229.347 77.5906ZM230.501 75.031C231.047 74.5343 231.936 74.27 233.2 74.27V73.97C231.904 73.97 230.926 74.2391 230.299 74.809L230.501 75.031ZM233.2 74.27H256.64V73.97H233.2V74.27ZM255.348 91.5064C255.618 89.9902 255.409 88.8135 254.67 88.0179C253.935 87.2262 252.71 86.85 251.04 86.85V87.15C252.677 87.15 253.799 87.5205 254.45 88.2221C255.098 88.9198 255.315 89.9831 255.052 91.4536L255.348 91.5064ZM251.04 86.85H243.36V87.15H251.04V86.85ZM243.212 86.9745L241.692 95.7745L241.988 95.8255L243.508 87.0255L243.212 86.9745ZM241.84 95.95H249.52V95.65H241.84V95.95ZM249.52 95.95C251.168 95.95 252.49 95.5854 253.471 94.8394C254.454 94.0919 255.076 92.9751 255.347 91.5073L255.053 91.4527C254.791 92.8649 254.2 93.9081 253.289 94.6006C252.377 95.2946 251.126 95.65 249.52 95.65V95.95ZM253.267 113.35C253.592 111.781 253.397 110.562 252.63 109.738C251.867 108.919 250.575 108.53 248.8 108.53V108.83C250.545 108.83 251.733 109.214 252.41 109.942C253.083 110.665 253.288 111.766 252.973 113.29L253.267 113.35ZM248.8 108.53H239.6V108.83H248.8V108.53ZM239.452 108.653L237.772 118.014L238.068 118.066L239.748 108.706L239.452 108.653ZM237.92 118.19H247.2V117.89H237.92V118.19ZM247.2 118.19C248.929 118.19 250.312 117.792 251.334 116.977C252.356 116.162 252.997 114.945 253.268 113.345L252.972 113.295C252.71 114.842 252.097 115.985 251.146 116.743C250.194 117.502 248.885 117.89 247.2 117.89V118.19ZM281.136 77.4L280.99 77.3681L280.989 77.374L281.136 77.4ZM282.336 74.92L282.43 75.0373L282.437 75.0315L282.336 74.92ZM296.976 77.4L296.829 77.3732L296.829 77.374L296.976 77.4ZM288.096 127.8L288.244 127.827L288.244 127.826L288.096 127.8ZM272.496 130.36L272.378 130.452L272.384 130.459L272.39 130.466L272.496 130.36ZM272.256 127.8L272.109 127.774L272.108 127.774L272.256 127.8ZM281.283 77.4319C281.548 76.2141 281.938 75.4305 282.43 75.0371L282.243 74.8029C281.668 75.2628 281.258 76.1326 280.99 77.3681L281.283 77.4319ZM282.437 75.0315C282.929 74.5879 283.738 74.35 284.896 74.35V74.05C283.708 74.05 282.81 74.2921 282.236 74.8085L282.437 75.0315ZM284.896 74.35H294.336V74.05H284.896V74.35ZM294.336 74.35C294.941 74.35 295.432 74.4093 295.813 74.5237C296.194 74.638 296.456 74.8044 296.618 75.0121L296.855 74.8279C296.643 74.5556 296.318 74.362 295.899 74.2363C295.48 74.1107 294.958 74.05 294.336 74.05V74.35ZM296.618 75.0121C296.949 75.4376 297.041 76.2059 296.829 77.3732L297.124 77.4268C297.338 76.2475 297.27 75.3624 296.855 74.8279L296.618 75.0121ZM296.829 77.374L287.949 127.774L288.244 127.826L297.124 77.426L296.829 77.374ZM287.949 127.773C287.738 128.934 287.373 129.721 286.876 130.169L287.077 130.391C287.646 129.879 288.028 129.013 288.244 127.827L287.949 127.773ZM286.876 130.169C286.384 130.611 285.55 130.85 284.336 130.85V131.15C285.576 131.15 286.502 130.909 287.077 130.391L286.876 130.169ZM284.336 130.85H274.896V131.15H284.336V130.85ZM274.896 130.85C273.73 130.85 272.984 130.636 272.602 130.254L272.39 130.466C272.862 130.938 273.716 131.15 274.896 131.15V130.85ZM272.615 130.268C272.451 130.058 272.344 129.755 272.306 129.346C272.267 128.937 272.299 128.431 272.404 127.826L272.108 127.774C272 128.395 271.965 128.93 272.007 129.374C272.049 129.818 272.168 130.182 272.378 130.452L272.615 130.268ZM272.404 127.826L281.284 77.426L280.989 77.374L272.109 127.774L272.404 127.826ZM347.201 75L347.083 75.0938L347.089 75.0997L347.201 75ZM347.441 77.56L347.294 77.5281L347.293 77.5337L347.441 77.56ZM346.161 84.76L346.013 84.7337L346.013 84.7353L346.161 84.76ZM344.961 87.48L345.056 87.5962L345.062 87.591L344.961 87.48ZM330.321 88.2V88.05H330.195L330.173 88.1739L330.321 88.2ZM323.361 127.64L323.507 127.672L323.508 127.666L323.361 127.64ZM322.081 130.28L322.181 130.391L322.182 130.391L322.081 130.28ZM307.761 130.28L307.643 130.374L307.649 130.38L307.761 130.28ZM307.521 127.64L307.667 127.672L307.668 127.666L307.521 127.64ZM314.481 88.2L314.628 88.2261L314.659 88.05H314.481V88.2ZM300.001 87.48L299.878 87.566L299.883 87.5731L299.889 87.5797L300.001 87.48ZM299.761 84.76L299.613 84.7337L299.613 84.7353L299.761 84.76ZM301.041 77.56L300.894 77.5281L300.893 77.5337L301.041 77.56ZM302.241 75L302.341 75.1115L302.342 75.111L302.241 75ZM344.641 74.35C345.912 74.35 346.702 74.6172 347.083 75.0937L347.318 74.9063C346.846 74.3161 345.929 74.05 344.641 74.05V74.35ZM347.089 75.0997C347.463 75.521 347.56 76.3071 347.294 77.5281L347.587 77.5919C347.855 76.3596 347.792 75.439 347.313 74.9003L347.089 75.0997ZM347.293 77.5337L346.013 84.7337L346.308 84.7863L347.588 77.5863L347.293 77.5337ZM346.013 84.7353C345.802 86.0016 345.41 86.8688 344.86 87.369L345.062 87.591C345.685 87.0245 346.093 86.0784 346.309 84.7847L346.013 84.7353ZM344.866 87.3639C344.319 87.8113 343.428 88.05 342.161 88.05V88.35C343.453 88.35 344.429 88.1087 345.056 87.5961L344.866 87.3639ZM342.161 88.05H330.321V88.35H342.161V88.05ZM330.173 88.1739L323.213 127.614L323.508 127.666L330.468 88.2261L330.173 88.1739ZM323.214 127.608C322.95 128.821 322.533 129.666 321.98 130.169L322.182 130.391C322.801 129.828 323.237 128.913 323.507 127.672L323.214 127.608ZM321.98 130.169C321.489 130.61 320.63 130.85 319.361 130.85V131.15C320.651 131.15 321.605 130.91 322.181 130.391L321.98 130.169ZM319.361 130.85H310.321V131.15H319.361V130.85ZM310.321 130.85C309.046 130.85 308.253 130.608 307.873 130.18L307.649 130.38C308.122 130.912 309.035 131.15 310.321 131.15V130.85ZM307.878 130.186C307.496 129.709 307.403 128.889 307.667 127.672L307.374 127.608C307.105 128.844 307.172 129.785 307.643 130.374L307.878 130.186ZM307.668 127.666L314.628 88.2261L314.333 88.1739L307.373 127.614L307.668 127.666ZM314.481 88.05H302.561V88.35H314.481V88.05ZM302.561 88.05C301.286 88.05 300.493 87.8082 300.113 87.3803L299.889 87.5797C300.362 88.1118 301.275 88.35 302.561 88.35V88.05ZM300.124 87.394C299.787 86.9127 299.696 86.0593 299.909 84.7847L299.613 84.7353C299.398 86.0207 299.468 86.9806 299.878 87.566L300.124 87.394ZM299.908 84.7863L301.188 77.5863L300.893 77.5337L299.613 84.7337L299.908 84.7863ZM301.187 77.5919C301.452 76.3755 301.843 75.5598 302.341 75.1115L302.14 74.8885C301.572 75.4002 301.163 76.2912 300.894 77.5281L301.187 77.5919ZM302.342 75.111C302.888 74.6143 303.776 74.35 305.041 74.35V74.05C303.745 74.05 302.767 74.3191 302.14 74.889L302.342 75.111ZM305.041 74.35H344.641V74.05H305.041V74.35Z" fill="url(#paint6_linear_181_2131)"/>
<defs>
<linearGradient id="paint0_linear_181_2131" x1="199.606" y1="69" x2="44.2225" y2="-68.5273" gradientUnits="userSpaceOnUse">
<stop stop-color="#D1D1D1"/>
<stop offset="1" stop-color="#D1D1D1" stop-opacity="0.47"/>
</linearGradient>
<linearGradient id="paint1_linear_181_2131" x1="124" y1="0" x2="124" y2="72" gradientUnits="userSpaceOnUse">
<stop offset="0.206492" stop-color="white"/>
<stop offset="0.478015" stop-color="#FFE7AA" stop-opacity="0"/>
<stop offset="0.689643" stop-color="#FFE7AA"/>
<stop offset="1" stop-color="#FFE7AA" stop-opacity="0"/>
</linearGradient>
<linearGradient id="paint2_linear_181_2131" x1="131.432" y1="146.75" x2="119.762" y2="69.3903" gradientUnits="userSpaceOnUse">
<stop stop-color="#EBC367"/>
<stop offset="0.206588" stop-color="#FDB242"/>
<stop offset="0.486587" stop-color="#C47E16"/>
<stop offset="0.589636" stop-color="#D1891E"/>
<stop offset="0.694186" stop-color="#E1A03F"/>
<stop offset="0.697522" stop-color="#FFDDA9"/>
<stop offset="0.911458" stop-color="#F1BD57"/>
</linearGradient>
<linearGradient id="paint3_linear_181_2131" x1="206.705" y1="80.15" x2="75.7239" y2="89.9304" gradientUnits="userSpaceOnUse">
<stop stop-color="#E6C365" stop-opacity="0"/>
<stop offset="1" stop-color="#E6C365" stop-opacity="0.3"/>
</linearGradient>
<linearGradient id="paint4_linear_181_2131" x1="143.5" y1="68" x2="143.5" y2="140" gradientUnits="userSpaceOnUse">
<stop stop-color="#FFE7AA" stop-opacity="0"/>
<stop offset="0.329952" stop-color="#FFE7AA"/>
<stop offset="0.465285" stop-color="#FFE7AA" stop-opacity="0"/>
<stop offset="0.623174" stop-color="#FFE7AA"/>
<stop offset="0.817708" stop-color="#FFE7AA" stop-opacity="0"/>
<stop offset="1" stop-color="white"/>
</linearGradient>
<linearGradient id="paint5_linear_181_2131" x1="220" y1="137" x2="397.502" y2="161.81" gradientUnits="userSpaceOnUse">
<stop stop-color="#D1D1D1"/>
<stop offset="1" stop-color="#D1D1D1" stop-opacity="0.47"/>
</linearGradient>
<linearGradient id="paint6_linear_181_2131" x1="285" y1="68" x2="285" y2="140" gradientUnits="userSpaceOnUse">
<stop offset="0.206492" stop-color="white"/>
<stop offset="0.478015" stop-color="#FFE7AA" stop-opacity="0"/>
<stop offset="0.689643" stop-color="#FFE7AA"/>
<stop offset="1" stop-color="#FFE7AA" stop-opacity="0"/>
</linearGradient>
</defs>
</svg>
