<svg width="126" height="148" viewBox="0 0 126 148" fill="none" xmlns="http://www.w3.org/2000/svg">
<path d="M61.0312 86.9688L126 22V124C126 137.255 115.255 148 102 148H0L61.0312 86.9688Z" fill="url(#paint0_linear_10_781)"/>
<path d="M64.9688 61.0312L0 126L8.91712e-06 24C1.00759e-05 10.7452 10.7452 -1.00759e-05 24 -8.91712e-06L126 0L64.9688 61.0312Z" fill="url(#paint1_linear_10_781)"/>
<path fill-rule="evenodd" clip-rule="evenodd" d="M23.8719 26.3681C23 28.0794 23 30.3196 23 34.8V62.6054C26.5868 64.6802 29 68.5583 29 73C29 77.4417 26.5868 81.3198 23 83.3946V113.2C23 117.68 23 119.921 23.8719 121.632C24.6389 123.137 25.8628 124.361 27.3681 125.128C29.0794 126 31.3196 126 35.8 126H90.2C94.6804 126 96.9206 126 98.6319 125.128C100.137 124.361 101.361 123.137 102.128 121.632C103 119.921 103 117.68 103 113.2V34.8C103 30.3196 103 28.0794 102.128 26.3681C101.361 24.8628 100.137 23.6389 98.6319 22.8719C96.9206 22 94.6804 22 90.2 22H35.8C31.3196 22 29.0794 22 27.3681 22.8719C25.8628 23.6389 24.6389 24.8628 23.8719 26.3681Z" fill="url(#paint2_linear_10_781)"/>
<path d="M39.506 34H38.414L37.808 31.492L37.202 34H36.11L34.964 29.998H36.122L36.728 32.668L37.412 29.998H38.204L38.888 32.668L39.488 29.998H40.652L39.506 34ZM44.8793 34H43.8473V32.392H42.1853V34H41.1533V29.998H42.1853V31.492H43.8473V29.998H44.8793V34ZM46.8125 34H45.7805V29.998H46.8125V34ZM49.6385 34H48.6065V30.898H47.4845V29.998H50.7545V30.898H49.6385V34ZM54.3597 34H51.4257V29.998H54.3597V30.898H52.4577V31.522H54.3177V32.422H52.4577V33.1H54.3597V34ZM57.7789 34H55.1389V29.998H56.1709V33.1H57.7789V34ZM59.5267 34H58.4947V29.998H59.5267V34ZM61.9146 34.072C61.1746 34.072 60.5826 33.86 60.1386 33.436L60.6846 32.662C61.0366 33.014 61.4626 33.19 61.9626 33.19C62.1386 33.19 62.2766 33.16 62.3766 33.1C62.4806 33.036 62.5326 32.956 62.5326 32.86C62.5326 32.776 62.4766 32.708 62.3646 32.656C62.2526 32.6 62.1126 32.56 61.9446 32.536C61.7766 32.508 61.5946 32.466 61.3986 32.41C61.2026 32.35 61.0206 32.282 60.8526 32.206C60.6846 32.126 60.5446 32 60.4326 31.828C60.3206 31.656 60.2646 31.45 60.2646 31.21C60.2646 30.858 60.4066 30.558 60.6906 30.31C60.9786 30.062 61.3686 29.938 61.8606 29.938C62.5126 29.938 63.0546 30.124 63.4866 30.496L62.9226 31.234C62.5866 30.958 62.1966 30.82 61.7526 30.82C61.4646 30.82 61.3206 30.916 61.3206 31.108C61.3206 31.184 61.3766 31.25 61.4886 31.306C61.6006 31.358 61.7406 31.398 61.9086 31.426C62.0766 31.454 62.2566 31.498 62.4486 31.558C62.6446 31.614 62.8266 31.682 62.9946 31.762C63.1626 31.842 63.3026 31.966 63.4146 32.134C63.5266 32.302 63.5826 32.502 63.5826 32.734C63.5826 33.142 63.4366 33.468 63.1446 33.712C62.8526 33.952 62.4426 34.072 61.9146 34.072ZM66.0717 34H65.0397V30.898H63.9177V29.998H67.1877V30.898H66.0717V34Z" fill="#505050"/>
<rect x="35" y="41" width="56" height="4" rx="2" fill="#505050"/>
<rect x="35" y="51" width="48" height="4" rx="2" fill="#505050"/>
<rect x="35" y="61" width="48" height="4" rx="2" fill="#505050"/>
<rect x="35" y="71" width="56" height="4" rx="2" fill="#505050"/>
<rect x="35" y="81" width="34" height="4" rx="2" fill="#505050"/>
<rect x="35" y="91" width="48" height="4" rx="2" fill="#505050"/>
<rect x="35" y="101" width="40" height="4" rx="2" fill="#505050"/>
<rect x="35" y="111" width="48" height="4" rx="2" fill="#505050"/>
<path d="M17 65C12.582 65 9 68.582 9 73C9 77.418 12.582 81 17 81C21.418 81 25 77.418 25 73C25 68.582 21.418 65 17 65ZM21.6667 74.3333H16.3333V68.3333H17.6667V73H21.6667V74.3333Z" fill="#EF9A0C"/>
<defs>
<linearGradient id="paint0_linear_10_781" x1="107" y1="126.5" x2="63" y2="85" gradientUnits="userSpaceOnUse">
<stop stop-color="#D9D9D9" stop-opacity="0.11"/>
<stop offset="0.874859" stop-color="#D9D9D9" stop-opacity="0"/>
</linearGradient>
<linearGradient id="paint1_linear_10_781" x1="19" y1="21.5" x2="63" y2="63" gradientUnits="userSpaceOnUse">
<stop stop-color="#D9D9D9" stop-opacity="0.11"/>
<stop offset="0.874859" stop-color="#D9D9D9" stop-opacity="0"/>
</linearGradient>
<linearGradient id="paint2_linear_10_781" x1="-19.5" y1="-11" x2="145.5" y2="112" gradientUnits="userSpaceOnUse">
<stop stop-color="#969696"/>
<stop offset="1" stop-color="#515151"/>
</linearGradient>
</defs>
</svg>
