<svg width="66" height="41" viewBox="0 0 66 41" fill="none" xmlns="http://www.w3.org/2000/svg">
<path d="M0 -3H66V33L33 41L0 33V-3Z" fill="url(#paint0_linear_244_93)"/>
<path d="M0 -3H66V33L33 41L0 33V-3Z" fill="url(#paint1_linear_244_93)"/>
<path d="M4 -0.25H62C62.9665 -0.25 63.75 0.533502 63.75 1.5V29.9262C63.75 30.7342 63.1968 31.4371 62.4115 31.6271L33.8818 38.5294C33.3023 38.6697 32.6977 38.6697 32.1182 38.5294L3.58849 31.6271C2.80316 31.4371 2.25 30.7342 2.25 29.9262V1.5C2.25 0.533502 3.0335 -0.25 4 -0.25Z" stroke="#FFE7AA" stroke-width="0.5"/>
<defs>
<linearGradient id="paint0_linear_244_93" x1="27.7941" y1="45.125" x2="28" y2="-3" gradientUnits="userSpaceOnUse">
<stop stop-color="#EBC367"/>
<stop offset="0.206588" stop-color="#FDB242"/>
<stop offset="0.589636" stop-color="#D1891E"/>
<stop offset="0.694186" stop-color="#E1A03F"/>
<stop offset="0.826714" stop-color="#FFDDA9"/>
<stop offset="0.917387" stop-color="#F1BD57"/>
</linearGradient>
<linearGradient id="paint1_linear_244_93" x1="60.2647" y1="4.42502" x2="3.60562" y2="7.41142" gradientUnits="userSpaceOnUse">
<stop stop-color="#E6C365" stop-opacity="0"/>
<stop offset="1" stop-color="#E6C365" stop-opacity="0.3"/>
</linearGradient>
</defs>
</svg>
