<svg width="462" height="73" viewBox="0 0 462 73" fill="none" xmlns="http://www.w3.org/2000/svg">
<path d="M236.168 1.84C245.512 1.84 252.328 4.432 256.616 9.616C260.904 14.8 262.28 21.648 260.744 30.16L258.248 44.56C256.776 52.88 253.16 59.216 247.4 63.568C241.64 67.856 233.992 70 224.456 70H200.84C199.304 70 198.28 69.712 197.768 69.136C197.256 68.496 197.16 67.44 197.48 65.968L208.04 5.872C208.36 4.4 208.84 3.376 209.48 2.8C210.184 2.16 211.304 1.84 212.84 1.84H236.168ZM241.928 29.008C243.208 22.096 240.104 18.64 232.616 18.64H224.84L218.696 53.2H226.568C233.928 53.2 238.248 49.744 239.528 42.832L241.928 29.008ZM304.209 1.84C311.505 1.84 316.945 3.984 320.529 8.272C324.177 12.56 325.329 18.384 323.985 25.744C322.449 34.512 317.873 40.848 310.257 44.752C310.833 45.904 311.441 47.28 312.081 48.88L317.841 65.296C318.289 66.64 318.225 67.76 317.649 68.656C317.073 69.552 316.017 70 314.481 70H304.113C301.617 70 299.761 69.648 298.545 68.944C297.393 68.24 296.561 67.056 296.049 65.392L292.209 52.24C291.633 50.384 290.961 49.104 290.193 48.4C289.489 47.696 288.177 47.344 286.257 47.344H283.761L280.497 65.968C280.177 67.44 279.665 68.496 278.961 69.136C278.321 69.712 277.233 70 275.697 70H264.849C263.313 70 262.289 69.712 261.777 69.136C261.265 68.496 261.169 67.44 261.489 65.968L272.049 5.872C272.369 4.4 272.849 3.376 273.489 2.8C274.193 2.16 275.313 1.84 276.849 1.84H304.209ZM304.305 24.88C304.689 22.96 304.433 21.456 303.537 20.368C302.641 19.216 301.169 18.64 299.121 18.64H288.849L286.545 31.312H296.913C298.897 31.312 300.529 30.736 301.809 29.584C303.153 28.432 303.985 26.864 304.305 24.88ZM329.374 26.32C330.846 18 334.462 11.6 340.222 7.12C346.046 2.64 353.694 0.399998 363.166 0.399998C372.446 0.399998 379.262 2.96 383.614 8.08C388.03 13.2 389.502 19.984 388.03 28.432L385.054 45.808C383.582 54.064 379.934 60.4 374.11 64.816C368.35 69.232 360.734 71.44 351.262 71.44C341.918 71.44 335.07 68.944 330.718 63.952C326.366 58.896 324.894 52.144 326.302 43.696L329.374 26.32ZM369.406 26.416C369.918 23.408 369.406 21.136 367.87 19.6C366.334 18 363.902 17.2 360.574 17.2C353.534 17.2 349.47 20.272 348.382 26.416L345.022 45.424C344.51 48.432 345.022 50.736 346.558 52.336C348.094 53.872 350.558 54.64 353.95 54.64C360.926 54.64 364.958 51.568 366.046 45.424L369.406 26.416ZM430.331 1.84C437.819 1.84 443.387 4.176 447.035 8.848C450.683 13.456 451.867 19.6 450.587 27.28C449.307 34.704 446.139 40.272 441.083 43.984C436.091 47.696 429.755 49.552 422.075 49.552H410.363L407.483 65.968C407.163 67.44 406.651 68.496 405.947 69.136C405.307 69.712 404.219 70 402.683 70H391.835C390.299 70 389.275 69.712 388.763 69.136C388.251 68.496 388.155 67.44 388.475 65.968L399.035 5.872C399.355 4.4 399.835 3.376 400.475 2.8C401.179 2.16 402.299 1.84 403.835 1.84H430.331ZM422.747 32.752C424.987 32.752 426.843 32.112 428.315 30.832C429.851 29.552 430.811 27.856 431.195 25.744C431.579 23.568 431.227 21.84 430.139 20.56C429.115 19.28 427.483 18.64 425.243 18.64H415.835L413.339 32.752H422.747Z" fill="url(#paint0_linear_321_60)"/>
<path d="M256.616 9.616L256.732 9.52039L256.616 9.616ZM260.744 30.16L260.596 30.1334L260.596 30.1344L260.744 30.16ZM258.248 44.56L258.396 44.5861L258.396 44.5856L258.248 44.56ZM247.4 63.568L247.49 63.6883L247.49 63.6877L247.4 63.568ZM197.768 69.136L197.651 69.2298L197.656 69.2357L197.768 69.136ZM197.48 65.968L197.627 65.9999L197.628 65.994L197.48 65.968ZM208.04 5.872L207.893 5.84011L207.892 5.84604L208.04 5.872ZM209.48 2.8L209.58 2.91149L209.581 2.91099L209.48 2.8ZM241.928 29.008L241.781 28.9807L241.78 28.9823L241.928 29.008ZM224.84 18.64V18.49H224.714L224.692 18.6137L224.84 18.64ZM218.696 53.2L218.548 53.1737L218.517 53.35H218.696V53.2ZM239.528 42.832L239.676 42.8593L239.676 42.8577L239.528 42.832ZM236.168 1.99C245.486 1.99 252.251 4.57401 256.5 9.71161L256.732 9.52039C252.405 4.28999 245.538 1.69 236.168 1.69V1.99ZM256.5 9.71161C260.753 14.8523 262.127 21.6515 260.596 30.1334L260.892 30.1866C262.433 21.6445 261.055 14.7477 256.732 9.52039L256.5 9.71161ZM260.596 30.1344L258.1 44.5344L258.396 44.5856L260.892 30.1856L260.596 30.1344ZM258.1 44.5339C256.634 52.8233 253.034 59.123 247.31 63.4483L247.49 63.6877C253.286 59.309 256.918 52.9366 258.396 44.5861L258.1 44.5339ZM247.31 63.4477C241.584 67.711 233.97 69.85 224.456 69.85V70.15C234.014 70.15 241.696 68.001 247.49 63.6883L247.31 63.4477ZM224.456 69.85H200.84V70.15H224.456V69.85ZM200.84 69.85C199.309 69.85 198.346 69.5602 197.88 69.0363L197.656 69.2357C198.214 69.8638 199.299 70.15 200.84 70.15V69.85ZM197.885 69.0423C197.418 68.4581 197.309 67.4623 197.627 65.9999L197.333 65.9361C197.011 67.4177 197.094 68.5339 197.651 69.2297L197.885 69.0423ZM197.628 65.994L208.188 5.89796L207.892 5.84604L197.332 65.942L197.628 65.994ZM208.187 5.90386C208.504 4.44217 208.976 3.45581 209.58 2.91149L209.38 2.6885C208.704 3.29618 208.216 4.35783 207.893 5.84013L208.187 5.90386ZM209.581 2.91099C210.245 2.30761 211.32 1.99 212.84 1.99V1.69C211.288 1.69 210.123 2.01238 209.379 2.689L209.581 2.91099ZM212.84 1.99H236.168V1.69H212.84V1.99ZM242.075 29.0353C242.719 25.5577 242.268 22.9093 240.672 21.1318C239.078 19.3571 236.377 18.49 232.616 18.49V18.79C236.343 18.79 238.938 19.6509 240.448 21.3322C241.956 23.0107 242.417 25.5463 241.781 28.9807L242.075 29.0353ZM232.616 18.49H224.84V18.79H232.616V18.49ZM224.692 18.6137L218.548 53.1737L218.844 53.2263L224.988 18.6663L224.692 18.6137ZM218.696 53.35H226.568V53.05H218.696V53.35ZM226.568 53.35C230.271 53.35 233.227 52.4805 235.422 50.7251C237.617 48.9691 239.031 46.3409 239.675 42.8593L239.381 42.8047C238.745 46.2351 237.359 48.7909 235.234 50.4909C233.109 52.1915 230.225 53.05 226.568 53.05V53.35ZM239.676 42.8577L242.076 29.0337L241.78 28.9823L239.38 42.8063L239.676 42.8577ZM320.529 8.272L320.414 8.3682L320.415 8.3692L320.529 8.272ZM323.985 25.744L323.837 25.7171L323.837 25.7181L323.985 25.744ZM310.257 44.752L310.188 44.6185L310.056 44.6863L310.123 44.8191L310.257 44.752ZM312.081 48.88L312.222 48.8303L312.22 48.8243L312.081 48.88ZM317.841 65.296L317.983 65.2486L317.982 65.2463L317.841 65.296ZM317.649 68.656L317.523 68.5749L317.649 68.656ZM298.545 68.944L298.467 69.072L298.47 69.0738L298.545 68.944ZM296.049 65.392L295.905 65.434L295.905 65.4361L296.049 65.392ZM292.209 52.24L292.353 52.198L292.352 52.1955L292.209 52.24ZM290.193 48.4L290.087 48.5062L290.091 48.5106L290.193 48.4ZM283.761 47.344V47.194H283.635L283.613 47.3181L283.761 47.344ZM280.497 65.968L280.643 65.9999L280.645 65.9939L280.497 65.968ZM278.961 69.136L279.061 69.2475L279.062 69.247L278.961 69.136ZM261.777 69.136L261.659 69.2298L261.665 69.2357L261.777 69.136ZM261.489 65.968L261.635 65.9999L261.636 65.994L261.489 65.968ZM272.049 5.872L271.902 5.84011L271.901 5.84604L272.049 5.872ZM273.489 2.8L273.589 2.91149L273.59 2.91099L273.489 2.8ZM304.305 24.88L304.158 24.8506L304.157 24.8561L304.305 24.88ZM303.537 20.368L303.418 20.4601L303.421 20.4634L303.537 20.368ZM288.849 18.64V18.49H288.724L288.701 18.6132L288.849 18.64ZM286.545 31.312L286.397 31.2852L286.365 31.462H286.545V31.312ZM301.809 29.584L301.711 29.4701L301.708 29.4725L301.809 29.584ZM304.209 1.99C311.475 1.99 316.866 4.12407 320.414 8.3682L320.644 8.1758C317.023 3.84392 311.535 1.69 304.209 1.69V1.99ZM320.415 8.3692C324.024 12.6124 325.176 18.3858 323.837 25.7171L324.132 25.7709C325.482 18.3822 324.329 12.5076 320.643 8.1748L320.415 8.3692ZM323.837 25.7181C322.309 34.442 317.761 40.737 310.188 44.6185L310.325 44.8855C317.985 40.959 322.589 34.582 324.132 25.7699L323.837 25.7181ZM310.123 44.8191C310.696 45.9664 311.303 47.3384 311.941 48.9357L312.22 48.8243C311.579 47.2216 310.969 45.8416 310.391 44.6849L310.123 44.8191ZM311.939 48.9297L317.699 65.3457L317.982 65.2463L312.222 48.8303L311.939 48.9297ZM317.698 65.3434C318.137 66.6596 318.066 67.7288 317.523 68.5749L317.775 68.7371C318.383 67.7912 318.44 66.6204 317.983 65.2486L317.698 65.3434ZM317.523 68.5749C316.985 69.4108 315.99 69.85 314.481 69.85V70.15C316.043 70.15 317.16 69.6932 317.775 68.7371L317.523 68.5749ZM314.481 69.85H304.113V70.15H314.481V69.85ZM304.113 69.85C301.625 69.85 299.802 69.4983 298.62 68.8142L298.47 69.0738C299.72 69.7977 301.608 70.15 304.113 70.15V69.85ZM298.623 68.816C297.51 68.1361 296.697 66.9873 296.192 65.3479L295.905 65.4361C296.425 67.1247 297.275 68.3439 298.467 69.072L298.623 68.816ZM296.193 65.35L292.353 52.198L292.065 52.282L295.905 65.434L296.193 65.35ZM292.352 52.1955C291.774 50.3327 291.092 49.021 290.294 48.2894L290.091 48.5106C290.829 49.187 291.492 50.4353 292.065 52.2845L292.352 52.1955ZM290.299 48.2939C289.55 47.545 288.184 47.194 286.257 47.194V47.494C288.17 47.494 289.428 47.847 290.087 48.5061L290.299 48.2939ZM286.257 47.194H283.761V47.494H286.257V47.194ZM283.613 47.3181L280.349 65.9421L280.645 65.9939L283.909 47.3699L283.613 47.3181ZM280.35 65.9361C280.033 67.3941 279.531 68.415 278.86 69.025L279.062 69.247C279.799 68.577 280.32 67.4859 280.643 65.9999L280.35 65.9361ZM278.86 69.0245C278.263 69.5625 277.222 69.85 275.697 69.85V70.15C277.244 70.15 278.379 69.8615 279.061 69.2475L278.86 69.0245ZM275.697 69.85H264.849V70.15H275.697V69.85ZM264.849 69.85C263.318 69.85 262.354 69.5602 261.889 69.0363L261.665 69.2357C262.223 69.8638 263.308 70.15 264.849 70.15V69.85ZM261.894 69.0423C261.427 68.4581 261.317 67.4623 261.635 65.9999L261.342 65.9361C261.02 67.4177 261.103 68.5339 261.66 69.2297L261.894 69.0423ZM261.636 65.994L272.196 5.89796L271.901 5.84604L261.341 65.942L261.636 65.994ZM272.195 5.90386C272.513 4.44217 272.984 3.45581 273.589 2.91149L273.388 2.6885C272.713 3.29618 272.224 4.35783 271.902 5.84013L272.195 5.90386ZM273.59 2.91099C274.253 2.30761 275.328 1.99 276.849 1.99V1.69C275.297 1.69 274.132 2.01238 273.388 2.689L273.59 2.91099ZM276.849 1.99H304.209V1.69H276.849V1.99ZM304.452 24.9094C304.841 22.9633 304.587 21.4075 303.653 20.2726L303.421 20.4634C304.278 21.5045 304.536 22.9567 304.158 24.8506L304.452 24.9094ZM303.655 20.2759C302.72 19.0742 301.195 18.49 299.121 18.49V18.79C301.142 18.79 302.561 19.3578 303.418 20.4601L303.655 20.2759ZM299.121 18.49H288.849V18.79H299.121V18.49ZM288.701 18.6132L286.397 31.2852L286.692 31.3388L288.996 18.6668L288.701 18.6132ZM286.545 31.462H296.913V31.162H286.545V31.462ZM296.913 31.462C298.928 31.462 300.597 30.876 301.909 29.6955L301.708 29.4725C300.46 30.596 298.866 31.162 296.913 31.162V31.462ZM301.906 29.6979C303.281 28.5197 304.128 26.9179 304.453 24.9039L304.157 24.8561C303.842 26.8101 303.025 28.3443 301.711 29.4701L301.906 29.6979ZM329.374 26.32L329.226 26.2939V26.2939L329.374 26.32ZM340.221 7.12L340.13 7.0011L340.129 7.00159L340.221 7.12ZM383.614 8.08L383.499 8.17715L383.5 8.17797L383.614 8.08ZM388.03 28.432L387.882 28.4062L387.882 28.4067L388.03 28.432ZM385.053 45.808L385.201 45.8343L385.201 45.8333L385.053 45.808ZM374.109 64.816L374.019 64.6965L374.018 64.697L374.109 64.816ZM330.717 63.952L330.604 64.0499L330.604 64.0506L330.717 63.952ZM326.301 43.696L326.154 43.6699L326.154 43.6713L326.301 43.696ZM369.406 26.416L369.553 26.4421L369.553 26.4412L369.406 26.416ZM367.87 19.6L367.761 19.7039L367.763 19.7061L367.87 19.6ZM348.382 26.416L348.234 26.3898V26.3899L348.382 26.416ZM345.021 45.424L344.874 45.3979L344.874 45.3988L345.021 45.424ZM346.557 52.336L346.449 52.4399L346.451 52.4421L346.557 52.336ZM366.046 45.424L366.193 45.4502V45.4501L366.046 45.424ZM329.521 26.3461C330.988 18.0566 334.588 11.692 340.314 7.2384L340.129 7.00159C334.335 11.508 330.703 17.9434 329.226 26.2939L329.521 26.3461ZM340.313 7.23889C346.104 2.78424 353.717 0.549998 363.165 0.549998V0.249998C353.67 0.249998 345.987 2.49575 340.13 7.0011L340.313 7.23889ZM363.165 0.549998C372.419 0.549998 379.185 3.10207 383.499 8.17714L383.728 7.98285C379.338 2.81792 372.472 0.249998 363.165 0.249998V0.549998ZM383.5 8.17797C387.879 13.2551 389.348 19.9896 387.882 28.4062L388.177 28.4577C389.655 19.9784 388.18 13.1449 383.727 7.98203L383.5 8.17797ZM387.882 28.4067L384.906 45.7827L385.201 45.8333L388.177 28.4573L387.882 28.4067ZM384.906 45.7817C383.439 54.0064 379.808 60.3066 374.019 64.6965L374.2 64.9355C380.059 60.4934 383.724 54.1216 385.201 45.8343L384.906 45.7817ZM374.018 64.697C368.291 69.0875 360.711 71.29 351.262 71.29V71.59C360.756 71.59 368.408 69.3765 374.201 64.935L374.018 64.697ZM351.262 71.29C341.942 71.29 335.144 68.801 330.831 63.8534L330.604 64.0506C334.995 69.087 341.893 71.59 351.262 71.59V71.29ZM330.831 63.8541C326.516 58.841 325.047 52.1382 326.449 43.7207L326.154 43.6713C324.74 52.1498 326.215 58.951 330.604 64.0499L330.831 63.8541ZM326.449 43.7221L329.521 26.3461L329.226 26.2939L326.154 43.6699L326.449 43.7221ZM369.553 26.4412C370.07 23.4061 369.559 21.0769 367.976 19.4939L367.763 19.7061C369.252 21.195 369.765 23.4099 369.258 26.3908L369.553 26.4412ZM367.978 19.4961C366.402 17.8547 363.922 17.05 360.574 17.05V17.35C363.881 17.35 366.265 18.1453 367.761 19.7039L367.978 19.4961ZM360.574 17.05C357.033 17.05 354.221 17.8224 352.155 19.3843C350.086 20.948 348.783 23.2894 348.234 26.3898L348.529 26.4422C349.068 23.3986 350.341 21.132 352.336 19.6237C354.334 18.1136 357.074 17.35 360.574 17.35V17.05ZM348.234 26.3899L344.874 45.3979L345.169 45.4501L348.529 26.4421L348.234 26.3899ZM344.874 45.3988C344.357 48.4348 344.869 50.7938 346.449 52.4399L346.666 52.2321C345.174 50.6782 344.662 48.4292 345.169 45.4492L344.874 45.3988ZM346.451 52.4421C348.028 54.0185 350.539 54.79 353.95 54.79V54.49C350.576 54.49 348.159 53.7255 346.664 52.2299L346.451 52.4421ZM353.95 54.79C357.458 54.79 360.246 54.0175 362.296 52.4553C364.349 50.8915 365.644 48.5503 366.193 45.4502L365.898 45.3978C365.359 48.4417 364.094 50.7085 362.115 52.2167C360.133 53.7265 357.417 54.49 353.95 54.49V54.79ZM366.193 45.4501L369.553 26.4421L369.258 26.3899L365.898 45.3979L366.193 45.4501ZM447.035 8.848L446.917 8.94031L446.917 8.9411L447.035 8.848ZM450.587 27.28L450.735 27.3055L450.735 27.3047L450.587 27.28ZM441.083 43.984L440.994 43.8631L440.993 43.8636L441.083 43.984ZM410.363 49.552V49.402H410.237L410.215 49.5261L410.363 49.552ZM407.483 65.968L407.63 65.9999L407.631 65.9939L407.483 65.968ZM405.947 69.136L406.047 69.2475L406.048 69.247L405.947 69.136ZM388.763 69.136L388.646 69.2298L388.651 69.2357L388.763 69.136ZM388.475 65.968L388.622 65.9999L388.623 65.994L388.475 65.968ZM399.035 5.872L398.888 5.84011L398.887 5.84604L399.035 5.872ZM400.475 2.8L400.575 2.91149L400.576 2.91099L400.475 2.8ZM428.315 30.832L428.219 30.7167L428.217 30.7188L428.315 30.832ZM431.195 25.744L431.343 25.7708L431.343 25.7701L431.195 25.744ZM430.139 20.56L430.022 20.6537L430.025 20.6571L430.139 20.56ZM415.835 18.64V18.49H415.709L415.687 18.6139L415.835 18.64ZM413.339 32.752L413.191 32.7259L413.16 32.902H413.339V32.752ZM430.331 1.99C437.786 1.99 443.305 4.31408 446.917 8.94031L447.153 8.75568C443.469 4.03792 437.852 1.69 430.331 1.69V1.99ZM446.917 8.9411C450.531 13.506 451.714 19.6028 450.439 27.2553L450.735 27.3047C452.02 19.5972 450.835 13.406 447.153 8.75489L446.917 8.9411ZM450.439 27.2545C449.164 34.6484 446.013 40.1785 440.994 43.8631L441.172 44.1049C446.265 40.3655 449.45 34.7596 450.735 27.3055L450.439 27.2545ZM440.993 43.8636C436.033 47.5523 429.73 49.402 422.075 49.402V49.702C429.78 49.702 436.149 47.8397 441.173 44.1044L440.993 43.8636ZM422.075 49.402H410.363V49.702H422.075V49.402ZM410.215 49.5261L407.335 65.9421L407.631 65.9939L410.511 49.5779L410.215 49.5261ZM407.336 65.9361C407.019 67.3941 406.517 68.415 405.846 69.025L406.048 69.247C406.785 68.577 407.307 67.4859 407.63 65.9999L407.336 65.9361ZM405.847 69.0245C405.249 69.5625 404.208 69.85 402.683 69.85V70.15C404.23 70.15 405.365 69.8615 406.047 69.2475L405.847 69.0245ZM402.683 69.85H391.835V70.15H402.683V69.85ZM391.835 69.85C390.304 69.85 389.341 69.5602 388.875 69.0363L388.651 69.2357C389.209 69.8638 390.294 70.15 391.835 70.15V69.85ZM388.88 69.0423C388.413 68.4581 388.304 67.4623 388.622 65.9999L388.328 65.9361C388.006 67.4177 388.089 68.5339 388.646 69.2297L388.88 69.0423ZM388.623 65.994L399.183 5.89796L398.887 5.84604L388.327 65.942L388.623 65.994ZM399.182 5.90386C399.499 4.44217 399.971 3.45581 400.575 2.91149L400.375 2.6885C399.699 3.29618 399.211 4.35783 398.888 5.84013L399.182 5.90386ZM400.576 2.91099C401.24 2.30761 402.315 1.99 403.835 1.99V1.69C402.283 1.69 401.118 2.01238 400.374 2.689L400.576 2.91099ZM403.835 1.99H430.331V1.69H403.835V1.99ZM422.747 32.902C425.017 32.902 426.91 32.2524 428.413 30.9452L428.217 30.7188C426.776 31.9716 424.957 32.602 422.747 32.602V32.902ZM428.411 30.9472C429.976 29.643 430.953 27.9147 431.343 25.7708L431.047 25.7172C430.669 27.7973 429.726 29.461 428.219 30.7168L428.411 30.9472ZM431.343 25.7701C431.732 23.5649 431.379 21.7869 430.253 20.4628L430.025 20.6571C431.075 21.8931 431.426 23.5711 431.047 25.7179L431.343 25.7701ZM430.256 20.4663C429.194 19.1388 427.511 18.49 425.243 18.49V18.79C427.455 18.79 429.036 19.4212 430.022 20.6537L430.256 20.4663ZM425.243 18.49H415.835V18.79H425.243V18.49ZM415.687 18.6139L413.191 32.7259L413.487 32.7781L415.983 18.6661L415.687 18.6139ZM413.339 32.902H422.747V32.602H413.339V32.902Z" fill="url(#paint1_linear_321_60)"/>
<path d="M68.248 66.064C68.76 68.688 67.576 70 64.696 70H54.712C52.344 70 50.712 69.712 49.816 69.136C48.92 68.56 48.408 67.504 48.28 65.968L47.32 59.056H26.488L23.128 65.968C22.36 67.504 21.464 68.56 20.44 69.136C19.416 69.712 17.752 70 15.448 70H4.888C2.2 70 1.592 68.688 3.064 66.064L35.896 5.2C36.6 3.856 37.336 2.96 38.104 2.512C38.872 2.064 39.992 1.84 41.464 1.84H52.312C53.72 1.84 54.744 2.064 55.384 2.512C56.088 2.96 56.568 3.792 56.824 5.008L68.248 66.064ZM44.056 32.752C43.864 30.512 43.768 28.4 43.768 26.416C43.832 24.368 43.928 22.672 44.056 21.328L44.344 19.312H43.48C42.648 23.92 41.208 28.368 39.16 32.656L33.688 43.984H45.592L44.056 32.752ZM75.2733 25.936C76.6813 17.68 80.2973 11.376 86.1213 7.024C92.0093 2.608 99.6893 0.399998 109.161 0.399998C122.985 0.399998 130.953 6.096 133.065 17.488C133.385 18.896 133.289 20.016 132.777 20.848C132.329 21.616 131.337 22.224 129.801 22.672L119.913 26.032C118.377 26.48 117.257 26.544 116.553 26.224C115.913 25.84 115.433 24.912 115.113 23.44C114.665 21.264 113.769 19.696 112.425 18.736C111.081 17.712 109.065 17.2 106.377 17.2C102.665 17.2 99.8173 18.032 97.8333 19.696C95.9133 21.296 94.6653 23.792 94.0893 27.184L90.9213 44.656C90.3453 48.048 90.7293 50.576 92.0733 52.24C93.4813 53.84 96.0413 54.64 99.7533 54.64C104.809 54.64 108.489 52.56 110.793 48.4C111.689 46.864 112.521 45.936 113.289 45.616C114.057 45.232 115.113 45.296 116.457 45.808L126.441 49.648C128.937 50.544 129.481 52.272 128.073 54.832C122.057 65.904 111.721 71.44 97.0653 71.44C87.7853 71.44 80.9373 68.912 76.5213 63.856C72.1693 58.8 70.6973 52.08 72.1053 43.696L75.2733 25.936ZM186.582 1.84C188.118 1.84 189.142 2.16 189.654 2.8C190.166 3.376 190.294 4.4 190.038 5.872L188.502 14.512C188.246 16.048 187.734 17.136 186.966 17.776C186.262 18.352 185.174 18.64 183.702 18.64H158.358L156.822 27.184H177.078C178.614 27.184 179.606 27.504 180.054 28.144C180.566 28.72 180.694 29.744 180.438 31.216L178.902 39.856C178.582 41.392 178.07 42.48 177.366 43.12C176.726 43.696 175.638 43.984 174.102 43.984H153.846L152.214 53.2H178.422C179.894 53.2 180.854 53.488 181.302 54.064C181.814 54.64 181.942 55.696 181.686 57.232L180.15 65.968C179.894 67.44 179.414 68.496 178.71 69.136C178.006 69.712 176.886 70 175.35 70H134.358C132.822 70 131.798 69.712 131.286 69.136C130.774 68.496 130.678 67.44 130.998 65.968L141.558 5.872C141.878 4.4 142.358 3.376 142.998 2.8C143.702 2.16 144.822 1.84 146.358 1.84H186.582Z" fill="url(#paint2_linear_321_60)"/>
<path d="M68.248 66.064L68.1006 66.0916L68.1008 66.0927L68.248 66.064ZM48.28 65.968L48.4297 65.9555L48.4286 65.9474L48.28 65.968ZM47.32 59.056L47.4686 59.0354L47.4506 58.906H47.32V59.056ZM26.488 59.056V58.906H26.3941L26.3531 58.9904L26.488 59.056ZM23.128 65.968L23.2622 66.0351L23.2629 66.0336L23.128 65.968ZM20.44 69.136L20.3665 69.0053L20.44 69.136ZM3.064 66.064L3.19484 66.1374L3.19602 66.1352L3.064 66.064ZM35.896 5.2L36.028 5.27122L36.0289 5.2696L35.896 5.2ZM38.104 2.512L38.1796 2.64157V2.64157L38.104 2.512ZM55.384 2.512L55.2979 2.635L55.3035 2.63855L55.384 2.512ZM56.824 5.008L56.9715 4.9804L56.9708 4.97709L56.824 5.008ZM44.056 32.752L43.9064 32.7648L43.9074 32.7723L44.056 32.752ZM43.768 26.416L43.618 26.4113V26.416H43.768ZM44.056 21.328L43.9073 21.3068L43.9067 21.3138L44.056 21.328ZM44.344 19.312L44.4925 19.3332L44.517 19.162H44.344V19.312ZM43.48 19.312V19.162H43.3547L43.3324 19.2853L43.48 19.312ZM39.16 32.656L39.2951 32.7212L39.2954 32.7206L39.16 32.656ZM33.688 43.984L33.5529 43.9188L33.449 44.134H33.688V43.984ZM45.592 43.984V44.134H45.7639L45.7406 43.9637L45.592 43.984ZM68.1008 66.0927C68.3525 67.3829 68.1794 68.3097 67.6326 68.9155C67.0828 69.5248 66.1195 69.85 64.696 69.85V70.15C66.1525 70.15 67.2213 69.8192 67.8554 69.1165C68.4926 68.4103 68.6555 67.3691 68.3952 66.0353L68.1008 66.0927ZM64.696 69.85H54.712V70.15H64.696V69.85ZM54.712 69.85C53.5334 69.85 52.5427 69.7783 51.7381 69.6363C50.9319 69.494 50.3217 69.2828 49.8971 69.0098L49.7349 69.2622C50.2063 69.5652 50.8601 69.786 51.6859 69.9317C52.5133 70.0777 53.5226 70.15 54.712 70.15V69.85ZM49.8971 69.0098C49.0556 68.4689 48.5554 67.4668 48.4295 65.9555L48.1305 65.9805C48.2606 67.5412 48.7844 68.6511 49.7349 69.2622L49.8971 69.0098ZM48.4286 65.9474L47.4686 59.0354L47.1714 59.0766L48.1314 65.9886L48.4286 65.9474ZM47.32 58.906H26.488V59.206H47.32V58.906ZM26.3531 58.9904L22.9931 65.9024L23.2629 66.0336L26.6229 59.1216L26.3531 58.9904ZM22.9938 65.9009C22.2334 67.4219 21.3549 68.4493 20.3665 69.0053L20.5135 69.2667C21.5731 68.6707 22.4866 67.5861 23.2622 66.0351L22.9938 65.9009ZM20.3665 69.0053C19.3777 69.5614 17.7466 69.85 15.448 69.85V70.15C17.7574 70.15 19.4543 69.8626 20.5135 69.2667L20.3665 69.0053ZM15.448 69.85H4.888V70.15H15.448V69.85ZM4.888 69.85C3.55104 69.85 2.81553 69.5214 2.5521 68.9529C2.41839 68.6644 2.39283 68.2905 2.49651 67.8182C2.60019 67.3458 2.83086 66.7862 3.19482 66.1374L2.93318 65.9906C2.56114 66.6538 2.31581 67.2422 2.20349 67.7538C2.09117 68.2655 2.10961 68.7116 2.2799 69.0791C2.62447 69.8226 3.53696 70.15 4.888 70.15V69.85ZM3.19602 66.1352L36.028 5.27121L35.764 5.12878L2.93198 65.9928L3.19602 66.1352ZM36.0289 5.2696C36.728 3.93497 37.4476 3.06853 38.1796 2.64157L38.0284 2.38243C37.2244 2.85147 36.472 3.77702 35.7631 5.1304L36.0289 5.2696ZM38.1796 2.64157C38.9142 2.21304 40.0031 1.99 41.464 1.99V1.69C39.9809 1.69 38.8298 1.91495 38.0284 2.38243L38.1796 2.64157ZM41.464 1.99H52.312V1.69H41.464V1.99ZM52.312 1.99C53.7108 1.99 54.6964 2.2138 55.298 2.63488L55.47 2.38911C54.7916 1.9142 53.7292 1.69 52.312 1.69V1.99ZM55.3035 2.63855C55.9598 3.05622 56.4255 3.84318 56.6772 5.0389L56.9708 4.97709C56.7105 3.74081 56.2162 2.86378 55.4645 2.38545L55.3035 2.63855ZM56.6766 5.03558L68.1006 66.0916L68.3954 66.0364L56.9714 4.98041L56.6766 5.03558ZM44.2055 32.7392C44.0138 30.5029 43.918 28.3952 43.918 26.416H43.618C43.618 28.4048 43.7142 30.5211 43.9065 32.7648L44.2055 32.7392ZM43.9179 26.4207C43.9819 24.3744 44.0777 22.6819 44.2053 21.3422L43.9067 21.3138C43.7783 22.6621 43.6821 24.3616 43.6181 26.4113L43.9179 26.4207ZM44.2045 21.3492L44.4925 19.3332L44.1955 19.2908L43.9075 21.3068L44.2045 21.3492ZM44.344 19.162H43.48V19.462H44.344V19.162ZM43.3324 19.2853C42.5028 23.88 41.067 28.3152 39.0246 32.5914L39.2954 32.7206C41.349 28.4208 42.7932 23.96 43.6276 19.3387L43.3324 19.2853ZM39.0249 32.5908L33.5529 43.9188L33.8231 44.0492L39.2951 32.7212L39.0249 32.5908ZM33.688 44.134H45.592V43.834H33.688V44.134ZM45.7406 43.9637L44.2046 32.7317L43.9074 32.7723L45.4434 44.0043L45.7406 43.9637ZM75.2733 25.936L75.4209 25.9623L75.4211 25.9612L75.2733 25.936ZM86.1213 7.024L86.211 7.14416L86.2113 7.144L86.1213 7.024ZM133.065 17.488L132.918 17.5154L132.919 17.5212L133.065 17.488ZM132.777 20.848L132.649 20.7694L132.648 20.7724L132.777 20.848ZM129.801 22.672L129.759 22.5279L129.753 22.53L129.801 22.672ZM119.913 26.032L119.955 26.1761L119.962 26.174L119.913 26.032ZM116.553 26.224L116.476 26.3526L116.483 26.357L116.491 26.3606L116.553 26.224ZM115.113 23.44L114.966 23.4702L114.967 23.4719L115.113 23.44ZM112.425 18.736L112.334 18.8554L112.338 18.8581L112.425 18.736ZM97.8333 19.696L97.9293 19.8112L97.9296 19.8109L97.8333 19.696ZM94.0892 27.184L94.2369 27.2108L94.2371 27.2091L94.0892 27.184ZM90.9212 44.656L90.7737 44.6292L90.7734 44.6309L90.9212 44.656ZM92.0732 52.24L91.9565 52.3343L91.9606 52.3391L92.0732 52.24ZM110.793 48.4L110.664 48.3244L110.662 48.3273L110.793 48.4ZM113.289 45.616L113.347 45.7548L113.356 45.7502L113.289 45.616ZM116.457 45.808L116.511 45.668L116.511 45.6678L116.457 45.808ZM126.441 49.648L126.387 49.788L126.391 49.7892L126.441 49.648ZM128.073 54.832L127.942 54.7597L127.941 54.7604L128.073 54.832ZM76.5212 63.856L76.4076 63.9539L76.4083 63.9547L76.5212 63.856ZM72.1052 43.696L71.9576 43.6697L71.9573 43.6712L72.1052 43.696ZM75.4211 25.9612C76.8237 17.7369 80.4226 11.4696 86.211 7.14416L86.0315 6.90384C80.172 11.2824 76.5388 17.6231 75.1254 25.9108L75.4211 25.9612ZM86.2113 7.144C92.0667 2.75243 99.7123 0.549998 109.161 0.549998V0.249998C99.6662 0.249998 91.9518 2.46357 86.0312 6.904L86.2113 7.144ZM109.161 0.549998C116.054 0.549998 121.468 1.97032 125.418 4.79402C129.365 7.61539 131.867 11.85 132.918 17.5153L133.213 17.4607C132.151 11.7339 129.614 7.4246 125.592 4.54997C121.575 1.67767 116.092 0.249998 109.161 0.249998V0.549998ZM132.919 17.5212C133.234 18.9091 133.133 19.9839 132.65 20.7694L132.905 20.9266C133.446 20.0481 133.536 18.8829 133.212 17.4548L132.919 17.5212ZM132.648 20.7724C132.23 21.4892 131.285 22.083 129.759 22.528L129.843 22.816C131.389 22.365 132.429 21.7428 132.907 20.9236L132.648 20.7724ZM129.753 22.53L119.865 25.89L119.962 26.174L129.85 22.814L129.753 22.53ZM119.871 25.888C118.339 26.3349 117.266 26.3832 116.615 26.0874L116.491 26.3606C117.248 26.7048 118.416 26.6251 119.955 26.176L119.871 25.888ZM116.63 26.0954C116.048 25.7461 115.579 24.8756 115.26 23.4081L114.967 23.4719C115.288 24.9484 115.778 25.9339 116.476 26.3526L116.63 26.0954ZM115.26 23.4097C114.807 21.2097 113.897 19.6026 112.512 18.6139L112.338 18.8581C113.642 19.7894 114.523 21.3183 114.966 23.4702L115.26 23.4097ZM112.516 18.6167C111.135 17.5641 109.08 17.05 106.377 17.05V17.35C109.05 17.35 111.028 17.8599 112.334 18.8553L112.516 18.6167ZM106.377 17.05C102.645 17.05 99.7575 17.8864 97.7369 19.5811L97.9296 19.8109C99.877 18.1776 102.686 17.35 106.377 17.35V17.05ZM97.7372 19.5808C95.7809 21.211 94.5211 23.7449 93.9414 27.1589L94.2371 27.2091C94.8094 23.8391 96.0456 21.381 97.9293 19.8112L97.7372 19.5808ZM93.9417 27.1572L90.7737 44.6292L91.0688 44.6828L94.2368 27.2108L93.9417 27.1572ZM90.7734 44.6309C90.1945 48.04 90.5728 50.621 91.9566 52.3343L92.1899 52.1457C90.8857 50.531 90.496 48.056 91.0691 44.6811L90.7734 44.6309ZM91.9606 52.3391C93.4124 53.9888 96.0284 54.79 99.7533 54.79V54.49C96.0541 54.49 93.5502 53.6912 92.1859 52.1409L91.9606 52.3391ZM99.7533 54.79C102.302 54.79 104.513 54.2656 106.379 53.2106C108.246 52.1553 109.761 50.5738 110.924 48.4727L110.662 48.3273C109.522 50.3862 108.044 51.9247 106.231 52.9494C104.418 53.9744 102.26 54.49 99.7533 54.49V54.79ZM110.923 48.4756C111.818 46.9418 112.628 46.0539 113.347 45.7545L113.232 45.4775C112.414 45.8181 111.561 46.7862 110.664 48.3244L110.923 48.4756ZM113.356 45.7502C114.068 45.3943 115.074 45.4415 116.404 45.9482L116.511 45.6678C115.153 45.1505 114.047 45.0697 113.222 45.4818L113.356 45.7502ZM116.403 45.948L126.387 49.788L126.495 49.508L116.511 45.668L116.403 45.948ZM126.391 49.7892C127.616 50.229 128.326 50.8597 128.578 51.661C128.832 52.4677 128.638 53.4944 127.942 54.7597L128.205 54.9043C128.917 53.6096 129.154 52.4923 128.864 51.571C128.573 50.6443 127.763 49.963 126.492 49.5068L126.391 49.7892ZM127.941 54.7604C121.956 65.7753 111.677 71.29 97.0653 71.29V71.59C111.765 71.59 122.158 66.0327 128.205 54.9036L127.941 54.7604ZM97.0653 71.29C87.8113 71.29 81.0121 68.7696 76.6342 63.7573L76.4083 63.9547C80.8624 69.0544 87.7592 71.59 97.0653 71.59V71.29ZM76.6349 63.7581C72.3197 58.7448 70.8504 52.0739 72.2532 43.7208L71.9573 43.6712C70.5441 52.0861 72.0188 58.8552 76.4076 63.9539L76.6349 63.7581ZM72.2529 43.7223L75.4209 25.9623L75.1256 25.9097L71.9576 43.6697L72.2529 43.7223ZM189.654 2.8L189.536 2.89383L189.541 2.89965L189.654 2.8ZM190.038 5.872L190.185 5.89825L190.185 5.8977L190.038 5.872ZM188.502 14.512L188.354 14.4857L188.354 14.4873L188.502 14.512ZM186.965 17.776L187.06 17.8921L187.062 17.8912L186.965 17.776ZM158.357 18.64V18.49H158.232L158.21 18.6135L158.357 18.64ZM156.822 27.184L156.674 27.1575L156.642 27.334H156.822V27.184ZM180.053 28.144L179.931 28.23L179.936 28.2371L179.941 28.2437L180.053 28.144ZM180.438 31.216L180.585 31.2423L180.585 31.2417L180.438 31.216ZM178.902 39.856L179.048 39.8866L179.049 39.8823L178.902 39.856ZM177.366 43.12L177.466 43.2315L177.466 43.231L177.366 43.12ZM153.846 43.984V43.834H153.72L153.698 43.9578L153.846 43.984ZM152.214 53.2L152.066 53.1738L152.035 53.35H152.214V53.2ZM181.302 54.064L181.183 54.1563L181.189 54.1637L181.302 54.064ZM181.686 57.232L181.833 57.258L181.833 57.2567L181.686 57.232ZM180.15 65.968L180.002 65.942L180.002 65.9423L180.15 65.968ZM178.71 69.136L178.805 69.2523L178.81 69.247L178.71 69.136ZM131.285 69.136L131.168 69.2298L131.173 69.2357L131.285 69.136ZM130.998 65.968L131.144 65.9999L131.145 65.994L130.998 65.968ZM141.557 5.872L141.411 5.84011L141.41 5.84604L141.557 5.872ZM142.997 2.8L143.098 2.91149L143.098 2.91099L142.997 2.8ZM186.582 1.99C188.109 1.99 189.07 2.31055 189.536 2.8937L189.771 2.70629C189.213 2.00944 188.126 1.69 186.582 1.69V1.99ZM189.541 2.89965C190.004 3.42022 190.145 4.38073 189.89 5.84629L190.185 5.8977C190.442 4.41926 190.327 3.33177 189.766 2.70034L189.541 2.89965ZM189.89 5.84574L188.354 14.4857L188.649 14.5383L190.185 5.89825L189.89 5.84574ZM188.354 14.4873C188.1 16.0067 187.598 17.0536 186.869 17.6608L187.062 17.8912C187.869 17.2184 188.391 16.0893 188.649 14.5367L188.354 14.4873ZM186.871 17.6599C186.205 18.204 185.159 18.49 183.702 18.49V18.79C185.188 18.79 186.318 18.5 187.06 17.8921L186.871 17.6599ZM183.702 18.49H158.357V18.79H183.702V18.49ZM158.21 18.6135L156.674 27.1575L156.969 27.2105L158.505 18.6665L158.21 18.6135ZM156.822 27.334H177.077V27.034H156.822V27.334ZM177.077 27.334C178.608 27.334 179.529 27.656 179.931 28.23L180.176 28.058C179.682 27.352 178.619 27.034 177.077 27.034V27.334ZM179.941 28.2437C180.404 28.7642 180.545 29.7247 180.29 31.1903L180.585 31.2417C180.842 29.7633 180.727 28.6758 180.166 28.0443L179.941 28.2437ZM180.29 31.1897L178.754 39.8297L179.049 39.8823L180.585 31.2423L180.29 31.1897ZM178.755 39.8254C178.437 41.3487 177.934 42.4001 177.265 43.009L177.466 43.231C178.205 42.5599 178.726 41.4353 179.048 39.8866L178.755 39.8254ZM177.265 43.0085C176.667 43.5465 175.627 43.834 174.102 43.834V44.134C175.648 44.134 176.784 43.8455 177.466 43.2315L177.265 43.0085ZM174.102 43.834H153.846V44.134H174.102V43.834ZM153.698 43.9578L152.066 53.1738L152.361 53.2262L153.993 44.0102L153.698 43.9578ZM152.214 53.35H178.422V53.05H152.214V53.35ZM178.422 53.35C179.149 53.35 179.741 53.4213 180.202 53.5597C180.663 53.698 180.984 53.9004 181.183 54.1561L181.42 53.9719C181.171 53.6516 180.788 53.422 180.289 53.2723C179.79 53.1227 179.166 53.05 178.422 53.05V53.35ZM181.189 54.1637C181.419 54.4216 181.571 54.7972 181.633 55.306C181.694 55.8149 181.664 56.4476 181.538 57.2073L181.833 57.2567C181.963 56.4804 181.997 55.8171 181.93 55.27C181.864 54.7228 181.696 54.2824 181.414 53.9643L181.189 54.1637ZM181.538 57.206L180.002 65.942L180.297 65.994L181.833 57.258L181.538 57.206ZM180.002 65.9423C179.748 67.399 179.277 68.417 178.609 69.025L178.81 69.247C179.55 68.575 180.039 67.481 180.297 65.9937L180.002 65.9423ZM178.615 69.0199C177.95 69.5633 176.873 69.85 175.35 69.85V70.15C176.898 70.15 178.061 69.8607 178.804 69.2521L178.615 69.0199ZM175.35 69.85H134.358V70.15H175.35V69.85ZM134.358 69.85C132.827 69.85 131.863 69.5602 131.398 69.0363L131.173 69.2357C131.732 69.8638 132.816 70.15 134.358 70.15V69.85ZM131.403 69.0423C130.935 68.4581 130.826 67.4623 131.144 65.9999L130.851 65.9361C130.529 67.4177 130.612 68.5339 131.168 69.2297L131.403 69.0423ZM131.145 65.994L141.705 5.89796L141.41 5.84604L130.85 65.942L131.145 65.994ZM141.704 5.90386C142.022 4.44217 142.493 3.45581 143.098 2.91149L142.897 2.6885C142.222 3.29618 141.733 4.35783 141.411 5.84013L141.704 5.90386ZM143.098 2.91099C143.762 2.30761 144.837 1.99 146.357 1.99V1.69C144.806 1.69 143.641 2.01238 142.897 2.689L143.098 2.91099ZM146.357 1.99H186.582V1.69H146.357V1.99Z" fill="url(#paint3_linear_321_60)"/>
<defs>
<linearGradient id="paint0_linear_321_60" x1="197" y1="37" x2="375.277" y2="195.277" gradientUnits="userSpaceOnUse">
<stop stop-color="#D1D1D1"/>
<stop offset="1" stop-color="#D1D1D1" stop-opacity="0.47"/>
</linearGradient>
<linearGradient id="paint1_linear_321_60" x1="329.5" y1="1" x2="329.5" y2="73" gradientUnits="userSpaceOnUse">
<stop offset="0.206492" stop-color="white"/>
<stop offset="0.478015" stop-color="#FFE7AA" stop-opacity="0"/>
<stop offset="0.689643" stop-color="#FFE7AA"/>
<stop offset="1" stop-color="#FFE7AA" stop-opacity="0"/>
</linearGradient>
<linearGradient id="paint2_linear_321_60" x1="180.394" y1="70" x2="-42.4311" y2="-80.3905" gradientUnits="userSpaceOnUse">
<stop stop-color="#D1D1D1"/>
<stop offset="1" stop-color="#D1D1D1" stop-opacity="0.47"/>
</linearGradient>
<linearGradient id="paint3_linear_321_60" x1="104" y1="1" x2="104" y2="73" gradientUnits="userSpaceOnUse">
<stop offset="0.206492" stop-color="white"/>
<stop offset="0.478015" stop-color="#FFE7AA" stop-opacity="0"/>
<stop offset="0.689643" stop-color="#FFE7AA"/>
<stop offset="1" stop-color="#FFE7AA" stop-opacity="0"/>
</linearGradient>
</defs>
</svg>
