<svg width="160" height="256" viewBox="0 0 160 256" fill="none" xmlns="http://www.w3.org/2000/svg">
<g clip-path="url(#clip0_181_514)">
<rect x="5" y="5" width="150" height="246" rx="11" fill="url(#paint0_linear_181_514)" stroke="url(#paint1_linear_181_514)" stroke-width="10"/>
<g style="mix-blend-mode:overlay" opacity="0.5">
<line x1="-138.567" y1="54.75" x2="21.433" y2="331.878" stroke="#FFD9D9"/>
<line x1="-124.712" y1="46.75" x2="35.2885" y2="323.878" stroke="#FFD9D9"/>
<line x1="-110.854" y1="38.75" x2="49.1459" y2="315.878" stroke="#FFD9D9"/>
<line x1="-96.9986" y1="30.75" x2="63.0014" y2="307.878" stroke="#FFD9D9"/>
<line x1="-83.1412" y1="22.75" x2="76.8588" y2="299.878" stroke="#FFD9D9"/>
<line x1="-69.2857" y1="14.75" x2="90.7143" y2="291.878" stroke="#FFD9D9"/>
<line x1="-55.4283" y1="6.75" x2="104.572" y2="283.878" stroke="#FFD9D9"/>
<line x1="-41.5728" y1="-1.25" x2="118.427" y2="275.878" stroke="#FFD9D9"/>
<line x1="-27.7154" y1="-9.25" x2="132.285" y2="267.878" stroke="#FFD9D9"/>
<line x1="-13.86" y1="-17.25" x2="146.14" y2="259.878" stroke="#FFD9D9"/>
<line x1="-0.00253418" y1="-25.25" x2="159.997" y2="251.878" stroke="#FFD9D9"/>
<line x1="13.8529" y1="-33.25" x2="173.853" y2="243.878" stroke="#FFD9D9"/>
<line x1="27.7104" y1="-41.25" x2="187.71" y2="235.878" stroke="#FFD9D9"/>
<line x1="41.5658" y1="-49.25" x2="201.566" y2="227.878" stroke="#FFD9D9"/>
<line x1="55.4232" y1="-57.25" x2="215.423" y2="219.878" stroke="#FFD9D9"/>
<line x1="69.2787" y1="-65.25" x2="229.279" y2="211.878" stroke="#FFD9D9"/>
<line x1="83.1361" y1="-73.25" x2="243.136" y2="203.878" stroke="#FFD9D9"/>
<line x1="96.9916" y1="-81.25" x2="256.992" y2="195.878" stroke="#FFD9D9"/>
<line x1="110.849" y1="-89.25" x2="270.849" y2="187.878" stroke="#FFD9D9"/>
<line x1="124.704" y1="-97.25" x2="284.704" y2="179.878" stroke="#FFD9D9"/>
<line x1="138.562" y1="-105.25" x2="298.562" y2="171.878" stroke="#FFD9D9"/>
<line x1="152.417" y1="-113.25" x2="312.417" y2="163.878" stroke="#FFD9D9"/>
</g>
<g style="mix-blend-mode:overlay" opacity="0.5">
<line x1="11.433" y1="-79.75" x2="-148.567" y2="197.378" stroke="#FFD9D9"/>
<line x1="25.2885" y1="-71.75" x2="-134.712" y2="205.378" stroke="#FFD9D9"/>
<line x1="39.1459" y1="-63.75" x2="-120.854" y2="213.378" stroke="#FFD9D9"/>
<line x1="53.0014" y1="-55.75" x2="-106.999" y2="221.378" stroke="#FFD9D9"/>
<line x1="66.8588" y1="-47.75" x2="-93.1412" y2="229.378" stroke="#FFD9D9"/>
<line x1="80.7143" y1="-39.75" x2="-79.2858" y2="237.378" stroke="#FFD9D9"/>
<line x1="94.5717" y1="-31.75" x2="-65.4283" y2="245.378" stroke="#FFD9D9"/>
<line x1="108.427" y1="-23.75" x2="-51.5729" y2="253.378" stroke="#FFD9D9"/>
<line x1="122.285" y1="-15.75" x2="-37.7154" y2="261.378" stroke="#FFD9D9"/>
<line x1="136.14" y1="-7.75" x2="-23.86" y2="269.378" stroke="#FFD9D9"/>
<line x1="149.997" y1="0.25" x2="-10.0026" y2="277.378" stroke="#FFD9D9"/>
<line x1="163.853" y1="8.25" x2="3.85293" y2="285.378" stroke="#FFD9D9"/>
<line x1="177.71" y1="16.25" x2="17.7104" y2="293.378" stroke="#FFD9D9"/>
<line x1="191.566" y1="24.25" x2="31.5658" y2="301.378" stroke="#FFD9D9"/>
<line x1="205.423" y1="32.25" x2="45.4232" y2="309.378" stroke="#FFD9D9"/>
<line x1="219.279" y1="40.25" x2="59.2787" y2="317.378" stroke="#FFD9D9"/>
<line x1="233.136" y1="48.25" x2="73.1361" y2="325.378" stroke="#FFD9D9"/>
<line x1="246.992" y1="56.25" x2="86.9916" y2="333.378" stroke="#FFD9D9"/>
<line x1="260.849" y1="64.25" x2="100.849" y2="341.378" stroke="#FFD9D9"/>
<line x1="274.704" y1="72.25" x2="114.704" y2="349.378" stroke="#FFD9D9"/>
<line x1="288.562" y1="80.25" x2="128.562" y2="357.378" stroke="#FFD9D9"/>
<line x1="302.417" y1="88.25" x2="142.417" y2="365.378" stroke="#FFD9D9"/>
</g>
<rect x="12.25" y="12.25" width="135.5" height="231.5" rx="5.75" stroke="#FFE7AA" stroke-width="0.5"/>
<path fill-rule="evenodd" clip-rule="evenodd" d="M117.37 115.256C117.424 114.877 117.388 114.61 117.264 114.456C117.14 114.302 116.889 114.15 116.52 114.225C116.219 114.287 115.429 114.624 114.846 114.872C114.713 114.929 114.59 114.981 114.486 115.025C113.932 115.256 112.692 115.932 112.515 116.085C112.338 116.239 112.213 116.506 112.143 116.886L112.027 117.482H110.858C110.485 117.482 110.215 117.559 110.047 117.712C109.878 117.866 109.759 118.133 109.688 118.513L109.316 120.548C109.245 120.946 109.271 121.222 109.396 121.376C109.52 121.53 109.777 121.607 110.166 121.607H111.31L110.565 125.948C110.175 128.174 110.441 129.739 111.363 130.643C112.284 131.548 113.924 131.982 116.281 131.946C116.688 131.946 116.976 131.869 117.145 131.715C117.313 131.561 117.433 131.285 117.503 130.887L117.929 128.554C118 128.156 117.973 127.88 117.849 127.726C117.725 127.572 117.459 127.495 117.051 127.495C116.378 127.495 115.931 127.36 115.709 127.088C115.487 126.817 115.439 126.319 115.563 125.596L116.281 121.607H118.115C118.487 121.607 118.762 121.53 118.939 121.376C119.116 121.222 119.24 120.946 119.311 120.548L119.657 118.513C119.728 118.133 119.701 117.866 119.577 117.712C119.453 117.559 119.205 117.482 118.833 117.482H116.972L117.37 115.256ZM101.768 113.75C100.873 112.782 99.5125 112.299 97.6871 112.299H89.8982C89.4729 112.299 89.1671 112.384 88.9811 112.556C88.795 112.728 88.6576 113.031 88.569 113.465L85.6449 130.453C85.5563 130.869 85.5828 131.163 85.7246 131.335C85.8664 131.507 86.15 131.593 86.5753 131.593H94.5503C96.4997 131.593 98.1346 131.159 99.4549 130.29C100.775 129.422 101.586 128.137 101.887 126.437C102.295 123.976 101.683 122.348 100.053 121.552L100.08 121.444C100.842 120.955 101.422 120.426 101.821 119.856C102.22 119.286 102.507 118.549 102.685 117.645C102.968 116.016 102.663 114.718 101.768 113.75ZM109.097 117.712C108.973 117.559 108.716 117.482 108.326 117.482H105.429C105.039 117.482 104.755 117.559 104.578 117.712C104.401 117.866 104.277 118.133 104.206 118.513L102.132 130.562C102.061 130.942 102.088 131.209 102.212 131.362C102.336 131.516 102.593 131.593 102.983 131.593H105.881C106.271 131.593 106.554 131.516 106.731 131.362C106.909 131.209 107.033 130.942 107.103 130.562L109.177 118.513C109.248 118.133 109.221 117.866 109.097 117.712ZM92.0248 124.022H95.0819C96.2516 124.022 96.7301 124.546 96.5174 125.596C96.3402 126.663 95.6845 127.197 94.5503 127.197H91.4666L92.0248 124.022ZM93.2743 116.668H95.8262C96.925 116.668 97.3858 117.174 97.2086 118.187C97.0314 119.164 96.4022 119.653 95.3212 119.653H92.7692L93.2743 116.668ZM109.974 112.434C109.744 112.145 109.248 112 108.486 112H107.157C106.412 112 105.872 112.145 105.535 112.434C105.198 112.724 104.959 113.248 104.817 114.008L104.791 114.307C104.649 115.066 104.693 115.591 104.924 115.881C105.154 116.17 105.65 116.315 106.412 116.315H107.741C108.503 116.315 109.044 116.17 109.363 115.881C109.682 115.591 109.912 115.066 110.054 114.307L110.107 114.008C110.249 113.248 110.205 112.724 109.974 112.434ZM57.2847 131.593C58.0822 131.593 58.4101 131.222 58.2683 130.48L55.1049 113.221C55.034 112.877 54.9055 112.642 54.7194 112.516C54.5334 112.389 54.2454 112.326 53.8555 112.326H50.8516C50.444 112.326 50.1338 112.389 49.9212 112.516C49.7085 112.642 49.5047 112.896 49.3098 113.275L40.1818 130.549C39.8218 131.245 40.0023 131.593 40.7234 131.593H43.6475C44.2855 131.593 44.7463 131.512 45.0299 131.349C45.3134 131.186 45.5615 130.887 45.7742 130.453L46.7046 128.499H52.4732L52.739 130.453C52.7744 130.887 52.9162 131.186 53.1643 131.349C53.4124 131.512 53.8644 131.593 54.5201 131.593H57.2847ZM51.5029 119.259C51.494 119.829 51.5162 120.431 51.5693 121.064L51.9947 124.239L47.4267 125.976L50.2136 121.037C50.7807 119.825 51.1794 118.567 51.4098 117.265H51.6491L51.5693 117.835C51.5552 117.986 51.5431 118.154 51.5332 118.336L51.5199 118.621L51.5098 118.929L51.5029 119.259ZM70.4626 118.119C69.5854 117.423 68.3581 117.075 66.7808 117.075C62.5098 117.075 60.0376 118.983 59.3641 122.801L58.859 125.786C58.5223 127.721 58.7882 129.241 59.6565 130.345C60.5249 131.448 62.0225 132 64.1491 132C67.3037 132 69.5987 130.761 71.0342 128.282C71.4772 127.504 71.3354 126.998 70.6088 126.763L68.1898 125.976C67.7999 125.831 67.4942 125.808 67.2726 125.908C67.0511 126.007 66.834 126.256 66.6213 126.654C66.1783 127.396 65.5846 127.767 64.8403 127.767C64.3972 127.767 64.0738 127.64 63.87 127.387C63.6662 127.133 63.6086 126.772 63.6972 126.301L64.282 122.801C64.477 121.806 65.0441 121.308 65.9834 121.308C66.7986 121.308 67.2859 121.67 67.4454 122.394L67.4667 122.487C67.5548 122.849 67.6806 123.08 67.8442 123.181C68.0214 123.289 68.3315 123.271 68.7746 123.126L71.1405 122.312C71.5481 122.167 71.8228 121.991 71.9646 121.783C72.1064 121.575 72.1418 121.272 72.0709 120.874C71.876 119.734 71.3399 118.816 70.4626 118.119ZM84.4779 118.377C83.4411 117.509 81.9303 117.075 79.9454 117.075C77.8365 117.075 76.1263 117.572 74.8149 118.567C73.5034 119.562 72.6882 120.973 72.3692 122.801L71.8642 125.623C71.5274 127.522 71.811 129.06 72.7148 130.236C73.6186 131.412 75.2048 132 77.4732 132C80.5214 132 82.6747 131.132 83.9329 129.395C84.4114 128.689 84.3317 128.165 83.6937 127.821L81.9658 126.925C81.5759 126.726 81.2835 126.654 81.0885 126.708C80.8936 126.763 80.6721 126.925 80.4239 127.197C79.8214 127.848 79.0505 128.174 78.1112 128.174C76.9593 128.174 76.4808 127.595 76.6757 126.437L76.782 125.867C77.8631 125.976 78.8644 126.03 79.786 126.03C81.4873 126.03 82.8519 125.686 83.8798 124.999C84.9076 124.311 85.5191 123.343 85.714 122.095C85.9267 120.485 85.5146 119.246 84.4779 118.377ZM77.3935 122.339C77.6238 121.218 78.2973 120.657 79.4138 120.657C80.4948 120.657 80.9822 121.028 80.8759 121.769C80.7695 122.439 80.1093 122.909 79.2269 123.4C78.8266 123.623 77.7709 124.048 77.1152 123.957L77.3935 122.339Z" fill="url(#paint2_linear_181_514)"/>
</g>
<defs>
<linearGradient id="paint0_linear_181_514" x1="80" y1="0" x2="80" y2="256" gradientUnits="userSpaceOnUse">
<stop stop-color="#2F3841"/>
<stop offset="1" stop-color="#1A2025"/>
</linearGradient>
<linearGradient id="paint1_linear_181_514" x1="95" y1="2.16823e-08" x2="97" y2="245" gradientUnits="userSpaceOnUse">
<stop stop-color="#2E3841"/>
<stop offset="1" stop-color="#1A2026"/>
</linearGradient>
<linearGradient id="paint2_linear_181_514" x1="85.5938" y1="125.249" x2="115.194" y2="110.418" gradientUnits="userSpaceOnUse">
<stop stop-color="#48535C"/>
<stop offset="1" stop-color="#2E3841"/>
</linearGradient>
<clipPath id="clip0_181_514">
<rect width="160" height="256" rx="16" fill="white"/>
</clipPath>
</defs>
</svg>
