<svg width="185" height="69" viewBox="0 0 185 69" fill="none" xmlns="http://www.w3.org/2000/svg">
<path d="M65.184 0.839996C66.72 0.839996 67.744 1.16 68.256 1.8C68.768 2.376 68.896 3.4 68.64 4.872L57.984 64.968C57.728 66.44 57.248 67.496 56.544 68.136C55.84 68.712 54.72 69 53.184 69H42.624C40.896 69 39.712 68.36 39.072 67.08L28.416 44.328C27.008 41.256 25.952 38.344 25.248 35.592C24.608 32.776 24 29.096 23.424 24.552H22.656C23.168 33.768 22.784 42.024 21.504 49.32L18.72 64.968C18.4 66.44 17.888 67.496 17.184 68.136C16.544 68.712 15.456 69 13.92 69H3.84C2.304 69 1.28 68.712 0.768 68.136C0.256 67.496 0.16 66.44 0.48 64.968L11.04 4.872C11.36 3.4 11.84 2.376 12.48 1.8C13.184 1.16 14.304 0.839996 15.84 0.839996H26.784C28.64 0.839996 29.888 1.48 30.528 2.75999L41.856 27.336C43.456 30.728 45.12 36.584 46.848 44.904H47.616C46.912 39.336 46.528 35.272 46.464 32.712C46.464 30.152 46.848 26.12 47.616 20.616L50.4 4.872C50.656 3.4 51.104 2.376 51.744 1.8C52.448 1.16 53.568 0.839996 55.104 0.839996H65.184ZM122.51 0.839996C124.046 0.839996 125.07 1.16 125.582 1.8C126.094 2.376 126.222 3.4 125.966 4.872L124.43 13.512C124.174 15.048 123.662 16.136 122.894 16.776C122.19 17.352 121.102 17.64 119.63 17.64H94.2863L92.2703 28.776H112.526C114.062 28.776 115.054 29.096 115.502 29.736C116.014 30.312 116.142 31.336 115.886 32.808L114.35 41.448C114.094 42.984 113.614 44.072 112.91 44.712C112.206 45.288 111.086 45.576 109.55 45.576H89.3903L85.9343 64.968C85.6143 66.44 85.1023 67.496 84.3983 68.136C83.7583 68.712 82.6703 69 81.1343 69H70.2863C68.7503 69 67.7263 68.712 67.2143 68.136C66.7023 67.496 66.6063 66.44 66.9263 64.968L77.4863 4.872C77.8063 3.4 78.2863 2.376 78.9263 1.8C79.6303 1.16 80.7503 0.839996 82.2863 0.839996H122.51ZM180.6 0.839996C182.136 0.839996 183.16 1.16 183.672 1.8C184.184 2.376 184.28 3.4 183.96 4.872L182.424 13.512C182.168 15.048 181.688 16.136 180.984 16.776C180.28 17.352 179.16 17.64 177.624 17.64H163.416L155.064 64.968C154.744 66.44 154.232 67.496 153.528 68.136C152.888 68.712 151.8 69 150.264 69H139.416C137.88 69 136.856 68.712 136.344 68.136C135.832 67.496 135.736 66.44 136.056 64.968L144.408 17.64H130.104C128.568 17.64 127.544 17.352 127.032 16.776C126.584 16.136 126.488 15.048 126.744 13.512L128.28 4.872C128.6 3.4 129.08 2.376 129.72 1.8C130.424 1.16 131.544 0.839996 133.08 0.839996H180.6Z" fill="url(#paint0_linear_181_3912)"/>
<path d="M65.184 0.839996C66.72 0.839996 67.744 1.16 68.256 1.8C68.768 2.376 68.896 3.4 68.64 4.872L57.984 64.968C57.728 66.44 57.248 67.496 56.544 68.136C55.84 68.712 54.72 69 53.184 69H42.624C40.896 69 39.712 68.36 39.072 67.08L28.416 44.328C27.008 41.256 25.952 38.344 25.248 35.592C24.608 32.776 24 29.096 23.424 24.552H22.656C23.168 33.768 22.784 42.024 21.504 49.32L18.72 64.968C18.4 66.44 17.888 67.496 17.184 68.136C16.544 68.712 15.456 69 13.92 69H3.84C2.304 69 1.28 68.712 0.768 68.136C0.256 67.496 0.16 66.44 0.48 64.968L11.04 4.872C11.36 3.4 11.84 2.376 12.48 1.8C13.184 1.16 14.304 0.839996 15.84 0.839996H26.784C28.64 0.839996 29.888 1.48 30.528 2.75999L41.856 27.336C43.456 30.728 45.12 36.584 46.848 44.904H47.616C46.912 39.336 46.528 35.272 46.464 32.712C46.464 30.152 46.848 26.12 47.616 20.616L50.4 4.872C50.656 3.4 51.104 2.376 51.744 1.8C52.448 1.16 53.568 0.839996 55.104 0.839996H65.184ZM122.51 0.839996C124.046 0.839996 125.07 1.16 125.582 1.8C126.094 2.376 126.222 3.4 125.966 4.872L124.43 13.512C124.174 15.048 123.662 16.136 122.894 16.776C122.19 17.352 121.102 17.64 119.63 17.64H94.2863L92.2703 28.776H112.526C114.062 28.776 115.054 29.096 115.502 29.736C116.014 30.312 116.142 31.336 115.886 32.808L114.35 41.448C114.094 42.984 113.614 44.072 112.91 44.712C112.206 45.288 111.086 45.576 109.55 45.576H89.3903L85.9343 64.968C85.6143 66.44 85.1023 67.496 84.3983 68.136C83.7583 68.712 82.6703 69 81.1343 69H70.2863C68.7503 69 67.7263 68.712 67.2143 68.136C66.7023 67.496 66.6063 66.44 66.9263 64.968L77.4863 4.872C77.8063 3.4 78.2863 2.376 78.9263 1.8C79.6303 1.16 80.7503 0.839996 82.2863 0.839996H122.51ZM180.6 0.839996C182.136 0.839996 183.16 1.16 183.672 1.8C184.184 2.376 184.28 3.4 183.96 4.872L182.424 13.512C182.168 15.048 181.688 16.136 180.984 16.776C180.28 17.352 179.16 17.64 177.624 17.64H163.416L155.064 64.968C154.744 66.44 154.232 67.496 153.528 68.136C152.888 68.712 151.8 69 150.264 69H139.416C137.88 69 136.856 68.712 136.344 68.136C135.832 67.496 135.736 66.44 136.056 64.968L144.408 17.64H130.104C128.568 17.64 127.544 17.352 127.032 16.776C126.584 16.136 126.488 15.048 126.744 13.512L128.28 4.872C128.6 3.4 129.08 2.376 129.72 1.8C130.424 1.16 131.544 0.839996 133.08 0.839996H180.6Z" fill="url(#paint1_linear_181_3912)"/>
<defs>
<linearGradient id="paint0_linear_181_3912" x1="81.6979" y1="78.75" x2="72.4159" y2="0.734036" gradientUnits="userSpaceOnUse">
<stop stop-color="#EBC367"/>
<stop offset="0.206588" stop-color="#FDB242"/>
<stop offset="0.589636" stop-color="#D1891E"/>
<stop offset="0.694186" stop-color="#E1A03F"/>
<stop offset="0.697522" stop-color="#FFDDA9"/>
<stop offset="0.911458" stop-color="#F1BD57"/>
</linearGradient>
<linearGradient id="paint1_linear_181_3912" x1="177.142" y1="12.15" x2="11.6194" y2="27.8216" gradientUnits="userSpaceOnUse">
<stop stop-color="#E6C365" stop-opacity="0"/>
<stop offset="1" stop-color="#E6C365" stop-opacity="0.3"/>
</linearGradient>
</defs>
</svg>
