<svg width="261" height="72" viewBox="0 0 261 72" fill="none" xmlns="http://www.w3.org/2000/svg">
<path d="M8.336 20.272C9.488 13.872 12.72 8.976 18.032 5.584C23.408 2.128 30.64 0.399998 39.728 0.399998C46.576 0.399998 51.856 1.616 55.568 4.048C59.28 6.416 61.904 9.936 63.44 14.608C63.888 16.016 63.92 17.04 63.536 17.68C63.152 18.32 62.16 18.96 60.56 19.6L51.056 23.344C49.648 23.92 48.624 24.08 47.984 23.824C47.344 23.568 46.768 22.736 46.256 21.328C45.104 18 42.16 16.336 37.424 16.336C31.344 16.336 28.016 18 27.44 21.328C27.12 23.184 27.92 24.496 29.84 25.264C31.76 26.032 34.832 26.672 39.056 27.184C40.72 27.44 42.288 27.76 43.76 28.144C45.232 28.464 46.8 28.944 48.464 29.584C50.192 30.224 51.696 30.96 52.976 31.792C54.256 32.624 55.504 33.68 56.72 34.96C57.936 36.176 58.832 37.552 59.408 39.088C59.984 40.624 60.432 42.416 60.752 44.464C61.072 46.512 60.944 48.784 60.368 51.28C57.872 64.72 47.088 71.44 28.016 71.44C20.72 71.44 14.736 70.16 10.064 67.6C5.392 65.04 2.576 61.36 1.616 56.56C1.168 54 2.352 52.24 5.168 51.28L14.768 48.016C16.304 47.504 17.456 47.408 18.224 47.728C18.992 47.984 19.6 48.784 20.048 50.128C21.2 53.52 24.496 55.216 29.936 55.216C36.784 55.216 40.56 53.392 41.264 49.744C41.584 48.016 40.848 46.768 39.056 46C37.328 45.232 34.64 44.592 30.992 44.08C28.368 43.696 26.064 43.28 24.08 42.832C22.096 42.384 19.888 41.584 17.456 40.432C15.024 39.28 13.104 37.904 11.696 36.304C10.288 34.704 9.232 32.528 8.528 29.776C7.824 27.024 7.76 23.856 8.336 20.272ZM68.4898 26.32C69.9618 18 73.5778 11.6 79.3378 7.12C85.1618 2.64 92.8098 0.399998 102.282 0.399998C111.562 0.399998 118.378 2.96 122.73 8.08C127.146 13.2 128.618 19.984 127.146 28.432L124.17 45.808C122.698 54.064 119.05 60.4 113.226 64.816C107.466 69.232 99.8498 71.44 90.3778 71.44C81.0338 71.44 74.1858 68.944 69.8338 63.952C65.4818 58.896 64.0098 52.144 65.4178 43.696L68.4898 26.32ZM108.522 26.416C109.034 23.408 108.522 21.136 106.986 19.6C105.45 18 103.018 17.2 99.6898 17.2C92.6498 17.2 88.5858 20.272 87.4978 26.416L84.1378 45.424C83.6258 48.432 84.1378 50.736 85.6738 52.336C87.2098 53.872 89.6738 54.64 93.0658 54.64C100.042 54.64 104.074 51.568 105.162 45.424L108.522 26.416ZM132.967 26.32C134.439 18 138.055 11.6 143.815 7.12C149.639 2.64 157.287 0.399998 166.759 0.399998C176.039 0.399998 182.855 2.96 187.207 8.08C191.623 13.2 193.095 19.984 191.623 28.432L188.647 45.808C187.175 54.064 183.527 60.4 177.703 64.816C171.943 69.232 164.327 71.44 154.855 71.44C145.511 71.44 138.663 68.944 134.311 63.952C129.959 58.896 128.487 52.144 129.895 43.696L132.967 26.32ZM172.999 26.416C173.511 23.408 172.999 21.136 171.463 19.6C169.927 18 167.495 17.2 164.167 17.2C157.127 17.2 153.063 20.272 151.975 26.416L148.615 45.424C148.103 48.432 148.615 50.736 150.151 52.336C151.687 53.872 154.151 54.64 157.543 54.64C164.519 54.64 168.551 51.568 169.639 45.424L172.999 26.416ZM256.773 1.84C258.309 1.84 259.333 2.16 259.845 2.8C260.357 3.376 260.485 4.4 260.229 5.872L249.573 65.968C249.317 67.44 248.837 68.496 248.133 69.136C247.429 69.712 246.309 70 244.773 70H234.213C232.485 70 231.301 69.36 230.661 68.08L220.005 45.328C218.597 42.256 217.541 39.344 216.837 36.592C216.197 33.776 215.589 30.096 215.013 25.552H214.245C214.757 34.768 214.373 43.024 213.093 50.32L210.309 65.968C209.989 67.44 209.477 68.496 208.773 69.136C208.133 69.712 207.045 70 205.509 70H195.429C193.893 70 192.869 69.712 192.357 69.136C191.845 68.496 191.749 67.44 192.069 65.968L202.629 5.872C202.949 4.4 203.429 3.376 204.069 2.8C204.773 2.16 205.893 1.84 207.429 1.84H218.373C220.229 1.84 221.477 2.48 222.117 3.75999L233.445 28.336C235.045 31.728 236.709 37.584 238.437 45.904H239.205C238.501 40.336 238.117 36.272 238.053 33.712C238.053 31.152 238.437 27.12 239.205 21.616L241.989 5.872C242.245 4.4 242.693 3.376 243.333 2.8C244.037 2.16 245.157 1.84 246.693 1.84H256.773Z" fill="url(#paint0_linear_181_3914)"/>
<path d="M8.336 20.272C9.488 13.872 12.72 8.976 18.032 5.584C23.408 2.128 30.64 0.399998 39.728 0.399998C46.576 0.399998 51.856 1.616 55.568 4.048C59.28 6.416 61.904 9.936 63.44 14.608C63.888 16.016 63.92 17.04 63.536 17.68C63.152 18.32 62.16 18.96 60.56 19.6L51.056 23.344C49.648 23.92 48.624 24.08 47.984 23.824C47.344 23.568 46.768 22.736 46.256 21.328C45.104 18 42.16 16.336 37.424 16.336C31.344 16.336 28.016 18 27.44 21.328C27.12 23.184 27.92 24.496 29.84 25.264C31.76 26.032 34.832 26.672 39.056 27.184C40.72 27.44 42.288 27.76 43.76 28.144C45.232 28.464 46.8 28.944 48.464 29.584C50.192 30.224 51.696 30.96 52.976 31.792C54.256 32.624 55.504 33.68 56.72 34.96C57.936 36.176 58.832 37.552 59.408 39.088C59.984 40.624 60.432 42.416 60.752 44.464C61.072 46.512 60.944 48.784 60.368 51.28C57.872 64.72 47.088 71.44 28.016 71.44C20.72 71.44 14.736 70.16 10.064 67.6C5.392 65.04 2.576 61.36 1.616 56.56C1.168 54 2.352 52.24 5.168 51.28L14.768 48.016C16.304 47.504 17.456 47.408 18.224 47.728C18.992 47.984 19.6 48.784 20.048 50.128C21.2 53.52 24.496 55.216 29.936 55.216C36.784 55.216 40.56 53.392 41.264 49.744C41.584 48.016 40.848 46.768 39.056 46C37.328 45.232 34.64 44.592 30.992 44.08C28.368 43.696 26.064 43.28 24.08 42.832C22.096 42.384 19.888 41.584 17.456 40.432C15.024 39.28 13.104 37.904 11.696 36.304C10.288 34.704 9.232 32.528 8.528 29.776C7.824 27.024 7.76 23.856 8.336 20.272ZM68.4898 26.32C69.9618 18 73.5778 11.6 79.3378 7.12C85.1618 2.64 92.8098 0.399998 102.282 0.399998C111.562 0.399998 118.378 2.96 122.73 8.08C127.146 13.2 128.618 19.984 127.146 28.432L124.17 45.808C122.698 54.064 119.05 60.4 113.226 64.816C107.466 69.232 99.8498 71.44 90.3778 71.44C81.0338 71.44 74.1858 68.944 69.8338 63.952C65.4818 58.896 64.0098 52.144 65.4178 43.696L68.4898 26.32ZM108.522 26.416C109.034 23.408 108.522 21.136 106.986 19.6C105.45 18 103.018 17.2 99.6898 17.2C92.6498 17.2 88.5858 20.272 87.4978 26.416L84.1378 45.424C83.6258 48.432 84.1378 50.736 85.6738 52.336C87.2098 53.872 89.6738 54.64 93.0658 54.64C100.042 54.64 104.074 51.568 105.162 45.424L108.522 26.416ZM132.967 26.32C134.439 18 138.055 11.6 143.815 7.12C149.639 2.64 157.287 0.399998 166.759 0.399998C176.039 0.399998 182.855 2.96 187.207 8.08C191.623 13.2 193.095 19.984 191.623 28.432L188.647 45.808C187.175 54.064 183.527 60.4 177.703 64.816C171.943 69.232 164.327 71.44 154.855 71.44C145.511 71.44 138.663 68.944 134.311 63.952C129.959 58.896 128.487 52.144 129.895 43.696L132.967 26.32ZM172.999 26.416C173.511 23.408 172.999 21.136 171.463 19.6C169.927 18 167.495 17.2 164.167 17.2C157.127 17.2 153.063 20.272 151.975 26.416L148.615 45.424C148.103 48.432 148.615 50.736 150.151 52.336C151.687 53.872 154.151 54.64 157.543 54.64C164.519 54.64 168.551 51.568 169.639 45.424L172.999 26.416ZM256.773 1.84C258.309 1.84 259.333 2.16 259.845 2.8C260.357 3.376 260.485 4.4 260.229 5.872L249.573 65.968C249.317 67.44 248.837 68.496 248.133 69.136C247.429 69.712 246.309 70 244.773 70H234.213C232.485 70 231.301 69.36 230.661 68.08L220.005 45.328C218.597 42.256 217.541 39.344 216.837 36.592C216.197 33.776 215.589 30.096 215.013 25.552H214.245C214.757 34.768 214.373 43.024 213.093 50.32L210.309 65.968C209.989 67.44 209.477 68.496 208.773 69.136C208.133 69.712 207.045 70 205.509 70H195.429C193.893 70 192.869 69.712 192.357 69.136C191.845 68.496 191.749 67.44 192.069 65.968L202.629 5.872C202.949 4.4 203.429 3.376 204.069 2.8C204.773 2.16 205.893 1.84 207.429 1.84H218.373C220.229 1.84 221.477 2.48 222.117 3.75999L233.445 28.336C235.045 31.728 236.709 37.584 238.437 45.904H239.205C238.501 40.336 238.117 36.272 238.053 33.712C238.053 31.152 238.437 27.12 239.205 21.616L241.989 5.872C242.245 4.4 242.693 3.376 243.333 2.8C244.037 2.16 245.157 1.84 246.693 1.84H256.773Z" fill="url(#paint1_linear_181_3914)"/>
<defs>
<linearGradient id="paint0_linear_181_3914" x1="111.913" y1="79.75" x2="104.971" y2="1.24367" gradientUnits="userSpaceOnUse">
<stop stop-color="#EBC367"/>
<stop offset="0.206588" stop-color="#FDB242"/>
<stop offset="0.589636" stop-color="#D1891E"/>
<stop offset="0.694186" stop-color="#E1A03F"/>
<stop offset="0.697522" stop-color="#FFDDA9"/>
<stop offset="0.911458" stop-color="#F1BD57"/>
</linearGradient>
<linearGradient id="paint1_linear_181_3914" x1="240.32" y1="13.15" x2="19.2235" y2="41.3129" gradientUnits="userSpaceOnUse">
<stop stop-color="#E6C365" stop-opacity="0"/>
<stop offset="1" stop-color="#E6C365" stop-opacity="0.3"/>
</linearGradient>
</defs>
</svg>
