<svg width="140" height="72" viewBox="0 0 140 72" fill="none" xmlns="http://www.w3.org/2000/svg">
<path d="M104.971 21.0625C84.424 21.0625 63.8895 21.0625 43.3427 21.0625C40.4267 21.0625 37.5108 21.0625 34.6072 21.0625C34.4596 21.0625 34.3242 21.1363 34.3242 21.2347C34.3242 21.4808 34.3242 21.7269 34.3242 21.973C34.3242 22.0222 34.3488 22.0591 34.398 22.0837L34.4103 22.096C34.4103 22.096 34.4226 22.096 34.4226 22.1083C34.4719 22.1329 34.5211 22.1452 34.5949 22.1452C55.1417 22.1452 75.6762 22.1452 96.223 22.1452C99.139 22.1452 102.055 22.1452 104.959 22.1452C105.106 22.1452 105.242 22.0714 105.242 21.973C105.242 21.7269 105.242 21.4808 105.242 21.2347C105.254 21.1363 105.131 21.0625 104.971 21.0625ZM104.971 21.6162V21.4562C105.094 21.5177 105.082 21.5792 104.971 21.6162Z" fill="white"/>
<path d="M104.971 58.957C84.424 58.957 63.8895 58.957 43.3427 58.957C40.4267 58.957 37.5108 58.957 34.6072 58.957C34.4596 58.957 34.3242 59.0309 34.3242 59.1293C34.3242 59.3754 34.3242 59.6214 34.3242 59.8675C34.3242 59.9167 34.3488 59.9536 34.398 59.9782L34.4103 59.9905C34.4103 59.9905 34.4226 59.9905 34.4226 60.0028C34.4719 60.0274 34.5211 60.0397 34.5949 60.0397C55.1417 60.0397 75.6762 60.0397 96.223 60.0397C99.139 60.0397 102.055 60.0397 104.959 60.0397C105.106 60.0397 105.242 59.9659 105.242 59.8675C105.242 59.6214 105.242 59.3754 105.242 59.1293C105.254 59.0309 105.131 58.957 104.971 58.957ZM104.971 59.5107V59.3507C105.094 59.4123 105.082 59.4615 104.971 59.5107Z" fill="white"/>
<path d="M53.2343 2.00391L54.1324 3.57875L56.1379 3.82482L54.6861 5.04287L55.0306 6.76536L53.2343 5.95333L51.4257 6.76536L51.7702 5.04287L50.3184 3.82482L52.3361 3.57875L53.2343 2.00391Z" fill="white"/>
<path d="M69.7951 0L71.1608 2.38688L74.2243 2.76828L72.0097 4.62611L72.5264 7.25906L69.7951 6.0164L67.0391 7.25906L67.5681 4.62611L65.3535 2.76828L68.4171 2.38688L69.7951 0Z" fill="white"/>
<path d="M78.9483 0.996094L80.0925 2.97696L82.6393 3.29685L80.7938 4.83478L81.2244 7.0125L78.9483 5.99131L76.6721 7.0125L77.1151 4.83478L75.2695 3.29685L77.8164 2.97696L78.9483 0.996094Z" fill="white"/>
<path d="M60.8506 0.996094L61.9825 2.97696L64.5294 3.29685L62.6961 4.83478L63.1268 7.0125L60.8506 5.99131L58.5745 7.0125L59.0051 4.83478L57.1719 3.29685L59.7064 2.97696L60.8506 0.996094Z" fill="white"/>
<path d="M86.3431 2.00391L87.2412 3.57875L89.259 3.82482L87.8072 5.04287L88.1517 6.76536L86.3431 5.95333L84.5468 6.76536L84.8913 5.04287L83.4395 3.82482L85.4449 3.57875L86.3431 2.00391Z" fill="white"/>
<path d="M37.2887 12.2812V17.7686H36.0215V12.2812H37.2887Z" fill="white"/>
<path d="M43.0098 17.7686V12.2812H44.5723C47.7835 16.083 48.2264 16.5998 48.3741 16.8335H48.3864C48.3003 16.0953 48.288 15.271 48.288 14.3728V12.2812H49.4814V17.7686H47.9804C44.6461 13.7823 44.2401 13.2778 44.1048 13.0564H44.0925C44.1786 13.7454 44.1909 14.6435 44.1909 15.6278V17.7686H43.0098Z" fill="white"/>
<path d="M55.7438 16.3281C55.8299 16.8941 56.4082 17.3493 57.6755 17.3493C58.8935 17.3493 59.5087 17.0294 59.5087 16.4019C59.5087 15.8237 59.0165 15.5161 57.4417 15.1593C55.6208 14.7533 54.8211 14.3719 54.8211 13.5721C54.8211 12.8216 55.8423 12.2188 57.737 12.2188C59.9762 12.2188 60.5791 12.9816 60.616 13.6213H59.361C59.2995 13.3507 59.1273 12.7232 57.6878 12.7232C56.5682 12.7232 56.1006 13.08 56.1006 13.5229C56.1006 14.052 56.5928 14.298 58.0569 14.6302C60.087 15.0855 60.8252 15.5407 60.8252 16.365C60.8252 17.2263 59.7917 17.866 57.6509 17.866C55.3255 17.866 54.5627 17.1401 54.4766 16.3527H55.7438V16.3281Z" fill="white"/>
<path d="M67.4568 12.8226H64.873V12.2812H71.3201V12.8226H68.7363V17.7686H67.4691V12.8226H67.4568Z" fill="white"/>
<path d="M76.1553 16.0332L75.3063 17.7803H74.0391L76.8443 12.293H78.4929L81.3719 17.7803H80.0186L79.1696 16.0332H76.1553ZM78.9112 15.4919C78.2345 14.1385 77.8039 13.2896 77.644 12.8466H77.6071C77.4471 13.3265 76.9673 14.3107 76.4013 15.4919H78.9112Z" fill="white"/>
<path d="M86.0723 17.7686V12.2812H87.6471C90.8583 16.083 91.3013 16.5998 91.4489 16.8335H91.4612C91.3751 16.0953 91.3628 15.271 91.3628 14.3728V12.2812H92.5562V17.7686H91.0552C87.7209 13.7823 87.3149 13.2778 87.1796 13.0564H87.1673C87.2534 13.7454 87.2657 14.6435 87.2657 15.6278V17.7686H86.0723Z" fill="white"/>
<path d="M99.7048 12.8226H97.1211V12.2812H103.568V12.8226H100.984V17.7686H99.7171V12.8226H99.7048Z" fill="white"/>
<path d="M22.4141 26.0195H25.3915C28.1106 26.0195 29.2179 27.5821 29.2179 31.1132C29.2179 34.8657 28.1229 36.6128 25.3054 36.6128H22.4141V26.0195ZM24.8255 34.755H25.2685C26.3758 34.755 26.708 33.9553 26.708 31.064C26.708 28.6402 26.4127 27.8774 25.2808 27.8774H24.8255V34.755Z" fill="white"/>
<path d="M39.0616 32.1221H35.9119V34.6443H39.4799L39.1969 36.6128H33.5742V26.0195H39.2092V28.0127H35.9119V30.1412H39.0616V32.1221Z" fill="white"/>
<path d="M43.5645 26.0195H46.9848C48.7934 26.0195 50.0853 27.0407 50.0853 29.2307C50.0853 31.4454 48.9165 32.4789 46.8741 32.4789H45.939V36.6128H43.5645V26.0195ZM45.939 30.6087H46.5542C47.3785 30.6087 47.6861 30.2027 47.6861 29.2061C47.6861 28.2219 47.2678 27.8404 46.6034 27.8404H45.939V30.6087Z" fill="white"/>
<path d="M61.1583 31.2495C61.1583 35.1251 60.1125 36.8107 57.5288 36.8107C55.1173 36.8107 54.0469 35.1005 54.0469 31.2003C54.0469 27.4478 55.2403 25.836 57.6272 25.836C60.0756 25.8237 61.1583 27.5585 61.1583 31.2495ZM56.5445 31.2003C56.5445 33.8087 56.7782 34.9037 57.6026 34.9037C58.4638 34.9037 58.6607 33.8948 58.6607 31.2003C58.6607 28.6904 58.4515 27.7553 57.6026 27.7553C56.7659 27.7553 56.5445 28.7273 56.5445 31.2003Z" fill="white"/>
<path d="M67.4078 33.5502C67.4693 34.4238 67.7154 35.0143 68.429 35.0143C69.118 35.0143 69.3394 34.5345 69.3394 33.9439C69.3394 33.2057 68.9826 32.7751 67.7523 32.1476C65.9437 31.2003 65.267 30.4005 65.267 28.838C65.267 27.0294 66.3497 25.8359 68.4167 25.8359C70.8404 25.8359 71.5294 27.3739 71.5541 28.9979H69.2533C69.2164 28.2597 69.0811 27.6322 68.4044 27.6322C67.8753 27.6322 67.6292 27.989 67.6292 28.5796C67.6292 29.1825 67.863 29.5024 68.9949 30.0683C70.9266 31.0526 71.7386 31.8893 71.7386 33.6733C71.7386 35.4204 70.7297 36.823 68.3921 36.823C65.8575 36.823 65.0824 35.3588 65.0332 33.5625H67.4078V33.5502Z" fill="white"/>
<path d="M78.3459 26.0195V36.6128H75.959V26.0195H78.3459Z" fill="white"/>
<path d="M84.4238 28.0127H82.3691V26.0195H88.8531V28.0127H86.8107V36.6128H84.4238V28.0127Z" fill="white"/>
<path d="M94.7828 33.5502C94.8443 34.4238 95.0904 35.0143 95.804 35.0143C96.493 35.0143 96.7144 34.5345 96.7144 33.9439C96.7144 33.2057 96.3576 32.7751 95.1273 32.1476C93.3187 31.2003 92.642 30.4005 92.642 28.838C92.642 27.0294 93.7247 25.8359 95.7917 25.8359C98.2154 25.8359 98.9044 27.3739 98.9291 28.9979H96.6283C96.5914 28.2597 96.4561 27.6322 95.7794 27.6322C95.2503 27.6322 95.0042 27.989 95.0042 28.5796C95.0042 29.1825 95.238 29.5024 96.3699 30.0683C98.3016 31.0526 99.1136 31.8893 99.1136 33.6733C99.1136 35.4204 98.1047 36.823 95.7671 36.823C93.2325 36.823 92.4574 35.3588 92.4082 33.5625H94.7828V33.5502Z" fill="white"/>
<path d="M117.397 30.2388L115.145 34.1759C114.173 35.8615 113.546 36.7597 111.663 36.7597C109.781 36.7597 108.723 35.6155 108.723 33.733C108.723 32.3304 109.313 31.4569 111.269 30.3619C112.635 29.6114 112.795 29.1069 112.795 28.3933C112.795 27.9012 112.623 27.5567 112.155 27.5567C111.749 27.5567 111.54 27.9135 111.54 28.4179C111.54 28.9716 111.835 29.4268 112.254 29.9559L117.557 36.6243H114.801L110.433 31.1247C109.855 30.3496 109.412 29.5744 109.412 28.5533C109.412 27.2368 110.187 25.8711 112.131 25.8711C113.89 25.8711 114.788 26.9784 114.788 28.3441C114.788 29.8697 113.952 30.5833 112.315 31.4815C111.356 32.0597 110.937 32.6503 110.937 33.5362C110.937 34.3605 111.282 34.8649 111.958 34.8649C112.635 34.8649 112.943 34.3851 113.669 33.0686L115.207 30.2511H117.397V30.2388Z" fill="white"/>
<path d="M23.742 53.5347L22.0195 42.9414H24.5417C24.7632 44.91 25.0954 48.318 25.2184 50.2128H25.28C25.5752 48.1458 26.0428 45.1683 26.3627 42.9414H28.3804C28.6757 44.8731 29.1432 48.0227 29.4016 50.1389H29.4754C29.6477 48.0597 30.0414 44.5655 30.2014 42.9414H32.5267L30.6689 53.5347H28.2697C27.9621 51.6769 27.5315 49.3269 27.2731 47.2107H27.2116C26.9532 49.3023 26.4611 51.7261 26.1658 53.5347H23.742Z" fill="white"/>
<path d="M38.8752 42.9414V53.5347H36.4883V42.9414H38.8752Z" fill="white"/>
<path d="M44.9414 44.9346H42.8867V42.9414H49.3707V44.9346H47.3283V53.5347H44.9414V44.9346Z" fill="white"/>
<path d="M53.3809 42.9414H55.7677V46.94H57.5763V42.9414H59.9755V53.5347H57.5763V48.9947H55.7677V53.5347H53.3809V42.9414Z" fill="white"/>
<path d="M64.6387 42.9414H67.6161C70.3352 42.9414 71.4425 44.5039 71.4425 48.035C71.4425 51.7876 70.3475 53.5347 67.53 53.5347H64.6387V42.9414ZM67.0379 51.6769H67.4808C68.5881 51.6769 68.9203 50.8772 68.9203 47.9858C68.9203 45.5744 68.625 44.7992 67.4931 44.7992H67.0379V51.6769Z" fill="white"/>
<path d="M78.1474 49.2039V53.5347H75.7852V42.9414H79.3039C81.3094 42.9414 82.3306 43.9503 82.3306 45.8696C82.3306 47.3337 81.617 48.0227 80.9895 48.2688C81.8016 48.6379 82.183 49.3146 82.183 50.8402V51.2093C82.183 52.3905 82.2322 53.0549 82.2937 53.5224H79.9683C79.8453 53.1164 79.8084 52.169 79.8084 51.1355V50.7664C79.8084 49.5115 79.5623 49.1793 78.6519 49.1793H78.1474V49.2039ZM78.1474 47.3707H78.7011C79.5992 47.3707 79.9437 47.0385 79.9437 46.005C79.9437 45.1314 79.6361 44.75 78.861 44.75H78.1597V47.3707H78.1474Z" fill="white"/>
<path d="M88.8394 51.2552L88.4826 53.5191H86.0957L88.1504 42.9258H91.5092L93.5885 53.5191H91.1032L90.7341 51.2552H88.8394ZM90.4265 49.2129C90.1928 47.6626 89.959 45.9401 89.836 44.9682H89.7621C89.6637 45.9893 89.4053 47.6626 89.1593 49.2129H90.4265Z" fill="white"/>
<path d="M98.1658 53.5347L96.4434 42.9414H98.9656C99.187 44.91 99.5315 48.318 99.6423 50.2128H99.7038C99.9991 48.1458 100.467 45.1683 100.786 42.9414H102.804C103.1 44.8731 103.567 48.0227 103.838 50.1389H103.912C104.084 48.0597 104.478 44.5655 104.65 42.9414H106.975L105.117 53.5347H102.706C102.398 51.6769 101.968 49.3269 101.709 47.2107H101.648C101.389 49.3023 100.897 51.7261 100.602 53.5347H98.1658Z" fill="white"/>
<path d="M112.832 50.4571C112.893 51.3306 113.139 51.9212 113.853 51.9212C114.542 51.9212 114.763 51.4413 114.763 50.8385C114.763 50.1126 114.406 49.6696 113.176 49.0422C111.367 48.0948 110.691 47.2951 110.691 45.7325C110.691 43.9239 111.774 42.7305 113.84 42.7305C116.264 42.7305 116.953 44.2684 116.978 45.8925H114.677C114.64 45.1543 114.505 44.5268 113.828 44.5268C113.299 44.5268 113.053 44.8713 113.053 45.4741C113.053 46.077 113.287 46.3969 114.419 46.9629C116.35 47.9471 117.162 48.7838 117.162 50.5678C117.162 52.3149 116.154 53.7175 113.816 53.7175C111.281 53.7175 110.506 52.2534 110.457 50.4571H112.832Z" fill="white"/>
<path d="M134.928 18.1241C128.272 13.498 119.13 9.62237 108.414 6.86639C105.326 6.06666 102.115 5.37766 98.8297 4.7871C97.4025 5.35306 95.2617 5.8698 92.5672 6.30043C107.048 8.46584 120.016 12.5875 128.862 18.1241L129.625 18.6039L129.392 19.4775C128.1 24.4112 127.423 30.12 127.423 36.001C127.423 41.8821 128.1 47.6032 129.392 52.5246L129.625 53.3982L128.862 53.878C115.538 62.2198 92.8625 67.3995 69.695 67.3995C46.6629 67.3995 24.0737 62.269 10.7244 54.001L9.94929 53.5212L10.1831 52.6354C11.4872 47.6771 12.1762 41.9313 12.1762 35.9887C12.1762 30.0462 11.4872 24.3004 10.1831 19.3421L9.94929 18.4809L10.7244 18.001C19.6444 12.4768 32.6984 8.36741 47.2535 6.23891C44.559 5.78368 42.4428 5.25463 41.0894 4.66406C26.3252 7.2601 13.5665 11.8493 4.64648 18.001C6.19672 23.1685 7.05797 29.5171 7.05797 36.001C7.05797 42.485 6.19672 48.8459 4.64648 54.001C18.98 63.8684 43.2056 69.7495 69.695 69.7495C83.3027 69.7495 96.7012 68.1501 108.426 65.1357C119.13 62.3797 128.272 58.4918 134.94 53.878C133.415 48.7352 132.578 42.4358 132.578 36.001C132.578 29.5663 133.402 23.2669 134.928 18.1241Z" fill="white"/>
</svg>
