<svg width="140" height="72" viewBox="0 0 140 72" fill="none" xmlns="http://www.w3.org/2000/svg">
<path d="M53.5254 16.1797V27.8065H51.5445V17.9514L49.5391 18.9726V17.287L51.5445 16.1797H53.5254Z" fill="black"/>
<path d="M60.7361 27.9416C59.3951 27.9416 58.3862 27.6463 57.7218 27.0558C57.0451 26.4652 56.7129 25.6655 56.7129 24.6443V19.3292C56.7129 18.2957 57.0574 17.4959 57.7341 16.9054C58.4108 16.3148 59.4074 16.0195 60.7361 16.0195C62.0649 16.0195 63.0738 16.3148 63.7382 16.8931C64.4149 17.4713 64.7471 18.2834 64.7471 19.3169V24.632C64.7471 25.6655 64.4026 26.4652 63.7259 27.0558C63.0615 27.6463 62.0649 27.9416 60.7361 27.9416ZM60.7361 26.3914C61.462 26.3914 61.9788 26.2314 62.2987 25.9238C62.6186 25.6162 62.7785 25.1856 62.7785 24.6443V19.3292C62.7785 18.7755 62.6186 18.3449 62.2987 18.0373C61.9788 17.7297 61.462 17.5698 60.7361 17.5698C60.0102 17.5698 59.4935 17.7297 59.1736 18.0373C58.8537 18.3449 58.6938 18.7755 58.6938 19.3292V24.6443C58.6938 25.1856 58.8537 25.6162 59.1736 25.9238C59.4935 26.2314 60.0102 26.3914 60.7361 26.3914Z" fill="black"/>
<path d="M71.673 27.9416C70.332 27.9416 69.3231 27.6463 68.6587 27.0558C67.9943 26.4652 67.6621 25.6532 67.6621 24.6443V19.3292C67.6621 18.2957 68.0066 17.4959 68.6833 16.9054C69.36 16.3148 70.3566 16.0195 71.6853 16.0195C73.0141 16.0195 74.023 16.3148 74.6874 16.8931C75.3641 17.4713 75.6963 18.2834 75.6963 19.3169V24.632C75.6963 25.6655 75.3518 26.4652 74.6751 27.0558C73.9984 27.6463 73.0018 27.9416 71.673 27.9416ZM71.673 26.3914C72.3989 26.3914 72.9157 26.2314 73.2356 25.9238C73.5555 25.6162 73.7154 25.1856 73.7154 24.6443V19.3292C73.7154 18.7755 73.5555 18.3449 73.2356 18.0373C72.9157 17.7297 72.3989 17.5698 71.673 17.5698C70.9471 17.5698 70.4304 17.7297 70.1105 18.0373C69.7906 18.3449 69.6307 18.7755 69.6307 19.3292V24.6443C69.6307 25.1856 69.7906 25.6162 70.1105 25.9238C70.4304 26.2314 70.9594 26.3914 71.673 26.3914Z" fill="black"/>
<path d="M80.4574 21.1483C79.7069 21.1483 79.1286 20.9638 78.7226 20.607C78.3166 20.2502 78.1074 19.7457 78.1074 19.106V18.1094C78.1074 17.4696 78.3166 16.9651 78.7226 16.596C79.1286 16.2392 79.7069 16.0547 80.4574 16.0547C81.2079 16.0547 81.7862 16.2392 82.1922 16.596C82.5982 16.9528 82.8074 17.4696 82.8074 18.1094V19.0936C82.8074 19.7334 82.5982 20.2379 82.1922 20.5947C81.7862 20.9761 81.2079 21.1483 80.4574 21.1483ZM79.2147 27.8045L86.8675 16.1777H88.6023L80.9495 27.8045H79.2147ZM80.4574 19.8811C80.9495 19.8811 81.1956 19.6473 81.1956 19.1798V17.9986C81.1956 17.5557 80.9495 17.3219 80.4574 17.3219C79.9776 17.3219 79.7438 17.5434 79.7438 17.9986V19.1675C79.7315 19.6473 79.9776 19.8811 80.4574 19.8811ZM87.4704 27.9152C86.7199 27.9152 86.1416 27.7307 85.7356 27.3739C85.3296 27.0171 85.1204 26.5127 85.1204 25.8606V24.864C85.1204 24.2242 85.3296 23.7198 85.7356 23.3507C86.1416 22.9939 86.7199 22.8093 87.4704 22.8093C88.2209 22.8093 88.7992 22.9939 89.2052 23.3507C89.6112 23.7075 89.8203 24.2242 89.8203 24.864V25.8483C89.8203 26.488 89.6112 26.9925 89.2052 27.3616C88.7869 27.743 88.2086 27.9152 87.4704 27.9152ZM87.4581 26.648C87.9502 26.648 88.1963 26.4142 88.1963 25.9467V24.7656C88.1963 24.3226 87.9502 24.0889 87.4581 24.0889C86.9782 24.0889 86.7445 24.3103 86.7445 24.7656V25.9344C86.7322 26.4142 86.9782 26.648 87.4581 26.648Z" fill="black"/>
<path d="M53.5254 16.1797V27.8065H51.5445V17.9514L49.5391 18.9726V17.287L51.5445 16.1797H53.5254Z" fill="white"/>
<path d="M60.7361 27.9416C59.3951 27.9416 58.3862 27.6463 57.7218 27.0558C57.0451 26.4652 56.7129 25.6655 56.7129 24.6443V19.3292C56.7129 18.2957 57.0574 17.4959 57.7341 16.9054C58.4108 16.3148 59.4074 16.0195 60.7361 16.0195C62.0649 16.0195 63.0738 16.3148 63.7382 16.8931C64.4149 17.4713 64.7471 18.2834 64.7471 19.3169V24.632C64.7471 25.6655 64.4026 26.4652 63.7259 27.0558C63.0615 27.6463 62.0649 27.9416 60.7361 27.9416ZM60.7361 26.3914C61.462 26.3914 61.9788 26.2314 62.2987 25.9238C62.6186 25.6162 62.7785 25.1856 62.7785 24.6443V19.3292C62.7785 18.7755 62.6186 18.3449 62.2987 18.0373C61.9788 17.7297 61.462 17.5698 60.7361 17.5698C60.0102 17.5698 59.4935 17.7297 59.1736 18.0373C58.8537 18.3449 58.6938 18.7755 58.6938 19.3292V24.6443C58.6938 25.1856 58.8537 25.6162 59.1736 25.9238C59.4935 26.2314 60.0102 26.3914 60.7361 26.3914Z" fill="white"/>
<path d="M71.673 27.9416C70.332 27.9416 69.3231 27.6463 68.6587 27.0558C67.9943 26.4652 67.6621 25.6532 67.6621 24.6443V19.3292C67.6621 18.2957 68.0066 17.4959 68.6833 16.9054C69.36 16.3148 70.3566 16.0195 71.6853 16.0195C73.0141 16.0195 74.023 16.3148 74.6874 16.8931C75.3641 17.4713 75.6963 18.2834 75.6963 19.3169V24.632C75.6963 25.6655 75.3518 26.4652 74.6751 27.0558C73.9984 27.6463 73.0018 27.9416 71.673 27.9416ZM71.673 26.3914C72.3989 26.3914 72.9157 26.2314 73.2356 25.9238C73.5555 25.6162 73.7154 25.1856 73.7154 24.6443V19.3292C73.7154 18.7755 73.5555 18.3449 73.2356 18.0373C72.9157 17.7297 72.3989 17.5698 71.673 17.5698C70.9471 17.5698 70.4304 17.7297 70.1105 18.0373C69.7906 18.3449 69.6307 18.7755 69.6307 19.3292V24.6443C69.6307 25.1856 69.7906 25.6162 70.1105 25.9238C70.4304 26.2314 70.9594 26.3914 71.673 26.3914Z" fill="white"/>
<path d="M80.4574 21.1483C79.7069 21.1483 79.1286 20.9638 78.7226 20.607C78.3166 20.2502 78.1074 19.7457 78.1074 19.106V18.1094C78.1074 17.4696 78.3166 16.9651 78.7226 16.596C79.1286 16.2392 79.7069 16.0547 80.4574 16.0547C81.2079 16.0547 81.7862 16.2392 82.1922 16.596C82.5982 16.9528 82.8074 17.4696 82.8074 18.1094V19.0936C82.8074 19.7334 82.5982 20.2379 82.1922 20.5947C81.7862 20.9761 81.2079 21.1483 80.4574 21.1483ZM79.2147 27.8045L86.8675 16.1777H88.6023L80.9495 27.8045H79.2147ZM80.4574 19.8811C80.9495 19.8811 81.1956 19.6473 81.1956 19.1798V17.9986C81.1956 17.5557 80.9495 17.3219 80.4574 17.3219C79.9776 17.3219 79.7438 17.5434 79.7438 17.9986V19.1675C79.7315 19.6473 79.9776 19.8811 80.4574 19.8811ZM87.4704 27.9152C86.7199 27.9152 86.1416 27.7307 85.7356 27.3739C85.3296 27.0171 85.1204 26.5127 85.1204 25.8606V24.864C85.1204 24.2242 85.3296 23.7198 85.7356 23.3507C86.1416 22.9939 86.7199 22.8093 87.4704 22.8093C88.2209 22.8093 88.7992 22.9939 89.2052 23.3507C89.6112 23.7075 89.8203 24.2242 89.8203 24.864V25.8483C89.8203 26.488 89.6112 26.9925 89.2052 27.3616C88.7869 27.743 88.2086 27.9152 87.4704 27.9152ZM87.4581 26.648C87.9502 26.648 88.1963 26.4142 88.1963 25.9467V24.7656C88.1963 24.3226 87.9502 24.0889 87.4581 24.0889C86.9782 24.0889 86.7445 24.3103 86.7445 24.7656V25.9344C86.7322 26.4142 86.9782 26.648 87.4581 26.648Z" fill="white"/>
<path d="M70.1098 0.640625L71.7954 2.63379L75.5849 2.95368L72.8412 4.50392L73.4933 6.69394L70.1098 5.66045L66.7264 6.69394L67.3661 4.50392L64.6348 2.95368L68.4119 2.63379L70.1098 0.640625Z" fill="white"/>
<path d="M56.6019 2.17969L58.0045 3.82835L61.1296 4.08673L58.8657 5.36629L59.4071 7.18721L56.6019 6.32596L53.809 7.18721L54.3381 5.36629L52.0742 4.08673L55.1993 3.82835L56.6019 2.17969Z" fill="white"/>
<path d="M84.1371 2.17969L85.5397 3.82835L88.6647 4.08673L86.4009 5.36629L86.9299 7.18721L84.1371 6.32596L81.3319 7.18721L81.8732 5.36629L79.6094 4.08673L82.7345 3.82835L84.1371 2.17969Z" fill="white"/>
<path d="M55.7031 63.8711C56.3429 64.4617 57.0073 65.0645 57.7332 65.6551C58.4591 66.2211 59.2219 66.8239 60.0463 67.3899C62.6054 67.7467 65.226 67.9805 67.859 68.1527C66.5794 67.2915 65.3983 66.4671 64.3279 65.569C61.3504 65.1384 58.4591 64.5724 55.7031 63.8711Z" fill="white"/>
<path d="M44.248 61.0273C44.6048 61.6917 45.0232 62.3561 45.4538 63.0328C45.909 63.6849 46.4135 64.3616 46.9548 65.026C49.2679 65.7273 51.6794 66.3302 54.1524 66.8469C53.2788 65.838 52.4914 64.8783 51.8393 63.8571C49.1448 63.0451 46.598 62.0977 44.248 61.0273Z" fill="white"/>
<path d="M34.2832 56.6602C34.4185 58.0505 34.7384 59.4531 35.2429 60.8926C37.1868 61.8768 39.2292 62.8242 41.4069 63.6485C41.1978 63.1072 41.0009 62.5781 40.8287 62.0491C40.6687 61.52 40.5334 60.9787 40.4103 60.4619C38.1711 59.2931 36.1164 58.0135 34.2832 56.6602Z" fill="white"/>
<path d="M26.4214 51.0234L26.1138 52.0446L25.8924 53.0781C25.7447 53.7794 25.6586 54.493 25.6094 55.2066C27.0612 56.437 28.6483 57.6181 30.3954 58.7254C30.4077 57.6427 30.5554 56.56 30.7522 55.5265C29.0667 54.087 27.6148 52.586 26.4214 51.0234Z" fill="white"/>
<path d="M21.1173 44.4531C20.6375 45.0683 20.1454 45.7081 19.7516 46.3602C19.3333 47.0122 18.9273 47.6889 18.6074 48.3779C19.4687 49.7682 20.5514 51.1093 21.7448 52.4258C21.9663 51.909 22.2369 51.3923 22.5199 50.8878C22.8029 50.3834 23.0736 49.8913 23.4181 49.3991C22.3846 47.7751 21.6341 46.1141 21.1173 44.4531Z" fill="white"/>
<path d="M18.7314 37.3203C18.0178 37.8494 17.2796 38.403 16.6275 38.969C15.9632 39.5349 15.2742 40.1378 14.6836 40.7407C14.9174 42.2048 15.4218 43.6443 16.0001 45.0715C16.4307 44.604 16.9228 44.1487 17.4027 43.6935C17.8825 43.2506 18.35 42.82 18.8914 42.3893C18.5715 40.7038 18.5346 38.9936 18.7314 37.3203Z" fill="white"/>
<path d="M19.3957 30.0469L18.0054 30.6744C17.5625 30.8958 17.1319 31.1173 16.7013 31.3387C15.8277 31.794 14.9542 32.2738 14.0806 32.7782C13.9453 33.4919 13.8468 34.2178 13.7238 34.9437C13.65 35.3005 13.65 35.6696 13.6254 36.0387C13.6131 36.4078 13.5762 36.7646 13.5762 37.1337C14.1913 36.7523 14.8557 36.3709 15.4955 36.0141C16.1353 35.6573 16.7751 35.3005 17.4641 34.9683C17.8947 33.2704 18.4976 31.634 19.3957 30.0469Z" fill="white"/>
<path d="M23.0246 23.082C21.9911 23.3527 20.933 23.6357 19.8749 23.9433C18.8537 24.2632 17.8448 24.6077 16.8113 24.9645C16.5898 25.2967 16.3069 25.6289 16.1346 25.9734L15.5563 26.9945L14.9781 28.028L14.5352 29.0738C15.298 28.7908 16.0485 28.5202 16.7867 28.2495C17.5741 27.9911 18.3615 27.7574 19.149 27.5236L19.9733 26.3671L20.9453 25.2474C21.5358 24.4969 22.311 23.7956 23.0246 23.082Z" fill="white"/>
<path d="M29.473 16.832C28.3288 16.9305 27.2583 17.0904 26.1141 17.238C24.9945 17.398 23.8134 17.5579 22.7184 17.7794C22.0417 18.37 21.2789 18.9359 20.6514 19.5511C20.0362 20.1663 19.3841 20.7814 18.7812 21.3966C20.4914 21.0644 22.2262 20.7938 23.8749 20.56C24.7115 19.8833 25.6712 19.2558 26.5447 18.6037C27.5413 18.0132 28.4641 17.398 29.473 16.832Z" fill="white"/>
<path d="M38.3682 11.6658C37.2608 11.6289 36.092 11.5674 34.9478 11.5797C33.8159 11.592 32.6593 11.6043 31.4659 11.6412L30.7646 11.9734L30.1002 12.3302L28.7714 13.0561C27.8487 13.5237 27.0612 14.065 26.2246 14.5818C28.0086 14.508 29.6942 14.4464 31.4536 14.4833L33.1146 13.7082C33.6559 13.4376 34.2711 13.2284 34.837 12.9946L36.5718 12.2933L38.3682 11.6658Z" fill="white"/>
<path d="M46.9563 5.04688L43.0561 5.51441C41.7642 5.69896 40.4846 5.93273 39.1682 6.14189C38.4176 6.59711 37.741 7.10156 37.052 7.56909L36.0308 8.28269L35.0957 9.0332L36.5106 8.75022C36.9904 8.6641 37.4826 8.59028 37.9624 8.51646C38.9344 8.36882 39.8695 8.20887 40.8291 8.08584L43.7697 6.51099L46.9563 5.04688Z" fill="white"/>
<path d="M52.3438 70.5885C53.6356 70.2932 54.8906 69.9979 56.1086 69.678C57.339 69.3335 58.5078 69.0136 59.6643 68.6445C62.3711 68.8537 65.1025 68.9029 67.8215 68.9029C66.4066 69.6534 64.8933 70.4408 63.2938 71.1298C59.6643 71.1298 55.9856 70.9576 52.3438 70.5885Z" fill="white"/>
<path d="M38.2207 67.0196C39.5741 66.9335 40.9152 66.8105 42.207 66.6875C43.5235 66.5398 44.8031 66.3799 46.0457 66.1953C48.5802 66.7613 51.164 67.2165 53.7846 67.5856C52.1113 68.1147 50.3273 68.6437 48.5064 69.0866C45.0245 68.5822 41.5796 67.8932 38.2207 67.0196Z" fill="white"/>
<path d="M26.0391 61.5938C28.7089 61.8029 31.3542 61.889 33.9133 61.8767C36.1279 62.7626 38.3918 63.5869 40.7663 64.2882C39.8436 64.4236 38.9085 64.5589 37.9488 64.6819C37.0015 64.805 36.0418 64.8911 35.0575 64.9895C31.9201 64.0298 28.8935 62.8856 26.0391 61.5938Z" fill="white"/>
<path d="M16.4551 54.6172L18.3129 55.0232L20.1953 55.38C21.4257 55.6138 22.6806 55.8106 23.911 55.9829C25.6458 57.1517 27.5036 58.259 29.4968 59.2679C27.5897 59.2925 25.6827 59.2433 23.7141 59.1572C21.1058 57.7792 18.6697 56.2659 16.4551 54.6172Z" fill="white"/>
<path d="M10.0566 46.5234C11.1393 46.9664 12.1974 47.397 13.3294 47.7784C14.4367 48.1721 15.5194 48.5412 16.6636 48.8734C17.8324 50.2514 19.1981 51.5556 20.6745 52.8105C19.7395 52.6875 18.8413 52.5521 17.9186 52.3922C17.0081 52.2323 16.0607 52.0846 15.1503 51.8878C13.194 50.2145 11.5085 48.4059 10.0566 46.5234Z" fill="white"/>
<path d="M7.25195 37.7617C8.1132 38.34 8.94983 38.8936 9.8726 39.4227C10.7831 39.9517 11.6566 40.4685 12.6163 40.936C13.1576 42.4247 13.9574 43.8642 14.8309 45.2791C13.9943 45.0331 13.1945 44.7624 12.3702 44.4917C11.5459 44.221 10.7092 43.9258 9.92181 43.6182C8.74067 41.748 7.84252 39.7795 7.25195 37.7617Z" fill="white"/>
<path d="M8.16337 28.8906L9.02462 29.8872C9.3322 30.2194 9.6767 30.5393 9.99659 30.8592C10.6487 31.499 11.3131 32.1018 11.9898 32.6924C11.9898 33.4429 12.0267 34.1934 12.0513 34.9439C12.0513 35.313 12.1128 35.6945 12.162 36.0636C12.2235 36.4327 12.2481 36.8141 12.3343 37.1832C11.633 36.8264 10.9809 36.4573 10.2919 36.0882C9.61518 35.7068 8.92619 35.313 8.31101 34.9193C8.00343 32.9262 7.8927 30.9084 8.16337 28.8906Z" fill="white"/>
<path d="M12.714 20.4023C13.0093 21.1406 13.3169 21.8419 13.6491 22.5432C14.0182 23.2444 14.4365 23.9334 14.8548 24.5978C14.6949 24.9546 14.4734 25.3114 14.3627 25.6682L13.969 26.7632L13.5753 27.846L13.3292 28.9533C12.8125 28.5226 12.2834 28.0674 11.779 27.6122C11.3114 27.157 10.8439 26.6894 10.3887 26.2096L10.7824 24.7455L11.3483 23.2937C11.6805 22.2971 12.2096 21.362 12.714 20.4023Z" fill="white"/>
<path d="M20.6742 12.8125C20.6126 13.5384 20.6865 14.3012 20.7234 15.0148C20.7726 15.7407 20.8218 16.4297 20.994 17.1433C20.4035 17.7954 19.7514 18.4229 19.2223 19.0996C18.7056 19.7763 18.1642 20.4284 17.6844 21.105C17.0692 20.1208 16.5402 19.1119 16.0234 18.0538C16.6509 17.1556 17.426 16.2821 18.1396 15.3839C18.9763 14.535 19.7637 13.6491 20.6742 12.8125Z" fill="white"/>
<path d="M31.5515 6.58594C31.2316 7.29954 30.9118 7.97623 30.678 8.68983C30.4442 9.40344 30.2474 10.1047 30.0751 10.7814L29.4107 11.1751L28.7956 11.5935L27.5775 12.4178C26.7409 12.9591 26.0273 13.562 25.2768 14.1403C25.0922 13.1068 24.92 12.0241 24.9323 10.9783L26.4456 9.82175C26.95 9.42804 27.5283 9.08355 28.0697 8.71444L29.7429 7.61943L31.5515 6.58594Z" fill="white"/>
<path d="M87.0032 70.5846C85.7113 70.2893 84.4564 69.994 83.2383 69.6741C82.008 69.3296 80.8391 69.0097 79.6826 68.6406C76.9758 68.8498 74.2445 68.899 71.5254 68.899C72.9403 69.6495 74.4536 70.4369 76.0531 71.1259C79.6826 71.1259 83.3613 70.9537 87.0032 70.5846Z" fill="white"/>
<path d="M101.127 67.0157C99.7736 66.9296 98.4202 66.8066 97.1284 66.6835C95.8119 66.5359 94.5323 66.376 93.2897 66.1914C90.7552 66.7574 88.1714 67.2126 85.5508 67.5817C87.2241 68.1108 89.0081 68.6398 90.829 69.0827C94.3232 68.5783 97.7681 67.8893 101.127 67.0157Z" fill="white"/>
<path d="M113.307 61.5898C110.637 61.799 107.992 61.8851 105.433 61.8728C103.218 62.7587 100.955 63.583 98.5801 64.2843C99.5028 64.4196 100.438 64.555 101.398 64.678C102.345 64.8011 103.305 64.8872 104.289 64.9856C107.426 64.0259 110.453 62.8817 113.307 61.5898Z" fill="white"/>
<path d="M122.893 54.6133L121.035 55.0193L119.153 55.3761C117.923 55.6099 116.668 55.8067 115.437 55.979C113.703 57.1478 111.845 58.2551 109.852 59.264C111.759 59.2886 113.666 59.2394 115.634 59.1533C118.243 57.7753 120.679 56.2619 122.893 54.6133Z" fill="white"/>
<path d="M129.29 46.5195C128.207 46.9625 127.149 47.3931 126.017 47.7745C124.91 48.1682 123.827 48.5373 122.683 48.8695C121.514 50.2475 120.148 51.5517 118.672 52.8066C119.607 52.6836 120.505 52.5482 121.428 52.3883C122.338 52.2283 123.286 52.0807 124.196 51.8838C126.152 50.2106 127.838 48.402 129.29 46.5195Z" fill="white"/>
<path d="M132.095 37.7578C131.233 38.3361 130.397 38.8897 129.474 39.4188C128.563 39.9478 127.69 40.4646 126.73 40.9321C126.189 42.4208 125.389 43.8603 124.516 45.2752C125.352 45.0292 126.152 44.7585 126.976 44.4878C127.801 44.2171 128.637 43.9219 129.425 43.6143C130.606 41.7441 131.504 39.7756 132.095 37.7578Z" fill="white"/>
<path d="M131.185 28.8867L130.323 29.8833C130.016 30.2155 129.671 30.5354 129.351 30.8553C128.699 31.4951 128.035 32.0979 127.358 32.6885C127.358 33.439 127.321 34.1895 127.297 34.94C127.297 35.3091 127.235 35.6905 127.186 36.0597C127.124 36.4288 127.1 36.8102 127.014 37.1793C127.715 36.8225 128.367 36.4534 129.056 36.0843C129.733 35.7029 130.422 35.3091 131.037 34.9154C131.345 32.9223 131.455 30.9045 131.185 28.8867Z" fill="white"/>
<path d="M126.633 20.3984C126.338 21.1366 126.03 21.8379 125.698 22.5392C125.329 23.2405 124.911 23.9295 124.492 24.5939C124.652 24.9507 124.874 25.3075 124.984 25.6643L125.378 26.7593L125.772 27.842L126.018 28.9494C126.535 28.5187 127.064 28.0635 127.568 27.6083C128.036 27.1531 128.503 26.6855 128.958 26.2057L128.565 24.7416L127.999 23.2898C127.666 22.2932 127.137 21.3581 126.633 20.3984Z" fill="white"/>
<path d="M118.671 12.8086C118.733 13.5345 118.659 14.2973 118.622 15.0109C118.573 15.7368 118.524 16.4258 118.352 17.1394C118.942 17.7915 119.594 18.419 120.123 19.0957C120.64 19.7724 121.181 20.4245 121.661 21.1011C122.276 20.1169 122.805 19.108 123.322 18.0499C122.695 17.1517 121.92 16.2782 121.206 15.38C120.369 14.5311 119.582 13.6452 118.671 12.8086Z" fill="white"/>
<path d="M107.797 6.58203C108.117 7.29563 108.437 7.97233 108.67 8.68593C108.904 9.39953 109.101 10.1008 109.273 10.7775L109.938 11.1712L110.553 11.5896L111.771 12.4139C112.608 12.9552 113.321 13.5581 114.072 14.1364C114.256 13.1029 114.428 12.0202 114.416 10.9744L112.903 9.81785C112.398 9.42414 111.82 9.07964 111.279 8.71053L109.605 7.61552L107.797 6.58203Z" fill="white"/>
<path d="M92.5273 4.84766L95.5171 6.33638C96.4768 6.85312 97.3749 7.39448 98.2731 7.91122C99.282 8.04656 100.242 8.25572 101.238 8.42797L102.739 8.71095L104.203 9.05545L103.367 8.30494C103.071 8.07117 102.764 7.8374 102.444 7.59133C101.816 7.1238 101.201 6.63166 100.537 6.16413C99.1835 5.90576 97.8548 5.64738 96.5383 5.41362L92.5273 4.84766Z" fill="white"/>
<path d="M83.6441 63.8672C83.0043 64.4578 82.34 65.0606 81.614 65.6512C80.8881 66.2172 80.1253 66.82 79.301 67.386C76.7419 67.7428 74.1212 67.9766 71.4883 68.1488C72.7678 67.2876 73.949 66.4632 75.0194 65.5651C77.9968 65.1344 80.8881 64.5685 83.6441 63.8672Z" fill="white"/>
<path d="M95.0996 61.0234C94.7428 61.6878 94.3245 62.3522 93.8939 63.0289C93.4386 63.681 92.9342 64.3577 92.3928 65.0221C90.0798 65.7234 87.6683 66.3262 85.1953 66.843C86.0689 65.8341 86.8563 64.8744 87.5084 63.8532C90.2028 63.0412 92.7496 62.0938 95.0996 61.0234Z" fill="white"/>
<path d="M105.065 56.6562C104.93 58.0465 104.61 59.4491 104.105 60.8887C102.161 61.8729 100.119 62.8203 97.9414 63.6446C98.1506 63.1033 98.3474 62.5742 98.5197 62.0452C98.6796 61.5161 98.815 60.9748 98.938 60.458C101.177 59.2892 103.232 58.0096 105.065 56.6562Z" fill="white"/>
<path d="M112.927 51.0195L113.234 52.0407L113.456 53.0742C113.603 53.7755 113.689 54.4891 113.739 55.2027C112.287 56.4331 110.7 57.6142 108.953 58.7215C108.94 57.6388 108.793 56.5561 108.596 55.5226C110.281 54.0831 111.733 52.5821 112.927 51.0195Z" fill="white"/>
<path d="M118.228 44.4492C118.708 45.0644 119.2 45.7042 119.594 46.3563C120.012 47.0083 120.419 47.685 120.738 48.374C119.877 49.7643 118.794 51.1054 117.601 52.4219C117.38 51.9051 117.109 51.3884 116.826 50.8839C116.543 50.3795 116.272 49.8874 115.928 49.3952C116.961 47.7712 117.712 46.1102 118.228 44.4492Z" fill="white"/>
<path d="M120.617 37.3164C121.331 37.8455 122.069 38.3991 122.721 38.9651C123.385 39.531 124.074 40.1339 124.665 40.7368C124.431 42.2009 123.927 43.6404 123.348 45.0676C122.918 44.6001 122.426 44.1448 121.946 43.6896C121.466 43.2467 120.998 42.8161 120.457 42.3854C120.777 40.6999 120.814 38.9897 120.617 37.3164Z" fill="white"/>
<path d="M119.951 30.043L121.341 30.6704C121.784 30.8919 122.215 31.1134 122.646 31.3348C123.519 31.7901 124.393 32.2699 125.266 32.7743C125.402 33.4879 125.5 34.2139 125.623 34.9398C125.697 35.2966 125.697 35.6657 125.722 36.0348C125.734 36.4039 125.771 36.7607 125.771 37.1298C125.156 36.7484 124.491 36.367 123.851 36.0102C123.212 35.6534 122.572 35.2966 121.883 34.9644C121.452 33.2665 120.849 31.6301 119.951 30.043Z" fill="white"/>
<path d="M116.322 23.0781C117.356 23.3488 118.414 23.6318 119.472 23.9394C120.493 24.2593 121.502 24.6038 122.536 24.9606C122.757 25.2928 123.04 25.6249 123.212 25.9694L123.79 26.9906L124.369 28.0241L124.812 29.0699C124.049 28.7869 123.298 28.5163 122.56 28.2456C121.773 27.9872 120.985 27.7535 120.198 27.5197L119.374 26.3632L118.402 25.2435C117.811 24.493 117.036 23.7917 116.322 23.0781Z" fill="white"/>
<path d="M109.875 16.8281C111.019 16.9266 112.09 17.0865 113.234 17.2341C114.353 17.3941 115.535 17.554 116.63 17.7755C117.306 18.3661 118.069 18.932 118.697 19.5472C119.312 20.1624 119.964 20.7775 120.567 21.3927C118.857 21.0605 117.122 20.7898 115.473 20.5561C114.636 19.8794 113.677 19.2519 112.803 18.5998C111.807 18.0093 110.884 17.3941 109.875 16.8281Z" fill="white"/>
<path d="M100.98 11.6619C102.088 11.625 103.257 11.5635 104.401 11.5758C105.533 11.5881 106.689 11.6004 107.883 11.6373L108.584 11.9695L109.248 12.3263L110.577 13.0522C111.5 13.5198 112.287 14.0611 113.124 14.5779C111.34 14.504 109.654 14.4425 107.895 14.4794L106.234 13.7043C105.693 13.4336 105.078 13.2245 104.512 12.9907L102.777 12.2894L100.98 11.6619Z" fill="white"/>
<path d="M40.8027 41.7575C39.843 42.5819 39.0925 43.0248 37.8499 43.0248C36.0659 43.0248 34.7248 41.5976 34.7248 39.6659C34.7248 37.7835 36.0659 36.3686 37.8499 36.3686C38.8588 36.3686 39.7077 36.7377 40.7043 37.5866L41.2087 38.0173L43.7555 35.249L43.4234 34.9414C41.8977 33.5265 40.1875 32.8867 37.8745 32.8867C33.6913 32.8867 30.5293 35.8149 30.5293 39.7275C30.5293 43.5908 33.6421 46.5067 37.7637 46.5067C40.7904 46.5067 42.3776 45.3132 43.5341 44.1444L43.854 43.8122L41.2702 41.3515L40.8027 41.7575Z" fill="white"/>
<path d="M56.6996 37.6253C56.6996 34.8324 54.5957 33.0977 51.2123 33.0977H44.6914V46.2993H48.7639V42.3991H50.0311L52.7994 46.2993H57.5485L54.1774 41.6486C55.8138 40.8735 56.6996 39.4709 56.6996 37.6253ZM52.5902 37.773V37.8099C52.5902 38.5973 52.0366 39.0279 51.0277 39.0279H48.7639V36.5303H50.9662C52.0612 36.5303 52.5902 36.9363 52.5902 37.773Z" fill="white"/>
<path d="M63.2444 37.4039L60.5376 33.0977H55.8008L61.1897 41.1195V46.3116H65.2622V41.0703L70.6511 33.0977H66.0004L63.2444 37.4039Z" fill="white"/>
<path d="M76.6297 33.0977H70.7363V46.2993H74.8088V42.6452H76.3467C79.8409 42.6452 82.1786 40.7258 82.1786 37.8222C82.1909 35.0047 79.9516 33.0977 76.6297 33.0977ZM74.8211 36.5303H76.3959C77.5155 36.5303 78.0815 36.9856 78.0815 37.8714V37.9083C78.0815 38.5604 77.6509 39.2494 76.4451 39.2494H74.8088V36.5303H74.8211Z" fill="white"/>
<path d="M94.0529 33.0977H82.1309V36.5918H86.0557V46.3116H90.1281V36.5918H94.0529V33.0977Z" fill="white"/>
<path d="M101.36 32.8867C97.1522 32.8867 93.8672 35.8765 93.8672 39.7275C93.8672 43.5908 97.0784 46.5067 101.323 46.5067C105.531 46.5067 108.816 43.5169 108.816 39.6659C108.816 35.8026 105.605 32.8867 101.36 32.8867ZM104.608 39.7029V39.7398C104.608 41.6222 103.206 43.0371 101.348 43.0371C99.4653 43.0371 98.0504 41.6099 98.0504 39.6782C98.0504 37.7958 99.453 36.3809 101.311 36.3809C103.193 36.3686 104.608 37.8081 104.608 39.7029Z" fill="white"/>
</svg>
