<svg width="140" height="72" viewBox="0 0 140 72" fill="none" xmlns="http://www.w3.org/2000/svg">
<path d="M129.841 22.145C126.605 18.3801 124.833 15.8948 124.316 15.1443L124.304 15.132L124.169 14.9105L121.511 10.9242L116.159 11.0718C114.634 11.0718 106.575 10.8996 96.9166 7.43C84.5516 3.00075 73.4046 2.65625 70.2918 2.65625H69.9104H69.4552C66.3547 2.65625 55.257 3.00075 42.892 7.44231C33.0738 10.9488 24.6459 11.0718 23.7232 11.0718H23.4156L18.2112 10.9119L15.7013 14.8367C15.6275 14.9597 13.905 17.5804 9.98016 22.145C5.04646 27.8661 4.55432 33.7226 4.56662 35.9741C4.55432 38.2502 5.05876 44.1313 9.98016 49.8524C13.5851 54.0479 15.3568 56.6316 15.6767 57.1115L18.2112 61.0855L23.6616 60.9256C25.1873 60.9256 33.246 61.0978 42.9043 64.5674C55.2693 69.0089 66.4039 69.3534 69.529 69.3534H70.3657C73.4784 69.3534 84.5762 69.0089 96.9289 64.5674C106.796 61.024 115.163 60.9256 116.085 60.9256H116.418L121.622 61.0855L124.132 57.1484C124.329 56.8531 126.064 54.2448 129.853 49.8524C134.787 44.119 135.291 38.2625 135.279 36.011C135.279 33.7472 134.774 27.8661 129.841 22.145ZM126.974 48.376C123.037 52.9529 121.241 55.6597 121.044 55.955L119.518 58.3418L116.11 58.2434C114.486 58.2434 105.8 58.428 95.4894 62.1313C83.7519 66.3391 73.2693 66.6713 70.3411 66.6713H69.9104H69.4675C66.527 66.6713 56.0321 66.3391 44.2946 62.1313C33.9966 58.4403 25.2857 58.2434 23.637 58.2434L20.2659 58.3418L18.7279 55.9426C18.7156 55.918 16.8947 53.1252 12.81 48.3883C8.40531 43.2701 7.96239 38.0165 7.97469 35.9987C7.96239 34.0055 8.40531 28.7642 12.81 23.646C16.7717 19.0445 18.5557 16.3623 18.7402 16.067L20.2659 13.6802L23.6739 13.7786C25.298 13.7786 33.9843 13.594 44.2823 9.8907C56.0198 5.68291 66.5024 5.35071 69.4306 5.35071H69.8735H70.3042C73.2447 5.35071 83.7396 5.68291 95.4771 9.8907C105.775 13.5817 114.486 13.7786 116.135 13.7786L119.506 13.6802L121.044 16.0794C121.241 16.3746 123.062 19.106 126.962 23.6337C131.366 28.7519 131.809 34.0055 131.797 36.0233C131.822 38.0165 131.379 43.2578 126.974 48.376Z" fill="white"/>
<path d="M28.4343 50.776C28.4343 51.8464 27.4377 52.7199 26.2074 52.7199C24.9771 52.7199 23.9805 51.8464 23.9805 50.776C23.9805 49.7056 24.9771 48.832 26.2074 48.832C27.4377 48.832 28.4343 49.7056 28.4343 50.776Z" fill="white"/>
<path d="M28.4343 23.44C28.4343 24.5104 27.4377 25.384 26.2074 25.384C24.9771 25.384 23.9805 24.5104 23.9805 23.44C23.9805 22.3696 24.9771 21.4961 26.2074 21.4961C27.4377 21.4961 28.4343 22.3573 28.4343 23.44Z" fill="white"/>
<path d="M115.741 50.776C115.741 51.8464 114.744 52.7199 113.514 52.7199C112.284 52.7199 111.287 51.8464 111.287 50.776C111.287 49.7056 112.284 48.832 113.514 48.832C114.744 48.832 115.741 49.7056 115.741 50.776Z" fill="white"/>
<path d="M115.741 23.44C115.741 24.5104 114.744 25.384 113.514 25.384C112.284 25.384 111.287 24.5104 111.287 23.44C111.287 22.3696 112.284 21.4961 113.514 21.4961C114.744 21.4961 115.741 22.3573 115.741 23.44Z" fill="white"/>
<path d="M47.1973 16.8427H49.1904V17.7163C49.1904 18.0977 49.1043 18.4176 48.9444 18.7006C48.7721 18.9835 48.5383 19.1927 48.2431 19.3526C47.9478 19.5126 47.591 19.5864 47.185 19.5864C46.7789 19.5864 46.4221 19.5126 46.1146 19.365C45.807 19.2173 45.5732 19.0205 45.401 18.7498C45.2287 18.4914 45.1426 18.1715 45.1426 17.827V16.3506C45.1426 15.9692 45.2287 15.6493 45.3886 15.3663C45.5609 15.0833 45.7947 14.8742 46.0899 14.7142C46.3852 14.5543 46.742 14.4805 47.148 14.4805C47.4802 14.4805 47.7878 14.542 48.0585 14.665C48.3292 14.7881 48.5629 14.9603 48.7475 15.1818C48.9321 15.4032 49.0551 15.6616 49.1289 15.9569H48.2554C48.1815 15.6985 48.0339 15.5017 47.8247 15.3663C47.6156 15.231 47.3818 15.1572 47.148 15.1572C46.7912 15.1572 46.5083 15.2679 46.2868 15.4771C46.0653 15.6985 45.9669 15.9815 45.9669 16.3383V17.8147C45.9669 18.1346 46.0776 18.4053 46.2991 18.6021C46.5206 18.799 46.8159 18.8974 47.1727 18.8974C47.5295 18.8974 47.8124 18.799 48.0339 18.5898C48.2554 18.3807 48.3538 18.0977 48.3538 17.7286V17.5071H47.185V16.8427H47.1973Z" fill="white"/>
<path d="M52.4143 19.588C51.7745 19.588 51.2823 19.428 50.9255 19.0958C50.5687 18.776 50.3965 18.3084 50.3965 17.7179V14.5312H51.1962V17.7425C51.1962 18.1116 51.3069 18.3945 51.5161 18.5914C51.7253 18.7883 52.0205 18.8867 52.402 18.8867C52.7834 18.8867 53.0909 18.7883 53.3001 18.5914C53.5093 18.3945 53.62 18.1116 53.62 17.7425V14.5312H54.4197V17.7179C54.4197 18.3084 54.2475 18.7636 53.8907 19.0958C53.5585 19.428 53.0663 19.588 52.4143 19.588Z" fill="white"/>
<path d="M55.2305 19.5382L57.3467 14.543H58.0357L60.1519 19.5382H59.2783L57.6912 15.5026L56.104 19.5382H55.2305ZM56.2024 18.4432V17.7788H59.2168V18.4432H56.2024Z" fill="white"/>
<path d="M61.0137 19.5388V14.5312H61.8134V19.5388H61.0137ZM61.3582 17.4226V16.7582H63.4744C63.6589 16.7582 63.8066 16.6844 63.9296 16.549C64.0403 16.4014 64.1018 16.2168 64.1018 15.9831C64.1018 15.7493 64.0403 15.5647 63.9296 15.4171C63.8189 15.2695 63.6712 15.2079 63.4744 15.2079H61.3582V14.5436H63.4375C63.745 14.5436 64.0034 14.6051 64.2249 14.7281C64.4463 14.8511 64.6309 15.0111 64.7539 15.2325C64.877 15.4417 64.9385 15.7001 64.9385 15.9954C64.9385 16.2906 64.877 16.5367 64.7539 16.7582C64.6309 16.9673 64.4586 17.1396 64.2249 17.2626C64.0034 17.3857 63.7327 17.4472 63.4375 17.4472H61.3582V17.4226ZM64.2372 19.5388L62.9207 17.2749L63.7204 17.115L65.1846 19.5388H64.2372Z" fill="white"/>
<path d="M65.6641 19.5382L67.7803 14.543H68.4693L70.5855 19.5382H69.7119L68.1248 15.5026L66.5376 19.5382H65.6641ZM66.6483 18.4432V17.7788H69.6627V18.4432H66.6483Z" fill="white"/>
<path d="M71.459 19.5388V14.5436H72.1849L74.9901 18.3699L74.8917 18.4561V14.5312H75.6914V19.5265H74.9532L72.1603 15.7493L72.2587 15.6632V19.5265H71.459V19.5388Z" fill="white"/>
<path d="M76.3203 15.2074V14.543H80.3682V15.2074H76.3203ZM77.9444 19.5382V14.949H78.7441V19.5382H77.9444Z" fill="white"/>
<path d="M81.0078 19.5382V14.543H81.8075V19.5382H81.0078ZM81.3892 15.2074V14.543H84.6866V15.2074H81.3892ZM81.3892 17.3851V16.7207H84.2559V17.3851H81.3892ZM81.3892 19.5382V18.8738H84.6866V19.5382H81.3892Z" fill="white"/>
<path d="M85.8301 19.5382V14.543H86.6298V19.5382H85.8301ZM86.2238 15.2074V14.543H89.5211V15.2074H86.2238ZM86.2238 17.3851V16.7207H89.0905V17.3851H86.2238ZM86.2238 19.5382V18.8738H89.5211V19.5382H86.2238Z" fill="white"/>
<path d="M90.666 19.5382V14.543H91.4657V19.5382H90.666ZM91.2074 19.5382V18.8738H92.5115C92.9299 18.8738 93.262 18.7754 93.4958 18.5908C93.7296 18.394 93.8403 18.1356 93.8403 17.7788V16.3024C93.8403 15.9579 93.7296 15.6872 93.4958 15.4903C93.262 15.2935 92.9299 15.2074 92.5115 15.2074H91.2074V14.543H92.4869C93.1759 14.543 93.7173 14.7029 94.0987 15.0105C94.4801 15.3181 94.6646 15.761 94.6646 16.327V17.7419C94.6646 18.3078 94.4801 18.7508 94.0864 19.0583C93.705 19.3659 93.1636 19.5259 92.4746 19.5259H91.2074V19.5382Z" fill="white"/>
<path d="M32.1504 22.6992H31.9043V23.5482L107.706 23.622H107.952V22.773L32.1504 22.6992Z" fill="white"/>
<path d="M31.8555 49.8398V50.6888L107.657 50.7626H107.903V49.926L32.1015 49.8398H31.8555Z" fill="white"/>
<path d="M34.9312 32.4793V35.752H32.3105V26.0938H36.6537C37.4903 26.0938 38.2162 26.2291 38.856 26.4998C39.4958 26.7704 39.9879 27.1642 40.3447 27.6563C40.7015 28.1607 40.8738 28.7267 40.8738 29.3665C40.8738 30.3138 40.4924 31.0644 39.7295 31.6303C38.9667 32.1963 37.9332 32.4793 36.6045 32.4793H34.9312ZM34.9312 30.683H36.6537C37.1581 30.683 37.5518 30.5722 37.8102 30.3508C38.0809 30.1293 38.2039 29.8094 38.2039 29.3911C38.2039 28.9359 38.0686 28.5791 37.7979 28.3084C37.5272 28.0377 37.1458 27.9024 36.6783 27.9024H34.9312V30.683Z" fill="white"/>
<path d="M46.3109 32.3472H44.896V35.7676H42.2754V26.1094H46.557C47.8489 26.1094 48.8578 26.3677 49.5837 26.8722C50.3096 27.3766 50.6787 28.1025 50.6787 29.0253C50.6787 29.702 50.531 30.2557 50.2234 30.6986C49.9159 31.1415 49.436 31.4983 48.7839 31.769L51.0601 35.6692V35.7676H48.2549L46.3109 32.3472ZM44.896 30.5509H46.557C47.0491 30.5509 47.4306 30.4402 47.6766 30.2064C47.9227 29.9727 48.058 29.6528 48.058 29.2345C48.058 28.8161 47.935 28.4963 47.6766 28.2502C47.4182 28.0164 47.0491 27.8934 46.557 27.8934H44.896V30.5509Z" fill="white"/>
<path d="M61.4573 31.1284C61.4573 32.0758 61.2604 32.9001 60.8667 33.626C60.473 34.3519 59.9193 34.9056 59.1934 35.2993C58.4675 35.693 57.6432 35.8898 56.7204 35.8898C55.7977 35.8898 54.9733 35.7053 54.2597 35.3239C53.5461 34.9425 52.9802 34.4011 52.5865 33.6998C52.1804 32.9985 51.9713 32.1865 51.959 31.276V30.7347C51.959 29.7873 52.1558 28.9507 52.5496 28.2248C52.9433 27.4989 53.4969 26.9452 54.2351 26.5515C54.961 26.1578 55.7977 25.9609 56.7204 25.9609C57.6432 25.9609 58.4675 26.1578 59.1811 26.5392C59.907 26.9329 60.4607 27.4866 60.8667 28.2002C61.2727 28.9138 61.4696 29.7381 61.4696 30.6732V31.1284H61.4573ZM58.7874 30.7224C58.7874 29.7627 58.6029 29.0368 58.2461 28.5324C57.8893 28.0402 57.3725 27.7819 56.6958 27.7819C55.3794 27.7819 54.6904 28.6554 54.6165 30.4148L54.6042 31.1284C54.6042 32.0758 54.7765 32.8017 55.1333 33.3061C55.4901 33.8106 56.0068 34.0689 56.7081 34.0689C57.3725 34.0689 57.877 33.8229 58.2338 33.3184C58.5906 32.814 58.7751 32.1004 58.7751 31.1653V30.7224H58.7874Z" fill="white"/>
<path d="M66.8698 33.1313L69.0352 26.0938H71.9635L68.3093 35.752H65.4303L61.8008 26.0938H64.7044L66.8698 33.1313Z" fill="white"/>
<path d="M78.3612 33.959H74.7686L74.1411 35.7676H71.3359L75.3223 26.1094H77.783L81.8062 35.7676H78.9887L78.3612 33.959ZM75.3961 32.1627H77.7338L76.5649 28.8161L75.3961 32.1627Z" fill="white"/>
<path d="M82.6074 35.752V26.0938H86.5199C87.9225 26.0938 88.9806 26.3275 89.7065 26.7827C90.4324 27.238 90.8015 27.9024 90.8015 28.7636C90.8015 29.268 90.6785 29.6864 90.4078 30.0432C90.1372 30.4 89.768 30.6583 89.2636 30.8306C89.8296 30.9659 90.2725 31.212 90.5678 31.5688C90.8754 31.9256 91.023 32.3685 91.023 32.8976C91.023 33.8449 90.6908 34.5585 90.0141 35.0261C89.3374 35.5059 88.3408 35.7397 87.0121 35.752H82.6074ZM85.2281 30.1293H86.5937C87.172 30.1293 87.578 30.0309 87.8241 29.8463C88.0702 29.6618 88.1932 29.3911 88.1932 29.0466C88.1932 28.6406 88.0579 28.3453 87.7995 28.1607C87.5411 27.9762 87.1105 27.8901 86.5199 27.8901H85.2404V30.1293H85.2281ZM85.2281 31.6549V33.968H86.9506C87.4181 33.968 87.7872 33.8696 88.0456 33.685C88.3039 33.4881 88.427 33.2175 88.427 32.873C88.427 32.0732 87.9717 31.6672 87.0736 31.6549H85.2281Z" fill="white"/>
<path d="M95.0953 33.9713H99.6598V35.7676H92.4746V26.1094H95.0953V33.9713Z" fill="white"/>
<path d="M102.661 30.2892L104.666 26.0938H107.496L103.99 32.2824V35.752H101.332V32.2824L97.8379 26.0938H100.655L102.661 30.2892Z" fill="white"/>
<path d="M61.0388 43.48L56.7325 43.4307L56.6587 46.7896L53.9766 46.7527L54.1734 38.3125L61.5801 38.3986L61.5432 39.9735L56.8064 39.912L56.7571 41.8559L61.0634 41.9051L61.0388 43.48Z" fill="white"/>
<path d="M67.3753 45.3398L63.7088 45.2905L63.0321 46.8654L60.1777 46.8285L64.4347 38.4375L66.9447 38.4744L70.8449 46.9638L67.9781 46.9269L67.3753 45.3398ZM64.3855 43.728L66.7724 43.7526L65.6405 40.8121L64.3855 43.728Z" fill="white"/>
<path d="M74.5117 47.0005L71.8418 46.9636L72.0387 38.5234L74.7085 38.5603L74.5117 47.0005Z" fill="white"/>
<path d="M80.5523 44.0973L79.1128 44.085L79.039 47.0748L76.3691 47.0378L76.566 38.5977L80.9214 38.6469C82.2379 38.6592 83.2591 38.8929 83.985 39.3482C84.7109 39.8034 85.0677 40.4309 85.0554 41.2429C85.0431 41.8335 84.8709 42.3133 84.551 42.6947C84.2311 43.0761 83.7389 43.3837 83.0622 43.6175L85.2892 47.0502V47.1363L82.4348 47.0994L80.5523 44.0973ZM79.1374 42.5102L80.823 42.5348C81.3274 42.5348 81.7088 42.4486 81.9795 42.2395C82.2379 42.0426 82.3732 41.7596 82.3855 41.3905C82.3978 41.0214 82.2748 40.7385 82.0164 40.5293C81.7581 40.3201 81.389 40.2094 80.8845 40.2094L79.1989 40.1848L79.1374 42.5102Z" fill="white"/>
<path d="M56.9042 60.35C54.9602 60.35 53.6191 58.9843 53.6191 57.1387V57.1264C53.6191 55.3547 54.9971 53.8906 56.8919 53.8906C58.0115 53.8906 58.6882 54.1982 59.3403 54.7519L58.479 55.7977C57.9992 55.3916 57.5686 55.1579 56.8427 55.1579C55.8461 55.1579 55.0463 56.0437 55.0463 57.1018V57.1141C55.0463 58.2584 55.8338 59.095 56.9411 59.095C57.4455 59.095 57.8884 58.972 58.2329 58.7259V57.8277H56.855V56.6466H59.5617V59.3534C58.9342 59.907 58.0484 60.35 56.9042 60.35Z" fill="white"/>
<path d="M65.5411 60.2402L64.9751 58.8376H62.3299L61.7639 60.2402H60.3613L63.0435 53.9531H64.3108L66.9929 60.2402H65.5411ZM63.6587 55.6018L62.8343 57.6319H64.4953L63.6587 55.6018Z" fill="white"/>
<path d="M72.8253 60.2384V56.166L71.0659 58.8359H71.029L69.2942 56.1906V60.2384H67.9531V53.9883H69.4295L71.0659 56.6335L72.7023 53.9883H74.1787V60.2384H72.8253Z" fill="white"/>
<path d="M75.6914 60.2384V53.9883H80.4036V55.2063H77.0571V56.4736H79.9976V57.6916H77.0571V59.0081H80.4405V60.2261H75.6914V60.2384Z" fill="white"/>
<path d="M83.8855 60.3242C82.9381 60.3242 81.9907 59.992 81.2402 59.3276L82.0523 58.3556C82.6182 58.8232 83.2088 59.1184 83.9224 59.1184C84.4884 59.1184 84.8206 58.897 84.8206 58.5279V58.5156C84.8206 58.1711 84.6114 57.9865 83.5656 57.7158C82.3106 57.3959 81.4986 57.0515 81.4986 55.8088V55.7965C81.4986 54.6646 82.4091 53.9141 83.6886 53.9141C84.5991 53.9141 85.3742 54.197 86.014 54.7015L85.3004 55.735C84.7467 55.3536 84.2054 55.1198 83.6763 55.1198C83.1473 55.1198 82.8766 55.3659 82.8766 55.6612V55.6858C82.8766 56.0918 83.1473 56.2271 84.2177 56.5101C85.4849 56.8423 86.1985 57.2975 86.1985 58.3802V58.3925C86.1739 59.6352 85.2389 60.3242 83.8855 60.3242Z" fill="white"/>
</svg>
