<svg width="140" height="72" viewBox="0 0 140 72" fill="none" xmlns="http://www.w3.org/2000/svg">
<path fill-rule="evenodd" clip-rule="evenodd" d="M71.9874 1.21875L60.9512 23.4142L67.9149 23.6849L62.6737 37.9324L79.7263 19.1818L70.351 19.108L71.9874 1.21875Z" fill="white"/>
<path fill-rule="evenodd" clip-rule="evenodd" d="M72.3321 4.76172C75.3833 5.32768 78.1024 6.8164 80.2063 8.9203C82.9377 11.6517 84.6233 15.4165 84.6233 19.5751C84.6233 23.7337 82.9377 27.4986 80.2063 30.2299C77.4749 32.9613 73.7101 34.6469 69.5515 34.6469C68.6041 34.6469 67.6814 34.5608 66.7832 34.3885L68.8994 32.0632C69.1209 32.0755 69.3423 32.0878 69.5638 32.0878C73.0211 32.0878 76.1462 30.6852 78.41 28.4213C80.6738 26.1575 82.0764 23.0324 82.0764 19.5751C82.0764 16.1178 80.6861 12.9928 78.41 10.7289C76.7244 9.03103 74.5344 7.82529 72.0983 7.32084L72.3321 4.76172Z" fill="white"/>
<path fill-rule="evenodd" clip-rule="evenodd" d="M69.5509 4.50391C69.5755 4.50391 69.6001 4.50391 69.6247 4.50391L68.3205 7.12455C65.3554 7.41983 62.6978 8.73631 60.7047 10.7295C58.4408 12.9933 57.0382 16.1184 57.0382 19.5757C57.0382 23.033 58.4285 26.158 60.7047 28.4219C61.7874 29.5046 63.0792 30.3904 64.4941 31.0302L63.6083 33.4417C61.8366 32.6789 60.2371 31.5839 58.8837 30.2428C56.1524 27.5114 54.4668 23.7466 54.4668 19.588C54.4668 15.4294 56.1524 11.6645 58.8837 8.93316C61.6274 6.18948 65.3923 4.50391 69.5509 4.50391Z" fill="white"/>
<path d="M33.7734 45.4494V37.6367H37.2799C38.4365 37.6367 39.31 37.809 39.9006 38.1658C40.4911 38.5103 40.7741 39.0393 40.7741 39.716C40.7741 40.0851 40.6265 40.405 40.3435 40.688C40.0605 40.971 39.6668 41.1924 39.187 41.3401C39.7652 41.4631 40.2205 41.6846 40.565 42.0168C40.8972 42.349 41.0694 42.7427 41.0694 43.1979C41.0694 43.8992 40.7618 44.4529 40.1343 44.8466C39.5069 45.2526 38.6333 45.4494 37.4891 45.4494H33.7734ZM35.1883 40.971H37.3168C37.932 40.971 38.4242 40.8602 38.7933 40.6388C39.1624 40.4173 39.3469 40.1097 39.3469 39.716C39.3469 39.2854 39.1747 38.9778 38.8302 38.7809C38.4857 38.5841 37.9689 38.4857 37.2676 38.4857H35.176V40.971H35.1883ZM35.1883 41.7953V44.6005H37.526C38.1781 44.6005 38.7071 44.4775 39.0885 44.2314C39.47 43.9853 39.6545 43.6408 39.6545 43.1979C39.6545 42.2628 38.9532 41.783 37.5506 41.783H35.1883V41.7953Z" fill="white"/>
<path d="M47.6766 45.4494H46.2617V37.6367H47.6766V45.4494Z" fill="white"/>
<path d="M60.4599 38.4857H57.015V45.4494H55.6124V38.4857H52.1797V37.6367H60.4599V38.4857Z" fill="white"/>
<path d="M72.7394 42.9778C72.6041 43.8021 72.1858 44.4419 71.4845 44.8848C70.7832 45.3278 69.8481 45.5615 68.6793 45.5615C67.412 45.5615 66.4031 45.2293 65.6403 44.5649C64.8775 43.9006 64.4961 43.0147 64.4961 41.9074V41.1569C64.4961 40.431 64.6683 39.7912 65.0251 39.2375C65.3819 38.6839 65.8864 38.2656 66.5385 37.9703C67.1906 37.675 67.9411 37.5273 68.8023 37.5273C69.9342 37.5273 70.857 37.7611 71.5337 38.2163C72.2227 38.6839 72.6164 39.3237 72.7271 40.1357H71.3122C71.1892 39.5082 70.9185 39.0653 70.5125 38.7823C70.1065 38.4993 69.5282 38.364 68.79 38.364C67.8919 38.364 67.1783 38.6101 66.6615 39.0899C66.1448 39.582 65.8864 40.271 65.8864 41.1692V41.932C65.8864 42.7809 66.1325 43.4576 66.6123 43.9498C67.0921 44.4542 67.7811 44.7003 68.6547 44.7003C69.4421 44.7003 70.045 44.5649 70.4633 44.3066C70.8816 44.0482 71.1646 43.593 71.2999 42.9532H72.7394V42.9778Z" fill="white"/>
<path d="M85.9152 41.7967C85.9152 42.5595 85.7429 43.2239 85.3861 43.8021C85.0293 44.3681 84.5372 44.811 83.8851 45.1063C83.233 45.4016 82.4825 45.5615 81.6213 45.5615C80.7723 45.5615 80.0341 45.4139 79.382 45.1063C78.7299 44.7987 78.2255 44.3681 77.8564 43.8144C77.4996 43.2608 77.315 42.6087 77.3027 41.8705V41.3045C77.3027 40.554 77.4873 39.8896 77.8441 39.3114C78.2009 38.7331 78.7053 38.2902 79.3697 37.9826C80.0218 37.675 80.7723 37.5273 81.6213 37.5273C82.4825 37.5273 83.233 37.675 83.8851 37.9826C84.5372 38.2902 85.0416 38.7208 85.3984 39.299C85.7552 39.8773 85.9275 40.5417 85.9275 41.3045V41.7967H85.9152ZM84.5126 41.2922C84.5126 40.3695 84.2542 39.6558 83.7498 39.1637C83.2453 38.6716 82.5194 38.4132 81.609 38.4132C80.7108 38.4132 80.0095 38.6593 79.5051 39.1637C78.9883 39.6558 78.7299 40.3448 78.7176 41.2307V41.809C78.7176 42.7071 78.976 43.4084 79.4928 43.9252C80.0095 44.4419 80.7231 44.7003 81.6336 44.7003C82.544 44.7003 83.2453 44.4542 83.7498 43.9744C84.2542 43.4945 84.5126 42.7932 84.5249 41.8951V41.2922H84.5126Z" fill="white"/>
<path d="M92.5594 45.4494H91.1445V37.6367H92.5594V45.4494Z" fill="white"/>
<path d="M106.389 45.4494H104.974L99.5848 39.433V45.4494H98.1699V37.6367H99.5848L104.986 43.6777V37.6367H106.389V45.4494Z" fill="white"/>
<path d="M15.1451 49.5703V58.9087H18.9592V61.2463H10.9004V49.5826H15.1451V49.5703Z" fill="white"/>
<path d="M27.1295 49.5703V61.234H22.8848V49.5703H27.1295Z" fill="white"/>
<path d="M42.717 53.8642H38.4723V52.8061C38.4723 52.1417 38.4354 51.7234 38.3493 51.5512C38.2631 51.3789 38.0786 51.2928 37.771 51.2928C37.5126 51.2928 37.3281 51.3666 37.242 51.5142C37.1558 51.6619 37.1066 52.031 37.1066 52.6216V58.2196C37.1066 58.7487 37.1558 59.0932 37.242 59.2531C37.3281 59.4131 37.5249 59.4992 37.8079 59.4992C38.1155 59.4992 38.3247 59.4008 38.4354 59.2162C38.5461 59.0317 38.6076 58.6626 38.6076 58.1212V56.7432H37.7464V54.9715H42.717V61.234H40.0471L39.6534 60.3974C39.3582 60.7542 39.0014 61.0248 38.5584 61.2094C38.1155 61.3939 37.5988 61.4801 36.9959 61.4801C36.2823 61.4801 35.6179 61.357 34.9904 61.111C34.3629 60.8649 33.8954 60.5573 33.5755 60.1882C33.2556 59.8191 33.0465 59.4377 32.9726 59.044C32.8865 58.638 32.8496 58.0474 32.8496 57.2354V53.7658C32.8496 52.6462 32.9357 51.8464 33.108 51.342C33.2802 50.8375 33.7601 50.37 34.5598 49.9517C35.3595 49.5334 36.393 49.3242 37.648 49.3242C38.8906 49.3242 39.9241 49.5088 40.7484 49.8779C41.5728 50.247 42.1018 50.6776 42.3479 51.182C42.594 51.6865 42.717 52.4124 42.717 53.3721V53.8642Z" fill="white"/>
<path d="M58.2567 49.5703V61.234H54.012V56.3372H52.7447V61.234H48.5V49.5703H52.7447V53.7412H54.012V49.5703H58.2567Z" fill="white"/>
<path d="M72.6518 49.5703V51.908H70.1296V61.2463H65.8849V51.908H63.375V49.5703H72.6518Z" fill="white"/>
<path d="M87.2321 49.5703V61.234H83.5164L81.3018 55.9312V61.234H77.7461V49.5703H81.3018L83.6887 54.8239V49.5703H87.2321Z" fill="white"/>
<path d="M97.3209 49.5703V61.234H93.0762V49.5703H97.3209Z" fill="white"/>
<path d="M112.638 49.5703V61.234H108.923L106.708 55.9312V61.234H103.152V49.5703H106.708L109.095 54.8239V49.5703H112.638Z" fill="white"/>
<path d="M128.215 53.8642H123.97V52.8061C123.97 52.1417 123.933 51.7234 123.847 51.5512C123.761 51.3789 123.577 51.2928 123.269 51.2928C123.011 51.2928 122.826 51.3666 122.74 51.5142C122.642 51.6619 122.605 52.031 122.605 52.6216V58.2196C122.605 58.7487 122.654 59.0932 122.74 59.2531C122.838 59.4131 123.023 59.4992 123.306 59.4992C123.614 59.4992 123.823 59.4008 123.933 59.2162C124.044 59.0317 124.106 58.6626 124.106 58.1212V56.7432H123.244V54.9715H128.215V61.234H125.545L125.151 60.3974C124.856 60.7542 124.499 61.0248 124.056 61.2094C123.614 61.3939 123.097 61.4801 122.494 61.4801C121.78 61.4801 121.116 61.357 120.488 61.111C119.861 60.8649 119.393 60.5573 119.074 60.1882C118.754 59.8191 118.545 59.4377 118.471 59.044C118.385 58.638 118.348 58.0474 118.348 57.2354V53.7658C118.348 52.6462 118.434 51.8464 118.606 51.342C118.778 50.8375 119.258 50.37 120.058 49.9517C120.858 49.5334 121.879 49.3242 123.146 49.3242C124.389 49.3242 125.422 49.5088 126.246 49.8779C127.071 50.247 127.6 50.6776 127.846 51.182C128.092 51.6865 128.215 52.4124 128.215 53.3721V53.8642Z" fill="white"/>
<path d="M33.8355 70.9651H32.4453L27.1794 66.7204V70.9651H25.7891V65.4531H27.1794L32.4576 69.7224V65.4531H33.8355V70.9651Z" fill="white"/>
<path d="M45.1426 68.4183H40.6026V70.3745H45.8685V70.9651H39.2246V65.4531H45.7947V66.0437H40.6026V67.8154H45.1426V68.4183Z" fill="white"/>
<path d="M57.9141 66.0437H54.5552V70.9651H53.1772V66.0437H49.8184V65.4531H57.9141V66.0437Z" fill="white"/>
<path d="M64.7669 69.2297L64.9637 69.9556L65.259 69.3035L67.326 65.4648H68.4948L70.5126 69.3035L70.7956 69.9679L71.0171 69.2297L72.6411 65.4648H74.0314L71.4969 70.9768H70.2419L68.0888 66.9659L67.9289 66.5476L67.7689 66.9659L65.5297 70.9768H64.2748L61.7402 65.4648H63.1182L64.7669 69.2297Z" fill="white"/>
<path d="M86.5679 68.381C86.5679 68.9223 86.3957 69.3898 86.0512 69.7959C85.7067 70.2019 85.2145 70.5095 84.5871 70.7186C83.9596 70.9278 83.2214 71.0385 82.3724 71.0385C81.5481 71.0385 80.8222 70.9278 80.1824 70.7186C79.5426 70.5095 79.0505 70.2019 78.6937 69.8082C78.3369 69.4145 78.1646 68.9592 78.1523 68.4302V68.0365C78.1523 67.5074 78.3246 67.0399 78.6814 66.6339C79.0259 66.2278 79.5303 65.9203 80.1701 65.6988C80.8099 65.4896 81.5358 65.3789 82.3601 65.3789C83.1968 65.3789 83.935 65.4896 84.5748 65.6988C85.2145 65.908 85.7067 66.2155 86.0512 66.6216C86.3957 67.0276 86.5679 67.4951 86.5679 68.0365V68.381ZM85.1899 68.0242C85.1899 67.3721 84.9439 66.8676 84.4394 66.5231C83.9473 66.1786 83.246 65.9941 82.3478 65.9941C81.4743 65.9941 80.7853 66.1663 80.2932 66.5231C79.7887 66.8676 79.5303 67.3598 79.518 67.9749V68.381C79.518 69.0084 79.7764 69.5129 80.2808 69.8697C80.7853 70.2265 81.4866 70.411 82.3724 70.411C83.2583 70.411 83.9596 70.2388 84.4394 69.8943C84.9316 69.5498 85.1776 69.0576 85.1899 68.4302V68.0242Z" fill="white"/>
<path d="M95.4155 68.7382H92.9548V70.9651H91.5645V65.4531H95.0217C96.2029 65.4531 97.101 65.6008 97.7408 65.8714C98.3806 66.1544 98.6882 66.5604 98.6882 67.1018C98.6882 67.4463 98.5159 67.7416 98.1591 67.9999C97.8023 68.2583 97.3225 68.4429 96.695 68.5659L99.1557 70.9036V70.9528H97.6793L95.4155 68.7382ZM92.9548 68.1353H95.0709C95.7599 68.1353 96.3013 68.0369 96.7073 67.8523C97.1133 67.6678 97.3102 67.4217 97.3102 67.1018C97.3102 66.7573 97.1133 66.4989 96.7319 66.3144C96.3505 66.1298 95.7846 66.0437 95.0586 66.0314H92.9424V68.1353H92.9548Z" fill="white"/>
<path d="M106.242 68.3937L104.962 69.095V70.9528H103.584V65.4531H104.962V68.1722L109.613 65.4531H111.286L107.164 67.8892L111.606 70.9651H109.957L106.242 68.3937Z" fill="white"/>
</svg>
