<svg width="21" height="20" viewBox="0 0 21 20" fill="none" xmlns="http://www.w3.org/2000/svg">
<g clip-path="url(#clip0_202_60)">
<g filter="url(#filter0_d_202_60)">
<path d="M9.93715 0.463526C10.0868 0.00287054 10.7385 0.00287005 10.8882 0.463525L13.1068 7.2918H20.2865C20.7709 7.2918 20.9723 7.9116 20.5804 8.1963L14.7719 12.4164L16.9906 19.2447C17.1402 19.7053 16.613 20.0884 16.2212 19.8037L10.4127 15.5836L4.6042 19.8037C4.21235 20.0884 3.68511 19.7053 3.83478 19.2447L6.05342 12.4164L0.244949 8.1963C-0.146907 7.9116 0.0544799 7.2918 0.538842 7.2918H7.71851L9.93715 0.463526Z" fill="url(#paint0_linear_202_60)"/>
<path d="M9.93715 0.463526C10.0868 0.00287054 10.7385 0.00287005 10.8882 0.463525L13.1068 7.2918H20.2865C20.7709 7.2918 20.9723 7.9116 20.5804 8.1963L14.7719 12.4164L16.9906 19.2447C17.1402 19.7053 16.613 20.0884 16.2212 19.8037L10.4127 15.5836L4.6042 19.8037C4.21235 20.0884 3.68511 19.7053 3.83478 19.2447L6.05342 12.4164L0.244949 8.1963C-0.146907 7.9116 0.0544799 7.2918 0.538842 7.2918H7.71851L9.93715 0.463526Z" fill="url(#paint1_linear_202_60)"/>
</g>
</g>
<defs>
<filter id="filter0_d_202_60" x="-63.9629" y="-63.8828" width="148.75" height="147.785" filterUnits="userSpaceOnUse" color-interpolation-filters="sRGB">
<feFlood flood-opacity="0" result="BackgroundImageFix"/>
<feColorMatrix in="SourceAlpha" type="matrix" values="0 0 0 0 0 0 0 0 0 0 0 0 0 0 0 0 0 0 127 0" result="hardAlpha"/>
<feOffset/>
<feGaussianBlur stdDeviation="32"/>
<feComposite in2="hardAlpha" operator="out"/>
<feColorMatrix type="matrix" values="0 0 0 0 0 0 0 0 0 0 0 0 0 0 0 0 0 0 0.5 0"/>
<feBlend mode="normal" in2="BackgroundImageFix" result="effect1_dropShadow_202_60"/>
<feBlend mode="normal" in="SourceGraphic" in2="effect1_dropShadow_202_60" result="shape"/>
</filter>
<linearGradient id="paint0_linear_202_60" x1="8.51906" y1="25.25" x2="0.852365" y2="1.3343" gradientUnits="userSpaceOnUse">
<stop stop-color="#EBC367"/>
<stop offset="0.206588" stop-color="#FDB242"/>
<stop offset="0.486587" stop-color="#C47E16"/>
<stop offset="0.589636" stop-color="#D1891E"/>
<stop offset="0.694186" stop-color="#E1A03F"/>
<stop offset="0.697522" stop-color="#FFDDA9"/>
<stop offset="0.911458" stop-color="#F1BD57"/>
</linearGradient>
<linearGradient id="paint1_linear_202_60" x1="20.3265" y1="3.05001" x2="-0.308516" y2="3.7751" gradientUnits="userSpaceOnUse">
<stop stop-color="#E6C365" stop-opacity="0"/>
<stop offset="1" stop-color="#E6C365" stop-opacity="0.3"/>
</linearGradient>
<clipPath id="clip0_202_60">
<rect width="21" height="20" fill="white"/>
</clipPath>
</defs>
</svg>
