<svg width="96" height="107" viewBox="0 0 96 107" fill="none" xmlns="http://www.w3.org/2000/svg">
<path fill-rule="evenodd" clip-rule="evenodd" d="M29.7142 106.286H66.2859C55.5667 102.977 51.5702 90.1966 51.7306 81.3868C81.1713 98.4647 117.387 72.4131 80.1516 36.6439C64.3222 20.8158 54.6871 8.54135 49.9197 2.46808C49.141 1.47611 48.4922 0.649567 47.9675 0C47.4247 0.67184 46.7505 1.53301 45.9383 2.5707L45.9371 2.57227L45.9354 2.57446L45.9335 2.57697C41.1508 8.68734 31.5838 20.9099 15.8484 36.644C-21.3869 72.4131 14.8287 98.4647 44.2694 81.3868C44.4298 90.1966 40.4333 102.977 29.7142 106.286ZM47.9837 53.1429L47.9675 0C47.9653 20.7536 47.9745 36.9482 47.9837 53.1429Z" fill="url(#paint0_linear_3_707)"/>
<path fill-rule="evenodd" clip-rule="evenodd" d="M29.7142 106.286H66.2859C55.5667 102.977 51.5702 90.1966 51.7306 81.3868C81.1713 98.4647 117.387 72.4131 80.1516 36.6439C64.3222 20.8158 54.6871 8.54135 49.9197 2.46808C49.141 1.47611 48.4922 0.649567 47.9675 0C47.4247 0.67184 46.7505 1.53301 45.9383 2.5707L45.9371 2.57227L45.9354 2.57446L45.9335 2.57697C41.1508 8.68734 31.5838 20.9099 15.8484 36.644C-21.3869 72.4131 14.8287 98.4647 44.2694 81.3868C44.4298 90.1966 40.4333 102.977 29.7142 106.286ZM47.9837 53.1429L47.9675 0C47.9653 20.7536 47.9745 36.9482 47.9837 53.1429Z" fill="url(#paint1_linear_3_707)"/>
<defs>
<linearGradient id="paint0_linear_3_707" x1="40.4278" y1="116.25" x2="3.61208" y2="12.52" gradientUnits="userSpaceOnUse">
<stop stop-color="#EBC367"/>
<stop offset="0.206588" stop-color="#FDB242"/>
<stop offset="0.589636" stop-color="#D1891E"/>
<stop offset="0.694186" stop-color="#E1A03F"/>
<stop offset="0.697522" stop-color="#FFDDA9"/>
<stop offset="0.911458" stop-color="#F1BD57"/>
</linearGradient>
<linearGradient id="paint1_linear_3_707" x1="87.6578" y1="17.9358" x2="5.09875" y2="20.556" gradientUnits="userSpaceOnUse">
<stop stop-color="#E6C365" stop-opacity="0"/>
<stop offset="1" stop-color="#E6C365" stop-opacity="0.3"/>
</linearGradient>
</defs>
</svg>
