<svg width="165" height="149" viewBox="0 0 165 149" fill="none" xmlns="http://www.w3.org/2000/svg">
<path d="M84.0312 87.9688L149 23V125C149 138.255 138.255 149 125 149H23L84.0312 87.9688Z" fill="url(#paint0_linear_107_312)"/>
<path d="M87.9688 62.0312L23 127L23 25C23 11.7452 33.7452 0.99999 47 0.999991L149 1L87.9688 62.0312Z" fill="url(#paint1_linear_107_312)"/>
<path fill-rule="evenodd" clip-rule="evenodd" d="M133 32C146.354 31.9949 149.005 29.3916 148.995 16.4066L149 16C148.995 29.3869 151.651 31.9949 164.593 31.9949L165 32C151.617 31.9949 149.005 34.6667 149.005 47.5934L149 48C149.005 34.6667 146.399 31.9949 133.407 32.0051L133 32Z" fill="#FFDB8E"/>
<path fill-rule="evenodd" clip-rule="evenodd" d="M0 59C13.3543 58.9949 16.0051 56.3916 15.9949 43.4066L16 43C15.9949 56.3869 18.6513 58.9949 31.5934 58.9949L32 59C18.6169 58.9949 16.0051 61.6667 16.0051 74.5934L16 75C16.0051 61.6667 13.3986 58.9949 0.406633 59.0051L0 59Z" fill="#FFDB8E"/>
<rect x="46" y="23" width="80" height="104" rx="8" fill="url(#paint2_linear_107_312)"/>
<path d="M62.506 35H61.414L60.808 32.492L60.202 35H59.11L57.964 30.998H59.122L59.728 33.668L60.412 30.998H61.204L61.888 33.668L62.488 30.998H63.652L62.506 35ZM67.8793 35H66.8473V33.392H65.1853V35H64.1533V30.998H65.1853V32.492H66.8473V30.998H67.8793V35ZM69.8125 35H68.7805V30.998H69.8125V35ZM72.6385 35H71.6065V31.898H70.4845V30.998H73.7545V31.898H72.6385V35ZM77.3597 35H74.4257V30.998H77.3597V31.898H75.4577V32.522H77.3177V33.422H75.4577V34.1H77.3597V35ZM80.7789 35H78.1389V30.998H79.1709V34.1H80.7789V35ZM82.5267 35H81.4947V30.998H82.5267V35ZM84.9146 35.072C84.1746 35.072 83.5826 34.86 83.1386 34.436L83.6846 33.662C84.0366 34.014 84.4626 34.19 84.9626 34.19C85.1386 34.19 85.2766 34.16 85.3766 34.1C85.4806 34.036 85.5326 33.956 85.5326 33.86C85.5326 33.776 85.4766 33.708 85.3646 33.656C85.2526 33.6 85.1126 33.56 84.9446 33.536C84.7766 33.508 84.5946 33.466 84.3986 33.41C84.2026 33.35 84.0206 33.282 83.8526 33.206C83.6846 33.126 83.5446 33 83.4326 32.828C83.3206 32.656 83.2646 32.45 83.2646 32.21C83.2646 31.858 83.4066 31.558 83.6906 31.31C83.9786 31.062 84.3686 30.938 84.8606 30.938C85.5126 30.938 86.0546 31.124 86.4866 31.496L85.9226 32.234C85.5866 31.958 85.1966 31.82 84.7526 31.82C84.4646 31.82 84.3206 31.916 84.3206 32.108C84.3206 32.184 84.3766 32.25 84.4886 32.306C84.6006 32.358 84.7406 32.398 84.9086 32.426C85.0766 32.454 85.2566 32.498 85.4486 32.558C85.6446 32.614 85.8266 32.682 85.9946 32.762C86.1626 32.842 86.3026 32.966 86.4146 33.134C86.5266 33.302 86.5826 33.502 86.5826 33.734C86.5826 34.142 86.4366 34.468 86.1446 34.712C85.8526 34.952 85.4426 35.072 84.9146 35.072ZM89.0717 35H88.0397V31.898H86.9177V30.998H90.1877V31.898H89.0717V35Z" fill="#895B15"/>
<rect x="41" y="66" width="90" height="16" rx="8" fill="#FFE8C6"/>
<rect x="58" y="42" width="56" height="4" rx="2" fill="#A67935"/>
<rect x="58" y="52" width="48" height="4" rx="2" fill="#A67935"/>
<rect x="58" y="62" width="48" height="4" rx="2" fill="#A67935"/>
<rect x="58" y="72" width="56" height="4" rx="2" fill="#A67935"/>
<rect x="58" y="82" width="34" height="4" rx="2" fill="#A67935"/>
<rect x="58" y="92" width="48" height="4" rx="2" fill="#A67935"/>
<rect x="58" y="102" width="40" height="4" rx="2" fill="#A67935"/>
<rect x="58" y="112" width="48" height="4" rx="2" fill="#A67935"/>
<circle cx="42" cy="74" r="13" fill="#232323"/>
<path d="M37 73.3077L40.8095 77L47 71" stroke="#EF9A0C" stroke-width="3" stroke-linecap="round"/>
<path fill-rule="evenodd" clip-rule="evenodd" d="M24 101C30.6772 100.997 32.0025 99.6958 31.9975 93.2033L32 93C31.9975 99.6934 33.3256 100.997 39.7967 100.997L40 101C33.3084 100.997 32.0025 102.333 32.0025 108.797L32 109C32.0025 102.333 30.6993 100.997 24.2033 101.003L24 101Z" fill="#FFDB8E"/>
<path fill-rule="evenodd" clip-rule="evenodd" d="M110 8C116.677 7.99747 118.003 6.6958 117.997 0.203317L118 0C117.997 6.69343 119.326 7.99747 125.797 7.99747L126 8C119.308 7.99747 118.003 9.33333 118.003 15.7967L118 16C118.003 9.33333 116.699 7.99747 110.203 8.00253L110 8Z" fill="#FFDB8E"/>
<path fill-rule="evenodd" clip-rule="evenodd" d="M106 101C116.016 100.996 118.004 99.0437 117.996 89.305L118 89C117.996 99.0401 119.988 100.996 129.695 100.996L130 101C119.963 100.996 118.004 103 118.004 112.695L118 113C118.004 103 116.049 100.996 106.305 101.004L106 101Z" fill="#FFDB8E"/>
<defs>
<linearGradient id="paint0_linear_107_312" x1="130" y1="127.5" x2="86" y2="86" gradientUnits="userSpaceOnUse">
<stop stop-color="#D9D9D9" stop-opacity="0.11"/>
<stop offset="0.874859" stop-color="#D9D9D9" stop-opacity="0"/>
</linearGradient>
<linearGradient id="paint1_linear_107_312" x1="42" y1="22.5" x2="86" y2="64" gradientUnits="userSpaceOnUse">
<stop stop-color="#D9D9D9" stop-opacity="0.11"/>
<stop offset="0.874859" stop-color="#D9D9D9" stop-opacity="0"/>
</linearGradient>
<linearGradient id="paint2_linear_107_312" x1="3.5" y1="-10" x2="168.5" y2="113" gradientUnits="userSpaceOnUse">
<stop stop-color="#FFDF8C"/>
<stop offset="1" stop-color="#BD842E"/>
</linearGradient>
</defs>
</svg>
