<svg width="208" height="59" viewBox="0 0 208 59" fill="none" xmlns="http://www.w3.org/2000/svg">
<path d="M16.352 4.12C16.8 4.12 17.0987 4.21333 17.248 4.4C17.3973 4.568 17.4347 4.86667 17.36 5.296L16.912 7.816C16.8373 8.264 16.688 8.58133 16.464 8.768C16.2587 8.936 15.9413 9.02 15.512 9.02H8.12L7.672 11.512H13.58C14.028 11.512 14.3173 11.6053 14.448 11.792C14.5973 11.96 14.6347 12.2587 14.56 12.688L14.112 15.208C14.0187 15.656 13.8693 15.9733 13.664 16.16C13.4773 16.328 13.16 16.412 12.712 16.412H6.804L6.328 19.1H13.972C14.4013 19.1 14.6813 19.184 14.812 19.352C14.9613 19.52 14.9987 19.828 14.924 20.276L14.476 22.824C14.4013 23.2533 14.2613 23.5613 14.056 23.748C13.8507 23.916 13.524 24 13.076 24H1.12C0.672 24 0.373333 23.916 0.224 23.748C0.0746667 23.5613 0.0466667 23.2533 0.14 22.824L3.22 5.296C3.31333 4.86667 3.45333 4.568 3.64 4.4C3.84533 4.21333 4.172 4.12 4.62 4.12H16.352ZM35.9769 4.12C36.3689 4.12 36.5929 4.232 36.6489 4.456C36.7049 4.68 36.6023 4.94133 36.3409 5.24L29.2569 13.864L33.5409 22.824C33.7089 23.1227 33.7183 23.3933 33.5689 23.636C33.4196 23.8787 33.1396 24 32.7289 24H29.1729C28.4263 24 27.9223 23.944 27.6609 23.832C27.4183 23.72 27.2036 23.4307 27.0169 22.964L25.1689 18.372L21.8089 22.964C21.4729 23.412 21.1556 23.7013 20.8569 23.832C20.5583 23.944 20.0356 24 19.2889 24H15.8169C15.3876 24 15.1449 23.888 15.0889 23.664C15.0143 23.44 15.1263 23.16 15.4249 22.824L22.7609 13.864L18.7849 5.24C18.6356 4.94133 18.6263 4.68 18.7569 4.456C18.9063 4.232 19.1676 4.12 19.5409 4.12H22.8729C23.6009 4.12 24.0956 4.176 24.3569 4.288C24.6183 4.4 24.8423 4.67067 25.0289 5.1L26.7929 9.412L30.0409 5.1C30.3769 4.652 30.6756 4.38133 30.9369 4.288C31.2169 4.176 31.6929 4.12 32.3649 4.12H35.9769ZM35.861 11.148C36.2717 8.74 37.3263 6.90133 39.025 5.632C40.7423 4.344 42.9823 3.7 45.745 3.7C49.777 3.7 52.101 5.36133 52.717 8.684C52.8103 9.09467 52.7823 9.42133 52.633 9.664C52.5023 9.888 52.213 10.0653 51.765 10.196L48.881 11.176C48.433 11.3067 48.1063 11.3253 47.901 11.232C47.7143 11.12 47.5743 10.8493 47.481 10.42C47.3503 9.78533 47.089 9.328 46.697 9.048C46.305 8.74933 45.717 8.6 44.933 8.6C43.8503 8.6 43.0197 8.84267 42.441 9.328C41.881 9.79467 41.517 10.5227 41.349 11.512L40.425 16.608C40.257 17.5973 40.369 18.3347 40.761 18.82C41.1717 19.2867 41.9183 19.52 43.001 19.52C44.4757 19.52 45.549 18.9133 46.221 17.7C46.4823 17.252 46.725 16.9813 46.949 16.888C47.173 16.776 47.481 16.7947 47.873 16.944L50.785 18.064C51.513 18.3253 51.6717 18.8293 51.261 19.576C49.5063 22.8053 46.4917 24.42 42.217 24.42C39.5103 24.42 37.513 23.6827 36.225 22.208C34.9557 20.7333 34.5263 18.7733 34.937 16.328L35.861 11.148ZM60.0379 4.12C60.4859 4.12 60.7846 4.21333 60.9339 4.4C61.0832 4.568 61.1206 4.86667 61.0459 5.296L58.6099 19.1H65.3299C65.7779 19.1 66.0672 19.184 66.1979 19.352C66.3472 19.52 66.3846 19.828 66.3099 20.276L65.8619 22.824C65.7686 23.2533 65.6192 23.5613 65.4139 23.748C65.2272 23.916 64.9099 24 64.4619 24H53.3739C52.9259 24 52.6272 23.916 52.4779 23.748C52.3472 23.5613 52.3192 23.2533 52.3939 22.824L55.5019 5.296C55.5766 4.86667 55.7072 4.568 55.8939 4.4C56.0992 4.21333 56.4259 4.12 56.8739 4.12H60.0379ZM73.3521 16.944C73.0535 18.6613 73.8748 19.52 75.8161 19.52C77.7388 19.52 78.8495 18.6613 79.1481 16.944L81.2201 5.296C81.2948 4.86667 81.4348 4.568 81.6401 4.4C81.8455 4.21333 82.1628 4.12 82.5921 4.12H85.7841C86.2135 4.12 86.5028 4.21333 86.6521 4.4C86.8015 4.568 86.8388 4.86667 86.7641 5.296L84.6641 17.14C84.2348 19.5107 83.2081 21.3213 81.5841 22.572C79.9788 23.804 77.8041 24.42 75.0601 24.42C72.3535 24.42 70.3841 23.664 69.1521 22.152C67.9201 20.6213 67.5188 18.6427 67.9481 16.216L69.8801 5.296C69.9735 4.86667 70.1135 4.568 70.3001 4.4C70.5055 4.21333 70.8321 4.12 71.2801 4.12H74.4441C74.8921 4.12 75.1908 4.21333 75.3401 4.4C75.4895 4.568 75.5175 4.86667 75.4241 5.296L73.3521 16.944ZM88.0628 9.496C88.3988 7.62933 89.3415 6.20133 90.8908 5.212C92.4588 4.204 94.5682 3.7 97.2188 3.7C99.2162 3.7 100.756 4.05467 101.839 4.764C102.922 5.45467 103.687 6.48133 104.135 7.844C104.266 8.25467 104.275 8.55333 104.163 8.74C104.051 8.92667 103.762 9.11333 103.295 9.3L100.523 10.392C100.112 10.56 99.8135 10.6067 99.6268 10.532C99.4402 10.4573 99.2722 10.2147 99.1228 9.804C98.7868 8.83333 97.9282 8.348 96.5468 8.348C94.7735 8.348 93.8028 8.83333 93.6348 9.804C93.5415 10.3453 93.7748 10.728 94.3348 10.952C94.8948 11.176 95.7908 11.3627 97.0228 11.512C97.5082 11.5867 97.9655 11.68 98.3948 11.792C98.8242 11.8853 99.2815 12.0253 99.7668 12.212C100.271 12.3987 100.71 12.6133 101.083 12.856C101.456 13.0987 101.82 13.4067 102.175 13.78C102.53 14.1347 102.791 14.536 102.959 14.984C103.127 15.432 103.258 15.9547 103.351 16.552C103.444 17.1493 103.407 17.812 103.239 18.54C102.511 22.46 99.3655 24.42 93.8028 24.42C91.6748 24.42 89.9295 24.0467 88.5668 23.3C87.2042 22.5533 86.3828 21.48 86.1028 20.08C85.9722 19.3333 86.3175 18.82 87.1388 18.54L89.9388 17.588C90.3868 17.4387 90.7228 17.4107 90.9468 17.504C91.1708 17.5787 91.3482 17.812 91.4788 18.204C91.8148 19.1933 92.7762 19.688 94.3628 19.688C96.3602 19.688 97.4615 19.156 97.6668 18.092C97.7602 17.588 97.5455 17.224 97.0228 17C96.5188 16.776 95.7348 16.5893 94.6708 16.44C93.9055 16.328 93.2335 16.2067 92.6548 16.076C92.0762 15.9453 91.4322 15.712 90.7228 15.376C90.0135 15.04 89.4535 14.6387 89.0428 14.172C88.6322 13.7053 88.3242 13.0707 88.1188 12.268C87.9135 11.4653 87.8948 10.5413 88.0628 9.496ZM107.428 5.24C107.521 4.81067 107.661 4.52133 107.848 4.372C108.034 4.204 108.333 4.12 108.744 4.12H112.048C112.477 4.12 112.757 4.204 112.888 4.372C113.018 4.54 113.046 4.82933 112.972 5.24L109.864 22.88C109.789 23.2907 109.658 23.58 109.472 23.748C109.285 23.916 108.977 24 108.548 24H105.244C104.833 24 104.553 23.9253 104.404 23.776C104.273 23.608 104.245 23.3093 104.32 22.88L107.428 5.24ZM132.734 4.12C133.537 4.12 133.724 4.50267 133.294 5.268L123.998 23.02C123.793 23.412 123.578 23.6733 123.354 23.804C123.13 23.9347 122.804 24 122.374 24H118.846C118.436 24 118.137 23.9347 117.95 23.804C117.764 23.6733 117.633 23.4307 117.558 23.076L114.506 5.268C114.357 4.50267 114.693 4.12 115.514 4.12H118.65C119.322 4.12 119.789 4.204 120.05 4.372C120.312 4.54 120.461 4.848 120.498 5.296L121.478 14.872C121.534 15.3573 121.562 15.908 121.562 16.524C121.562 17.1213 121.553 17.5973 121.534 17.952L121.478 18.484H121.73C122.01 17.196 122.402 16.0013 122.906 14.9L127.302 5.296C127.508 4.848 127.75 4.54 128.03 4.372C128.329 4.204 128.814 4.12 129.486 4.12H132.734ZM147.957 4.12C148.405 4.12 148.704 4.21333 148.853 4.4C149.003 4.568 149.04 4.86667 148.965 5.296L148.517 7.816C148.443 8.264 148.293 8.58133 148.069 8.768C147.864 8.936 147.547 9.02 147.117 9.02H139.725L139.277 11.512H145.185C145.633 11.512 145.923 11.6053 146.053 11.792C146.203 11.96 146.24 12.2587 146.165 12.688L145.717 15.208C145.624 15.656 145.475 15.9733 145.269 16.16C145.083 16.328 144.765 16.412 144.317 16.412H138.409L137.933 19.1H145.577C146.007 19.1 146.287 19.184 146.417 19.352C146.567 19.52 146.604 19.828 146.529 20.276L146.081 22.824C146.007 23.2533 145.867 23.5613 145.661 23.748C145.456 23.916 145.129 24 144.681 24H132.725C132.277 24 131.979 23.916 131.829 23.748C131.68 23.5613 131.652 23.2533 131.745 22.824L134.825 5.296C134.919 4.86667 135.059 4.568 135.245 4.4C135.451 4.21333 135.777 4.12 136.225 4.12H147.957Z" fill="url(#paint0_linear_553_1168)"/>
<path d="M16.352 4.12C16.8 4.12 17.0987 4.21333 17.248 4.4C17.3973 4.568 17.4347 4.86667 17.36 5.296L16.912 7.816C16.8373 8.264 16.688 8.58133 16.464 8.768C16.2587 8.936 15.9413 9.02 15.512 9.02H8.12L7.672 11.512H13.58C14.028 11.512 14.3173 11.6053 14.448 11.792C14.5973 11.96 14.6347 12.2587 14.56 12.688L14.112 15.208C14.0187 15.656 13.8693 15.9733 13.664 16.16C13.4773 16.328 13.16 16.412 12.712 16.412H6.804L6.328 19.1H13.972C14.4013 19.1 14.6813 19.184 14.812 19.352C14.9613 19.52 14.9987 19.828 14.924 20.276L14.476 22.824C14.4013 23.2533 14.2613 23.5613 14.056 23.748C13.8507 23.916 13.524 24 13.076 24H1.12C0.672 24 0.373333 23.916 0.224 23.748C0.0746667 23.5613 0.0466667 23.2533 0.14 22.824L3.22 5.296C3.31333 4.86667 3.45333 4.568 3.64 4.4C3.84533 4.21333 4.172 4.12 4.62 4.12H16.352ZM35.9769 4.12C36.3689 4.12 36.5929 4.232 36.6489 4.456C36.7049 4.68 36.6023 4.94133 36.3409 5.24L29.2569 13.864L33.5409 22.824C33.7089 23.1227 33.7183 23.3933 33.5689 23.636C33.4196 23.8787 33.1396 24 32.7289 24H29.1729C28.4263 24 27.9223 23.944 27.6609 23.832C27.4183 23.72 27.2036 23.4307 27.0169 22.964L25.1689 18.372L21.8089 22.964C21.4729 23.412 21.1556 23.7013 20.8569 23.832C20.5583 23.944 20.0356 24 19.2889 24H15.8169C15.3876 24 15.1449 23.888 15.0889 23.664C15.0143 23.44 15.1263 23.16 15.4249 22.824L22.7609 13.864L18.7849 5.24C18.6356 4.94133 18.6263 4.68 18.7569 4.456C18.9063 4.232 19.1676 4.12 19.5409 4.12H22.8729C23.6009 4.12 24.0956 4.176 24.3569 4.288C24.6183 4.4 24.8423 4.67067 25.0289 5.1L26.7929 9.412L30.0409 5.1C30.3769 4.652 30.6756 4.38133 30.9369 4.288C31.2169 4.176 31.6929 4.12 32.3649 4.12H35.9769ZM35.861 11.148C36.2717 8.74 37.3263 6.90133 39.025 5.632C40.7423 4.344 42.9823 3.7 45.745 3.7C49.777 3.7 52.101 5.36133 52.717 8.684C52.8103 9.09467 52.7823 9.42133 52.633 9.664C52.5023 9.888 52.213 10.0653 51.765 10.196L48.881 11.176C48.433 11.3067 48.1063 11.3253 47.901 11.232C47.7143 11.12 47.5743 10.8493 47.481 10.42C47.3503 9.78533 47.089 9.328 46.697 9.048C46.305 8.74933 45.717 8.6 44.933 8.6C43.8503 8.6 43.0197 8.84267 42.441 9.328C41.881 9.79467 41.517 10.5227 41.349 11.512L40.425 16.608C40.257 17.5973 40.369 18.3347 40.761 18.82C41.1717 19.2867 41.9183 19.52 43.001 19.52C44.4757 19.52 45.549 18.9133 46.221 17.7C46.4823 17.252 46.725 16.9813 46.949 16.888C47.173 16.776 47.481 16.7947 47.873 16.944L50.785 18.064C51.513 18.3253 51.6717 18.8293 51.261 19.576C49.5063 22.8053 46.4917 24.42 42.217 24.42C39.5103 24.42 37.513 23.6827 36.225 22.208C34.9557 20.7333 34.5263 18.7733 34.937 16.328L35.861 11.148ZM60.0379 4.12C60.4859 4.12 60.7846 4.21333 60.9339 4.4C61.0832 4.568 61.1206 4.86667 61.0459 5.296L58.6099 19.1H65.3299C65.7779 19.1 66.0672 19.184 66.1979 19.352C66.3472 19.52 66.3846 19.828 66.3099 20.276L65.8619 22.824C65.7686 23.2533 65.6192 23.5613 65.4139 23.748C65.2272 23.916 64.9099 24 64.4619 24H53.3739C52.9259 24 52.6272 23.916 52.4779 23.748C52.3472 23.5613 52.3192 23.2533 52.3939 22.824L55.5019 5.296C55.5766 4.86667 55.7072 4.568 55.8939 4.4C56.0992 4.21333 56.4259 4.12 56.8739 4.12H60.0379ZM73.3521 16.944C73.0535 18.6613 73.8748 19.52 75.8161 19.52C77.7388 19.52 78.8495 18.6613 79.1481 16.944L81.2201 5.296C81.2948 4.86667 81.4348 4.568 81.6401 4.4C81.8455 4.21333 82.1628 4.12 82.5921 4.12H85.7841C86.2135 4.12 86.5028 4.21333 86.6521 4.4C86.8015 4.568 86.8388 4.86667 86.7641 5.296L84.6641 17.14C84.2348 19.5107 83.2081 21.3213 81.5841 22.572C79.9788 23.804 77.8041 24.42 75.0601 24.42C72.3535 24.42 70.3841 23.664 69.1521 22.152C67.9201 20.6213 67.5188 18.6427 67.9481 16.216L69.8801 5.296C69.9735 4.86667 70.1135 4.568 70.3001 4.4C70.5055 4.21333 70.8321 4.12 71.2801 4.12H74.4441C74.8921 4.12 75.1908 4.21333 75.3401 4.4C75.4895 4.568 75.5175 4.86667 75.4241 5.296L73.3521 16.944ZM88.0628 9.496C88.3988 7.62933 89.3415 6.20133 90.8908 5.212C92.4588 4.204 94.5682 3.7 97.2188 3.7C99.2162 3.7 100.756 4.05467 101.839 4.764C102.922 5.45467 103.687 6.48133 104.135 7.844C104.266 8.25467 104.275 8.55333 104.163 8.74C104.051 8.92667 103.762 9.11333 103.295 9.3L100.523 10.392C100.112 10.56 99.8135 10.6067 99.6268 10.532C99.4402 10.4573 99.2722 10.2147 99.1228 9.804C98.7868 8.83333 97.9282 8.348 96.5468 8.348C94.7735 8.348 93.8028 8.83333 93.6348 9.804C93.5415 10.3453 93.7748 10.728 94.3348 10.952C94.8948 11.176 95.7908 11.3627 97.0228 11.512C97.5082 11.5867 97.9655 11.68 98.3948 11.792C98.8242 11.8853 99.2815 12.0253 99.7668 12.212C100.271 12.3987 100.71 12.6133 101.083 12.856C101.456 13.0987 101.82 13.4067 102.175 13.78C102.53 14.1347 102.791 14.536 102.959 14.984C103.127 15.432 103.258 15.9547 103.351 16.552C103.444 17.1493 103.407 17.812 103.239 18.54C102.511 22.46 99.3655 24.42 93.8028 24.42C91.6748 24.42 89.9295 24.0467 88.5668 23.3C87.2042 22.5533 86.3828 21.48 86.1028 20.08C85.9722 19.3333 86.3175 18.82 87.1388 18.54L89.9388 17.588C90.3868 17.4387 90.7228 17.4107 90.9468 17.504C91.1708 17.5787 91.3482 17.812 91.4788 18.204C91.8148 19.1933 92.7762 19.688 94.3628 19.688C96.3602 19.688 97.4615 19.156 97.6668 18.092C97.7602 17.588 97.5455 17.224 97.0228 17C96.5188 16.776 95.7348 16.5893 94.6708 16.44C93.9055 16.328 93.2335 16.2067 92.6548 16.076C92.0762 15.9453 91.4322 15.712 90.7228 15.376C90.0135 15.04 89.4535 14.6387 89.0428 14.172C88.6322 13.7053 88.3242 13.0707 88.1188 12.268C87.9135 11.4653 87.8948 10.5413 88.0628 9.496ZM107.428 5.24C107.521 4.81067 107.661 4.52133 107.848 4.372C108.034 4.204 108.333 4.12 108.744 4.12H112.048C112.477 4.12 112.757 4.204 112.888 4.372C113.018 4.54 113.046 4.82933 112.972 5.24L109.864 22.88C109.789 23.2907 109.658 23.58 109.472 23.748C109.285 23.916 108.977 24 108.548 24H105.244C104.833 24 104.553 23.9253 104.404 23.776C104.273 23.608 104.245 23.3093 104.32 22.88L107.428 5.24ZM132.734 4.12C133.537 4.12 133.724 4.50267 133.294 5.268L123.998 23.02C123.793 23.412 123.578 23.6733 123.354 23.804C123.13 23.9347 122.804 24 122.374 24H118.846C118.436 24 118.137 23.9347 117.95 23.804C117.764 23.6733 117.633 23.4307 117.558 23.076L114.506 5.268C114.357 4.50267 114.693 4.12 115.514 4.12H118.65C119.322 4.12 119.789 4.204 120.05 4.372C120.312 4.54 120.461 4.848 120.498 5.296L121.478 14.872C121.534 15.3573 121.562 15.908 121.562 16.524C121.562 17.1213 121.553 17.5973 121.534 17.952L121.478 18.484H121.73C122.01 17.196 122.402 16.0013 122.906 14.9L127.302 5.296C127.508 4.848 127.75 4.54 128.03 4.372C128.329 4.204 128.814 4.12 129.486 4.12H132.734ZM147.957 4.12C148.405 4.12 148.704 4.21333 148.853 4.4C149.003 4.568 149.04 4.86667 148.965 5.296L148.517 7.816C148.443 8.264 148.293 8.58133 148.069 8.768C147.864 8.936 147.547 9.02 147.117 9.02H139.725L139.277 11.512H145.185C145.633 11.512 145.923 11.6053 146.053 11.792C146.203 11.96 146.24 12.2587 146.165 12.688L145.717 15.208C145.624 15.656 145.475 15.9733 145.269 16.16C145.083 16.328 144.765 16.412 144.317 16.412H138.409L137.933 19.1H145.577C146.007 19.1 146.287 19.184 146.417 19.352C146.567 19.52 146.604 19.828 146.529 20.276L146.081 22.824C146.007 23.2533 145.867 23.5613 145.661 23.748C145.456 23.916 145.129 24 144.681 24H132.725C132.277 24 131.979 23.916 131.829 23.748C131.68 23.5613 131.652 23.2533 131.745 22.824L134.825 5.296C134.919 4.86667 135.059 4.568 135.245 4.4C135.451 4.21333 135.777 4.12 136.225 4.12H147.957Z" fill="url(#paint1_linear_553_1168)"/>
<path d="M1.736 41.148C2.14667 38.74 3.20133 36.9013 4.9 35.632C6.61733 34.344 8.85733 33.7 11.62 33.7C15.652 33.7 17.976 35.3613 18.592 38.684C18.6853 39.0947 18.6573 39.4213 18.508 39.664C18.3773 39.888 18.088 40.0653 17.64 40.196L14.756 41.176C14.308 41.3067 13.9813 41.3253 13.776 41.232C13.5893 41.12 13.4493 40.8493 13.356 40.42C13.2253 39.7853 12.964 39.328 12.572 39.048C12.18 38.7493 11.592 38.6 10.808 38.6C9.72533 38.6 8.89467 38.8427 8.316 39.328C7.756 39.7947 7.392 40.5227 7.224 41.512L6.3 46.608C6.132 47.5973 6.244 48.3347 6.636 48.82C7.04667 49.2867 7.79333 49.52 8.876 49.52C10.3507 49.52 11.424 48.9133 12.096 47.7C12.3573 47.252 12.6 46.9813 12.824 46.888C13.048 46.776 13.356 46.7947 13.748 46.944L16.66 48.064C17.388 48.3253 17.5467 48.8293 17.136 49.576C15.3813 52.8053 12.3667 54.42 8.092 54.42C5.38533 54.42 3.388 53.6827 2.1 52.208C0.830667 50.7333 0.401333 48.7733 0.812 46.328L1.736 41.148ZM25.9129 34.12C26.3609 34.12 26.6596 34.2133 26.8089 34.4C26.9582 34.568 26.9956 34.8667 26.9209 35.296L24.4849 49.1H31.2049C31.6529 49.1 31.9422 49.184 32.0729 49.352C32.2222 49.52 32.2596 49.828 32.1849 50.276L31.7369 52.824C31.6436 53.2533 31.4942 53.5613 31.2889 53.748C31.1022 53.916 30.7849 54 30.3369 54H19.2489C18.8009 54 18.5022 53.916 18.3529 53.748C18.2222 53.5613 18.1942 53.2533 18.2689 52.824L21.3769 35.296C21.4516 34.8667 21.5822 34.568 21.7689 34.4C21.9742 34.2133 22.3009 34.12 22.7489 34.12H25.9129ZM39.2271 46.944C38.9285 48.6613 39.7498 49.52 41.6911 49.52C43.6138 49.52 44.7245 48.6613 45.0231 46.944L47.0951 35.296C47.1698 34.8667 47.3098 34.568 47.5151 34.4C47.7205 34.2133 48.0378 34.12 48.4671 34.12H51.6591C52.0885 34.12 52.3778 34.2133 52.5271 34.4C52.6765 34.568 52.7138 34.8667 52.6391 35.296L50.5391 47.14C50.1098 49.5107 49.0831 51.3213 47.4591 52.572C45.8538 53.804 43.6791 54.42 40.9351 54.42C38.2285 54.42 36.2591 53.664 35.0271 52.152C33.7951 50.6213 33.3938 48.6427 33.8231 46.216L35.7551 35.296C35.8485 34.8667 35.9885 34.568 36.1751 34.4C36.3805 34.2133 36.7071 34.12 37.1551 34.12H40.3191C40.7671 34.12 41.0658 34.2133 41.2151 34.4C41.3645 34.568 41.3925 34.8667 41.2991 35.296L39.2271 46.944ZM64.9138 34.092C66.8365 34.092 68.2645 34.596 69.1978 35.604C70.1498 36.5933 70.4765 37.928 70.1778 39.608C69.9912 40.5413 69.6832 41.3067 69.2538 41.904C68.8432 42.4827 68.2365 43.024 67.4338 43.528L67.4058 43.64C69.1232 44.4613 69.7672 46.1413 69.3378 48.68C69.0205 50.4347 68.1618 51.76 66.7618 52.656C65.3805 53.552 63.6632 54 61.6098 54H53.2098C52.7618 54 52.4632 53.916 52.3138 53.748C52.1645 53.5613 52.1365 53.2533 52.2298 52.824L55.3098 35.296C55.4032 34.848 55.5432 34.54 55.7298 34.372C55.9352 34.1853 56.2618 34.092 56.7098 34.092H64.9138ZM64.4098 40.168C64.5965 39.1227 64.1112 38.6 62.9538 38.6H60.2658L59.7338 41.68H62.4218C63.5605 41.68 64.2232 41.176 64.4098 40.168ZM63.6818 47.812C63.9058 46.7293 63.4018 46.188 62.1698 46.188H58.9498L58.3618 49.464H61.6098C62.8045 49.464 63.4952 48.9133 63.6818 47.812ZM88.4295 34.092C90.3521 34.092 91.7801 34.596 92.7135 35.604C93.6655 36.5933 93.9921 37.928 93.6935 39.608C93.5068 40.5413 93.1988 41.3067 92.7695 41.904C92.3588 42.4827 91.7521 43.024 90.9495 43.528L90.9215 43.64C92.6388 44.4613 93.2828 46.1413 92.8535 48.68C92.5361 50.4347 91.6775 51.76 90.2775 52.656C88.8961 53.552 87.1788 54 85.1255 54H76.7255C76.2775 54 75.9788 53.916 75.8295 53.748C75.6801 53.5613 75.6521 53.2533 75.7455 52.824L78.8255 35.296C78.9188 34.848 79.0588 34.54 79.2455 34.372C79.4508 34.1853 79.7775 34.092 80.2255 34.092H88.4295ZM87.9255 40.168C88.1121 39.1227 87.6268 38.6 86.4695 38.6H83.7815L83.2495 41.68H85.9375C87.0761 41.68 87.7388 41.176 87.9255 40.168ZM87.1975 47.812C87.4215 46.7293 86.9175 46.188 85.6855 46.188H82.4655L81.8775 49.464H85.1255C86.3201 49.464 87.0108 48.9133 87.1975 47.812ZM110.387 34.12C110.835 34.12 111.134 34.2133 111.283 34.4C111.432 34.568 111.47 34.8667 111.395 35.296L110.947 37.816C110.872 38.264 110.723 38.5813 110.499 38.768C110.294 38.936 109.976 39.02 109.547 39.02H102.155L101.707 41.512H107.615C108.063 41.512 108.352 41.6053 108.483 41.792C108.632 41.96 108.67 42.2587 108.595 42.688L108.147 45.208C108.054 45.656 107.904 45.9733 107.699 46.16C107.512 46.328 107.195 46.412 106.747 46.412H100.839L100.363 49.1H108.007C108.436 49.1 108.716 49.184 108.847 49.352C108.996 49.52 109.034 49.828 108.959 50.276L108.511 52.824C108.436 53.2533 108.296 53.5613 108.091 53.748C107.886 53.916 107.559 54 107.111 54H95.1552C94.7072 54 94.4085 53.916 94.2592 53.748C94.1098 53.5613 94.0818 53.2533 94.1752 52.824L97.2552 35.296C97.3485 34.8667 97.4885 34.568 97.6752 34.4C97.8805 34.2133 98.2072 34.12 98.6552 34.12H110.387ZM129.508 34.12C129.956 34.12 130.255 34.2133 130.404 34.4C130.553 34.568 130.591 34.8667 130.516 35.296L127.408 52.824C127.333 53.2533 127.193 53.5613 126.988 53.748C126.783 53.916 126.456 54 126.008 54H122.928C122.424 54 122.079 53.8133 121.892 53.44L118.784 46.804C118.373 45.908 118.065 45.0587 117.86 44.256C117.673 43.4347 117.496 42.3613 117.328 41.036H117.104C117.253 43.724 117.141 46.132 116.768 48.26L115.956 52.824C115.863 53.2533 115.713 53.5613 115.508 53.748C115.321 53.916 115.004 54 114.556 54H111.616C111.168 54 110.869 53.916 110.72 53.748C110.571 53.5613 110.543 53.2533 110.636 52.824L113.716 35.296C113.809 34.8667 113.949 34.568 114.136 34.4C114.341 34.2133 114.668 34.12 115.116 34.12H118.308C118.849 34.12 119.213 34.3067 119.4 34.68L122.704 41.848C123.171 42.8373 123.656 44.5453 124.16 46.972H124.384C124.179 45.348 124.067 44.1627 124.048 43.416C124.048 42.6693 124.16 41.4933 124.384 39.888L125.196 35.296C125.271 34.8667 125.401 34.568 125.588 34.4C125.793 34.2133 126.12 34.12 126.568 34.12H129.508ZM146.508 34.12C146.956 34.12 147.255 34.2133 147.404 34.4C147.554 34.568 147.591 34.8667 147.516 35.296L147.068 37.816C146.994 38.264 146.844 38.5813 146.62 38.768C146.415 38.936 146.098 39.02 145.668 39.02H138.276L137.828 41.512H143.736C144.184 41.512 144.474 41.6053 144.604 41.792C144.754 41.96 144.791 42.2587 144.716 42.688L144.268 45.208C144.175 45.656 144.026 45.9733 143.82 46.16C143.634 46.328 143.316 46.412 142.868 46.412H136.96L136.484 49.1H144.128C144.558 49.1 144.838 49.184 144.968 49.352C145.118 49.52 145.155 49.828 145.08 50.276L144.632 52.824C144.558 53.2533 144.418 53.5613 144.212 53.748C144.007 53.916 143.68 54 143.232 54H131.276C130.828 54 130.53 53.916 130.38 53.748C130.231 53.5613 130.203 53.2533 130.296 52.824L133.376 35.296C133.47 34.8667 133.61 34.568 133.796 34.4C134.002 34.2133 134.328 34.12 134.776 34.12H146.508ZM162.969 34.12C163.417 34.12 163.716 34.2133 163.865 34.4C164.015 34.568 164.052 34.8667 163.977 35.296L163.529 37.816C163.455 38.264 163.305 38.5813 163.081 38.768C162.876 38.936 162.559 39.02 162.129 39.02H154.737L154.149 42.268H160.057C160.505 42.268 160.795 42.3613 160.925 42.548C161.075 42.716 161.112 43.0147 161.037 43.444L160.589 45.964C160.515 46.412 160.375 46.7293 160.169 46.916C159.964 47.084 159.637 47.168 159.189 47.168H153.309L152.301 52.824C152.208 53.2533 152.059 53.5613 151.853 53.748C151.667 53.916 151.349 54 150.901 54H147.737C147.289 54 146.991 53.916 146.841 53.748C146.692 53.5613 146.664 53.2533 146.757 52.824L149.837 35.296C149.931 34.8667 150.071 34.568 150.257 34.4C150.463 34.2133 150.789 34.12 151.237 34.12H162.969ZM166.08 35.24C166.173 34.8107 166.313 34.5213 166.5 34.372C166.687 34.204 166.985 34.12 167.396 34.12H170.7C171.129 34.12 171.409 34.204 171.54 34.372C171.671 34.54 171.699 34.8293 171.624 35.24L168.516 52.88C168.441 53.2907 168.311 53.58 168.124 53.748C167.937 53.916 167.629 54 167.2 54H163.896C163.485 54 163.205 53.9253 163.056 53.776C162.925 53.608 162.897 53.3093 162.972 52.88L166.08 35.24ZM188.587 34.12C189.035 34.12 189.333 34.2133 189.483 34.4C189.632 34.568 189.66 34.8667 189.567 35.296L189.119 37.816C189.044 38.264 188.904 38.5813 188.699 38.768C188.493 38.936 188.167 39.02 187.719 39.02H183.575L181.139 52.824C181.045 53.2533 180.896 53.5613 180.691 53.748C180.504 53.916 180.187 54 179.739 54H176.575C176.127 54 175.828 53.916 175.679 53.748C175.529 53.5613 175.501 53.2533 175.595 52.824L178.031 39.02H173.859C173.411 39.02 173.112 38.936 172.963 38.768C172.832 38.5813 172.804 38.264 172.879 37.816L173.327 35.296C173.42 34.8667 173.56 34.568 173.747 34.4C173.952 34.2133 174.279 34.12 174.727 34.12H188.587ZM189.918 39.496C190.254 37.6293 191.197 36.2013 192.746 35.212C194.314 34.204 196.424 33.7 199.074 33.7C201.072 33.7 202.612 34.0547 203.694 34.764C204.777 35.4547 205.542 36.4813 205.99 37.844C206.121 38.2547 206.13 38.5533 206.018 38.74C205.906 38.9267 205.617 39.1133 205.15 39.3L202.378 40.392C201.968 40.56 201.669 40.6067 201.482 40.532C201.296 40.4573 201.128 40.2147 200.978 39.804C200.642 38.8333 199.784 38.348 198.402 38.348C196.629 38.348 195.658 38.8333 195.49 39.804C195.397 40.3453 195.63 40.728 196.19 40.952C196.75 41.176 197.646 41.3627 198.878 41.512C199.364 41.5867 199.821 41.68 200.25 41.792C200.68 41.8853 201.137 42.0253 201.622 42.212C202.126 42.3987 202.565 42.6133 202.938 42.856C203.312 43.0987 203.676 43.4067 204.03 43.78C204.385 44.1347 204.646 44.536 204.814 44.984C204.982 45.432 205.113 45.9547 205.206 46.552C205.3 47.1493 205.262 47.812 205.094 48.54C204.366 52.46 201.221 54.42 195.658 54.42C193.53 54.42 191.785 54.0467 190.422 53.3C189.06 52.5533 188.238 51.48 187.958 50.08C187.828 49.3333 188.173 48.82 188.994 48.54L191.794 47.588C192.242 47.4387 192.578 47.4107 192.802 47.504C193.026 47.5787 193.204 47.812 193.334 48.204C193.67 49.1933 194.632 49.688 196.218 49.688C198.216 49.688 199.317 49.156 199.522 48.092C199.616 47.588 199.401 47.224 198.878 47C198.374 46.776 197.59 46.5893 196.526 46.44C195.761 46.328 195.089 46.2067 194.51 46.076C193.932 45.9453 193.288 45.712 192.578 45.376C191.869 45.04 191.309 44.6387 190.898 44.172C190.488 43.7053 190.18 43.0707 189.974 42.268C189.769 41.4653 189.75 40.5413 189.918 39.496Z" fill="white"/>
<path d="M176.16 4.12C176.963 4.12 177.149 4.50267 176.72 5.268L167.424 23.02C167.219 23.412 167.004 23.6733 166.78 23.804C166.556 23.9347 166.229 24 165.8 24H162.272C161.861 24 161.563 23.9347 161.376 23.804C161.189 23.6733 161.059 23.4307 160.984 23.076L157.932 5.268C157.783 4.50267 158.119 4.12 158.94 4.12H162.076C162.748 4.12 163.215 4.204 163.476 4.372C163.737 4.54 163.887 4.848 163.924 5.296L164.904 14.872C164.96 15.3573 164.988 15.908 164.988 16.524C164.988 17.1213 164.979 17.5973 164.96 17.952L164.904 18.484H165.156C165.436 17.196 165.828 16.0013 166.332 14.9L170.728 5.296C170.933 4.848 171.176 4.54 171.456 4.372C171.755 4.204 172.24 4.12 172.912 4.12H176.16ZM178.279 5.24C178.373 4.81067 178.513 4.52133 178.699 4.372C178.886 4.204 179.185 4.12 179.595 4.12H182.899C183.329 4.12 183.609 4.204 183.739 4.372C183.87 4.54 183.898 4.82933 183.823 5.24L180.715 22.88C180.641 23.2907 180.51 23.58 180.323 23.748C180.137 23.916 179.829 24 179.399 24H176.095C175.685 24 175.405 23.9253 175.255 23.776C175.125 23.608 175.097 23.3093 175.171 22.88L178.279 5.24ZM195.774 4.12C197.958 4.12 199.582 4.80133 200.646 6.164C201.71 7.508 202.055 9.3 201.682 11.54C201.308 13.7053 200.384 15.3293 198.91 16.412C197.454 17.4947 195.606 18.036 193.366 18.036H189.95L189.11 22.824C189.016 23.2533 188.867 23.5613 188.662 23.748C188.475 23.916 188.158 24 187.71 24H184.546C184.098 24 183.799 23.916 183.65 23.748C183.5 23.5613 183.472 23.2533 183.566 22.824L186.646 5.296C186.739 4.86667 186.879 4.568 187.066 4.4C187.271 4.21333 187.598 4.12 188.046 4.12H195.774ZM193.562 13.136C194.215 13.136 194.756 12.9493 195.186 12.576C195.634 12.2027 195.914 11.708 196.026 11.092C196.138 10.4573 196.035 9.95333 195.718 9.58C195.419 9.20667 194.943 9.02 194.29 9.02H191.546L190.818 13.136H193.562Z" fill="white"/>
<defs>
<linearGradient id="paint0_linear_553_1168" x1="63.1684" y1="31.7188" x2="61.2009" y2="-0.0272008" gradientUnits="userSpaceOnUse">
<stop stop-color="#EBC367"/>
<stop offset="0.206588" stop-color="#FDB242"/>
<stop offset="0.589636" stop-color="#D1891E"/>
<stop offset="0.694186" stop-color="#E1A03F"/>
<stop offset="0.697522" stop-color="#FFDDA9"/>
<stop offset="0.911458" stop-color="#F1BD57"/>
</linearGradient>
<linearGradient id="paint1_linear_553_1168" x1="136.965" y1="4.89376" x2="11.9661" y2="27.6127" gradientUnits="userSpaceOnUse">
<stop stop-color="#E6C365" stop-opacity="0"/>
<stop offset="1" stop-color="#E6C365" stop-opacity="0.3"/>
</linearGradient>
</defs>
</svg>
