<svg width="210" height="30" viewBox="0 0 210 30" fill="none" xmlns="http://www.w3.org/2000/svg">
<path d="M23.36 0.599998C24 0.599998 24.4267 0.733332 24.64 0.999998C24.8533 1.24 24.9067 1.66666 24.8 2.28L24.16 5.88C24.0533 6.52 23.84 6.97333 23.52 7.24C23.2267 7.48 22.7733 7.6 22.16 7.6H11.6L10.96 11.16H19.4C20.04 11.16 20.4533 11.2933 20.64 11.56C20.8533 11.8 20.9067 12.2267 20.8 12.84L20.16 16.44C20.0267 17.08 19.8133 17.5333 19.52 17.8C19.2533 18.04 18.8 18.16 18.16 18.16H9.72L9.04 22H19.96C20.5733 22 20.9733 22.12 21.16 22.36C21.3733 22.6 21.4267 23.04 21.32 23.68L20.68 27.32C20.5733 27.9333 20.3733 28.3733 20.08 28.64C19.7867 28.88 19.32 29 18.68 29H1.6C0.96 29 0.533333 28.88 0.32 28.64C0.106667 28.3733 0.0666667 27.9333 0.2 27.32L4.6 2.28C4.73333 1.66666 4.93333 1.24 5.2 0.999998C5.49333 0.733332 5.96 0.599998 6.6 0.599998H23.36ZM50.9956 0.599998C51.5556 0.599998 51.8756 0.759999 51.9556 1.08C52.0356 1.4 51.889 1.77333 51.5156 2.2L41.3956 14.52L47.5156 27.32C47.7556 27.7467 47.769 28.1333 47.5556 28.48C47.3423 28.8267 46.9423 29 46.3556 29H41.2756C40.209 29 39.489 28.92 39.1156 28.76C38.769 28.6 38.4623 28.1867 38.1956 27.52L35.5556 20.96L30.7556 27.52C30.2756 28.16 29.8223 28.5733 29.3956 28.76C28.969 28.92 28.2223 29 27.1556 29H22.1956C21.5823 29 21.2356 28.84 21.1556 28.52C21.049 28.2 21.209 27.8 21.6356 27.32L32.1156 14.52L26.4356 2.2C26.2223 1.77333 26.209 1.4 26.3956 1.08C26.609 0.759999 26.9823 0.599998 27.5156 0.599998H32.2756C33.3156 0.599998 34.0223 0.679998 34.3956 0.839998C34.769 0.999999 35.089 1.38667 35.3556 2L37.8756 8.16L42.5156 2C42.9956 1.36 43.4223 0.973331 43.7956 0.839998C44.1956 0.679998 44.8756 0.599998 45.8356 0.599998H50.9956ZM50.43 10.64C51.0167 7.2 52.5233 4.57333 54.95 2.76C57.4033 0.919999 60.6033 -9.53674e-07 64.55 -9.53674e-07C70.31 -9.53674e-07 73.63 2.37333 74.51 7.12C74.6433 7.70667 74.6033 8.17333 74.39 8.52C74.2033 8.84 73.79 9.09333 73.15 9.28L69.03 10.68C68.39 10.8667 67.9233 10.8933 67.63 10.76C67.3633 10.6 67.1633 10.2133 67.03 9.6C66.8433 8.69333 66.47 8.04 65.91 7.64C65.35 7.21333 64.51 7 63.39 7C61.8433 7 60.6567 7.34667 59.83 8.04C59.03 8.70667 58.51 9.74667 58.27 11.16L56.95 18.44C56.71 19.8533 56.87 20.9067 57.43 21.6C58.0167 22.2667 59.0833 22.6 60.63 22.6C62.7367 22.6 64.27 21.7333 65.23 20C65.6033 19.36 65.95 18.9733 66.27 18.84C66.59 18.68 67.03 18.7067 67.59 18.92L71.75 20.52C72.79 20.8933 73.0167 21.6133 72.43 22.68C69.9233 27.2933 65.6167 29.6 59.51 29.6C55.6433 29.6 52.79 28.5467 50.95 26.44C49.1367 24.3333 48.5233 21.5333 49.11 18.04L50.43 10.64ZM84.5684 0.599998C85.2084 0.599998 85.6351 0.733332 85.8484 0.999998C86.0618 1.24 86.1151 1.66666 86.0084 2.28L82.5284 22H92.1284C92.7684 22 93.1818 22.12 93.3684 22.36C93.5818 22.6 93.6351 23.04 93.5284 23.68L92.8884 27.32C92.7551 27.9333 92.5418 28.3733 92.2484 28.64C91.9818 28.88 91.5284 29 90.8884 29H75.0484C74.4084 29 73.9818 28.88 73.7684 28.64C73.5818 28.3733 73.5418 27.9333 73.6484 27.32L78.0884 2.28C78.1951 1.66666 78.3818 1.24 78.6484 0.999998C78.9418 0.733332 79.4084 0.599998 80.0484 0.599998H84.5684ZM103.189 18.92C102.762 21.3733 103.935 22.6 106.709 22.6C109.455 22.6 111.042 21.3733 111.469 18.92L114.429 2.28C114.535 1.66666 114.735 1.24 115.029 0.999998C115.322 0.733332 115.775 0.599998 116.389 0.599998H120.949C121.562 0.599998 121.975 0.733332 122.189 0.999998C122.402 1.24 122.455 1.66666 122.349 2.28L119.349 19.2C118.735 22.5867 117.269 25.1733 114.949 26.96C112.655 28.72 109.549 29.6 105.629 29.6C101.762 29.6 98.9488 28.52 97.1888 26.36C95.4288 24.1733 94.8554 21.3467 95.4688 17.88L98.2288 2.28C98.3621 1.66666 98.5621 1.24 98.8288 0.999998C99.1221 0.733332 99.5888 0.599998 100.229 0.599998H104.749C105.389 0.599998 105.815 0.733332 106.029 0.999998C106.242 1.24 106.282 1.66666 106.149 2.28L103.189 18.92ZM123.804 8.28C124.284 5.61333 125.631 3.57333 127.844 2.16C130.084 0.719999 133.097 -9.53674e-07 136.884 -9.53674e-07C139.737 -9.53674e-07 141.937 0.506666 143.484 1.52C145.031 2.50667 146.124 3.97333 146.764 5.92C146.951 6.50667 146.964 6.93333 146.804 7.2C146.644 7.46667 146.231 7.73333 145.564 8L141.604 9.56C141.017 9.8 140.591 9.86667 140.324 9.76C140.057 9.65333 139.817 9.30667 139.604 8.72C139.124 7.33333 137.897 6.64 135.924 6.64C133.391 6.64 132.004 7.33333 131.764 8.72C131.631 9.49333 131.964 10.04 132.764 10.36C133.564 10.68 134.844 10.9467 136.604 11.16C137.297 11.2667 137.951 11.4 138.564 11.56C139.177 11.6933 139.831 11.8933 140.524 12.16C141.244 12.4267 141.871 12.7333 142.404 13.08C142.937 13.4267 143.457 13.8667 143.964 14.4C144.471 14.9067 144.844 15.48 145.084 16.12C145.324 16.76 145.511 17.5067 145.644 18.36C145.777 19.2133 145.724 20.16 145.484 21.2C144.444 26.8 139.951 29.6 132.004 29.6C128.964 29.6 126.471 29.0667 124.524 28C122.577 26.9333 121.404 25.4 121.004 23.4C120.817 22.3333 121.311 21.6 122.484 21.2L126.484 19.84C127.124 19.6267 127.604 19.5867 127.924 19.72C128.244 19.8267 128.497 20.16 128.684 20.72C129.164 22.1333 130.537 22.84 132.804 22.84C135.657 22.84 137.231 22.08 137.524 20.56C137.657 19.84 137.351 19.32 136.604 19C135.884 18.68 134.764 18.4133 133.244 18.2C132.151 18.04 131.191 17.8667 130.364 17.68C129.537 17.4933 128.617 17.16 127.604 16.68C126.591 16.2 125.791 15.6267 125.204 14.96C124.617 14.2933 124.177 13.3867 123.884 12.24C123.591 11.0933 123.564 9.77333 123.804 8.28ZM151.068 2.2C151.201 1.58667 151.401 1.17333 151.668 0.959999C151.935 0.719999 152.361 0.599998 152.948 0.599998H157.668C158.281 0.599998 158.681 0.719999 158.868 0.959999C159.055 1.2 159.095 1.61333 158.988 2.2L154.548 27.4C154.441 27.9867 154.255 28.4 153.988 28.64C153.721 28.88 153.281 29 152.668 29H147.948C147.361 29 146.961 28.8933 146.748 28.68C146.561 28.44 146.521 28.0133 146.628 27.4L151.068 2.2ZM186.82 0.599998C187.967 0.599998 188.234 1.14667 187.62 2.24L174.34 27.6C174.047 28.16 173.74 28.5333 173.42 28.72C173.1 28.9067 172.634 29 172.02 29H166.98C166.394 29 165.967 28.9067 165.7 28.72C165.434 28.5333 165.247 28.1867 165.14 27.68L160.78 2.24C160.567 1.14667 161.047 0.599998 162.22 0.599998H166.7C167.66 0.599998 168.327 0.719999 168.7 0.959999C169.074 1.2 169.287 1.64 169.34 2.28L170.74 15.96C170.82 16.6533 170.86 17.44 170.86 18.32C170.86 19.1733 170.847 19.8533 170.82 20.36L170.74 21.12H171.1C171.5 19.28 172.06 17.5733 172.78 16L179.06 2.28C179.354 1.64 179.7 1.2 180.1 0.959999C180.527 0.719999 181.22 0.599998 182.18 0.599998H186.82ZM208.168 0.599998C208.808 0.599998 209.234 0.733332 209.448 0.999998C209.661 1.24 209.714 1.66666 209.608 2.28L208.968 5.88C208.861 6.52 208.648 6.97333 208.328 7.24C208.034 7.48 207.581 7.6 206.968 7.6H196.408L195.768 11.16H204.208C204.848 11.16 205.261 11.2933 205.448 11.56C205.661 11.8 205.714 12.2267 205.608 12.84L204.968 16.44C204.834 17.08 204.621 17.5333 204.328 17.8C204.061 18.04 203.608 18.16 202.968 18.16H194.528L193.848 22H204.768C205.381 22 205.781 22.12 205.968 22.36C206.181 22.6 206.234 23.04 206.128 23.68L205.488 27.32C205.381 27.9333 205.181 28.3733 204.888 28.64C204.594 28.88 204.128 29 203.488 29H186.408C185.768 29 185.341 28.88 185.128 28.64C184.914 28.3733 184.874 27.9333 185.008 27.32L189.408 2.28C189.541 1.66666 189.741 1.24 190.008 0.999998C190.301 0.733332 190.768 0.599998 191.408 0.599998H208.168Z" fill="url(#paint0_linear_181_3171)"/>
<path d="M23.36 0.599998C24 0.599998 24.4267 0.733332 24.64 0.999998C24.8533 1.24 24.9067 1.66666 24.8 2.28L24.16 5.88C24.0533 6.52 23.84 6.97333 23.52 7.24C23.2267 7.48 22.7733 7.6 22.16 7.6H11.6L10.96 11.16H19.4C20.04 11.16 20.4533 11.2933 20.64 11.56C20.8533 11.8 20.9067 12.2267 20.8 12.84L20.16 16.44C20.0267 17.08 19.8133 17.5333 19.52 17.8C19.2533 18.04 18.8 18.16 18.16 18.16H9.72L9.04 22H19.96C20.5733 22 20.9733 22.12 21.16 22.36C21.3733 22.6 21.4267 23.04 21.32 23.68L20.68 27.32C20.5733 27.9333 20.3733 28.3733 20.08 28.64C19.7867 28.88 19.32 29 18.68 29H1.6C0.96 29 0.533333 28.88 0.32 28.64C0.106667 28.3733 0.0666667 27.9333 0.2 27.32L4.6 2.28C4.73333 1.66666 4.93333 1.24 5.2 0.999998C5.49333 0.733332 5.96 0.599998 6.6 0.599998H23.36ZM50.9956 0.599998C51.5556 0.599998 51.8756 0.759999 51.9556 1.08C52.0356 1.4 51.889 1.77333 51.5156 2.2L41.3956 14.52L47.5156 27.32C47.7556 27.7467 47.769 28.1333 47.5556 28.48C47.3423 28.8267 46.9423 29 46.3556 29H41.2756C40.209 29 39.489 28.92 39.1156 28.76C38.769 28.6 38.4623 28.1867 38.1956 27.52L35.5556 20.96L30.7556 27.52C30.2756 28.16 29.8223 28.5733 29.3956 28.76C28.969 28.92 28.2223 29 27.1556 29H22.1956C21.5823 29 21.2356 28.84 21.1556 28.52C21.049 28.2 21.209 27.8 21.6356 27.32L32.1156 14.52L26.4356 2.2C26.2223 1.77333 26.209 1.4 26.3956 1.08C26.609 0.759999 26.9823 0.599998 27.5156 0.599998H32.2756C33.3156 0.599998 34.0223 0.679998 34.3956 0.839998C34.769 0.999999 35.089 1.38667 35.3556 2L37.8756 8.16L42.5156 2C42.9956 1.36 43.4223 0.973331 43.7956 0.839998C44.1956 0.679998 44.8756 0.599998 45.8356 0.599998H50.9956ZM50.43 10.64C51.0167 7.2 52.5233 4.57333 54.95 2.76C57.4033 0.919999 60.6033 -9.53674e-07 64.55 -9.53674e-07C70.31 -9.53674e-07 73.63 2.37333 74.51 7.12C74.6433 7.70667 74.6033 8.17333 74.39 8.52C74.2033 8.84 73.79 9.09333 73.15 9.28L69.03 10.68C68.39 10.8667 67.9233 10.8933 67.63 10.76C67.3633 10.6 67.1633 10.2133 67.03 9.6C66.8433 8.69333 66.47 8.04 65.91 7.64C65.35 7.21333 64.51 7 63.39 7C61.8433 7 60.6567 7.34667 59.83 8.04C59.03 8.70667 58.51 9.74667 58.27 11.16L56.95 18.44C56.71 19.8533 56.87 20.9067 57.43 21.6C58.0167 22.2667 59.0833 22.6 60.63 22.6C62.7367 22.6 64.27 21.7333 65.23 20C65.6033 19.36 65.95 18.9733 66.27 18.84C66.59 18.68 67.03 18.7067 67.59 18.92L71.75 20.52C72.79 20.8933 73.0167 21.6133 72.43 22.68C69.9233 27.2933 65.6167 29.6 59.51 29.6C55.6433 29.6 52.79 28.5467 50.95 26.44C49.1367 24.3333 48.5233 21.5333 49.11 18.04L50.43 10.64ZM84.5684 0.599998C85.2084 0.599998 85.6351 0.733332 85.8484 0.999998C86.0618 1.24 86.1151 1.66666 86.0084 2.28L82.5284 22H92.1284C92.7684 22 93.1818 22.12 93.3684 22.36C93.5818 22.6 93.6351 23.04 93.5284 23.68L92.8884 27.32C92.7551 27.9333 92.5418 28.3733 92.2484 28.64C91.9818 28.88 91.5284 29 90.8884 29H75.0484C74.4084 29 73.9818 28.88 73.7684 28.64C73.5818 28.3733 73.5418 27.9333 73.6484 27.32L78.0884 2.28C78.1951 1.66666 78.3818 1.24 78.6484 0.999998C78.9418 0.733332 79.4084 0.599998 80.0484 0.599998H84.5684ZM103.189 18.92C102.762 21.3733 103.935 22.6 106.709 22.6C109.455 22.6 111.042 21.3733 111.469 18.92L114.429 2.28C114.535 1.66666 114.735 1.24 115.029 0.999998C115.322 0.733332 115.775 0.599998 116.389 0.599998H120.949C121.562 0.599998 121.975 0.733332 122.189 0.999998C122.402 1.24 122.455 1.66666 122.349 2.28L119.349 19.2C118.735 22.5867 117.269 25.1733 114.949 26.96C112.655 28.72 109.549 29.6 105.629 29.6C101.762 29.6 98.9488 28.52 97.1888 26.36C95.4288 24.1733 94.8554 21.3467 95.4688 17.88L98.2288 2.28C98.3621 1.66666 98.5621 1.24 98.8288 0.999998C99.1221 0.733332 99.5888 0.599998 100.229 0.599998H104.749C105.389 0.599998 105.815 0.733332 106.029 0.999998C106.242 1.24 106.282 1.66666 106.149 2.28L103.189 18.92ZM123.804 8.28C124.284 5.61333 125.631 3.57333 127.844 2.16C130.084 0.719999 133.097 -9.53674e-07 136.884 -9.53674e-07C139.737 -9.53674e-07 141.937 0.506666 143.484 1.52C145.031 2.50667 146.124 3.97333 146.764 5.92C146.951 6.50667 146.964 6.93333 146.804 7.2C146.644 7.46667 146.231 7.73333 145.564 8L141.604 9.56C141.017 9.8 140.591 9.86667 140.324 9.76C140.057 9.65333 139.817 9.30667 139.604 8.72C139.124 7.33333 137.897 6.64 135.924 6.64C133.391 6.64 132.004 7.33333 131.764 8.72C131.631 9.49333 131.964 10.04 132.764 10.36C133.564 10.68 134.844 10.9467 136.604 11.16C137.297 11.2667 137.951 11.4 138.564 11.56C139.177 11.6933 139.831 11.8933 140.524 12.16C141.244 12.4267 141.871 12.7333 142.404 13.08C142.937 13.4267 143.457 13.8667 143.964 14.4C144.471 14.9067 144.844 15.48 145.084 16.12C145.324 16.76 145.511 17.5067 145.644 18.36C145.777 19.2133 145.724 20.16 145.484 21.2C144.444 26.8 139.951 29.6 132.004 29.6C128.964 29.6 126.471 29.0667 124.524 28C122.577 26.9333 121.404 25.4 121.004 23.4C120.817 22.3333 121.311 21.6 122.484 21.2L126.484 19.84C127.124 19.6267 127.604 19.5867 127.924 19.72C128.244 19.8267 128.497 20.16 128.684 20.72C129.164 22.1333 130.537 22.84 132.804 22.84C135.657 22.84 137.231 22.08 137.524 20.56C137.657 19.84 137.351 19.32 136.604 19C135.884 18.68 134.764 18.4133 133.244 18.2C132.151 18.04 131.191 17.8667 130.364 17.68C129.537 17.4933 128.617 17.16 127.604 16.68C126.591 16.2 125.791 15.6267 125.204 14.96C124.617 14.2933 124.177 13.3867 123.884 12.24C123.591 11.0933 123.564 9.77333 123.804 8.28ZM151.068 2.2C151.201 1.58667 151.401 1.17333 151.668 0.959999C151.935 0.719999 152.361 0.599998 152.948 0.599998H157.668C158.281 0.599998 158.681 0.719999 158.868 0.959999C159.055 1.2 159.095 1.61333 158.988 2.2L154.548 27.4C154.441 27.9867 154.255 28.4 153.988 28.64C153.721 28.88 153.281 29 152.668 29H147.948C147.361 29 146.961 28.8933 146.748 28.68C146.561 28.44 146.521 28.0133 146.628 27.4L151.068 2.2ZM186.82 0.599998C187.967 0.599998 188.234 1.14667 187.62 2.24L174.34 27.6C174.047 28.16 173.74 28.5333 173.42 28.72C173.1 28.9067 172.634 29 172.02 29H166.98C166.394 29 165.967 28.9067 165.7 28.72C165.434 28.5333 165.247 28.1867 165.14 27.68L160.78 2.24C160.567 1.14667 161.047 0.599998 162.22 0.599998H166.7C167.66 0.599998 168.327 0.719999 168.7 0.959999C169.074 1.2 169.287 1.64 169.34 2.28L170.74 15.96C170.82 16.6533 170.86 17.44 170.86 18.32C170.86 19.1733 170.847 19.8533 170.82 20.36L170.74 21.12H171.1C171.5 19.28 172.06 17.5733 172.78 16L179.06 2.28C179.354 1.64 179.7 1.2 180.1 0.959999C180.527 0.719999 181.22 0.599998 182.18 0.599998H186.82ZM208.168 0.599998C208.808 0.599998 209.234 0.733332 209.448 0.999998C209.661 1.24 209.714 1.66666 209.608 2.28L208.968 5.88C208.861 6.52 208.648 6.97333 208.328 7.24C208.034 7.48 207.581 7.6 206.968 7.6H196.408L195.768 11.16H204.208C204.848 11.16 205.261 11.2933 205.448 11.56C205.661 11.8 205.714 12.2267 205.608 12.84L204.968 16.44C204.834 17.08 204.621 17.5333 204.328 17.8C204.061 18.04 203.608 18.16 202.968 18.16H194.528L193.848 22H204.768C205.381 22 205.781 22.12 205.968 22.36C206.181 22.6 206.234 23.04 206.128 23.68L205.488 27.32C205.381 27.9333 205.181 28.3733 204.888 28.64C204.594 28.88 204.128 29 203.488 29H186.408C185.768 29 185.341 28.88 185.128 28.64C184.914 28.3733 184.874 27.9333 185.008 27.32L189.408 2.28C189.541 1.66666 189.741 1.24 190.008 0.999998C190.301 0.733332 190.768 0.599998 191.408 0.599998H208.168Z" fill="url(#paint1_linear_181_3171)"/>
<defs>
<linearGradient id="paint0_linear_181_3171" x1="89.6992" y1="38.75" x2="87.0626" y2="-5.04699" gradientUnits="userSpaceOnUse">
<stop stop-color="#EBC367"/>
<stop offset="0.206588" stop-color="#FDB242"/>
<stop offset="0.589636" stop-color="#D1891E"/>
<stop offset="0.694186" stop-color="#E1A03F"/>
<stop offset="0.697522" stop-color="#FFDDA9"/>
<stop offset="0.911458" stop-color="#F1BD57"/>
</linearGradient>
<linearGradient id="paint1_linear_181_3171" x1="194.491" y1="1.75002" x2="17.331" y2="34.8992" gradientUnits="userSpaceOnUse">
<stop stop-color="#E6C365" stop-opacity="0"/>
<stop offset="1" stop-color="#E6C365" stop-opacity="0.3"/>
</linearGradient>
</defs>
</svg>
