<svg width="365" height="30" viewBox="0 0 365 30" fill="none" xmlns="http://www.w3.org/2000/svg">
<path d="M26.9797 0.599998C28.1264 0.599998 28.393 1.14667 27.7797 2.24L14.4997 27.6C14.2064 28.16 13.8997 28.5333 13.5797 28.72C13.2597 28.9067 12.793 29 12.1797 29H7.13969C6.55302 29 6.12635 28.9067 5.85969 28.72C5.59302 28.5333 5.40635 28.1867 5.29969 27.68L0.939688 2.24C0.726354 1.14667 1.20635 0.599998 2.37969 0.599998H6.85969C7.81969 0.599998 8.48635 0.719999 8.85969 0.959999C9.23302 1.2 9.44635 1.64 9.49969 2.28L10.8997 15.96C10.9797 16.6533 11.0197 17.44 11.0197 18.32C11.0197 19.1733 11.0064 19.8533 10.9797 20.36L10.8997 21.12H11.2597C11.6597 19.28 12.2197 17.5733 12.9397 16L19.2197 2.28C19.513 1.64 19.8597 1.2 20.2597 0.959999C20.6864 0.719999 21.3797 0.599998 22.3397 0.599998H26.9797ZM30.0072 2.2C30.1405 1.58667 30.3405 1.17333 30.6072 0.959999C30.8739 0.719999 31.3005 0.599998 31.8872 0.599998H36.6072C37.2205 0.599998 37.6205 0.719999 37.8072 0.959999C37.9939 1.2 38.0339 1.61333 37.9272 2.2L33.4872 27.4C33.3805 27.9867 33.1939 28.4 32.9272 28.64C32.6605 28.88 32.2205 29 31.6072 29H26.8872C26.3005 29 25.9005 28.8933 25.6872 28.68C25.5005 28.44 25.4605 28.0133 25.5672 27.4L30.0072 2.2ZM54.9994 0.599998C58.1194 0.599998 60.4394 1.57333 61.9594 3.52C63.4794 5.44 63.9727 8 63.4394 11.2C62.906 14.2933 61.586 16.6133 59.4794 18.16C57.3994 19.7067 54.7594 20.48 51.5594 20.48H46.6794L45.4794 27.32C45.346 27.9333 45.1327 28.3733 44.8394 28.64C44.5727 28.88 44.1194 29 43.4794 29H38.9594C38.3194 29 37.8927 28.88 37.6794 28.64C37.466 28.3733 37.426 27.9333 37.5594 27.32L41.9594 2.28C42.0927 1.66666 42.2927 1.24 42.5594 0.999998C42.8527 0.733332 43.3194 0.599998 43.9594 0.599998H54.9994ZM51.8394 13.48C52.7727 13.48 53.546 13.2133 54.1594 12.68C54.7994 12.1467 55.1994 11.44 55.3594 10.56C55.5194 9.65333 55.3727 8.93333 54.9194 8.4C54.4927 7.86667 53.8127 7.6 52.8794 7.6H48.9594L47.9194 13.48H51.8394ZM72.1441 10.64C72.7307 7.2 74.2374 4.57333 76.6641 2.76C79.1174 0.919999 82.3174 -9.53674e-07 86.2641 -9.53674e-07C92.0241 -9.53674e-07 95.3441 2.37333 96.2241 7.12C96.3574 7.70667 96.3174 8.17333 96.1041 8.52C95.9174 8.84 95.5041 9.09333 94.8641 9.28L90.7441 10.68C90.1041 10.8667 89.6374 10.8933 89.3441 10.76C89.0774 10.6 88.8774 10.2133 88.7441 9.6C88.5574 8.69333 88.1841 8.04 87.6241 7.64C87.0641 7.21333 86.2241 7 85.1041 7C83.5574 7 82.3707 7.34667 81.5441 8.04C80.7441 8.70667 80.2241 9.74667 79.9841 11.16L78.6641 18.44C78.4241 19.8533 78.5841 20.9067 79.1441 21.6C79.7307 22.2667 80.7974 22.6 82.3441 22.6C84.4507 22.6 85.9841 21.7333 86.9441 20C87.3174 19.36 87.6641 18.9733 87.9841 18.84C88.3041 18.68 88.7441 18.7067 89.3041 18.92L93.4641 20.52C94.5041 20.8933 94.7307 21.6133 94.1441 22.68C91.6374 27.2933 87.3307 29.6 81.2241 29.6C77.3574 29.6 74.5041 28.5467 72.6641 26.44C70.8507 24.3333 70.2374 21.5333 70.8241 18.04L72.1441 10.64ZM106.683 0.599998C107.323 0.599998 107.749 0.733332 107.963 0.999998C108.176 1.24 108.229 1.66666 108.123 2.28L104.643 22H114.243C114.883 22 115.296 22.12 115.483 22.36C115.696 22.6 115.749 23.04 115.643 23.68L115.003 27.32C114.869 27.9333 114.656 28.3733 114.363 28.64C114.096 28.88 113.643 29 113.003 29H97.1625C96.5225 29 96.0958 28.88 95.8825 28.64C95.6958 28.3733 95.6558 27.9333 95.7625 27.32L100.203 2.28C100.309 1.66666 100.496 1.24 100.763 0.999998C101.056 0.733332 101.523 0.599998 102.163 0.599998H106.683ZM125.703 18.92C125.276 21.3733 126.449 22.6 129.223 22.6C131.969 22.6 133.556 21.3733 133.983 18.92L136.943 2.28C137.049 1.66666 137.249 1.24 137.543 0.999998C137.836 0.733332 138.289 0.599998 138.903 0.599998H143.463C144.076 0.599998 144.489 0.733332 144.703 0.999998C144.916 1.24 144.969 1.66666 144.863 2.28L141.863 19.2C141.249 22.5867 139.783 25.1733 137.463 26.96C135.169 28.72 132.063 29.6 128.143 29.6C124.276 29.6 121.463 28.52 119.703 26.36C117.943 24.1733 117.369 21.3467 117.983 17.88L120.743 2.28C120.876 1.66666 121.076 1.24 121.343 0.999998C121.636 0.733332 122.103 0.599998 122.743 0.599998H127.263C127.903 0.599998 128.329 0.733332 128.543 0.999998C128.756 1.24 128.796 1.66666 128.663 2.28L125.703 18.92ZM162.398 0.559999C165.145 0.559999 167.185 1.28 168.518 2.72C169.878 4.13333 170.345 6.04 169.918 8.44C169.651 9.77333 169.211 10.8667 168.598 11.72C168.011 12.5467 167.145 13.32 165.998 14.04L165.958 14.2C168.411 15.3733 169.331 17.7733 168.718 21.4C168.265 23.9067 167.038 25.8 165.038 27.08C163.065 28.36 160.611 29 157.678 29H145.678C145.038 29 144.611 28.88 144.398 28.64C144.185 28.3733 144.145 27.9333 144.278 27.32L148.678 2.28C148.811 1.64 149.011 1.2 149.278 0.959999C149.571 0.693332 150.038 0.559999 150.678 0.559999H162.398ZM161.678 9.24C161.945 7.74667 161.251 7 159.598 7H155.758L154.998 11.4H158.838C160.465 11.4 161.411 10.68 161.678 9.24ZM160.638 20.16C160.958 18.6133 160.238 17.84 158.478 17.84H153.878L153.038 22.52H157.678C159.385 22.52 160.371 21.7333 160.638 20.16ZM195.992 0.559999C198.739 0.559999 200.779 1.28 202.112 2.72C203.472 4.13333 203.939 6.04 203.512 8.44C203.245 9.77333 202.805 10.8667 202.192 11.72C201.605 12.5467 200.739 13.32 199.592 14.04L199.552 14.2C202.005 15.3733 202.925 17.7733 202.312 21.4C201.859 23.9067 200.632 25.8 198.632 27.08C196.659 28.36 194.205 29 191.272 29H179.272C178.632 29 178.205 28.88 177.992 28.64C177.779 28.3733 177.739 27.9333 177.872 27.32L182.272 2.28C182.405 1.64 182.605 1.2 182.872 0.959999C183.165 0.693332 183.632 0.559999 184.272 0.559999H195.992ZM195.272 9.24C195.539 7.74667 194.845 7 193.192 7H189.352L188.592 11.4H192.432C194.059 11.4 195.005 10.68 195.272 9.24ZM194.232 20.16C194.552 18.6133 193.832 17.84 192.072 17.84H187.472L186.632 22.52H191.272C192.979 22.52 193.965 21.7333 194.232 20.16ZM227.36 0.599998C228 0.599998 228.427 0.733332 228.64 0.999998C228.853 1.24 228.907 1.66666 228.8 2.28L228.16 5.88C228.053 6.52 227.84 6.97333 227.52 7.24C227.227 7.48 226.773 7.6 226.16 7.6H215.6L214.96 11.16H223.4C224.04 11.16 224.453 11.2933 224.64 11.56C224.853 11.8 224.907 12.2267 224.8 12.84L224.16 16.44C224.027 17.08 223.813 17.5333 223.52 17.8C223.253 18.04 222.8 18.16 222.16 18.16H213.72L213.04 22H223.96C224.573 22 224.973 22.12 225.16 22.36C225.373 22.6 225.427 23.04 225.32 23.68L224.68 27.32C224.573 27.9333 224.373 28.3733 224.08 28.64C223.787 28.88 223.32 29 222.68 29H205.6C204.96 29 204.533 28.88 204.32 28.64C204.107 28.3733 204.067 27.9333 204.2 27.32L208.6 2.28C208.733 1.66666 208.933 1.24 209.2 0.999998C209.493 0.733332 209.96 0.599998 210.6 0.599998H227.36ZM254.676 0.599998C255.316 0.599998 255.742 0.733332 255.956 0.999998C256.169 1.24 256.222 1.66666 256.116 2.28L251.676 27.32C251.569 27.9333 251.369 28.3733 251.076 28.64C250.782 28.88 250.316 29 249.676 29H245.276C244.556 29 244.062 28.7333 243.796 28.2L239.356 18.72C238.769 17.44 238.329 16.2267 238.036 15.08C237.769 13.9067 237.516 12.3733 237.276 10.48H236.956C237.169 14.32 237.009 17.76 236.476 20.8L235.316 27.32C235.182 27.9333 234.969 28.3733 234.676 28.64C234.409 28.88 233.956 29 233.316 29H229.116C228.476 29 228.049 28.88 227.836 28.64C227.622 28.3733 227.582 27.9333 227.716 27.32L232.116 2.28C232.249 1.66666 232.449 1.24 232.716 0.999998C233.009 0.733332 233.476 0.599998 234.116 0.599998H238.676C239.449 0.599998 239.969 0.866665 240.236 1.4L244.956 11.64C245.622 13.0533 246.316 15.4933 247.036 18.96H247.356C247.062 16.64 246.902 14.9467 246.876 13.88C246.876 12.8133 247.036 11.1333 247.356 8.84L248.516 2.28C248.622 1.66666 248.809 1.24 249.076 0.999998C249.369 0.733332 249.836 0.599998 250.476 0.599998H254.676ZM278.962 0.599998C279.602 0.599998 280.028 0.733332 280.242 0.999998C280.455 1.24 280.508 1.66666 280.402 2.28L279.762 5.88C279.655 6.52 279.442 6.97333 279.122 7.24C278.828 7.48 278.375 7.6 277.762 7.6H267.202L266.562 11.16H275.002C275.642 11.16 276.055 11.2933 276.242 11.56C276.455 11.8 276.508 12.2267 276.402 12.84L275.762 16.44C275.628 17.08 275.415 17.5333 275.122 17.8C274.855 18.04 274.402 18.16 273.762 18.16H265.322L264.642 22H275.562C276.175 22 276.575 22.12 276.762 22.36C276.975 22.6 277.028 23.04 276.922 23.68L276.282 27.32C276.175 27.9333 275.975 28.3733 275.682 28.64C275.388 28.88 274.922 29 274.282 29H257.202C256.562 29 256.135 28.88 255.922 28.64C255.708 28.3733 255.668 27.9333 255.802 27.32L260.202 2.28C260.335 1.66666 260.535 1.24 260.802 0.999998C261.095 0.733332 261.562 0.599998 262.202 0.599998H278.962ZM302.477 0.599998C303.117 0.599998 303.544 0.733332 303.757 0.999998C303.971 1.24 304.024 1.66666 303.917 2.28L303.277 5.88C303.171 6.52 302.957 6.97333 302.637 7.24C302.344 7.48 301.891 7.6 301.277 7.6H290.717L289.877 12.24H298.317C298.957 12.24 299.371 12.3733 299.557 12.64C299.771 12.88 299.824 13.3067 299.717 13.92L299.077 17.52C298.971 18.16 298.771 18.6133 298.477 18.88C298.184 19.12 297.717 19.24 297.077 19.24H288.677L287.237 27.32C287.104 27.9333 286.891 28.3733 286.597 28.64C286.331 28.88 285.877 29 285.237 29H280.717C280.077 29 279.651 28.88 279.437 28.64C279.224 28.3733 279.184 27.9333 279.317 27.32L283.717 2.28C283.851 1.66666 284.051 1.24 284.317 0.999998C284.611 0.733332 285.077 0.599998 285.717 0.599998H302.477ZM306.921 2.2C307.055 1.58667 307.255 1.17333 307.521 0.959999C307.788 0.719999 308.215 0.599998 308.801 0.599998H313.521C314.135 0.599998 314.535 0.719999 314.721 0.959999C314.908 1.2 314.948 1.61333 314.841 2.2L310.401 27.4C310.295 27.9867 310.108 28.4 309.841 28.64C309.575 28.88 309.135 29 308.521 29H303.801C303.215 29 302.815 28.8933 302.601 28.68C302.415 28.44 302.375 28.0133 302.481 27.4L306.921 2.2ZM339.073 0.599998C339.713 0.599998 340.14 0.733332 340.353 0.999998C340.567 1.24 340.607 1.66666 340.473 2.28L339.833 5.88C339.727 6.52 339.527 6.97333 339.233 7.24C338.94 7.48 338.473 7.6 337.833 7.6H331.913L328.433 27.32C328.3 27.9333 328.087 28.3733 327.793 28.64C327.527 28.88 327.073 29 326.433 29H321.913C321.273 29 320.847 28.88 320.633 28.64C320.42 28.3733 320.38 27.9333 320.513 27.32L323.993 7.6H318.033C317.393 7.6 316.967 7.48 316.753 7.24C316.567 6.97333 316.527 6.52 316.633 5.88L317.273 2.28C317.407 1.66666 317.607 1.24 317.873 0.999998C318.167 0.733332 318.633 0.599998 319.273 0.599998H339.073ZM340.976 8.28C341.456 5.61333 342.803 3.57333 345.016 2.16C347.256 0.719999 350.269 -9.53674e-07 354.056 -9.53674e-07C356.909 -9.53674e-07 359.109 0.506666 360.656 1.52C362.203 2.50667 363.296 3.97333 363.936 5.92C364.123 6.50667 364.136 6.93333 363.976 7.2C363.816 7.46667 363.403 7.73333 362.736 8L358.776 9.56C358.189 9.8 357.763 9.86667 357.496 9.76C357.229 9.65333 356.989 9.30667 356.776 8.72C356.296 7.33333 355.069 6.64 353.096 6.64C350.563 6.64 349.176 7.33333 348.936 8.72C348.803 9.49333 349.136 10.04 349.936 10.36C350.736 10.68 352.016 10.9467 353.776 11.16C354.469 11.2667 355.123 11.4 355.736 11.56C356.349 11.6933 357.003 11.8933 357.696 12.16C358.416 12.4267 359.043 12.7333 359.576 13.08C360.109 13.4267 360.629 13.8667 361.136 14.4C361.643 14.9067 362.016 15.48 362.256 16.12C362.496 16.76 362.683 17.5067 362.816 18.36C362.949 19.2133 362.896 20.16 362.656 21.2C361.616 26.8 357.123 29.6 349.176 29.6C346.136 29.6 343.643 29.0667 341.696 28C339.749 26.9333 338.576 25.4 338.176 23.4C337.989 22.3333 338.483 21.6 339.656 21.2L343.656 19.84C344.296 19.6267 344.776 19.5867 345.096 19.72C345.416 19.8267 345.669 20.16 345.856 20.72C346.336 22.1333 347.709 22.84 349.976 22.84C352.829 22.84 354.403 22.08 354.696 20.56C354.829 19.84 354.523 19.32 353.776 19C353.056 18.68 351.936 18.4133 350.416 18.2C349.323 18.04 348.363 17.8667 347.536 17.68C346.709 17.4933 345.789 17.16 344.776 16.68C343.763 16.2 342.963 15.6267 342.376 14.96C341.789 14.2933 341.349 13.3867 341.056 12.24C340.763 11.0933 340.736 9.77333 340.976 8.28Z" fill="white"/>
<path d="M27.7797 2.24L27.6706 2.17882L27.6689 2.18201L27.7797 2.24ZM14.4997 27.6L14.6104 27.658L14.6104 27.658L14.4997 27.6ZM5.85968 28.72L5.78801 28.8224L5.85968 28.72ZM5.29968 27.68L5.17639 27.7011L5.17737 27.7057L5.29968 27.68ZM0.939682 2.24L1.06293 2.21888L1.06238 2.21606L0.939682 2.24ZM9.49969 2.28L9.37509 2.29038L9.37534 2.29272L9.49969 2.28ZM10.8997 15.96L10.7753 15.9727L10.7755 15.9743L10.8997 15.96ZM10.9797 20.36L11.1042 20.3731L11.1045 20.3666L10.9797 20.36ZM10.8997 21.12L10.7754 21.1069L10.7608 21.245H10.8997V21.12ZM11.2597 21.12V21.245H11.3604L11.3818 21.1466L11.2597 21.12ZM12.9397 16L12.826 15.948L12.826 15.948L12.9397 16ZM19.2197 2.28L19.106 2.22792L19.106 2.22797L19.2197 2.28ZM20.2597 0.959999L20.1984 0.851009L20.1954 0.852812L20.2597 0.959999ZM26.9797 0.724998C27.5479 0.724998 27.8287 0.862619 27.9273 1.0648C27.9779 1.16849 27.9921 1.30874 27.9524 1.49665C27.9126 1.68477 27.8206 1.91164 27.6707 2.17884L27.8887 2.30116C28.0455 2.02169 28.1501 1.77022 28.197 1.54835C28.2439 1.32626 28.2348 1.12484 28.152 0.955195C27.984 0.610712 27.5582 0.474998 26.9797 0.474998V0.724998ZM27.6689 2.18201L14.3889 27.542L14.6104 27.658L27.8904 2.29799L27.6689 2.18201ZM14.389 27.542C14.0997 28.0942 13.8067 28.4429 13.5167 28.612L13.6427 28.828C13.9927 28.6238 14.313 28.2258 14.6104 27.658L14.389 27.542ZM13.5167 28.612C13.2245 28.7825 12.7838 28.875 12.1797 28.875V29.125C12.8022 29.125 13.2948 29.0309 13.6427 28.828L13.5167 28.612ZM12.1797 28.875H7.13969V29.125H12.1797V28.875ZM7.13969 28.875C6.56071 28.875 6.166 28.7818 5.93137 28.6176L5.78801 28.8224C6.08672 29.0315 6.54532 29.125 7.13969 29.125V28.875ZM5.93137 28.6176C5.70238 28.4573 5.52582 28.1474 5.42201 27.6542L5.17737 27.7057C5.28688 28.2259 5.48367 28.6094 5.78801 28.8224L5.93137 28.6176ZM5.4229 27.6589L1.0629 2.21888L0.816483 2.26111L5.17648 27.7011L5.4229 27.6589ZM1.06238 2.21606C0.959091 1.68676 1.03043 1.32389 1.23361 1.09247C1.43863 0.858989 1.80742 0.724998 2.37968 0.724998V0.474998C1.77863 0.474998 1.32074 0.614341 1.04576 0.927524C0.768951 1.24277 0.70694 1.69991 0.817001 2.26394L1.06238 2.21606ZM2.37968 0.724998H6.85968V0.474998H2.37968V0.724998ZM6.85968 0.724998C7.81779 0.724998 8.45174 0.846344 8.7921 1.06515L8.92728 0.854851C8.52098 0.593653 7.82159 0.474998 6.85968 0.474998V0.724998ZM8.7921 1.06515C9.12 1.27594 9.3235 1.67098 9.37512 2.29038L9.62425 2.26962C9.56921 1.60902 9.34605 1.12406 8.92728 0.854851L8.7921 1.06515ZM9.37534 2.29272L10.7753 15.9727L11.024 15.9473L9.62404 2.26727L9.37534 2.29272ZM10.7755 15.9743C10.8548 16.6619 10.8947 17.4436 10.8947 18.32H11.1447C11.1447 17.4364 11.1045 16.6448 11.0239 15.9457L10.7755 15.9743ZM10.8947 18.32C10.8947 19.1724 10.8814 19.8499 10.8549 20.3534L11.1045 20.3666C11.1313 19.8567 11.1447 19.1743 11.1447 18.32H10.8947ZM10.8554 20.3469L10.7754 21.1069L11.024 21.1331L11.104 20.3731L10.8554 20.3469ZM10.8997 21.245H11.2597V20.995H10.8997V21.245ZM11.3818 21.1466C11.7801 19.3146 12.3374 17.6165 13.0533 16.052L12.826 15.948C12.102 17.5302 11.5393 19.2454 11.1375 21.0934L11.3818 21.1466ZM13.0533 16.052L19.3333 2.33202L19.106 2.22797L12.826 15.948L13.0533 16.052ZM19.3333 2.33208C19.6212 1.70405 19.9541 1.28915 20.324 1.06719L20.1954 0.852812C19.7653 1.11084 19.4049 1.57595 19.106 2.22792L19.3333 2.33208ZM20.321 1.06895C20.7183 0.845467 21.3842 0.724998 22.3397 0.724998V0.474998C21.3752 0.474998 20.6544 0.594531 20.1984 0.851052L20.321 1.06895ZM22.3397 0.724998H26.9797V0.474998H22.3397V0.724998ZM30.0072 2.2L29.8849 2.17342L29.8841 2.17831L30.0072 2.2ZM30.6072 0.959999L30.6854 1.05777L30.6908 1.05291L30.6072 0.959999ZM37.9272 2.2L37.8042 2.17764L37.8041 2.17831L37.9272 2.2ZM33.4872 27.4L33.6102 27.4224L33.6103 27.4217L33.4872 27.4ZM25.6872 28.68L25.5885 28.7567L25.5933 28.7629L25.5988 28.7684L25.6872 28.68ZM25.5672 27.4L25.4441 27.3783L25.444 27.3786L25.5672 27.4ZM30.1293 2.22655C30.2611 1.6206 30.4533 1.2432 30.6853 1.05761L30.5291 0.86239C30.2278 1.10347 30.02 1.55273 29.885 2.17345L30.1293 2.22655ZM30.6908 1.05291C30.9238 0.843245 31.313 0.724998 31.8872 0.724998V0.474998C31.2881 0.474998 30.8239 0.596752 30.5236 0.867087L30.6908 1.05291ZM31.8872 0.724998H36.6072V0.474998H31.8872V0.724998ZM36.6072 0.724998C36.9068 0.724998 37.147 0.754443 37.3313 0.809727C37.5155 0.864986 37.6361 0.943628 37.7085 1.03674L37.9059 0.883256C37.7916 0.73637 37.6189 0.63501 37.4031 0.57027C37.1874 0.505554 36.9209 0.474998 36.6072 0.474998V0.724998ZM37.7085 1.03674C37.8599 1.23131 37.9099 1.596 37.8042 2.17764L38.0502 2.22236C38.1577 1.63067 38.1279 1.16868 37.9059 0.883256L37.7085 1.03674ZM37.8041 2.17831L33.3641 27.3783L33.6103 27.4217L38.0503 2.22169L37.8041 2.17831ZM33.3642 27.3776C33.2595 27.9536 33.08 28.3343 32.8436 28.5471L33.0108 28.7329C33.3077 28.4657 33.5016 28.0198 33.6102 27.4224L33.3642 27.3776ZM32.8436 28.5471C32.6114 28.7561 32.2098 28.875 31.6072 28.875V29.125C32.2312 29.125 32.7097 29.004 33.0108 28.7329L32.8436 28.5471ZM31.6072 28.875H26.8872V29.125H31.6072V28.875ZM26.8872 28.875C26.3061 28.875 25.9514 28.7674 25.7756 28.5916L25.5988 28.7684C25.8497 29.0193 26.2949 29.125 26.8872 29.125V28.875ZM25.7859 28.6033C25.712 28.5083 25.6603 28.3672 25.6416 28.1683C25.623 27.9698 25.6381 27.7216 25.6903 27.4214L25.444 27.3786C25.3896 27.6917 25.3714 27.9636 25.3927 28.1917C25.4141 28.4194 25.4757 28.6117 25.5885 28.7567L25.7859 28.6033ZM25.6903 27.4217L30.1303 2.22169L29.8841 2.17831L25.4441 27.3783L25.6903 27.4217ZM61.9594 3.52L61.8608 3.59693L61.8614 3.59759L61.9594 3.52ZM63.4394 11.2L63.5626 11.2212L63.5627 11.2205L63.4394 11.2ZM59.4794 18.16L59.4054 18.0592L59.4048 18.0597L59.4794 18.16ZM46.6794 20.48V20.355H46.5744L46.5562 20.4584L46.6794 20.48ZM45.4794 27.32L45.6016 27.3466L45.6025 27.3416L45.4794 27.32ZM44.8394 28.64L44.923 28.7329L44.9235 28.7325L44.8394 28.64ZM37.6794 28.64L37.5816 28.7182L37.5859 28.723L37.6794 28.64ZM37.5594 27.32L37.6816 27.3466L37.6825 27.3416L37.5594 27.32ZM41.9594 2.28L41.8371 2.25342L41.8363 2.25836L41.9594 2.28ZM42.5594 0.999998L42.643 1.09291L42.6435 1.09249L42.5594 0.999998ZM54.1594 12.68L54.0793 12.584L54.0774 12.5857L54.1594 12.68ZM55.3594 10.56L55.4824 10.5824L55.4825 10.5817L55.3594 10.56ZM54.9194 8.4L54.8217 8.47812L54.8241 8.48095L54.9194 8.4ZM48.9594 7.6V7.475H48.8546L48.8363 7.57823L48.9594 7.6ZM47.9194 13.48L47.7963 13.4582L47.7703 13.605H47.9194V13.48ZM54.9994 0.724998C58.092 0.724998 60.3706 1.6884 61.8608 3.59693L62.0579 3.44307C60.5081 1.45826 58.1468 0.474998 54.9994 0.474998V0.724998ZM61.8614 3.59759C63.353 5.48169 63.8456 8.00237 63.3161 11.1794L63.5627 11.2205C64.0998 7.99763 63.6058 5.39831 62.0574 3.44241L61.8614 3.59759ZM63.3162 11.1788C62.7872 14.247 61.4809 16.5355 59.4054 18.0592L59.5533 18.2608C61.6912 16.6912 63.0249 14.3396 63.5626 11.2212L63.3162 11.1788ZM59.4048 18.0597C57.351 19.5869 54.7389 20.355 51.5594 20.355V20.605C54.7798 20.605 57.4478 19.8265 59.554 18.2603L59.4048 18.0597ZM51.5594 20.355H46.6794V20.605H51.5594V20.355ZM46.5562 20.4584L45.3563 27.2984L45.6025 27.3416L46.8025 20.5016L46.5562 20.4584ZM45.3572 27.2934C45.2264 27.8951 45.0211 28.3058 44.7553 28.5475L44.9235 28.7325C45.2443 28.4408 45.4656 27.9716 45.6015 27.3466L45.3572 27.2934ZM44.7558 28.5471C44.5243 28.7554 44.1104 28.875 43.4794 28.875V29.125C44.1284 29.125 44.6211 29.0046 44.923 28.7329L44.7558 28.5471ZM43.4794 28.875H38.9594V29.125H43.4794V28.875ZM38.9594 28.875C38.3237 28.875 37.9475 28.7535 37.7728 28.557L37.5859 28.723C37.838 29.0065 38.315 29.125 38.9594 29.125V28.875ZM37.777 28.5619C37.6009 28.3418 37.5499 27.9519 37.6815 27.3466L37.4372 27.2934C37.3022 27.9148 37.3312 28.4049 37.5818 28.7181L37.777 28.5619ZM37.6825 27.3416L42.0825 2.30163L41.8363 2.25836L37.4362 27.2984L37.6825 27.3416ZM42.0815 2.30655C42.213 1.70181 42.4057 1.30651 42.643 1.09291L42.4758 0.907086C42.1797 1.17348 41.9724 1.63152 41.8372 2.25344L42.0815 2.30655ZM42.6435 1.09249C42.9032 0.856342 43.3324 0.724998 43.9594 0.724998V0.474998C43.3063 0.474998 42.8022 0.610321 42.4753 0.907506L42.6435 1.09249ZM43.9594 0.724998H54.9994V0.474998H43.9594V0.724998ZM51.8394 13.605C52.7981 13.605 53.602 13.3303 54.2414 12.7743L54.0774 12.5857C53.4901 13.0963 52.7473 13.355 51.8394 13.355V13.605ZM54.2394 12.776C54.9036 12.2225 55.3175 11.4889 55.4824 10.5824L55.2364 10.5376C55.0812 11.3911 54.6951 12.0708 54.0793 12.584L54.2394 12.776ZM55.4825 10.5817C55.6468 9.65077 55.4992 8.8891 55.0146 8.31904L54.8241 8.48095C55.2462 8.97756 55.392 9.6559 55.2363 10.5383L55.4825 10.5817ZM55.017 8.32191C54.5587 7.74904 53.8359 7.475 52.8794 7.475V7.725C53.7895 7.725 54.4267 7.98429 54.8218 8.47809L55.017 8.32191ZM52.8794 7.475H48.9594V7.725H52.8794V7.475ZM48.8363 7.57823L47.7963 13.4582L48.0424 13.5018L49.0825 7.62177L48.8363 7.57823ZM47.9194 13.605H51.8394V13.355H47.9194V13.605ZM72.1441 10.64L72.2671 10.662L72.2673 10.661L72.1441 10.64ZM76.6641 2.76L76.7389 2.86013L76.7391 2.86L76.6641 2.76ZM96.2241 7.12L96.1011 7.1428L96.1022 7.1477L96.2241 7.12ZM96.1041 8.52L95.9976 8.45447L95.9961 8.45702L96.1041 8.52ZM94.8641 9.28L94.829 9.15988L94.8239 9.16164L94.8641 9.28ZM90.744 10.68L90.7791 10.8001L90.7843 10.7984L90.744 10.68ZM89.3441 10.76L89.2798 10.8672L89.2859 10.8708L89.2923 10.8738L89.3441 10.76ZM88.744 9.6L88.6216 9.62521L88.6219 9.62655L88.744 9.6ZM87.6241 7.64L87.5483 7.73947L87.5514 7.74172L87.6241 7.64ZM81.5441 8.04L81.6241 8.13603L81.6244 8.13577L81.5441 8.04ZM79.9841 11.16L80.1071 11.1823L80.1073 11.1809L79.9841 11.16ZM78.6641 18.44L78.541 18.4177L78.5408 18.4191L78.6641 18.44ZM79.1441 21.6L79.0467 21.6786L79.0502 21.6826L79.1441 21.6ZM86.9441 20L86.8361 19.937L86.8347 19.9394L86.9441 20ZM87.9841 18.84L88.0323 18.9557L88.04 18.9518L87.9841 18.84ZM89.3041 18.92L89.3489 18.8033L89.3486 18.8032L89.3041 18.92ZM93.4641 20.52L93.4192 20.6367L93.4218 20.6376L93.4641 20.52ZM94.1441 22.68L94.0345 22.6198L94.0342 22.6203L94.1441 22.68ZM72.6641 26.44L72.5693 26.5215L72.5699 26.5222L72.6641 26.44ZM70.8241 18.04L70.701 18.018L70.7008 18.0193L70.8241 18.04ZM72.2673 10.661C72.8494 7.24745 74.3418 4.65135 76.7389 2.86013L76.5892 2.65987C74.133 4.49531 72.612 7.15255 72.0208 10.619L72.2673 10.661ZM76.7391 2.86C79.1653 1.04036 82.3366 0.124999 86.2641 0.124999V-0.125001C82.2982 -0.125001 79.0695 0.799643 76.5891 2.66L76.7391 2.86ZM86.2641 0.124999C89.1284 0.124999 91.3697 0.715268 93.0014 1.88169C94.6303 3.04616 95.6659 4.79504 96.1012 7.14278L96.347 7.09721C95.9022 4.69829 94.8378 2.88717 93.1468 1.67831C91.4584 0.471396 89.1598 -0.125001 86.2641 -0.125001V0.124999ZM96.1022 7.1477C96.2317 7.71758 96.1871 8.14655 95.9976 8.45449L96.2105 8.58551C96.4477 8.20011 96.4831 7.69575 96.3459 7.0923L96.1022 7.1477ZM95.9961 8.45702C95.8343 8.73433 95.4606 8.9758 94.8291 9.16L94.8991 9.4C95.5475 9.21087 96.0005 8.94567 96.212 8.58298L95.9961 8.45702ZM94.8239 9.16164L90.7039 10.5616L90.7843 10.7984L94.9043 9.39835L94.8239 9.16164ZM90.7091 10.56C90.0721 10.7458 89.6447 10.7594 89.3958 10.6462L89.2923 10.8738C89.63 11.0273 90.136 10.9876 90.7791 10.8L90.7091 10.56ZM89.4084 10.6528C89.19 10.5218 88.9987 10.183 88.8662 9.57345L88.6219 9.62655C88.7561 10.2437 88.9648 10.6782 89.2798 10.8672L89.4084 10.6528ZM88.8665 9.57479C88.6757 8.6481 88.2901 7.96215 87.6967 7.53828L87.5514 7.74172C88.078 8.11784 88.4391 8.73856 88.6216 9.62521L88.8665 9.57479ZM87.6998 7.54057C87.1085 7.09007 86.2364 6.875 85.1041 6.875V7.125C86.2117 7.125 87.0196 7.3366 87.5483 7.73943L87.6998 7.54057ZM85.1041 6.875C83.5405 6.875 82.3209 7.2253 81.4637 7.94422L81.6244 8.13577C82.4205 7.46803 83.5743 7.125 85.1041 7.125V6.875ZM81.4641 7.94397C80.6338 8.63584 80.1039 9.7074 79.8608 11.1391L80.1073 11.1809C80.3442 9.78593 80.8543 8.77749 81.6241 8.13603L81.4641 7.94397ZM79.8611 11.1377L78.5411 18.4177L78.787 18.4623L80.1071 11.1823L79.8611 11.1377ZM78.5408 18.4191C78.2984 19.8467 78.4537 20.9442 79.0468 21.6785L79.2413 21.5215C78.7144 20.8692 78.5497 19.86 78.7873 18.4609L78.5408 18.4191ZM79.0502 21.6826C79.6733 22.3906 80.7867 22.725 82.3441 22.725V22.475C80.8081 22.475 79.7881 22.1427 79.2379 21.5174L79.0502 21.6826ZM82.3441 22.725C83.4147 22.725 84.3468 22.5047 85.1356 22.0588C85.9248 21.6128 86.5637 20.9448 87.0534 20.0606L86.8347 19.9394C86.3645 20.7885 85.7567 21.4206 85.0125 21.8412C84.268 22.262 83.3801 22.475 82.3441 22.475V22.725ZM87.052 20.063C87.4243 19.4248 87.7534 19.0715 88.0321 18.9554L87.936 18.7246C87.5748 18.8751 87.2105 19.2952 86.8361 19.937L87.052 20.063ZM88.04 18.9518C88.313 18.8153 88.7112 18.8279 89.2596 19.0368L89.3486 18.8032C88.777 18.5854 88.2951 18.5447 87.9282 18.7282L88.04 18.9518ZM89.2592 19.0367L93.4192 20.6367L93.5089 20.4033L89.3489 18.8033L89.2592 19.0367ZM93.4218 20.6376C93.9229 20.8175 94.1979 21.0698 94.2948 21.3775C94.3931 21.6898 94.3212 22.0986 94.0345 22.6198L94.2536 22.7402C94.5536 22.1947 94.6617 21.7102 94.5333 21.3025C94.4035 20.8902 94.0453 20.5958 93.5063 20.4023L93.4218 20.6376ZM94.0342 22.6203C91.5534 27.1861 87.2939 29.475 81.2241 29.475V29.725C87.3675 29.725 91.7214 27.4006 94.2539 22.7397L94.0342 22.6203ZM81.2241 29.475C77.3791 29.475 74.5664 28.428 72.7582 26.3578L72.5699 26.5222C74.4417 28.6653 77.3357 29.725 81.2241 29.725V29.475ZM72.7588 26.3585C70.9761 24.2873 70.365 21.5283 70.9473 18.0607L70.7008 18.0193C70.1098 21.5384 70.7254 24.3793 72.5693 26.5215L72.7588 26.3585ZM70.9471 18.062L72.2671 10.662L72.021 10.618L70.701 18.018L70.9471 18.062ZM107.962 0.999998L107.865 1.07819L107.869 1.08304L107.962 0.999998ZM108.122 2.28L108.246 2.30172L108.246 2.30142L108.122 2.28ZM104.642 22L104.519 21.9783L104.493 22.125H104.642V22ZM115.483 22.36L115.384 22.4369L115.389 22.443L115.483 22.36ZM115.642 23.68L115.766 23.7016L115.766 23.7006L115.642 23.68ZM115.003 27.32L115.125 27.3466L115.126 27.3416L115.003 27.32ZM114.362 28.64L114.446 28.7329L114.447 28.7325L114.362 28.64ZM95.8825 28.64L95.7801 28.7117L95.7842 28.7176L95.7891 28.723L95.8825 28.64ZM95.7625 27.32L95.6394 27.2982L95.6393 27.2986L95.7625 27.32ZM100.203 2.28L100.326 2.30182L100.326 2.30142L100.203 2.28ZM100.763 0.999998L100.846 1.09291L100.847 1.09249L100.763 0.999998ZM106.682 0.724998C107.315 0.724998 107.689 0.858796 107.865 1.07808L108.06 0.921911C107.809 0.607867 107.33 0.474998 106.682 0.474998V0.724998ZM107.869 1.08304C108.041 1.27686 108.105 1.65061 107.999 2.25858L108.246 2.30142C108.353 1.68272 108.31 1.20314 108.056 0.916953L107.869 1.08304ZM107.999 2.25828L104.519 21.9783L104.766 22.0217L108.246 2.30172L107.999 2.25828ZM104.642 22.125H114.242V21.875H104.642V22.125ZM114.242 22.125C114.556 22.125 114.806 22.1545 114.998 22.21C115.189 22.2657 115.312 22.3446 115.384 22.4367L115.581 22.2833C115.466 22.1354 115.289 22.0343 115.067 21.97C114.845 21.9055 114.569 21.875 114.242 21.875V22.125ZM115.389 22.443C115.474 22.538 115.534 22.681 115.558 22.885C115.583 23.0891 115.571 23.3463 115.519 23.6595L115.766 23.7006C115.82 23.3737 115.835 23.0909 115.807 22.855C115.778 22.619 115.705 22.422 115.576 22.277L115.389 22.443ZM115.519 23.6584L114.879 27.2984L115.126 27.3416L115.766 23.7016L115.519 23.6584ZM114.88 27.2934C114.75 27.8951 114.544 28.3058 114.278 28.5475L114.447 28.7325C114.767 28.4408 114.989 27.9716 115.125 27.3466L114.88 27.2934ZM114.279 28.5471C114.047 28.7554 113.633 28.875 113.003 28.875V29.125C113.652 29.125 114.144 29.0046 114.446 28.7329L114.279 28.5471ZM113.003 28.875H97.1625V29.125H113.003V28.875ZM97.1625 28.875C96.5268 28.875 96.1506 28.7535 95.9759 28.557L95.7891 28.723C96.0411 29.0065 96.5182 29.125 97.1625 29.125V28.875ZM95.9849 28.5683C95.8284 28.3447 95.7801 27.9485 95.8857 27.3414L95.6393 27.2986C95.5316 27.9181 95.5633 28.402 95.7801 28.7117L95.9849 28.5683ZM95.8856 27.3418L100.326 2.30182L100.079 2.25817L95.6394 27.2982L95.8856 27.3418ZM100.326 2.30142C100.431 1.69743 100.611 1.30473 100.846 1.09291L100.679 0.907086C100.381 1.17527 100.188 1.6359 100.079 2.25858L100.326 2.30142ZM100.847 1.09249C101.106 0.856342 101.536 0.724998 102.163 0.724998V0.474998C101.509 0.474998 101.005 0.610321 100.678 0.907506L100.847 1.09249ZM102.163 0.724998H106.682V0.474998H102.163V0.724998ZM125.703 18.92L125.58 18.8981L125.58 18.8986L125.703 18.92ZM133.983 18.92L133.86 18.8981L133.86 18.8986L133.983 18.92ZM136.943 2.28L137.066 2.30189L137.066 2.30142L136.943 2.28ZM137.543 0.999998L137.622 1.09687L137.627 1.09249L137.543 0.999998ZM144.703 0.999998L144.605 1.07819L144.609 1.08304L144.703 0.999998ZM144.863 2.28L144.986 2.30182L144.986 2.30142L144.863 2.28ZM141.863 19.2L141.986 19.2223L141.986 19.2218L141.863 19.2ZM137.463 26.96L137.539 27.0592L137.539 27.059L137.463 26.96ZM119.703 26.36L119.605 26.4384L119.606 26.439L119.703 26.36ZM117.983 17.88L117.86 17.8582L117.983 17.88ZM120.743 2.28L120.621 2.25342L120.62 2.25822L120.743 2.28ZM121.343 0.999998L121.426 1.09291L121.427 1.09249L121.343 0.999998ZM128.543 0.999998L128.445 1.07819L128.449 1.08304L128.543 0.999998ZM128.663 2.28L128.541 2.25343L128.54 2.25811L128.663 2.28ZM125.58 18.8986C125.363 20.1452 125.547 21.1128 126.172 21.7664C126.794 22.4162 127.823 22.725 129.223 22.725V22.475C127.849 22.475 126.905 22.1705 126.353 21.5936C125.805 21.0206 125.616 20.1481 125.826 18.9414L125.58 18.8986ZM129.223 22.725C130.614 22.725 131.727 22.4144 132.549 21.7789C133.373 21.1421 133.889 20.1911 134.106 18.9414L133.86 18.8986C133.65 20.1023 133.159 20.9912 132.396 21.5811C131.632 22.1722 130.579 22.475 129.223 22.475V22.725ZM134.106 18.9419L137.066 2.30189L136.82 2.25811L133.86 18.8981L134.106 18.9419ZM137.066 2.30142C137.171 1.69994 137.363 1.30881 137.622 1.09674L137.464 0.903253C137.136 1.17119 136.928 1.63339 136.82 2.25858L137.066 2.30142ZM137.627 1.09249C137.887 0.855623 138.304 0.724998 138.903 0.724998V0.474998C138.275 0.474998 137.785 0.611041 137.459 0.907506L137.627 1.09249ZM138.903 0.724998H143.463V0.474998H138.903V0.724998ZM143.463 0.724998C144.067 0.724998 144.429 0.857872 144.605 1.07808L144.8 0.921911C144.55 0.608791 144.086 0.474998 143.463 0.474998V0.724998ZM144.609 1.08304C144.782 1.27686 144.845 1.65061 144.74 2.25858L144.986 2.30142C145.094 1.68272 145.051 1.20314 144.796 0.916953L144.609 1.08304ZM144.74 2.25818L141.74 19.1782L141.986 19.2218L144.986 2.30182L144.74 2.25818ZM141.74 19.1777C141.131 22.5396 139.678 25.0965 137.387 26.861L137.539 27.059C139.888 25.2502 141.368 22.6338 141.986 19.2223L141.74 19.1777ZM137.387 26.8608C135.122 28.599 132.045 29.475 128.143 29.475V29.725C132.081 29.725 135.217 28.841 137.539 27.0592L137.387 26.8608ZM128.143 29.475C124.298 29.475 121.528 28.4018 119.8 26.281L119.606 26.439C121.398 28.6382 124.254 29.725 128.143 29.725V29.475ZM119.8 26.2816C118.068 24.1299 117.497 21.3427 118.106 17.9018L117.86 17.8582C117.242 21.3507 117.817 24.2167 119.605 26.4384L119.8 26.2816ZM118.106 17.9018L120.866 2.30178L120.62 2.25822L117.86 17.8582L118.106 17.9018ZM120.865 2.30655C120.996 1.70181 121.189 1.30651 121.426 1.09291L121.259 0.907086C120.963 1.17348 120.756 1.63152 120.621 2.25344L120.865 2.30655ZM121.427 1.09249C121.687 0.856342 122.116 0.724998 122.743 0.724998V0.474998C122.09 0.474998 121.586 0.610321 121.259 0.907506L121.427 1.09249ZM122.743 0.724998H127.263V0.474998H122.743V0.724998ZM127.263 0.724998C127.896 0.724998 128.27 0.858796 128.445 1.07808L128.64 0.921911C128.389 0.607867 127.91 0.474998 127.263 0.474998V0.724998ZM128.449 1.08304C128.619 1.27418 128.673 1.64477 128.541 2.25344L128.785 2.30655C128.919 1.68856 128.893 1.20582 128.636 0.916953L128.449 1.08304ZM128.54 2.25811L125.58 18.8981L125.826 18.9419L128.786 2.30189L128.54 2.25811ZM168.518 2.72L168.426 2.80494L168.428 2.80667L168.518 2.72ZM169.918 8.44L170.041 8.46452L170.041 8.46188L169.918 8.44ZM168.598 11.72L168.497 11.647L168.496 11.6477L168.598 11.72ZM165.998 14.04L165.932 13.9341L165.889 13.9609L165.877 14.0097L165.998 14.04ZM165.958 14.2L165.837 14.1697L165.812 14.2687L165.904 14.3128L165.958 14.2ZM168.718 21.4L168.841 21.4222L168.841 21.4208L168.718 21.4ZM165.038 27.08L164.971 26.9747L164.97 26.9751L165.038 27.08ZM144.398 28.64L144.3 28.7182L144.305 28.723L144.398 28.64ZM144.278 27.32L144.4 27.3466L144.401 27.3416L144.278 27.32ZM148.678 2.28L148.556 2.25449L148.555 2.25836L148.678 2.28ZM149.278 0.959999L149.362 1.05291L149.362 1.05249L149.278 0.959999ZM161.678 9.24L161.801 9.26276L161.801 9.26197L161.678 9.24ZM155.758 7V6.875H155.653L155.635 6.97872L155.758 7ZM154.998 11.4L154.875 11.3787L154.85 11.525H154.998V11.4ZM160.638 20.16L160.516 20.1347L160.515 20.1391L160.638 20.16ZM153.878 17.84V17.715H153.774L153.755 17.8179L153.878 17.84ZM153.038 22.52L152.915 22.4979L152.889 22.645H153.038V22.52ZM162.398 0.684999C165.124 0.684999 167.125 1.39935 168.426 2.80493L168.61 2.63507C167.245 1.16064 165.165 0.434999 162.398 0.434999V0.684999ZM168.428 2.80667C169.754 4.18417 170.217 6.04681 169.795 8.41812L170.041 8.46188C170.473 6.03319 170.003 4.0825 168.608 2.63333L168.428 2.80667ZM169.796 8.41549C169.531 9.73628 169.097 10.8118 168.497 11.647L168.7 11.793C169.326 10.9216 169.772 9.81038 170.041 8.46451L169.796 8.41549ZM168.496 11.6477C167.922 12.4573 167.069 13.2201 165.932 13.9341L166.065 14.1459C167.221 13.4199 168.101 12.6361 168.7 11.7923L168.496 11.6477ZM165.877 14.0097L165.837 14.1697L166.079 14.2303L166.119 14.0703L165.877 14.0097ZM165.904 14.3128C167.104 14.8865 167.924 15.7565 168.371 16.9247C168.821 18.0967 168.899 19.5789 168.595 21.3792L168.841 21.4208C169.15 19.5944 169.076 18.0633 168.605 16.8353C168.133 15.6035 167.266 14.6868 166.012 14.0872L165.904 14.3128ZM168.595 21.3778C168.147 23.853 166.939 25.7149 164.971 26.9747L165.105 27.1853C167.137 25.8851 168.382 23.9603 168.841 21.4222L168.595 21.3778ZM164.97 26.9751C163.022 28.2391 160.593 28.875 157.678 28.875V29.125C160.63 29.125 163.108 28.4809 165.106 27.1849L164.97 26.9751ZM157.678 28.875H145.678V29.125H157.678V28.875ZM145.678 28.875C145.042 28.875 144.666 28.7535 144.492 28.557L144.305 28.723C144.557 29.0065 145.034 29.125 145.678 29.125V28.875ZM144.496 28.5619C144.32 28.3418 144.269 27.9519 144.4 27.3466L144.156 27.2934C144.021 27.9148 144.05 28.4049 144.301 28.7181L144.496 28.5619ZM144.401 27.3416L148.801 2.30163L148.555 2.25836L144.155 27.2984L144.401 27.3416ZM148.801 2.30549C148.932 1.67285 149.125 1.26561 149.362 1.05291L149.195 0.867087C148.898 1.13438 148.691 1.60715 148.556 2.2545L148.801 2.30549ZM149.362 1.05249C149.622 0.816343 150.051 0.684999 150.678 0.684999V0.434999C150.025 0.434999 149.521 0.570322 149.194 0.867506L149.362 1.05249ZM150.678 0.684999H162.398V0.434999H150.678V0.684999ZM161.801 9.26197C161.938 8.49629 161.834 7.88903 161.45 7.47494C161.068 7.06404 160.439 6.875 159.598 6.875V7.125C160.411 7.125 160.955 7.30929 161.267 7.64506C161.575 7.97763 161.685 8.49038 161.555 9.21803L161.801 9.26197ZM159.598 6.875H155.758V7.125H159.598V6.875ZM155.635 6.97872L154.875 11.3787L155.121 11.4213L155.881 7.02128L155.635 6.97872ZM154.998 11.525H158.838V11.275H154.998V11.525ZM158.838 11.525C159.669 11.525 160.342 11.3412 160.844 10.9595C161.347 10.5766 161.663 10.0059 161.801 9.26276L161.555 9.21724C161.426 9.91407 161.136 10.4234 160.692 10.7605C160.248 11.0988 159.634 11.275 158.838 11.275V11.525ZM160.761 20.1853C160.924 19.3929 160.829 18.7637 160.43 18.3348C160.034 17.9102 159.371 17.715 158.478 17.715V17.965C159.346 17.965 159.922 18.1565 160.247 18.5052C160.567 18.8496 160.672 19.3804 160.516 20.1347L160.761 20.1853ZM158.478 17.715H153.878V17.965H158.478V17.715ZM153.755 17.8179L152.915 22.4979L153.161 22.5421L154.001 17.8621L153.755 17.8179ZM153.038 22.645H157.678V22.395H153.038V22.645ZM157.678 22.645C158.55 22.645 159.254 22.4441 159.776 22.0277C160.299 21.6106 160.624 20.9896 160.761 20.1809L160.515 20.1391C160.385 20.9038 160.084 21.4628 159.62 21.8323C159.156 22.2026 158.513 22.395 157.678 22.395V22.645ZM202.112 2.72L202.02 2.80494L202.022 2.80667L202.112 2.72ZM203.512 8.44L203.634 8.46452L203.635 8.46188L203.512 8.44ZM202.192 11.72L202.09 11.647L202.09 11.6477L202.192 11.72ZM199.592 14.04L199.525 13.9341L199.483 13.9609L199.471 14.0097L199.592 14.04ZM199.552 14.2L199.431 14.1697L199.406 14.2687L199.498 14.3128L199.552 14.2ZM202.312 21.4L202.435 21.4222L202.435 21.4208L202.312 21.4ZM198.632 27.08L198.564 26.9747L198.564 26.9751L198.632 27.08ZM177.992 28.64L177.894 28.7182L177.898 28.723L177.992 28.64ZM177.872 27.32L177.994 27.3466L177.995 27.3416L177.872 27.32ZM182.272 2.28L182.149 2.25449L182.149 2.25836L182.272 2.28ZM182.872 0.959999L182.956 1.05291L182.956 1.05249L182.872 0.959999ZM195.272 9.24L195.395 9.26276L195.395 9.26197L195.272 9.24ZM189.352 7V6.875H189.247L189.229 6.97872L189.352 7ZM188.592 11.4L188.469 11.3787L188.443 11.525H188.592V11.4ZM194.232 20.16L194.109 20.1347L194.109 20.1391L194.232 20.16ZM187.472 17.84V17.715H187.367L187.349 17.8179L187.472 17.84ZM186.632 22.52L186.509 22.4979L186.482 22.645H186.632V22.52ZM195.992 0.684999C198.718 0.684999 200.719 1.39935 202.02 2.80493L202.204 2.63507C200.838 1.16064 198.759 0.434999 195.992 0.434999V0.684999ZM202.022 2.80667C203.347 4.18417 203.81 6.04681 203.389 8.41812L203.635 8.46188C204.067 6.03319 203.596 4.0825 202.202 2.63333L202.022 2.80667ZM203.389 8.41549C203.125 9.73628 202.691 10.8118 202.09 11.647L202.293 11.793C202.92 10.9216 203.365 9.81038 203.634 8.46451L203.389 8.41549ZM202.09 11.6477C201.515 12.4573 200.663 13.2201 199.525 13.9341L199.658 14.1459C200.815 13.4199 201.695 12.6361 202.294 11.7923L202.09 11.6477ZM199.471 14.0097L199.431 14.1697L199.673 14.2303L199.713 14.0703L199.471 14.0097ZM199.498 14.3128C200.698 14.8865 201.517 15.7565 201.965 16.9247C202.414 18.0967 202.493 19.5789 202.189 21.3792L202.435 21.4208C202.744 19.5944 202.669 18.0633 202.199 16.8353C201.726 15.6035 200.859 14.6868 199.606 14.0872L199.498 14.3128ZM202.189 21.3778C201.741 23.853 200.533 25.7149 198.564 26.9747L198.699 27.1853C200.731 25.8851 201.976 23.9603 202.435 21.4222L202.189 21.3778ZM198.564 26.9751C196.615 28.2391 194.187 28.875 191.272 28.875V29.125C194.223 29.125 196.702 28.4809 198.7 27.1849L198.564 26.9751ZM191.272 28.875H179.272V29.125H191.272V28.875ZM179.272 28.875C178.636 28.875 178.26 28.7535 178.085 28.557L177.898 28.723C178.15 29.0065 178.628 29.125 179.272 29.125V28.875ZM178.089 28.5619C177.913 28.3418 177.862 27.9519 177.994 27.3466L177.75 27.2934C177.615 27.9148 177.644 28.4049 177.894 28.7181L178.089 28.5619ZM177.995 27.3416L182.395 2.30163L182.149 2.25836L177.749 27.2984L177.995 27.3416ZM182.394 2.30549C182.526 1.67285 182.719 1.26561 182.956 1.05291L182.788 0.867087C182.491 1.13438 182.284 1.60715 182.15 2.2545L182.394 2.30549ZM182.956 1.05249C183.216 0.816343 183.645 0.684999 184.272 0.684999V0.434999C183.619 0.434999 183.115 0.570322 182.788 0.867506L182.956 1.05249ZM184.272 0.684999H195.992V0.434999H184.272V0.684999ZM195.395 9.26197C195.532 8.49629 195.428 7.88903 195.043 7.47494C194.662 7.06404 194.032 6.875 193.192 6.875V7.125C194.005 7.125 194.548 7.30929 194.86 7.64506C195.169 7.97763 195.279 8.49038 195.149 9.21803L195.395 9.26197ZM193.192 6.875H189.352V7.125H193.192V6.875ZM189.229 6.97872L188.469 11.3787L188.715 11.4213L189.475 7.02128L189.229 6.97872ZM188.592 11.525H192.432V11.275H188.592V11.525ZM192.432 11.525C193.263 11.525 193.936 11.3412 194.438 10.9595C194.941 10.5766 195.257 10.0059 195.395 9.26276L195.149 9.21724C195.02 9.91407 194.729 10.4234 194.286 10.7605C193.841 11.0988 193.228 11.275 192.432 11.275V11.525ZM194.354 20.1853C194.518 19.3929 194.423 18.7637 194.023 18.3348C193.628 17.9102 192.964 17.715 192.072 17.715V17.965C192.939 17.965 193.516 18.1565 193.84 18.5052C194.161 18.8496 194.266 19.3804 194.109 20.1347L194.354 20.1853ZM192.072 17.715H187.472V17.965H192.072V17.715ZM187.349 17.8179L186.509 22.4979L186.755 22.5421L187.595 17.8621L187.349 17.8179ZM186.632 22.645H191.272V22.395H186.632V22.645ZM191.272 22.645C192.144 22.645 192.848 22.4441 193.37 22.0277C193.893 21.6106 194.218 20.9896 194.355 20.1809L194.109 20.1391C193.979 20.9038 193.677 21.4628 193.214 21.8323C192.749 22.2026 192.107 22.395 191.272 22.395V22.645ZM228.64 0.999998L228.542 1.07819L228.547 1.08304L228.64 0.999998ZM228.8 2.28L228.923 2.30188L228.923 2.30142L228.8 2.28ZM228.16 5.88L228.037 5.85812L228.037 5.85945L228.16 5.88ZM227.52 7.24L227.599 7.33675L227.6 7.33603L227.52 7.24ZM215.6 7.6V7.475H215.495L215.477 7.57788L215.6 7.6ZM214.96 11.16L214.837 11.1379L214.811 11.285H214.96V11.16ZM224.64 11.56L224.538 11.6317L224.542 11.6376L224.547 11.643L224.64 11.56ZM224.8 12.84L224.923 12.8619L224.923 12.8614L224.8 12.84ZM224.16 16.44L224.282 16.4655L224.283 16.4619L224.16 16.44ZM223.52 17.8L223.604 17.8929L223.604 17.8925L223.52 17.8ZM213.72 18.16V18.035H213.615L213.597 18.1382L213.72 18.16ZM213.04 22L212.917 21.9782L212.891 22.125H213.04V22ZM225.16 22.36L225.061 22.4369L225.067 22.443L225.16 22.36ZM225.32 23.68L225.443 23.7016L225.443 23.7006L225.32 23.68ZM224.68 27.32L224.557 27.2984L224.557 27.2986L224.68 27.32ZM224.08 28.64L224.159 28.7369L224.164 28.7325L224.08 28.64ZM204.32 28.64L204.222 28.7182L204.227 28.723L204.32 28.64ZM204.2 27.32L204.322 27.3466L204.323 27.3416L204.2 27.32ZM208.6 2.28L208.478 2.25342L208.477 2.25836L208.6 2.28ZM209.2 0.999998L209.284 1.09291L209.284 1.09249L209.2 0.999998ZM227.36 0.724998C227.993 0.724998 228.367 0.858796 228.542 1.07808L228.738 0.921911C228.486 0.607867 228.007 0.474998 227.36 0.474998V0.724998ZM228.547 1.08304C228.719 1.27685 228.783 1.65061 228.677 2.25858L228.923 2.30142C229.031 1.68272 228.988 1.20314 228.733 0.916953L228.547 1.08304ZM228.677 2.25812L228.037 5.85812L228.283 5.90188L228.923 2.30188L228.677 2.25812ZM228.037 5.85945C227.932 6.48561 227.727 6.90465 227.44 7.14397L227.6 7.33603C227.953 7.04201 228.174 6.55439 228.283 5.90055L228.037 5.85945ZM227.441 7.14325C227.18 7.35668 226.761 7.475 226.16 7.475V7.725C226.786 7.725 227.273 7.60332 227.599 7.33674L227.441 7.14325ZM226.16 7.475H215.6V7.725H226.16V7.475ZM215.477 7.57788L214.837 11.1379L215.083 11.1821L215.723 7.62212L215.477 7.57788ZM214.96 11.285H223.4V11.035H214.96V11.285ZM223.4 11.285C224.036 11.285 224.389 11.42 224.538 11.6317L224.742 11.4883C224.517 11.1667 224.044 11.035 223.4 11.035V11.285ZM224.547 11.643C224.719 11.8369 224.783 12.2106 224.677 12.8186L224.923 12.8614C225.031 12.2427 224.988 11.7631 224.733 11.477L224.547 11.643ZM224.677 12.8181L224.037 16.4181L224.283 16.4619L224.923 12.8619L224.677 12.8181ZM224.038 16.4145C223.906 17.044 223.701 17.4668 223.436 17.7075L223.604 17.8925C223.926 17.5999 224.147 17.116 224.282 16.4655L224.038 16.4145ZM223.436 17.7071C223.205 17.9154 222.791 18.035 222.16 18.035V18.285C222.809 18.285 223.302 18.1646 223.604 17.8929L223.436 17.7071ZM222.16 18.035H213.72V18.285H222.16V18.035ZM213.597 18.1382L212.917 21.9782L213.163 22.0218L213.843 18.1818L213.597 18.1382ZM213.04 22.125H223.96V21.875H213.04V22.125ZM223.96 22.125C224.26 22.125 224.5 22.1544 224.684 22.2097C224.868 22.265 224.989 22.3436 225.061 22.4367L225.259 22.2833C225.144 22.1364 224.972 22.035 224.756 21.9703C224.54 21.9056 224.274 21.875 223.96 21.875V22.125ZM225.067 22.443C225.151 22.538 225.211 22.681 225.236 22.885C225.261 23.0891 225.249 23.3463 225.197 23.6595L225.443 23.7006C225.498 23.3737 225.513 23.0909 225.484 22.855C225.456 22.619 225.382 22.422 225.253 22.277L225.067 22.443ZM225.197 23.6584L224.557 27.2984L224.803 27.3416L225.443 23.7016L225.197 23.6584ZM224.557 27.2986C224.452 27.8992 224.26 28.3075 223.996 28.5475L224.164 28.7325C224.487 28.4391 224.694 27.9675 224.803 27.3414L224.557 27.2986ZM224.001 28.5433C223.741 28.7561 223.309 28.875 222.68 28.875V29.125C223.331 29.125 223.833 29.0039 224.159 28.7367L224.001 28.5433ZM222.68 28.875H205.6V29.125H222.68V28.875ZM205.6 28.875C204.964 28.875 204.588 28.7535 204.413 28.557L204.227 28.723C204.479 29.0065 204.956 29.125 205.6 29.125V28.875ZM204.418 28.5619C204.241 28.3418 204.191 27.9519 204.322 27.3466L204.078 27.2934C203.943 27.9148 203.972 28.4049 204.222 28.7181L204.418 28.5619ZM204.323 27.3416L208.723 2.30163L208.477 2.25836L204.077 27.2984L204.323 27.3416ZM208.722 2.30655C208.854 1.70181 209.046 1.30651 209.284 1.09291L209.116 0.907086C208.82 1.17348 208.613 1.63152 208.478 2.25344L208.722 2.30655ZM209.284 1.09249C209.544 0.856342 209.973 0.724998 210.6 0.724998V0.474998C209.947 0.474998 209.443 0.610321 209.116 0.907506L209.284 1.09249ZM210.6 0.724998H227.36V0.474998H210.6V0.724998ZM255.956 0.999998L255.858 1.07819L255.862 1.08304L255.956 0.999998ZM256.116 2.28L256.239 2.30182L256.239 2.30142L256.116 2.28ZM251.676 27.32L251.553 27.2982L251.552 27.2986L251.676 27.32ZM251.076 28.64L251.155 28.7369L251.16 28.7325L251.076 28.64ZM243.796 28.2L243.682 28.253L243.684 28.2559L243.796 28.2ZM239.356 18.72L239.242 18.7721L239.242 18.773L239.356 18.72ZM238.036 15.08L237.914 15.1077L237.915 15.111L238.036 15.08ZM237.276 10.48L237.4 10.4643L237.386 10.355H237.276V10.48ZM236.956 10.48V10.355H236.823L236.831 10.4869L236.956 10.48ZM236.476 20.8L236.599 20.8219L236.599 20.8216L236.476 20.8ZM235.316 27.32L235.438 27.3466L235.439 27.3419L235.316 27.32ZM234.676 28.64L234.759 28.7329L234.76 28.7325L234.676 28.64ZM227.836 28.64L227.738 28.7182L227.742 28.723L227.836 28.64ZM227.716 27.32L227.838 27.3466L227.839 27.3416L227.716 27.32ZM232.116 2.28L231.993 2.25342L231.993 2.25836L232.116 2.28ZM232.716 0.999998L232.799 1.09291L232.8 1.09249L232.716 0.999998ZM240.236 1.4L240.349 1.34765L240.347 1.3441L240.236 1.4ZM244.956 11.64L244.842 11.6923L244.843 11.6933L244.956 11.64ZM247.036 18.96L246.913 18.9854L246.934 19.085H247.036V18.96ZM247.356 18.96V19.085H247.497L247.48 18.9443L247.356 18.96ZM246.876 13.88H246.751L246.751 13.8831L246.876 13.88ZM247.356 8.84L247.232 8.81822L247.232 8.82273L247.356 8.84ZM248.516 2.28L248.639 2.30176L248.639 2.30142L248.516 2.28ZM249.076 0.999998L249.159 1.09291L249.16 1.09249L249.076 0.999998ZM254.676 0.724998C255.308 0.724998 255.683 0.858796 255.858 1.07808L256.053 0.921911C255.802 0.607867 255.323 0.474998 254.676 0.474998V0.724998ZM255.862 1.08304C256.034 1.27686 256.098 1.65061 255.992 2.25858L256.239 2.30142C256.346 1.68272 256.303 1.20314 256.049 0.916953L255.862 1.08304ZM255.993 2.25817L251.553 27.2982L251.799 27.3418L256.239 2.30182L255.993 2.25817ZM251.552 27.2986C251.448 27.8992 251.256 28.3075 250.992 28.5475L251.16 28.7325C251.482 28.4391 251.69 27.9675 251.799 27.3414L251.552 27.2986ZM250.996 28.5433C250.736 28.7561 250.305 28.875 249.676 28.875V29.125C250.326 29.125 250.828 29.0039 251.155 28.7367L250.996 28.5433ZM249.676 28.875H245.276V29.125H249.676V28.875ZM245.276 28.875C244.931 28.875 244.649 28.8111 244.425 28.69C244.202 28.5697 244.03 28.3893 243.907 28.1441L243.684 28.2559C243.828 28.544 244.035 28.7636 244.306 28.91C244.576 29.0556 244.901 29.125 245.276 29.125V28.875ZM243.909 28.147L239.469 18.667L239.242 18.773L243.682 28.253L243.909 28.147ZM239.469 18.6679C238.885 17.3935 238.448 16.1872 238.157 15.049L237.915 15.111C238.21 16.2661 238.653 17.4865 239.242 18.7721L239.469 18.6679ZM238.158 15.0523C237.892 13.8845 237.639 12.3556 237.4 10.4643L237.152 10.4957C237.392 12.391 237.646 13.9288 237.914 15.1077L238.158 15.0523ZM237.276 10.355H236.956V10.605H237.276V10.355ZM236.831 10.4869C237.044 14.3196 236.884 17.7498 236.353 20.7784L236.599 20.8216C237.134 17.7702 237.294 14.3204 237.08 10.4731L236.831 10.4869ZM236.353 20.7781L235.193 27.2981L235.439 27.3419L236.599 20.8219L236.353 20.7781ZM235.193 27.2934C235.063 27.8951 234.857 28.3058 234.592 28.5475L234.76 28.7325C235.081 28.4408 235.302 27.9716 235.438 27.3466L235.193 27.2934ZM234.592 28.5471C234.361 28.7554 233.947 28.875 233.316 28.875V29.125C233.965 29.125 234.457 29.0046 234.759 28.7329L234.592 28.5471ZM233.316 28.875H229.116V29.125H233.316V28.875ZM229.116 28.875C228.48 28.875 228.104 28.7535 227.929 28.557L227.742 28.723C227.994 29.0065 228.471 29.125 229.116 29.125V28.875ZM227.933 28.5619C227.757 28.3418 227.706 27.9519 227.838 27.3466L227.593 27.2934C227.458 27.9148 227.487 28.4049 227.738 28.7181L227.933 28.5619ZM227.839 27.3416L232.239 2.30163L231.993 2.25836L227.592 27.2984L227.839 27.3416ZM232.238 2.30655C232.369 1.70181 232.562 1.30651 232.799 1.09291L232.632 0.907086C232.336 1.17348 232.129 1.63152 231.993 2.25344L232.238 2.30655ZM232.8 1.09249C233.059 0.856342 233.489 0.724998 234.116 0.724998V0.474998C233.463 0.474998 232.958 0.610321 232.632 0.907506L232.8 1.09249ZM234.116 0.724998H238.676V0.474998H234.116V0.724998ZM238.676 0.724998C239.418 0.724998 239.885 0.97797 240.124 1.4559L240.347 1.3441C240.053 0.75536 239.48 0.474998 238.676 0.474998V0.724998ZM240.122 1.45232L244.842 11.6923L245.069 11.5877L240.349 1.34767L240.122 1.45232ZM244.843 11.6933C245.502 13.0921 246.193 15.5194 246.913 18.9854L247.158 18.9346C246.438 15.4673 245.742 13.0145 245.069 11.5867L244.843 11.6933ZM247.036 19.085H247.356V18.835H247.036V19.085ZM247.48 18.9443C247.186 16.6248 247.027 14.9368 247.001 13.8769L246.751 13.8831C246.777 14.9565 246.938 16.6552 247.232 18.9757L247.48 18.9443ZM247.001 13.88C247.001 12.8226 247.16 11.1499 247.479 8.85727L247.232 8.82273C246.912 11.1168 246.751 12.8041 246.751 13.88H247.001ZM247.479 8.86177L248.639 2.30176L248.393 2.25823L247.233 8.81823L247.479 8.86177ZM248.639 2.30142C248.744 1.69743 248.924 1.30473 249.159 1.09291L248.992 0.907086C248.694 1.17527 248.501 1.6359 248.392 2.25858L248.639 2.30142ZM249.16 1.09249C249.419 0.856342 249.849 0.724998 250.476 0.724998V0.474998C249.823 0.474998 249.318 0.610321 248.992 0.907506L249.16 1.09249ZM250.476 0.724998H254.676V0.474998H250.476V0.724998ZM280.242 0.999998L280.144 1.07819L280.148 1.08304L280.242 0.999998ZM280.402 2.28L280.525 2.30188L280.525 2.30142L280.402 2.28ZM279.762 5.88L279.638 5.85812L279.638 5.85945L279.762 5.88ZM279.122 7.24L279.201 7.33675L279.202 7.33603L279.122 7.24ZM267.202 7.6V7.475H267.097L267.079 7.57788L267.202 7.6ZM266.562 11.16L266.439 11.1379L266.412 11.285H266.562V11.16ZM276.242 11.56L276.139 11.6317L276.143 11.6376L276.148 11.643L276.242 11.56ZM276.402 12.84L276.525 12.8619L276.525 12.8614L276.402 12.84ZM275.762 16.44L275.884 16.4655L275.885 16.4619L275.762 16.44ZM275.122 17.8L275.205 17.8929L275.206 17.8925L275.122 17.8ZM265.322 18.16V18.035H265.217L265.198 18.1382L265.322 18.16ZM264.642 22L264.518 21.9782L264.492 22.125H264.642V22ZM276.762 22.36L276.663 22.4369L276.668 22.443L276.762 22.36ZM276.922 23.68L277.045 23.7016L277.045 23.7006L276.922 23.68ZM276.282 27.32L276.158 27.2984L276.158 27.2986L276.282 27.32ZM275.682 28.64L275.761 28.7369L275.766 28.7325L275.682 28.64ZM255.922 28.64L255.824 28.7182L255.828 28.723L255.922 28.64ZM255.802 27.32L255.924 27.3466L255.925 27.3416L255.802 27.32ZM260.202 2.28L260.079 2.25342L260.078 2.25836L260.202 2.28ZM260.802 0.999998L260.885 1.09291L260.886 1.09249L260.802 0.999998ZM278.962 0.724998C279.594 0.724998 279.969 0.858796 280.144 1.07808L280.339 0.921911C280.088 0.607867 279.609 0.474998 278.962 0.474998V0.724998ZM280.148 1.08304C280.32 1.27685 280.384 1.65061 280.278 2.25858L280.525 2.30142C280.632 1.68272 280.589 1.20314 280.335 0.916953L280.148 1.08304ZM280.279 2.25812L279.638 5.85812L279.885 5.90188L280.525 2.30188L280.279 2.25812ZM279.638 5.85945C279.534 6.48561 279.329 6.90465 279.042 7.14397L279.202 7.33603C279.554 7.04201 279.776 6.55439 279.885 5.90055L279.638 5.85945ZM279.042 7.14325C278.782 7.35668 278.363 7.475 277.762 7.475V7.725C278.387 7.725 278.875 7.60332 279.201 7.33674L279.042 7.14325ZM277.762 7.475H267.202V7.725H277.762V7.475ZM267.079 7.57788L266.439 11.1379L266.685 11.1821L267.325 7.62212L267.079 7.57788ZM266.562 11.285H275.002V11.035H266.562V11.285ZM275.002 11.285C275.637 11.285 275.991 11.42 276.139 11.6317L276.344 11.4883C276.119 11.1667 275.646 11.035 275.002 11.035V11.285ZM276.148 11.643C276.32 11.8369 276.384 12.2106 276.278 12.8186L276.525 12.8614C276.632 12.2427 276.589 11.7631 276.335 11.477L276.148 11.643ZM276.279 12.8181L275.638 16.4181L275.885 16.4619L276.525 12.8619L276.279 12.8181ZM275.639 16.4145C275.508 17.044 275.302 17.4668 275.037 17.7075L275.206 17.8925C275.527 17.5999 275.748 17.116 275.884 16.4655L275.639 16.4145ZM275.038 17.7071C274.806 17.9154 274.393 18.035 273.762 18.035V18.285C274.411 18.285 274.903 18.1646 275.205 17.8929L275.038 17.7071ZM273.762 18.035H265.322V18.285H273.762V18.035ZM265.198 18.1382L264.518 21.9782L264.765 22.0218L265.445 18.1818L265.198 18.1382ZM264.642 22.125H275.562V21.875H264.642V22.125ZM275.562 22.125C275.861 22.125 276.101 22.1544 276.286 22.2097C276.47 22.265 276.59 22.3436 276.663 22.4367L276.86 22.2833C276.746 22.1364 276.573 22.035 276.357 21.9703C276.142 21.9056 275.875 21.875 275.562 21.875V22.125ZM276.668 22.443C276.753 22.538 276.813 22.681 276.837 22.885C276.862 23.0891 276.85 23.3463 276.798 23.6595L277.045 23.7006C277.099 23.3737 277.114 23.0909 277.086 22.855C277.057 22.619 276.984 22.422 276.855 22.277L276.668 22.443ZM276.798 23.6584L276.158 27.2984L276.405 27.3416L277.045 23.7016L276.798 23.6584ZM276.158 27.2986C276.054 27.8992 275.861 28.3075 275.597 28.5475L275.766 28.7325C276.088 28.4391 276.296 27.9675 276.405 27.3414L276.158 27.2986ZM275.602 28.5433C275.342 28.7561 274.911 28.875 274.282 28.875V29.125C274.932 29.125 275.434 29.0039 275.761 28.7367L275.602 28.5433ZM274.282 28.875H257.202V29.125H274.282V28.875ZM257.202 28.875C256.566 28.875 256.19 28.7535 256.015 28.557L255.828 28.723C256.08 29.0065 256.557 29.125 257.202 29.125V28.875ZM256.019 28.5619C255.843 28.3418 255.792 27.9519 255.924 27.3466L255.679 27.2934C255.544 27.9148 255.573 28.4049 255.824 28.7181L256.019 28.5619ZM255.925 27.3416L260.325 2.30163L260.078 2.25836L255.678 27.2984L255.925 27.3416ZM260.324 2.30655C260.455 1.70181 260.648 1.30651 260.885 1.09291L260.718 0.907086C260.422 1.17348 260.215 1.63152 260.079 2.25344L260.324 2.30655ZM260.886 1.09249C261.145 0.856342 261.575 0.724998 262.202 0.724998V0.474998C261.549 0.474998 261.044 0.610321 260.717 0.907506L260.886 1.09249ZM262.202 0.724998H278.962V0.474998H262.202V0.724998ZM303.757 0.999998L303.659 1.07819L303.664 1.08304L303.757 0.999998ZM303.917 2.28L304.04 2.30188L304.04 2.30142L303.917 2.28ZM303.277 5.88L303.154 5.85812L303.154 5.85945L303.277 5.88ZM302.637 7.24L302.716 7.33675L302.717 7.33603L302.637 7.24ZM290.717 7.6V7.475H290.613L290.594 7.57773L290.717 7.6ZM289.877 12.24L289.754 12.2177L289.728 12.365H289.877V12.24ZM299.557 12.64L299.455 12.7117L299.459 12.7176L299.464 12.723L299.557 12.64ZM299.717 13.92L299.84 13.9419L299.84 13.9414L299.717 13.92ZM299.077 17.52L298.954 17.4981L298.954 17.4995L299.077 17.52ZM298.477 18.88L298.556 18.9769L298.561 18.9725L298.477 18.88ZM288.677 19.24V19.115H288.573L288.554 19.2181L288.677 19.24ZM287.237 27.32L287.359 27.3466L287.36 27.3419L287.237 27.32ZM286.597 28.64L286.681 28.7329L286.681 28.7325L286.597 28.64ZM279.437 28.64L279.339 28.7182L279.344 28.723L279.437 28.64ZM279.317 27.32L279.439 27.3466L279.44 27.3416L279.317 27.32ZM283.717 2.28L283.595 2.25342L283.594 2.25836L283.717 2.28ZM284.317 0.999998L284.401 1.09291L284.401 1.09249L284.317 0.999998ZM302.477 0.724998C303.11 0.724998 303.484 0.858796 303.66 1.07808L303.855 0.921911C303.604 0.607867 303.124 0.474998 302.477 0.474998V0.724998ZM303.664 1.08304C303.836 1.27685 303.9 1.65061 303.794 2.25858L304.04 2.30142C304.148 1.68272 304.105 1.20314 303.851 0.916953L303.664 1.08304ZM303.794 2.25812L303.154 5.85812L303.4 5.90188L304.04 2.30188L303.794 2.25812ZM303.154 5.85945C303.049 6.48561 302.844 6.90465 302.557 7.14397L302.717 7.33603C303.07 7.04201 303.292 6.55439 303.401 5.90055L303.154 5.85945ZM302.558 7.14325C302.297 7.35668 301.878 7.475 301.277 7.475V7.725C301.903 7.725 302.391 7.60332 302.716 7.33674L302.558 7.14325ZM301.277 7.475H290.717V7.725H301.277V7.475ZM290.594 7.57773L289.754 12.2177L290 12.2623L290.84 7.62227L290.594 7.57773ZM289.877 12.365H298.317V12.115H289.877V12.365ZM298.317 12.365C298.953 12.365 299.307 12.5 299.455 12.7117L299.66 12.5683C299.434 12.2467 298.961 12.115 298.317 12.115V12.365ZM299.464 12.723C299.636 12.9169 299.7 13.2906 299.594 13.8986L299.84 13.9414C299.948 13.3227 299.905 12.8431 299.651 12.557L299.464 12.723ZM299.594 13.8981L298.954 17.4981L299.2 17.5419L299.84 13.9419L299.594 13.8981ZM298.954 17.4995C298.849 18.128 298.656 18.5484 298.393 18.7875L298.561 18.9725C298.885 18.6782 299.092 18.192 299.201 17.5406L298.954 17.4995ZM298.398 18.7833C298.138 18.9961 297.706 19.115 297.077 19.115V19.365C297.728 19.365 298.23 19.2439 298.556 18.9767L298.398 18.7833ZM297.077 19.115H288.677V19.365H297.077V19.115ZM288.554 19.2181L287.114 27.2981L287.36 27.3419L288.8 19.2619L288.554 19.2181ZM287.115 27.2934C286.984 27.8951 286.779 28.3058 286.513 28.5475L286.681 28.7325C287.002 28.4408 287.223 27.9716 287.359 27.3466L287.115 27.2934ZM286.514 28.5471C286.282 28.7554 285.868 28.875 285.237 28.875V29.125C285.886 29.125 286.379 29.0046 286.681 28.7329L286.514 28.5471ZM285.237 28.875H280.717V29.125H285.237V28.875ZM280.717 28.875C280.082 28.875 279.705 28.7535 279.531 28.557L279.344 28.723C279.596 29.0065 280.073 29.125 280.717 29.125V28.875ZM279.535 28.5619C279.359 28.3418 279.308 27.9519 279.439 27.3466L279.195 27.2934C279.06 27.9148 279.089 28.4049 279.34 28.7181L279.535 28.5619ZM279.44 27.3416L283.84 2.30163L283.594 2.25836L279.194 27.2984L279.44 27.3416ZM283.839 2.30655C283.971 1.70181 284.163 1.30651 284.401 1.09291L284.234 0.907086C283.938 1.17348 283.73 1.63152 283.595 2.25344L283.839 2.30655ZM284.401 1.09249C284.661 0.856342 285.09 0.724998 285.717 0.724998V0.474998C285.064 0.474998 284.56 0.610321 284.233 0.907506L284.401 1.09249ZM285.717 0.724998H302.477V0.474998H285.717V0.724998ZM306.921 2.2L306.799 2.17342L306.798 2.17831L306.921 2.2ZM307.521 0.959999L307.599 1.05777L307.605 1.05291L307.521 0.959999ZM314.841 2.2L314.718 2.17764L314.718 2.17831L314.841 2.2ZM310.401 27.4L310.524 27.4224L310.524 27.4217L310.401 27.4ZM302.601 28.68L302.503 28.7567L302.507 28.7629L302.513 28.7684L302.601 28.68ZM302.481 27.4L302.358 27.3783L302.358 27.3786L302.481 27.4ZM307.043 2.22655C307.175 1.6206 307.367 1.2432 307.599 1.05761L307.443 0.86239C307.142 1.10347 306.934 1.55273 306.799 2.17345L307.043 2.22655ZM307.605 1.05291C307.838 0.843245 308.227 0.724998 308.801 0.724998V0.474998C308.202 0.474998 307.738 0.596752 307.438 0.867087L307.605 1.05291ZM308.801 0.724998H313.521V0.474998H308.801V0.724998ZM313.521 0.724998C313.821 0.724998 314.061 0.754443 314.245 0.809727C314.43 0.864986 314.55 0.943628 314.623 1.03674L314.82 0.883256C314.706 0.73637 314.533 0.63501 314.317 0.57027C314.101 0.505554 313.835 0.474998 313.521 0.474998V0.724998ZM314.623 1.03674C314.774 1.23131 314.824 1.596 314.718 2.17764L314.964 2.22236C315.072 1.63067 315.042 1.16868 314.82 0.883256L314.623 1.03674ZM314.718 2.17831L310.278 27.3783L310.524 27.4217L314.964 2.22169L314.718 2.17831ZM310.278 27.3776C310.174 27.9536 309.994 28.3343 309.758 28.5471L309.925 28.7329C310.222 28.4657 310.416 28.0198 310.524 27.4224L310.278 27.3776ZM309.758 28.5471C309.525 28.7561 309.124 28.875 308.521 28.875V29.125C309.145 29.125 309.624 29.004 309.925 28.7329L309.758 28.5471ZM308.521 28.875H303.801V29.125H308.521V28.875ZM303.801 28.875C303.22 28.875 302.865 28.7674 302.69 28.5916L302.513 28.7684C302.764 29.0193 303.209 29.125 303.801 29.125V28.875ZM302.7 28.6033C302.626 28.5083 302.574 28.3672 302.556 28.1683C302.537 27.9698 302.552 27.7216 302.604 27.4214L302.358 27.3786C302.304 27.6917 302.285 27.9636 302.307 28.1917C302.328 28.4194 302.39 28.6117 302.503 28.7567L302.7 28.6033ZM302.604 27.4217L307.044 2.22169L306.798 2.17831L302.358 27.3783L302.604 27.4217ZM340.353 0.999998L340.256 1.07819L340.26 1.08304L340.353 0.999998ZM340.473 2.28L340.351 2.25343L340.35 2.25812L340.473 2.28ZM339.833 5.88L339.71 5.85812L339.71 5.85945L339.833 5.88ZM339.233 7.24L339.313 7.33687L339.318 7.33249L339.233 7.24ZM331.913 7.6V7.475H331.809L331.79 7.57828L331.913 7.6ZM328.433 27.32L328.556 27.3466L328.557 27.3417L328.433 27.32ZM327.793 28.64L327.877 28.7329L327.878 28.7325L327.793 28.64ZM320.633 28.64L320.536 28.7182L320.54 28.723L320.633 28.64ZM320.513 27.32L320.636 27.3466L320.637 27.3417L320.513 27.32ZM323.993 7.6L324.117 7.62172L324.142 7.475H323.993V7.6ZM316.753 7.24L316.651 7.31168L316.655 7.31762L316.66 7.32304L316.753 7.24ZM316.633 5.88L316.51 5.85812L316.51 5.85945L316.633 5.88ZM317.273 2.28L317.151 2.25343L317.15 2.25812L317.273 2.28ZM317.873 0.999998L317.957 1.09291L317.958 1.09249L317.873 0.999998ZM339.073 0.724998C339.706 0.724998 340.08 0.858796 340.256 1.07808L340.451 0.921911C340.2 0.607867 339.721 0.474998 339.073 0.474998V0.724998ZM340.26 1.08304C340.43 1.27418 340.484 1.64477 340.351 2.25344L340.596 2.30655C340.73 1.68856 340.704 1.20582 340.447 0.916953L340.26 1.08304ZM340.35 2.25812L339.71 5.85812L339.956 5.90188L340.596 2.30188L340.35 2.25812ZM339.71 5.85945C339.605 6.48802 339.412 6.90845 339.149 7.14751L339.318 7.33249C339.641 7.03822 339.848 6.55198 339.957 5.90055L339.71 5.85945ZM339.154 7.14325C338.894 7.35608 338.463 7.475 337.833 7.475V7.725C338.484 7.725 338.986 7.60392 339.313 7.33674L339.154 7.14325ZM337.833 7.475H331.913V7.725H337.833V7.475ZM331.79 7.57828L328.31 27.2983L328.557 27.3417L332.037 7.62172L331.79 7.57828ZM328.311 27.2934C328.18 27.8951 327.975 28.3058 327.709 28.5475L327.878 28.7325C328.198 28.4408 328.42 27.9716 328.556 27.3466L328.311 27.2934ZM327.71 28.5471C327.478 28.7554 327.064 28.875 326.433 28.875V29.125C327.082 29.125 327.575 29.0046 327.877 28.7329L327.71 28.5471ZM326.433 28.875H321.913V29.125H326.433V28.875ZM321.913 28.875C321.278 28.875 320.902 28.7535 320.727 28.557L320.54 28.723C320.792 29.0065 321.269 29.125 321.913 29.125V28.875ZM320.731 28.5619C320.555 28.3418 320.504 27.9519 320.636 27.3466L320.391 27.2934C320.256 27.9148 320.285 28.4049 320.536 28.7181L320.731 28.5619ZM320.637 27.3417L324.117 7.62172L323.87 7.57828L320.39 27.2983L320.637 27.3417ZM323.993 7.475H318.033V7.725H323.993V7.475ZM318.033 7.475C317.398 7.475 317.022 7.35346 316.847 7.15695L316.66 7.32304C316.912 7.60653 317.389 7.725 318.033 7.725V7.475ZM316.856 7.16832C316.7 6.94502 316.651 6.53606 316.757 5.90055L316.51 5.85945C316.403 6.50394 316.434 7.00165 316.651 7.31168L316.856 7.16832ZM316.757 5.90188L317.396 2.30188L317.15 2.25812L316.51 5.85812L316.757 5.90188ZM317.396 2.30655C317.527 1.70181 317.72 1.30651 317.957 1.09291L317.79 0.907086C317.494 1.17348 317.286 1.63152 317.151 2.25344L317.396 2.30655ZM317.958 1.09249C318.217 0.856342 318.646 0.724998 319.273 0.724998V0.474998C318.62 0.474998 318.116 0.610321 317.789 0.907506L317.958 1.09249ZM319.273 0.724998H339.073V0.474998H319.273V0.724998ZM340.976 8.28L340.853 8.25785L340.853 8.26017L340.976 8.28ZM345.016 2.16L345.083 2.26535L345.084 2.26515L345.016 2.16ZM360.656 1.52L360.587 1.62456L360.589 1.62538L360.656 1.52ZM363.936 5.92L364.055 5.8821L364.055 5.88096L363.936 5.92ZM362.736 8L362.782 8.1163L362.782 8.11606L362.736 8ZM358.776 9.56L358.73 9.44369L358.729 9.44431L358.776 9.56ZM357.496 9.76L357.542 9.64394L357.496 9.76ZM356.776 8.72L356.658 8.76089L356.658 8.76272L356.776 8.72ZM348.936 8.72L348.813 8.69868V8.69876L348.936 8.72ZM353.776 11.16L353.795 11.0364L353.791 11.0359L353.776 11.16ZM355.736 11.56L355.704 11.6811L355.709 11.6821L355.736 11.56ZM357.696 12.16L357.651 12.2767L357.653 12.2772L357.696 12.16ZM359.576 13.08L359.644 12.9752L359.576 13.08ZM361.136 14.4L361.045 14.4861L361.048 14.4884L361.136 14.4ZM362.256 16.12L362.373 16.0761L362.256 16.12ZM362.816 18.36L362.692 18.3793L362.816 18.36ZM362.656 21.2L362.534 21.1719L362.533 21.1772L362.656 21.2ZM341.696 28L341.636 28.1096L341.696 28ZM338.176 23.4L338.053 23.4216L338.053 23.4245L338.176 23.4ZM339.656 21.2L339.616 21.0817L339.616 21.0817L339.656 21.2ZM343.656 19.84L343.616 19.7214L343.616 19.7217L343.656 19.84ZM345.096 19.72L345.048 19.8357L345.056 19.8386L345.096 19.72ZM345.856 20.72L345.737 20.7595L345.738 20.7602L345.856 20.72ZM354.696 20.56L354.819 20.5837L354.819 20.5828L354.696 20.56ZM353.776 19L353.725 19.1142L353.727 19.1149L353.776 19ZM350.416 18.2L350.398 18.3237L350.399 18.3238L350.416 18.2ZM347.536 17.68L347.508 17.8019L347.536 17.68ZM344.776 16.68L344.829 16.567L344.776 16.68ZM341.056 12.24L341.177 12.209V12.209L341.056 12.24ZM341.099 8.30214C341.573 5.66854 342.9 3.65927 345.083 2.26535L344.949 2.05465C342.705 3.4874 341.339 5.55813 340.853 8.25786L341.099 8.30214ZM345.084 2.26515C347.297 0.842491 350.284 0.124999 354.056 0.124999V-0.125001C350.255 -0.125001 347.215 0.597508 344.948 2.05485L345.084 2.26515ZM354.056 0.124999C356.897 0.124999 359.069 0.629977 360.587 1.62456L360.724 1.41544C359.149 0.383355 356.921 -0.125001 354.056 -0.125001V0.124999ZM360.589 1.62538C362.108 2.59472 363.185 4.03636 363.817 5.95904L364.055 5.88096C363.407 3.9103 362.297 2.41862 360.723 1.41462L360.589 1.62538ZM363.817 5.9579C364.002 6.54015 363.999 6.91907 363.869 7.13569L364.083 7.26431C364.273 6.9476 364.243 6.47319 364.055 5.8821L363.817 5.9579ZM363.869 7.13569C363.803 7.24579 363.677 7.3666 363.478 7.49496C363.281 7.62246 363.018 7.75236 362.69 7.88394L362.782 8.11606C363.12 7.98097 363.398 7.8442 363.614 7.70504C363.828 7.56673 363.989 7.42088 364.083 7.26431L363.869 7.13569ZM362.69 7.8837L358.73 9.4437L358.822 9.6763L362.782 8.1163L362.69 7.8837ZM358.729 9.44431C358.44 9.56217 358.197 9.63519 357.997 9.6665C357.795 9.69798 357.647 9.68575 357.542 9.64394L357.45 9.87606C357.612 9.94091 357.81 9.94868 358.035 9.9135C358.262 9.87814 358.525 9.79783 358.823 9.67569L358.729 9.44431ZM357.542 9.64394C357.44 9.60305 357.331 9.51093 357.219 9.34885C357.107 9.18744 356.998 8.96488 356.893 8.67728L356.658 8.76272C356.767 9.06179 356.885 9.30589 357.013 9.49115C357.141 9.67573 357.285 9.81028 357.45 9.87606L357.542 9.64394ZM356.894 8.67911C356.645 7.9583 356.198 7.4135 355.557 7.05118C354.919 6.6905 354.096 6.515 353.096 6.515V6.765C354.069 6.765 354.846 6.93617 355.434 7.26882C356.02 7.59983 356.427 8.09504 356.658 8.76089L356.894 8.67911ZM353.096 6.515C351.821 6.515 350.818 6.68903 350.1 7.0482C349.375 7.41053 348.94 7.96183 348.813 8.69868L349.059 8.74132C349.172 8.09151 349.55 7.6028 350.212 7.2718C350.88 6.93764 351.838 6.765 353.096 6.765V6.515ZM348.813 8.69876C348.742 9.10823 348.793 9.47042 348.979 9.77507C349.164 10.0783 349.473 10.3095 349.89 10.4761L349.982 10.2439C349.599 10.0905 349.341 9.88838 349.193 9.64492C349.045 9.40291 348.996 9.1051 349.059 8.74124L348.813 8.69876ZM349.89 10.4761C350.705 10.8024 351.999 11.0705 353.761 11.2841L353.791 11.0359C352.033 10.8228 350.766 10.5576 349.982 10.2439L349.89 10.4761ZM353.757 11.2835C354.446 11.3896 355.096 11.5221 355.704 11.681L355.768 11.439C355.15 11.2779 354.492 11.1437 353.795 11.0365L353.757 11.2835ZM355.709 11.6821C356.315 11.8139 356.963 12.0119 357.651 12.2767L357.741 12.0433C357.043 11.7748 356.383 11.5728 355.763 11.4379L355.709 11.6821ZM357.653 12.2772C358.366 12.5413 358.984 12.8441 359.508 13.1848L359.644 12.9752C359.102 12.6226 358.466 12.312 357.739 12.0428L357.653 12.2772ZM359.508 13.1848C360.032 13.5254 360.544 13.9588 361.045 14.4861L361.227 14.3139C360.714 13.7746 360.187 13.3279 359.644 12.9752L359.508 13.1848ZM361.048 14.4884C361.542 14.9831 361.905 15.5414 362.139 16.1639L362.373 16.0761C362.126 15.4186 361.743 14.8303 361.224 14.3116L361.048 14.4884ZM362.139 16.1639C362.375 16.7942 362.56 17.5323 362.692 18.3793L362.939 18.3407C362.805 17.4811 362.617 16.7258 362.373 16.0761L362.139 16.1639ZM362.692 18.3793C362.823 19.2136 362.771 20.1439 362.534 21.1719L362.778 21.2281C363.021 20.1761 363.076 19.213 362.939 18.3407L362.692 18.3793ZM362.533 21.1772C362.019 23.9456 360.654 26.014 358.44 27.3939C356.221 28.7768 353.137 29.475 349.176 29.475V29.725C353.162 29.725 356.298 29.0232 358.572 27.6061C360.851 26.186 362.253 24.0544 362.779 21.2228L362.533 21.1772ZM349.176 29.475C346.15 29.475 343.679 28.9439 341.756 27.8904L341.636 28.1096C343.607 29.1894 346.122 29.725 349.176 29.725V29.475ZM341.756 27.8904C339.839 26.8397 338.691 25.3358 338.299 23.3755L338.053 23.4245C338.461 25.4642 339.66 27.027 341.636 28.1096L341.756 27.8904ZM338.299 23.3785C338.21 22.8694 338.285 22.4539 338.51 22.1198C338.736 21.7833 339.125 21.513 339.696 21.3183L339.616 21.0817C339.013 21.287 338.569 21.5833 338.302 21.9802C338.034 22.3794 337.955 22.864 338.053 23.4215L338.299 23.3785ZM339.696 21.3183L343.696 19.9583L343.616 19.7217L339.616 21.0817L339.696 21.3183ZM343.695 19.9586C344.33 19.747 344.772 19.7205 345.048 19.8354L345.144 19.6046C344.78 19.4528 344.262 19.5063 343.616 19.7214L343.695 19.9586ZM345.056 19.8386C345.318 19.9259 345.554 20.2097 345.737 20.7595L345.975 20.6805C345.784 20.1103 345.513 19.7274 345.135 19.6014L345.056 19.8386ZM345.738 20.7602C345.988 21.4987 346.474 22.0536 347.189 22.4211C347.899 22.7868 348.831 22.965 349.976 22.965V22.715C348.854 22.715 347.966 22.5398 347.303 22.1989C346.644 21.8598 346.203 21.3546 345.974 20.6798L345.738 20.7602ZM349.976 22.965C351.411 22.965 352.539 22.7743 353.35 22.3826C354.167 21.9879 354.664 21.3878 354.819 20.5837L354.573 20.5363C354.435 21.2522 353.998 21.7921 353.242 22.1574C352.479 22.5257 351.394 22.715 349.976 22.715V22.965ZM354.819 20.5828C354.89 20.1997 354.845 19.8577 354.674 19.5665C354.503 19.2768 354.215 19.052 353.825 18.8851L353.727 19.1149C354.084 19.268 354.322 19.4632 354.458 19.6935C354.593 19.9223 354.635 20.2003 354.573 20.5372L354.819 20.5828ZM353.827 18.8858C353.09 18.5585 351.956 18.2899 350.433 18.0762L350.399 18.3238C351.916 18.5367 353.022 18.8015 353.725 19.1142L353.827 18.8858ZM350.434 18.0763C349.343 17.9166 348.386 17.7439 347.563 17.5581L347.508 17.8019C348.339 17.9895 349.302 18.1633 350.398 18.3237L350.434 18.0763ZM347.563 17.5581C346.748 17.374 345.837 17.0443 344.829 16.567L344.722 16.793C345.742 17.2757 346.67 17.6127 347.508 17.8019L347.563 17.5581ZM344.829 16.567C343.828 16.0925 343.043 15.5284 342.47 14.8774L342.282 15.0426C342.883 15.7249 343.698 16.3075 344.722 16.793L344.829 16.567ZM342.47 14.8774C341.9 14.2297 341.467 13.3427 341.177 12.209L340.935 12.271C341.232 13.4307 341.679 14.357 342.282 15.0426L342.47 14.8774ZM341.177 12.209C340.889 11.0829 340.861 9.78077 341.099 8.29983L340.853 8.26017C340.611 9.7659 340.636 11.1038 340.935 12.271L341.177 12.209Z" fill="url(#paint0_linear_181_3170)"/>
<defs>
<linearGradient id="paint0_linear_181_3170" x1="67.5" y1="-5" x2="67.5" y2="35" gradientUnits="userSpaceOnUse">
<stop offset="0.206492" stop-color="white"/>
<stop offset="0.478015" stop-color="#FFE7AA" stop-opacity="0"/>
<stop offset="0.689643" stop-color="#FFE7AA"/>
<stop offset="1" stop-color="#FFE7AA" stop-opacity="0"/>
</linearGradient>
</defs>
</svg>
