<svg width="41" height="44" viewBox="0 0 41 44" fill="none" xmlns="http://www.w3.org/2000/svg">
<g clip-path="url(#clip0_181_4718)">
<path fill-rule="evenodd" clip-rule="evenodd" d="M19.3081 29.5631V26.0728C20.0062 26.1891 20.5879 26.1891 21.286 26.1891C25.2417 26.1891 28.732 25.142 31.2916 23.3969L26.2888 23.6296C25.7071 23.7459 25.358 23.5132 25.009 23.1642C24.66 22.8152 24.4273 22.4661 24.5436 21.8844C24.5436 20.9537 25.2417 20.3719 26.1724 20.3719H38.1559C38.7376 20.3719 39.203 20.6046 39.6684 21.1863C40.0174 21.6517 40.1337 22.2334 39.901 22.8152L38.0395 29.7958C37.6905 30.8429 36.6434 31.541 35.48 31.3083L34.8983 31.1919C34.3165 31.0756 33.8512 30.7266 33.5021 30.1448C33.1531 29.6795 33.0367 28.9814 33.2694 28.3997L34.0838 26.3055C30.8262 28.2833 26.2888 29.5631 21.4023 29.5631H19.3081ZM19.3081 8.03946V5.59623H21.4023C25.7071 5.59623 29.7791 6.52699 32.9204 8.27215C33.3858 8.50484 33.6185 8.85387 33.6185 9.31925C33.7348 9.78462 33.6185 10.1337 33.2694 10.4827L33.0367 10.599C32.5714 11.0644 31.8733 11.1807 31.2916 10.8317C28.732 9.08656 25.2417 7.92312 21.286 7.92312C20.5879 7.92312 20.0062 8.03946 19.3081 8.03946ZM3.71804 0.0117188H19.3081V34.6823H3.71804C2.20557 34.6823 0.925781 33.5188 0.925781 32.0063V2.80398C0.925781 1.2915 2.20557 0.0117188 3.71804 0.0117188ZM19.3081 5.59623V8.03946C12.5602 8.62118 7.32471 12.4605 7.32471 17.1143C7.32471 21.6517 12.5602 25.4911 19.3081 26.0728V29.5631C10.117 28.8651 3.01997 23.7459 3.01997 17.5797C3.01997 11.4134 10.117 6.2943 19.3081 5.59623ZM7.32471 40.7321H3.6017V41.6629H6.27761C6.16126 42.0119 5.81223 42.4773 5.4632 42.71C5.11417 42.9427 4.64879 43.1754 4.06707 43.059C1.85653 42.8263 1.39116 39.8014 3.25266 38.7543C3.83438 38.4053 4.76514 38.4053 5.4632 38.8706C6.27761 39.336 5.23051 39.336 6.97567 39.336C6.85933 38.7543 6.16126 38.0562 5.57954 37.8235C4.76514 37.5909 3.83438 37.5909 3.01997 37.8235C1.85653 38.4053 0.809437 39.8014 1.27481 41.6629C1.62385 43.059 3.01997 44.2225 4.76514 43.9898C5.92858 43.7571 6.74299 42.9427 7.09202 42.0119C7.20836 41.7792 7.44105 41.0812 7.32471 40.7321ZM33.6185 40.6158V39.1033C34.3165 39.1033 35.0146 39.1033 35.0146 39.8014C35.0146 40.6158 34.3165 40.6158 33.6185 40.6158ZM32.106 43.8734H33.6185V41.8956C33.7348 42.0119 34.6656 43.6407 34.7819 43.8734H36.6434C36.5271 43.7571 35.3636 42.1283 35.1309 41.7792C35.3636 41.6629 35.5963 41.6629 35.9454 41.3139C36.0617 41.1975 36.2944 40.9648 36.4107 40.6158C36.7598 39.4524 36.2944 37.8235 34.5492 37.8235C33.8512 37.7072 32.9204 37.7072 32.106 37.7072V43.8734ZM26.2888 41.5466C24.1946 41.5466 24.8927 41.4302 24.4273 42.0119C23.9619 42.361 23.4965 42.5937 22.7985 42.361C21.286 41.8956 21.286 39.5687 22.9148 39.2197C23.4965 39.1033 23.9619 39.2197 24.4273 39.6851C24.8927 40.1504 24.1946 40.0341 26.2888 40.0341C26.2888 39.6851 26.0561 39.2197 25.8234 38.987C25.2417 38.0562 24.1946 37.5909 22.9148 37.7072C21.4023 37.8235 20.1226 39.1033 20.1226 40.7321C20.1226 42.4773 21.286 43.7571 22.7985 43.9898C24.0783 44.1061 25.1253 43.6407 25.8234 42.5937C25.9398 42.361 26.2888 41.8956 26.2888 41.5466ZM13.2583 43.8734H14.0727V38.638C14.189 38.7543 15.3524 42.0119 15.4688 42.5937C15.5851 42.8263 15.9342 43.7571 16.0505 43.8734H16.6322C16.8649 43.2917 17.3303 41.8956 17.563 41.1975C17.7957 40.8485 17.912 40.3831 18.1447 39.9177L18.6101 38.638L18.4937 43.8734H19.4245V37.7072H18.0284C17.912 38.2889 16.9813 40.6158 16.7486 41.3139C16.7486 41.4302 16.3995 42.361 16.2832 42.4773L14.538 37.8235L13.2583 37.7072V43.8734ZM28.9647 39.8014C28.9647 39.9177 29.5464 41.6629 29.5464 41.6629H28.383L28.9647 39.8014ZM26.0561 43.8734H27.5686L27.9176 42.9427H29.8955L30.2445 43.8734H31.8733C31.8733 43.7571 30.8262 41.0812 30.7099 40.8485C30.4772 40.2668 30.3608 39.8014 30.1281 39.336C30.0118 38.987 29.6628 37.9399 29.5464 37.7072H28.383L27.2195 40.8485C26.9869 41.1975 26.0561 43.6407 26.0561 43.8734ZM40.4828 40.0341L38.7376 40.1504V39.1033H40.4828V37.8235H37.2251V43.8734H40.4828V42.4773H38.7376V41.4302H40.4828V40.0341ZM10.0006 38.987C10.0006 39.1033 10.815 41.0812 10.815 41.1975H9.06987C9.06987 41.0812 9.88428 39.1033 10.0006 38.987ZM7.09202 43.8734H8.02277L8.72083 42.1283H11.1641C11.2804 42.361 11.3967 42.71 11.5131 42.9427C11.5131 43.1754 11.7458 43.7571 11.8621 43.8734H12.7929C12.7929 43.6407 11.7458 41.1975 11.6294 40.8485C11.3967 40.4995 10.466 37.9399 10.3497 37.7072H9.53524L7.09202 43.8734ZM40.4828 40.0341V41.4302H38.7376V42.4773H40.4828V43.8734H37.2251V37.8235H40.4828V39.1033C40.5991 39.1033 40.5991 39.1033 40.5991 38.7543C40.5991 38.5216 40.5991 37.9399 40.4828 37.7072H37.2251C37.2251 37.8235 37.1088 43.6407 37.2251 43.8734H40.4828L40.5991 42.4773H38.7376V41.4302H40.4828C40.5991 41.3139 40.5991 40.9648 40.5991 40.7321C40.5991 40.6158 40.5991 40.1504 40.4828 40.0341Z" fill="#494949"/>
</g>
<defs>
<clipPath id="clip0_181_4718">
<rect width="39.6733" height="44" fill="white" transform="translate(0.925781)"/>
</clipPath>
</defs>
</svg>
