<svg width="89" height="44" viewBox="0 0 89 44" fill="none" xmlns="http://www.w3.org/2000/svg">
<g clip-path="url(#clip0_181_4722)">
<path d="M5.59608 0H83.0201C84.4169 0 85.714 0.598639 86.612 1.4966C87.5099 2.39456 88.0088 3.59184 88.0088 4.98866V39.0113C88.0088 40.4082 87.5099 41.6054 86.612 42.6032C85.714 43.5011 84.4169 44 83.0201 44H5.59608C4.19926 44 3.00198 43.5011 2.10402 42.6032V42.5034C1.20606 41.6054 0.607422 40.4082 0.607422 39.0113V4.98866C0.607422 3.59184 1.20606 2.39456 2.10402 1.4966C3.00198 0.598639 4.19926 0 5.59608 0ZM83.0201 0.997732H5.59608C4.49858 0.997732 3.50085 1.4966 2.80243 2.19501C2.10402 2.89342 1.60515 3.89116 1.60515 4.98866V39.0113C1.60515 40.1088 2.10402 41.1066 2.80243 41.805C3.50085 42.5034 4.49858 43.0023 5.59608 43.0023H83.0201C84.1176 43.0023 85.1154 42.5034 85.8138 41.805C86.612 41.1066 87.011 40.1088 87.011 39.0113V4.98866C87.011 3.89116 86.612 2.89342 85.8138 2.19501C85.1154 1.4966 84.1176 0.997732 83.0201 0.997732Z" fill="#676767"/>
<path d="M15.4746 19.4565H16.8714V14.2683C17.1708 14.3681 17.2705 14.3681 17.5698 14.3681C18.6674 14.3681 19.8646 13.8692 20.563 12.9713C21.0619 12.2728 21.3612 11.4747 21.3612 10.3772C21.3612 9.27965 20.9621 8.28192 20.3635 7.68328C19.7649 7.08464 18.7671 6.78532 17.5698 6.78532C16.7717 6.78532 16.0732 6.88509 15.4746 6.98487V19.4565ZM16.8714 8.08237C17.071 7.9826 17.3703 7.9826 17.7694 7.9826C19.3658 7.9826 19.8646 9.0801 19.8646 10.3772C19.8646 12.1731 18.8669 13.1708 17.4701 13.1708C17.2705 13.1708 17.071 13.1708 16.8714 13.071V8.08237ZM22.9576 19.4565H24.4542V13.969H24.9531C26.2501 13.969 26.749 14.6674 27.0483 16.3636C27.2479 17.9599 27.5472 19.1572 27.7467 19.4565H29.1435C29.0438 19.1572 28.7445 18.0597 28.4451 16.2638C28.1458 14.6674 27.7467 13.7694 26.749 13.4701V13.3704C28.046 12.8715 28.8442 11.774 28.8442 10.1776C28.8442 9.17988 28.5449 8.28192 27.9463 7.68328C27.2479 7.08464 26.3499 6.78532 25.0528 6.78532C24.3544 6.78532 23.5562 6.88509 22.9576 6.98487V19.4565ZM24.4542 7.9826H25.1526C26.749 7.9826 27.3476 8.88056 27.3476 10.3772C27.3476 11.8738 26.4497 12.8715 25.0528 12.8715H24.4542V7.9826ZM33.8329 6.68555C31.6379 6.68555 30.1413 8.98033 30.1413 13.1708C30.1413 17.4611 31.5381 19.6561 33.6333 19.6561C35.6288 19.6561 37.3249 17.8602 37.3249 13.071C37.3249 9.0801 36.0279 6.68555 33.8329 6.68555ZM33.7331 7.9826C35.3295 7.9826 35.8284 10.7762 35.8284 13.1708C35.8284 15.5654 35.3295 18.359 33.7331 18.359C32.1367 18.359 31.6379 15.7649 31.6379 13.1708C31.6379 10.5767 32.1367 7.9826 33.7331 7.9826ZM42.4134 19.4565L45.4066 6.88509H43.8102L42.6129 12.7717C42.3136 14.2683 42.0143 15.9645 41.8147 17.6606H41.715C41.5154 16.0642 41.1163 14.1685 40.817 12.7717L39.6197 6.88509H38.0234L40.9168 19.4565H42.4134ZM50.2955 15.6651L51.1934 19.4565H52.5903L49.7966 6.88509H48.2002L45.3068 19.4565H46.7036L47.5018 15.6651H50.2955ZM47.7014 14.5676L48.3998 11.3749C48.5993 10.4769 48.6991 9.37942 48.8986 8.48147H48.9984C49.0982 9.37942 49.2977 10.3772 49.4973 11.3749L50.0959 14.5676H47.7014ZM54.1866 19.4565C54.5857 19.5563 55.0846 19.5563 56.0823 19.5563C57.4791 19.5563 58.6764 19.257 59.3748 18.4588C59.9735 17.8602 60.2728 16.9622 60.2728 15.9645C60.2728 14.2683 59.4746 13.071 57.978 12.6719C59.1753 12.1731 59.8737 11.0756 59.8737 9.77852C59.8737 8.88056 59.6742 8.18215 59.0755 7.68328C58.3771 6.98487 57.4791 6.78532 56.2819 6.78532C55.4837 6.78532 54.7853 6.88509 54.1866 6.98487V19.4565ZM55.5835 7.9826C55.783 7.9826 56.0823 7.88283 56.3816 7.88283C57.978 7.88283 58.4769 8.78079 58.4769 9.97806C58.4769 11.2751 57.4791 12.1731 56.2819 12.1731H55.5835V7.9826ZM55.5835 13.3704H56.2819C57.5789 13.3704 58.876 14.1685 58.876 15.9645C58.876 17.5608 57.8782 18.4588 56.3816 18.4588C55.9825 18.4588 55.783 18.359 55.5835 18.359V13.3704ZM61.9689 19.4565H67.0574V18.2592H63.4655V6.88509H61.9689V19.4565ZM70.2501 19.4565V14.0688L73.1435 6.88509H71.6469L70.5494 9.97806C70.2501 10.9758 69.9508 11.8738 69.6515 12.8715C69.3522 11.8738 69.0528 10.876 68.6537 9.97806L67.5562 6.88509H66.0596L68.8533 14.1685V19.4565H70.2501ZM32.3363 37.3159H33.7331V31.6289H36.9259V30.3318H33.7331V25.9418H37.1254V24.6447H32.3363V37.3159ZM42.2138 33.5245L43.1118 37.3159H44.5086L41.715 24.6447H40.1186L37.2252 37.3159H38.622L39.4202 33.5245H42.2138ZM39.6197 32.3273L40.3181 29.1345C40.5177 28.3363 40.7172 27.2388 40.817 26.2411H40.9168C41.0166 27.2388 41.2161 28.2366 41.4157 29.1345L42.1141 32.3273H39.6197ZM46.105 24.6447V37.3159H47.6016V24.6447H46.105ZM49.8964 37.3159H51.2932V31.8284H51.8918C53.0891 31.8284 53.6878 32.427 53.8873 34.223C54.1866 35.7196 54.3862 36.9168 54.5857 37.3159H56.0823C55.8828 36.9168 55.6832 35.9191 55.3839 34.1232C55.0846 32.427 54.5857 31.5291 53.6878 31.3295V31.2298C54.885 30.6311 55.6832 29.6334 55.6832 28.037C55.6832 27.0393 55.3839 26.1413 54.7853 25.5427C54.1866 24.8443 53.1889 24.6447 51.8918 24.6447C51.1934 24.6447 50.495 24.6447 49.8964 24.8443V37.3159ZM51.2932 25.842C51.4927 25.842 51.7921 25.7422 52.0914 25.7422C53.588 25.842 54.1866 26.74 54.1866 28.1368C54.1866 29.7332 53.2887 30.7309 51.8918 30.7309H51.2932V25.842Z" fill="#676767"/>
</g>
<defs>
<clipPath id="clip0_181_4722">
<rect width="87.4172" height="44" fill="white" transform="translate(0.599609)"/>
</clipPath>
</defs>
</svg>
